<?xml version="1.0" encoding="UTF-8" standalone="no"?>
<!-- Created with Inkscape (http://www.inkscape.org/) -->

<svg
   xmlns:dc="http://purl.org/dc/elements/1.1/"
   xmlns:cc="http://creativecommons.org/ns#"
   xmlns:rdf="http://www.w3.org/1999/02/22-rdf-syntax-ns#"
   xmlns:svg="http://www.w3.org/2000/svg"
   xmlns="http://www.w3.org/2000/svg"
   xmlns:sodipodi="http://sodipodi.sourceforge.net/DTD/sodipodi-0.dtd"
   xmlns:inkscape="http://www.inkscape.org/namespaces/inkscape"
   width="210mm"
   height="297mm"
   viewBox="0 0 744.09448819 1052.3622047"
   id="svg4359"
   version="1.1"
   inkscape:version="0.91 r13725"
   sodipodi:docname="Sol.svg"
   inkscape:export-filename="/Users/larsaeschlimann/Documents/02_BFH/09_Informatik/Softwareprojekt_SuperTeacher/SuperTeacher/assets/graphics/backgrounds/Sol.png"
   inkscape:export-xdpi="155.80847"
   inkscape:export-ydpi="155.80847">
  <defs
     id="defs4361" />
  <sodipodi:namedview
     id="base"
     pagecolor="#ffffff"
     bordercolor="#666666"
     borderopacity="1.0"
     inkscape:pageopacity="0.0"
     inkscape:pageshadow="2"
     inkscape:zoom="1.4142136"
     inkscape:cx="456.02999"
     inkscape:cy="540.0786"
     inkscape:document-units="px"
     inkscape:current-layer="layer1"
     showgrid="false"
     inkscape:window-width="1440"
     inkscape:window-height="851"
     inkscape:window-x="0"
     inkscape:window-y="1"
     inkscape:window-maximized="1" />
  <metadata
     id="metadata4364">
    <rdf:RDF>
      <cc:Work
         rdf:about="">
        <dc:format>image/svg+xml</dc:format>
        <dc:type
           rdf:resource="http://purl.org/dc/dcmitype/StillImage" />
      </cc:Work>
    </rdf:RDF>
  </metadata>
  <g
     inkscape:label="Ebene 1"
     inkscape:groupmode="layer"
     id="layer1">
    <g
       id="g5709">
      <g
         transform="matrix(1.0333179,0,0,1,13.318942,166.5)"
         inkscape:export-ydpi="154.25479"
         inkscape:export-xdpi="154.25479"
         id="g5586">
        <path
           style="opacity:1;fill:#000000;fill-opacity:1;fill-rule:nonzero;stroke:none;stroke-width:5.9000001;stroke-miterlimit:4;stroke-dasharray:none;stroke-opacity:1"
           d="m 258.0823,196.29825 0,4.55513 160.87285,52.80569 -160.87285,0 0,4.39267 160.87285,52.8776 -160.87285,0 0,22.0966 335.40437,0 c 0,0 -0.0148,-1.71783 0,-3.05949 l -162.86375,0 0,-14.56771 162.86375,0 0,-4.64146 -148.04434,-52.70554 148.04434,0 0,-4.39267 -148.04434,-52.80569 148.04434,-0.0267 0,-4.52845 z m 173.2356,4.55513 153.97164,52.80569 -153.97164,0 -158.69678,-52.80569 z m 0,57.19836 153.97164,52.8776 -153.97164,0 -158.69678,-52.8776 z m -5.69856,57.347 0,14.56771 -163.17489,0 0,-14.56771 z"
           id="path4974"
           inkscape:connector-curvature="0"
           sodipodi:nodetypes="cccccccccccccccccccccccccccccccccccc" />
        <path
           sodipodi:nodetypes="cccccccccccccccccccccccccccccccccccc"
           inkscape:connector-curvature="0"
           id="path5643"
           d="m 258.0823,196.29825 0,4.55513 160.87285,52.80569 -160.87285,0 0,4.39267 160.87285,52.8776 -160.87285,0 0,24.0966 335.40437,0 c 0,0 -0.0148,-3.71783 0,-5.05949 l -162.86375,0 0,-14.56771 162.86375,0 0,-4.64146 -148.04434,-52.70554 148.04434,0 0,-4.39267 -148.04434,-52.80569 148.04434,-0.0267 0,-4.52845 z m 173.2356,4.55513 150.10061,52.80569 -150.10061,0 -158.69678,-52.80569 z m 0,57.19836 150.10061,52.8776 -150.10061,0 -158.69678,-52.8776 z m -5.69856,57.347 0,14.56771 -163.17489,0 0,-14.56771 z"
           style="opacity:1;fill:#000000;fill-opacity:1;fill-rule:nonzero;stroke:none;stroke-width:5.9000001;stroke-miterlimit:4;stroke-dasharray:none;stroke-opacity:1" />
      </g>
      <g
         id="g5651"
         inkscape:export-xdpi="154.25479"
         inkscape:export-ydpi="154.25479"
         transform="matrix(1.0333179,0,0,1,13.318942,166.5)">
        <path
           sodipodi:nodetypes="cccccccccccccccccccccccccccccccccccc"
           inkscape:connector-curvature="0"
           id="path5653"
           d="m 258.0823,196.29825 0,4.55513 160.87285,52.80569 -160.87285,0 0,4.39267 160.87285,52.8776 -160.87285,0 0,22.0966 335.40437,0 c 0,0 -0.0148,-1.71783 0,-3.05949 l -162.86375,0 0,-14.56771 162.86375,0 0,-4.64146 -148.04434,-52.70554 148.04434,0 0,-4.39267 -148.04434,-52.80569 148.04434,-0.0267 0,-4.52845 z m 173.2356,4.55513 153.97164,52.80569 -153.97164,0 -158.69678,-52.80569 z m 0,57.19836 153.97164,52.8776 -153.97164,0 -158.69678,-52.8776 z m -5.69856,57.347 0,14.56771 -163.17489,0 0,-14.56771 z"
           style="opacity:1;fill:#000000;fill-opacity:1;fill-rule:nonzero;stroke:none;stroke-width:5.9000001;stroke-miterlimit:4;stroke-dasharray:none;stroke-opacity:1" />
        <path
           style="opacity:1;fill:#000000;fill-opacity:1;fill-rule:nonzero;stroke:none;stroke-width:5.9000001;stroke-miterlimit:4;stroke-dasharray:none;stroke-opacity:1"
           d="m 258.0823,196.29825 0,4.55513 160.87285,52.80569 -160.87285,0 0,4.39267 160.87285,52.8776 -160.87285,0 0,24.0966 335.40437,0 c 0,0 -0.0148,-3.71783 0,-5.05949 l -162.86375,0 0,-14.56771 162.86375,0 0,-4.64146 -148.04434,-52.70554 148.04434,0 0,-4.39267 -148.04434,-52.80569 148.04434,-0.0267 0,-4.52845 z m 173.2356,4.55513 150.10061,52.80569 -150.10061,0 -158.69678,-52.80569 z m 0,57.19836 150.10061,52.8776 -150.10061,0 -158.69678,-52.8776 z m -5.69856,57.347 0,14.56771 -163.17489,0 0,-14.56771 z"
           id="path5655"
           inkscape:connector-curvature="0"
           sodipodi:nodetypes="cccccccccccccccccccccccccccccccccccc" />
      </g>
      <path
         inkscape:connector-curvature="0"
         id="path5701"
         d="m 377.75771,451.16189 c -44.50783,-14.38757 -81.05158,-26.28746 -81.20833,-26.44421 -0.15675,-0.15674 36.15027,-0.28499 80.68227,-0.28499 l 80.96726,0 15.49107,5.18737 c 13.45945,4.50706 122.1511,41.54828 135.24107,46.08905 l 4.75,1.64772 -77.5,-0.0179 -77.5,-0.0179 -80.92334,-26.15921 0,-3e-5 z"
         style="opacity:1;fill:#4d4d4d;fill-opacity:1;fill-rule:nonzero;stroke:none;stroke-width:5.9000001;stroke-miterlimit:4;stroke-dasharray:none;stroke-opacity:1" />
      <path
         inkscape:connector-curvature="0"
         id="path5703"
         d="m 377.30912,393.76632 -80.87193,-26.08363 81.27068,-0.1265 81.27068,-0.12651 19.85125,6.70948 c 20.93904,7.07714 132.31839,44.95411 133.60125,45.43401 0.4125,0.15431 -34.125,0.27972 -76.75,0.27868 l -77.5,-0.002 -80.87193,-26.08364 0,1.1e-4 z"
         style="opacity:1;fill:#4d4d4d;fill-opacity:1;fill-rule:nonzero;stroke:none;stroke-width:5.9000001;stroke-miterlimit:4;stroke-dasharray:none;stroke-opacity:1" />
      <path
         inkscape:connector-curvature="0"
         id="path5705"
         d="m 284.91015,489.16121 0,-7.42462 84.1457,0 84.14571,0 0,7.42462 0,7.42462 -84.14571,0 -84.1457,0 0,-7.42462 z"
         style="opacity:1;fill:#ffffff;fill-opacity:1;fill-rule:nonzero;stroke:none;stroke-width:5.9000001;stroke-miterlimit:4;stroke-dasharray:none;stroke-opacity:1" />
    </g>
    <path
       style="opacity:1;fill:#ffffff;fill-opacity:1;fill-rule:nonzero;stroke:none;stroke-width:5.9000001;stroke-miterlimit:4;stroke-dasharray:none;stroke-opacity:1"
       d="m 279.9604,451.08889 0,-26.40506 80.43339,25.57679 c 44.23837,14.06723 81.388,25.92439 82.55472,26.34924 1.55648,0.56676 -19.86042,0.78731 -80.43339,0.82827 l -82.55472,0.0558 0,-26.40506 z"
       id="path5720"
       inkscape:connector-curvature="0" />
    <path
       style="opacity:1;fill:#ffffff;fill-opacity:1;fill-rule:nonzero;stroke:none;stroke-width:5.9000001;stroke-miterlimit:4;stroke-dasharray:none;stroke-opacity:1"
       d="m 279.9604,394.05535 c 0,-15.58932 0.2648,-26.16295 0.65522,-26.16295 0.65095,0 153.12634,48.311 160.56512,50.87419 3.86128,1.33048 3.2987,1.34046 -78.66562,1.39589 l -82.55472,0.0558 0,-26.16295 z"
       id="path5722"
       inkscape:connector-curvature="0" />
    <path
       style="opacity:1;fill:#ffffff;fill-opacity:1;fill-rule:nonzero;stroke:none;stroke-width:5.9000001;stroke-miterlimit:4;stroke-dasharray:none;stroke-opacity:1"
       d="m 551.13585,394.01034 c -40.44651,-13.97785 -74.1755,-25.71017 -74.95332,-26.07181 -0.88256,-0.41033 27.09597,-0.67551 74.42299,-0.70538 l 75.8372,-0.0479 0,26.16295 c 0,20.48205 -0.19192,26.15356 -0.88388,26.11966 -0.48614,-0.0238 -33.97648,-11.47971 -74.42299,-25.45756 z"
       id="path5724"
       inkscape:connector-curvature="0" />
    <path
       style="opacity:1;fill:#ffffff;fill-opacity:1;fill-rule:nonzero;stroke:none;stroke-width:5.9000001;stroke-miterlimit:4;stroke-dasharray:none;stroke-opacity:1"
       d="m 550.7823,450.96926 c -41.02988,-14.16374 -74.91797,-25.89725 -75.30688,-26.07447 -0.38891,-0.17721 33.41964,-0.34732 75.1301,-0.37802 l 75.8372,-0.0558 0,26.16295 c 0,14.38963 -0.23865,26.14826 -0.53033,26.13029 -0.29168,-0.018 -34.10022,-11.62118 -75.13009,-25.78492 z"
       id="path5726"
       inkscape:connector-curvature="0" />
    <path
       style="opacity:1;fill:#ffffff;fill-opacity:1;fill-rule:nonzero;stroke:none;stroke-width:5.9000001;stroke-miterlimit:4;stroke-dasharray:none;stroke-opacity:1"
       d="m 458.45338,495.64599 c -0.19836,-0.51692 -0.26793,-3.77845 -0.15459,-7.24785 l 0.20607,-6.30799 83.96893,-0.17967 83.96893,-0.17966 0,7.42751 0,7.4275 -83.81434,0 c -69.06088,0 -83.87784,-0.16543 -84.175,-0.93984 z"
       id="path5728"
       inkscape:connector-curvature="0" />
  </g>
</svg>
