<?xml version="1.0" encoding="UTF-8" standalone="no"?>
<!-- Created with Inkscape (http://www.inkscape.org/) -->

<svg
   xmlns:dc="http://purl.org/dc/elements/1.1/"
   xmlns:cc="http://creativecommons.org/ns#"
   xmlns:rdf="http://www.w3.org/1999/02/22-rdf-syntax-ns#"
   xmlns:svg="http://www.w3.org/2000/svg"
   xmlns="http://www.w3.org/2000/svg"
   xmlns:sodipodi="http://sodipodi.sourceforge.net/DTD/sodipodi-0.dtd"
   xmlns:inkscape="http://www.inkscape.org/namespaces/inkscape"
   width="210mm"
   height="297mm"
   viewBox="0 0 744.09448819 1052.3622047"
   id="svg2"
   version="1.1"
   inkscape:version="0.91 r13725"
   inkscape:export-filename="/Users/larsaeschlimann/Documents/02_BFH/09_Informatik/Softwareprojekt_SuperTeacher/SuperTeacher/assets/graphics/backgrounds/Paper_stack.png"
   inkscape:export-xdpi="300"
   inkscape:export-ydpi="300"
   sodipodi:docname="Paper_stack.svg">
  <defs
     id="defs4" />
  <sodipodi:namedview
     id="base"
     pagecolor="#ffffff"
     bordercolor="#666666"
     borderopacity="1.0"
     inkscape:pageopacity="0.0"
     inkscape:pageshadow="2"
     inkscape:zoom="1.6866417"
     inkscape:cx="443.23769"
     inkscape:cy="585.39744"
     inkscape:document-units="px"
     inkscape:current-layer="layer1"
     showgrid="false"
     inkscape:window-width="1440"
     inkscape:window-height="851"
     inkscape:window-x="0"
     inkscape:window-y="1"
     inkscape:window-maximized="1" />
  <metadata
     id="metadata7">
    <rdf:RDF>
      <cc:Work
         rdf:about="">
        <dc:format>image/svg+xml</dc:format>
        <dc:type
           rdf:resource="http://purl.org/dc/dcmitype/StillImage" />
        <dc:title></dc:title>
      </cc:Work>
    </rdf:RDF>
  </metadata>
  <g
     inkscape:label="Ebene 1"
     inkscape:groupmode="layer"
     id="layer1">
    <g
       id="g5032"
       style="fill:#000000">
      <path
         inkscape:connector-curvature="0"
         id="path3453"
         d="m 426.37989,421.79204 c -4.61163,-0.64481 -16.68573,-1.45106 -26.83132,-1.79167 l -18.44654,-0.61927 -0.28298,-2.00138 c -0.15564,-1.10075 0.22168,-2.32125 0.83848,-2.71222 1.52734,-0.96811 24.51785,-0.91078 33.82214,0.0843 20.43666,2.18577 35.16252,5.20271 34.54208,7.07674 -0.44597,1.34704 -13.89536,1.32625 -23.64186,-0.0366 z"
         style="opacity:1;fill:#000000;fill-opacity:1;fill-rule:nonzero;stroke:none;stroke-width:5.9000001;stroke-miterlimit:4;stroke-dasharray:none;stroke-opacity:1" />
      <path
         inkscape:connector-curvature="0"
         id="path3455"
         d="m 521.54726,468.78197 c -2.99756,-0.63955 -6.77072,-1.34672 -8.38479,-1.57149 -1.61407,-0.22477 -9.16038,-1.34555 -16.76958,-2.49064 -30.74948,-4.62741 -42.77232,-6.29357 -51.56646,-7.14626 -5.0728,-0.49186 -11.27365,-1.09124 -13.77968,-1.33194 -2.50603,-0.24071 -5.00725,-0.81182 -5.55828,-1.26913 -0.95692,-0.79417 -2.85316,0.48358 -10.42804,7.02671 -2.00249,1.72974 -3.14571,1.83592 -25.57361,2.37524 -47.75795,1.14843 -90.07964,2.49377 -102.69936,3.26464 -18.75945,1.14592 -24.28363,1.05154 -24.85006,-0.42455 -0.25697,-0.66966 -0.16244,-1.70728 0.21007,-2.30582 0.3725,-0.59854 0.57524,-1.87889 0.45051,-2.84524 -0.16571,-1.28388 2.15846,-4.03431 8.63131,-10.21431 9.37165,-8.94764 15.9186,-13.70866 26.86332,-19.5353 3.68931,-1.96408 6.81356,-3.64505 6.94279,-3.73549 0.55944,-0.39155 1.94926,-10.81335 2.66858,-20.01086 0.81855,-10.46619 1.55174,-12.44215 4.03699,-10.87967 1.94562,1.22322 2.33036,11.82739 0.78344,21.59363 -0.79349,5.0096 -0.86771,7.22454 -0.24192,7.21971 0.49651,-0.004 5.05321,-0.56244 10.12601,-1.24135 14.77187,-1.97697 35.24535,-1.57751 62.04745,1.21064 7.30726,0.76015 31.10216,2.71032 48.96795,4.01328 8.01076,0.58424 8.85033,0.81012 10.30956,2.77373 2.03327,2.73606 1.39076,4.29383 -2.95274,7.15892 -4.35868,2.8751 -11.46518,8.93603 -11.46574,9.77878 -2.2e-4,0.34587 1.9805,0.63616 4.40161,0.64509 12.12594,0.0447 64.05007,6.86616 80.04808,10.51618 12.8371,2.92884 17.40606,5.23154 15.73743,7.93145 -0.61483,0.99482 -1.05067,0.9671 -7.95484,-0.50595 z m -241.48195,-6.65643 c 27.8541,-2.08958 122.63838,-4.38217 128.07767,-3.09787 2.72318,0.64298 3.56353,0.59717 3.56353,-0.19429 0,-1.28616 8.19082,-9.14621 17.56554,-16.8562 l 7.08456,-5.8265 -12.95391,-0.544 c -7.12465,-0.29919 -18.04767,-1.1325 -24.27337,-1.85179 -46.71987,-5.39782 -63.92554,-5.76418 -83.08974,-1.76922 -14.16426,2.95267 -30.02286,12.42991 -44.8281,26.78967 l -4.98108,4.83121 3.77316,-0.50463 c 2.07523,-0.27754 6.60302,-0.71691 10.06174,-0.97638 z"
         style="opacity:1;fill:#000000;fill-opacity:1;fill-rule:nonzero;stroke:none;stroke-width:5.9000001;stroke-miterlimit:4;stroke-dasharray:none;stroke-opacity:1" />
      <path
         inkscape:connector-curvature="0"
         id="path3457"
         d="m 463.06335,449.04265 c -0.57645,-0.58818 -1.0481,-1.8853 -1.0481,-2.88248 0,-1.56625 0.59924,-1.87946 4.40202,-2.30087 4.63026,-0.5131 33.03858,0.61281 38.77965,1.53696 5.20856,0.83844 5.87339,1.14751 4.79276,2.22815 -1.06764,1.06763 -2.20273,1.14714 -27.43169,1.92149 -14.4478,0.44345 -18.67374,0.33436 -19.49464,-0.50325 z"
         style="opacity:1;fill:#000000;fill-opacity:1;fill-rule:nonzero;stroke:none;stroke-width:5.9000001;stroke-miterlimit:4;stroke-dasharray:none;stroke-opacity:1" />
      <path
         inkscape:connector-curvature="0"
         id="path3459"
         d="m 486.75038,434.93139 -10.90023,-0.45767 -0.25546,-2.20374 c -0.2339,-2.01772 0.0574,-2.25066 3.45139,-2.75962 3.82097,-0.57299 19.89695,0.70423 26.57008,2.11096 5.19207,1.09452 8.45238,2.48392 7.90541,3.36895 -0.46992,0.76034 -7.63538,0.74459 -26.77119,-0.0589 z"
         style="opacity:1;fill:#000000;fill-opacity:1;fill-rule:nonzero;stroke:none;stroke-width:5.9000001;stroke-miterlimit:4;stroke-dasharray:none;stroke-opacity:1" />
      <path
         inkscape:connector-curvature="0"
         id="path3463"
         d="m 522.35229,362.98788 c -1.07497,-2.80133 11.29686,-9.82903 33.8147,-19.20812 6.91099,-2.87855 14.23101,-5.70107 16.26672,-6.27226 3.69223,-1.03599 5.29212,-2.05104 3.25944,-2.06796 -0.5899,-0.005 -2.13976,-0.38405 -3.44413,-0.84254 -1.78195,-0.62635 -2.12292,-0.93115 -1.37145,-1.22593 0.55755,-0.21871 0.85616,-0.7675 0.67479,-1.24014 -0.62541,-1.62978 1.16134,-2.87399 8.40428,-5.85237 3.62609,-1.49109 5.46287,-2.04519 10.74549,-3.24156 5.94548,-1.3465 9.20506,-1.53672 10.88909,-0.63545 1.33636,0.7152 2.99826,3.8638 2.40126,4.54938 -0.23634,0.2714 -0.77408,3.16149 -1.19499,6.42241 -0.87168,6.7532 -1.29052,7.84234 -3.31139,8.61067 -0.7954,0.30241 -1.44618,0.9281 -1.44618,1.39042 0,0.46232 -0.43183,1.00629 -0.95963,1.20882 -1.0436,0.40047 -1.58802,0.16446 -9.17971,-3.9795 -5.55451,-3.03194 -6.80171,-3.32872 -7.30639,-1.7386 -0.21937,0.69116 -2.69267,1.91971 -7.30291,3.62753 -12.01924,4.45241 -26.15207,10.66257 -36.72671,16.13823 -10.24735,5.30618 -13.46903,6.29383 -14.21228,4.35697 z m 75.37206,-36.30448 c -0.66503,-0.17882 -14.84119,3.81833 -16.16054,4.55668 -0.5005,0.28009 0.66767,1.02325 3.25263,2.06922 2.21849,0.89768 5.76783,2.65673 7.88743,3.90899 l 3.85381,2.27683 0.89592,-6.32181 c 0.61105,-4.31162 0.69714,-6.37526 0.27075,-6.48991 z"
         style="opacity:1;fill:#000000;fill-opacity:1;fill-rule:nonzero;stroke:none;stroke-width:5.9000001;stroke-miterlimit:4;stroke-dasharray:none;stroke-opacity:1" />
      <path
         inkscape:connector-curvature="0"
         id="path3465"
         d="m 519.73664,353.48204 c -1.10974,-1.33716 -0.26064,-2.38848 4.01915,-4.97629 9.7866,-5.91757 35.47183,-16.02176 40.72791,-16.02176 2.4382,0 3.76105,1.60346 2.55452,3.0964 -0.39498,0.48875 -4.3525,2.11171 -8.7945,3.60659 -7.84645,2.64059 -23.39439,9.17593 -31.48453,13.23405 -4.43938,2.22685 -5.87497,2.44375 -7.02255,1.06101 z"
         style="opacity:1;fill:#000000;fill-opacity:1;fill-rule:nonzero;stroke:none;stroke-width:5.9000001;stroke-miterlimit:4;stroke-dasharray:none;stroke-opacity:1" />
      <path
         inkscape:connector-curvature="0"
         id="path3467"
         d="m 561.61928,587.68258 c -1.22432,-1.22432 -1.18176,-2.81354 0.10587,-3.95275 1.27526,-1.12827 7.2762,-3.70558 18.36824,-7.88888 11.4628,-4.32313 13.99043,-5.0135 18.35561,-5.0135 3.56774,0 3.71599,0.0564 3.03089,1.15344 -0.63275,1.01319 -10.64655,5.68696 -14.70496,6.86328 -2.0489,0.59388 -14.29384,5.71798 -18.97262,7.93942 -4.42345,2.10021 -4.91094,2.17109 -6.18303,0.89899 z m 37.60643,-15.07645 c 0,-0.32609 -0.41595,-0.59289 -0.92434,-0.59289 -0.50838,0 -0.75944,0.2668 -0.5579,0.59289 0.20154,0.32609 0.61748,0.5929 0.92433,0.5929 0.30685,0 0.55791,-0.26681 0.55791,-0.5929 z"
         style="opacity:1;fill:#000000;fill-opacity:1;fill-rule:nonzero;stroke:none;stroke-width:5.9000001;stroke-miterlimit:4;stroke-dasharray:none;stroke-opacity:1" />
      <path
         inkscape:connector-curvature="0"
         id="path3469"
         d="m 560.78577,573.43822 c -3.59374,-2.51715 -0.73868,-4.38997 18.58961,-12.19412 22.91435,-9.25208 24.30812,-9.67965 25.77845,-7.90801 0.68173,0.82143 0.59043,1.15636 -0.63952,2.34579 -1.46115,1.41302 -3.8596,2.50417 -24.26122,11.03736 -6.35879,2.65963 -12.81988,5.47241 -14.35797,6.25063 -3.3153,1.67742 -3.37532,1.68292 -5.10935,0.46835 z"
         style="opacity:1;fill:#000000;fill-opacity:1;fill-rule:nonzero;stroke:none;stroke-width:5.9000001;stroke-miterlimit:4;stroke-dasharray:none;stroke-opacity:1" />
      <path
         inkscape:connector-curvature="0"
         id="path3471"
         d="m 511.82468,621.04895 c -11.62837,-0.9227 -48.81812,-2.96089 -75.29756,-4.12669 -14.51109,-0.63888 -33.32065,-1.56798 -41.79904,-2.06469 -26.82224,-1.57136 -38.57712,-2.0989 -59.58586,-2.67413 -11.25017,-0.30802 -26.85811,-0.85757 -34.68431,-1.2212 -7.82621,-0.36363 -15.93159,-0.65697 -18.01196,-0.65186 -7.53538,0.0185 -8.38401,-1.11643 -9.00574,-12.0438 -0.24781,-4.35545 -0.90544,-11.96847 -1.4614,-16.91786 -1.18719,-10.5688 -1.27534,-10.34648 4.49686,-11.34266 2.10311,-0.36296 3.89036,-0.71457 3.97168,-0.78135 0.0813,-0.0668 0.54382,-4.36819 1.02779,-9.55869 0.48398,-5.19051 1.17714,-10.54017 1.54037,-11.88815 0.49847,-1.84986 0.48654,-2.77576 -0.0486,-3.77575 -0.57786,-1.07974 -0.51328,-1.75904 0.34904,-3.67133 1.32405,-2.93622 1.68498,-2.69211 -10.53733,-7.12679 -0.9719,-0.35264 -1.8386,-1.2851 -2.22517,-2.39399 -0.34825,-0.99899 -1.16598,-2.18954 -1.81716,-2.64565 -2.30681,-1.61574 -1.46248,-2.8413 3.52957,-5.12323 6.337,-2.89672 10.19254,-4.43338 15.14841,-6.03755 l 4.15025,-1.34339 0.17606,-4.05992 c 0.0968,-2.23295 0.36363,-11.39698 0.59289,-20.3645 l 0.12039,-24.23455 2.96447,0.22234 c 1.76758,0.13257 1.61192,7.99284 2.37158,9.66366 0.86728,1.90752 0.96289,1.94842 3.85382,1.64829 6.21285,-0.645 22.60562,-0.97814 24.26329,-0.4931 2.57427,0.75325 3.32885,2.33341 1.73839,3.64034 -1.25741,1.03327 -5.90887,1.59753 -23.23822,2.819 -3.18672,0.22462 -5.62027,0.66707 -5.73311,1.04235 -0.10783,0.35864 -0.362,2.71979 -0.56483,5.247 l -0.36878,4.59493 13.02979,0 c 13.47463,0 16.07147,0.36545 16.07147,2.26173 0,1.93407 -2.78079,2.49917 -15.73639,3.1979 -14.58424,0.78657 -13.29395,0.0192 -13.30733,7.91415 l -0.008,4.77682 8.75567,1.04349 c 4.81562,0.57392 11.55238,1.53544 14.97058,2.13669 3.4182,0.60126 13.28517,2.33864 21.9266,3.86086 8.64144,1.52221 20.91435,3.67674 27.27314,4.78783 10.06631,1.75892 16.006,3.40334 18.87918,5.22677 0.43775,0.27782 6.44081,0.5681 13.34012,0.64508 7.32632,0.0817 22.40902,0.91952 36.25997,2.01408 13.04367,1.03077 32.41336,2.53878 43.04375,3.35114 19.74379,1.5088 26.97842,2.52752 39.16472,5.51488 l 6.91089,1.69415 0.40996,-8.05642 c 0.22548,-4.43103 0.93562,-12.45866 1.57808,-17.83917 2.27781,-19.07608 2.08,-41.79697 -0.52813,-60.66162 -0.54937,-3.97362 -1.01087,-8.42538 -1.02556,-9.89279 -0.0228,-2.27583 0.15784,-2.69436 1.2286,-2.84717 0.81321,-0.11605 1.78942,0.45564 2.77195,1.62331 l 1.51666,1.80244 3.45344,-1.92409 c 12.27997,-6.84181 33.83995,-15.34035 48.34836,-19.05799 7.84553,-2.01035 9.35489,-2.01543 9.35489,-0.0315 0,0.97438 -3.13784,3.63205 -4.88817,4.14018 -1.99042,0.57781 -17.47671,5.95596 -25.94232,9.00936 -4.07615,1.47019 -11.88892,4.77807 -17.36172,7.35083 -5.47279,2.57275 -10.51025,4.67774 -11.19434,4.67774 -1.10956,0 -1.2028,0.23997 -0.8639,2.22336 1.70016,9.95001 2.37248,20.10315 2.40465,36.31476 0.0285,14.36849 -0.15589,18.54865 -1.03318,23.41932 -1.10695,6.14578 -2.37882,24.60665 -1.79933,26.11678 0.18149,0.47295 0.51095,0.85991 0.73213,0.85991 0.22119,0 3.46097,-1.90909 7.19952,-4.24243 13.61483,-8.4974 33.49508,-18.91165 56.59653,-29.64806 9.72139,-4.51801 11.3187,-5.44917 11.68278,-6.81049 0.23195,-0.86731 0.60722,-6.20493 0.83393,-11.86137 0.33054,-8.24691 0.25973,-10.28443 -0.35739,-10.28443 -0.42327,0 -6.05915,2.13441 -12.52418,4.74315 -6.46503,2.60873 -12.43428,4.74315 -13.265,4.74315 -1.05618,0 -1.72437,-0.46958 -2.22184,-1.5614 -0.64951,-1.42553 -0.54969,-1.69639 1.14713,-3.11269 2.20565,-1.84102 10.75389,-5.26071 19.60744,-7.84388 3.50134,-1.02158 6.92842,-2.06837 7.61574,-2.32621 1.12391,-0.42161 1.29249,-1.10791 1.67507,-6.81929 0.23396,-3.49277 0.20293,-6.57296 -0.069,-6.84485 -0.54621,-0.54621 -9.28783,2.82357 -17.90573,6.90243 -3.06001,1.4483 -6.00818,2.63328 -6.55149,2.63328 -2.35039,0 -3.25686,-3.22144 -1.3732,-4.88012 1.99778,-1.75917 7.63591,-4.24286 16.66531,-7.34133 5.00825,-1.7186 9.20977,-3.22858 9.3367,-3.35551 0.65537,-0.65537 0.91924,-7.41858 0.30427,-7.79866 -0.81113,-0.5013 -13.0178,3.11296 -25.93604,7.67939 -8.68682,3.07068 -20.17319,8.20045 -24.09237,10.75954 -1.98466,1.29593 -3.60284,0.5773 -3.88007,-1.72312 -0.35893,-2.97826 6.99866,-7.4608 19.7901,-12.05692 15.15369,-5.44491 21.30069,-7.46911 27.63686,-9.10076 3.54171,-0.91205 6.56107,-1.77985 6.70968,-1.92846 0.59679,-0.59679 2.17259,-17.26372 1.81329,-19.17892 -0.43565,-2.32218 0.0191,-2.13838 -9.45195,-3.82051 -4.49804,-0.79888 -6.83569,-1.50756 -7.72325,-2.34138 l -1.27281,-1.19575 -6.20976,2.26444 c -3.41537,1.24545 -8.56189,3.24292 -11.43672,4.43882 -2.87483,1.1959 -8.74448,3.47329 -13.04368,5.06085 -15.99875,5.90787 -26.05087,10.14663 -35.53271,14.98335 -4.97199,2.53623 -5.93295,2.55128 -8.20854,0.12851 -1.36366,-1.45185 -1.43016,-1.89747 -1.48056,-9.92079 -0.0301,-4.7916 -0.3422,-9.10112 -0.72645,-10.03111 -0.58621,-1.41878 -1.0027,-1.63072 -3.20814,-1.63247 -1.39396,-10e-4 -4.9357,-0.66347 -7.87052,-1.47192 -16.10895,-4.43752 -32.32172,-8.20944 -41.91962,-9.75264 -15.97952,-2.56929 -30.76899,-4.65989 -37.82465,-5.3468 -21.74624,-2.11711 -81.25208,-3.25487 -94.56662,-1.80811 -13.83903,1.50374 -13.0983,1.51488 -14.23113,-0.21403 -2.02966,-3.09765 -0.24037,-3.98758 10.86749,-5.40516 10.41816,-1.32955 26.93856,-1.63311 51.09162,-0.93879 36.77072,1.05703 44.25225,1.62839 71.1473,5.43343 21.64857,3.06278 35.92366,6.11505 51.28535,10.96572 3.58701,1.13264 7.98925,2.20275 9.78275,2.37802 3.06889,0.2999 3.54024,0.15575 8.00407,-2.44788 14.4095,-8.40465 38.56757,-20.94891 46.12744,-23.95201 2.35758,-0.93654 8.95152,-3.76033 14.65319,-6.2751 14.55412,-6.41923 32.64941,-12.91508 44.57722,-16.00234 5.58489,-1.44553 10.41872,-2.89261 10.74184,-3.21573 0.38807,-0.38806 -1.00345,-1.31818 -4.09917,-2.73998 -10.53986,-4.8407 -21.00023,-9.10955 -26.03086,-10.62311 -7.21853,-2.17183 -8.00407,-2.73227 -8.00407,-5.71044 0,-1.31829 0.27768,-2.91574 0.61706,-3.54989 0.33939,-0.63415 2.95053,-2.32494 5.80253,-3.7573 5.1688,-2.59592 5.18875,-2.61472 6.20818,-5.84872 1.78748,-5.67055 2.8064,-16.92544 1.69138,-18.68291 -0.6166,-0.97188 -7.0514,0.40607 -22.91612,4.90725 -15.4126,4.37291 -30.43597,9.65945 -52.17469,18.35965 -22.73254,9.09796 -23.77993,9.56491 -24.33099,10.84753 -0.24527,0.57087 -0.57394,7.69378 -0.73039,15.82869 l -0.28444,14.79076 1.40792,-0.91718 c 6.61922,-4.312 16.24233,-9.60627 23.68257,-13.02925 10.18415,-4.68535 43.19919,-17.96022 45.97025,-18.48397 2.31452,-0.43746 4.52791,0.96834 4.27015,2.7121 -0.15108,1.02206 -3.70354,2.65638 -20.93325,9.63041 -29.47085,11.92885 -36.18957,15.03828 -44.24798,20.47805 -1.83605,1.23942 -4.89407,3.0837 -6.79559,4.09841 -2.64785,1.41298 -3.60143,2.29081 -4.07289,3.74938 -0.81887,2.53334 -3.34747,2.9666 -4.75718,0.81511 -1.16566,-1.77902 -1.99129,-1.94356 -15.12747,-3.01481 -29.38499,-2.39635 -41.55708,-1.95324 -112.6499,4.10079 -17.11981,1.45788 -32.72775,2.91966 -34.6843,3.24842 -3.31282,0.55665 -8.57551,1.25508 -24.90156,3.30477 -3.58701,0.45035 -9.96545,1.41552 -14.17432,2.14484 l -7.65249,1.32604 -2.05195,-2.34233 -2.05194,-2.34233 0.36005,-8.30051 c 0.45252,-10.43209 2.03299,-26.85013 2.75228,-28.59076 0.62518,-1.51291 2.38752,-2.3448 11.84983,-5.5936 6.92718,-2.37839 20.50565,-5.98422 22.77,-5.98422 2.06009,0 3.48149,1.18869 0.79754,2.74744 -1.38589,0.80488 -6.92204,2.97312 -12.30255,4.81831 -5.38052,1.8452 -11.78142,4.33283 -14.22424,5.52808 -4.21958,2.06461 -4.46123,2.29168 -4.83672,4.54477 -0.62315,3.73918 -1.95715,28.68619 -1.55543,29.08791 0.19878,0.19877 4.05167,-0.19277 8.56199,-0.87009 16.23064,-2.43739 50.65947,-6.57108 64.56653,-7.75217 7.80366,-0.66273 19.39111,-1.73097 25.7499,-2.37385 27.47169,-2.77743 36.89733,-3.26345 63.14323,-3.25588 15.8064,0.005 27.86014,0.2759 31.71983,0.71406 3.42397,0.3887 7.71661,0.88259 9.5392,1.09754 l 3.3138,0.39081 0.38227,-8.51917 c 0.21025,-4.68554 0.56112,-11.92089 0.77973,-16.07856 l 0.39746,-7.5594 -2.6113,-0.0129 c -1.43621,-0.007 -5.37635,-0.37832 -8.75587,-0.825 -4.82812,-0.63814 -6.41594,-1.08731 -7.41118,-2.09647 -1.26307,-1.28074 -1.26329,-1.28686 -0.0808,-2.19332 0.96731,-0.74151 2.60589,-0.86365 8.89341,-0.66292 4.61311,0.14728 8.26642,0.54675 9.09944,0.99498 1.22166,0.65735 1.81605,0.5228 4.86177,-1.10056 1.90848,-1.0172 5.81781,-2.74235 8.68739,-3.83366 2.86958,-1.09131 9.21946,-3.72201 14.11084,-5.84601 14.73517,-6.3985 42.46927,-16.03092 56.79273,-19.72487 3.5182,-0.90733 6.18622,-1.8418 5.92894,-2.0766 -0.25728,-0.23478 -4.46982,-1.0101 -9.3612,-1.72291 -4.89137,-0.71281 -10.79569,-1.71066 -13.12068,-2.21744 l -4.22728,-0.92142 -7.92705,3.29575 c -4.35989,1.81267 -12.4627,5.07105 -18.00626,7.24085 -26.43308,10.34617 -41.61155,16.53835 -48.44933,19.7653 -4.91567,2.31986 -8.86312,3.76109 -11.52914,4.20935 -16.95937,2.85155 -26.48176,3.65568 -34.8846,2.94589 -10.96319,-0.92607 -73.45143,-1.78498 -82.70873,-1.13685 -4.72833,0.33105 -13.53281,0.86703 -19.56551,1.19106 -6.0327,0.32403 -13.10296,0.84554 -15.7117,1.15891 -2.60873,0.31337 -10.4794,0.9821 -17.49037,1.48608 -14.49507,1.04197 -21.78874,1.73729 -31.12695,2.96745 -3.58701,0.47253 -8.03927,0.99111 -9.89391,1.1524 -1.85465,0.16129 -4.00074,0.45104 -4.7691,0.64388 -2.39148,0.60023 -3.53068,-1.29639 -2.88538,-4.80379 0.47577,-2.58604 1.03057,-3.37917 4.89225,-6.9939 8.31335,-7.78171 45.0833,-37.8554 55.43151,-45.33674 2.33047,-1.68485 6.49781,-4.26592 9.26074,-5.73571 l 5.02351,-2.67236 65.44391,-0.35917 c 44.06514,-0.24184 70.09231,-0.14563 79.67338,0.29452 14.45424,0.66402 36.97815,3.08598 64.10261,6.89287 20.42166,2.86616 23.99402,3.91389 26.22241,7.69073 1.01449,1.71944 1.58752,2.09822 3.18404,2.10468 1.0708,0.004 9.01717,1.02114 17.6586,2.25957 17.17541,2.46147 17.99833,2.7346 20.58502,6.83218 1.45654,2.3073 1.48527,2.56831 1.24421,11.30523 -0.22695,8.22526 -0.37804,9.22905 -1.88166,12.50077 -2.16206,4.70441 -3.943,6.45331 -8.18831,8.04095 -1.93937,0.72528 -3.31086,1.52233 -3.04776,1.77123 0.2631,0.24889 2.25321,0.99437 4.42247,1.65661 9.71427,2.9656 34.08661,14.03847 38.89249,17.66968 1.41729,1.07087 1.92691,1.92328 1.92691,3.22304 0,0.97192 -0.3335,1.85855 -0.74112,1.97031 -0.40761,0.11176 -4.7464,1.03227 -9.64176,2.04558 -7.48596,1.54955 -22.14734,5.24727 -25.15013,6.34306 -0.60686,0.22146 -0.22321,0.82529 1.34638,2.11908 1.20729,0.99515 2.58972,2.57251 3.07205,3.50525 1.11599,2.15809 1.10673,7.39192 -0.0272,15.39133 -1.03198,7.27994 -2.35461,11.66051 -3.74024,12.38771 -0.54343,0.28519 -3.58362,1.25125 -6.75598,2.14678 -3.17236,0.89554 -5.644,1.82879 -5.49251,2.07389 0.15148,0.24511 2.00712,0.6311 4.12364,0.85775 2.29807,0.24611 5.10466,1.05049 6.96728,1.99687 4.4062,2.23873 4.93301,4.17577 4.05898,14.92486 -1.09714,13.49307 -1.79647,27.72801 -1.82045,37.05589 -0.0126,4.89137 -0.2692,9.96062 -0.57029,11.26499 -0.30108,1.30436 -0.98409,8.10782 -1.5178,15.1188 -0.53371,7.01097 -1.28136,13.40472 -1.66144,14.20832 -0.43943,0.92908 -2.63401,2.4896 -6.0271,4.28572 l -5.33605,2.82464 2.71743,0.0127 c 1.49459,0.007 2.91414,0.20946 3.15454,0.44987 0.24042,0.24041 0.75179,0.44967 1.13639,0.46502 1.33129,0.0531 7.81959,1.52429 9.1406,2.07251 1.21207,0.50302 1.30057,0.84627 1.02499,3.97578 -0.16588,1.88388 -0.83905,11.6961 -1.49592,21.80495 -0.65687,10.10884 -1.32843,18.82216 -1.49236,19.36293 -0.16393,0.54076 -1.27303,1.37207 -2.46467,1.84736 l -2.16661,0.86416 0.16174,6.02263 0.16174,6.02263 -1.97446,1.8494 c -1.936,1.81337 -17.30656,12.35177 -18.01541,12.35177 -0.19831,0 -1.47266,0.89532 -2.83191,1.98961 -4.07091,3.27736 -36.01075,24.4247 -39.52724,26.17094 -1.79351,0.89063 -3.75528,2.05583 -4.3595,2.58931 -0.94487,0.83428 -3.06003,0.98165 -15.1188,1.05343 -7.71112,0.0459 -16.82165,-0.13885 -20.24561,-0.41054 z m 30.483,-6.08411 c 0.90745,-0.66354 1.151,-2.26366 1.64695,-10.82032 0.59757,-10.31 0.39084,-34.33984 -0.30138,-35.03206 -0.21302,-0.21302 -1.91229,0.62522 -3.77616,1.86276 -3.15013,2.09157 -3.51622,2.19811 -5.19676,1.51243 -6.48721,-2.64685 -19.82025,-5.87286 -46.57142,-11.26826 -9.9458,-2.00595 -18.56644,-3.78849 -19.15698,-3.9612 -1.63973,-0.47956 -2.55219,-2.91081 -1.547,-4.12199 0.68363,-0.82374 1.6267,-0.9297 5.86789,-0.65934 8.3768,0.53397 43.42269,7.88662 56.15155,11.78062 l 6.03825,1.84721 13.23081,-9.79148 c 20.94061,-15.49715 35.29225,-24.75007 51.34244,-33.10199 l 8.46694,-4.40587 -2.83444,-0.75118 c -1.55894,-0.41316 -3.99484,-1.33139 -5.4131,-2.04053 l -2.57866,-1.28934 -15.50461,7.80493 c -19.29564,9.71332 -28.61044,14.83587 -39.19718,21.55599 -4.55253,2.8898 -8.58528,5.25418 -8.96168,5.25418 -0.3764,0 -1.41716,-0.57643 -2.31281,-1.28094 -1.42513,-1.12101 -1.866,-1.19503 -3.53119,-0.59289 -2.73241,0.98805 -6.53021,0.85276 -13.49812,-0.48085 -12.60695,-2.4129 -18.05569,-3.02132 -45.23011,-5.05053 -23.87912,-1.78314 -44.47862,-3.381 -61.7786,-4.79204 -2.78116,-0.22684 -5.86804,-0.031 -8.89341,0.5644 -2.54854,0.50151 -7.6478,1.34077 -11.33168,1.86502 -13.47901,1.91817 -27.78629,6.08698 -47.8483,13.94191 -15.76029,6.17067 -15.799,6.17487 -22.85847,2.48381 -5.36837,-2.80685 -16.61299,-9.09691 -19.36467,-10.83227 -1.14599,-0.72272 -1.73616,-0.68463 -4.62927,0.29876 -4.38672,1.4911 -4.97202,2.01874 -4.62796,4.17206 l 0.28421,1.77869 8.4554,-0.17761 c 7.06258,-0.14834 8.58099,-0.0263 9.21786,0.74112 1.70363,2.05274 -1.02556,3.31658 -10.35127,4.79348 -3.26091,0.51643 -6.49228,1.30521 -7.18081,1.75286 -1.51361,0.98408 -2.00905,3.19332 -2.00905,8.95873 0,4.96266 -0.27708,5.30692 -5.85156,7.27004 -1.67503,0.58988 -3.19862,1.22563 -3.38576,1.41277 -0.18714,0.18714 0.0759,3.63251 0.58453,7.65638 0.50863,4.02388 1.10363,10.20831 1.3222,13.74319 0.23602,3.81691 0.66153,6.50733 1.04776,6.62473 0.35769,0.10872 11.05563,0.49323 23.77321,0.85446 36.07753,1.02477 74.31698,2.36212 85.37676,2.9859 5.54356,0.31266 17.81647,0.97972 27.27313,1.48235 23.54636,1.25152 91.40514,5.02868 100.49556,5.59379 12.80347,0.79593 23.95044,0.73304 25.14696,-0.14188 z m 44.63161,-27.41105 c 10.49735,-7.06545 19.52477,-13.33099 20.06091,-13.92343 0.83329,-0.92077 0.91332,-1.94448 0.55125,-7.05156 -0.2505,-3.53333 -0.20152,-5.97442 0.11988,-5.97442 0.29889,0 1.4084,-0.7337 2.46558,-1.63045 l 1.92213,-1.63046 0.84246,-9.48631 c 1.42858,-16.08627 1.75044,-24.01221 0.97509,-24.01221 -2.38336,0 -31.36584,16.16985 -39.50158,22.03863 -2.93482,2.11707 -6.87016,4.86568 -8.74519,6.10803 -1.87503,1.24235 -3.40914,2.34772 -3.40914,2.45636 0,0.10865 2.06772,-0.75864 4.59493,-1.92731 26.27134,-12.14869 41.70179,-17.78419 44.53819,-16.2662 1.21508,0.6503 1.14549,2.4664 -0.13519,3.52824 -0.37238,0.30874 -5.21269,2.42685 -10.75626,4.70692 -12.43196,5.11327 -16.94747,7.05603 -32.15171,13.83305 -11.91274,5.30989 -12.0059,5.33952 -13.86877,4.4102 -1.76096,-0.87848 -1.99702,-0.86047 -3.86661,0.29499 -1.09513,0.67683 -1.99114,1.32069 -1.99114,1.43081 0,0.11011 0.44943,1.88926 0.99874,3.95367 0.78334,2.94394 1.00712,6.53469 1.03756,16.64862 0.0213,7.09233 0.20162,12.89528 0.40058,12.89545 0.19897,1.7e-4 2.60019,-1.03208 5.33605,-2.29388 9.75172,-4.49759 17.72151,-6.68491 17.72151,-4.86371 0,1.92796 -18.98652,12.49394 -22.45097,12.49394 l -1.85769,0 0,4.78136 0,4.78136 9.04164,-6.22771 c 4.9729,-3.42524 17.63038,-12.00853 28.12775,-19.07398 z M 336.17792,548.20086 c 12.68128,-5.28265 26.11618,-9.78268 36.46485,-12.21392 3.83158,-0.90017 6.96651,-1.82968 6.96651,-2.06559 0,-2.16468 -28.58389,-1.21565 -45.61139,1.51438 -4.31948,0.69254 -23.87973,5.12709 -29.02186,6.57962 -1.05861,0.29903 17.01853,10.79768 18.67404,10.8453 0.6903,0.0199 6.32783,-2.07705 12.52785,-4.65979 z m -29.72143,-12.81572 c 2.32094,-0.48599 6.18958,-1.41801 8.59696,-2.07116 7.9702,-2.16242 16.1576,-4.01788 22.1639,-5.02287 5.29832,-0.88653 7.61655,-1.48169 5.77142,-1.48169 -0.35838,0 -5.93899,-0.9418 -12.40137,-2.09288 -16.10381,-2.86841 -29.88223,-4.59188 -31.60761,-3.95362 -1.13366,0.41937 -1.89982,2.00911 -4.22357,8.76367 -1.56129,4.53825 -2.85143,8.55964 -2.86699,8.93642 -0.0189,0.45757 1.69436,0.207 5.15954,-0.75461 2.8533,-0.79181 7.08677,-1.83728 9.40772,-2.32326 z m -18.49247,-5.73083 c 0.57868,-1.40165 1.42542,-3.42461 1.88164,-4.49547 0.77802,-1.82621 1.09112,-3.68547 0.62063,-3.68547 -0.36369,0 -12.73662,5.24178 -14.11802,5.98108 -1.21608,0.65083 -0.87277,0.88332 4.27901,2.89786 3.08064,1.20465 5.75494,2.1138 5.94288,2.02035 0.18794,-0.0934 0.81517,-1.31671 1.39386,-2.71835 z m 247.63487,-99.1065 c 4.37009,-2.07357 13.28167,-5.85252 19.80351,-8.39767 6.52183,-2.54514 17.55173,-6.86796 24.51088,-9.60626 6.95914,-2.7383 17.49306,-6.56798 23.40871,-8.5104 5.91565,-1.94242 11.07846,-3.86041 11.47291,-4.26221 0.84702,-0.86279 3.33743,-17.90682 2.84376,-19.46225 -0.18672,-0.58828 -0.87696,-1.24018 -1.5339,-1.44869 -0.65692,-0.2085 -2.09176,-1.16697 -3.18851,-2.12993 l -1.9941,-1.75084 -7.89792,2.93148 c -17.59569,6.53102 -60.28537,26.57749 -72.52339,34.05595 l -4.15026,2.53616 0.29645,5.01601 c 0.16305,2.75881 0.29645,7.21736 0.29645,9.90791 0,2.69054 0.1597,4.89166 0.35489,4.89138 0.19518,-2.9e-4 3.93042,-1.69708 8.30052,-3.77064 z M 289.63966,337.40465 c 11.5578,-1.40314 24.45639,-2.51292 60.02846,-5.16476 27.93749,-2.0827 73.52199,-2.0208 101.26917,0.1375 l 7.59189,0.59054 3.41756,-1.82154 c 1.87967,-1.00185 6.06718,-3.80945 9.3056,-6.23911 3.23841,-2.42966 6.03724,-4.41924 6.21962,-4.4213 0.18238,-0.002 1.61473,1.48252 3.18301,3.29905 1.56827,1.81653 3.96323,3.84295 5.32211,4.50315 l 2.4707,1.20035 7.98286,-3.83707 c 4.39057,-2.11039 9.85048,-4.55724 12.13312,-5.43746 2.28264,-0.88021 6.55148,-2.61301 9.48631,-3.85067 2.93482,-1.23765 9.73828,-3.91342 15.1188,-5.94617 11.9741,-4.52377 32.93484,-12.8799 34.92825,-13.92435 1.42596,-0.74714 1.39001,-0.78122 -1.4662,-1.38957 -5.23695,-1.11545 -42.96138,-6.55932 -53.9169,-7.78055 -21.51551,-2.39837 -30.44455,-2.5981 -97.53109,-2.18163 -35.05487,0.21763 -66.0831,0.63943 -68.95161,0.93733 l -5.21549,0.54165 -6.34595,4.46225 c -12.12099,8.52304 -56.75202,45.18096 -57.53248,47.25458 -0.25187,0.66921 -1.38445,0.75366 12.50226,-0.93222 z M 479.2155,331.1874 c 0,-0.3079 -0.65258,-1.30841 -1.45019,-2.22335 l -1.45019,-1.66352 -2.24552,2.22335 -2.24552,2.22336 3.69571,0 c 2.03264,0 3.69571,-0.25193 3.69571,-0.55984 z"
         style="opacity:1;fill:#000000;fill-opacity:1;fill-rule:nonzero;stroke:none;stroke-width:5.9000001;stroke-miterlimit:4;stroke-dasharray:none;stroke-opacity:1"
         sodipodi:nodetypes="csssssssscsscssssssccscsssssscscsssccssssssssscsssssscsssssssssssssssssssssssscssssscssssssssscssssssscsssssssssssssssssscssssssscsssssssssssssscccsssssssscssscsscssccssssssssscsscsssssssssssssssscsssscssssscssssssssscscssssssssccccssssscccsssscsccsssssssssscsscsscsssssssscsssssscscssssssscsssssssssscssssssscssssssssssscccssssssscsssssssssssssssscsssssscsscsscsscsssscsscsscssssssssscssssscccss" />
      <path
         inkscape:connector-curvature="0"
         id="path3473"
         d="m 526.84321,593.71667 c -0.37821,-0.3577 -24.90734,-2.58996 -37.89582,-3.44868 -8.44051,-0.55804 -29.3267,-0.7447 -77.37269,-0.69148 -65.01377,0.072 -76.33867,0.22813 -106.91114,1.47385 -8.58299,0.34973 -16.22413,0.48059 -16.98031,0.2908 -1.71883,-0.4314 -2.40635,-2.0803 -1.32025,-3.1664 1.95651,-1.95651 30.15542,-3.05332 121.65434,-4.73183 32.25406,-0.59168 92.89916,1.35563 107.31384,3.44584 6.44031,0.93389 16.48817,2.97799 17.6386,3.58833 1.37092,0.72733 1.31865,2.09528 -0.10924,2.85947 -1.09866,0.58798 -5.50335,0.86622 -6.01733,0.3801 z m 4.79256,-1.84148 c 0,-0.48914 -0.28255,-0.88934 -0.62789,-0.88934 -0.34533,0 -0.47707,0.24402 -0.29275,0.54226 0.18433,0.29824 -3e-5,0.67738 -0.40968,0.84253 -0.44933,0.18115 -0.33319,0.31885 0.29276,0.34709 0.57066,0.0257 1.03756,-0.3534 1.03756,-0.84254 z"
         style="opacity:1;fill:#000000;fill-opacity:1;fill-rule:nonzero;stroke:none;stroke-width:5.9000001;stroke-miterlimit:4;stroke-dasharray:none;stroke-opacity:1" />
      <path
         inkscape:connector-curvature="0"
         id="path3475"
         d="m 509.40224,606.58645 c -7.44553,-0.5795 -16.9723,-0.75565 -31.51046,-0.58263 l -20.83836,0.24799 -0.68509,-1.5036 c -1.67202,-3.6697 1.75496,-4.20273 27.29601,-4.24561 18.02241,-0.0303 33.0281,0.88802 40.26381,2.46394 4.73759,1.03184 6.22674,2.89985 3.22232,4.04213 -1.84038,0.69971 -3.99073,0.64855 -17.74823,-0.42222 z"
         style="opacity:1;fill:#000000;fill-opacity:1;fill-rule:nonzero;stroke:none;stroke-width:5.9000001;stroke-miterlimit:4;stroke-dasharray:none;stroke-opacity:1" />
      <path
         inkscape:connector-curvature="0"
         id="path3477"
         d="m 323.83263,603.29073 c -3.92517,-3.38957 1.52289,-4.65196 26.81182,-6.21266 26.19284,-1.61649 60.39633,-1.15473 82.11858,1.10865 7.22497,0.75281 8.94411,1.69415 5.62596,3.08056 -3.63664,1.51948 -5.26181,1.60057 -19.99601,0.99773 -30.84298,-1.26193 -80.98302,-0.11686 -91.71461,2.09453 -0.79621,0.16407 -1.89667,-0.24925 -2.84574,-1.06881 z"
         style="opacity:1;fill:#000000;fill-opacity:1;fill-rule:nonzero;stroke:none;stroke-width:5.9000001;stroke-miterlimit:4;stroke-dasharray:none;stroke-opacity:1" />
      <path
         inkscape:connector-curvature="0"
         id="path3479"
         d="m 292.16209,569.69722 c -1.47345,-1.47345 -1.57148,-2.6052 -0.33295,-3.84373 1.51568,-1.51568 4.75649,-1.84432 18.18712,-1.84432 12.17627,0 12.91843,0.0639 13.76593,1.18578 0.49269,0.65219 0.90429,1.36635 0.91466,1.58704 0.0496,1.05591 -3.86235,2.16043 -7.81719,2.20712 -5.0476,0.0596 -18.82407,1.07671 -21.57582,1.59294 -1.45428,0.27283 -2.19181,0.0651 -3.14175,-0.88483 z"
         style="opacity:1;fill:#000000;fill-opacity:1;fill-rule:nonzero;stroke:none;stroke-width:5.9000001;stroke-miterlimit:4;stroke-dasharray:none;stroke-opacity:1" />
      <path
         inkscape:connector-curvature="0"
         id="path3481"
         d="m 360.8458,555.96864 c -1.52507,-1.52506 -1.2844,-3.00445 0.6366,-3.91318 3.76593,-1.78147 26.30117,-3.34256 58.39282,-4.04505 8.15229,-0.17846 21.54957,-0.49426 29.77174,-0.70178 11.68963,-0.29505 15.14793,-0.21254 15.85991,0.37836 1.12884,0.93685 1.1763,2.61631 0.0992,3.51023 -1.30107,1.0798 -11.00409,1.75976 -34.46584,2.41529 -39.15315,1.09395 -56.2354,1.83337 -62.26632,2.69525 -3.25408,0.46504 -6.11661,0.85398 -6.36118,0.86432 -0.24457,0.0103 -0.99468,-0.53121 -1.66691,-1.20344 z"
         style="opacity:1;fill:#000000;fill-opacity:1;fill-rule:nonzero;stroke:none;stroke-width:5.9000001;stroke-miterlimit:4;stroke-dasharray:none;stroke-opacity:1" />
      <path
         inkscape:connector-curvature="0"
         id="path3483"
         d="m 442.4052,569.55813 c -2.28264,-0.26941 -19.8916,-0.63899 -39.13102,-0.82127 -34.43111,-0.32622 -34.99706,-0.35069 -36.01832,-1.55768 -3.69134,-4.36264 1.96481,-4.96135 41.26411,-4.36788 27.36896,0.4133 40.02166,1.32066 41.69075,2.98974 1.11601,1.11602 1.43755,1.1118 1.00585,-0.0132 -0.41054,-1.06985 -0.13894,-1.09968 1.83283,-0.20128 1.6251,0.74045 2.02477,2.71039 0.79866,3.93651 -0.78587,0.78587 -4.97283,0.7987 -11.44286,0.035 z"
         style="opacity:1;fill:#000000;fill-opacity:1;fill-rule:nonzero;stroke:none;stroke-width:5.9000001;stroke-miterlimit:4;stroke-dasharray:none;stroke-opacity:1" />
      <path
         inkscape:connector-curvature="0"
         id="path3485"
         d="m 498.13725,525.4012 c -5.59403,-0.51252 -14.62368,-1.59349 -29.05181,-3.47787 -8.47839,-1.10732 -17.41627,-2.17982 -19.86196,-2.38334 -2.44569,-0.20351 -7.64833,-0.74367 -11.56143,-1.20036 -3.91311,-0.45669 -11.51697,-1.12166 -16.89749,-1.47772 -5.38051,-0.35607 -10.98336,-0.75564 -12.45078,-0.88794 -1.46741,-0.1323 -12.93991,-0.79304 -25.49445,-1.46832 -22.5159,-1.21108 -43.73711,-3.08692 -46.40741,-4.10216 -2.05522,-0.7814 -2.98734,-2.19975 -2.56126,-3.89736 0.46198,-1.84068 0.77462,-1.84932 12.50568,-0.34547 12.01076,1.5397 14.66215,1.76253 28.75537,2.4166 6.68488,0.31024 18.02398,0.96539 25.198,1.45589 7.17402,0.49049 16.91231,1.15391 21.64064,1.47428 4.72833,0.32036 12.599,0.99116 17.49038,1.49066 4.89137,0.4995 12.89545,1.30737 17.78682,1.79528 9.71067,0.96862 21.76315,2.72429 22.23353,3.23873 0.16305,0.17832 1.76386,0.36386 3.55737,0.41232 3.59567,0.0971 12.27957,1.16029 16.89748,2.0687 1.63046,0.32073 3.85062,0.70117 4.93369,0.84542 2.23064,0.29708 4.25617,1.24205 4.25617,1.98564 0,0.90407 -1.5796,1.83246 -3.02587,1.77843 -0.78146,-0.0292 -2.35464,0.0704 -3.49596,0.22139 -1.14133,0.15097 -3.14234,0.17671 -4.44671,0.0572 z m 2.66802,-1.04679 c 0,-0.12502 -0.53397,-0.36694 -1.1866,-0.5376 -0.65264,-0.17067 -1.03709,-0.0684 -0.85435,0.22729 0.31912,0.51636 2.04095,0.77814 2.04095,0.31031 z m 4.15026,-0.3656 c 0,-0.32609 0.41595,-0.59289 0.92434,-0.59289 0.50838,0 0.74869,-0.28419 0.53403,-0.63152 -0.25608,-0.41435 -0.77113,-0.28688 -1.49774,0.37069 -0.63364,0.57345 -1.62342,0.86728 -2.31353,0.68681 -0.66335,-0.17347 -1.05658,-0.0735 -0.87384,0.2222 0.45248,0.73213 3.22674,0.68459 3.22674,-0.0553 z"
         style="opacity:1;fill:#000000;fill-opacity:1;fill-rule:nonzero;stroke:none;stroke-width:5.9000001;stroke-miterlimit:4;stroke-dasharray:none;stroke-opacity:1" />
      <path
         inkscape:connector-curvature="0"
         id="path3487"
         d="m 426.6935,504.38817 c -6.0327,-0.58101 -15.37078,-1.34342 -20.75129,-1.69425 -5.38052,-0.35083 -13.78479,-0.93729 -18.67617,-1.30326 -4.89138,-0.36596 -17.29119,-0.70044 -27.55514,-0.74328 l -18.66172,-0.0779 -0.57684,-1.63978 c -0.45705,-1.29923 -0.36334,-1.85332 0.4512,-2.66802 1.906,-1.90636 30.39172,-1.68203 58.20038,0.45833 4.2392,0.32628 11.57626,0.86482 16.30459,1.19676 4.72833,0.33194 10.73139,0.84777 13.34012,1.14629 2.60874,0.29852 7.37443,0.84428 10.59044,1.2128 7.40655,0.84871 8.82019,1.36113 8.57151,3.10701 -0.34591,2.42845 -4.44525,2.6225 -21.23708,1.00529 z m 18.61274,-0.9027 c 0.51383,-1.33902 0.46478,-1.43678 -0.52946,-1.05526 -0.48914,0.1877 -0.88935,0.71294 -0.88935,1.16718 0,1.12327 0.97431,1.04641 1.41881,-0.11192 z"
         style="opacity:1;fill:#000000;fill-opacity:1;fill-rule:nonzero;stroke:none;stroke-width:5.9000001;stroke-miterlimit:4;stroke-dasharray:none;stroke-opacity:1" />
      <path
         inkscape:connector-curvature="0"
         id="path3489"
         d="m 493.54969,508.86603 c -3.77434,-1.39611 -11.62324,-3.78097 -17.44202,-5.29968 -14.52331,-3.79063 -25.85917,-7.03141 -34.29536,-9.80462 -3.9131,-1.28635 -12.45078,-3.6748 -18.97262,-5.30768 -18.036,-4.51569 -24.53482,-6.34652 -28.75536,-8.10087 -2.97786,-1.2378 -4.8973,-1.61541 -8.44467,-1.66134 -2.52497,-0.0327 -4.59269,-0.28457 -4.59493,-0.55974 -0.004,-0.54238 -31.0002,-0.051 -35.64441,0.56512 -3.74516,0.49681 -5.51249,-0.0113 -6.33759,-1.82226 -0.76756,-1.6846 -0.44295,-3.03042 0.85067,-3.52683 1.88687,-0.72406 26.98044,-1.64744 36.88701,-1.35735 35.23999,1.03192 78.29245,5.47736 102.12399,10.54494 4.69742,0.99887 14.01021,2.86514 20.69509,4.14727 6.68488,1.28214 12.98918,2.60663 14.00954,2.94332 2.56982,0.84797 3.56687,2.2251 3.70312,5.11476 0.10867,2.30449 -0.1763,2.79214 -4.20312,7.19255 -2.37583,2.59625 -5.13494,5.73444 -6.13136,6.97375 -2.56376,3.1887 -4.73371,3.18202 -13.44798,-0.0413 z m 12.99953,-8.18001 c 2.34394,-2.65892 4.18563,-4.91049 4.09264,-5.00348 -0.77807,-0.77808 -34.45086,-7.37238 -51.93207,-10.1701 -16.21635,-2.5953 -43.28127,-5.87682 -43.28127,-5.24771 0,0.15853 2.86812,0.88678 6.37361,1.61833 3.50549,0.73155 7.84102,1.81243 9.63453,2.40195 8.10472,2.66399 37.01869,11.07301 50.69245,14.74285 4.89138,1.31277 11.16123,3.30461 13.93301,4.42631 2.77178,1.1217 5.30641,2.04549 5.6325,2.05286 0.32609,0.007 2.51066,-2.16208 4.8546,-4.82101 z"
         style="opacity:1;fill:#000000;fill-opacity:1;fill-rule:nonzero;stroke:none;stroke-width:5.9000001;stroke-miterlimit:4;stroke-dasharray:none;stroke-opacity:1" />
      <path
         inkscape:connector-curvature="0"
         id="path4428"
         d="m 318.48314,362.38645 c -2.58024,-2.58024 -0.49497,-3.60521 13.31071,-6.54259 5.03737,-1.07178 13.78096,-2.98182 19.43022,-4.24454 17.17384,-3.83868 25.98893,-5.12047 41.79974,-6.07802 8.05725,-0.48797 8.51203,-0.47513 9.32807,0.26338 1.05048,0.95067 1.08274,1.57778 0.12421,2.41501 -1.6325,1.42593 -5.35642,2.05697 -17.92249,3.03707 -8.23622,0.64239 -21.07986,2.52824 -21.77949,3.1979 -0.21905,0.20968 -0.74025,0.38123 -1.15823,0.38123 -0.41796,0 -5.70982,1.12232 -11.75966,2.49404 -6.04985,1.37173 -13.35794,2.8913 -16.24021,3.37683 -2.88227,0.48553 -6.65543,1.22962 -8.38479,1.65353 -5.82579,1.42804 -5.36932,1.42492 -6.74808,0.0462 z"
         style="opacity:1;fill:#000000;fill-opacity:1;fill-rule:nonzero;stroke:none;stroke-width:5.9000001;stroke-miterlimit:4;stroke-dasharray:none;stroke-opacity:1" />
      <path
         inkscape:connector-curvature="0"
         id="path4430"
         d="m 322.42268,374.46057 c -0.50708,-0.25782 -1.04821,-1.04357 -1.20251,-1.7461 -0.4779,-2.17586 0.33747,-2.46528 12.18622,-4.32573 3.68931,-0.57928 7.9341,-1.33028 9.43289,-1.66888 9.11447,-2.05914 13.43875,-2.76664 24.03148,-3.93178 6.49742,-0.71468 16.43561,-1.8469 22.08486,-2.51603 15.02699,-1.77989 22.91662,-2.26302 32.07182,-1.96395 7.30459,0.23861 14.09943,0.79033 16.45515,1.33609 2.10449,0.48757 0.39883,3.55649 -1.97664,3.55649 -0.93969,0 -1.15671,-0.64615 -0.32918,-0.98007 0.33093,-0.13353 0.27021,-0.22365 -0.16476,-0.24456 -0.37885,-0.0182 -0.78595,0.22003 -0.90467,0.52941 -0.17106,0.44577 -2.94264,0.6188 -13.35571,0.83381 -7.22692,0.14922 -15.12076,0.46544 -17.54187,0.7027 -9.1397,0.89568 -39.41655,4.40699 -43.39128,5.03224 -1.3835,0.21763 -3.93037,0.5898 -5.65974,0.82704 -1.72936,0.23725 -5.59685,0.98812 -8.59441,1.6686 -4.95508,1.12486 -15.60551,2.80113 -20.33311,3.20023 -1.03762,0.0876 -2.30146,-0.0517 -2.80854,-0.30951 z"
         style="opacity:1;fill:#000000;fill-opacity:1;fill-rule:nonzero;stroke:none;stroke-width:5.9000001;stroke-miterlimit:4;stroke-dasharray:none;stroke-opacity:1" />
      <path
         inkscape:connector-curvature="0"
         id="path4432"
         d="m 480.15229,355.23323 c -4.14383,-0.40099 -9.85076,-0.70609 -12.68207,-0.67802 -2.8313,0.0281 -5.14768,-0.0433 -5.14749,-0.15856 1.9e-4,-0.1153 -1.93353,-0.20962 -4.29714,-0.20962 -2.36361,0 -5.0521,-0.0487 -5.97443,-0.10825 -0.92232,-0.0595 -3.28055,0.1593 -5.24049,0.48628 l -3.56354,0.59452 -1.16968,-1.10483 c -1.56815,-1.48121 -1.33827,-2.59652 0.75044,-3.64088 1.50465,-0.75232 2.68931,-0.8533 11.52909,-0.98271 12.83293,-0.18787 32.2385,1.09842 36.89031,2.44525 0.80551,0.23322 1.97114,0.42404 2.5903,0.42404 0.61915,0 1.37503,0.23582 1.67972,0.52405 0.3047,0.28822 1.10303,0.5637 1.77407,0.61217 1.54522,0.11161 1.92415,0.52285 1.4993,1.62712 -0.31766,0.82567 -0.65108,0.8774 -5.72074,0.88764 -2.96088,0.006 -8.77382,-0.31721 -12.91765,-0.7182 z m 9.30726,-0.2514 c -0.13931,-0.13931 -0.5009,-0.1542 -0.80354,-0.0331 -0.33444,0.13383 -0.2351,0.23317 0.25329,0.25329 0.44195,0.0182 0.68956,-0.0809 0.55025,-0.2202 z m 3.35392,0 c -0.13931,-0.13931 -0.50091,-0.1542 -0.80354,-0.0331 -0.33444,0.13383 -0.23511,0.23317 0.25329,0.25329 0.44194,0.0182 0.68956,-0.0809 0.55025,-0.2202 z"
         style="opacity:1;fill:#000000;fill-opacity:1;fill-rule:nonzero;stroke:none;stroke-width:5.9000001;stroke-miterlimit:4;stroke-dasharray:none;stroke-opacity:1" />
      <path
         inkscape:connector-curvature="0"
         id="path4434"
         d="m 461.77173,371.94423 c -1.83077,-1.03615 -1.57785,-3.40231 0.44592,-4.17174 1.71925,-0.65366 14.59227,-0.49689 19.26729,0.23463 4.94706,0.77409 9.69979,1.87575 9.96858,2.31067 0.1078,0.17443 -0.1964,0.6725 -0.676,1.10683 -1.23115,1.11495 -8.18865,1.44014 -8.58727,0.40137 -0.16735,-0.43612 -0.43229,-0.5469 -0.73647,-0.30793 -0.71158,0.55902 -18.75694,0.94975 -19.68205,0.42617 z"
         style="opacity:1;fill:#000000;fill-opacity:1;fill-rule:nonzero;stroke:none;stroke-width:5.9000001;stroke-miterlimit:4;stroke-dasharray:none;stroke-opacity:1" />
      <path
         inkscape:connector-curvature="0"
         id="path4436"
         d="m 520.48193,354.13018 c -1.82199,-0.95464 -1.52833,-2.37853 0.84856,-4.11441 6.56956,-4.79788 28.98184,-14.38568 39.72294,-16.99317 2.96329,-0.71937 4.02292,-0.81979 4.93681,-0.46786 2.21053,0.85125 2.06708,3.5172 -0.22363,4.15612 -6.78247,1.89172 -28.81811,10.76335 -37.31679,15.02387 -5.33323,2.67363 -6.66996,3.0755 -7.96789,2.39545 z"
         style="opacity:1;fill:#000000;fill-opacity:1;fill-rule:nonzero;stroke:none;stroke-width:5.9000001;stroke-miterlimit:4;stroke-dasharray:none;stroke-opacity:1" />
      <path
         inkscape:connector-curvature="0"
         id="path4438"
         d="m 522.77686,363.53607 c -1.22513,-1.22513 -0.5608,-2.36642 2.74602,-4.71758 6.97424,-4.95871 32.93788,-16.82641 46.35341,-21.18764 3.84239,-1.24912 5.38502,-2.09998 3.8073,-2.09998 -1.09107,0 -5.19727,-1.36585 -5.19727,-1.72878 0,-0.17486 0.18865,-0.43453 0.41924,-0.57704 0.23058,-0.14251 0.41924,-0.69871 0.41924,-1.23601 0,-0.53731 0.33015,-1.37129 0.73366,-1.85331 1.15799,-1.38326 10.2572,-5.04901 16.39252,-6.60396 9.96453,-2.52544 13.4989,-2.32163 15.01902,0.86608 0.39092,0.81978 0.85003,1.49051 1.02023,1.49051 0.1702,0 0.0573,0.51881 -0.25082,1.15291 -0.30816,0.6341 -0.96199,3.79226 -1.45296,7.01813 -0.88325,5.80333 -1.57216,7.76006 -2.73208,7.76006 -0.32882,0 -1.1015,0.6603 -1.71705,1.46734 -0.61556,0.80704 -1.48768,1.46734 -1.93805,1.46734 -0.45037,0 -3.72743,-1.50926 -7.28236,-3.35392 -3.55493,-1.84465 -6.811,-3.35391 -7.23571,-3.35391 -0.42472,0 -1.00045,0.42646 -1.27941,0.9477 -0.37737,0.70514 -2.40746,1.68433 -7.93158,3.82571 -14.26916,5.53134 -22.20031,9.03796 -36.51374,16.1439 -10.12099,5.0246 -12.21264,5.73942 -13.37961,4.57245 z m 74.31833,-28.75821 c 0.35293,-2.34979 0.64169,-5.12614 0.64169,-6.16967 0,-2.22771 0.7782,-2.24936 -7.96555,0.22151 -6.06068,1.71267 -7.96555,2.35965 -7.96555,2.70544 0,0.11958 2.31106,1.31754 5.13569,2.66214 2.82462,1.3446 6.07455,3.03238 7.22207,3.75061 1.14751,0.71824 2.13218,1.26008 2.18816,1.2041 0.056,-0.056 0.39055,-2.02434 0.74349,-4.37413 z"
         style="opacity:1;fill:#000000;fill-opacity:1;fill-rule:nonzero;stroke:none;stroke-width:5.9000001;stroke-miterlimit:4;stroke-dasharray:none;stroke-opacity:1" />
      <path
         inkscape:connector-curvature="0"
         id="path4440"
         d="m 535.96893,421.61471 c -0.15372,-0.15372 -0.27949,-0.70961 -0.27949,-1.23531 0,-0.68777 0.61724,-1.3661 2.20101,-2.41885 1.21055,-0.80467 2.57832,-1.80975 3.03948,-2.23352 2.7525,-2.52926 13.63189,-7.8734 34.37764,-16.88687 2.5364,-1.10199 7.81882,-3.45556 11.73871,-5.23014 11.25758,-5.09644 14.883,-6.07185 14.883,-4.00423 0,1.36667 -6.79294,5.87633 -8.85157,5.87633 -0.44048,0 -3.95866,1.5367 -7.81817,3.4149 -3.85951,1.8782 -10.22448,4.97407 -14.14436,6.8797 -3.91989,1.90564 -7.59872,3.60252 -8.17517,3.77085 -0.57646,0.16832 -1.70561,0.65696 -2.50923,1.08585 -0.80362,0.42889 -1.74691,0.77932 -2.0962,0.77873 -0.59864,-0.001 -9.89118,4.55238 -14.46997,7.09035 -1.15291,0.63905 -2.66217,1.47379 -3.35392,1.85498 -0.69174,0.38119 -1.58787,0.69424 -1.99138,0.69566 -0.40352,0.001 -0.73367,0.19124 -0.73367,0.42182 0,0.46836 -1.3818,0.57466 -1.81671,0.13975 z"
         style="opacity:1;fill:#000000;fill-opacity:1;fill-rule:nonzero;stroke:none;stroke-width:5.9000001;stroke-miterlimit:4;stroke-dasharray:none;stroke-opacity:1" />
      <path
         inkscape:connector-curvature="0"
         id="path4442"
         d="m 537.3664,424.68837 c 0,-1.43249 3.3084,-3.39861 13.49852,-8.0219 4.22019,-1.91471 12.5579,-5.87232 18.52825,-8.79469 10.95065,-5.36013 18.55527,-8.30705 26.58283,-10.30129 4.29431,-1.06681 4.73719,-0.95384 5.27409,1.34537 0.34907,1.49488 -0.61472,2.15459 -5.19016,3.55262 -8.79542,2.68744 -15.68198,5.20815 -20.33312,7.4426 -2.76698,1.32928 -6.44581,2.98938 -8.17517,3.68911 -1.72936,0.69973 -5.1252,2.26185 -7.54631,3.47139 -10.84273,5.4168 -17.7665,8.33168 -20.22831,8.51603 -2.35742,0.17654 -2.41062,0.15669 -2.41062,-0.89924 z"
         style="opacity:1;fill:#000000;fill-opacity:1;fill-rule:nonzero;stroke:none;stroke-width:5.9000001;stroke-miterlimit:4;stroke-dasharray:none;stroke-opacity:1" />
      <path
         inkscape:connector-curvature="0"
         id="path4444"
         d="m 457.29166,413.91208 c -13.73197,-1.44898 -63.11271,-2.69165 -94.95775,-2.38962 -17.68374,0.16772 -22.1355,0.33572 -28.46586,1.07424 -8.06672,0.9411 -8.77642,0.86437 -9.49538,-1.02665 -1.20209,-3.16172 -0.25906,-3.7773 6.6581,-4.34614 2.69008,-0.22123 6.6833,-0.59214 8.87383,-0.82425 4.88468,-0.51759 65.27778,-0.53608 82.38056,-0.0252 13.19289,0.39407 30.35897,1.46256 34.37764,2.13982 1.38349,0.23315 3.55305,0.58848 4.82125,0.78961 2.80149,0.44431 6.94195,1.44157 8.43242,2.03102 1.27266,0.50331 1.79855,1.5204 1.08036,2.08948 -0.70252,0.55667 -9.93728,0.88529 -13.70517,0.48771 z m -118.01889,-3.33254 c 0.14688,-0.23765 -0.0214,-0.30794 -0.39449,-0.16477 -0.7263,0.27871 -0.85919,0.57921 -0.25614,0.57921 0.21697,0 0.50976,-0.1865 0.65063,-0.41444 z"
         style="opacity:1;fill:#000000;fill-opacity:1;fill-rule:nonzero;stroke:none;stroke-width:5.9000001;stroke-miterlimit:4;stroke-dasharray:none;stroke-opacity:1" />
      <path
         inkscape:connector-curvature="0"
         id="path4446"
         d="m 432.55653,422.50713 c -15.77598,-1.51403 -20.43731,-1.85683 -31.44297,-2.31238 -6.57157,-0.27202 -13.57501,-0.4254 -15.56318,-0.34085 -4.17078,0.17737 -4.56806,-0.0493 -4.87608,-2.78209 -0.32095,-2.84743 -0.0546,-2.91087 12.89295,-3.07055 15.73903,-0.19411 28.32653,0.88263 43.60091,3.72961 9.36081,1.74476 9.96319,1.88557 11.7702,2.75123 4.9546,2.37355 -2.78345,3.33008 -16.38183,2.02503 z"
         style="opacity:1;fill:#000000;fill-opacity:1;fill-rule:nonzero;stroke:none;stroke-width:5.9000001;stroke-miterlimit:4;stroke-dasharray:none;stroke-opacity:1" />
      <path
         inkscape:connector-curvature="0"
         id="path4448"
         d="m 520.80644,468.83231 c -5.62937,-1.14976 -45.44597,-7.18645 -62.04745,-9.40716 -4.38105,-0.58604 -13.51097,-1.61905 -20.2887,-2.29559 -6.77774,-0.67654 -12.52237,-1.42927 -12.76584,-1.67275 -0.24348,-0.24348 -0.73511,-0.44187 -1.09251,-0.44088 -0.76774,0.002 -4.15537,2.50047 -8.05432,5.93997 -2.72119,2.40052 -2.87721,2.47414 -6.07897,2.86846 -1.80736,0.22259 -16.02051,0.69705 -31.58478,1.05435 -38.93976,0.89394 -83.21484,2.29838 -92.23268,2.92569 -10.96527,0.76278 -21.08669,1.04336 -22.63151,0.62739 -2.01987,-0.5439 -2.81939,-1.74278 -2.14676,-3.21906 0.25431,-0.55813 0.46237,-1.67559 0.46237,-2.48322 0,-0.80764 0.28223,-2.0142 0.62717,-2.68124 0.83174,-1.6084 14.40333,-14.29703 19.23928,-17.98758 4.23741,-3.23377 10.07001,-6.8267 17.75816,-10.93916 l 5.08684,-2.721 0.45518,-2.61387 c 0.67868,-3.89722 1.16791,-8.13732 2.11432,-18.32442 0.46966,-5.05531 1.06152,-9.44161 1.31523,-9.74732 0.64494,-0.77711 2.49161,-2.47116 3.55399,-1.60086 1.88342,1.5429 1.80516,10.258 0.33597,21.88351 -0.35567,2.81436 -0.58825,5.84219 -0.51684,6.7285 l 0.12982,1.6115 7.33669,-0.96842 c 5.60667,-0.74006 10.35188,-1.02941 20.1235,-1.22711 14.51336,-0.29364 21.00456,0.0213 44.649,2.16611 15.50002,1.40603 43.18788,3.62453 52.3173,4.19194 5.08697,0.31616 6.24693,0.89796 7.63898,3.8315 0.68747,1.44872 0.68984,1.62863 0.0374,2.83474 -0.38317,0.70831 -1.77574,2.02813 -3.0946,2.93293 -3.00855,2.06402 -9.61292,7.36757 -10.95927,8.8007 -0.55803,0.59399 -0.90621,1.18837 -0.77373,1.32084 0.13247,0.13247 3.32468,0.41385 7.09379,0.62527 3.76911,0.21143 7.60755,0.48076 8.52988,0.59852 0.92233,0.11777 6.20475,0.69917 11.73871,1.29201 16.06907,1.72143 45.92276,6.13601 55.52535,8.21074 5.05451,1.09207 12.44185,3.20072 14.0684,4.01568 2.78031,1.39305 3.9078,3.37405 2.64121,4.64064 -0.6992,0.6992 -1.79825,0.59959 -8.51056,-0.77135 z m -245.04548,-6.46027 c 22.75991,-2.15473 118.85747,-4.67809 132.06044,-3.46769 l 3.56353,0.32669 0.56712,-1.28788 c 0.65839,-1.49517 8.90484,-9.15334 17.74837,-16.48225 l 6.15754,-5.10294 -10.14032,-0.49561 c -12.8681,-0.62891 -19.21293,-1.14285 -32.77925,-2.65512 -41.33146,-4.60733 -59.56764,-4.83946 -76.9209,-0.97915 -6.15753,1.36977 -10.76626,3.04734 -16.66992,6.06783 -9.24902,4.73208 -18.74543,11.73187 -27.77901,20.47585 -4.17256,4.03881 -4.65203,4.63635 -3.56353,4.44109 0.69174,-0.12409 4.18191,-0.50246 7.75593,-0.84082 z"
         style="opacity:1;fill:#000000;fill-opacity:1;fill-rule:nonzero;stroke:none;stroke-width:5.9000001;stroke-miterlimit:4;stroke-dasharray:none;stroke-opacity:1"
         sodipodi:nodetypes="cssccssssscsssscsssssccssssscsscscssssccsscsscsssssss" />
      <path
         inkscape:connector-curvature="0"
         id="path4450"
         d="m 488.24391,435.1361 c -6.61089,-0.2503 -12.14499,-0.58101 -12.298,-0.7349 -0.15302,-0.15389 -0.37625,-1.01068 -0.49606,-1.90397 -0.34112,-2.54321 0.29375,-2.82203 6.81291,-2.99214 11.1346,-0.29054 26.96535,2.00881 30.70627,4.45995 0.95354,0.62479 0.96777,0.69225 0.25584,1.21283 -0.89335,0.65324 -6.88971,0.64321 -24.98096,-0.0418 z"
         style="opacity:1;fill:#000000;fill-opacity:1;fill-rule:nonzero;stroke:none;stroke-width:5.9000001;stroke-miterlimit:4;stroke-dasharray:none;stroke-opacity:1" />
      <path
         inkscape:connector-curvature="0"
         id="path4452"
         d="m 464.42979,449.64139 c -1.58677,-0.31272 -2.50968,-1.58881 -2.52032,-3.48477 -0.0125,-2.22191 0.22409,-2.25613 15.259,-2.20717 20.52111,0.0668 33.78584,1.37864 33.78584,3.34125 0,0.328 -0.14149,0.55627 -0.31443,0.50728 -0.17294,-0.049 -0.69175,0.11531 -1.15291,0.3651 -0.46116,0.24979 -2.63073,0.56706 -4.82125,0.70504 -9.82339,0.61876 -38.24802,1.16504 -40.23593,0.77327 z"
         style="opacity:1;fill:#000000;fill-opacity:1;fill-rule:nonzero;stroke:none;stroke-width:5.9000001;stroke-miterlimit:4;stroke-dasharray:none;stroke-opacity:1" />
      <path
         inkscape:connector-curvature="0"
         id="path4454"
         d="m 541.14345,459.00104 c -1.37677,-1.4655 -0.72705,-2.64662 2.35971,-4.28969 2.97934,-1.58588 22.99293,-8.81366 25.4431,-9.1886 0.96232,-0.14726 2.22132,-0.49918 2.79777,-0.78204 1.26522,-0.62084 4.65534,-1.44025 7.89259,-1.90768 1.30833,-0.18892 2.89759,-0.47164 3.53169,-0.62828 0.89971,-0.22225 1.15291,-0.13596 1.15291,0.39293 0,0.37276 0.18866,0.67774 0.41924,0.67774 0.88802,0 0.35154,1.09028 -0.98383,1.99942 -1.56578,1.06601 -7.75397,3.25629 -13.9696,4.94448 -2.26708,0.61575 -4.78227,1.44792 -5.58931,1.84927 -1.93187,0.96076 -7.5709,2.64145 -7.86747,2.34487 -0.12787,-0.12786 -0.48062,0.12177 -0.78389,0.55475 -0.30327,0.43297 -1.22392,0.91339 -2.04589,1.0676 -0.82197,0.1542 -3.21828,1.11935 -5.32513,2.14478 -4.4031,2.14303 -5.65245,2.2888 -7.03189,0.82045 z m 37.30842,-12.55658 c 0,-0.4425 -0.80457,-0.62841 -1.04388,-0.24121 -0.14483,0.23435 0.0308,0.42608 0.39028,0.42608 0.35948,0 0.6536,-0.0832 0.6536,-0.18487 z m 1.78176,-1.3505 c -0.28822,-0.1163 -0.75987,-0.1163 -1.04809,0 -0.28823,0.1163 -0.0524,0.21146 0.52405,0.21146 0.57645,0 0.81227,-0.0952 0.52404,-0.21146 z"
         style="opacity:1;fill:#000000;fill-opacity:1;fill-rule:nonzero;stroke:none;stroke-width:5.9000001;stroke-miterlimit:4;stroke-dasharray:none;stroke-opacity:1" />
      <path
         inkscape:connector-curvature="0"
         id="path4456"
         d="m 543.78426,483.44088 c -0.50536,-0.24421 -1.01888,-0.70472 -1.14115,-1.02336 -0.67187,-1.75087 2.43616,-4.8547 6.31999,-6.31145 6.06006,-2.27301 18.45555,-5.34644 19.67521,-4.87841 0.33053,0.12683 0.85342,0.0211 1.16197,-0.23499 0.86177,-0.7152 4.291,-1.078 4.653,-0.49227 0.56917,0.92094 -0.16977,2.39619 -1.54641,3.08733 -0.75485,0.37897 -3.35336,1.28079 -5.77447,2.00404 -12.78124,3.8181 -19.28502,6.17322 -19.28502,6.98342 0,0.54197 -1.68408,1.39311 -2.64753,1.33808 -0.27322,-0.0156 -0.91024,-0.22818 -1.41559,-0.47239 z"
         style="opacity:1;fill:#000000;fill-opacity:1;fill-rule:nonzero;stroke:none;stroke-width:5.9000001;stroke-miterlimit:4;stroke-dasharray:none;stroke-opacity:1" />
      <path
         inkscape:connector-curvature="0"
         id="path4458"
         d="m 549.70886,489.62191 c -0.40864,-0.62366 -0.56248,-1.37671 -0.39138,-1.91579 0.40301,-1.26979 4.30397,-3.62718 9.08614,-5.49085 4.85569,-1.89232 7.24553,-2.53026 13.84479,-3.69572 7.36167,-1.30011 10.12482,-1.0932 8.67822,0.64985 -0.91505,1.10257 -3.55388,2.22751 -11.8454,5.04973 -4.41529,1.50284 -9.98006,3.56448 -12.36615,4.5814 -5.00766,2.1342 -6.06482,2.25814 -7.00622,0.82138 z m 27.69491,-10.2919 c 0.14448,-0.23378 -0.16913,-0.4164 -0.70893,-0.41282 -0.77879,0.005 -0.8451,0.0859 -0.33917,0.41282 0.78009,0.50414 0.73653,0.50414 1.0481,0 z"
         style="opacity:1;fill:#000000;fill-opacity:1;fill-rule:nonzero;stroke:none;stroke-width:5.9000001;stroke-miterlimit:4;stroke-dasharray:none;stroke-opacity:1" />
      <path
         inkscape:connector-curvature="0"
         id="path4460"
         d="m 543.55018,518.07589 c -2.95644,-1.59467 -0.37459,-5.10245 7.68689,-10.44362 5.99042,-3.96898 16.04335,-9.05677 21.5722,-10.91769 2.52697,-0.85054 5.21951,-1.82299 5.98342,-2.16101 1.23905,-0.54825 10.29996,-2.64637 11.42858,-2.64637 0.24577,0 0.38657,0.42448 0.31289,0.94329 -0.10268,0.72297 -0.45219,0.97397 -1.4965,1.07466 -0.76014,0.0733 -1.36252,0.36892 -1.36252,0.66869 0,0.92744 -1.49863,1.9467 -4.04351,2.75009 -1.35009,0.42621 -5.28457,2.03667 -8.7433,3.57879 -3.45872,1.54212 -6.71307,2.90203 -7.23188,3.02202 -0.51881,0.11998 -0.94329,0.38481 -0.94329,0.58852 0,0.2037 -0.17514,0.37036 -0.38919,0.37036 -0.51585,0 -5.65043,3.04052 -5.82953,3.45205 -0.0769,0.17661 -0.42703,0.32111 -0.77815,0.32111 -0.35112,0 -1.32585,0.53522 -2.16607,1.18938 -0.84021,0.65415 -2.71453,1.98705 -4.16514,2.96199 -1.45061,0.97494 -3.6374,2.58707 -4.85953,3.58251 -2.70747,2.20526 -3.48914,2.46689 -4.97537,1.66523 z m 40.77104,-22.91096 c 0,-0.24539 -0.26639,-0.20464 -0.62886,0.0962 -0.34587,0.28705 -0.62886,0.58722 -0.62886,0.66704 0,0.0798 0.28299,0.0365 0.62886,-0.0962 0.34587,-0.13272 0.62886,-0.43289 0.62886,-0.66703 z"
         style="opacity:1;fill:#000000;fill-opacity:1;fill-rule:nonzero;stroke:none;stroke-width:5.9000001;stroke-miterlimit:4;stroke-dasharray:none;stroke-opacity:1" />
      <path
         inkscape:connector-curvature="0"
         id="path4464"
         d="m 425.84869,504.4553 c -26.15536,-2.46906 -49.93554,-3.70113 -71.95548,-3.72809 l -13.05234,-0.016 -0.25279,-0.94329 c -0.4315,-1.61012 -0.29064,-3.12453 0.33924,-3.64728 1.51067,-1.25375 16.63864,-1.62197 34.82226,-0.84758 27.03059,1.15116 67.12465,4.65982 71.1659,6.22779 1.32765,0.51512 1.57279,2.0845 0.4941,3.16319 -0.91034,0.91034 -10.71119,0.81544 -21.56089,-0.20876 z m 19.4065,-1.22864 c 0.24693,-0.94428 -0.12488,-1.08662 -0.87611,-0.33539 -0.66971,0.66971 -0.63669,1.17387 0.0769,1.17387 0.31897,0 0.67863,-0.37731 0.79923,-0.83848 z"
         style="opacity:1;fill:#000000;fill-opacity:1;fill-rule:nonzero;stroke:none;stroke-width:5.9000001;stroke-miterlimit:4;stroke-dasharray:none;stroke-opacity:1" />
      <path
         inkscape:connector-curvature="0"
         id="path4466"
         d="m 494.39435,525.16129 c -0.69175,-0.0877 -4.27624,-0.52134 -7.96555,-0.96367 -3.68931,-0.44233 -12.74488,-1.563 -20.1235,-2.49038 -28.92224,-3.63508 -41.30586,-4.66419 -91.39184,-7.59489 -22.2713,-1.30316 -36.93528,-2.79646 -39.25851,-3.99785 -2.30598,-1.19246 -2.71411,-4.50099 -0.62006,-5.02656 0.54278,-0.13623 5.86949,0.32917 11.83713,1.03422 11.05488,1.30608 18.14955,1.89523 28.2487,2.34579 9.86094,0.43993 45.58428,2.76002 55.12999,3.58047 21.23368,1.82503 47.37395,4.91393 49.59479,5.86044 0.52966,0.22573 1.89022,0.41042 3.02346,0.41042 4.66465,0 22.80269,2.76734 24.9101,3.80056 2.14052,1.04946 1.7714,2.31927 -0.851,2.92759 -1.57476,0.3653 -9.95004,0.44138 -12.53371,0.11386 z m 11.94506,-2.33518 c 0.005,-0.46584 -0.53072,-0.35979 -1.35926,0.26917 -1.06496,0.80842 -0.89894,1.09112 0.31116,0.52986 0.57465,-0.26653 1.0463,-0.62609 1.0481,-0.79903 z"
         style="opacity:1;fill:#000000;fill-opacity:1;fill-rule:nonzero;stroke:none;stroke-width:5.9000001;stroke-miterlimit:4;stroke-dasharray:none;stroke-opacity:1" />
      <path
         inkscape:connector-curvature="0"
         id="path4468"
         d="m 360.83432,556.08309 c -2.13693,-2.13694 -1.34183,-3.8192 2.17792,-4.608 5.5157,-1.23609 18.41394,-2.27735 36.63399,-2.95743 15.6021,-0.58235 49.47083,-1.43624 57.91506,-1.46013 6.49577,-0.0184 7.27204,0.0565 8.07036,0.77831 1.07555,0.97249 1.12297,1.96539 0.14961,3.13233 -0.58356,0.6996 -1.5057,0.96451 -4.50683,1.29468 -5.24804,0.57736 -18.5907,1.1857 -37.10269,1.69165 -33.63767,0.91934 -49.884,1.69614 -57.40398,2.7447 -2.4036,0.33514 -4.44618,0.60936 -4.53907,0.60936 -0.0929,0 -0.72036,-0.55146 -1.39437,-1.22547 z"
         style="opacity:1;fill:#000000;fill-opacity:1;fill-rule:nonzero;stroke:none;stroke-width:5.9000001;stroke-miterlimit:4;stroke-dasharray:none;stroke-opacity:1" />
      <path
         inkscape:connector-curvature="0"
         id="path4470"
         d="m 443.87599,569.86507 c -3.60293,-0.41902 -44.53759,-1.2221 -62.74894,-1.23104 l -12.23059,-0.006 -1.28989,-1.08536 c -1.56755,-1.31901 -1.69086,-2.82497 -0.30564,-3.7326 1.71173,-1.12157 17.0334,-1.48924 43.45514,-1.04277 13.02787,0.22014 25.47928,0.58656 27.66981,0.81426 7.9278,0.82408 11.11305,1.37216 11.87453,2.04323 0.59926,0.52812 0.7353,0.54579 0.62886,0.0817 -0.21312,-0.92921 0.99117,-0.9407 2.48442,-0.0237 1.49726,0.91946 1.77612,2.21937 0.77098,3.59398 -0.48791,0.66726 -1.16735,0.8217 -3.87797,0.88149 -1.80753,0.0399 -4.70135,-0.0921 -6.43071,-0.29318 z"
         style="opacity:1;fill:#000000;fill-opacity:1;fill-rule:nonzero;stroke:none;stroke-width:5.9000001;stroke-miterlimit:4;stroke-dasharray:none;stroke-opacity:1" />
      <path
         inkscape:connector-curvature="0"
         id="path4472"
         d="m 291.91736,569.40869 c -0.60882,-0.72355 -1.05007,-1.69507 -0.98055,-2.15895 0.18576,-1.23958 1.92033,-2.33027 4.46401,-2.80694 3.41844,-0.6406 16.82917,-0.95462 22.6164,-0.52958 5.36159,0.39379 6.00678,0.64144 6.57108,2.52226 0.51058,1.70178 -1.76637,2.22971 -12.35351,2.86424 -5.18809,0.31095 -11.2797,0.75867 -13.53691,0.99493 -5.6076,0.58695 -5.53293,0.59671 -6.78052,-0.88596 z"
         style="opacity:1;fill:#000000;fill-opacity:1;fill-rule:nonzero;stroke:none;stroke-width:5.9000001;stroke-miterlimit:4;stroke-dasharray:none;stroke-opacity:1" />
      <path
         inkscape:connector-curvature="0"
         id="path4474"
         d="m 285.16419,583.59186 c -1.07061,-0.9209 -1.16245,-1.18037 -0.79219,-2.2382 l 0.41881,-1.19655 5.23239,-0.29757 c 2.87782,-0.16367 10.32615,-0.49753 16.55186,-0.74192 27.48074,-1.07875 32.28853,-1.29673 39.40851,-1.78677 9.29633,-0.63982 51.38414,-0.68521 53.24342,-0.0574 1.69395,0.57197 1.8836,1.96273 0.40019,2.9347 -1.21663,0.79717 -2.57745,0.86251 -38.55099,1.85109 -9.22327,0.25346 -20.4484,0.62641 -24.94475,0.82878 -4.49634,0.20237 -15.43849,0.56209 -24.31589,0.79938 -8.87739,0.23729 -18.23314,0.54724 -20.79054,0.68878 -4.52456,0.25041 -4.68245,0.22928 -5.86082,-0.78431 z"
         style="opacity:1;fill:#000000;fill-opacity:1;fill-rule:nonzero;stroke:none;stroke-width:5.9000001;stroke-miterlimit:4;stroke-dasharray:none;stroke-opacity:1" />
      <path
         inkscape:connector-curvature="0"
         id="path4476"
         d="m 527.29309,594.05727 c -0.45886,-0.47327 -13.85901,-1.81459 -32.35919,-3.23907 -9.77616,-0.75274 -16.15673,-0.87449 -56.50802,-1.07827 -51.17704,-0.25844 -105.82648,0.29944 -132.572,1.35333 -16.67888,0.65722 -17.98291,0.65796 -18.97059,0.0108 -1.18663,-0.77751 -1.41437,-2.37551 -0.45232,-3.17394 1.94929,-1.61777 28.26041,-2.71816 101.68617,-4.25274 52.91241,-1.10586 113.78952,0.66873 131.77213,3.84121 6.08877,1.07417 12.46097,2.49014 13.38954,2.97529 1.0264,0.53627 0.91416,1.89319 -0.21794,2.63498 -0.96968,0.63535 -5.36583,1.34298 -5.76778,0.9284 z m 4.20395,-2.16146 c 0,-0.34587 -0.15721,-0.62885 -0.34936,-0.62885 -0.19215,0 -0.34937,0.28298 -0.34937,0.62885 0,0.34588 0.15722,0.62886 0.34937,0.62886 0.19215,0 0.34936,-0.28298 0.34936,-0.62886 z"
         style="opacity:1;fill:#000000;fill-opacity:1;fill-rule:nonzero;stroke:none;stroke-width:5.9000001;stroke-miterlimit:4;stroke-dasharray:none;stroke-opacity:1" />
      <path
         inkscape:connector-curvature="0"
         id="path4478"
         d="m 325.38813,604.34586 c -1.19847,-0.17098 -2.78249,-1.91883 -2.60548,-2.87495 0.23523,-1.27058 2.78968,-2.16783 8.1083,-2.84803 5.52127,-0.70612 21.55777,-1.89642 25.62728,-1.90218 2.18751,-0.003 2.66685,-0.14374 3.22712,-0.94692 0.45647,-0.65438 0.66474,-0.75069 0.68,-0.31443 0.0193,0.55082 2.89651,0.63198 23.18497,0.65399 23.80994,0.0258 38.27329,0.63498 50.20392,2.11445 7.08604,0.8787 7.9441,1.74221 3.51682,3.53912 l -2.36683,0.96062 -24.99569,-0.5367 c -32.01465,-0.68742 -66.15274,0.0758 -79.71619,1.78231 -2.18517,0.27492 -4.37407,0.44265 -4.86422,0.37272 z"
         style="opacity:1;fill:#000000;fill-opacity:1;fill-rule:nonzero;stroke:none;stroke-width:5.9000001;stroke-miterlimit:4;stroke-dasharray:none;stroke-opacity:1" />
      <path
         inkscape:connector-curvature="0"
         id="path4480"
         d="m 512.63127,606.89776 c -5.57824,-0.49015 -13.12786,-0.64154 -31.4988,-0.63164 l -24.16211,0.013 -0.46821,-1.02761 c -0.71367,-1.56634 -0.56473,-2.58255 0.47871,-3.26624 1.60064,-1.04877 9.39116,-1.49445 26.09402,-1.49278 27.4586,0.003 43.44078,1.57987 45.36407,4.4765 0.5586,0.8413 0.51567,0.9697 -0.55997,1.6749 -1.5484,1.01515 -5.78146,1.08562 -15.24771,0.25384 z"
         style="opacity:1;fill:#000000;fill-opacity:1;fill-rule:nonzero;stroke:none;stroke-width:5.9000001;stroke-miterlimit:4;stroke-dasharray:none;stroke-opacity:1" />
      <path
         inkscape:connector-curvature="0"
         id="path4482"
         d="m 561.16878,573.84386 c -1.3434,-0.72903 -2.09859,-1.96068 -1.75355,-2.85985 0.39375,-1.02609 3.76289,-2.96855 9.42634,-5.43469 8.4956,-3.69941 29.29823,-11.91565 32.12243,-12.68712 2.4299,-0.66377 2.6676,-0.66433 3.66835,-0.009 1.35903,0.89048 1.34892,1.54637 -0.0453,2.94064 -1.30716,1.30715 -0.77927,1.06366 -19.63692,9.05752 -8.07036,3.42107 -16.34292,6.99086 -18.38347,7.93288 -2.04055,0.94201 -3.8328,1.7052 -3.98278,1.69597 -0.14997,-0.009 -0.78675,-0.29576 -1.41505,-0.63673 z"
         style="opacity:1;fill:#000000;fill-opacity:1;fill-rule:nonzero;stroke:none;stroke-width:5.9000001;stroke-miterlimit:4;stroke-dasharray:none;stroke-opacity:1" />
      <path
         inkscape:connector-curvature="0"
         id="path4484"
         d="m 548.45719,526.09427 c -1.26908,-1.26908 -1.31026,-2.44945 -0.12402,-3.55461 1.04921,-0.97748 8.26979,-5.37201 13.1395,-7.99683 2.81265,-1.51605 8.55331,-4.8286 17.18882,-9.91852 3.66826,-2.16214 9.88423,-5.1708 10.68299,-5.1708 0.47259,0 0.84609,-0.27761 0.84609,-0.62886 0,-0.54683 0.54783,-0.83869 0.98367,-0.52405 0.0798,0.0576 0.4489,-0.14725 0.82011,-0.45533 0.37121,-0.30808 0.85882,-0.4465 1.08357,-0.30759 0.22475,0.1389 0.52713,0.0608 0.67196,-0.17353 0.14483,-0.23434 0.60642,-0.42608 1.02573,-0.42608 0.41933,0 0.99727,-0.28299 1.28432,-0.62886 0.28704,-0.34587 0.90536,-0.62886 1.37402,-0.62886 0.84083,0 0.84154,0.0125 0.0535,0.94329 l -0.79865,0.94329 0.94329,-0.79865 c 0.51881,-0.43925 0.94329,-1.07257 0.94329,-1.40738 0,-0.36886 0.24781,-0.51364 0.62886,-0.36742 0.34587,0.13273 0.62886,0.0822 0.62886,-0.11236 0,-0.19452 0.51881,-0.45838 1.15291,-0.58634 0.6341,-0.12797 1.48306,-0.36039 1.88658,-0.5165 0.5479,-0.21197 0.73367,-0.0728 0.73367,0.54974 0,0.8691 -2.07936,2.70458 -3.61306,3.18929 -0.4884,0.15436 -1.2251,0.65315 -1.63712,1.10842 -0.41202,0.45528 -0.90025,0.82778 -1.08494,0.82778 -0.1847,0 -1.31317,0.57627 -2.50772,1.2806 -1.19455,0.70433 -2.41054,1.18903 -2.7022,1.07711 -0.29166,-0.11192 -0.61564,0.12289 -0.71996,0.5218 -0.10432,0.39891 -1.49068,1.51634 -3.08079,2.48317 -1.59012,0.96684 -4.49472,2.77996 -6.45467,4.02917 -1.95994,1.24921 -5.7331,3.57834 -8.38479,5.17584 -2.65169,1.5975 -6.99082,4.22439 -9.64251,5.83753 -6.43202,3.91288 -12.69621,7.26458 -13.57722,7.26458 -0.39327,0 -1.1781,-0.46307 -1.74407,-1.02904 z M 581.273,508.00425 c -0.13931,-0.13931 -0.5009,-0.15421 -0.80354,-0.0331 -0.33444,0.13383 -0.2351,0.23317 0.25329,0.25329 0.44195,0.0182 0.68956,-0.0809 0.55025,-0.22019 z"
         style="opacity:1;fill:#000000;fill-opacity:1;fill-rule:nonzero;stroke:none;stroke-width:5.9000001;stroke-miterlimit:4;stroke-dasharray:none;stroke-opacity:1" />
      <path
         inkscape:connector-curvature="0"
         id="path5028"
         d="m 561.13519,587.06649 c -1.26728,-3.30248 1.27844,-4.80129 20.23952,-11.91612 12.87438,-4.8309 24.43003,-6.08757 19.49464,-2.12003 -0.57645,0.46341 -5.57589,2.63981 -11.10985,4.83644 -5.53396,2.19663 -13.38018,5.44818 -17.43605,7.22566 -7.97617,3.49554 -10.43774,3.92986 -11.18826,1.97405 z"
         style="opacity:1;fill:#000000;fill-opacity:1;fill-rule:nonzero;stroke:none;stroke-width:5.9000001;stroke-miterlimit:4;stroke-dasharray:none;stroke-opacity:1" />
      <path
         inkscape:connector-curvature="0"
         id="path5030"
         d="m 488.30355,508.94585 c -2.76698,-1.09742 -10.12464,-3.33816 -16.35034,-4.9794 -13.07467,-3.44679 -35.47629,-9.89321 -38.89123,-11.19157 -1.28389,-0.48813 -9.13844,-2.58875 -17.45456,-4.66805 -8.31613,-2.0793 -19.13243,-5.11621 -24.03623,-6.74869 l -8.91599,-2.96815 -23.49068,0.21758 c -12.91987,0.11966 -23.95635,-0.0702 -24.52551,-0.42199 -0.56916,-0.35176 -1.03483,-1.55339 -1.03483,-2.6703 0,-1.50493 0.59703,-2.19248 2.30581,-2.65539 1.2682,-0.34356 15.32321,-0.62245 31.23335,-0.61977 29.83316,0.005 46.37216,1.00627 76.30158,4.61909 25.57092,3.0867 69.70129,11.60308 72.29684,13.95201 3.06081,2.77 1.93995,6.16647 -4.46505,13.53025 l -5.95436,6.84569 -5.99396,-0.12299 c -4.10906,-0.0843 -7.57602,-0.75046 -11.02484,-2.11832 z m 13.72949,-9.26109 c 1.85844,-2.17419 3.29676,-4.03529 3.19628,-4.13578 -1.02754,-1.02754 -51.61792,-10.22832 -68.43892,-12.44687 -17.63174,-2.32547 -17.85907,-2.40978 32.64737,12.10754 12.682,3.64524 24.00146,7.00891 25.15437,7.4748 3.37373,1.36335 3.88908,1.15559 7.4409,-2.99969 z m -78.9387,-18.35396 c -0.27862,-0.27862 -1.00181,-0.30841 -1.60709,-0.0662 -0.66887,0.26767 -0.4702,0.46635 0.50659,0.50658 0.88389,0.0364 1.37912,-0.16176 1.1005,-0.44038 z"
         style="opacity:1;fill:#000000;fill-opacity:1;fill-rule:nonzero;stroke:none;stroke-width:5.9000001;stroke-miterlimit:4;stroke-dasharray:none;stroke-opacity:1" />
    </g>
    <path
       style="opacity:1;fill:#ffffff;fill-opacity:1;fill-rule:nonzero;stroke:none;stroke-width:5.9000001;stroke-miterlimit:4;stroke-dasharray:none;stroke-opacity:1"
       d="m 277.34922,338.38859 c 0,-1.63962 35.5968,-31.2483 54.48105,-45.3162 l 9.62242,-7.16826 43.621,-0.70483 c 56.84984,-0.91858 107.62561,-0.31223 123.69573,1.47714 16.98048,1.89074 57.93895,7.95502 59.45359,8.80265 1.43651,0.80391 1.40934,0.81661 -18.36812,8.57945 -29.48321,11.57243 -46.1413,18.38969 -53.62244,21.94479 -9.00897,4.28113 -9.01085,4.28092 -15.15703,-1.66188 l -3.79734,-3.67168 -5.84517,4.2688 c -11.88701,8.68126 -10.99856,8.41429 -24.34663,7.31583 -6.42607,-0.52883 -27.90834,-0.96261 -47.73837,-0.96396 -31.56716,-0.002 -39.60279,0.27895 -64.56288,2.25859 -27.09517,2.14898 -47.38986,4.09313 -54.29151,5.2009 -1.92964,0.30972 -3.1443,0.17014 -3.1443,-0.36134 z"
       id="path5082"
       inkscape:connector-curvature="0" />
    <path
       style="opacity:1;fill:#ffffff;fill-opacity:1;fill-rule:nonzero;stroke:none;stroke-width:5.9000001;stroke-miterlimit:4;stroke-dasharray:none;stroke-opacity:1"
       d="m 292.07368,536.77863 c 2.45835,-7.95074 5.72541,-15.6673 6.80937,-16.08326 2.27835,-0.87428 43.86753,5.07573 43.86753,6.27597 0,0.28879 -2.73554,1.00639 -6.07897,1.59467 -3.34344,0.58827 -14.30172,3.10125 -24.35174,5.58439 -10.05002,2.48315 -18.84803,4.51481 -19.55114,4.51481 -0.93957,0 -1.12378,-0.49999 -0.69505,-1.88658 z"
       id="path5088"
       inkscape:connector-curvature="0" />
    <path
       style="opacity:1;fill:#ffffff;fill-opacity:1;fill-rule:nonzero;stroke:none;stroke-width:5.9000001;stroke-miterlimit:4;stroke-dasharray:none;stroke-opacity:1"
       d="m 313.51966,547.80628 c -4.7785,-2.80308 -8.363,-5.4112 -7.96555,-5.79581 0.85007,-0.82261 24.93735,-6.26041 33.42332,-7.54544 8.98094,-1.35999 39.45458,-2.11284 40.14739,-0.99184 0.56853,0.9199 0.12188,1.0788 -10.9031,3.87872 -6.58302,1.67184 -21.55098,6.86274 -33.85593,11.74126 -5.30338,2.10263 -10.20848,3.81995 -10.90023,3.81629 -0.69174,-0.004 -5.1674,-2.3001 -9.9459,-5.10318 z"
       id="path5090"
       inkscape:connector-curvature="0" />
    <path
       style="opacity:1;fill:#ffffff;fill-opacity:1;fill-rule:nonzero;stroke:none;stroke-width:5.9000001;stroke-miterlimit:4;stroke-dasharray:none;stroke-opacity:1"
       d="m 281.25426,530.74177 c -2.69445,-1.10786 -5.08774,-2.20303 -5.31842,-2.43371 -0.52114,-0.52115 2.76527,-2.23708 9.58855,-5.00646 4.04158,-1.64036 5.24049,-1.85814 5.24049,-0.9519 0,1.1813 -3.87789,10.46345 -4.35587,10.42626 -0.14067,-0.011 -2.46031,-0.92634 -5.15475,-2.03419 z"
       id="path5092"
       inkscape:connector-curvature="0" />
    <path
       style="opacity:1;fill:#ffffff;fill-opacity:1;fill-rule:nonzero;stroke:none;stroke-width:5.9000001;stroke-miterlimit:4;stroke-dasharray:none;stroke-opacity:1"
       d="m 482.35733,499.22564 c -7.37862,-2.21789 -22.6599,-6.73098 -33.9584,-10.02909 -17.68452,-5.16223 -24.55376,-7.58772 -21.33929,-7.5348 4.8416,0.0797 47.34808,7.21114 67.75823,11.36798 5.49437,1.11902 10.14528,2.03457 10.33536,2.03457 0.65122,0 -0.99613,2.36727 -3.74084,5.37566 -1.50996,1.65502 -3.39654,2.96617 -4.19239,2.91367 -0.79586,-0.0525 -7.48406,-1.9101 -14.86267,-4.12799 z"
       id="path5094"
       inkscape:connector-curvature="0" />
    <path
       style="opacity:1;fill:#ffffff;fill-opacity:1;fill-rule:nonzero;stroke:none;stroke-width:5.9000001;stroke-miterlimit:4;stroke-dasharray:none;stroke-opacity:1"
       d="m 269.38367,460.7148 c 6.91101,-7.43471 21.10803,-17.88789 31.17381,-22.95307 17.32346,-8.71732 41.05574,-10.14425 87.05173,-5.23411 15.65488,1.67118 42.27494,3.81694 47.64088,3.84018 0.37732,0.002 -2.82986,2.97562 -7.12707,6.60885 -4.29722,3.63323 -9.96634,8.72699 -12.59803,11.31947 l -4.7849,4.71359 -27.91578,0.004 c -37.51009,0.006 -96.83574,2.07322 -111.76368,3.89531 l -4.1924,0.51172 2.51544,-2.70605 z"
       id="path5096"
       inkscape:connector-curvature="0" />
    <path
       style="opacity:1;fill:#ffffff;fill-opacity:1;fill-rule:nonzero;stroke:none;stroke-width:5.9000001;stroke-miterlimit:4;stroke-dasharray:none;stroke-opacity:1"
       d="m 549.85489,607.83973 c 0,-3.42034 0.30694,-4.61164 1.1882,-4.61164 3.18904,0 22.28921,-10.29397 22.28921,-12.01269 0,-1.37743 -6.24448,0.16193 -14.34466,3.53617 l -7.87504,3.28045 -0.52508,-13.54268 c -0.2888,-7.44848 -0.91185,-14.93286 -1.38456,-16.63195 -1.14497,-4.11546 0.83084,-6.18243 5.13746,-5.37451 2.43343,0.45652 5.62985,-0.66824 20.78589,-7.31412 9.85063,-4.31948 21.6834,-9.42974 26.29503,-11.35614 4.61164,-1.9264 8.91142,-3.83456 9.55507,-4.24035 1.48971,-0.9392 0.58462,-3.4225 -1.24739,-3.4225 -2.80265,0 -19.09335,5.96482 -32.22134,11.7978 -7.42125,3.29738 -13.63485,5.85355 -13.80802,5.68039 -0.54864,-0.54865 14.69485,-10.76327 25.12481,-16.83607 9.31264,-5.42224 24.15102,-13.2193 25.1573,-13.2193 0.70368,0 0.51334,7.06947 -0.5604,20.81379 -0.97718,12.50822 -1.06603,12.90065 -3.35759,14.82887 -2.17855,1.83313 -2.35581,2.43737 -2.38019,8.11373 -0.0234,5.43514 -0.24786,6.29396 -1.9728,7.54651 -4.98213,3.61774 -55.09516,37.57587 -55.45185,37.57587 -0.22223,0 -0.40405,-2.07524 -0.40405,-4.61163 z m 23.98241,-23.54826 c 5.02563,-2.11419 11.41476,-4.70802 14.19808,-5.76405 12.80033,-4.85665 17.41287,-8.81096 8.88481,-7.61692 -5.09544,0.71343 -10.02725,2.28464 -22.84997,7.27975 -10.70129,4.16869 -13.92398,6.31064 -13.02387,8.65627 0.77307,2.01459 2.97324,1.5751 12.79095,-2.55505 z m 9.92367,-19.00455 c 19.2662,-8.26957 23.30536,-10.67067 20.69238,-12.3007 -1.53085,-0.95497 -3.46991,-0.34813 -20.03392,6.26982 -21.32555,8.52035 -26.26029,11.24991 -24.39717,13.49484 0.516,0.62175 1.56313,1.13045 2.32695,1.13045 0.76381,0 10.3991,-3.86749 21.41176,-8.59441 z"
       id="path5098"
       inkscape:connector-curvature="0" />
    <path
       style="opacity:1;fill:#ffffff;fill-opacity:1;fill-rule:nonzero;stroke:none;stroke-width:5.9000001;stroke-miterlimit:4;stroke-dasharray:none;stroke-opacity:1"
       d="m 456.13515,612.00842 c -69.39774,-3.95879 -91.43218,-4.95499 -138.95818,-6.28244 -17.52421,-0.48947 -33.08543,-1.0796 -34.5805,-1.31141 -3.17392,-0.49209 -3.10507,-0.27366 -4.35356,-13.8128 -1.40072,-15.1901 -1.509,-14.58067 2.88904,-16.26029 4.57462,-1.74707 5.44054,-3.18728 5.44054,-9.0488 0,-2.47858 0.47164,-5.13905 1.0481,-5.91217 0.65178,-0.87415 4.00897,-2.00917 8.8785,-3.00171 4.30671,-0.87782 8.21678,-1.98242 8.68904,-2.45468 1.93371,-1.93371 -0.46602,-2.68173 -8.60338,-2.68173 -8.32001,0 -8.3353,-0.004 -8.3353,-2.08494 0,-1.60364 0.7011,-2.37789 3.03707,-3.35392 1.67039,-0.69793 3.53723,-1.26897 4.14853,-1.26897 0.61131,0 6.50795,3.04164 13.10365,6.7592 11.30153,6.36991 12.23364,6.74001 16.18458,6.42615 2.41054,-0.19149 10.03018,-2.5514 17.9277,-5.55244 18.39349,-6.98951 30.62063,-10.40826 47.22645,-13.20467 l 13.85319,-2.33287 46.44043,3.60914 c 29.07256,2.25938 51.14405,4.38647 59.01761,5.68769 8.62284,1.42504 14.07091,1.91778 17.32814,1.56721 2.93876,-0.31629 4.95655,-0.17866 5.28997,0.36083 1.04848,1.69648 3.25822,0.80337 13.74075,-5.55364 5.82778,-3.53418 19.8761,-11.24008 31.2185,-17.12421 l 20.62255,-10.69843 5.54746,2.17985 5.54746,2.17986 -10.26328,5.58679 c -14.60153,7.9483 -25.52275,14.90088 -41.0808,26.15251 -7.46522,5.39886 -15.45969,11.14611 -17.76551,12.77166 l -4.1924,2.95555 -5.03087,-1.5688 c -6.99846,-2.18236 -29.73173,-7.407 -42.68228,-9.8094 -11.02461,-2.04513 -19.33234,-2.57851 -20.1273,-1.29223 -1.4257,2.30683 2.39091,3.59278 23.92641,8.0617 19.82645,4.11427 29.25341,6.34517 41.67358,9.86212 3.29104,0.93191 3.93098,0.8537 6.87394,-0.84005 1.78479,-1.0272 3.41531,-1.86763 3.62338,-1.86763 0.20808,0 0.63243,4.62212 0.94302,10.27137 0.73488,13.36674 -0.56599,34.90695 -2.16946,35.92246 -2.08752,1.32206 -21.98393,0.62032 -86.07677,-3.03586 z m 71.87075,-5.78718 c 1.35349,-1.63085 -0.56892,-2.59118 -7.97695,-3.98485 -7.73056,-1.45436 -61.84919,-1.57476 -63.28521,-0.1408 -0.5308,0.53003 -0.73249,1.69655 -0.44819,2.59227 0.49768,1.56805 1.57979,1.63207 29.11185,1.72265 15.72723,0.0517 28.80104,0.30015 29.05292,0.55202 0.25187,0.25187 3.17872,0.45796 6.50412,0.45796 4.22045,0 6.34671,-0.36213 7.04146,-1.19925 z m -168.90498,-3.87613 c 11.99025,-0.44942 33.94326,-0.56687 48.78448,-0.26101 20.8982,0.43069 27.56178,0.3168 29.54573,-0.50498 1.40893,-0.5836 2.382,-1.35184 2.16238,-1.7072 -2.57873,-4.17248 -88.27999,-4.73963 -110.89786,-0.7339 -5.74136,1.01683 -6.78579,1.79632 -5.11092,3.81442 0.90905,1.09533 2.20641,1.22996 7.40888,0.76882 3.46877,-0.30746 16.11706,-0.92673 28.10731,-1.37615 z m 174.03742,-9.66191 c 1.5945,-1.92125 0.3146,-2.46665 -10.48581,-4.46832 -12.20166,-2.26136 -26.10833,-3.19347 -64.59572,-4.32957 -32.00505,-0.94475 -91.02421,-0.20992 -141.29908,1.75926 -28.8027,1.12816 -31.87191,1.58659 -30.71996,4.58851 0.49073,1.27882 1.66675,1.37697 11.23203,0.93747 5.87614,-0.27 48.37753,-0.73215 94.44752,-1.027 84.6757,-0.54193 99.11753,-0.24519 124.59841,2.5602 13.67246,1.50531 15.55818,1.50301 16.82261,-0.0205 z m -194.99939,-9.99104 c 62.45157,-1.9695 64.46003,-2.122 61.88327,-4.69876 -1.89458,-1.89458 -111.68252,0.88474 -114.95778,2.9102 -0.83872,0.51867 -0.86329,0.94508 -0.10696,1.8564 1.25286,1.5096 3.24211,1.50706 53.18147,-0.0679 z M 307.0678,569.67114 c 15.09813,-1.09689 17.23624,-1.45977 17.23624,-2.92538 0,-2.26285 -3.28835,-2.9261 -14.40864,-2.90618 -15.67879,0.0281 -20.29577,1.26687 -18.34021,4.92085 1.10054,2.05639 0.34965,2.01231 15.51261,0.91071 z m 146.06966,0.0178 c 0.80684,0 1.15282,-0.65018 0.97952,-1.84078 -0.52262,-3.59049 -7.91554,-4.24629 -49.06454,-4.35232 -29.69613,-0.0765 -37.27501,0.12454 -38.1508,1.01213 -0.90004,0.91217 -0.7436,1.39302 0.88658,2.72505 1.86357,1.52275 3.6554,1.62324 30.60448,1.7165 15.74376,0.0545 33.71878,0.36461 39.94448,0.68918 6.22571,0.32457 11.82197,0.46865 12.43615,0.32019 0.61417,-0.14847 1.67803,-0.26995 2.36413,-0.26995 z m -82.71707,-13.39698 c 3.91989,-0.44332 24.10627,-1.37768 44.85862,-2.07636 36.08845,-1.21499 46.02042,-1.75348 49.26064,-2.6708 1.82821,-0.51757 1.93067,-3.53115 0.14336,-4.217 -1.66705,-0.63971 -69.97214,1.20412 -84.62012,2.28424 -11.79262,0.86957 -19.39754,2.1327 -20.14765,3.34641 -0.65206,1.05506 1.11184,4.15485 2.35947,4.14643 0.56023,-0.004 4.22579,-0.3696 8.14568,-0.81292 z"
       id="path5100"
       inkscape:connector-curvature="0" />
    <path
       style="opacity:1;fill:#ffffff;fill-opacity:1;fill-rule:nonzero;stroke:none;stroke-width:5.9000001;stroke-miterlimit:4;stroke-dasharray:none;stroke-opacity:1"
       d="m 521.26876,542.28806 c -11.81296,-3.12079 -18.47443,-3.92374 -58.40008,-7.03927 -36.86008,-2.8763 -43.52991,-3.31321 -58.69652,-3.84486 -12.84144,-0.45014 -13.54485,-0.53805 -18.81667,-2.35148 -3.98792,-1.37178 -14.06033,-3.39406 -37.05588,-7.43985 -17.36864,-3.0558 -35.04777,-5.98965 -39.28697,-6.51966 -4.23919,-0.53002 -8.57473,-1.10214 -9.63453,-1.27138 l -1.9269,-0.30771 0.008,-4.27162 c 0.011,-5.78514 0.35392,-6.77937 2.57423,-7.46289 1.02541,-0.31567 6.5861,-0.86967 12.35708,-1.23111 11.46737,-0.71821 14.11241,-1.28926 14.11241,-3.0468 0,-0.62028 -0.0667,-1.17753 -0.14822,-1.23833 -0.0815,-0.0608 -6.55148,-0.2609 -14.37769,-0.44467 l -14.22946,-0.33412 0.17661,-3.55737 c 0.2999,-6.04109 0.56489,-6.74182 2.68262,-7.09376 1.03616,-0.1722 6.68637,-0.71668 12.55602,-1.20996 11.8417,-0.99516 13.85069,-1.37988 14.76367,-2.82725 1.41619,-2.24512 -0.16838,-2.50559 -15.24271,-2.50559 l -14.34125,0 -0.70869,-2.07513 c -0.38977,-1.14132 -0.72374,-2.92487 -0.74214,-3.96344 -0.0184,-1.03857 -0.28404,-2.54738 -0.59031,-3.35291 l -0.55683,-1.46459 6.634,-0.36108 c 8.16081,-0.44417 36.48551,-1.29291 71.85236,-2.15303 14.67413,-0.35687 29.49878,-0.85009 32.94365,-1.09606 l 6.26341,-0.4472 5.29569,-4.28394 c 3.98721,-3.22545 5.58925,-4.19122 6.48381,-3.90866 0.65347,0.20641 8.9254,1.27183 18.38206,2.36761 18.26388,2.11631 50.90744,6.79829 69.07217,9.90684 6.0327,1.03238 12.30255,1.89081 13.93301,1.90762 2.55952,0.0264 2.96447,-0.1282 2.96447,-1.13162 0,-3.76576 -12.74467,-7.10588 -45.15492,-11.83418 -17.06463,-2.48956 -37.85315,-4.89025 -46.74367,-5.39805 -3.58701,-0.20488 -6.8977,-0.49338 -7.3571,-0.6411 -1.20322,-0.38691 1.47416,-3.04465 8.10057,-8.04114 6.41575,-4.83764 7.05739,-5.7272 5.83545,-8.09016 -1.75428,-3.39242 2.01807,-2.81127 -40.96678,-6.31116 -10.10885,-0.82308 -23.04876,-1.9451 -28.75537,-2.49337 -14.48156,-1.39135 -44.31128,-1.41201 -54.51207,-0.0378 -4.05734,0.54662 -7.51126,0.85956 -7.67538,0.69544 -0.16412,-0.16412 0.0228,-3.559 0.41539,-7.54419 0.84503,-8.57797 0.89483,-17.618 0.12636,-22.93529 -0.30456,-2.10739 -0.48342,-3.90196 -0.39745,-3.98793 0.20978,-0.20977 9.64338,-1.54807 26.17305,-3.71305 23.20581,-3.03938 87.47954,-8.39478 114.13479,-9.50991 14.51509,-0.60724 28.0829,-0.23595 44.65003,1.22187 8.63257,0.75962 11.129,1.34016 12.55933,2.92066 1.5795,1.74532 2.88512,1.46002 4.49786,-0.98284 1.35365,-2.05041 3.60902,-3.59988 15.90953,-10.93006 5.04023,-3.00359 14.99557,-7.45329 34.94422,-15.61887 22.06572,-9.03215 24.43456,-10.13799 24.81246,-11.5831 0.38342,-1.46621 0.29332,-1.46581 3.13983,-0.0136 2.95784,1.50898 3.65179,1.48916 5.18802,-0.14822 2.46396,-2.6262 3.11249,-2.98593 3.11249,-1.72643 0,1.63255 1.02273,2.28364 6.59891,4.20096 7.64125,2.62738 12.14527,4.41981 21.83708,8.69037 8.42403,3.71192 10.04888,4.64946 9.32043,5.3779 -0.16915,0.16916 -5.73201,1.87 -12.36192,3.77967 -15.25021,4.39264 -26.30625,8.44526 -46.44224,17.02351 -20.16231,8.58947 -33.64629,15.30544 -54.1579,26.97446 -7.29912,4.15245 -7.32932,4.16308 -10.96855,3.85768 -2.0071,-0.16843 -8.21775,-1.64922 -13.80144,-3.29064 -15.75563,-4.63163 -32.75934,-7.9141 -58.87061,-11.36464 -29.78002,-3.93536 -92.86182,-5.44772 -112.10639,-2.6877 -9.47649,1.35909 -11.20835,2.33354 -8.99822,5.06293 l 1.11995,1.38308 6.45894,-0.7713 c 18.60289,-2.22151 83.24215,-0.9706 107.84383,2.087 24.48472,3.04307 42.76355,6.48492 65.76195,12.38281 7.0353,1.80418 13.69373,3.28033 14.79652,3.28033 3.21185,0 3.53426,0.90037 3.94962,11.02986 0.34847,8.49829 0.47192,9.24179 1.76261,10.61567 1.97645,2.10383 3.96863,1.87593 9.97629,-1.14129 8.72886,-4.38391 21.03554,-9.36415 57.28522,-23.18208 l 6.49446,-2.47561 1.90667,1.12496 c 1.04866,0.61872 5.00398,1.76724 8.78958,2.55226 3.78562,0.78501 7.14207,1.58746 7.4588,1.7832 0.77029,0.47606 0.65262,9.38805 -0.21062,15.95166 l -0.69574,5.29008 -9.48631,2.74589 c -10.08047,2.91788 -24.09436,7.76976 -32.16401,11.13582 -9.88991,4.12531 -14.32986,8.15328 -11.78851,10.69463 0.89105,0.89104 1.27052,0.80017 4.96825,-1.18976 8.8265,-4.74995 22.91724,-10.25233 37.60658,-14.68521 4.34474,-1.31114 8.51202,-2.38393 9.26063,-2.38397 1.30007,-7e-5 1.35324,0.17582 1.18579,3.92295 l -0.17531,3.92302 -8.89342,3.18461 c -4.89137,1.75153 -10.89443,4.18831 -13.34012,5.41506 -3.99393,2.00333 -4.4467,2.40498 -4.4467,3.94451 0,3.38027 1.19613,3.25223 11.63929,-1.24594 9.36416,-4.03342 13.17593,-5.50772 14.24008,-5.50772 0.56435,0 0.68244,10.24439 0.14135,12.26193 -0.29127,1.08604 -2.11973,1.87107 -11.40512,4.89672 -11.01086,3.58789 -18.02358,6.80229 -18.33833,8.4057 -0.0909,0.4633 0.21024,1.35603 0.6693,1.98383 1.04853,1.43396 1.91007,1.20092 16.64302,-4.5017 8.18298,-3.16735 10.74168,-3.93783 11.13219,-3.35213 0.51875,0.77803 0.041,16.05032 -0.63579,20.326 l -0.37542,2.37158 -26.10115,13.04367 c -24.36618,12.17665 -30.77426,15.61611 -43.50838,23.35261 -2.7441,1.66715 -5.3869,3.03118 -5.8729,3.03118 -0.75951,0 -0.83221,-1.22834 -0.5176,-8.74519 0.20131,-4.80985 0.83776,-11.94682 1.41434,-15.85992 1.45352,-9.86478 1.42947,-41.25029 -0.0409,-53.36047 -0.5543,-4.56529 -1.06426,-8.7909 -1.13325,-9.39024 -0.0953,-0.82846 0.72746,-1.41175 3.43194,-2.43287 1.95655,-0.73874 6.59258,-2.73242 10.30228,-4.43042 9.57087,-4.38076 13.99042,-6.09662 29.42163,-11.42277 13.37634,-4.6169 16.89748,-6.40924 16.89748,-8.60117 0,-3.64887 -31.80343,6.78427 -53.09474,17.41777 l -7.92744,3.95919 -1.25178,-1.59138 c -1.37485,-1.74784 -3.21792,-2.09305 -3.75146,-0.70265 -0.18758,0.48881 0.19447,5.49135 0.84899,11.11677 2.5961,22.31286 2.72324,37.59984 0.50532,60.7559 -0.63162,6.59437 -1.32094,15.19875 -1.53183,19.12084 -0.44209,8.22204 0.27053,7.6965 -7.61238,5.61396 l 2e-5,0 z m 53.16868,-29.03955 c 7.27951,-4.44887 14.22032,-8.86509 15.42405,-9.81384 1.20372,-0.94873 2.38088,-1.72497 2.61591,-1.72497 0.74926,0 9.59149,-5.35446 10.34848,-6.26658 0.40023,-0.48224 0.57415,-1.03036 0.38648,-1.21802 -0.45721,-0.45721 -4.57092,0.92493 -4.57092,1.53576 0,0.26457 -0.3335,0.44546 -0.74111,0.40198 -0.91579,-0.0977 -7.1522,2.01583 -7.5594,2.56186 -0.16305,0.21863 -2.03067,1.2023 -4.15026,2.18592 -3.85947,1.79103 -29.57031,16.41102 -35.42543,20.14401 -3.42921,2.18633 -3.95816,3.7114 -1.80927,5.21655 1.22389,0.85724 1.63727,0.73457 6.77472,-2.01043 3.00921,-1.60787 11.42725,-6.56338 18.70675,-11.01224 z m -65.81404,11.12645 c 1.3852,-1.3852 -0.8734,-2.52276 -7.26476,-3.65897 -3.39747,-0.60398 -9.11205,-1.40818 -12.69906,-1.78711 -3.58701,-0.37892 -8.78966,-1.06495 -11.56144,-1.52449 -19.04924,-3.15827 -52.94183,-6.12418 -101.3849,-8.87212 -8.64143,-0.49019 -20.59745,-1.44051 -26.56891,-2.11182 -12.91058,-1.45141 -15.15418,-1.38994 -15.41241,0.42225 -0.3124,2.19239 1.90809,3.57395 6.89811,4.29191 7.2267,1.03976 23.36989,2.29516 50.20201,3.90401 38.07352,2.28289 52.95656,3.6767 88.63768,8.30101 16.56616,2.147 27.64845,2.54056 29.15368,1.03533 z m 42.65322,-10.17435 c 7.59426,-5.60808 16.42146,-10.49682 26.31708,-14.5751 4.56529,-1.88149 9.02437,-4.02435 9.90907,-4.7619 0.88471,-0.73756 1.95192,-1.46341 2.37158,-1.613 0.41966,-0.1496 0.55943,-0.48987 0.31059,-0.75618 -1.09487,-1.17173 -15.85435,3.35724 -25.08644,7.69781 -14.61024,6.86918 -24.43206,14.52656 -22.15376,17.27174 1.2356,1.4888 2.64326,0.93746 8.33188,-3.26337 z m -40.65341,-9.27483 c 5.91028,-6.97971 6.74029,-8.23274 6.77072,-10.22157 0.058,-3.78922 -1.65794,-4.66613 -14.65046,-7.48698 -27.58309,-5.98868 -52.48813,-9.89606 -79.30225,-12.44181 -21.18875,-2.01169 -30.71734,-2.39864 -58.10796,-2.35975 -29.70915,0.0422 -31.21944,0.18167 -31.57068,2.91579 -0.38526,2.99895 -0.767,2.95292 25.22189,3.04123 l 24.22382,0.0823 7.39449,2.40568 c 4.06698,1.32314 12.58578,3.77737 18.93068,5.45386 17.18243,4.54006 20.59,5.48656 32.58392,9.05073 6.0327,1.7927 16.9716,4.9021 24.30867,6.90978 7.33706,2.00769 16.10736,4.58915 19.48956,5.73659 6.15505,2.08815 10.79909,2.9682 16.40708,3.10916 l 2.99102,0.0752 5.3095,-6.27022 z M 447.14,504.46346 c 1.58446,-1.15859 0.76108,-2.59208 -1.87939,-3.27197 -5.12164,-1.31876 -36.11204,-4.0791 -60.95041,-5.4289 -6.84792,-0.37213 -19.17849,-0.58699 -27.40125,-0.47745 -16.36822,0.21805 -17.25955,0.41123 -16.46704,3.56887 l 0.37137,1.47963 20.26623,0.39381 c 20.80487,0.40428 38.93408,1.40143 60.28658,3.31591 15.30196,1.37198 24.27217,1.51819 25.77391,0.4201 z m 109.71593,-15.8537 c 2.60129,-1.00923 8.46486,-3.16893 13.03015,-4.79934 8.67131,-3.0968 10.96854,-4.2117 10.96854,-5.32326 0,-0.84698 -6.18415,-0.36133 -12.73856,1.00037 -8.36061,1.73694 -18.68483,6.59583 -18.68483,8.79364 0,0.90798 1.19489,2.16354 2.05901,2.16354 0.34983,0 2.7644,-0.82573 5.36569,-1.83495 z m -9.28664,-6.10769 c 1.05918,-0.78145 6.24696,-2.79548 11.5284,-4.47564 13.70094,-4.35861 14.90453,-4.86966 15.12811,-6.42343 0.21452,-1.49088 -0.5641,-1.64121 -3.97449,-0.76735 -1.17915,0.30213 -4.41174,0.99408 -7.18352,1.53765 -8.04782,1.57825 -15.78428,4.27452 -18.1007,6.30836 -2.25473,1.97969 -2.62824,3.66419 -1.02013,4.60083 1.42297,0.8288 1.44863,0.82328 3.62233,-0.78042 z m 1.41205,-24.7155 c 2.36704,-1.0052 5.10411,-2.18829 6.08238,-2.62908 0.97828,-0.44079 5.64732,-2.04724 10.37565,-3.56989 18.0817,-5.8228 20.15441,-6.75341 19.014,-8.53694 -1.0198,-1.59489 -9.87689,0.51451 -26.42518,6.2934 -15.7387,5.49618 -18.73794,7.16319 -16.89121,9.38836 1.09452,1.31881 3.07345,1.0802 7.84436,-0.94585 z m -48.94383,-8.81468 c 9.24797,-0.53832 11.61086,-1.05613 10.15194,-2.22473 -1.49263,-1.1956 -8.6524,-1.95294 -24.22768,-2.56272 -17.22622,-0.67443 -22.83806,-0.40765 -23.62295,1.12298 -0.52538,1.02457 -0.28244,2.2664 0.68207,3.48647 0.70683,0.89412 22.88231,1.00075 37.01662,0.178 z m 13.07015,-14.4641 c -0.3323,-1.04297 -5.93761,-2.72414 -12.25562,-3.67576 -7.30755,-1.10066 -21.16424,-1.68702 -23.45745,-0.99263 -1.52895,0.46298 -1.76576,0.80727 -1.68663,2.45213 0.0506,1.05245 0.20303,2.0245 0.33865,2.16012 0.35818,0.35817 30.22987,1.18767 34.04876,0.94548 2.09871,-0.1331 3.15397,-0.44465 3.01229,-0.88934 z m -63.60128,-12.19133 c 1.10067,-0.43036 1.08065,-0.50932 -0.37021,-1.45997 -1.85623,-1.21624 -16.09673,-4.06039 -27.47363,-5.4871 -11.01751,-1.38163 -38.69384,-1.56465 -40.26164,-0.26624 -1.10619,0.91612 -0.84427,3.51275 0.43651,4.32746 0.38176,0.24285 4.19964,0.44562 8.48419,0.45061 9.21621,0.0107 25.42667,0.92458 36.13442,2.03702 8.49381,0.88244 21.24841,1.10278 23.05036,0.39822 z m 19.83318,-8.73029 c 7.00973,-1.40195 -7.46608,-4.80305 -26.33283,-6.18693 -13.91903,-1.02096 -95.63053,-1.46014 -106.12806,-0.57042 -12.52725,1.06176 -14.30915,1.80537 -11.97512,4.99734 0.66596,0.91076 1.3791,1.00649 5.18782,0.69641 2.42865,-0.19772 19.75686,-0.51596 38.50714,-0.7072 32.09401,-0.32733 67.80881,0.33696 82.11584,1.52735 7.08044,0.58911 16.29469,0.70955 18.62521,0.24345 z"
       id="path5104"
       inkscape:connector-curvature="0" />
    <path
       style="opacity:1;fill:#ffffff;fill-opacity:1;fill-rule:nonzero;stroke:none;stroke-width:5.9000001;stroke-miterlimit:4;stroke-dasharray:none;stroke-opacity:1"
       d="m 526.90125,430.35818 c 0,-2.06887 -0.16307,-6.53781 -0.36237,-9.93098 l -0.36237,-6.16939 7.03243,-3.94376 c 16.35477,-9.1717 50.34978,-25.02332 69.26355,-32.2971 l 8.27776,-3.18342 2.09789,1.68086 c 1.15384,0.92447 2.73605,2.0206 3.51601,2.43585 1.37646,0.73282 1.40719,0.90546 1.04609,5.87695 -0.41484,5.71136 -1.94417,14.32538 -2.67265,15.05386 -0.2604,0.2604 -6.05628,2.42833 -12.87973,4.8176 -20.19889,7.07279 -53.39793,20.11774 -66.76581,26.2344 -3.83048,1.75269 -7.24043,3.18671 -7.57766,3.18671 -0.35783,0 -0.61314,-1.5663 -0.61314,-3.76158 z m 17.61636,-6.40389 c 1.88726,-0.69963 6.49961,-2.72735 10.24967,-4.50604 16.71202,-7.92668 25.90851,-11.86156 35.57365,-15.22081 9.71044,-3.375 10.37564,-3.70123 10.37564,-5.08843 0,-2.04108 -2.01264,-2.1876 -7.83356,-0.57028 -6.38892,1.77513 -14.70378,5.26657 -31.001,13.01742 -7.66316,3.64454 -15.5531,7.39512 -17.5332,8.33462 -3.88122,1.84152 -6.77546,3.873 -6.77546,4.75572 0,0.95116 3.37803,0.59985 6.94426,-0.7222 z m 1.60626,-6.79788 c 4.85162,-2.48191 11.00002,-5.39097 13.66312,-6.46459 2.66309,-1.07361 10.96068,-4.87177 18.43908,-8.44036 7.4784,-3.56858 14.80102,-6.92723 16.27248,-7.46366 2.72904,-0.99489 7.10736,-4.18484 7.10736,-5.17827 0,-0.96103 -2.81731,-0.59537 -6.65652,0.86395 -5.51035,2.09453 -35.20283,15.35898 -43.43797,19.40494 -7.57934,3.72376 -15.27477,9.02642 -15.60516,10.753 -0.10952,0.57232 0.15906,1.03756 0.59897,1.03756 0.43863,0 4.76702,-2.03065 9.61864,-4.51257 z"
       id="path5106"
       inkscape:connector-curvature="0" />
    <path
       style="opacity:1;fill:#ffffff;fill-opacity:1;fill-rule:nonzero;stroke:none;stroke-width:5.9000001;stroke-miterlimit:4;stroke-dasharray:none;stroke-opacity:1"
       d="m 301.99659,386.87891 c -0.28764,-0.7608 -0.0749,-5.80316 0.84249,-19.96722 0.40193,-6.20569 0.87738,-9.62056 1.46416,-10.51624 1.18804,-1.81345 3.58413,-2.94623 15.97041,-7.55018 14.12221,-5.24919 15.49329,-5.88303 17.59675,-8.13479 l 1.79156,-1.91787 16.39319,-1.09182 c 14.00124,-0.9325 21.06472,-1.04206 48.40947,-0.75083 17.60896,0.18753 37.21893,0.62004 43.57772,0.96112 12.81004,0.68711 20.41201,0.22357 34.38786,-2.09685 7.2699,-1.20702 8.98297,-1.75401 18.67617,-5.96341 5.86965,-2.54897 24.50656,-10.15944 41.41536,-16.91216 29.33768,-11.71633 30.85487,-12.25258 33.18443,-11.72917 1.34263,0.30167 7.24111,1.34616 13.10772,2.32109 5.86662,0.97492 10.78071,1.88672 10.9202,2.02621 0.37435,0.37435 -2.08153,1.22304 -10.16207,3.51174 -8.2164,2.32718 -28.44917,9.0901 -37.8266,12.64376 -8.69454,3.29486 -33.34998,13.55761 -36.93271,15.37312 -2.85119,1.4448 -3.12327,1.47306 -8.0722,0.83839 -11.89623,-1.52563 -19.58584,-0.16494 -14.35484,2.54011 1.98985,1.029 9.50716,2.13912 14.48523,2.13912 l 3.60359,0 -0.3709,5.78072 c -0.204,3.1794 -0.55218,10.51646 -0.77375,16.30459 -0.26786,6.99769 -0.62043,10.51999 -1.05224,10.5123 -0.35716,-0.006 -4.11782,-0.41024 -8.35701,-0.89752 -9.29435,-1.06836 -58.42867,-1.26621 -72.03664,-0.29007 -8.48355,0.60855 -44.66341,3.92413 -61.95744,5.67787 -13.62558,1.38174 -41.40707,4.81079 -61.77413,7.62475 -1.12751,0.15578 -1.99847,-0.0207 -2.15578,-0.43676 z m 30.3553,-13.18596 c 3.46581,-0.5095 9.50311,-1.55749 13.41621,-2.32886 9.76381,-1.9247 16.53463,-2.87084 38.24167,-5.34381 16.44873,-1.87392 24.97735,-2.44852 51.58179,-3.47521 1.64999,-0.0637 2.11283,-0.34485 2.25913,-1.3724 0.15966,-1.12143 -0.19314,-1.35663 -2.66802,-1.77868 -1.56862,-0.2675 -10.05569,-0.47495 -18.86017,-0.461 -15.00049,0.0238 -17.34072,0.18323 -37.1783,2.53326 -11.64359,1.37934 -24.04989,3.04985 -27.56958,3.71224 -3.51968,0.66239 -11.44046,2.10507 -17.60172,3.20595 -11.83897,2.11536 -13.43909,2.76563 -12.25404,4.97992 0.82208,1.53606 2.14197,1.57685 10.63303,0.32859 z m 144.05707,-1.9467 c 3.04711,-0.21455 5.66418,-0.18949 5.81571,0.0557 0.40775,0.65975 5.80752,0.54075 7.67466,-0.16914 0.99331,-0.37765 1.40531,-0.82699 1.06778,-1.16453 -1.189,-1.189 -9.87434,-2.49316 -18.61611,-2.79533 -8.39818,-0.29029 -9.3079,-0.2214 -10.56015,0.79975 -1.50119,1.22414 -1.30776,2.92822 0.38321,3.37606 1.46147,0.38706 7.94501,0.34037 14.2349,-0.10251 l 0,2e-5 z M 334.50311,360.3868 c 6.52183,-1.33252 16.52692,-3.46834 22.23353,-4.74628 12.87745,-2.88377 15.15562,-3.24381 30.20912,-4.77418 12.79438,-1.3007 16.27516,-2.16518 15.91906,-3.95364 -0.18933,-0.9509 -1.02123,-1.04051 -8.91599,-0.96044 -14.10959,0.14309 -24.04921,1.68757 -56.48125,8.77637 -13.60173,2.97299 -17.93136,4.19248 -19.22943,5.41618 -1.2897,1.21581 0.86246,3.42202 2.91121,2.98433 0.82273,-0.17577 6.83191,-1.40982 13.35375,-2.74234 z m 164.12439,-5.56362 c 0.22578,-0.58839 -0.64481,-1.08697 -3.04927,-1.74628 -8.266,-2.26655 -20.90353,-3.3631 -38.61277,-3.3504 -12.91011,0.009 -14.98587,0.37849 -15.32535,2.72601 -0.31345,2.16761 1.01037,2.62416 5.5476,1.91321 2.99543,-0.46936 8.46559,-0.45686 20.0986,0.0459 8.79068,0.37994 16.10551,0.81326 16.25518,0.96293 0.14967,0.14968 3.53415,0.27213 7.52106,0.27213 5.63905,0 7.31911,-0.18289 7.56495,-0.82352 z"
       id="path5108"
       inkscape:connector-curvature="0" />
    <path
       style="opacity:1;fill:#ffffff;fill-opacity:1;fill-rule:nonzero;stroke:none;stroke-width:5.9000001;stroke-miterlimit:4;stroke-dasharray:none;stroke-opacity:1"
       d="m 473.86113,329.52689 2.34368,-2.40405 1.69026,1.88743 c 2.0862,2.32957 1.47161,2.89863 -3.1446,2.91159 l -3.23302,0.009 2.34368,-2.40405 z"
       id="path5110"
       inkscape:connector-curvature="0" />
    <path
       style="opacity:1;fill:#ffffff;fill-opacity:1;fill-rule:nonzero;stroke:none;stroke-width:5.9000001;stroke-miterlimit:4;stroke-dasharray:none;stroke-opacity:1"
       d="m 515.29567,359.94519 c 0.52972,-18.40128 0.35558,-17.57791 4.09093,-19.34235 8.90516,-4.20646 43.92294,-17.68405 58.20312,-22.40112 10.73836,-3.54713 31.21864,-9.20768 35.24797,-9.74219 l 2.91331,-0.38646 0.38663,2.06091 c 0.49149,2.61987 -0.69197,12.65826 -1.99811,16.9485 -0.9837,3.23117 -1.08024,3.32837 -6.3236,6.36684 -2.92856,1.69707 -5.38,3.03932 -5.44765,2.98278 -0.0676,-0.0566 0.34966,-2.43743 0.92735,-5.29084 1.00673,-4.97257 1.00644,-5.26021 -0.007,-6.92641 -0.58144,-0.95612 -1.75365,-1.9132 -2.6049,-2.12685 -3.4566,-0.86755 -13.60635,1.33517 -22.09059,4.79416 -5.54741,2.26166 -6.88356,3.29295 -7.45591,5.75474 -0.34564,1.4867 -0.17901,1.65247 2.44783,2.4351 2.33321,0.69516 2.61447,0.91908 1.63293,1.3 -0.6522,0.2531 -5.05444,1.92934 -9.78277,3.72499 -17.61842,6.69081 -36.52053,15.83548 -41.33561,19.99779 -1.57618,1.3625 -2.04361,2.14915 -1.74281,2.93302 0.69569,1.81293 3.54342,0.83589 18.55308,-6.36541 7.78233,-3.73378 19.31462,-8.86974 25.62732,-11.41323 6.3127,-2.5435 12.39286,-5.24562 13.51146,-6.00473 l 2.03382,-1.38018 3.38602,1.74798 c 3.12705,1.61428 3.24836,1.75016 1.58597,1.7765 -3.14392,0.0498 -36.49689,13.4069 -50.37462,20.17387 -4.56529,2.22609 -11.21676,5.80773 -14.78105,7.95919 -3.56429,2.15145 -6.59552,3.91174 -6.73606,3.91174 -0.14054,0 -0.0808,-6.06975 0.13276,-13.48834 z m 11.0087,-7.3195 c 9.34128,-4.44616 23.52225,-10.25637 38.12687,-15.62128 2.52256,-0.92665 2.82881,-1.22687 2.66802,-2.61547 -0.15399,-1.3299 -0.5048,-1.59576 -2.30482,-1.7467 -6.57672,-0.5515 -43.73013,15.25166 -45.26589,19.2538 -0.43922,1.14459 0.64481,2.56504 1.95704,2.56441 0.53073,-2.6e-4 2.69918,-0.8259 4.81878,-1.83476 z"
       id="path5112"
       inkscape:connector-curvature="0" />
    <path
       style="opacity:1;fill:#ffffff;fill-opacity:1;fill-rule:nonzero;stroke:none;stroke-width:5.9000001;stroke-miterlimit:4;stroke-dasharray:none;stroke-opacity:1"
       d="m 588.95389,335.32474 c -4.16816,-2.099 -6.79852,-3.74991 -6.48083,-4.0676 0.70715,-0.70715 12.51256,-4.06936 14.28836,-4.06936 1.26681,0 1.35859,0.19322 1.05615,2.22336 -0.18218,1.22284 -0.50362,3.76099 -0.71431,5.64033 -0.21069,1.87934 -0.55199,3.50454 -0.75845,3.61156 -0.20646,0.10703 -3.53237,-1.3952 -7.39092,-3.33829 z"
       id="path5114"
       inkscape:connector-curvature="0" />
  </g>
</svg>
