<?xml version="1.0" encoding="UTF-8" standalone="no"?>
<!-- Created with Inkscape (http://www.inkscape.org/) -->

<svg
   xmlns:dc="http://purl.org/dc/elements/1.1/"
   xmlns:cc="http://creativecommons.org/ns#"
   xmlns:rdf="http://www.w3.org/1999/02/22-rdf-syntax-ns#"
   xmlns:svg="http://www.w3.org/2000/svg"
   xmlns="http://www.w3.org/2000/svg"
   xmlns:sodipodi="http://sodipodi.sourceforge.net/DTD/sodipodi-0.dtd"
   xmlns:inkscape="http://www.inkscape.org/namespaces/inkscape"
   width="210mm"
   height="297mm"
   viewBox="0 0 744.09448819 1052.3622047"
   id="svg4359"
   version="1.1"
   inkscape:version="0.91 r13725"
   sodipodi:docname="Sol.svg">
  <defs
     id="defs4361" />
  <sodipodi:namedview
     id="base"
     pagecolor="#ffffff"
     bordercolor="#666666"
     borderopacity="1.0"
     inkscape:pageopacity="0.0"
     inkscape:pageshadow="2"
     inkscape:zoom="2.8284271"
     inkscape:cx="514.28946"
     inkscape:cy="761.22223"
     inkscape:document-units="px"
     inkscape:current-layer="layer1"
     showgrid="false"
     inkscape:window-width="1440"
     inkscape:window-height="851"
     inkscape:window-x="0"
     inkscape:window-y="1"
     inkscape:window-maximized="1" />
  <metadata
     id="metadata4364">
    <rdf:RDF>
      <cc:Work
         rdf:about="">
        <dc:format>image/svg+xml</dc:format>
        <dc:type
           rdf:resource="http://purl.org/dc/dcmitype/StillImage" />
        <dc:title></dc:title>
      </cc:Work>
    </rdf:RDF>
  </metadata>
  <g
     inkscape:label="Ebene 1"
     inkscape:groupmode="layer"
     id="layer1">
    <g
       id="g5586">
      <path
         sodipodi:nodetypes="ccccsscsccsssccccccccccccssccccccsssscccsccsscsssccccssccccsssssssscscccccs"
         inkscape:connector-curvature="0"
         id="path4974"
         d="m 254.73802,196.22753 c 0.13089,0.84696 0.20314,1.94133 0.27148,3.64063 l 6.21025,0.10134 20.90235,7.3789 c 11.49635,4.05886 45.34627,15.84913 75.22265,26.19922 29.87638,10.35008 55.01409,19.43334 55.86133,20.18555 0.84725,0.75221 1.21188,1.20245 0.81055,1 -0.40132,-0.20246 -36.48436,-0.70247 -80.18359,-1.2168 l -79.13584,-0.93141 -0.0449,4.36328 76.77256,25.4197 c 42.3738,14.03013 79.55242,26.43515 82.67383,27.40039 4.25432,1.31556 -14.21896,1.784 -73.7793,1.87109 -43.69979,0.0639 -85.57647,-0.66903 -85.57647,-0.66903 l 0.0221,22.0997 c 171.50843,6.1119 251.84918,1.48749 338.99285,-0.0883 0,0 -0.0702,-1.67851 -0.0554,-3.02018 -47.85334,-0.1282 -80.32746,0.39667 -125.28267,1.40826 l -37.29492,-0.86914 -0.50195,-7.88672 -0.50196,-7.88867 82.38868,1.18554 c 27.05945,2.13184 61.26742,-1.58408 81.34926,0.16127 l 0.14332,-5.35537 -1.11033,0.0405 -45.82942,-16.09617 c -26.23797,-9.21528 -60.46079,-20.6843 -75.89453,-25.94336 l -28.0625,-9.5625 76.33984,-0.42187 58.86019,-1.03149 15.77671,-0.7036 -0.0572,-4.3702 -2.13642,-0.56803 -20.50194,-6.14899 c -13.13543,-3.93961 -31.90409,-11.23119 -42.16016,-14.81445 -53.29254,-18.61937 -80.38538,-28.3788 -81.44726,-29.33984 -0.48746,-0.44117 18.68134,-0.66459 46.2539,-0.60352 9.19086,0.0204 19.31553,0.0716 29.95703,0.15821 l 70.02958,-1.41484 -9.8e-4,-3.65266 c -16.64616,-0.64266 -50.6388,1.88807 -112.71605,1.25306 C 435.01424,197.0234 343.9439,196.4905 254.7381,196.22755 Z m 175.5247,3.74197 22.32032,7.98828 c 24.41032,8.73554 57.1015,20.30498 100.90624,35.71289 15.57421,5.47799 28.70679,10.35133 29.18555,10.83008 0.98578,0.98579 -102.33206,0.21511 -136.95703,-1.02149 -20.93508,-0.74768 -24.02762,-1.2778 -39.74805,-6.8125 -9.37562,-3.30088 -32.72566,-11.45465 -51.88867,-18.11914 -19.163,-6.66449 -45.05732,-15.7841 -57.54297,-20.26562 l -22.70117,-8.14649 78.21289,-0.084 z m -145.31054,56.91015 c 14.24267,-0.034 38.32893,0.16034 65.50195,0.56055 l 79.04883,1.16406 25.13281,8.58985 c 13.82341,4.72396 48.84748,16.66659 77.83203,26.53906 l 52.69922,17.94922 -77.83203,-0.01 c -44.29546,-0.006 -78.8814,-0.65027 -80.26563,-1.49609 -1.33775,-0.81742 -36.91044,-12.86711 -79.04882,-26.77734 -42.13908,-13.91023 -76.61524,-25.70326 -76.61524,-26.20704 0,-0.18891 5.00127,-0.29211 13.54688,-0.3125 z m 56.98828,58.2168 83.50781,0 0,8.22852 0,8.22851 -68.50781,-0.52539 c -37.67992,-0.2893 -74.80913,-0.73604 -82.50782,-0.99219 l -16.06054,-0.59179 0.0605,-12.11719 c 0,-1.86291 13.73361,-2.23047 83.50782,-2.23047 z"
         style="opacity:1;fill:#000000;fill-opacity:1;fill-rule:nonzero;stroke:none;stroke-width:5.9000001;stroke-miterlimit:4;stroke-dasharray:none;stroke-opacity:1" />
      <path
         inkscape:connector-curvature="0"
         id="path5571"
         d="m 461.62985,311.44779 -32.88046,-0.46407 -5.3033,-1.96107 c -2.91682,-1.0786 -33.62293,-11.4434 -68.23581,-23.0329 -34.61287,-11.5895 -67.70547,-22.77182 -73.5391,-24.84961 l -10.6066,-3.77778 27.93072,-0.2207 c 15.36189,-0.12138 51.00007,0.12265 79.19595,0.54231 l 51.26525,0.76301 77.07463,26.23919 c 42.39106,14.43155 77.37693,26.51769 77.74639,26.85808 0.74788,0.68902 -70.99101,0.6326 -122.64767,-0.0965 z"
         style="opacity:1;fill:#6c5353;fill-opacity:1;fill-rule:nonzero;stroke:none;stroke-width:5.9000001;stroke-miterlimit:4;stroke-dasharray:none;stroke-opacity:1" />
      <path
         inkscape:connector-curvature="0"
         id="path5573"
         d="m 462.69051,254.11581 c -27.01388,-0.61276 -37.28133,-1.4069 -44.6731,-3.45526 -6.40688,-1.77544 -55.52683,-18.88331 -135.28557,-47.11828 -4.08354,-1.44559 -7.72691,-2.89402 -8.09637,-3.21873 -0.36947,-0.32471 34.4516,-0.59038 77.38013,-0.59038 l 78.0519,0 33.63562,11.97127 c 18.4996,6.5842 47.31814,16.79591 64.04122,22.69268 39.5092,13.93146 53.58538,19.06718 54.41186,19.85227 0.80012,0.76004 -84.26299,0.66494 -119.46569,-0.13357 z"
         style="opacity:1;fill:#6c5353;fill-opacity:1;fill-rule:nonzero;stroke:none;stroke-width:5.9000001;stroke-miterlimit:4;stroke-dasharray:none;stroke-opacity:1" />
    </g>
    <path
       style="opacity:1;fill:#ffffff;fill-opacity:1;fill-rule:nonzero;stroke:none;stroke-width:5.9000001;stroke-miterlimit:4;stroke-dasharray:none;stroke-opacity:1"
       d="m 290.44333,330.40449 c -17.325,-0.36296 -31.6125,-0.72596 -31.75,-0.80666 -0.1375,-0.0807 -0.25,-3.01924 -0.25,-6.53009 0,-5.75171 0.22265,-6.45064 2.25,-7.06314 1.2375,-0.37388 38.8125,-0.94047 83.5,-1.25911 l 81.25,-0.57933 0,8.64247 0,8.64248 -51.75,-0.19335 c -28.4625,-0.10634 -65.925,-0.49031 -83.25,-0.85327 z"
       id="path5591"
       inkscape:connector-curvature="0" />
    <path
       style="opacity:1;fill:#ffffff;fill-opacity:1;fill-rule:nonzero;stroke:none;stroke-width:5.9000001;stroke-miterlimit:4;stroke-dasharray:none;stroke-opacity:1"
       d="m 444.31542,331.15789 c -11.95978,-0.22811 -13.26519,-0.37254 -13.32911,-1.47471 -0.039,-0.67201 -0.27763,-4.37076 -0.53033,-8.21943 l -0.45947,-6.9976 30.05203,0.58521 c 16.52863,0.32187 52.8032,0.64134 80.61018,0.70993 27.80697,0.0686 50.96741,0.16994 51.46762,0.2252 0.68773,0.076 0.86015,1.7815 0.70711,6.99477 l -0.20238,6.8943 -44.54773,0.42709 c -24.50125,0.23491 -54.88917,0.58033 -67.5287,0.76761 -12.63953,0.18728 -28.94718,0.22672 -36.23922,0.0876 z"
       id="path5595"
       inkscape:connector-curvature="0" />
    <path
       style="opacity:1;fill:#ffffff;fill-opacity:1;fill-rule:nonzero;stroke:none;stroke-width:5.9000001;stroke-miterlimit:4;stroke-dasharray:none;stroke-opacity:1"
       d="m 590.75274,310.09777 c -0.56401,-0.56134 -64.83594,-22.78405 -106.47328,-36.81429 -21.68709,-7.30773 -39.68228,-13.50125 -39.98935,-13.76337 -0.30705,-0.26211 25.74941,-0.70841 57.90326,-0.99177 32.15384,-0.28335 65.65503,-0.76309 74.4471,-1.06609 8.79205,-0.30299 16.22534,-0.42282 16.5184,-0.26628 0.29307,0.15653 0.53286,12.19825 0.53286,26.75938 0,25.2011 -0.0627,26.47477 -1.30253,26.47477 -0.7164,0 -1.45279,-0.14956 -1.63646,-0.33235 z"
       id="path5597"
       inkscape:connector-curvature="0" />
    <path
       style="opacity:1;fill:#ffffff;fill-opacity:1;fill-rule:nonzero;stroke:none;stroke-width:5.9000001;stroke-miterlimit:4;stroke-dasharray:none;stroke-opacity:1"
       d="m 586.9419,250.613 c -3.12654,-0.97242 -9.84149,-3.05598 -14.92214,-4.63013 -5.08063,-1.57415 -17.55128,-5.82984 -27.71254,-9.45708 -10.16127,-3.62725 -31.5852,-11.20282 -47.60874,-16.83461 -32.05112,-11.26501 -45.78851,-16.25093 -47.68483,-17.30698 -2.11891,-1.18001 11.57132,-1.49924 78.60186,-1.83288 34.98199,-0.17411 64.08018,-0.42161 64.66261,-0.54999 0.92095,-0.20299 1.08327,3.20016 1.24529,26.10631 0.10246,14.48685 -0.0574,26.3248 -0.3553,26.30656 -0.29787,-0.0182 -3.09966,-0.82878 -6.22621,-1.8012 z"
       id="path5599"
       inkscape:connector-curvature="0" />
    <path
       style="opacity:1;fill:#ffffff;fill-opacity:1;fill-rule:nonzero;stroke:none;stroke-width:5.9000001;stroke-miterlimit:4;stroke-dasharray:none;stroke-opacity:1"
       d="m 341.52081,253.82328 c -17.77454,-0.25959 -44.0373,-0.51626 -58.3617,-0.57039 -14.32441,-0.0541 -26.54996,-0.29156 -27.16788,-0.52763 -0.99641,-0.38065 -1.12349,-3.38255 -1.12349,-26.53869 0,-29.76707 -0.47698,-27.81845 6.34889,-25.93736 4.60546,1.26918 114.83148,39.58221 136.75025,47.53248 8.19238,2.9715 15.20808,5.71418 15.59045,6.09486 0.75822,0.75483 -17.63548,0.74123 -72.03652,-0.0533 z"
       id="path5601"
       inkscape:connector-curvature="0" />
    <path
       style="opacity:1;fill:#ffffff;fill-opacity:1;fill-rule:nonzero;stroke:none;stroke-width:5.9000001;stroke-miterlimit:4;stroke-dasharray:none;stroke-opacity:1"
       d="m 266.79372,311.35688 -12.27957,-0.25305 0,-26.85336 c 0,-14.76935 0.2271,-26.85336 0.50465,-26.85336 0.27756,0 36.39552,11.81264 80.26212,26.25032 68.50868,22.54803 79.50648,26.35245 77.97782,26.9745 -1.74543,0.71028 -119.08902,1.29909 -146.46502,0.73495 z"
       id="path5603"
       inkscape:connector-curvature="0" />
  </g>
</svg>
