<?xml version="1.0" encoding="UTF-8" standalone="no"?>
<!-- Created with Inkscape (http://www.inkscape.org/) -->

<svg
   xmlns:dc="http://purl.org/dc/elements/1.1/"
   xmlns:cc="http://creativecommons.org/ns#"
   xmlns:rdf="http://www.w3.org/1999/02/22-rdf-syntax-ns#"
   xmlns:svg="http://www.w3.org/2000/svg"
   xmlns="http://www.w3.org/2000/svg"
   xmlns:sodipodi="http://sodipodi.sourceforge.net/DTD/sodipodi-0.dtd"
   xmlns:inkscape="http://www.inkscape.org/namespaces/inkscape"
   width="210mm"
   height="297mm"
   viewBox="0 0 744.09448819 1052.3622047"
   id="svg2"
   version="1.1"
   inkscape:version="0.91 r13725"
   inkscape:export-filename="/Users/larsaeschlimann/Documents/02_BFH/09_Informatik/Softwareprojekt_SuperTeacher/SuperTeacher/assets/graphics/backgrounds/Window"
   inkscape:export-xdpi="90"
   inkscape:export-ydpi="90"
   sodipodi:docname="Window1.svg">
  <defs
     id="defs4" />
  <sodipodi:namedview
     id="base"
     pagecolor="#ffffff"
     bordercolor="#666666"
     borderopacity="1.0"
     inkscape:pageopacity="0.0"
     inkscape:pageshadow="2"
     inkscape:zoom="0.61670782"
     inkscape:cx="372.04724"
     inkscape:cy="526.1811"
     inkscape:document-units="px"
     inkscape:current-layer="layer1"
     showgrid="false"
     inkscape:window-width="1440"
     inkscape:window-height="851"
     inkscape:window-x="7"
     inkscape:window-y="0"
     inkscape:window-maximized="0" />
  <metadata
     id="metadata7">
    <rdf:RDF>
      <cc:Work
         rdf:about="">
        <dc:format>image/svg+xml</dc:format>
        <dc:type
           rdf:resource="http://purl.org/dc/dcmitype/StillImage" />
        <dc:title></dc:title>
      </cc:Work>
    </rdf:RDF>
  </metadata>
  <g
     inkscape:label="Ebene 1"
     inkscape:groupmode="layer"
     id="layer1">
    <g
       id="g4271"
       style="fill:#000000"
       transform="matrix(2.8927685,0,0,2.8927685,-661.60573,-709.29397)">
      <path
         inkscape:connector-curvature="0"
         id="path4205"
         d="m 266.63134,579.01721 c -1.53968,-0.6474 -2.28973,-1.51137 -2.6873,-3.09543 -0.5161,-2.05632 1.78222,-3.95567 9.65374,-7.9779 3.95869,-2.02283 7.32275,-3.75341 7.47568,-3.84572 0.15293,-0.0923 0.0832,-1.64199 -0.15501,-3.44372 -0.23818,-1.80174 -0.5007,-23.44319 -0.58336,-48.09213 -0.0959,-28.58031 -0.34162,-46.38748 -0.67838,-49.15332 -0.64963,-5.33534 -0.72748,-28.59509 -0.14355,-42.88867 0.2382,-5.83093 0.35595,-11.36068 0.26165,-12.28833 -0.0943,-0.92765 -0.13638,-4.93943 -0.0935,-8.91506 0.15577,-14.45345 0.025,-53.62038 -0.26506,-79.37468 -0.18603,-16.51874 -0.12337,-26.82272 0.16778,-27.5885 0.25559,-0.67227 0.79536,-1.2223 1.19949,-1.2223 0.40412,0 0.73477,-0.22643 0.73477,-0.50319 0,-0.34363 7.06702,-0.47602 22.28765,-0.4175 12.25821,0.0471 43.97294,-0.0309 70.47718,-0.17346 39.72679,-0.21364 49.12042,-0.14015 53.49037,0.41849 4.9068,0.62727 11.74474,0.5866 12.81723,-0.0762 0.25173,-0.15558 0.89414,0.70381 1.42759,1.90975 0.92211,2.0846 0.94488,2.61465 0.46201,10.75766 -0.27933,4.71076 -0.61439,9.75772 -0.74457,11.21545 -0.83304,9.32816 -0.99882,48.14243 -0.24401,57.12857 0.66528,7.92025 0.93869,15.92862 0.96988,28.40783 0.0146,5.83094 0.28022,12.16424 0.59035,14.07402 0.4323,2.66222 0.42888,5.86643 -0.0146,13.73402 -1.21321,21.51951 -1.63191,43.03966 -1.09035,56.04173 1.28182,30.77458 1.67131,44.06479 1.77944,60.7188 0.0637,9.80657 0.29686,18.68481 0.51818,19.72943 0.39202,1.85027 0.54783,1.97098 6.03508,4.67573 5.48171,2.70201 6.94669,3.92257 7.14656,5.95424 0.19121,1.94363 -0.0426,2.55694 -1.2856,3.37134 -1.13566,0.74411 -3.50969,0.86209 -22.5286,1.11955 -29.22586,0.39562 -40.03801,0.36737 -61.01553,-0.15948 -19.42274,-0.4878 -19.70313,-0.48795 -49.39426,-0.0261 -35.83914,0.55747 -55.22179,0.55237 -56.57084,-0.0149 l -2e-5,2e-5 z m 65.72685,-3.90851 c 12.3226,-0.44791 20.04813,-0.43247 41.92489,0.0838 9.27648,0.21891 21.52867,0.4133 27.22708,0.43197 15.86595,0.052 52.03427,-0.7656 51.78397,-1.17058 -0.12223,-0.19778 -2.33632,-1.37494 -4.92019,-2.6159 l -4.69795,-2.25629 -42.64773,-0.0466 c -23.45625,-0.0256 -47.41849,0.0878 -53.24942,0.25207 -5.83093,0.16429 -12.98708,0.11819 -15.90254,-0.10244 -6.68641,-0.50601 -27.79223,-1.1303 -40.72015,-1.20446 l -9.87885,-0.0567 -4.81895,2.38279 c -5.43269,2.68625 -7.5895,4.05908 -7.24722,4.61291 0.27893,0.45132 48.74431,0.21299 63.14706,-0.31053 z m 58.84563,-9.35656 c 19.06109,0.1023 33.88971,-0.003 34.02256,-0.24096 0.33105,-0.59371 -0.43015,-13.93579 -1.30055,-22.79548 -0.40171,-4.08893 -0.74427,-12.32934 -0.76125,-18.31201 -0.017,-5.98268 -0.22976,-13.47983 -0.47287,-16.66034 -1.20493,-15.76407 -1.57229,-37.04165 -1.08574,-62.88732 0.12723,-6.75858 0.29796,-29.20285 0.37939,-49.87616 0.0814,-20.6733 0.30333,-46.7781 0.49311,-58.01066 l 0.34506,-20.42284 -1.62115,0.29348 c -5.42104,0.9814 -82.47269,1.37201 -106.79478,0.54138 -6.25043,-0.21346 -10.72783,-0.18651 -10.73573,0.0646 -0.55244,17.54735 0.44309,83.98855 1.48081,98.82891 0.51009,7.29485 0.46071,8.16962 -0.98783,17.49768 -0.79401,5.11317 -0.61417,45.71103 0.26044,58.79121 1.10216,16.48337 1.62132,28.08672 1.6602,37.10594 0.0188,4.3732 0.25299,10.1198 0.52029,12.77022 0.55914,5.54403 0.7336,21.56412 0.24346,22.35717 -0.231,0.37377 0.93799,0.5332 3.9157,0.53401 6.83905,0.002 22.05399,0.55102 22.31414,0.80538 0.13146,0.12852 5.6612,0.0538 12.28833,-0.16595 6.62714,-0.21979 27.25352,-0.31802 45.83641,-0.21828 z m -87.35324,-8.13263 c -0.0417,-4.10816 -0.31026,-10.72217 -0.59684,-14.69781 -0.28657,-3.97563 -0.75203,-14.05929 -1.03436,-22.40812 -0.28232,-8.34884 -0.83798,-18.21564 -1.2348,-21.92624 -1.12089,-10.48129 -1.49653,-57.02199 -0.51731,-64.09206 0.40381,-2.91547 0.617,-5.89844 0.47378,-6.62883 -0.14322,-0.73039 0.003,-1.64575 0.32565,-2.03414 0.43774,-0.52744 0.50369,-2.69148 0.26057,-8.55087 -0.17902,-4.31459 -0.42147,-8.82055 -0.53878,-10.01324 -0.60952,-6.19713 -1.15819,-38.68905 -1.0668,-63.17525 l 0.10359,-27.75594 -2.62745,-3.12616 c -6.36259,-7.57022 -14.67748,-16.77066 -14.80654,-16.38347 -0.0775,0.23261 1.24626,2.46162 2.94178,4.95335 1.69551,2.49173 3.45097,5.25054 3.90103,6.13068 0.67139,1.313 0.94345,1.49638 1.51556,1.02157 0.56773,-0.47118 1.01453,-0.2423 2.4049,1.23192 1.41167,1.4968 1.68234,2.11319 1.56172,3.55643 -0.1242,1.48599 -0.33626,1.76786 -1.42486,1.89385 -1.06216,0.12293 -1.75647,-0.40958 -4.09611,-3.1415 -1.54944,-1.80924 -3.68457,-4.55992 -4.74474,-6.11262 -1.21373,-1.7776 -1.98354,-2.54173 -2.07868,-2.06334 -0.0831,0.41787 2.19867,3.7525 5.07061,7.41028 7.14815,9.1041 7.48703,9.61501 7.12797,10.74631 -0.3891,1.22596 -2.01116,1.25565 -2.39577,0.0439 -0.51277,-1.6156 -1.56578,-2.17461 -2.44332,-1.29707 -1.07536,1.07536 -2.07899,0.4288 -4.8872,-3.14843 l -2.32119,-2.95683 -0.24095,7.17315 c -0.13252,3.94523 -0.0771,9.23324 0.12321,11.75115 0.51014,6.41319 0.61057,50.59883 0.16485,72.52523 -0.53103,26.12294 -0.46443,49.73493 0.16059,56.93232 0.56136,6.46445 1.38166,39.06616 1.11983,44.50662 -0.46112,9.58149 -0.19963,49.24747 0.34855,52.87272 l 0.59885,3.96035 5.36812,0.13576 c 2.95246,0.0747 7.21137,0.13575 9.46423,0.13575 l 4.09611,0 -0.0758,-7.46937 z m 136.44043,3.73469 c -0.21517,-2.1866 -0.4351,-10.15594 -0.48874,-17.70965 -0.14567,-20.51475 -1.20766,-52.6714 -2.15646,-65.29681 -0.30426,-4.0486 -0.30706,-9.92962 -0.008,-16.62538 0.25458,-5.69841 0.58726,-13.93882 0.73929,-18.31202 0.15203,-4.3732 0.51011,-10.66193 0.79572,-13.97496 0.48421,-5.61658 0.37417,-14.09169 -0.3802,-29.28398 l -0.29357,-5.91205 -2.47147,0.30973 c -1.35931,0.17035 -2.68833,0.33697 -2.95337,0.37026 -0.26505,0.0333 -0.4819,-0.34282 -0.4819,-0.83579 0,-0.59638 0.96755,-1.43198 2.89137,-2.49706 l 2.89137,-1.60074 0.0329,-4.49042 c 0.0181,-2.46973 -0.0425,-4.64263 -0.1346,-4.82867 -0.0921,-0.18603 -1.1221,0.071 -2.28886,0.57109 -1.90707,0.81746 -2.18397,0.83389 -2.74112,0.16257 -0.66107,-0.79654 -0.41727,-1.09012 3.35157,-4.03585 l 1.57493,-1.23096 -0.52155,-5.51557 c -0.28686,-3.03357 -0.51725,-15.25238 -0.51198,-27.15293 l 0.01,-21.63735 -1.07207,0.96735 c -1.23598,1.11521 -4.05086,2.551 -5.0013,2.551 -1.15017,0 -0.69168,-1.40159 0.90521,-2.76718 0.85471,-0.73091 2.14982,-1.94178 2.87803,-2.69082 0.72821,-0.74905 1.52415,-1.23821 1.76876,-1.08704 0.51355,0.3174 1.02762,-0.7981 1.02762,-2.22986 0,-0.84371 -0.31093,-0.69915 -2.15776,1.0032 -1.18677,1.09393 -2.47509,1.98896 -2.86293,1.98896 -1.38564,0 -1.32542,-1.06988 0.15816,-2.81001 4.63882,-5.44099 5.34443,-6.48171 5.34443,-7.88271 0,-1.40024 -0.0745,-1.3511 -2.1635,1.42793 -2.12776,2.83054 -4.98667,5.40963 -5.99657,5.40963 -1.15239,0 -0.37643,-1.70208 1.9229,-4.21792 1.58958,-1.73925 2.27294,-2.83044 1.96525,-3.13813 -0.66134,-0.66133 -0.18505,-1.65823 2.18388,-4.57098 1.25706,-1.54564 1.9471,-2.81827 1.77347,-3.27075 -0.15632,-0.40736 0.10217,-1.16762 0.57443,-1.68946 0.47225,-0.52184 0.7483,-1.05914 0.61344,-1.19401 -0.33141,-0.3314 -3.27671,3.53265 -8.55524,11.22392 l -4.38874,6.3948 0.1321,15.77238 c 0.0727,8.67481 -0.0363,19.67574 -0.24219,24.4465 -0.31685,7.34291 -0.87637,73.95582 -0.93504,111.3178 -0.0233,14.85883 0.39302,29.52497 1.04656,36.86498 0.29498,3.31303 0.5373,11.33659 0.53849,17.83013 9.6e-4,6.49354 0.30875,16.03506 0.68348,21.20339 0.37472,5.16832 0.83167,12.37868 1.01543,16.02301 l 0.33412,6.62606 6.02288,0 6.02289,0 -0.39123,-3.97563 z M 284.58041,313.48543 c -1.05138,-1.28307 -1.90642,-1.9674 -2.02262,-1.6188 -0.15693,0.4708 3.00078,3.74159 3.6912,3.82338 0.084,0.01 -0.66686,-0.98211 -1.66858,-2.20458 z m 127.89286,0.38749 c 4.56876,-0.0779 5.42133,-0.21152 5.42133,-0.8499 0,-0.9424 1.9153,-4.32663 4.68669,-8.2811 2.52237,-3.59916 2.30326,-4.66851 -0.47015,-2.29457 -1.96468,1.68169 -3.25275,2.15547 -3.25275,1.19642 0,-0.32975 -0.34425,-0.31461 -1.01553,0.0446 -2.10485,1.12648 -1.824,-0.36872 0.76897,-4.094 1.44956,-2.08254 2.96544,-4.15096 3.36864,-4.59649 1.01624,-1.12293 0.92008,-1.45699 -0.41942,-1.45699 -0.8024,0 -1.23743,0.3384 -1.43209,1.11401 -0.37769,1.50482 -7.56095,9.01251 -8.61948,9.00877 -1.42566,-0.005 -0.95618,-1.41373 1.87443,-5.62425 1.49476,-2.22345 2.60833,-4.15204 2.4746,-4.28577 -0.74755,-0.74756 -104.5074,0.23583 -105.33969,0.99835 -0.0848,0.0777 0.30729,1.04556 0.8712,2.15092 1.22677,2.40466 1.16278,5.07113 -0.1217,5.07113 -0.56014,0 -1.3901,-1.05688 -2.43235,-3.09739 -1.78175,-3.4883 -3.41729,-4.98297 -4.99052,-4.56068 -1.03932,0.27897 -1.03732,0.29298 0.38761,2.70966 2.91018,4.93568 4.31951,8.13352 4.01182,9.10299 -0.5732,1.80599 -1.85656,0.66796 -4.62235,-4.09892 -3.03756,-5.2353 -4.33689,-6.89898 -3.05432,-3.91082 1.15788,2.69768 1.35835,3.88021 0.82068,4.84098 -0.43549,0.77817 -0.51721,0.77326 -1.29138,-0.0775 -1.29165,-1.4195 -4.03964,-6.33988 -4.20982,-7.53782 -0.14636,-1.03026 -0.38886,-1.08744 -5.18761,-1.22331 l -5.03408,-0.14254 0.93018,1.10633 c 0.5116,0.60847 2.24048,2.51586 3.84196,4.23864 1.60147,1.72277 3.73279,4.10816 4.73626,5.30085 1.04584,1.24305 0.37206,-0.002 -1.57877,-2.91823 -3.8178,-5.70635 -4.11768,-6.71968 -1.98861,-6.71968 1.26324,0 1.83061,0.60415 5.30085,5.64446 2.87702,4.1787 3.88619,6.04536 3.88619,7.18827 0,0.8491 -0.27107,1.6538 -0.60237,1.78823 -0.40377,0.16384 -0.43801,0.37568 -0.10386,0.64253 0.27418,0.21896 0.99818,1.04867 1.6089,1.84379 l 1.11039,1.44569 9.71563,0.24095 c 9.06035,0.22469 87.91139,0.29759 99.95052,0.0924 z m 10.83338,-1.17666 c 0.42752,-0.3313 2.38028,-2.99547 4.33947,-5.92038 1.95919,-2.9249 4.57835,-6.56563 5.82038,-8.09049 2.16765,-2.6613 2.92428,-4.43867 1.65585,-3.88974 -1.40502,0.60805 -13.80514,16.85793 -13.84364,18.14156 -0.017,0.56519 1.16961,0.42421 2.02794,-0.24095 z M 300.55311,294.98661 c 0.16958,-0.27439 -0.24542,-0.48189 -0.96379,-0.48189 -0.71837,0 -1.13338,0.2075 -0.96379,0.48189 0.1638,0.26504 0.59751,0.4819 0.96379,0.4819 0.36628,0 0.79998,-0.21686 0.96379,-0.4819 z"
         style="opacity:1;fill:#000000;fill-opacity:1;fill-rule:nonzero;stroke:none;stroke-width:5.9000001;stroke-miterlimit:4;stroke-dasharray:none;stroke-opacity:1" />
      <path
         inkscape:connector-curvature="0"
         id="path4207"
         d="m 317.56017,559.55342 c -1.24781,-0.1579 -2.40413,-0.42247 -2.56959,-0.58792 -0.61172,-0.61172 -0.79153,-77.40816 -0.2102,-89.77376 0.31151,-6.62606 0.57241,-12.37266 0.57978,-12.77023 0.0402,-2.16826 -1.15316,-42.39575 -1.54392,-52.04468 -1.40587,-34.71445 -1.95037,-75.28038 -1.03346,-76.99364 0.67921,-1.26911 1.79412,-1.37917 23.67152,-2.33675 11.33052,-0.49595 28.76425,-0.81228 46.73891,-0.84808 l 28.66782,-0.0571 0.79175,1.67593 c 0.67738,1.43384 0.77466,3.34811 0.67346,13.25212 -0.065,6.3669 -0.37446,14.17842 -0.68756,17.35893 -0.3886,3.9473 -0.52953,15.64827 -0.444,36.86499 0.0689,17.09523 -0.0325,31.33674 -0.22541,31.6478 -0.9424,1.5198 -1.29901,72.95579 -0.45784,91.71737 0.5759,12.84517 1.29567,34.51295 1.31264,39.51541 l 0.0106,3.13232 -46.02099,0.007 c -25.31155,0.004 -46.23785,0.12399 -46.50289,0.26717 -0.26505,0.14319 -1.50283,0.13116 -2.75065,-0.0267 l -2e-5,0 z m 22.2674,-4.09315 c 21.63854,-0.39208 28.26289,-0.39184 48.77712,0.002 19.31628,0.37062 20.11776,0.35077 20.44672,-0.50648 0.18831,-0.49073 0.0829,-6.54346 -0.2343,-13.45052 -1.2505,-27.23223 -1.74843,-44.56634 -1.71733,-59.78402 0.0434,-21.21469 0.65277,-54.36275 1.09857,-59.75501 0.19721,-2.38538 0.19009,-15.1797 -0.0158,-28.43182 -0.36051,-23.20119 -0.14878,-32.41366 1.05794,-46.03323 0.27065,-3.05471 0.43852,-8.66336 0.37304,-12.46365 l -0.11908,-6.90978 -9.17252,0.29068 c -13.43025,0.42561 -27.48001,0.41059 -31.35806,-0.0335 -1.8654,-0.21362 -7.72042,-0.24039 -13.01117,-0.0595 -18.79521,0.64266 -35.67216,1.39379 -37.76658,1.68083 l -2.12469,0.2912 0.36572,23.90808 c 0.49032,32.05345 0.80466,44.4252 1.72164,67.76054 0.52738,13.42096 0.55335,21.89177 0.26353,85.98879 -0.11796,26.09044 -0.0911,47.63681 0.0597,47.88083 0.15684,0.25378 2.15586,0.31605 4.6707,0.14549 2.41808,-0.164 9.92625,-0.39837 16.68483,-0.52084 z"
         style="opacity:1;fill:#000000;fill-opacity:1;fill-rule:nonzero;stroke:none;stroke-width:5.9000001;stroke-miterlimit:4;stroke-dasharray:none;stroke-opacity:1" />
      <path
         inkscape:connector-curvature="0"
         id="path4209"
         d="m 322.31106,435.3357 1.61526,-45.75881 c 7.78147,-0.0649 11.42971,-0.48441 17.38475,-0.49466 l 14.49628,-0.0181 1.3562,1.32573 c 1.52415,1.48991 1.43194,0.66233 2.41755,21.69726 0.267,5.69841 0.59294,12.52928 0.7243,15.1797 0.22549,4.54941 0.43377,5.41515 -0.65227,6.72594 l -37.34207,1.34291 z m 18.23935,-5.65937 c 2.65043,0 7.29111,0.15942 10.31264,0.35428 l 5.49368,0.35427 -0.28518,-4.69133 c -0.15685,-2.58024 -0.55228,-10.70282 -0.87874,-18.05018 -0.32646,-7.34737 -0.72136,-13.56562 -0.87754,-13.81833 -0.39191,-0.63413 -2.92244,-0.73666 -15.47106,-0.62685 l -10.86222,0.0951 c -0.0764,12.53125 -1.16487,24.8427 -1.16561,37.17828 l 4.45753,-0.39759 c 2.45164,-0.21868 6.62606,-0.3976 9.27648,-0.3976 z"
         style="opacity:1;fill:#000000;fill-opacity:1;fill-rule:nonzero;stroke:none;stroke-width:5.9000001;stroke-miterlimit:4;stroke-dasharray:none;stroke-opacity:1"
         sodipodi:nodetypes="ccccsssccccscssssccscc" />
      <path
         inkscape:connector-curvature="0"
         id="path4213"
         d="m 348.01979,382.17051 c -1.98782,-0.15404 -8.42133,-0.22565 -14.29669,-0.15914 -9.47146,0.10723 -10.76227,0.0297 -11.38642,-0.68371 -0.5856,-0.66937 -0.75468,-4.53133 -1.00573,-22.97183 l -0.30178,-22.16718 1.18413,-1.42494 c 1.04237,-1.25435 1.60512,-1.46712 4.70072,-1.77731 4.4066,-0.44156 24.47463,-0.45244 27.31821,-0.0148 2.05965,0.31698 2.1333,0.39025 2.74963,2.73518 0.42552,1.61895 0.64312,5.88777 0.66323,13.01117 0.0165,5.83093 0.24367,15.00575 0.50491,20.38849 0.49695,10.23957 0.32495,11.65754 -1.41405,11.65754 -0.4883,0 -1.13883,0.30244 -1.44561,0.67209 -0.72328,0.8715 -2.79785,1.08107 -7.27055,0.73446 z m 6.07997,-11.22115 c -0.15509,-3.74593 -0.42189,-13.07861 -0.59288,-20.73928 l -0.3109,-13.9285 -13.7394,0.30236 c -7.55668,0.1663 -13.84099,0.40395 -13.96515,0.52811 -0.12417,0.12416 -0.0659,9.29186 0.12958,20.37267 l 0.35534,20.14692 14.20269,0.0643 14.2027,0.0643 -0.28198,-6.81078 z"
         style="opacity:1;fill:#000000;fill-opacity:1;fill-rule:nonzero;stroke:none;stroke-width:5.9000001;stroke-miterlimit:4;stroke-dasharray:none;stroke-opacity:1" />
      <path
         inkscape:connector-curvature="0"
         id="path4215"
         d="m 381.9934,381.94628 c -0.26504,-0.10381 -3.29759,-0.24965 -6.739,-0.32411 l -6.25711,-0.13537 -0.34071,-1.92758 c -0.18739,-1.06017 -0.4659,-9.51743 -0.61891,-18.79391 -0.15301,-9.27648 -0.37276,-18.27588 -0.48834,-19.99865 -0.29497,-4.39681 0.16475,-6.00604 2.12889,-7.45212 1.64665,-1.21233 1.73626,-1.22199 11.32454,-1.22141 8.26017,5e-4 22.18666,1.03615 22.84974,1.69923 0.10241,0.10241 0.0281,0.57504 -0.16513,1.0503 -0.82459,2.0281 -1.22553,27.90343 -0.58882,38.00098 0.34009,5.3935 0.29776,5.89304 -0.5856,6.91156 -0.5237,0.60383 -1.02574,1.31856 -1.11565,1.58828 -0.1559,0.46769 -18.30899,1.03163 -19.4039,0.6028 z m 14.88278,-3.93857 2.35351,-0.2433 -0.41249,-8.2586 c -0.44556,-8.92055 -0.37635,-16.53862 0.21962,-24.17484 0.52582,-6.73743 0.28573,-8.33931 -1.31456,-8.77077 -0.6996,-0.18862 -6.80174,-0.34939 -13.56032,-0.35725 l -12.28831,-0.0143 0.0861,20.18116 c 0.0602,14.11225 0.24797,20.34365 0.62434,20.7215 0.83028,0.83353 18.60683,1.50414 24.29209,0.9164 z"
         style="opacity:1;fill:#000000;fill-opacity:1;fill-rule:nonzero;stroke:none;stroke-width:5.9000001;stroke-miterlimit:4;stroke-dasharray:none;stroke-opacity:1" />
      <path
         inkscape:connector-curvature="0"
         id="path4217"
         d="m 376.4853,436.33441 c -4.08963,-0.0982 -7.68027,-0.38152 -7.9792,-0.62961 -0.63122,-0.52387 -0.67508,-43.56246 -0.047,-46.07368 0.28368,-1.13415 0.85547,-1.70631 2.37592,-2.37747 1.88891,-0.83381 2.54828,-0.84783 11.64024,-0.24745 5.30084,0.35003 11.65491,0.58904 14.12013,0.53112 3.53378,-0.083 4.74648,0.0678 5.731,0.71292 l 1.24877,0.81823 -0.26714,22.08446 c -0.24713,20.43053 -0.33347,22.17514 -1.15299,23.2953 -0.48722,0.66595 -1.21114,1.35291 -1.6087,1.52657 -0.90695,0.39616 -14.23982,0.59543 -24.06107,0.35961 z m 22.32913,-7.98329 c 0.17031,-2.1866 0.35488,-11.34864 0.41017,-20.36008 l 0.10053,-16.38444 -4.8107,0 c -2.64589,0 -8.63572,-0.19417 -13.31074,-0.4315 l -8.50004,-0.43151 -0.32456,6.9371 c -0.17851,3.81539 -0.25684,13.00897 -0.17407,20.43015 l 0.15048,13.49307 5.0599,0.26709 c 2.78294,0.1469 8.66653,0.30954 13.07464,0.36142 l 8.01475,0.0943 0.30964,-3.97563 z"
         style="opacity:1;fill:#000000;fill-opacity:1;fill-rule:nonzero;stroke:none;stroke-width:5.9000001;stroke-miterlimit:4;stroke-dasharray:none;stroke-opacity:1" />
      <path
         inkscape:connector-curvature="0"
         id="path4219"
         d="m 327.64066,496.94866 c -5.12098,-0.3136 -5.92403,-0.75742 -5.31841,-2.93932 0.53195,-1.91649 0.37855,-43.80843 -0.16958,-46.31014 -0.44782,-2.04393 -0.39413,-2.30485 0.68879,-3.34713 1.16653,-1.12274 1.26795,-1.13163 14.98351,-1.31364 15.23846,-0.20222 18.80669,0.0859 19.58585,1.58159 0.27473,0.52737 0.88448,1.5295 1.35499,2.22695 0.78615,1.16535 0.86377,3.14412 0.95794,24.41931 0.10123,22.86964 0.0901,23.16777 -0.91273,24.51329 l -1.0152,1.36209 -12.71881,0.0479 c -6.99535,0.0264 -14.84171,-0.0821 -17.43635,-0.24095 z m 27.56185,-4.18967 c 0.57525,-0.18899 0.62518,-3.56995 0.33184,-22.46996 -0.18991,-12.23612 -0.45321,-22.4221 -0.5851,-22.63551 -0.28346,-0.45864 -22.87864,-0.51871 -26.60908,-0.0707 -2.47228,0.29689 -2.56089,0.35765 -2.27804,1.56197 0.83248,3.54454 1.28175,13.46894 1.25113,27.63684 l -0.0341,15.78206 1.81668,0.0638 c 0.99918,0.0351 5.17791,0.19772 9.28607,0.36142 7.47992,0.29807 15.54936,0.18779 16.82062,-0.22986 z"
         style="opacity:1;fill:#000000;fill-opacity:1;fill-rule:nonzero;stroke:none;stroke-width:5.9000001;stroke-miterlimit:4;stroke-dasharray:none;stroke-opacity:1" />
      <path
         inkscape:connector-curvature="0"
         id="path4221"
         d="m 381.51151,497.86263 c -2.12034,-0.23216 -6.00729,-0.62559 -8.63767,-0.87428 -5.55016,-0.52475 -6.027,-0.88597 -6.12164,-4.63727 -0.0338,-1.34082 -0.1223,-2.87156 -0.19662,-3.40164 -1.1256,-8.02868 -1.3124,-40.50727 -0.24906,-43.30407 0.83767,-2.20322 3.67293,-2.68734 12.87364,-2.19817 4.46275,0.23727 11.0416,0.41818 14.61967,0.40201 3.57808,-0.0162 6.84266,0.10225 7.25463,0.26315 0.65947,0.25755 0.75392,2.63914 0.78983,19.91438 0.0224,10.79202 0.22871,22.51699 0.4584,26.05549 l 0.4176,6.43364 -1.28854,0.66634 c -1.62391,0.83975 -14.46052,1.27822 -19.92024,0.68042 z m 16.81746,-4.37125 c 0.25538,-0.23371 0.15652,-3.81682 -0.24095,-8.73375 -0.5832,-7.21463 -0.71113,-21.59546 -0.29922,-33.63697 l 0.10714,-3.13231 -11.32453,-0.17995 c -6.2285,-0.099 -12.40881,-0.2074 -13.73402,-0.24095 l -2.40947,-0.061 -0.35782,5.78274 c -0.38982,6.29997 -0.10014,27.14793 0.4783,34.42279 0.43161,5.42815 -0.41694,4.9505 10.27513,5.78396 4.08898,0.31874 7.86822,0.64372 8.3983,0.72218 1.6637,0.24623 8.65345,-0.31154 9.10714,-0.72674 z"
         style="opacity:1;fill:#000000;fill-opacity:1;fill-rule:nonzero;stroke:none;stroke-width:5.9000001;stroke-miterlimit:4;stroke-dasharray:none;stroke-opacity:1" />
      <path
         inkscape:connector-curvature="0"
         id="path4223"
         d="m 325.03591,549.80915 c -0.69833,-0.18754 -1.42758,-0.59646 -1.62057,-0.90872 -0.19299,-0.31226 -0.38533,-4.60431 -0.42742,-9.53788 -0.0421,-4.93356 -0.15236,-10.68168 -0.24504,-12.77359 -0.0927,-2.09191 -0.31887,-7.07953 -0.50263,-11.08359 l -0.33412,-7.28012 1.46009,-2.00074 1.46009,-2.00074 4.69863,-0.35227 c 2.58425,-0.19375 6.98958,-0.22178 9.78963,-0.0623 2.80005,0.15949 7.69324,0.42217 10.87375,0.58374 5.43335,0.27603 8.65909,0.90247 8.23495,1.59923 -0.70155,1.15249 -0.37333,15.45635 0.7679,33.46418 0.49789,7.85647 0.47502,8.65091 -0.27052,9.39695 -0.69712,0.69758 -2.11314,0.83267 -9.83327,0.9381 -4.96037,0.0677 -12.11552,0.17617 -15.90033,0.24095 -3.7848,0.0648 -7.45282,-0.0357 -8.15114,-0.2232 z m 29.93451,-12.10989 c -0.13679,-4.2838 -0.47962,-10.39096 -0.76185,-13.57147 -0.28223,-3.18051 -0.58075,-7.80805 -0.66337,-10.28342 -0.0826,-2.47537 -0.24877,-4.59922 -0.36922,-4.71967 -0.38707,-0.38707 -2.35182,-0.5654 -9.79921,-0.88939 -9.16831,-0.39887 -16.53092,0.0753 -16.92018,1.0897 -0.15209,0.39635 0.008,8.71019 0.3554,18.47518 l 0.63193,17.75453 10.8903,0.12918 c 5.98967,0.0711 12.23909,0.056 13.8876,-0.0334 l 2.9973,-0.16254 -0.2487,-7.78873 z"
         style="opacity:1;fill:#000000;fill-opacity:1;fill-rule:nonzero;stroke:none;stroke-width:5.9000001;stroke-miterlimit:4;stroke-dasharray:none;stroke-opacity:1" />
      <path
         inkscape:connector-curvature="0"
         id="path4225"
         d="m 372.3555,550.90835 -3.37327,-0.27632 -0.3326,-6.74653 c -0.6262,-12.70182 -1.49178,-28.91268 -1.70668,-31.96323 -0.26661,-3.78472 0.0751,-5.23062 1.3303,-5.629 0.55948,-0.17757 0.9186,-0.65361 0.84219,-1.11638 -0.12042,-0.72935 0.76895,-0.81397 9.26375,-0.88148 5.16832,-0.0411 12.17955,-0.34089 15.5805,-0.66626 5.19767,-0.49725 6.28839,-0.48535 6.84115,0.0747 0.38137,0.38639 0.86886,2.69048 1.16052,5.48521 0.2766,2.65042 0.70724,6.6622 0.95697,8.91506 0.24973,2.25286 0.5864,9.30058 0.74816,15.6616 0.16176,6.36101 0.40875,12.15363 0.54886,12.87247 0.20252,1.03899 -0.0948,1.65656 -1.4501,3.01184 l -1.70486,1.70486 -12.66581,-0.0851 c -6.9662,-0.0468 -14.18379,-0.20944 -16.03908,-0.36142 z m 26.64187,-3.71686 1.10142,-0.29506 -0.27631,-9.45674 c -0.28748,-9.83902 -0.81257,-17.24292 -1.78998,-25.23881 -0.44895,-3.67267 -0.73697,-4.69761 -1.31924,-4.69452 -0.40969,0.002 -2.69657,0.24073 -5.08195,0.53012 -2.38539,0.2894 -8.0134,0.55868 -12.50671,0.59842 l -8.16966,0.0722 0.13319,2.65043 c 0.0733,1.45773 0.32746,4.16839 0.56492,6.02369 0.23746,1.85529 0.45215,6.73448 0.4771,10.84264 0.0531,8.75089 0.60988,17.65189 1.13718,18.18105 0.31896,0.32009 4.4528,0.51105 21.4963,0.99302 1.72277,0.0487 3.62795,-0.0442 4.23374,-0.20648 z"
         style="opacity:1;fill:#000000;fill-opacity:1;fill-rule:nonzero;stroke:none;stroke-width:5.9000001;stroke-miterlimit:4;stroke-dasharray:none;stroke-opacity:1" />
      <path
         inkscape:connector-curvature="0"
         id="path4227"
         d="m 286.67337,371.79712 c -4.03942,-3.97551 -3.65394,-5.34611 0.71507,-2.54253 2.73407,1.75445 4.30545,3.57471 3.93018,4.55265 -0.49856,1.29922 -1.89802,0.69364 -4.64525,-2.01012 z"
         style="opacity:1;fill:#000000;fill-opacity:1;fill-rule:nonzero;stroke:none;stroke-width:5.9000001;stroke-miterlimit:4;stroke-dasharray:none;stroke-opacity:1" />
      <path
         inkscape:connector-curvature="0"
         id="path4229"
         d="m 288.14385,360.11725 c -3.33214,-3.43493 -3.03608,-5.55844 0.42215,-3.02794 2.58914,1.89456 3.66768,3.21143 3.47017,4.23698 -0.3041,1.57908 -1.56869,1.18627 -3.89232,-1.20904 z"
         style="opacity:1;fill:#000000;fill-opacity:1;fill-rule:nonzero;stroke:none;stroke-width:5.9000001;stroke-miterlimit:4;stroke-dasharray:none;stroke-opacity:1" />
      <path
         inkscape:connector-curvature="0"
         id="path4231"
         d="m 288.50573,347.16564 c -0.53009,-0.70457 -1.77699,-2.34593 -2.7709,-3.64745 -0.99391,-1.30153 -1.80711,-2.66992 -1.80711,-3.04087 0,-1.43947 1.54825,-0.53563 4.77296,2.78637 2.77112,2.85473 3.27733,3.61427 2.89051,4.33706 -0.66512,1.24278 -1.96055,1.0601 -3.08546,-0.43511 z"
         style="opacity:1;fill:#000000;fill-opacity:1;fill-rule:nonzero;stroke:none;stroke-width:5.9000001;stroke-miterlimit:4;stroke-dasharray:none;stroke-opacity:1" />
      <path
         inkscape:connector-curvature="0"
         id="path4233"
         d="m 287.42146,327.6974 c -2.12047,-2.53693 -2.91334,-5.32132 -1.20473,-4.23077 1.2668,0.80856 4.45753,5.0539 4.45753,5.93086 0,1.39765 -1.17833,0.78179 -3.2528,-1.70009 z"
         style="opacity:1;fill:#000000;fill-opacity:1;fill-rule:nonzero;stroke:none;stroke-width:5.9000001;stroke-miterlimit:4;stroke-dasharray:none;stroke-opacity:1" />
      <path
         inkscape:connector-curvature="0"
         id="path4235"
         d="m 429.94198,388.2281 c 0,-0.92082 4.92395,-3.37482 5.96783,-2.97425 0.42828,0.16435 0.7787,0.83756 0.7787,1.49603 0,0.97296 -0.33849,1.29121 -1.80711,1.69907 -2.70445,0.75106 -4.93942,0.65113 -4.93942,-0.22085 z"
         style="opacity:1;fill:#000000;fill-opacity:1;fill-rule:nonzero;stroke:none;stroke-width:5.9000001;stroke-miterlimit:4;stroke-dasharray:none;stroke-opacity:1" />
    </g>
    <path
       style="opacity:1;fill:#deaa87;fill-opacity:1;fill-rule:nonzero;stroke:none;stroke-width:5.9000001;stroke-miterlimit:4;stroke-dasharray:none;stroke-opacity:1"
       d="m 577.62427,920.50532 c -0.003,-2.91682 -0.9734,-19.62221 -2.15733,-37.12311 -1.18394,-17.50089 -2.75059,-55.36646 -3.48145,-84.1457 -0.73087,-28.77925 -2.06016,-65.05383 -2.95399,-80.61018 -1.60235,-27.88759 -1.23505,-185.28046 0.98514,-422.14274 l 0.88151,-94.0452 8.58771,-12.72793 c 14.02264,-20.78307 26.55193,-37.47665 28.12793,-37.47665 0.97918,0 1.00667,0.59362 0.0819,1.76776 -0.7658,0.97227 -1.82675,3.58282 -2.35766,5.80121 -0.5309,2.21839 -3.48243,7.36739 -6.55896,11.44221 -3.25207,4.30734 -5.59368,8.98132 -5.59368,11.16529 0,2.26516 -1.88404,5.86354 -4.74565,9.06388 -2.61011,2.91905 -5.49628,6.73926 -6.41372,8.48935 -4.80816,9.17199 9.5831,-1.48661 19.38625,-14.35803 1.71954,-2.25774 3.51215,-3.71927 3.98358,-3.24784 1.9484,1.94839 -1.37358,8.39084 -9.37346,18.17838 -4.66972,5.71321 -8.49117,11.18314 -8.49213,12.15541 -0.003,3.16037 3.84408,1.87599 10.11752,-3.37774 6.08569,-5.0965 6.14893,-5.11353 6.63975,-1.78844 0.31599,2.14074 -0.4297,3.87696 -2.05813,4.79196 -1.40451,0.78919 -5.92317,4.55008 -10.04147,8.35754 -11.76204,10.87427 -9.37903,14.69152 3.68378,5.9009 l 7.21318,-4.85411 0.0129,51.87671 c 0.007,28.53219 0.64762,63.94882 1.42349,78.70363 l 1.41068,26.82691 -3.89837,3.05822 c -9.93242,7.79185 -10.71485,8.65824 -9.85135,10.90848 0.7978,2.07902 1.44671,2.10111 6.75038,0.22986 3.22725,-1.13864 6.43636,-1.71882 7.13136,-1.28928 0.69494,0.42953 1.26358,6.74628 1.26358,14.03723 0,11.77805 -0.2994,13.35129 -2.68493,14.10842 -4.07673,1.29391 -14.28564,9.04311 -14.28564,10.8437 0,1.10168 2.55407,1.29905 8.33978,0.64447 l 8.33978,-0.94354 1.04717,18.08498 c 1.75491,30.30766 1.47387,76.95756 -0.6968,115.66573 -2.55436,45.55003 -2.73945,112.16525 -0.43617,156.9777 0.95948,18.66762 2.37416,64.80634 3.14373,102.53048 0.76956,37.72415 1.75253,76.06702 2.18436,85.20637 l 0.78515,16.61701 -17.71746,0 -17.71746,0 -0.005,-5.3033 z m 22.0826,-508.3148 c 2.49371,-2.49371 1.16989,-6.82172 -2.07663,-6.78922 -3.27355,0.0328 -13.28766,5.94674 -14.0646,8.30604 -0.88795,2.69641 13.25725,1.36716 16.14123,-1.51682 z"
       id="path4290"
       inkscape:connector-curvature="0" />
    <path
       style="opacity:1;fill:#deaa87;fill-opacity:1;fill-rule:nonzero;stroke:none;stroke-width:5.9000001;stroke-miterlimit:4;stroke-dasharray:none;stroke-opacity:1"
       d="m 165.91519,924.81266 c -3.10551,-0.47854 -3.88861,-1.54322 -4.78502,-6.50562 -0.58951,-3.2634 -1.2604,-54.93595 -1.49089,-114.82789 -0.23048,-59.89195 -1.22728,-126.07714 -2.2151,-147.07821 -1.29506,-27.53276 -1.72757,-94.59468 -1.55055,-240.41631 0.13502,-111.22789 0.28231,-204.77812 0.3273,-207.88939 l 0.0818,-5.65685 3.63653,4.24264 c 12.39461,14.46047 11.53922,13.80444 16.72977,12.83069 4.17451,-0.78315 5.20187,-0.40253 7.21771,2.67404 3.71013,5.66237 7.24859,4.53537 6.30616,-2.00852 -0.16318,-1.13308 -6.18072,-9.72443 -13.3723,-19.09189 -15.37989,-20.03321 -21.3201,-28.81111 -20.2329,-29.89831 0.43355,-0.43355 3.35188,2.68197 6.48519,6.92337 12.88223,17.43804 20.03489,25.03508 23.57067,25.03508 4.49952,0 5.94561,-5.23813 3.01214,-10.91084 -2.68331,-5.18895 -4.94399,-7.06966 -9.24603,-7.69198 -2.55899,-0.37017 -5.9041,-4.44256 -13.7607,-16.75252 -5.70891,-8.9449 -10.3637,-16.89985 -10.34397,-17.67767 0.0453,-1.78657 11.02548,9.99876 33.14827,35.57902 l 17.31637,20.02266 0.11189,100.7461 c 0.0649,58.47008 0.88132,118.0175 1.94547,141.90479 1.92867,43.29349 2.19257,68.97815 0.82975,80.75667 -0.44999,3.88909 -1.51517,23.93556 -2.36707,44.54772 -1.64273,39.74676 -0.18606,132.98389 2.60717,166.8772 0.80127,9.72272 2.43631,39.63334 3.63342,66.46804 1.1971,26.8347 2.77453,61.83649 3.50538,77.78175 0.73086,15.94526 1.34554,31.69606 1.36596,35.00178 l 0.0371,6.01041 -24.39519,-0.21189 c -13.41735,-0.11653 -26.06612,-0.46938 -28.10838,-0.78407 z m 14.3198,-554.66426 c 0,-3.11494 -6.41442,-8.91124 -14.33097,-12.94997 -7.76681,-3.96232 -7.04971,-0.88707 1.90829,8.18359 7.63257,7.72858 12.42268,9.56646 12.42268,4.76638 z m 2.18489,-36.69499 c -0.95379,-3.00512 -9.48086,-10.35619 -13.85215,-11.94174 -4.83864,-1.75506 -2.53245,3.60267 4.6366,10.77173 5.05431,5.0543 7.54952,6.67342 8.62577,5.59717 0.83286,-0.83285 1.09826,-2.82507 0.58978,-4.42716 z m -1.20748,-37.87135 c 0.62885,-1.63878 -2.13613,-5.25623 -9.45831,-12.37437 -6.29406,-6.11868 -10.58922,-9.34844 -10.96547,-8.24554 -0.72758,2.13275 2.21153,6.94895 9.89719,16.21814 5.8,6.99499 9.01551,8.33959 10.52659,4.40177 z m -2.39162,-52.00449 c 0,-2.00758 -9.90928,-15.35554 -12.66323,-17.05757 -2.32324,-1.43584 -1.73375,3.89931 0.8593,7.77707 3.30003,4.93501 9.29093,11.27483 10.6543,11.27483 0.6323,0 1.14963,-0.89745 1.14963,-1.99433 z"
       id="path4292"
       inkscape:connector-curvature="0" />
    <path
       style="opacity:1;fill:#deaa87;fill-opacity:1;fill-rule:nonzero;stroke:none;stroke-width:5.9000001;stroke-miterlimit:4;stroke-dasharray:none;stroke-opacity:1"
       d="m 217.00455,197.83945 c -1.94455,-0.35178 -5.29815,-2.74459 -7.45245,-5.31735 -3.37256,-4.02765 -3.69795,-5.1583 -2.3414,-8.1356 1.89793,-4.16551 -0.87162,-10.29995 -11.84073,-26.22667 -7.64736,-11.10368 -11.483,-14.63856 -14.59023,-13.44621 -3.12034,1.19739 -2.37674,3.53824 4.5761,14.4056 3.59428,5.6179 6.23748,10.51193 5.87378,10.87563 -0.36369,0.3637 -6.47563,-5.87024 -13.58207,-13.85319 l -12.92081,-14.51446 8.81479,-0.44549 c 4.84813,-0.24502 11.36037,-0.0703 14.47164,0.38822 5.06738,0.74684 5.92241,1.47649 8.20524,7.00205 3.22764,7.81246 10.41974,19.21817 12.1184,19.21817 2.59113,0 2.68447,-3.92294 0.26351,-11.07427 -1.36117,-4.02078 -2.0877,-7.3105 -1.61451,-7.3105 0.47319,0 4.69079,6.19994 9.37244,13.77765 8.32198,13.46995 13.37422,17.92547 13.37422,11.7946 0,-1.60567 -3.18198,-9.03862 -7.07107,-16.51766 -3.88909,-7.47904 -7.07107,-14.09883 -7.07107,-14.71065 0,-0.61182 0.93736,-1.4721 2.08303,-1.91173 3.09138,-1.18628 9.81679,5.16466 14.77765,13.95483 2.40719,4.2653 5.32586,7.75509 6.48594,7.75509 2.84449,0 2.75351,-6.81782 -0.18913,-14.17218 -1.26409,-3.15928 -2.00435,-6.03814 -1.64503,-6.39747 1.16848,-1.16848 149.76536,-3.41576 227.74268,-3.44423 55.43473,-0.0202 76.01398,0.4035 76.01398,1.56517 0,0.8761 -3.28366,6.94746 -7.29702,13.49192 -4.99958,8.15264 -6.83906,12.35695 -5.84248,13.35354 1.93435,1.93435 17.25502,-12.22955 23.27124,-21.51415 2.68009,-4.13609 5.52974,-6.92423 7.07699,-6.92423 3.64272,0 3.23032,2.31696 -1.47406,8.28177 -5.16887,6.55373 -12.90624,18.76464 -12.90624,20.36828 0,0.67442 1.11369,1.04301 2.47487,0.81908 1.36118,-0.22394 3.19086,0.0427 4.06596,0.59248 0.8751,0.5498 4.21068,-0.89797 7.41239,-3.21728 5.60907,-4.06318 8.67419,-5.2284 8.67419,-3.29752 0,0.50567 -3.15666,5.84035 -7.01481,11.85486 -3.85814,6.0145 -8.15381,13.39663 -9.54594,16.40472 -1.39212,3.0081 -3.16753,5.93681 -3.94534,6.50827 -1.49375,1.09743 -322.74082,1.11591 -328.80465,0.0189 z"
       id="path4294"
       inkscape:connector-curvature="0" />
    <path
       style="opacity:1;fill:#deaa87;fill-opacity:1;fill-rule:nonzero;stroke:none;stroke-width:5.9000001;stroke-miterlimit:4;stroke-dasharray:none;stroke-opacity:1"
       d="m 557.21088,196.21677 c -1.28261,-2.07531 27.83166,-41.37156 37.2357,-50.25796 7.66085,-7.23917 5.11917,-0.6632 -5.23936,13.55554 -5.29923,7.27405 -12.73006,17.63349 -16.51293,23.02097 -9.85803,14.03958 -13.35329,17.12806 -15.48341,13.68145 z"
       id="path4298"
       inkscape:connector-curvature="0" />
    <path
       style="opacity:1;fill:#deaa87;fill-opacity:1;fill-rule:nonzero;stroke:none;stroke-width:5.9000001;stroke-miterlimit:4;stroke-dasharray:none;stroke-opacity:1"
       d="m 263.67359,927.26378 c -15.16744,-0.59349 -29.80455,-1.16335 -32.52691,-1.26635 l -4.94975,-0.18727 0,-20.1533 c 0,-27.9586 -3.26177,-114.85008 -5.90599,-157.33204 -1.28745,-20.68405 -2.49363,-67.63219 -2.90668,-113.13709 -0.62316,-68.65141 -0.41193,-80.18883 1.79949,-98.28784 2.25068,-18.42034 2.3387,-24.31798 0.86535,-57.98275 -2.24036,-51.19052 -5.08585,-242.56124 -3.83069,-257.62929 0.98685,-11.84693 1.1248,-12.21262 4.79021,-12.69777 2.07575,-0.27474 36.2303,0.0393 75.89899,0.69775 72.04167,1.1959 255.215,-0.74021 262.20709,-2.77148 l 3.40599,-0.98948 -0.92359,25.32582 c -2.03325,55.75288 -4.02187,450.39807 -2.43296,482.8239 0.85756,17.50089 2.49241,57.91204 3.633,89.80256 1.14059,31.89051 2.66342,64.34671 3.38406,72.12489 0.72062,7.77817 1.76368,22.57438 2.31787,32.88046 l 1.00762,18.73833 -89.63049,0.003 c -49.29677,5.4e-4 -111.90436,0.25255 -139.12797,0.55937 -27.22361,0.3068 -61.9072,0.0722 -77.07464,-0.52125 z M 531.75852,876.6647 c -0.54375,-17.69535 -1.5694,-45.53768 -2.2792,-61.87184 -2.4188,-55.6613 -3.10623,-177.43212 -1.35723,-240.41631 1.56895,-56.49987 4.40201,-239.26151 4.79003,-309.00566 0.13011,-23.39426 -0.27761,-31.191 -1.76828,-33.81161 l -1.93741,-3.40602 -92.10779,0.87557 c -88.81452,0.84426 -149.59994,2.59507 -177.56679,5.11448 -10.41158,0.93794 -13.77737,1.77958 -15.35644,3.84003 -2.80462,3.6596 -1.47212,120.05727 2.63674,230.3272 2.18737,58.70246 2.92001,98.71162 2.57674,140.71424 -0.26381,32.27943 -0.47954,112.34132 -0.47942,177.91531 2e-4,103.35102 0.277,119.40049 2.07888,120.54005 1.24397,0.78673 58.23053,1.3233 141.91872,1.33627 l 139.84008,0.0217 -0.98863,-32.17336 z"
       id="path4300"
       inkscape:connector-curvature="0" />
    <path
       style="opacity:1;fill:#784421;fill-opacity:1;fill-rule:nonzero;stroke:none;stroke-width:5.9000001;stroke-miterlimit:4;stroke-dasharray:none;stroke-opacity:1"
       d="m 261.90583,899.4081 c -2.34054,-0.64019 -2.47561,-10.51601 -2.48828,-181.94612 -0.007,-99.69806 -0.62658,-196.5427 -1.37601,-215.21032 -1.53459,-38.22498 -3.69896,-125.38825 -5.06171,-203.84448 l -0.91231,-52.52363 8.27791,-0.87296 c 24.25118,-2.55745 83.52252,-4.05173 168.4376,-4.24647 l 95.10586,-0.2181 0,18.75911 c 0,10.31751 -0.92217,31.97211 -2.04926,48.12133 -2.23256,31.98887 -4.18396,201.79381 -4.25418,370.18768 -0.03,71.95396 0.62571,111.41435 2.60435,156.72721 1.85955,42.58553 2.20036,61.00477 1.14827,62.05686 -1.02492,1.02492 -40.83598,1.59021 -126.39835,1.79475 -68.69619,0.16422 -126.17496,0.6571 -127.73059,1.09532 -1.55564,0.43821 -3.94212,0.49214 -5.3033,0.11979 l 0,3e-5 z m 241.38297,-18.75621 3.97072,-4.14454 -1.55554,-41.63256 c -1.52265,-40.75216 -4.72323,-77.02058 -7.42363,-84.12317 l -1.35534,-3.56479 -17.98431,0.89141 c -9.89138,0.49028 -30.23494,1.32278 -45.20793,1.85 -20.16927,0.71022 -27.22361,1.41199 -27.22361,2.70828 0,0.9623 -0.96414,2.11963 -2.14255,2.57183 -1.17839,0.45219 -2.68936,2.27036 -3.35772,4.04038 -0.86495,2.29068 4.29163,120.06226 5.41608,123.69861 0.27179,0.87892 16.81561,1.38375 52.49906,1.60201 l 40.39406,0.24708 3.97071,-4.14454 z m -132.55972,-0.94407 c 4.33462,-0.52562 6.18346,-1.48972 6.84323,-3.56846 0.4972,-1.56654 0.10509,-15.69217 -0.87138,-31.39028 -0.97645,-15.69811 -1.82851,-42.70611 -1.89347,-60.01778 -0.10015,-26.69223 -0.44049,-31.56953 -2.23942,-32.0928 -8.5912,-2.49898 -61.69076,-5.19351 -80.16534,-4.06799 l -14.33274,0.87319 -4.40061,6.24319 c -2.42034,3.43377 -4.12899,6.6827 -3.79701,7.21984 0.33198,0.53716 1.39376,26.43199 2.35953,57.54408 0.96576,31.11209 2.34558,57.32516 3.06628,58.25126 0.72069,0.9261 3.01387,1.95633 5.09594,2.28937 4.84184,0.77454 82.45722,-0.32836 90.33499,-1.28362 z M 496.0702,729.32287 c 2.97845,-0.69126 5.60283,-1.47156 5.83199,-1.73404 0.81654,-0.93525 -2.44521,-150.40168 -3.30255,-151.33613 -0.48054,-0.52374 -22.00971,-1.16013 -47.84259,-1.41421 l -46.96891,-0.46194 -3.23567,3.21946 c -3.18887,3.17287 -3.24322,3.78682 -3.75559,42.42641 -0.6442,48.58102 1.98215,99.59798 5.34082,103.74575 1.84679,2.28071 5.41514,3.18309 18.53212,4.68645 18.79366,2.15399 67.44642,2.71422 75.40038,0.86825 z m -120.26917,-4.60344 c 2.36119,-2.8015 2.49951,-7.43159 2.12132,-71.01304 l -0.40457,-68.01613 -3.29879,-5.30568 c -1.86957,-3.00695 -4.93315,-5.76418 -7.07106,-6.36396 -2.07476,-0.58206 -23.37086,-1.01443 -47.32467,-0.96083 l -43.55238,0.0974 -3.2473,3.43807 c -3.12216,3.30559 -3.2029,3.98302 -2.09532,17.58021 0.63358,7.77818 1.06657,40.39645 0.96219,72.48504 -0.10439,32.0886 0.28334,58.81724 0.86162,59.39697 1.54034,1.54423 48.66672,2.92929 76.48144,2.24781 22.36935,-0.54807 24.21733,-0.79749 26.56752,-3.58593 l 0,3e-5 z m 123.59651,-175.66139 3.95063,-3.3982 1.27889,-64.62997 c 1.37064,-69.26746 1.61073,-66.30157 -5.48691,-67.78119 -1.55564,-0.32431 -20.99472,-1.35688 -43.19797,-2.29463 -37.07831,-1.566 -40.74398,-1.51138 -44.96204,0.66987 -2.52587,1.30617 -5.20155,3.9768 -5.94595,5.93473 -1.58447,4.16748 -1.84202,129.12665 -0.27114,131.55201 1.78977,2.76331 5.6149,3.01326 48.68986,3.18153 l 41.99398,0.16405 3.95065,-3.3982 z m -168.7401,-1.43475 c 37.42117,-1.47611 48.1758,-2.31379 49.19023,-3.8314 0.7184,-1.07476 0.9404,-8.89037 0.49702,-17.4986 -0.44068,-8.55599 -1.7365,-34.13525 -2.87959,-56.84281 -1.1431,-22.70755 -2.63953,-42.75403 -3.32541,-44.54773 -0.68588,-1.79369 -2.58933,-4.47037 -4.22989,-5.94818 -2.83756,-2.55605 -5.16164,-2.64948 -47.71572,-1.91797 -30.88657,0.53093 -45.03766,1.2621 -45.71754,2.36217 -0.54156,0.87628 -1.7525,26.877 -2.69098,57.77941 -0.93847,30.9024 -2.06908,59.84546 -2.51246,64.31791 l -0.80615,8.13172 6.14926,-0.0577 c 3.3821,-0.0317 27.70065,-0.90779 54.04123,-1.94682 z m 38.31031,-155.12237 c 6.07823,-3.58623 6.27455,-5.16847 4.88099,-39.33826 -0.62106,-15.22823 -1.16697,-39.14282 -1.21314,-53.14354 -0.095,-28.79461 -1.6343,-41.52575 -5.3518,-44.26215 -1.94876,-1.43445 -12.13283,-1.7436 -46.58727,-1.41422 -42.2915,0.40431 -44.25637,0.54331 -48.08326,3.4016 l -3.98993,2.98005 -0.3642,35.20371 c -0.41905,40.50506 1.26845,95.97521 2.97166,97.68195 1.22566,1.22821 76.53084,3.14717 86.93008,2.2152 3.35441,-0.30062 8.21751,-1.79657 10.80687,-3.32434 z m 132.36345,-1.45596 c 2.81643,-3.23949 2.88268,-4.4557 2.10853,-38.69994 -0.68822,-30.44298 0.6873,-87.66391 2.25923,-93.98315 0.36696,-1.47514 -1.29292,-2.34312 -5.8517,-3.05996 -12.78012,-2.00958 -68.00335,-4.39411 -78.65248,-3.39621 -9.51238,0.89138 -11.49317,1.5699 -15.09348,5.1702 l -4.14417,4.14417 1.04084,54.19768 c 0.57246,29.80872 1.43756,59.53958 1.92246,66.06857 l 0.88162,11.8709 16.26346,0.87803 c 8.9449,0.48291 29.78471,0.71518 46.31069,0.51615 29.6191,-0.35669 30.08865,-0.40949 32.955,-3.70644 z"
       id="path4302"
       inkscape:connector-curvature="0" />
    <path
       style="opacity:1;fill:#deaa87;fill-opacity:1;fill-rule:nonzero;stroke:none;stroke-width:5.9000001;stroke-miterlimit:4;stroke-dasharray:none;stroke-opacity:1"
       d="m 127.39439,955.70487 c -10.47468,-0.85226 -10.96804,-1.03987 -8.48529,-3.22663 1.44982,-1.27697 9.93612,-5.96669 18.85846,-10.4216 l 16.22243,-8.09984 61.55932,1.85688 c 33.85762,1.02129 139.83603,2.21083 235.50758,2.64343 l 173.94827,0.78654 12.72792,6.56815 12.72792,6.56816 -6.36396,0.94105 c -11.80071,1.745 -143.07862,2.90199 -202.23254,1.78233 -52.86006,-1.00053 -92.02404,-0.85256 -254.55844,0.96177 -26.8347,0.29955 -53.79496,0.13745 -59.91167,-0.36024 z"
       id="path4304"
       inkscape:connector-curvature="0" />
  </g>
</svg>
