<?xml version="1.0" encoding="UTF-8" standalone="no"?>
<!-- Created with Inkscape (http://www.inkscape.org/) -->

<svg
   xmlns:dc="http://purl.org/dc/elements/1.1/"
   xmlns:cc="http://creativecommons.org/ns#"
   xmlns:rdf="http://www.w3.org/1999/02/22-rdf-syntax-ns#"
   xmlns:svg="http://www.w3.org/2000/svg"
   xmlns="http://www.w3.org/2000/svg"
   xmlns:sodipodi="http://sodipodi.sourceforge.net/DTD/sodipodi-0.dtd"
   xmlns:inkscape="http://www.inkscape.org/namespaces/inkscape"
   width="210mm"
   height="297mm"
   viewBox="0 0 744.09448819 1052.3622047"
   id="svg2"
   version="1.1"
   inkscape:version="0.91 r13725"
   inkscape:export-filename="/Users/larsaeschlimann/Documents/02_BFH/09_Informatik/Softwareprojekt_SuperTeacher/SuperTeacher/assets/graphics/backgrounds/Window"
   inkscape:export-xdpi="90"
   inkscape:export-ydpi="90"
   sodipodi:docname="Window2.svg">
  <defs
     id="defs4" />
  <sodipodi:namedview
     id="base"
     pagecolor="#ffffff"
     bordercolor="#666666"
     borderopacity="1.0"
     inkscape:pageopacity="0.0"
     inkscape:pageshadow="2"
     inkscape:zoom="0.77480296"
     inkscape:cx="371.72373"
     inkscape:cy="504.14918"
     inkscape:document-units="px"
     inkscape:current-layer="layer1"
     showgrid="false"
     inkscape:window-width="1440"
     inkscape:window-height="851"
     inkscape:window-x="7"
     inkscape:window-y="0"
     inkscape:window-maximized="0" />
  <metadata
     id="metadata7">
    <rdf:RDF>
      <cc:Work
         rdf:about="">
        <dc:format>image/svg+xml</dc:format>
        <dc:type
           rdf:resource="http://purl.org/dc/dcmitype/StillImage" />
        <dc:title />
      </cc:Work>
    </rdf:RDF>
  </metadata>
  <g
     inkscape:label="Ebene 1"
     inkscape:groupmode="layer"
     id="layer1">
    <g
       id="g4271"
       style="fill:#000000"
       transform="matrix(2.7891081,0,0,2.9009453,-634.25232,-714.03233)"
       inkscape:export-xdpi="90"
       inkscape:export-ydpi="90">
      <path
         inkscape:connector-curvature="0"
         id="path4205"
         d="m 266.63134,579.01721 c -1.53968,-0.6474 -2.28973,-1.51137 -2.6873,-3.09543 -0.5161,-2.05632 1.78222,-3.95567 9.65374,-7.9779 3.95869,-2.02283 7.32275,-3.75341 7.47568,-3.84572 0.15293,-0.0923 0.0832,-1.64199 -0.15501,-3.44372 -0.23818,-1.80174 -0.5007,-23.44319 -0.58336,-48.09213 -0.0959,-28.58031 -0.34162,-46.38748 -0.67838,-49.15332 -0.64963,-5.33534 -0.72748,-28.59509 -0.14355,-42.88867 0.2382,-5.83093 0.35595,-11.36068 0.26165,-12.28833 -0.0943,-0.92765 -0.13638,-4.93943 -0.0935,-8.91506 0.15577,-14.45345 0.025,-53.62038 -0.26506,-79.37468 -0.18603,-16.51874 -0.12337,-26.82272 0.16778,-27.5885 0.25559,-0.67227 0.79536,-1.2223 1.19949,-1.2223 0.40412,0 0.73477,-0.22643 0.73477,-0.50319 0,-0.34363 7.06702,-0.47602 22.28765,-0.4175 12.25821,0.0471 43.97294,-0.0309 70.47718,-0.17346 39.72679,-0.21364 49.12042,-0.14015 53.49037,0.41849 4.9068,0.62727 11.74474,0.5866 12.81723,-0.0762 0.25173,-0.15558 0.89414,0.70381 1.42759,1.90975 0.92211,2.0846 0.94488,2.61465 0.46201,10.75766 -0.27933,4.71076 -0.61439,9.75772 -0.74457,11.21545 -0.83304,9.32816 -0.99882,48.14243 -0.24401,57.12857 0.66528,7.92025 0.93869,15.92862 0.96988,28.40783 0.0146,5.83094 0.28022,12.16424 0.59035,14.07402 0.4323,2.66222 0.42888,5.86643 -0.0146,13.73402 -1.21321,21.51951 -1.63191,43.03966 -1.09035,56.04173 1.28182,30.77458 1.67131,44.06479 1.77944,60.7188 0.0637,9.80657 0.29686,18.68481 0.51818,19.72943 0.39202,1.85027 0.54783,1.97098 6.03508,4.67573 5.48171,2.70201 6.94669,3.92257 7.14656,5.95424 0.19121,1.94363 -0.0426,2.55694 -1.2856,3.37134 -1.13566,0.74411 -3.50969,0.86209 -22.5286,1.11955 -29.22586,0.39562 -40.03801,0.36737 -61.01553,-0.15948 -19.42274,-0.4878 -19.70313,-0.48795 -49.39426,-0.0261 -35.83914,0.55747 -55.22179,0.55237 -56.57084,-0.0149 l -2e-5,2e-5 z m 65.72685,-3.90851 c 12.3226,-0.44791 20.04813,-0.43247 41.92489,0.0838 9.27648,0.21891 21.52867,0.4133 27.22708,0.43197 15.86595,0.052 52.03427,-0.7656 51.78397,-1.17058 -0.12223,-0.19778 -2.33632,-1.37494 -4.92019,-2.6159 l -4.69795,-2.25629 -42.64773,-0.0466 c -23.45625,-0.0256 -47.41849,0.0878 -53.24942,0.25207 -5.83093,0.16429 -12.98708,0.11819 -15.90254,-0.10244 -6.68641,-0.50601 -27.79223,-1.1303 -40.72015,-1.20446 l -9.87885,-0.0567 -4.81895,2.38279 c -5.43269,2.68625 -7.5895,4.05908 -7.24722,4.61291 0.27893,0.45132 48.74431,0.21299 63.14706,-0.31053 z m 58.84563,-9.35656 c 19.06109,0.1023 33.88971,-0.003 34.02256,-0.24096 0.33105,-0.59371 -0.43015,-13.93579 -1.30055,-22.79548 -0.40171,-4.08893 -0.74427,-12.32934 -0.76125,-18.31201 -0.017,-5.98268 -0.22976,-13.47983 -0.47287,-16.66034 -1.20493,-15.76407 -1.57229,-37.04165 -1.08574,-62.88732 0.12723,-6.75858 0.29796,-29.20285 0.37939,-49.87616 0.0814,-20.6733 0.30333,-46.7781 0.49311,-58.01066 l 0.34506,-20.42284 -1.62115,0.29348 c -5.42104,0.9814 -82.47269,1.37201 -106.79478,0.54138 -6.25043,-0.21346 -10.72783,-0.18651 -10.73573,0.0646 -0.55244,17.54735 0.44309,83.98855 1.48081,98.82891 0.51009,7.29485 0.46071,8.16962 -0.98783,17.49768 -0.79401,5.11317 -0.61417,45.71103 0.26044,58.79121 1.10216,16.48337 1.62132,28.08672 1.6602,37.10594 0.0188,4.3732 0.25299,10.1198 0.52029,12.77022 0.55914,5.54403 0.7336,21.56412 0.24346,22.35717 -0.231,0.37377 0.93799,0.5332 3.9157,0.53401 6.83905,0.002 22.05399,0.55102 22.31414,0.80538 0.13146,0.12852 5.6612,0.0538 12.28833,-0.16595 6.62714,-0.21979 27.25352,-0.31802 45.83641,-0.21828 z m -87.35324,-8.13263 c -0.0417,-4.10816 -0.31026,-10.72217 -0.59684,-14.69781 -0.28657,-3.97563 -0.75203,-14.05929 -1.03436,-22.40812 -0.28232,-8.34884 -0.83798,-18.21564 -1.2348,-21.92624 -1.12089,-10.48129 -1.49653,-57.02199 -0.51731,-64.09206 0.40381,-2.91547 0.617,-5.89844 0.47378,-6.62883 -0.14322,-0.73039 0.003,-1.64575 0.32565,-2.03414 0.43774,-0.52744 0.50369,-2.69148 0.26057,-8.55087 -0.17902,-4.31459 -0.42147,-8.82055 -0.53878,-10.01324 -0.60952,-6.19713 -1.15819,-38.68905 -1.0668,-63.17525 l 0.10359,-27.75594 -2.62745,-3.12616 c -6.36259,-7.57022 -14.67748,-16.77066 -14.80654,-16.38347 -0.0775,0.23261 1.24626,2.46162 2.94178,4.95335 1.69551,2.49173 3.45097,5.25054 3.90103,6.13068 0.67139,1.313 0.94345,1.49638 1.51556,1.02157 0.56773,-0.47118 1.01453,-0.2423 2.4049,1.23192 1.41167,1.4968 1.68234,2.11319 1.56172,3.55643 -0.1242,1.48599 -0.33626,1.76786 -1.42486,1.89385 -1.06216,0.12293 -1.75647,-0.40958 -4.09611,-3.1415 -1.54944,-1.80924 -3.68457,-4.55992 -4.74474,-6.11262 -1.21373,-1.7776 -1.98354,-2.54173 -2.07868,-2.06334 -0.0831,0.41787 2.19867,3.7525 5.07061,7.41028 7.14815,9.1041 7.48703,9.61501 7.12797,10.74631 -0.3891,1.22596 -2.01116,1.25565 -2.39577,0.0439 -0.51277,-1.6156 -1.56578,-2.17461 -2.44332,-1.29707 -1.07536,1.07536 -2.07899,0.4288 -4.8872,-3.14843 l -2.32119,-2.95683 -0.24095,7.17315 c -0.13252,3.94523 -0.0771,9.23324 0.12321,11.75115 0.51014,6.41319 0.61057,50.59883 0.16485,72.52523 -0.53103,26.12294 -0.46443,49.73493 0.16059,56.93232 0.56136,6.46445 1.38166,39.06616 1.11983,44.50662 -0.46112,9.58149 -0.19963,49.24747 0.34855,52.87272 l 0.59885,3.96035 5.36812,0.13576 c 2.95246,0.0747 7.21137,0.13575 9.46423,0.13575 l 4.09611,0 -0.0758,-7.46937 z m 136.44043,3.73469 c -0.21517,-2.1866 -0.4351,-10.15594 -0.48874,-17.70965 -0.14567,-20.51475 -1.20766,-52.6714 -2.15646,-65.29681 -0.30426,-4.0486 -0.30706,-9.92962 -0.008,-16.62538 0.25458,-5.69841 0.58726,-13.93882 0.73929,-18.31202 0.15203,-4.3732 0.51011,-10.66193 0.79572,-13.97496 0.48421,-5.61658 0.37417,-14.09169 -0.3802,-29.28398 l -0.29357,-5.91205 -2.47147,0.30973 c -1.35931,0.17035 -2.68833,0.33697 -2.95337,0.37026 -0.26505,0.0333 -0.4819,-0.34282 -0.4819,-0.83579 0,-0.59638 0.96755,-1.43198 2.89137,-2.49706 l 2.89137,-1.60074 0.0329,-4.49042 c 0.0181,-2.46973 -0.0425,-4.64263 -0.1346,-4.82867 -0.0921,-0.18603 -1.1221,0.071 -2.28886,0.57109 -1.90707,0.81746 -2.18397,0.83389 -2.74112,0.16257 -0.66107,-0.79654 -0.41727,-1.09012 3.35157,-4.03585 l 1.57493,-1.23096 -0.52155,-5.51557 c -0.28686,-3.03357 -0.51725,-15.25238 -0.51198,-27.15293 l 0.01,-21.63735 -1.07207,0.96735 c -1.23598,1.11521 -4.05086,2.551 -5.0013,2.551 -1.15017,0 -0.69168,-1.40159 0.90521,-2.76718 0.85471,-0.73091 2.14982,-1.94178 2.87803,-2.69082 0.72821,-0.74905 1.52415,-1.23821 1.76876,-1.08704 0.51355,0.3174 1.02762,-0.7981 1.02762,-2.22986 0,-0.84371 -0.31093,-0.69915 -2.15776,1.0032 -1.18677,1.09393 -2.47509,1.98896 -2.86293,1.98896 -1.38564,0 -1.32542,-1.06988 0.15816,-2.81001 4.63882,-5.44099 5.34443,-6.48171 5.34443,-7.88271 0,-1.40024 -0.0745,-1.3511 -2.1635,1.42793 -2.12776,2.83054 -4.98667,5.40963 -5.99657,5.40963 -1.15239,0 -0.37643,-1.70208 1.9229,-4.21792 1.58958,-1.73925 2.27294,-2.83044 1.96525,-3.13813 -0.66134,-0.66133 -0.18505,-1.65823 2.18388,-4.57098 1.25706,-1.54564 1.9471,-2.81827 1.77347,-3.27075 -0.15632,-0.40736 0.10217,-1.16762 0.57443,-1.68946 0.47225,-0.52184 0.7483,-1.05914 0.61344,-1.19401 -0.33141,-0.3314 -3.27671,3.53265 -8.55524,11.22392 l -4.38874,6.3948 0.1321,15.77238 c 0.0727,8.67481 -0.0363,19.67574 -0.24219,24.4465 -0.31685,7.34291 -0.87637,73.95582 -0.93504,111.3178 -0.0233,14.85883 0.39302,29.52497 1.04656,36.86498 0.29498,3.31303 0.5373,11.33659 0.53849,17.83013 9.6e-4,6.49354 0.30875,16.03506 0.68348,21.20339 0.37472,5.16832 0.83167,12.37868 1.01543,16.02301 l 0.33412,6.62606 6.02288,0 6.02289,0 -0.39123,-3.97563 z M 284.58041,313.48543 c -1.05138,-1.28307 -1.90642,-1.9674 -2.02262,-1.6188 -0.15693,0.4708 3.00078,3.74159 3.6912,3.82338 0.084,0.01 -0.66686,-0.98211 -1.66858,-2.20458 z m 127.89286,0.38749 c 4.56876,-0.0779 5.42133,-0.21152 5.42133,-0.8499 0,-0.9424 1.9153,-4.32663 4.68669,-8.2811 2.52237,-3.59916 2.30326,-4.66851 -0.47015,-2.29457 -1.96468,1.68169 -3.25275,2.15547 -3.25275,1.19642 0,-0.32975 -0.34425,-0.31461 -1.01553,0.0446 -2.10485,1.12648 -1.824,-0.36872 0.76897,-4.094 1.44956,-2.08254 2.96544,-4.15096 3.36864,-4.59649 1.01624,-1.12293 0.92008,-1.45699 -0.41942,-1.45699 -0.8024,0 -1.23743,0.3384 -1.43209,1.11401 -0.37769,1.50482 -7.56095,9.01251 -8.61948,9.00877 -1.42566,-0.005 -0.95618,-1.41373 1.87443,-5.62425 1.49476,-2.22345 2.60833,-4.15204 2.4746,-4.28577 -0.74755,-0.74756 -104.5074,0.23583 -105.33969,0.99835 -0.0848,0.0777 0.30729,1.04556 0.8712,2.15092 1.22677,2.40466 1.16278,5.07113 -0.1217,5.07113 -0.56014,0 -1.3901,-1.05688 -2.43235,-3.09739 -1.78175,-3.4883 -3.41729,-4.98297 -4.99052,-4.56068 -1.03932,0.27897 -1.03732,0.29298 0.38761,2.70966 2.91018,4.93568 4.31951,8.13352 4.01182,9.10299 -0.5732,1.80599 -1.85656,0.66796 -4.62235,-4.09892 -3.03756,-5.2353 -4.33689,-6.89898 -3.05432,-3.91082 1.15788,2.69768 1.35835,3.88021 0.82068,4.84098 -0.43549,0.77817 -0.51721,0.77326 -1.29138,-0.0775 -1.29165,-1.4195 -4.03964,-6.33988 -4.20982,-7.53782 -0.14636,-1.03026 -0.38886,-1.08744 -5.18761,-1.22331 l -5.03408,-0.14254 0.93018,1.10633 c 0.5116,0.60847 2.24048,2.51586 3.84196,4.23864 1.60147,1.72277 3.73279,4.10816 4.73626,5.30085 1.04584,1.24305 0.37206,-0.002 -1.57877,-2.91823 -3.8178,-5.70635 -4.11768,-6.71968 -1.98861,-6.71968 1.26324,0 1.83061,0.60415 5.30085,5.64446 2.87702,4.1787 3.88619,6.04536 3.88619,7.18827 0,0.8491 -0.27107,1.6538 -0.60237,1.78823 -0.40377,0.16384 -0.43801,0.37568 -0.10386,0.64253 0.27418,0.21896 0.99818,1.04867 1.6089,1.84379 l 1.11039,1.44569 9.71563,0.24095 c 9.06035,0.22469 87.91139,0.29759 99.95052,0.0924 z m 10.83338,-1.17666 c 0.42752,-0.3313 2.38028,-2.99547 4.33947,-5.92038 1.95919,-2.9249 4.57835,-6.56563 5.82038,-8.09049 2.16765,-2.6613 2.92428,-4.43867 1.65585,-3.88974 -1.40502,0.60805 -13.80514,16.85793 -13.84364,18.14156 -0.017,0.56519 1.16961,0.42421 2.02794,-0.24095 z M 300.55311,294.98661 c 0.16958,-0.27439 -0.24542,-0.48189 -0.96379,-0.48189 -0.71837,0 -1.13338,0.2075 -0.96379,0.48189 0.1638,0.26504 0.59751,0.4819 0.96379,0.4819 0.36628,0 0.79998,-0.21686 0.96379,-0.4819 z"
         style="opacity:1;fill:#000000;fill-opacity:1;fill-rule:nonzero;stroke:none;stroke-width:5.9000001;stroke-miterlimit:4;stroke-dasharray:none;stroke-opacity:1" />
      <path
         inkscape:connector-curvature="0"
         id="path4207"
         d="m 317.56017,559.55342 c -1.24781,-0.1579 -2.40413,-0.42247 -2.56959,-0.58792 -0.61172,-0.61172 -0.79153,-77.40816 -0.2102,-89.77376 0.31151,-6.62606 0.57241,-12.37266 0.57978,-12.77023 0.0402,-2.16826 -1.15316,-42.39575 -1.54392,-52.04468 -1.40587,-34.71445 -1.95037,-75.28038 -1.03346,-76.99364 0.67921,-1.26911 1.79412,-1.37917 23.67152,-2.33675 11.33052,-0.49595 28.76425,-0.81228 46.73891,-0.84808 l 28.66782,-0.0571 0.79175,1.67593 c 0.67738,1.43384 0.77466,3.34811 0.67346,13.25212 -0.065,6.3669 -0.37446,14.17842 -0.68756,17.35893 -0.3886,3.9473 -0.52953,15.64827 -0.444,36.86499 0.0689,17.09523 -0.0325,31.33674 -0.22541,31.6478 -0.9424,1.5198 -1.29901,72.95579 -0.45784,91.71737 0.5759,12.84517 1.29567,34.51295 1.31264,39.51541 l 0.0106,3.13232 -46.02099,0.007 c -25.31155,0.004 -46.23785,0.12399 -46.50289,0.26717 -0.26505,0.14319 -1.50283,0.13116 -2.75065,-0.0267 l -2e-5,0 z m 22.2674,-4.09315 c 21.63854,-0.39208 28.26289,-0.39184 48.77712,0.002 19.31628,0.37062 20.11776,0.35077 20.44672,-0.50648 0.18831,-0.49073 0.0829,-6.54346 -0.2343,-13.45052 -1.2505,-27.23223 -1.74843,-44.56634 -1.71733,-59.78402 0.0434,-21.21469 0.65277,-54.36275 1.09857,-59.75501 0.19721,-2.38538 0.19009,-15.1797 -0.0158,-28.43182 -0.36051,-23.20119 -0.14878,-32.41366 1.05794,-46.03323 0.27065,-3.05471 0.43852,-8.66336 0.37304,-12.46365 l -0.11908,-6.90978 -9.17252,0.29068 c -13.43025,0.42561 -27.48001,0.41059 -31.35806,-0.0335 -1.8654,-0.21362 -7.72042,-0.24039 -13.01117,-0.0595 -18.79521,0.64266 -35.67216,1.39379 -37.76658,1.68083 l -2.12469,0.2912 0.36572,23.90808 c 0.49032,32.05345 0.80466,44.4252 1.72164,67.76054 0.52738,13.42096 0.55335,21.89177 0.26353,85.98879 -0.11796,26.09044 -0.0911,47.63681 0.0597,47.88083 0.15684,0.25378 2.15586,0.31605 4.6707,0.14549 2.41808,-0.164 9.92625,-0.39837 16.68483,-0.52084 z"
         style="opacity:1;fill:#000000;fill-opacity:1;fill-rule:nonzero;stroke:none;stroke-width:5.9000001;stroke-miterlimit:4;stroke-dasharray:none;stroke-opacity:1" />
      <path
         inkscape:connector-curvature="0"
         id="path4209"
         d="m 322.31106,435.3357 1.61526,-45.75881 c 7.78147,-0.0649 11.42971,-0.48441 17.38475,-0.49466 l 14.49628,-0.0181 1.3562,1.32573 c 1.52415,1.48991 1.43194,0.66233 2.41755,21.69726 0.267,5.69841 0.59294,12.52928 0.7243,15.1797 0.22549,4.54941 0.43377,5.41515 -0.65227,6.72594 l -37.34207,1.34291 z m 18.23935,-5.65937 c 2.65043,0 7.29111,0.15942 10.31264,0.35428 l 5.49368,0.35427 -0.28518,-4.69133 c -0.15685,-2.58024 -0.55228,-10.70282 -0.87874,-18.05018 -0.32646,-7.34737 -0.72136,-13.56562 -0.87754,-13.81833 -0.39191,-0.63413 -2.92244,-0.73666 -15.47106,-0.62685 l -10.86222,0.0951 c -0.0764,12.53125 -1.16487,24.8427 -1.16561,37.17828 l 4.45753,-0.39759 c 2.45164,-0.21868 6.62606,-0.3976 9.27648,-0.3976 z"
         style="opacity:1;fill:#000000;fill-opacity:1;fill-rule:nonzero;stroke:none;stroke-width:5.9000001;stroke-miterlimit:4;stroke-dasharray:none;stroke-opacity:1"
         sodipodi:nodetypes="ccccsssccccscssssccscc" />
      <path
         inkscape:connector-curvature="0"
         id="path4213"
         d="m 348.01979,382.17051 c -1.98782,-0.15404 -8.42133,-0.22565 -14.29669,-0.15914 -9.47146,0.10723 -10.76227,0.0297 -11.38642,-0.68371 -0.5856,-0.66937 -0.75468,-4.53133 -1.00573,-22.97183 l -0.30178,-22.16718 1.18413,-1.42494 c 1.04237,-1.25435 1.60512,-1.46712 4.70072,-1.77731 4.4066,-0.44156 24.47463,-0.45244 27.31821,-0.0148 2.05965,0.31698 2.1333,0.39025 2.74963,2.73518 0.42552,1.61895 0.64312,5.88777 0.66323,13.01117 0.0165,5.83093 0.24367,15.00575 0.50491,20.38849 0.49695,10.23957 0.32495,11.65754 -1.41405,11.65754 -0.4883,0 -1.13883,0.30244 -1.44561,0.67209 -0.72328,0.8715 -2.79785,1.08107 -7.27055,0.73446 z m 6.07997,-11.22115 c -0.15509,-3.74593 -0.42189,-13.07861 -0.59288,-20.73928 l -0.3109,-13.9285 -13.7394,0.30236 c -7.55668,0.1663 -13.84099,0.40395 -13.96515,0.52811 -0.12417,0.12416 -0.0659,9.29186 0.12958,20.37267 l 0.35534,20.14692 14.20269,0.0643 14.2027,0.0643 -0.28198,-6.81078 z"
         style="opacity:1;fill:#000000;fill-opacity:1;fill-rule:nonzero;stroke:none;stroke-width:5.9000001;stroke-miterlimit:4;stroke-dasharray:none;stroke-opacity:1" />
      <path
         inkscape:connector-curvature="0"
         id="path4215"
         d="m 381.9934,381.94628 c -0.26504,-0.10381 -3.29759,-0.24965 -6.739,-0.32411 l -6.25711,-0.13537 -0.34071,-1.92758 c -0.18739,-1.06017 -0.4659,-9.51743 -0.61891,-18.79391 -0.15301,-9.27648 -0.37276,-18.27588 -0.48834,-19.99865 -0.29497,-4.39681 0.16475,-6.00604 2.12889,-7.45212 1.64665,-1.21233 1.73626,-1.22199 11.32454,-1.22141 8.26017,5e-4 22.18666,1.03615 22.84974,1.69923 0.10241,0.10241 0.0281,0.57504 -0.16513,1.0503 -0.82459,2.0281 -1.22553,27.90343 -0.58882,38.00098 0.34009,5.3935 0.29776,5.89304 -0.5856,6.91156 -0.5237,0.60383 -1.02574,1.31856 -1.11565,1.58828 -0.1559,0.46769 -18.30899,1.03163 -19.4039,0.6028 z m 14.88278,-3.93857 2.35351,-0.2433 -0.41249,-8.2586 c -0.44556,-8.92055 -0.37635,-16.53862 0.21962,-24.17484 0.52582,-6.73743 0.28573,-8.33931 -1.31456,-8.77077 -0.6996,-0.18862 -6.80174,-0.34939 -13.56032,-0.35725 l -12.28831,-0.0143 0.0861,20.18116 c 0.0602,14.11225 0.24797,20.34365 0.62434,20.7215 0.83028,0.83353 18.60683,1.50414 24.29209,0.9164 z"
         style="opacity:1;fill:#000000;fill-opacity:1;fill-rule:nonzero;stroke:none;stroke-width:5.9000001;stroke-miterlimit:4;stroke-dasharray:none;stroke-opacity:1" />
      <path
         inkscape:connector-curvature="0"
         id="path4217"
         d="m 376.4853,436.33441 c -4.08963,-0.0982 -7.68027,-0.38152 -7.9792,-0.62961 -0.63122,-0.52387 -0.67508,-43.56246 -0.047,-46.07368 0.28368,-1.13415 0.85547,-1.70631 2.37592,-2.37747 1.88891,-0.83381 2.54828,-0.84783 11.64024,-0.24745 5.30084,0.35003 11.65491,0.58904 14.12013,0.53112 3.53378,-0.083 4.74648,0.0678 5.731,0.71292 l 1.24877,0.81823 -0.26714,22.08446 c -0.24713,20.43053 -0.33347,22.17514 -1.15299,23.2953 -0.48722,0.66595 -1.21114,1.35291 -1.6087,1.52657 -0.90695,0.39616 -14.23982,0.59543 -24.06107,0.35961 z m 22.32913,-7.98329 c 0.17031,-2.1866 0.35488,-11.34864 0.41017,-20.36008 l 0.10053,-16.38444 -4.8107,0 c -2.64589,0 -8.63572,-0.19417 -13.31074,-0.4315 l -8.50004,-0.43151 -0.32456,6.9371 c -0.17851,3.81539 -0.25684,13.00897 -0.17407,20.43015 l 0.15048,13.49307 5.0599,0.26709 c 2.78294,0.1469 8.66653,0.30954 13.07464,0.36142 l 8.01475,0.0943 0.30964,-3.97563 z"
         style="opacity:1;fill:#000000;fill-opacity:1;fill-rule:nonzero;stroke:none;stroke-width:5.9000001;stroke-miterlimit:4;stroke-dasharray:none;stroke-opacity:1" />
      <path
         inkscape:connector-curvature="0"
         id="path4219"
         d="m 327.64066,496.94866 c -5.12098,-0.3136 -5.92403,-0.75742 -5.31841,-2.93932 0.53195,-1.91649 0.37855,-43.80843 -0.16958,-46.31014 -0.44782,-2.04393 -0.39413,-2.30485 0.68879,-3.34713 1.16653,-1.12274 1.26795,-1.13163 14.98351,-1.31364 15.23846,-0.20222 18.80669,0.0859 19.58585,1.58159 0.27473,0.52737 0.88448,1.5295 1.35499,2.22695 0.78615,1.16535 0.86377,3.14412 0.95794,24.41931 0.10123,22.86964 0.0901,23.16777 -0.91273,24.51329 l -1.0152,1.36209 -12.71881,0.0479 c -6.99535,0.0264 -14.84171,-0.0821 -17.43635,-0.24095 z m 27.56185,-4.18967 c 0.57525,-0.18899 0.62518,-3.56995 0.33184,-22.46996 -0.18991,-12.23612 -0.45321,-22.4221 -0.5851,-22.63551 -0.28346,-0.45864 -22.87864,-0.51871 -26.60908,-0.0707 -2.47228,0.29689 -2.56089,0.35765 -2.27804,1.56197 0.83248,3.54454 1.28175,13.46894 1.25113,27.63684 l -0.0341,15.78206 1.81668,0.0638 c 0.99918,0.0351 5.17791,0.19772 9.28607,0.36142 7.47992,0.29807 15.54936,0.18779 16.82062,-0.22986 z"
         style="opacity:1;fill:#000000;fill-opacity:1;fill-rule:nonzero;stroke:none;stroke-width:5.9000001;stroke-miterlimit:4;stroke-dasharray:none;stroke-opacity:1" />
      <path
         inkscape:connector-curvature="0"
         id="path4221"
         d="m 381.51151,497.86263 c -2.12034,-0.23216 -6.00729,-0.62559 -8.63767,-0.87428 -5.55016,-0.52475 -6.027,-0.88597 -6.12164,-4.63727 -0.0338,-1.34082 -0.1223,-2.87156 -0.19662,-3.40164 -1.1256,-8.02868 -1.3124,-40.50727 -0.24906,-43.30407 0.83767,-2.20322 3.67293,-2.68734 12.87364,-2.19817 4.46275,0.23727 11.0416,0.41818 14.61967,0.40201 3.57808,-0.0162 6.84266,0.10225 7.25463,0.26315 0.65947,0.25755 0.75392,2.63914 0.78983,19.91438 0.0224,10.79202 0.22871,22.51699 0.4584,26.05549 l 0.4176,6.43364 -1.28854,0.66634 c -1.62391,0.83975 -14.46052,1.27822 -19.92024,0.68042 z m 16.81746,-4.37125 c 0.25538,-0.23371 0.15652,-3.81682 -0.24095,-8.73375 -0.5832,-7.21463 -0.71113,-21.59546 -0.29922,-33.63697 l 0.10714,-3.13231 -11.32453,-0.17995 c -6.2285,-0.099 -12.40881,-0.2074 -13.73402,-0.24095 l -2.40947,-0.061 -0.35782,5.78274 c -0.38982,6.29997 -0.10014,27.14793 0.4783,34.42279 0.43161,5.42815 -0.41694,4.9505 10.27513,5.78396 4.08898,0.31874 7.86822,0.64372 8.3983,0.72218 1.6637,0.24623 8.65345,-0.31154 9.10714,-0.72674 z"
         style="opacity:1;fill:#000000;fill-opacity:1;fill-rule:nonzero;stroke:none;stroke-width:5.9000001;stroke-miterlimit:4;stroke-dasharray:none;stroke-opacity:1" />
      <path
         inkscape:connector-curvature="0"
         id="path4223"
         d="m 325.03591,549.80915 c -0.69833,-0.18754 -1.42758,-0.59646 -1.62057,-0.90872 -0.19299,-0.31226 -0.38533,-4.60431 -0.42742,-9.53788 -0.0421,-4.93356 -0.15236,-10.68168 -0.24504,-12.77359 -0.0927,-2.09191 -0.31887,-7.07953 -0.50263,-11.08359 l -0.33412,-7.28012 1.46009,-2.00074 1.46009,-2.00074 4.69863,-0.35227 c 2.58425,-0.19375 6.98958,-0.22178 9.78963,-0.0623 2.80005,0.15949 7.69324,0.42217 10.87375,0.58374 5.43335,0.27603 8.65909,0.90247 8.23495,1.59923 -0.70155,1.15249 -0.37333,15.45635 0.7679,33.46418 0.49789,7.85647 0.47502,8.65091 -0.27052,9.39695 -0.69712,0.69758 -2.11314,0.83267 -9.83327,0.9381 -4.96037,0.0677 -12.11552,0.17617 -15.90033,0.24095 -3.7848,0.0648 -7.45282,-0.0357 -8.15114,-0.2232 z m 29.93451,-12.10989 c -0.13679,-4.2838 -0.47962,-10.39096 -0.76185,-13.57147 -0.28223,-3.18051 -0.58075,-7.80805 -0.66337,-10.28342 -0.0826,-2.47537 -0.24877,-4.59922 -0.36922,-4.71967 -0.38707,-0.38707 -2.35182,-0.5654 -9.79921,-0.88939 -9.16831,-0.39887 -16.53092,0.0753 -16.92018,1.0897 -0.15209,0.39635 0.008,8.71019 0.3554,18.47518 l 0.63193,17.75453 10.8903,0.12918 c 5.98967,0.0711 12.23909,0.056 13.8876,-0.0334 l 2.9973,-0.16254 -0.2487,-7.78873 z"
         style="opacity:1;fill:#000000;fill-opacity:1;fill-rule:nonzero;stroke:none;stroke-width:5.9000001;stroke-miterlimit:4;stroke-dasharray:none;stroke-opacity:1" />
      <path
         inkscape:connector-curvature="0"
         id="path4225"
         d="m 372.3555,550.90835 -3.37327,-0.27632 -0.3326,-6.74653 c -0.6262,-12.70182 -1.49178,-28.91268 -1.70668,-31.96323 -0.26661,-3.78472 0.0751,-5.23062 1.3303,-5.629 0.55948,-0.17757 0.9186,-0.65361 0.84219,-1.11638 -0.12042,-0.72935 0.76895,-0.81397 9.26375,-0.88148 5.16832,-0.0411 12.17955,-0.34089 15.5805,-0.66626 5.19767,-0.49725 6.28839,-0.48535 6.84115,0.0747 0.38137,0.38639 0.86886,2.69048 1.16052,5.48521 0.2766,2.65042 0.70724,6.6622 0.95697,8.91506 0.24973,2.25286 0.5864,9.30058 0.74816,15.6616 0.16176,6.36101 0.40875,12.15363 0.54886,12.87247 0.20252,1.03899 -0.0948,1.65656 -1.4501,3.01184 l -1.70486,1.70486 -12.66581,-0.0851 c -6.9662,-0.0468 -14.18379,-0.20944 -16.03908,-0.36142 z m 26.64187,-3.71686 1.10142,-0.29506 -0.27631,-9.45674 c -0.28748,-9.83902 -0.81257,-17.24292 -1.78998,-25.23881 -0.44895,-3.67267 -0.73697,-4.69761 -1.31924,-4.69452 -0.40969,0.002 -2.69657,0.24073 -5.08195,0.53012 -2.38539,0.2894 -8.0134,0.55868 -12.50671,0.59842 l -8.16966,0.0722 0.13319,2.65043 c 0.0733,1.45773 0.32746,4.16839 0.56492,6.02369 0.23746,1.85529 0.45215,6.73448 0.4771,10.84264 0.0531,8.75089 0.60988,17.65189 1.13718,18.18105 0.31896,0.32009 4.4528,0.51105 21.4963,0.99302 1.72277,0.0487 3.62795,-0.0442 4.23374,-0.20648 z"
         style="opacity:1;fill:#000000;fill-opacity:1;fill-rule:nonzero;stroke:none;stroke-width:5.9000001;stroke-miterlimit:4;stroke-dasharray:none;stroke-opacity:1" />
      <path
         inkscape:connector-curvature="0"
         id="path4227"
         d="m 286.67337,371.79712 c -4.03942,-3.97551 -3.65394,-5.34611 0.71507,-2.54253 2.73407,1.75445 4.30545,3.57471 3.93018,4.55265 -0.49856,1.29922 -1.89802,0.69364 -4.64525,-2.01012 z"
         style="opacity:1;fill:#000000;fill-opacity:1;fill-rule:nonzero;stroke:none;stroke-width:5.9000001;stroke-miterlimit:4;stroke-dasharray:none;stroke-opacity:1" />
      <path
         inkscape:connector-curvature="0"
         id="path4229"
         d="m 288.14385,360.11725 c -3.33214,-3.43493 -3.03608,-5.55844 0.42215,-3.02794 2.58914,1.89456 3.66768,3.21143 3.47017,4.23698 -0.3041,1.57908 -1.56869,1.18627 -3.89232,-1.20904 z"
         style="opacity:1;fill:#000000;fill-opacity:1;fill-rule:nonzero;stroke:none;stroke-width:5.9000001;stroke-miterlimit:4;stroke-dasharray:none;stroke-opacity:1" />
      <path
         inkscape:connector-curvature="0"
         id="path4231"
         d="m 288.50573,347.16564 c -0.53009,-0.70457 -1.77699,-2.34593 -2.7709,-3.64745 -0.99391,-1.30153 -1.80711,-2.66992 -1.80711,-3.04087 0,-1.43947 1.54825,-0.53563 4.77296,2.78637 2.77112,2.85473 3.27733,3.61427 2.89051,4.33706 -0.66512,1.24278 -1.96055,1.0601 -3.08546,-0.43511 z"
         style="opacity:1;fill:#000000;fill-opacity:1;fill-rule:nonzero;stroke:none;stroke-width:5.9000001;stroke-miterlimit:4;stroke-dasharray:none;stroke-opacity:1" />
      <path
         inkscape:connector-curvature="0"
         id="path4233"
         d="m 287.42146,327.6974 c -2.12047,-2.53693 -2.91334,-5.32132 -1.20473,-4.23077 1.2668,0.80856 4.45753,5.0539 4.45753,5.93086 0,1.39765 -1.17833,0.78179 -3.2528,-1.70009 z"
         style="opacity:1;fill:#000000;fill-opacity:1;fill-rule:nonzero;stroke:none;stroke-width:5.9000001;stroke-miterlimit:4;stroke-dasharray:none;stroke-opacity:1" />
      <path
         inkscape:connector-curvature="0"
         id="path4235"
         d="m 429.94198,388.2281 c 0,-0.92082 4.92395,-3.37482 5.96783,-2.97425 0.42828,0.16435 0.7787,0.83756 0.7787,1.49603 0,0.97296 -0.33849,1.29121 -1.80711,1.69907 -2.70445,0.75106 -4.93942,0.65113 -4.93942,-0.22085 z"
         style="opacity:1;fill:#000000;fill-opacity:1;fill-rule:nonzero;stroke:none;stroke-width:5.9000001;stroke-miterlimit:4;stroke-dasharray:none;stroke-opacity:1" />
    </g>
    <path
       style="opacity:1;fill:#deaa87;fill-opacity:1;fill-rule:nonzero;stroke:none;stroke-width:5.9000001;stroke-miterlimit:4;stroke-dasharray:none;stroke-opacity:1"
       d="m 560.57068,920.37381 c -0.003,-2.92506 -0.93852,-19.67767 -2.08002,-37.22804 -1.14151,-17.55036 -2.65203,-55.52296 -3.3567,-84.38355 -0.70467,-28.8606 -1.98633,-65.23771 -2.84813,-80.83804 C 550.7409,689.95777 551.09504,532.12 553.23567,294.5882 l 0.84992,-94.31103 8.27997,-12.76391 c 13.52015,-20.84182 25.60046,-37.58258 27.11999,-37.58258 0.94409,0 0.97059,0.59529 0.079,1.77275 -0.73837,0.97502 -1.76129,3.59295 -2.27318,5.81761 -0.51187,2.22466 -3.35764,7.38822 -6.32392,11.47455 -3.13554,4.31952 -5.39324,9.00671 -5.39324,11.19685 0,2.27157 -1.81653,5.88012 -4.57559,9.0895 -2.51658,2.92731 -5.29933,6.75831 -6.18389,8.51335 -4.63587,9.19792 9.23969,-1.49081 18.69156,-14.39861 1.65792,-2.26413 3.38629,-3.72979 3.84082,-3.25702 1.87859,1.95389 -1.32435,8.41455 -9.03756,18.22976 -4.50239,5.72936 -8.18689,11.21475 -8.18782,12.18977 -0.003,3.1693 3.70633,1.88129 9.75496,-3.38729 5.86762,-5.11091 5.92859,-5.12798 6.40182,-1.79349 0.30467,2.14679 -0.4143,3.88791 -1.98437,4.8055 -1.35419,0.79142 -5.71092,4.56294 -9.68164,8.38116 -11.34056,10.90501 -9.04294,14.73305 3.55177,5.91758 l 6.9547,-4.86783 0.0124,52.02335 c 0.007,28.61284 0.62441,64.12958 1.37247,78.9261 l 1.36014,26.90274 -3.75868,3.06686 c -9.5765,7.81388 -10.33089,8.68272 -9.49833,10.93932 0.76921,2.08489 1.39487,2.10704 6.50848,0.23051 3.11161,-1.14186 6.20572,-1.72368 6.87581,-1.29293 0.67004,0.43075 1.2183,6.76535 1.2183,14.07691 0,11.81134 -0.28867,13.38903 -2.58871,14.1483 -3.93064,1.29757 -13.77372,9.06867 -13.77372,10.87435 0,1.10479 2.46254,1.30272 8.04093,0.64629 l 8.04092,-0.94621 1.00965,18.1361 c 1.69202,30.39333 1.42106,77.1751 -0.67183,115.99268 -2.46283,45.67878 -2.64128,112.4823 -0.42054,157.42142 0.92509,18.72039 2.28909,64.98952 3.03107,102.8203 0.74198,37.83078 1.68973,76.28203 2.10609,85.44721 l 0.75701,16.66398 -17.08256,0 -17.08257,0 -0.005,-5.31829 z m 21.29129,-509.75162 c 2.40435,-2.50076 1.12797,-6.841 -2.00222,-6.80841 -3.15624,0.0329 -12.8115,5.96355 -13.5606,8.32952 -0.85614,2.70403 12.78218,1.37102 15.56282,-1.52111 z"
       id="path4290"
       inkscape:connector-curvature="0"
       inkscape:export-xdpi="90"
       inkscape:export-ydpi="90" />
    <path
       style="opacity:1;fill:#deaa87;fill-opacity:1;fill-rule:nonzero;stroke:none;stroke-width:5.9000001;stroke-miterlimit:4;stroke-dasharray:none;stroke-opacity:1"
       d="m 163.61493,924.69333 c -2.99422,-0.47989 -3.74927,-1.54758 -4.61356,-6.52401 -0.56837,-3.27262 -1.21523,-55.09123 -1.43746,-115.15247 -0.22222,-60.06124 -1.1833,-126.43351 -2.13572,-147.49394 -1.24865,-27.61059 -1.66566,-94.86207 -1.49499,-241.09588 0.13018,-111.5423 0.27219,-205.35696 0.31558,-208.47702 l 0.0789,-5.67284 3.50621,4.25463 c 11.95046,14.50134 11.12572,13.84346 16.13027,12.86696 4.02492,-0.78537 5.01546,-0.40367 6.95906,2.6816 3.57719,5.67837 6.98885,4.54819 6.08019,-2.0142 -0.15733,-1.13628 -5.95923,-9.75192 -12.89311,-19.14586 -14.82876,-20.08983 -20.55611,-28.89255 -19.50787,-29.98282 0.41802,-0.43478 3.23176,2.68955 6.25279,6.94294 12.42061,17.48733 19.31696,25.10585 22.72604,25.10585 4.33828,0 5.73255,-5.25294 2.90421,-10.94169 -2.58716,-5.20361 -4.76683,-7.08964 -8.91471,-7.71372 -2.4673,-0.37121 -5.69254,-4.45512 -13.2676,-16.79987 -5.50433,-8.97019 -9.99232,-16.94762 -9.9733,-17.72764 0.0437,-1.79162 10.63039,10.02702 31.96042,35.67959 l 16.69585,20.07926 0.10788,101.03087 c 0.0626,58.63535 0.84974,118.35109 1.87576,142.3059 1.85956,43.41587 2.11401,69.17313 0.80002,80.98494 -0.43387,3.90009 -1.46088,24.00322 -2.28225,44.67364 -1.58387,39.85911 -0.1794,133.35979 2.51375,167.34891 0.77255,9.7502 2.349,39.74536 3.50321,66.65592 1.1542,26.91055 2.67511,62.01128 3.37977,78.00161 0.70467,15.99033 1.29732,31.78565 1.31701,35.10072 l 0.0358,6.02739 -23.521,-0.21248 c -12.93655,-0.11686 -25.13207,-0.47071 -27.10114,-0.78629 z m 13.80666,-556.2321 c 0,-3.12374 -6.18457,-8.93643 -13.81743,-12.98657 -7.48849,-3.97352 -6.79708,-0.88958 1.83991,8.20672 7.35906,7.75043 11.97752,9.5935 11.97752,4.77985 z m 2.10659,-36.79871 c -0.91961,-3.01362 -9.14112,-10.38546 -13.35576,-11.9755 -4.66525,-1.76002 -2.44171,3.61286 4.47045,10.80218 4.87319,5.06859 7.27899,6.69229 8.31667,5.61299 0.80301,-0.8352 1.0589,-2.83305 0.56864,-4.43967 z m -1.16421,-37.9784 c 0.60632,-1.64341 -2.05958,-5.27109 -9.11937,-12.40935 -6.06851,-6.13597 -10.20976,-9.37486 -10.57253,-8.26884 -0.70151,2.13877 2.13228,6.96859 9.54252,16.26398 5.59217,7.01476 8.69245,8.36316 10.14938,4.41421 z m -2.30591,-52.15149 c 0,-2.01325 -9.55419,-15.39894 -12.20945,-17.10578 -2.23999,-1.4399 -1.67163,3.91033 0.8285,7.79905 3.18178,4.94896 8.95799,11.3067 10.27251,11.3067 0.60965,0 1.10844,-0.89999 1.10844,-1.99997 z"
       id="path4292"
       inkscape:connector-curvature="0"
       inkscape:export-xdpi="90"
       inkscape:export-ydpi="90" />
    <path
       style="opacity:1;fill:#deaa87;fill-opacity:1;fill-rule:nonzero;stroke:none;stroke-width:5.9000001;stroke-miterlimit:4;stroke-dasharray:none;stroke-opacity:1"
       d="m 212.87354,195.66523 c -1.87487,-0.35278 -5.1083,-2.75235 -7.1854,-5.33238 -3.2517,-4.03904 -3.56543,-5.17288 -2.25749,-8.1586 1.82991,-4.17728 -0.84039,-10.32906 -11.41643,-26.3008 -7.37333,-11.13507 -11.07152,-14.67994 -14.0674,-13.48422 -3.00852,1.20077 -2.29158,3.54824 4.41212,14.44632 3.46548,5.63378 6.01396,10.54164 5.6633,10.90637 -0.35066,0.36473 -6.24359,-5.88683 -13.09537,-13.89235 l -12.4578,-14.55548 8.49892,-0.44675 c 4.6744,-0.24572 10.95327,-0.0705 13.95306,0.38931 4.88579,0.74895 5.71018,1.48067 7.91121,7.02185 3.11197,7.83454 10.04635,19.27249 11.68414,19.27249 2.49827,0 2.58827,-3.93403 0.25406,-11.10557 -1.31239,-4.03215 -2.01289,-7.33117 -1.55664,-7.33117 0.45623,0 4.52269,6.21747 9.03658,13.8166 8.02376,13.50802 12.89496,17.97613 12.89496,11.82793 0,-1.6102 -3.06796,-9.06416 -6.81769,-16.56434 -3.74972,-7.50019 -6.81768,-14.13869 -6.81768,-14.75224 0,-0.61355 0.90378,-1.47626 2.00839,-1.91713 2.9806,-1.18963 9.46501,5.17926 14.2481,13.99428 2.32094,4.27735 5.13501,7.77701 6.25353,7.77701 2.74255,0 2.65483,-6.8371 -0.18236,-14.21224 -1.21879,-3.16821 -1.93253,-6.05521 -1.58608,-6.41556 1.12661,-1.17178 144.39861,-3.42541 219.58167,-3.45396 53.44826,-0.0203 73.29007,0.40464 73.29007,1.56959 0,0.87858 -3.16599,6.9671 -7.03554,13.53006 -4.82042,8.17568 -6.59398,12.39188 -5.63312,13.39128 1.86503,1.93982 16.6367,-12.26411 22.43733,-21.57496 2.58405,-4.14778 5.33159,-6.9438 6.8234,-6.9438 3.51218,0 3.11455,2.32351 -1.42124,8.30518 -4.98366,6.57225 -12.44376,18.81768 -12.44376,20.42585 0,0.67633 1.07379,1.04596 2.38619,0.8214 1.3124,-0.22458 3.07651,0.0428 3.92025,0.59415 0.84374,0.55136 4.0598,-0.90051 7.14678,-3.22637 5.40807,-4.07467 8.36335,-5.24318 8.36335,-3.30684 0,0.5071 -3.04354,5.85686 -6.76344,11.88837 -3.71988,6.0315 -7.86162,13.43449 -9.20386,16.45109 -1.34223,3.0166 -3.05402,5.95359 -3.80397,6.52666 -1.44022,1.10054 -311.17561,1.11907 -317.02214,0.019 z"
       id="path4294"
       inkscape:connector-curvature="0"
       inkscape:export-xdpi="90"
       inkscape:export-ydpi="90" />
    <path
       style="opacity:1;fill:#deaa87;fill-opacity:1;fill-rule:nonzero;stroke:none;stroke-width:5.9000001;stroke-miterlimit:4;stroke-dasharray:none;stroke-opacity:1"
       d="m 540.88879,194.03796 c -1.23665,-2.08118 26.83434,-41.4885 35.90139,-50.40002 7.38632,-7.25963 4.93572,-0.66508 -5.05161,13.59386 -5.10934,7.29461 -12.2739,17.68333 -15.9212,23.08604 -9.50478,14.07926 -12.87479,17.17647 -14.92858,13.72012 z"
       id="path4298"
       inkscape:connector-curvature="0"
       inkscape:export-xdpi="90"
       inkscape:export-ydpi="90" />
    <path
       style="opacity:1;fill:#deaa87;fill-opacity:1;fill-rule:nonzero;stroke:none;stroke-width:5.9000001;stroke-miterlimit:4;stroke-dasharray:none;stroke-opacity:1"
       d="m 257.87022,927.15138 c -14.62392,-0.59517 -28.73652,-1.16664 -31.36132,-1.26993 l -4.77239,-0.1878 0,-20.21027 c 0,-28.03763 -3.14488,-115.17472 -5.69435,-157.77676 -1.24131,-20.74252 -2.40427,-67.82336 -2.80252,-113.45689 -0.60083,-68.84546 -0.39717,-80.41549 1.73501,-98.56566 2.17003,-18.47241 2.25489,-24.38672 0.83434,-58.14665 -2.16008,-51.33521 -4.90361,-243.24687 -3.69342,-258.35751 0.95148,-11.88042 1.0845,-12.24714 4.61855,-12.73366 2.00137,-0.27552 34.93202,0.0394 73.1792,0.69972 69.4601,1.19928 246.06954,-0.7423 252.81108,-2.77932 l 3.28393,-0.99227 -0.89049,25.3974 c -1.96039,55.91048 -3.87775,451.67119 -2.34578,484.18867 0.82683,17.55036 2.4031,58.07574 3.50282,90.0564 1.09972,31.98066 2.56798,64.5286 3.26279,72.32876 0.6948,7.80016 1.70048,22.63819 2.23481,32.97341 l 0.97151,18.79129 -86.41864,0.003 c -47.53025,5.4e-4 -107.89434,0.25326 -134.14241,0.56095 -26.24807,0.30767 -59.68879,0.0724 -74.31272,-0.52272 z M 516.3485,876.40927 c -0.52426,-17.74537 -1.51316,-45.6664 -2.19752,-62.04673 -2.33212,-55.81863 -2.99493,-177.93365 -1.3086,-241.09588 1.51273,-56.65957 4.24427,-239.93781 4.61839,-309.87911 0.12544,-23.46038 -0.26767,-31.27916 -1.70492,-33.90718 l -1.86798,-3.41565 -88.80717,0.87805 c -85.63192,0.84664 -144.23913,2.6024 -171.2038,5.12893 -10.03849,0.9406 -13.28367,1.78462 -14.80615,3.85089 -2.70413,3.66994 -1.41937,120.39663 2.54225,230.97825 2.10898,58.86839 2.81537,98.99064 2.48441,141.11199 -0.25436,32.37067 -0.46236,112.65887 -0.46224,178.41821 1.9e-4,103.64316 0.26707,119.738 2.00438,120.88078 1.19939,0.78895 56.14388,1.32704 136.83316,1.34004 l 134.829,0.0218 -0.95321,-32.2643 z"
       id="path4300"
       inkscape:connector-curvature="0"
       inkscape:export-xdpi="90"
       inkscape:export-ydpi="90" />
    <path
       style="opacity:1;fill:#784421;fill-opacity:1;fill-rule:nonzero;stroke:none;stroke-width:5.9000001;stroke-miterlimit:4;stroke-dasharray:none;stroke-opacity:1"
       d="m 256.16581,899.21696 c -2.25667,-0.642 -2.3869,-10.54574 -2.39911,-182.46042 -0.007,-99.97987 -0.60413,-197.09825 -1.32671,-215.81864 -1.4796,-38.33303 -3.56641,-125.74268 -4.88032,-204.42067 l -0.87962,-52.6721 7.98127,-0.87543 c 23.38216,-2.56468 80.52955,-4.06318 162.40175,-4.25847 l 91.6978,-0.21872 0,18.81214 c 0,10.34667 -0.88912,32.06248 -1.97582,48.25735 -2.15256,32.07929 -4.03403,202.36421 -4.10173,371.23407 -0.0289,72.15735 0.60328,111.72928 2.51102,157.17022 1.79291,42.7059 2.12151,61.17721 1.10712,62.23227 -0.98819,1.02782 -39.37265,1.59471 -121.86894,1.79982 -66.23451,0.16469 -121.65357,0.65896 -123.15345,1.09842 -1.4999,0.43945 -3.80086,0.49353 -5.11326,0.12013 l 0,3e-5 z m 232.73317,-18.80923 3.82843,-4.15625 -1.4998,-41.75024 c -1.46808,-40.86735 -4.55398,-77.23829 -7.15761,-84.36096 l -1.30677,-3.57487 -17.33985,0.89393 c -9.53693,0.49167 -29.1515,1.32652 -43.58793,1.85523 -19.44652,0.71223 -26.24807,1.41598 -26.24807,2.71594 0,0.96502 -0.92959,2.12562 -2.06578,2.5791 -1.13616,0.45347 -2.59299,2.27678 -3.2374,4.0518 -0.83395,2.29715 4.13785,120.40163 5.222,124.04826 0.26205,0.88141 16.21303,1.38766 50.61779,1.60654 l 38.94656,0.24778 3.82843,-4.15626 z m -127.80953,-0.94674 c 4.17929,-0.5271 5.96188,-1.49393 6.59801,-3.57854 0.47938,-1.57097 0.10132,-15.73653 -0.84016,-31.47901 -0.94146,-15.74248 -1.76299,-42.82683 -1.82562,-60.18743 -0.0966,-26.76768 -0.4247,-31.65877 -2.15917,-32.18352 -8.28334,-2.50604 -59.48011,-5.20819 -77.29267,-4.07948 l -13.81913,0.87565 -4.24292,6.26084 c -2.33361,3.44348 -3.98103,6.70159 -3.66094,7.24025 0.32007,0.53868 1.34381,26.5067 2.27497,57.70674 0.93115,31.20003 2.26153,57.48719 2.9564,58.41591 0.69487,0.92872 2.90588,1.96186 4.91334,2.29584 4.66833,0.77673 79.50241,-0.32929 87.09789,-1.28725 z M 481.93906,728.65096 c 2.87171,-0.69321 5.40205,-1.47572 5.623,-1.73894 0.78728,-0.9379 -2.3576,-150.82681 -3.18421,-151.7639 -0.46332,-0.52523 -21.22101,-1.16341 -46.12818,-1.41821 l -45.28582,-0.46325 -3.11971,3.22856 c -3.07461,3.18184 -3.12701,3.79753 -3.62102,42.54634 -0.62111,48.71834 1.91113,99.8795 5.14944,104.039 1.78061,2.28716 5.2211,3.19209 17.86803,4.6997 18.1202,2.16007 65.02953,2.72189 72.69847,0.8707 z m -115.95941,-4.61645 c 2.27657,-2.80942 2.40994,-7.4526 2.0453,-71.21377 l -0.39007,-68.20839 -3.18058,-5.32068 c -1.80257,-3.01544 -4.75637,-5.78047 -6.81767,-6.38194 -2.00042,-0.58371 -22.53338,-1.0173 -45.62882,-0.96355 l -41.99171,0.0977 -3.13094,3.44778 c -3.01028,3.31494 -3.08813,3.99428 -2.02024,17.62991 0.61089,7.80016 1.02835,40.51063 0.92771,72.68993 -0.10064,32.1793 0.27319,58.98349 0.83075,59.56486 1.48515,1.54859 46.92278,2.93757 73.74078,2.25416 21.56776,-0.54962 23.34951,-0.79974 25.61549,-3.59606 l 0,3e-5 z m 119.16751,-176.15792 3.80906,-3.40781 1.23306,-64.81266 c 1.32153,-69.46325 1.55301,-66.48898 -5.29029,-67.97278 -1.49989,-0.32523 -20.24238,-1.36071 -41.65,-2.30111 -35.74963,-1.57043 -39.28395,-1.51566 -43.35085,0.67176 -2.43536,1.30986 -5.01515,3.98804 -5.73288,5.9515 -1.52769,4.17926 -1.77601,129.49165 -0.26143,131.92386 1.72564,2.77113 5.41369,3.02178 46.94509,3.19053 l 40.48915,0.16451 3.80909,-3.4078 z m -162.69341,-1.43881 c 36.08021,-1.48028 46.44945,-2.32033 47.42753,-3.84223 0.69266,-1.0778 0.9067,-8.9155 0.47921,-17.54806 -0.42489,-8.58018 -1.67427,-34.23174 -2.7764,-57.00349 -1.10214,-22.77173 -2.54495,-42.87488 -3.20624,-44.67365 -0.66131,-1.79876 -2.49655,-4.483 -4.07833,-5.96499 -2.73587,-2.56328 -4.97667,-2.65697 -46.00585,-1.92339 -29.77977,0.53243 -43.42377,1.26567 -44.07929,2.36885 -0.52215,0.87875 -1.6897,26.95297 -2.59454,57.94273 -0.90484,30.98975 -1.99494,60.01462 -2.42243,64.49971 l -0.77727,8.15471 5.92891,-0.0579 c 3.26091,-0.0318 26.70802,-0.91035 52.1047,-1.95232 z m 36.93749,-155.56084 c 5.86041,-3.59637 6.0497,-5.18308 4.70608,-39.44946 -0.59881,-15.27127 -1.12515,-39.25346 -1.16967,-53.29376 -0.0916,-28.876 -1.57573,-41.64313 -5.16002,-44.38726 -1.87893,-1.43851 -11.69806,-1.74853 -44.91785,-1.41822 -40.77601,0.40545 -42.67047,0.54485 -46.36023,3.41122 l -3.84695,2.98847 -0.35115,35.30322 c -0.40403,40.61955 1.223,96.2465 2.86518,97.95806 1.18173,1.23168 73.7884,3.15607 83.81499,2.22146 3.23421,-0.30147 7.92304,-1.80165 10.41962,-3.33373 z m 127.62029,-1.46008 c 2.7155,-3.24865 2.77938,-4.4683 2.03297,-38.80933 -0.66356,-30.52903 0.66267,-87.91171 2.17827,-94.24881 0.35381,-1.47931 -1.24659,-2.34974 -5.642,-3.06861 -12.32216,-2.01526 -65.5665,-4.40653 -75.83402,-3.40581 -9.17152,0.8939 -11.08133,1.57434 -14.55262,5.18482 l -3.99567,4.15588 1.00354,54.35088 c 0.55195,29.89298 1.38605,59.70788 1.85357,66.25532 l 0.85003,11.90446 15.68067,0.88051 c 8.62436,0.48427 28.71739,0.7172 44.65117,0.51761 28.55773,-0.3577 29.01045,-0.41065 31.77409,-3.71692 z"
       id="path4302"
       inkscape:connector-curvature="0"
       inkscape:export-xdpi="90"
       inkscape:export-ydpi="90" />
    <path
       style="opacity:1;fill:#deaa87;fill-opacity:1;fill-rule:nonzero;stroke:none;stroke-width:5.9000001;stroke-miterlimit:4;stroke-dasharray:none;stroke-opacity:1"
       d="m 126.47449,955.67286 c -10.09932,-0.85467 -10.575,-1.04281 -8.18122,-3.23575 1.39787,-1.28058 9.58007,-5.98356 18.18268,-10.45106 l 15.64111,-8.12273 59.35339,1.86212 c 32.64434,1.02418 134.82509,2.21708 227.06831,2.65091 l 167.71495,0.78876 12.27182,6.58672 12.27182,6.58672 -6.1359,0.94371 c -11.37784,1.74993 -137.95149,2.91019 -194.98568,1.78737 -50.96585,-1.00336 -88.72641,-0.85497 -245.43649,0.96449 -25.8731,0.3004 -51.86726,0.13784 -57.76479,-0.36126 z"
       id="path4304"
       inkscape:connector-curvature="0"
       inkscape:export-xdpi="90"
       inkscape:export-ydpi="90" />
  </g>
</svg>
