<?xml version="1.0" encoding="UTF-8" standalone="no"?>
<!-- Created with Inkscape (http://www.inkscape.org/) -->

<svg
   xmlns:dc="http://purl.org/dc/elements/1.1/"
   xmlns:cc="http://creativecommons.org/ns#"
   xmlns:rdf="http://www.w3.org/1999/02/22-rdf-syntax-ns#"
   xmlns:svg="http://www.w3.org/2000/svg"
   xmlns="http://www.w3.org/2000/svg"
   xmlns:sodipodi="http://sodipodi.sourceforge.net/DTD/sodipodi-0.dtd"
   xmlns:inkscape="http://www.inkscape.org/namespaces/inkscape"
   width="210mm"
   height="297mm"
   viewBox="0 0 744.09448819 1052.3622047"
   id="svg2"
   version="1.1"
   inkscape:version="0.91 r13725"
   inkscape:export-filename="/Users/larsaeschlimann/Documents/02_BFH/09_Informatik/Softwareprojekt_SuperTeacher/SuperTeacher/assets/graphics/backgrounds/Window"
   inkscape:export-xdpi="90"
   inkscape:export-ydpi="90"
   sodipodi:docname="Window.svg">
  <defs
     id="defs4" />
  <sodipodi:namedview
     id="base"
     pagecolor="#ffffff"
     bordercolor="#666666"
     borderopacity="1.0"
     inkscape:pageopacity="0.0"
     inkscape:pageshadow="2"
     inkscape:zoom="1.0959703"
     inkscape:cx="296.55072"
     inkscape:cy="430.88204"
     inkscape:document-units="px"
     inkscape:current-layer="layer1"
     showgrid="false"
     inkscape:window-width="1440"
     inkscape:window-height="851"
     inkscape:window-x="7"
     inkscape:window-y="0"
     inkscape:window-maximized="0" />
  <metadata
     id="metadata7">
    <rdf:RDF>
      <cc:Work
         rdf:about="">
        <dc:format>image/svg+xml</dc:format>
        <dc:type
           rdf:resource="http://purl.org/dc/dcmitype/StillImage" />
        <dc:title></dc:title>
      </cc:Work>
    </rdf:RDF>
  </metadata>
  <g
     inkscape:label="Ebene 1"
     inkscape:groupmode="layer"
     id="layer1">
    <g
       id="g4271"
       style="fill:#000000"
       transform="matrix(2.8927685,0,0,2.8927685,-661.60573,-709.29397)">
      <path
         inkscape:connector-curvature="0"
         id="path4205"
         d="m 266.63134,579.01721 c -1.53968,-0.6474 -2.28973,-1.51137 -2.6873,-3.09543 -0.5161,-2.05632 1.78222,-3.95567 9.65374,-7.9779 3.95869,-2.02283 7.32275,-3.75341 7.47568,-3.84572 0.15293,-0.0923 0.0832,-1.64199 -0.15501,-3.44372 -0.23818,-1.80174 -0.5007,-23.44319 -0.58336,-48.09213 -0.0959,-28.58031 -0.34162,-46.38748 -0.67838,-49.15332 l 0.11995,-172.71962 c 0,-0.34363 8.80865,-0.53713 24.02928,-0.47861 12.25821,0.0471 43.97294,-0.0309 70.47718,-0.17346 49.82759,-0.2805 47.87288,-0.0672 68.26312,0.22007 -0.11697,26.66884 -1.32976,48.52107 -1.0545,81.13365 0.66528,7.92025 0.93869,15.92862 0.96988,28.40783 -0.0606,30.09762 -1.63489,54.31571 -0.5146,83.84977 1.28182,30.77458 1.67131,44.06479 1.77944,60.7188 0.0637,9.80657 0.29686,18.68481 0.51818,19.72943 0.39202,1.85027 0.54783,1.97098 6.03508,4.67573 5.48171,2.70201 6.94669,3.92257 7.14656,5.95424 0.19121,1.94363 -0.0426,2.55694 -1.2856,3.37134 -1.13566,0.74411 -3.50969,0.86209 -22.5286,1.11955 -48.57889,0.3993 -105.61098,0.0773 -166.98063,-0.20048 l -2e-5,2e-5 z m 186.66279,-4.56332 c -0.12223,-0.19778 -2.33632,-1.37494 -4.92019,-2.6159 l -4.69795,-2.25629 -42.64773,-0.0466 c -23.45625,-0.0256 -47.41849,0.0878 -53.24942,0.25207 -5.83093,0.16429 -12.98708,0.11819 -15.90254,-0.10244 -6.68641,-0.50601 -27.79223,-1.1303 -40.72015,-1.20446 l -9.87885,-0.0567 -4.81895,2.38279 c -5.43269,2.68625 -7.5895,4.05908 -7.24722,4.61291 91.76275,-0.53331 80.39596,-0.30061 184.083,-0.96538 z m -62.09031,-8.70175 c 19.06109,0.1023 33.88971,-0.003 34.02256,-0.24096 0.33105,-0.59371 -0.43015,-13.93579 -1.30055,-22.79548 -0.40171,-4.08893 -0.74427,-12.32934 -0.76125,-18.31201 -0.017,-5.98268 -0.22976,-13.47983 -0.47287,-16.66034 -1.20493,-15.76407 -1.57229,-37.04165 -1.08574,-62.88732 0.12723,-6.75858 0.29796,-29.20285 0.37939,-49.87616 0.0814,-20.6733 0.30333,-46.7781 0.49311,-58.01066 l 0.34506,-20.42284 -1.62115,0.29348 c -5.42104,0.9814 -92.84338,1.19917 -117.16547,0.36854 l 4.48105,247.94974 c 6.83905,0.002 24.30097,0.72386 24.56112,0.97822 0.13146,0.12852 5.6612,0.0538 12.28833,-0.16595 6.62714,-0.21979 27.25352,-0.31802 45.83641,-0.21828 z m -91.17854,-249.41513 -2.62745,-3.12616 c -6.36259,-7.57022 -14.67748,-16.77066 -14.80654,-16.38347 -0.0775,0.23261 1.24626,2.46162 2.94178,4.95335 1.69551,2.49173 3.45097,5.25054 3.90103,6.13068 0.67139,1.313 0.94345,1.49638 1.51556,1.02157 0.56773,-0.47118 1.01453,-0.2423 2.4049,1.23192 1.41167,1.4968 1.68234,2.11319 1.56172,3.55643 -0.1242,1.48599 -0.33626,1.76786 -1.42486,1.89385 -1.06216,0.12293 -1.75647,-0.40958 -4.09611,-3.1415 -1.54944,-1.80924 -3.68457,-4.55992 -4.74474,-6.11262 -1.21373,-1.7776 -1.98354,-2.54173 -2.07868,-2.06334 -0.0831,0.41787 2.19867,3.7525 5.07061,7.41028 7.14815,9.1041 7.48703,9.61501 7.12797,10.74631 -0.3891,1.22596 -2.01116,1.25565 -2.39577,0.0439 -0.51277,-1.6156 -1.56578,-2.17461 -2.44332,-1.29707 -1.07536,1.07536 -2.07899,0.4288 -4.8872,-3.14843 l -2.32119,-2.95683 -0.24095,7.17315 c -0.13252,3.94523 -0.0771,9.23324 0.12321,11.75115 2.84061,42.61941 0.22769,88.3229 0.32544,129.45755 0.56136,6.46445 1.38166,39.06616 1.11983,44.50662 -0.46112,9.58149 -0.19963,49.24747 0.34855,52.87272 l 0.59885,3.96035 c 4.94319,0.12007 9.88811,0.26668 14.83235,0.27151 l 4.09611,0 z M 440.29101,561.3542 c -0.21517,-2.1866 -0.4351,-10.15594 -0.48874,-17.70965 -3.01369,-49.70588 -0.59865,-100.92236 -1.30322,-149.4052 l -2.47147,0.30973 c -1.35931,0.17035 -2.68833,0.33697 -2.95337,0.37026 -0.26505,0.0333 -0.4819,-0.34282 -0.4819,-0.83579 0,-0.59638 0.96755,-1.43198 2.89137,-2.49706 l 2.89137,-1.60074 0.0329,-4.49042 c 0.0181,-2.46973 -0.0425,-4.64263 -0.1346,-4.82867 -0.0921,-0.18603 -1.1221,0.071 -2.28886,0.57109 -1.90707,0.81746 -2.18397,0.83389 -2.74112,0.16257 -0.66107,-0.79654 -0.41727,-1.09012 3.35157,-4.03585 l 1.57493,-1.23096 -0.52155,-5.51557 c -0.28686,-3.03357 -0.51725,-15.25238 -0.51198,-27.15293 l 0.01,-21.63735 -1.07207,0.96735 c -1.23598,1.11521 -4.05086,2.551 -5.0013,2.551 -1.15017,0 -0.69168,-1.40159 0.90521,-2.76718 0.85471,-0.73091 2.14982,-1.94178 2.87803,-2.69082 0.72821,-0.74905 1.52415,-1.23821 1.76876,-1.08704 0.51355,0.3174 1.02762,-0.7981 1.02762,-2.22986 0,-0.84371 -0.31093,-0.69915 -2.15776,1.0032 -1.18677,1.09393 -2.47509,1.98896 -2.86293,1.98896 -1.38564,0 -1.32542,-1.06988 0.15816,-2.81001 4.63882,-5.44099 5.34443,-6.48171 5.34443,-7.88271 0,-1.40024 -0.0745,-1.3511 -2.1635,1.42793 -2.12776,2.83054 -4.98667,5.40963 -5.99657,5.40963 -1.15239,0 -0.37643,-1.70208 1.9229,-4.21792 1.58958,-1.73925 2.27294,-2.83044 1.96525,-3.13813 -0.66134,-0.66133 -0.18505,-1.65823 2.18388,-4.57098 1.25706,-1.54564 1.9471,-2.81827 1.77347,-3.27075 -0.15632,-0.40736 0.10217,-1.16762 0.57443,-1.68946 0.47225,-0.52184 0.7483,-1.05914 0.61344,-1.19401 -0.33141,-0.3314 -3.27671,3.53265 -8.55524,11.22392 l -4.38874,6.3948 0.1321,15.77238 c 0.0727,8.67481 -0.0363,19.67574 -0.24219,24.4465 -0.31685,7.34291 -0.87637,73.95582 -0.93504,111.3178 -0.0233,14.85883 0.39302,29.52497 1.04656,36.86498 0.29498,3.31303 0.5373,11.33659 0.53849,17.83013 9.6e-4,6.49354 0.30875,16.03506 0.68348,21.20339 0.37472,5.16832 0.83167,12.37868 1.01543,16.02301 l 0.33412,6.62606 6.02288,0 6.02289,0 -0.39123,-3.97563 z M 284.58041,313.48543 c -1.05138,-1.28307 -1.90642,-1.9674 -2.02262,-1.6188 -0.15693,0.4708 3.00078,3.74159 3.6912,3.82338 0.084,0.01 -0.66686,-0.98211 -1.66858,-2.20458 z m 127.89286,0.38749 c 4.56876,-0.0779 5.42133,-0.21152 5.42133,-0.8499 0,-0.9424 1.9153,-4.32663 4.68669,-8.2811 2.52237,-3.59916 2.30326,-4.66851 -0.47015,-2.29457 -1.96468,1.68169 -3.25275,2.15547 -3.25275,1.19642 0,-0.32975 -0.34425,-0.31461 -1.01553,0.0446 -2.10485,1.12648 -1.824,-0.36872 0.76897,-4.094 1.44956,-2.08254 2.96544,-4.15096 3.36864,-4.59649 1.01624,-1.12293 0.92008,-1.45699 -0.41942,-1.45699 -0.8024,0 -1.23743,0.3384 -1.43209,1.11401 -0.37769,1.50482 -7.56095,9.01251 -8.61948,9.00877 -1.42566,-0.005 -0.95618,-1.41373 1.87443,-5.62425 1.49476,-2.22345 2.60833,-4.15204 2.4746,-4.28577 -0.74755,-0.74756 -104.5074,0.23583 -105.33969,0.99835 -0.0848,0.0777 0.30729,1.04556 0.8712,2.15092 1.22677,2.40466 1.16278,5.07113 -0.1217,5.07113 -0.56014,0 -1.3901,-1.05688 -2.43235,-3.09739 -1.78175,-3.4883 -3.41729,-4.98297 -4.99052,-4.56068 -1.03932,0.27897 -1.03732,0.29298 0.38761,2.70966 2.91018,4.93568 4.31951,8.13352 4.01182,9.10299 -0.5732,1.80599 -1.85656,0.66796 -4.62235,-4.09892 -3.03756,-5.2353 -4.33689,-6.89898 -3.05432,-3.91082 1.15788,2.69768 1.35835,3.88021 0.82068,4.84098 -0.43549,0.77817 -0.51721,0.77326 -1.29138,-0.0775 -1.29165,-1.4195 -4.03964,-6.33988 -4.20982,-7.53782 -0.14636,-1.03026 -0.38886,-1.08744 -5.18761,-1.22331 l -5.03408,-0.14254 0.93018,1.10633 c 0.5116,0.60847 2.24048,2.51586 3.84196,4.23864 1.60147,1.72277 3.73279,4.10816 4.73626,5.30085 1.04584,1.24305 0.37206,-0.002 -1.57877,-2.91823 -3.8178,-5.70635 -4.11768,-6.71968 -1.98861,-6.71968 1.26324,0 1.83061,0.60415 5.30085,5.64446 2.87702,4.1787 3.88619,6.04536 3.88619,7.18827 0,0.8491 -0.27107,1.6538 -0.60237,1.78823 -0.40377,0.16384 -0.43801,0.37568 -0.10386,0.64253 0.27418,0.21896 0.99818,1.04867 1.6089,1.84379 l 1.11039,1.44569 9.71563,0.24095 c 9.06035,0.22469 87.91139,0.29759 99.95052,0.0924 z m 10.83338,-1.17666 c 0.42752,-0.3313 2.38028,-2.99547 4.33947,-5.92038 1.95919,-2.9249 4.57835,-6.56563 5.82038,-8.09049 2.16765,-2.6613 2.92428,-4.43867 1.65585,-3.88974 -1.40502,0.60805 -13.80514,16.85793 -13.84364,18.14156 -0.017,0.56519 1.16961,0.42421 2.02794,-0.24095 z M 300.55311,294.98661 c 0.16958,-0.27439 -0.24542,-0.48189 -0.96379,-0.48189 -0.71837,0 -1.13338,0.2075 -0.96379,0.48189 0.1638,0.26504 0.59751,0.4819 0.96379,0.4819 0.36628,0 0.79998,-0.21686 0.96379,-0.4819 z"
         style="opacity:1;fill:#000000;fill-opacity:1;fill-rule:nonzero;stroke:none;stroke-width:5.9000001;stroke-miterlimit:4;stroke-dasharray:none;stroke-opacity:1"
         sodipodi:nodetypes="cssccsccscccccssssccccccscsssscsccccsssssscscccscccscssssssssssscsscsccsscccccccscsscsccsscscccssscsssssssssssscscsssscsscccccsscscsssscsssscsscssssssssscsscssscsssssscsccsssscscscsc" />
      <path
         inkscape:connector-curvature="0"
         id="path4207"
         d="m 317.56017,559.55342 c -1.24781,-0.1579 -2.40413,-0.42247 -2.56959,-0.58792 -0.61172,-0.61172 -0.79153,-77.40816 -0.2102,-89.77376 0.31151,-6.62606 0.57241,-12.37266 0.57978,-12.77023 0.0402,-2.16826 -1.15316,-42.39575 -1.54392,-52.04468 -1.40587,-34.71445 -1.95037,-75.28038 -1.03346,-76.99364 0.67921,-1.26911 1.79412,-1.37917 23.67152,-2.33675 11.33052,-0.49595 28.76425,-0.81228 46.73891,-0.84808 l 28.66782,-0.0571 0.79175,1.67593 c 0.67738,1.43384 0.77466,3.34811 0.67346,13.25212 -0.065,6.3669 -0.37446,14.17842 -0.68756,17.35893 -0.3886,3.9473 -0.52953,15.64827 -0.444,36.86499 0.0689,17.09523 -0.0325,31.33674 -0.22541,31.6478 -0.9424,1.5198 -1.29901,72.95579 -0.45784,91.71737 0.5759,12.84517 1.29567,34.51295 1.31264,39.51541 l 0.0106,3.13232 -46.02099,0.007 c -25.31155,0.004 -46.23785,0.12399 -46.50289,0.26717 -0.26505,0.14319 -1.50283,0.13116 -2.75065,-0.0267 l -2e-5,0 z m 22.2674,-4.09315 c 21.63854,-0.39208 28.26289,-0.39184 48.77712,0.002 19.31628,0.37062 20.11776,0.35077 20.44672,-0.50648 0.18831,-0.49073 0.0829,-6.54346 -0.2343,-13.45052 -1.2505,-27.23223 -1.74843,-44.56634 -1.71733,-59.78402 0.0434,-21.21469 0.65277,-54.36275 1.09857,-59.75501 0.19721,-2.38538 0.19009,-15.1797 -0.0158,-28.43182 -0.36051,-23.20119 -0.14878,-32.41366 1.05794,-46.03323 0.27065,-3.05471 0.43852,-8.66336 0.37304,-12.46365 l -0.11908,-6.90978 -9.17252,0.29068 c -13.43025,0.42561 -27.48001,0.41059 -31.35806,-0.0335 -1.8654,-0.21362 -7.72042,-0.24039 -13.01117,-0.0595 -18.79521,0.64266 -35.67216,1.39379 -37.76658,1.68083 l -2.12469,0.2912 0.36572,23.90808 c 0.49032,32.05345 0.80466,44.4252 1.72164,67.76054 0.52738,13.42096 0.55335,21.89177 0.26353,85.98879 -0.11796,26.09044 -0.0911,47.63681 0.0597,47.88083 0.15684,0.25378 2.15586,0.31605 4.6707,0.14549 2.41808,-0.164 9.92625,-0.39837 16.68483,-0.52084 z"
         style="opacity:1;fill:#000000;fill-opacity:1;fill-rule:nonzero;stroke:none;stroke-width:5.9000001;stroke-miterlimit:4;stroke-dasharray:none;stroke-opacity:1" />
      <path
         inkscape:connector-curvature="0"
         id="path4209"
         d="m 322.94856,389.33245 37.07357,-0.1461 -0.0301,46.42036 -36.82546,-0.0266 z m 33.04151,41.41909 -0.006,-37.22156 -28.85796,0.12994 0.17881,37.17828 z"
         style="opacity:1;fill:#000000;fill-opacity:1;fill-rule:nonzero;stroke:none;stroke-width:5.9000001;stroke-miterlimit:4;stroke-dasharray:none;stroke-opacity:1"
         sodipodi:nodetypes="cccccccccc" />
      <path
         inkscape:connector-curvature="0"
         id="path4227"
         d="m 286.67337,371.79712 c -4.03942,-3.97551 -3.65394,-5.34611 0.71507,-2.54253 2.73407,1.75445 4.30545,3.57471 3.93018,4.55265 -0.49856,1.29922 -1.89802,0.69364 -4.64525,-2.01012 z"
         style="opacity:1;fill:#000000;fill-opacity:1;fill-rule:nonzero;stroke:none;stroke-width:5.9000001;stroke-miterlimit:4;stroke-dasharray:none;stroke-opacity:1" />
      <path
         inkscape:connector-curvature="0"
         id="path4229"
         d="m 288.14385,360.11725 c -3.33214,-3.43493 -3.03608,-5.55844 0.42215,-3.02794 2.58914,1.89456 3.66768,3.21143 3.47017,4.23698 -0.3041,1.57908 -1.56869,1.18627 -3.89232,-1.20904 z"
         style="opacity:1;fill:#000000;fill-opacity:1;fill-rule:nonzero;stroke:none;stroke-width:5.9000001;stroke-miterlimit:4;stroke-dasharray:none;stroke-opacity:1" />
      <path
         inkscape:connector-curvature="0"
         id="path4231"
         d="m 288.50573,347.16564 c -0.53009,-0.70457 -1.77699,-2.34593 -2.7709,-3.64745 -0.99391,-1.30153 -1.80711,-2.66992 -1.80711,-3.04087 0,-1.43947 1.54825,-0.53563 4.77296,2.78637 2.77112,2.85473 3.27733,3.61427 2.89051,4.33706 -0.66512,1.24278 -1.96055,1.0601 -3.08546,-0.43511 z"
         style="opacity:1;fill:#000000;fill-opacity:1;fill-rule:nonzero;stroke:none;stroke-width:5.9000001;stroke-miterlimit:4;stroke-dasharray:none;stroke-opacity:1" />
      <path
         inkscape:connector-curvature="0"
         id="path4233"
         d="m 287.42146,327.6974 c -2.12047,-2.53693 -2.91334,-5.32132 -1.20473,-4.23077 1.2668,0.80856 4.45753,5.0539 4.45753,5.93086 0,1.39765 -1.17833,0.78179 -3.2528,-1.70009 z"
         style="opacity:1;fill:#000000;fill-opacity:1;fill-rule:nonzero;stroke:none;stroke-width:5.9000001;stroke-miterlimit:4;stroke-dasharray:none;stroke-opacity:1" />
      <path
         inkscape:connector-curvature="0"
         id="path4235"
         d="m 429.94198,388.2281 c 0,-0.92082 4.92395,-3.37482 5.96783,-2.97425 0.42828,0.16435 0.7787,0.83756 0.7787,1.49603 0,0.97296 -0.33849,1.29121 -1.80711,1.69907 -2.70445,0.75106 -4.93942,0.65113 -4.93942,-0.22085 z"
         style="opacity:1;fill:#000000;fill-opacity:1;fill-rule:nonzero;stroke:none;stroke-width:5.9000001;stroke-miterlimit:4;stroke-dasharray:none;stroke-opacity:1" />
    </g>
    <path
       style="opacity:1;fill:#000000;fill-opacity:1;fill-rule:nonzero;stroke:none;stroke-width:5.9000001;stroke-miterlimit:4;stroke-dasharray:none;stroke-opacity:1"
       d="m 271.31333,397.69711 c -0.36666,-0.36666 -0.66666,-30.74166 -0.66666,-67.5 l 0,-66.83333 53.5,0 53.5,0 0,67.5 0,67.5 -52.83334,0 c -29.05833,0 -53.13333,-0.3 -53.5,-0.66667 z m 94.33334,-67.83333 0,-53.5 -41.66151,0 -41.66151,0 0.66151,31.66307 c 0.36383,17.4147 0.66151,41.4897 0.66151,53.5 l 0,21.83693 41,0 41,0 0,-53.5 z"
       id="path4326"
       inkscape:connector-curvature="0" />
    <path
       style="opacity:1;fill:#000000;fill-opacity:1;fill-rule:nonzero;stroke:none;stroke-width:5.9000001;stroke-miterlimit:4;stroke-dasharray:none;stroke-opacity:1"
       d="m 273.39543,700.80533 c -2.24492,-0.43689 -2.25,-0.48369 -2.25,-20.70408 0,-11.14641 -0.29842,-41.26511 -0.66315,-66.93045 l -0.66314,-46.66425 54.17018,0 54.17019,0 -0.25704,67.25 -0.25704,67.25 -51,0.11833 c -28.05,0.0651 -52.0125,-0.0787 -53.25,-0.31955 z m 92.75,-67.79878 0,-53.5 -41.5,0 -41.5,0 0,53.5 0,53.5 41.5,0 41.5,0 0,-53.5 z"
       id="path4328"
       inkscape:connector-curvature="0" />
    <path
       style="opacity:1;fill:#000000;fill-opacity:1;fill-rule:nonzero;stroke:none;stroke-width:5.9000001;stroke-miterlimit:4;stroke-dasharray:none;stroke-opacity:1"
       d="m 280.34518,871.24036 c -2.24492,-0.43689 -2.25,-0.48369 -2.25,-20.70408 0,-11.14641 -0.29842,-41.26511 -0.66315,-66.93045 l -0.66314,-46.66425 54.17018,0 54.17019,0 -0.25704,67.25 -0.25704,67.25 -51,0.11833 c -28.05,0.0651 -52.0125,-0.0787 -53.25,-0.31955 z m 92.75,-67.79878 0,-53.5 -41.5,0 -41.5,0 0,53.5 0,53.5 41.5,0 41.5,0 0,-53.5 z"
       id="path4330"
       inkscape:connector-curvature="0" />
    <path
       style="opacity:1;fill:#000000;fill-opacity:1;fill-rule:nonzero;stroke:none;stroke-width:5.9000001;stroke-miterlimit:4;stroke-dasharray:none;stroke-opacity:1"
       d="m 402.39543,394.80533 c -2.24492,-0.43689 -2.25,-0.48369 -2.25,-20.70408 0,-11.14641 -0.29842,-41.26511 -0.66315,-66.93045 l -0.66314,-46.66425 54.17018,0 54.17019,0 -0.25704,67.25 -0.25704,67.25 -51,0.11833 c -28.05,0.0651 -52.0125,-0.0787 -53.25,-0.31955 z m 92.75,-67.79878 0,-53.5 -41.5,0 -41.5,0 0,53.5 0,53.5 41.5,0 41.5,0 0,-53.5 z"
       id="path4332"
       inkscape:connector-curvature="0" />
    <path
       style="opacity:1;fill:#000000;fill-opacity:1;fill-rule:nonzero;stroke:none;stroke-width:5.9000001;stroke-miterlimit:4;stroke-dasharray:none;stroke-opacity:1"
       d="m 402.39543,546.80533 c -2.24492,-0.43689 -2.25,-0.48369 -2.25,-20.70408 0,-11.14641 -0.29842,-41.26511 -0.66315,-66.93045 l -0.66314,-46.66425 54.17018,0 54.17019,0 -0.25704,67.25 -0.25704,67.25 -51,0.11833 c -28.05,0.0651 -52.0125,-0.0787 -53.25,-0.31955 z m 92.75,-67.79878 0,-53.5 -41.5,0 -41.5,0 0,53.5 0,53.5 41.5,0 41.5,0 0,-53.5 z"
       id="path4334"
       inkscape:connector-curvature="0" />
    <path
       style="opacity:1;fill:#000000;fill-opacity:1;fill-rule:nonzero;stroke:none;stroke-width:5.9000001;stroke-miterlimit:4;stroke-dasharray:none;stroke-opacity:1"
       d="m 397.32241,659.53532 c -0.51388,-21.12744 -0.93433,-51.35625 -0.93433,-67.17514 l 0,-28.76162 54.44722,0 54.44722,0 0,60.6138 c 0,33.33759 -0.4047,63.56641 -0.89933,67.17515 l -0.89933,6.56134 -52.61356,0 -52.61356,0 -0.93433,-38.41353 z m 95.23219,-29.46872 0,-53.74012 -41.7193,0 -41.7193,0 0,23.81361 c 0,13.09749 0.4194,37.28054 0.932,53.74012 l 0.932,29.92651 40.7873,0 40.7873,0 0,-53.74012 z"
       id="path4336"
       inkscape:connector-curvature="0" />
    <path
       style="opacity:1;fill:#000000;fill-opacity:1;fill-rule:nonzero;stroke:none;stroke-width:5.9000001;stroke-miterlimit:4;stroke-dasharray:none;stroke-opacity:1"
       d="m 404.39348,832.77648 c -0.51388,-21.12744 -0.93433,-51.35625 -0.93433,-67.17514 l 0,-28.76162 54.44722,0 54.44722,0 0,60.6138 c 0,33.33759 -0.4047,63.56641 -0.89933,67.17515 l -0.89933,6.56134 -52.61356,0 -52.61356,0 -0.93433,-38.41353 z m 95.23219,-29.46872 0,-53.74012 -41.7193,0 -41.7193,0 0,23.81361 c 0,13.09749 0.4194,37.28054 0.932,53.74012 l 0.932,29.92651 40.7873,0 40.7873,0 0,-53.74012 z"
       id="path4338"
       inkscape:connector-curvature="0" />
  </g>
</svg>
