<?xml version="1.0" encoding="UTF-8" standalone="no"?>
<!-- Created with Inkscape (http://www.inkscape.org/) -->

<svg
   xmlns:dc="http://purl.org/dc/elements/1.1/"
   xmlns:cc="http://creativecommons.org/ns#"
   xmlns:rdf="http://www.w3.org/1999/02/22-rdf-syntax-ns#"
   xmlns:svg="http://www.w3.org/2000/svg"
   xmlns="http://www.w3.org/2000/svg"
   xmlns:sodipodi="http://sodipodi.sourceforge.net/DTD/sodipodi-0.dtd"
   xmlns:inkscape="http://www.inkscape.org/namespaces/inkscape"
   width="210mm"
   height="297mm"
   viewBox="0 0 744.09448819 1052.3622047"
   id="svg3491"
   version="1.1"
   inkscape:version="0.91 r13725"
   inkscape:export-filename="/Users/larsaeschlimann/Documents/02_BFH/09_Informatik/Softwareprojekt_SuperTeacher/SuperTeacher/assets/graphics/characters/Student.png"
   inkscape:export-xdpi="300"
   inkscape:export-ydpi="300"
   sodipodi:docname="Student.svg">
  <defs
     id="defs3493" />
  <sodipodi:namedview
     id="base"
     pagecolor="#ffffff"
     bordercolor="#666666"
     borderopacity="1.0"
     inkscape:pageopacity="0.0"
     inkscape:pageshadow="2"
     inkscape:zoom="0.87215656"
     inkscape:cx="243.32524"
     inkscape:cy="519.79257"
     inkscape:document-units="px"
     inkscape:current-layer="layer1"
     showgrid="false"
     inkscape:window-width="1440"
     inkscape:window-height="851"
     inkscape:window-x="0"
     inkscape:window-y="1"
     inkscape:window-maximized="1" />
  <metadata
     id="metadata3496">
    <rdf:RDF>
      <cc:Work
         rdf:about="">
        <dc:format>image/svg+xml</dc:format>
        <dc:type
           rdf:resource="http://purl.org/dc/dcmitype/StillImage" />
        <dc:title></dc:title>
      </cc:Work>
    </rdf:RDF>
  </metadata>
  <g
     inkscape:label="Ebene 1"
     inkscape:groupmode="layer"
     id="layer1">
    <path
       style="opacity:1;fill:#0088aa;fill-opacity:0.99215686;fill-rule:nonzero;stroke:none;stroke-width:5.9000001;stroke-miterlimit:4;stroke-dasharray:none;stroke-opacity:1"
       d="m 305.78796,340.46182 c -1.22627,-0.0783 -2.70843,-0.15397 -3.2937,-0.16815 l -1.06411,-0.0258 -3.47618,0.52366 -2.10907,-7.00972 c -0.006,-1.75579 5.40546,-1.88247 5.21338,-4.30714 l -0.34922,-4.40849 0.60529,0 c 1.25686,0 5.76396,0.66991 7.61534,1.1319 1.10984,0.27695 2.81815,0.92136 4.03262,1.52118 1.72446,0.85171 2.38991,1.32179 3.66471,2.58884 1.64284,1.63284 2.30896,2.74681 2.62886,4.39626 0.17273,0.89062 0.13647,1.12362 -0.32363,2.07956 -0.62152,1.2913 -2.40413,3.17592 -3.39606,3.59037 -0.77588,0.32418 -5.39266,0.36563 -9.74819,0.0875 z"
       id="path4404"
       inkscape:connector-curvature="0"
       sodipodi:nodetypes="cccccscssssssscc" />
    <path
       style="opacity:1;fill:#0088aa;fill-opacity:0.99215686;fill-rule:nonzero;stroke:none;stroke-width:5.9000001;stroke-miterlimit:4;stroke-dasharray:none;stroke-opacity:1"
       d="m 233.32658,338.92916 c -0.83609,-0.15478 -2.71202,-0.36851 -4.16873,-0.47496 -5.43155,-0.39689 -9.5975,-1.80809 -11.7805,-3.99061 -1.49078,-1.49045 -1.37586,-2.40805 0.63694,-5.08567 1.59126,-2.11684 4.23312,-3.80509 7.81279,-4.99266 2.38608,-0.79159 4.52463,-1.16417 7.70219,-1.34188 1.61645,-0.0904 3.09861,-0.22927 3.2937,-0.3086 0.47094,-0.19149 0.48497,-0.36624 -0.45004,5.6043 -0.16393,1.04677 -0.43306,2.38543 -0.45022,3.21064 -0.0129,0.62245 -0.13373,0.37307 0.0466,0.95376 0.57096,1.83806 3.31239,-0.71963 3.21758,-0.13349 -0.12515,2.54708 -1.9233,4.98512 -2.51821,7.01367 -0.97923,0.34776 -2.56093,-0.30984 -3.34215,-0.4545 z"
       id="path4402"
       inkscape:connector-curvature="0"
       sodipodi:nodetypes="cssssscssscccc" />
    <g
       id="g3588"
       transform="translate(-21.079677,13.782864)"
       style="fill:#000000">
      <g
         id="g3582"
         style="fill:#000000">
        <path
           style="opacity:1;fill:#000000;fill-opacity:1;fill-rule:nonzero;stroke:none;stroke-width:5.9000001;stroke-miterlimit:4;stroke-dasharray:none;stroke-opacity:1"
           d="m 249.93506,722.44236 c -14.75519,-7.42429 -25.89484,-18.00559 -28.52392,-27.09421 -0.45605,-1.57656 -2.14876,-3.97688 -3.76157,-5.33406 -3.49322,-2.93954 -4.51018,-7.68094 -5.98772,-27.91686 -0.57557,-7.88275 -1.56907,-18.97595 -2.20778,-24.65153 -3.22044,-28.61694 -3.17611,-113.7243 0.068,-130.5185 0.86029,-4.45359 1.06796,-15.56127 0.6217,-33.25217 -0.36856,-14.61056 -0.1977,-33.66248 0.3797,-42.3376 0.85333,-12.82102 0.73108,-16.99661 -0.65324,-22.31136 -0.93667,-3.59613 -1.70304,-7.50493 -1.70304,-8.68623 0,-3.30717 2.81642,-1.63095 3.2358,1.92581 0.20313,1.72282 1.10607,3.41511 2.00652,3.76064 0.92697,0.35572 1.63718,2.15648 1.63718,4.15114 0,1.9376 1.11003,6.80912 2.46673,10.82562 1.81307,5.36755 2.1282,7.64126 1.18919,8.58027 -0.939,0.939 -1.58515,0.46847 -2.43835,-1.77563 -0.63845,-1.67924 -1.43157,-3.05316 -1.76248,-3.05316 -0.33092,0 -0.60167,17.77895 -0.60167,39.50878 l 0,39.50879 4.87297,2.82633 c 7.14558,4.14445 15.7284,5.32976 43.85681,6.05671 28.69054,0.74149 38.6891,-0.12213 63.27923,-5.46569 20.94078,-4.55053 24.14053,-5.80913 25.22098,-9.92053 1.52891,-5.81793 1.08776,-67.08477 -0.50305,-69.865 -0.94666,-1.65443 -1.03818,-2.7563 -0.26845,-3.23202 1.24671,-0.77051 -2.07213,-7.44346 -3.70207,-7.44346 -0.49464,0 -0.89936,-0.77394 -0.89936,-1.71987 0,-2.06415 2.44389,-2.25709 4.35701,-0.34397 1.07014,1.07014 1.3759,0.68794 1.3759,-1.71988 0,-1.98741 0.61576,-3.09577 1.71988,-3.09577 1.37364,0 1.71987,1.70596 1.71987,8.47416 0,5.95446 0.66856,9.96032 2.24848,13.47235 1.76895,3.93225 1.92037,5.07164 0.70997,5.34259 -1.21772,0.27258 -1.6617,6.36916 -2.12924,29.23787 -0.3249,15.89141 -1.07672,30.44136 -1.67072,32.33322 -0.75362,2.40024 -0.65855,4.13276 0.31456,5.73291 0.76701,1.26125 2.04772,10.29059 2.84603,20.06521 1.32777,16.25741 1.23024,48.82146 -0.41954,140.07549 -0.15278,8.45098 -0.58087,10.4807 -2.86045,13.56249 -1.47442,1.9933 -2.45545,3.84949 -2.18007,4.12487 0.27538,0.27538 3.49905,1.28167 7.1637,2.23619 8.30228,2.16247 13.36925,4.53572 17.13485,8.02555 3.53615,3.2772 3.64674,5.02375 0.56603,8.94024 -3.72028,4.72958 -9.68698,5.68825 -36.14149,5.80685 l -24.16385,0.10833 -4.21529,-3.21237 c -5.05256,-3.85045 -7.80988,-8.80206 -8.10564,-14.55618 -0.16847,-3.27773 -1.14553,-5.0567 -4.29699,-7.82373 -5.50331,-4.83197 -8.26302,-13.66435 -12.17854,-38.9772 l -3.13666,-20.27767 -0.7952,12.03912 c -1.45402,22.01342 -9.95838,52.74282 -13.28345,52.74282 -1.99785,0 0.43513,-5.52724 2.12132,-9.95796 5.31196,-13.95789 9.87094,-60.22598 9.21501,-93.52116 -0.33407,-16.95769 -0.16475,-19.20527 1.44679,-19.20527 2.49716,0 2.77803,2.06181 3.59252,26.37141 0.98897,29.5173 5.73148,64.75798 10.64678,79.11424 2.54236,7.42556 6.85157,10.94097 14.88889,12.14624 6.89596,1.03412 27.35311,-1.21733 33.53471,-3.69073 7.77049,-3.10912 8.23074,-5.27118 8.00546,-37.60552 -0.10578,-15.18323 -0.13127,-45.14858 -0.0566,-66.58968 0.15635,-44.91782 -1.45281,-69.94578 -4.41896,-68.72976 -1.00933,0.4138 -9.83258,2.79039 -19.6072,5.28131 -22.59048,5.75687 -38.16568,7.17994 -68.79499,6.2856 -27.53307,-0.80391 -36.31812,-2.04502 -42.61574,-6.02054 -2.53595,-1.60087 -4.7559,-2.74445 -4.93322,-2.54127 -0.88061,1.00904 -2.92714,59.28337 -2.39286,68.13631 0.33859,5.61041 0.87395,19.66796 1.18969,31.23899 0.31574,11.57102 1.09819,26.79191 1.73878,33.8242 0.64059,7.03228 1.62728,18.5448 2.19265,25.58336 1.69197,21.06401 4.16301,23.33779 25.3109,23.29038 10.88781,-0.0244 14.6113,-0.51197 21.22968,-2.77986 7.83813,-2.68586 11.61611,-2.46317 8.07467,0.47597 -2.32076,1.92605 -2.25156,6.84091 0.1463,10.39109 1.05312,1.55922 4.40687,5.51286 7.45279,8.78587 10.02986,10.77765 5.96175,17.64949 -11.49415,19.41585 -6.02174,0.60934 -7.19758,0.29029 -16.87442,-4.57877 z"
           id="path3572"
           inkscape:connector-curvature="0"
           sodipodi:nodetypes="csssssssssscsssssscssssssssssssssssssssssssscsssscsssssssssssssssssssssssssscc" />
        <path
           style="opacity:1;fill:#000000;fill-opacity:1;fill-rule:nonzero;stroke:none;stroke-width:5.9000001;stroke-miterlimit:4;stroke-dasharray:none;stroke-opacity:1"
           d="m 190.01305,549.90561 c -3.12141,-4.9987 -6.09033,-10.19292 -6.5976,-11.5427 -1.64963,-4.38949 -7.51093,-18.22166 -8.51344,-20.091 -1.70068,-3.17118 -10.4948,-30.07033 -10.79966,-33.03364 -0.16066,-1.5617 -1.05482,-7.16259 -1.98702,-12.44641 -1.38809,-7.86793 -1.6949,-12.94498 -1.6949,-28.04731 0,-17.23802 0.15697,-19.21537 2.40755,-30.32722 4.13459,-20.41391 9.47168,-38.98293 13.52068,-47.04172 3.08373,-6.13761 8.12461,-12.5625 12.73485,-16.23128 10.54027,-8.38785 37.11286,-25.14537 43.28534,-27.2971 2.20147,-0.76744 2.49068,-1.14996 1.81871,-2.40554 -2.5955,-4.84974 2.43874,-11.45149 10.71837,-14.05575 5.70921,-1.79577 13.68707,-1.53791 14.07359,0.4975 0.21788,1.14734 -1.73233,1.41882 -4.19598,1.41882 -5.6277,0 -12.29496,2.41662 -14.92198,5.40862 -1.33058,1.51545 -2.41924,3.27572 -2.41924,3.91171 0,3.0713 7.01484,6.08405 14.16603,6.08405 1.50459,0 7.41529,1.18514 13.13489,2.63364 9.8139,2.4854 11.17509,2.62934 24.18213,2.55719 11.03327,-0.0612 15.48114,-0.4412 22.29581,-1.90482 7.08693,-1.5221 9.90678,-1.74234 16.83378,-1.31478 8.1051,0.50026 8.37312,0.4613 10.33715,-1.50273 1.10897,-1.10897 2.01631,-2.5564 2.01631,-3.21652 0,-4.86953 -5.91692,-9.2362 -13.76989,-10.16214 l -4.80314,-0.56633 0.48836,6.33286 c 0.46227,5.9945 0.19724,3.69791 -1.36927,3.69791 -2.29814,0 -2.5358,1.06518 -3.03824,-8.91832 -0.42947,-8.53351 -0.40193,-10.72216 1.31796,-10.72216 1.30317,0 1.88217,2.63436 2.24305,4.43879 0.47108,2.35536 0.63067,2.43252 5.04696,2.44019 5.57037,0.01 11.7822,2.68261 14.93103,6.42477 2.67958,3.1845 3.35814,5.63933 2.69871,9.76317 l -0.50326,3.14719 4.63735,0.9627 c 5.23259,1.08629 16.63775,5.28803 22.72057,8.37043 4.95208,2.50941 7.20871,5.11471 11.88314,13.71921 6.84028,12.5913 10.2429,23.24277 13.13345,41.11255 3.47757,21.49873 3.59827,22.65345 3.76515,36.01926 0.14419,11.54932 -0.0931,14.23033 -2.08604,23.57136 -1.2368,5.79691 -2.42015,11.36534 -2.62968,12.37428 -0.20951,1.00894 -2.96809,9.94753 -6.13018,19.86354 -3.16208,9.916 -6.09494,19.48846 -6.51749,21.27212 -1.07835,4.55208 -4.97614,15.31008 -7.63749,21.07968 -1.23412,2.6755 -2.27336,5.04696 -2.3094,5.26992 -0.036,0.22296 -0.56054,1.68232 -1.16556,3.24302 -3.46437,8.93666 -13.6765,20.18084 -15.4662,19.07474 -1.2582,-0.77761 7.07549,-10.79932 8.81545,-14.09981 4.5448,-8.62091 10.77844,-25.94116 18.56874,-51.59344 1.76045,-5.79691 4.32939,-14.11493 5.70876,-18.48449 1.37936,-4.36956 3.65657,-14.03784 5.06046,-21.48505 2.35424,-12.48858 2.51268,-14.39062 2.03966,-24.48561 -0.28207,-6.01987 -0.89338,-13.13426 -1.35847,-15.80976 -0.46509,-2.6755 -1.38829,-8.33053 -2.05154,-12.56673 -2.97791,-19.01976 -8.19691,-34.58475 -15.99861,-47.71373 -2.1535,-3.624 -3.44558,-4.7713 -7.84785,-6.96847 -5.601,-2.79546 -14.0587,-5.85577 -22.70119,-8.21414 -2.89846,-0.79093 -5.647,-1.71799 -6.10787,-2.06013 -0.46087,-0.34214 -1.37297,-0.28368 -2.02689,0.1299 -0.65392,0.41358 -2.17328,0.75755 -3.37635,0.76438 -2.09315,0.0119 -2.14964,0.12075 -1.31099,2.52648 1.18466,3.39832 0.26596,33.39954 -1.25127,40.86141 -0.63468,3.12142 -1.40699,6.95224 -1.71625,8.51295 -0.77805,3.9265 -2.11652,7.29681 -2.89781,7.29681 -0.35973,0 -0.89776,1.95057 -1.19563,4.3346 -0.70061,5.60752 -1.48369,6.91628 -3.40312,5.68766 -0.79305,-0.50763 -1.32362,-1.60215 -1.17905,-2.43227 0.14457,-0.83013 0.22403,-6.06982 0.17658,-11.64377 -0.0474,-5.57396 0.51597,-17.336 1.25207,-26.13789 1.29167,-15.44528 1.11521,-26.41997 -0.46595,-28.97833 -0.58246,-0.94244 -1.97052,-0.8483 -8.66177,0.58747 -12.22841,2.6239 -13.44877,2.75411 -25.93277,2.76711 -10.47673,0.0109 -12.6995,-0.25141 -21.82933,-2.57609 -5.59068,-1.42352 -10.29374,-2.45809 -10.45126,-2.29904 -0.15751,0.15905 0.0309,1.93096 0.41871,3.93758 1.18103,6.11112 0.8878,29.98264 -0.4852,39.49985 -1.56652,10.85862 -2.31535,13.27882 -4.84329,15.65371 -1.4889,1.39875 -2.00655,2.73064 -2.01578,5.18645 -0.0164,4.36678 -1.06892,6.05288 -3.00484,4.81371 -0.79305,-0.50764 -1.33209,-1.60216 -1.19787,-2.43227 0.13421,-0.83013 0.21935,-6.55955 0.18918,-12.73207 -0.0302,-6.17252 0.31312,-14.19901 0.76287,-17.83665 1.097,-8.87286 1.23158,-16.9202 0.46787,-27.97685 l -0.63558,-9.20161 -2.94646,-1.15599 c -1.62056,-0.6358 -3.58493,-1.51472 -4.36528,-1.95317 -0.96011,-0.53944 -1.41883,-0.51945 -1.41883,0.0618 0,0.47245 -1.19022,1.35631 -2.64495,1.96413 -3.60612,1.50674 -18.04493,10.12851 -26.93936,16.08617 -17.44185,11.68288 -24.14928,18.0309 -27.57922,26.10144 -2.29518,5.40048 -6.76216,18.90662 -6.37963,19.28916 0.19705,0.19704 -0.18098,1.95746 -0.84007,3.91204 -0.65909,1.95457 -2.75294,10.30333 -4.653,18.55278 l -3.45465,14.99899 0.17447,18.50176 c 0.16287,17.27215 0.59424,22.18076 3.3777,38.43518 1.00742,5.88297 6.51922,22.0983 12.61444,37.11084 6.04823,14.89679 8.12839,19.205 13.59322,28.15285 4.55821,7.4634 16.9064,21.52114 14.38001,21.49542 -0.57139,-0.006 -15.14606,-15.24833 -18.26747,-20.24704 z m 138.2991,-175.89302 c 1.94538,-14.84108 2.12102,-36.65619 0.32965,-40.94353 -0.67473,-1.61485 -1.38625,-2.77661 -1.58118,-2.58168 -0.19493,0.19492 0.0504,3.07846 0.54522,6.40785 0.66537,4.47707 0.6566,8.69253 -0.0336,16.18789 -1.28299,13.93138 -2.11108,33.76613 -1.38153,33.09082 0.33011,-0.30558 1.28479,-5.77819 2.1215,-12.16135 l -2e-5,0 z m -76.64346,-1.50956 c 1.02022,-7.47295 1.25268,-13.56615 0.95331,-24.98849 -0.41455,-15.81679 -0.84215,-18.75412 -2.73009,-18.75412 -0.93432,0 -1.02849,1.00367 -0.51351,5.47261 0.75755,6.57379 0.73539,24.75647 -0.0491,40.33514 -0.67945,13.49196 0.33817,12.59364 2.33943,-2.06514 l -1e-5,0 z"
           id="path3574"
           inkscape:connector-curvature="0"
           sodipodi:nodetypes="cssssssssssssssssssssssscssssscsscsssssscssscsssssssssssssssssssssssssssscssssccssscsssssscsscssssccccscsscccccssssccc" />
        <path
           style="opacity:1;fill:#000000;fill-opacity:1;fill-rule:nonzero;stroke:none;stroke-width:5.9000001;stroke-miterlimit:4;stroke-dasharray:none;stroke-opacity:1"
           d="m 295.26784,285.30311 c -0.86314,-2.24929 1.44895,-2.73095 13.11569,-2.73234 12.93776,-0.002 14.999,0.34249 14.999,2.50335 0,1.43566 -0.82554,1.52695 -13.80831,1.52695 -11.91302,0 -13.87667,-0.17815 -14.30638,-1.29796 z"
           id="path3576"
           inkscape:connector-curvature="0" />
        <path
           style="opacity:1;fill:#000000;fill-opacity:1;fill-rule:nonzero;stroke:none;stroke-width:5.9000001;stroke-miterlimit:4;stroke-dasharray:none;stroke-opacity:1"
           d="m 257.16309,315.991 c 0.26186,-1.67218 0.88792,-5.59422 1.39123,-8.71563 1.0108,-6.26872 0.48261,-23.20559 -1.00733,-32.30145 -0.68425,-4.17721 -0.6767,-5.68976 0.0306,-6.12689 0.62483,-0.38616 -0.006,-1.49674 -1.88585,-3.31848 -3.97236,-3.85017 -5.63295,-8.6097 -4.97048,-14.24629 0.58138,-4.94665 2.34364,-8.2951 4.85447,-9.22391 1.54525,-0.57163 1.61639,-1.22899 1.41712,-13.09479 -0.2305,-13.72571 0.31302,-16.15317 6.80779,-30.40501 2.9333,-6.43669 4.20824,-7.73139 5.65929,-5.74697 0.85799,1.17338 1.48709,0.94407 5.77707,-2.10572 5.27731,-3.7517 6.79696,-4.37241 6.79696,-2.77627 0,2.31587 -11.22619,11.41772 -13.16496,10.67375 -0.85484,-0.32804 -1.59415,0.47886 -2.48988,2.71751 -0.70071,1.75125 -2.44052,5.65299 -3.86624,8.67054 l -2.59222,5.48645 0.41129,12.89004 c 0.22622,7.08952 0.60568,13.08441 0.84324,13.32198 0.23757,0.23757 1.10595,0.027 1.92972,-0.46799 0.82378,-0.49497 4.78134,-1.76514 8.79459,-2.82259 7.86138,-2.07141 9.3237,-1.80752 9.3237,1.68255 0,1.06019 0.14399,1.92762 0.31998,1.92762 2.1738,0 13.22837,-4.33328 19.78142,-7.75413 6.54382,-3.41602 8.44291,-4.10249 8.79697,-3.17984 0.6348,1.65427 -5.35244,8.21942 -11.2467,12.33227 -5.92332,4.13311 -6.04589,4.24718 -4.15169,3.86352 0.82446,-0.16699 5.14742,-0.91692 9.60659,-1.66651 4.45916,-0.74959 10.08811,-2.09818 12.50878,-2.99688 l 4.40121,-1.634 1.43739,1.77511 c 1.33496,1.6486 1.59909,1.69043 3.70636,0.58696 1.24793,-0.65348 3.52626,-2.49622 5.06296,-4.09497 3.33533,-3.47001 6.10568,-3.94107 5.53212,-0.94065 l -0.37586,1.96617 4.04621,-1.59487 c 2.22541,-0.87718 5.64264,-2.53044 7.59385,-3.67392 2.84366,-1.6665 3.78162,-1.88488 4.72673,-1.10051 1.0306,0.85532 1.026,1.27456 -0.0366,3.32927 -1.18321,2.28815 -1.16213,2.35071 0.79187,2.35071 1.10408,0 2.36932,0.63847 2.81164,1.41883 0.75361,1.32953 0.8838,1.31677 2.06878,-0.20269 0.69551,-0.89183 2.59387,-4.26177 4.21859,-7.48874 3.06104,-6.07978 4.14116,-11.69425 3.20734,-16.67187 -1.287,-6.86033 -8.68153,-13.87224 -20.42405,-19.36723 -4.10988,-1.92324 -6.56103,-2.49754 -11.49462,-2.69317 -3.44893,-0.13676 -8.09499,-0.67402 -10.32457,-1.19391 -7.92184,-1.84721 -28.69255,0.82638 -40.26758,5.18321 -3.56577,1.34215 -5.61451,1.7289 -6.40492,1.20909 -0.96343,-0.63361 -0.84725,-1.02872 0.67948,-2.31072 1.08028,-0.90711 0.47138,-2.39788 -0.0144,-2.69813 -1.50064,-0.92744 0.15543,-1.2178 3.67563,-3.28077 4.40265,-2.58012 12.14302,-4.60308 17.61261,-4.60308 3.65523,0 4.18258,0.19663 3.85784,1.43845 -0.34915,1.33514 0.39273,1.41598 10.32943,1.12561 7.20538,-0.21056 11.28682,-0.002 12.48331,0.63856 0.97774,0.52327 4.99344,1.02006 8.9238,1.10397 6.84632,0.14617 7.50034,0.32874 15.59079,4.3523 10.17398,5.05973 15.26913,9.34737 18.18145,15.29994 5.26106,10.75322 1.37682,22.71919 -12.94605,39.88226 -3.45313,4.13787 -5.45699,5.88398 -6.75256,5.88398 -2.36301,0 -2.33208,-0.24075 0.65464,-5.09479 3.12089,-5.07209 4.23412,-7.87731 3.12602,-7.87731 -0.45264,0 -2.25328,0.72968 -4.00141,1.62151 -1.74814,0.89183 -3.51878,1.62151 -3.93474,1.62151 -1.4108,0 -1.78595,-2.65981 -0.56538,-4.00853 1.02331,-1.13074 0.29318,-1.05506 -4.6423,0.48121 -3.22112,1.00263 -6.76868,2.02081 -7.88347,2.2626 -3.91466,0.84909 -4.03022,1.20114 -2.68092,8.16732 1.83298,9.46329 2.16588,14.06 1.11034,15.33183 -1.51722,1.82814 -6.13848,2.27654 -9.40334,0.9124 -4.1013,-1.71364 -3.2838,-3.35732 1.50021,-3.01635 2.05993,0.14682 4.08896,0.0546 4.50896,-0.205 0.46415,-0.28687 0.32691,-2.29929 -0.34996,-5.13148 -0.61247,-2.56275 -1.12658,-6.5819 -1.14247,-8.93146 -0.0287,-4.2423 -0.0443,-4.26828 -2.25846,-3.74714 -3.62178,0.85246 -3.80004,0.80451 -4.09072,-1.10041 -0.231,-1.51383 -0.53812,-1.68351 -1.8126,-1.00143 -2.5167,1.3469 -16.84995,4.04023 -21.50112,4.04023 -2.37713,0 -4.54816,-0.36583 -4.82449,-0.81295 -0.30304,-0.49033 -1.04597,-0.53381 -1.87205,-0.10956 -1.51229,0.77667 -3.39652,0.37201 -3.39652,-0.72943 0,-0.38833 1.69425,-1.99971 3.765,-3.58084 4.36445,-3.33251 4.25618,-3.42436 -1.505,-1.27679 -5.33738,1.98958 -15.2321,2.99476 -15.2321,1.54739 0,-0.54495 0.63847,-1.71988 1.41882,-2.61096 1.36163,-1.55482 1.35493,-1.59671 -0.16603,-1.03902 -0.87167,0.31962 -3.15193,0.79592 -5.06723,1.05844 -2.54747,0.34917 -3.48237,0.84677 -3.48237,1.8535 0,2.30314 -0.93791,2.51086 -3.68138,0.8153 -3.03491,-1.87568 -4.64518,-1.51792 -5.93789,1.31926 -2.46461,5.40923 -0.45879,12.57914 4.9172,17.57679 1.97553,1.8365 2.24359,2.47482 1.44392,3.43835 -0.66293,0.79879 -0.79434,2.43677 -0.40447,5.04165 0.72783,4.86304 1.07431,5.40264 2.63652,4.10612 1.05341,-0.87425 1.40974,-0.79989 2.1574,0.45026 7.51616,12.56744 12.61707,15.75515 29.98634,18.73931 9.19412,1.57961 27.12417,1.65302 30.77883,0.126 1.46254,-0.61109 4.3537,-3.09456 6.42481,-5.51882 5.70029,-6.67224 7.88142,-12.0438 11.2971,-27.82176 0.71002,-3.27975 2.05319,-7.8061 2.94201,-7.97349 2.22524,-0.4191 1.70342,4.57187 -0.30254,14.04328 -2.2441,10.59591 -5.29278,17.60886 -10.58109,24.34004 -5.78462,7.36289 -7.89356,8.0956 -23.30148,8.0956 -25.79618,0 -42.63532,-6.59075 -48.82694,-19.11058 l -1.57524,-3.18523 0,14.999 c 0,12.08599 -0.27995,15.90439 -1.44147,19.66085 -1.15679,3.74117 -1.77832,5.06723 -3.14709,5.06723 -1.51507,0 -1.65242,-0.74503 -1.2295,-3.44572 z m 31.43542,-122.77581 c 1.51401,-0.52779 4.94323,-1.3964 7.62048,-1.93025 2.67725,-0.53385 3.95563,-1.00873 2.84084,-1.05529 -2.44168,-0.10198 -11.82093,2.03961 -13.67479,3.12241 -1.85501,1.08347 -0.069,1.0074 3.21347,-0.13687 z"
           id="path3578"
           inkscape:connector-curvature="0"
           sodipodi:nodetypes="cssscsssssssssscsccssssssssscsssscssscssssssssssscsssscsssssssssssssssscssssssssssssssssssssssssssscsssscsssccsssss" />
      </g>
      <path
         inkscape:connector-curvature="0"
         id="path3580"
         d="m 255.97804,257.06317 c -0.30412,-0.85629 -0.30903,-1.32622 -0.0334,-3.20647 0.29994,-2.04649 0.51785,-2.54914 1.48021,-3.41445 0.93146,-0.83754 2.10902,-1.56177 2.54253,-1.56374 0.19611,-8.9e-4 0.47287,0.25165 0.81722,0.74571 l 0.52067,0.74704 -0.44912,0.78499 c -0.30239,0.52853 -0.39253,0.80386 -0.27588,0.84274 0.33352,0.11117 1.67902,1.2373 2.64992,2.21787 1.46661,1.4812 1.84985,2.52152 1.17683,3.19453 -0.74629,0.7463 -2.19667,0.24582 -3.81481,-1.31636 -0.55835,-0.53904 -1.06907,-0.91165 -1.24956,-0.91165 -0.31665,0 -0.46985,0.35033 -0.72025,1.64705 -0.13658,0.70728 -0.51683,0.92774 -1.60521,0.93064 l -0.79047,0.002 -0.24863,-0.70002 z"
         style="opacity:1;fill:#000000;fill-opacity:1;fill-rule:nonzero;stroke:none;stroke-width:5.9000001;stroke-miterlimit:4;stroke-dasharray:none;stroke-opacity:1" />
    </g>
    <path
       style="opacity:1;fill:#ffe6d5;fill-opacity:0.99215686;fill-rule:nonzero;stroke:none;stroke-width:5.9000001;stroke-miterlimit:4;stroke-dasharray:none;stroke-opacity:1"
       d="m 281.28402,311.34278 c -8.37178,-0.74416 -17.83968,-2.95615 -22.45548,-5.24628 -5.13208,-2.5463 -8.32345,-5.65094 -12.49746,-12.15785 -1.13839,-1.77466 -2.14987,-3.22664 -2.24772,-3.22664 -0.0979,0 -0.63849,0.30178 -1.20142,0.67062 -1.50954,0.98909 -2.0536,0.17931 -2.64373,-3.93493 -0.44067,-3.07221 -0.42013,-3.62168 0.18041,-4.82548 0.37273,-0.74716 0.6777,-1.41803 0.6777,-1.49081 0,-0.0728 -1.08932,-1.33435 -2.42072,-2.80349 -4.15874,-4.58901 -6.12005,-9.94909 -5.27361,-14.41233 0.96495,-5.08819 2.86477,-6.25151 6.88357,-4.21503 2.61009,1.32264 3.20806,1.2896 3.5047,-0.1936 0.33388,-1.66937 0.69633,-1.87918 4.48893,-2.59846 1.83248,-0.34754 3.80587,-0.75088 4.3853,-0.8963 l 1.05352,-0.26442 -1.29282,1.83414 c -0.71105,1.00878 -1.16871,2.03497 -1.01701,2.28043 0.73548,1.19002 9.79761,0.0123 15.74235,-2.0459 1.9732,-0.68317 3.67261,-1.15715 3.77647,-1.05329 0.10386,0.10386 -1.32098,1.45372 -3.1663,2.99969 -1.84532,1.54597 -3.35513,3.0765 -3.35513,3.40118 0,0.45024 0.62524,0.60431 2.63496,0.6493 1.44923,0.0324 3.54706,0.24737 4.66185,0.47762 1.3661,0.28216 3.28241,0.28905 5.87799,0.0211 4.70632,-0.48578 15.31546,-2.56992 17.29742,-3.39803 2.05626,-0.85916 2.40027,-0.77265 2.83143,0.71205 0.4112,1.41596 0.63552,1.47109 4.39654,1.0805 l 1.62151,-0.1684 0.30767,4.05378 c 0.16922,2.22958 0.68162,6.11998 1.13867,8.64533 0.63361,3.50087 0.72005,4.72523 0.36391,5.15435 -0.32549,0.3922 -1.65234,0.59784 -4.377,0.67838 -3.23967,0.0958 -3.93166,0.22925 -4.03677,0.77874 -0.0855,0.44702 0.48977,0.96167 1.76506,1.57903 2.55721,1.23792 6.7231,1.31029 8.71149,0.15132 1.3671,-0.79683 1.39944,-0.87714 1.51666,-3.76534 0.0705,-1.73735 -0.23412,-4.97992 -0.74067,-7.88379 -1.88011,-10.77794 -1.84308,-10.35142 -0.97369,-11.21666 0.82453,-0.82059 15.36889,-5.21026 15.80807,-4.77108 0.13323,0.13323 -0.0661,0.71278 -0.44291,1.2879 -0.74894,1.14302 -0.56238,2.84897 0.34984,3.19902 0.30097,0.1155 2.12533,-0.50285 4.05411,-1.37411 1.92879,-0.87125 3.78194,-1.5841 4.11812,-1.5841 1.03908,0 0.67913,1.27617 -1.42924,5.06723 -3.6416,6.54796 -4.92922,9.64266 -6.15634,14.79631 -4.21055,17.68347 -6.53711,22.93404 -13.04118,29.43127 -3.49071,3.48703 -4.6609,4.12615 -8.45777,4.61934 -3.50534,0.45532 -15.59787,0.43084 -20.92128,-0.0423 z m 20.51402,-11.83907 c 1.01914,-1.01914 -0.002,-2.20506 -2.22695,-2.585 -3.01986,-0.51581 -22.80545,-0.35431 -24.11896,0.19687 -1.17742,0.49407 -1.51104,1.80507 -0.60807,2.38948 0.87386,0.56557 7.86142,0.85655 17.28667,0.71986 7.27148,-0.10546 9.19506,-0.24896 9.66731,-0.72121 z m -64.34392,-28.95928 c 0.0152,-1.73332 0.65862,-1.87833 2.3398,-0.5273 1.03868,0.83471 1.96506,1.25559 2.57331,1.16912 1.68863,-0.24004 1.39438,-1.49652 -0.84224,-3.59637 -1.70167,-1.59761 -2.0359,-2.12982 -1.83648,-2.92437 0.15518,-0.61827 0.0227,-1.1548 -0.36442,-1.4761 -1.88085,-1.56096 -5.28812,3.95657 -4.44182,7.19282 0.29593,1.13165 2.56211,1.27458 2.57185,0.1622 z"
       id="path3596"
       inkscape:connector-curvature="0" />
    <path
       style="opacity:1;fill:#ffe6d5;fill-opacity:0.99215686;fill-rule:nonzero;stroke:none;stroke-width:5.9000001;stroke-miterlimit:4;stroke-dasharray:none;stroke-opacity:1"
       d="m 255.48632,343.49204 c -2.85348,-0.25453 -5.13731,-0.69586 -11.41721,-2.20631 -3.17715,-0.76418 -6.09588,-1.45335 -6.48605,-1.5315 -1.02064,-0.20442 -1.02084,-0.2049 -0.51724,-1.26038 0.55743,-1.1683 1.60541,-4.34829 2.82201,-8.56311 1.75008,-6.06305 1.78223,-6.43982 1.92839,-22.59985 l 0.12465,-13.78286 1.24779,2.43227 c 0.68629,1.33775 1.717,3.09671 2.29047,3.9088 4.67807,6.62456 13.30713,11.43234 24.77291,13.80251 6.31906,1.30626 11.54439,1.81762 20.29317,1.98594 5.97411,0.11494 6.63425,0.16065 6.51517,0.45113 -0.27253,0.66477 -0.45071,3.17996 -0.36579,5.16342 0.48998,11.44457 0.99392,16.7255 1.79362,18.79584 0.10692,0.27679 -0.1623,0.36368 -1.75962,0.5679 -1.03721,0.13262 -3.94529,0.64386 -6.46239,1.1361 -5.56046,1.0874 -8.31876,1.45252 -12.95607,1.715 -4.15895,0.23541 -19.13222,0.22519 -21.82381,-0.0149 l 0,-1e-5 z"
       id="path4400"
       inkscape:connector-curvature="0" />
    <path
       style="opacity:1;fill:#0088aa;fill-opacity:0.99215686;fill-rule:nonzero;stroke:none;stroke-width:5.9000001;stroke-miterlimit:4;stroke-dasharray:none;stroke-opacity:1"
       d="m 178.94941,571.25573 c -8.09266,-10.93974 -13.67914,-21.413 -20.32305,-38.10063 -12.57518,-31.58533 -14.6585,-41.42547 -15.25512,-72.05454 -0.40646,-20.86684 -0.37917,-21.3379 1.78452,-30.80875 5.93603,-25.98295 10.4942,-41.63853 14.28874,-49.07644 4.61352,-9.04325 22.17714,-22.64463 47.63891,-36.89189 l 9.29746,-5.20243 3.90006,1.40244 c 3.63672,1.30775 3.93095,1.62494 4.35764,4.69775 0.85228,6.13757 0.80518,24.28769 -0.11688,45.04928 -0.78525,17.68077 -0.75082,20.85039 0.23775,21.89043 1.0275,1.08101 1.24139,1.08101 1.92496,0 0.42297,-0.66887 0.77462,-2.53412 0.78144,-4.14499 0.008,-1.99764 0.75938,-3.86878 2.36177,-5.88513 4.01243,-5.04899 5.27716,-14.19277 5.31817,-38.44961 l 0.0347,-20.50863 2.0269,0.51975 c 20.66126,5.29809 33.76293,5.87054 52.31277,2.28567 8.48065,-1.63894 11.25987,-1.91155 11.99557,-1.17665 1.21314,1.21181 1.22344,17.18339 0.0298,46.27992 -0.74611,18.18835 -0.70696,21.67166 0.25518,22.70119 1.4925,1.59703 2.35025,0.28985 3.10282,-4.72861 0.301,-2.00727 1.04516,-4.40958 1.65367,-5.33847 3.45007,-5.2665 6.61631,-32.1217 5.85387,-49.65072 l -0.39342,-9.04551 3.50616,-0.52578 c 2.81449,-0.42206 5.57879,0.12567 14.01278,2.77654 5.77865,1.81628 13.43647,4.76875 17.01738,6.56106 5.83497,2.92049 6.81021,3.75168 9.39573,8.00791 10.59649,17.4437 17.94017,47.02776 18.83101,75.8609 0.40419,13.08183 0.29932,14.40484 -2.0618,26.0112 -2.7966,13.74702 -7.69331,30.55125 -17.21107,59.06397 -6.84664,20.51073 -10.89641,29.99853 -15.52839,36.37995 l -2.82751,3.89541 -0.5721,-12.81373 c -0.63368,-14.19278 -2.49552,-30.42068 -3.7616,-32.78639 -0.55333,-1.03389 -0.55173,-3.04558 0.005,-6.18422 0.45375,-2.55853 1.1982,-16.6667 1.65433,-31.3515 0.62905,-20.25199 1.09981,-27.10456 1.94941,-28.37648 0.97378,-1.45781 0.90816,-2.20641 -0.50237,-5.73064 -1.06569,-2.66271 -1.79748,-6.97506 -2.13247,-12.56673 -0.40739,-6.79988 -0.75475,-8.51295 -1.72616,-8.51295 -0.724,0 -1.31995,0.90225 -1.47267,2.22958 -0.25945,2.25481 -1.25703,2.90533 -2.17574,1.41883 -0.77129,-1.24798 -3.6484,-0.96008 -3.6484,0.36509 0,0.64672 0.48983,1.46761 1.08851,1.8242 1.89265,1.12733 3.73809,4.6757 3.72664,7.16552 -0.006,1.32064 0.39305,7.87377 0.88693,14.56251 0.94831,12.84335 0.63451,57.33332 -0.42199,59.82785 -1.28929,3.04414 -10.33253,6.02612 -31.17451,10.27967 -16.80347,3.42934 -23.97068,4.04673 -47.07368,4.05493 -33.43149,0.0118 -45.21795,-1.28922 -54.01937,-5.96314 l -4.76045,-2.52802 -0.21067,-38.36599 c -0.11824,-21.53422 0.10786,-38.93517 0.51538,-39.66336 0.60155,-1.07491 0.96451,-0.83624 2.11674,1.39194 0.95479,1.84636 1.58658,2.37236 2.01563,1.67814 0.64843,-1.04918 0.30437,-3.02317 -1.84326,-10.57556 -0.69742,-2.45254 -1.50364,-5.98873 -1.79162,-7.8582 -0.28797,-1.86948 -1.03971,-3.82739 -1.67052,-4.35092 -0.63082,-0.52353 -1.52846,-2.36874 -1.99476,-4.10046 -0.79235,-2.94255 -1.85061,-3.95366 -2.65899,-2.54051 -0.19131,0.33443 0.27327,3.58662 1.03241,7.22708 1.25194,6.00371 1.32332,11.0157 0.76789,53.91532 -0.3368,26.01297 -1.013,51.30955 -1.50266,56.21463 -0.48967,4.90508 -1.15627,18.04409 -1.48134,29.19779 l -0.59105,20.27947 -6.77487,-9.15834 z"
       id="path4414"
       inkscape:connector-curvature="0" />
    <path
       style="opacity:1;fill:#c87137;fill-opacity:1;fill-rule:nonzero;stroke:none;stroke-width:5.9000001;stroke-miterlimit:4;stroke-dasharray:none;stroke-opacity:1"
       d="m 210.7573,704.29515 c -6.79255,-0.60619 -10.69206,-2.59495 -12.65559,-6.45437 -1.8225,-3.58222 -2.29534,-6.75541 -4.05317,-27.2004 -2.09221,-24.33419 -2.52866,-31.60925 -3.17275,-52.88615 -0.16942,-5.59676 -0.43217,-12.88473 -0.58388,-16.19549 -0.55952,-12.21042 -0.63021,-19.49458 -0.30599,-31.53103 0.5299,-19.67183 1.50811,-42.30519 1.9884,-46.00665 0.25662,-1.97771 0.35399,-1.97 4.27663,0.3386 1.61578,0.95095 3.888,2.09796 5.04937,2.54892 4.23266,1.64355 12.01336,2.78274 23.25723,3.40516 16.85786,0.93318 38.19428,1.06288 48.58646,0.29533 8.80788,-0.65053 19.10976,-2.16682 27.25692,-4.01184 4.71121,-1.06691 20.51236,-5.10501 24.62537,-6.2932 1.65504,-0.47812 3.21129,-0.8693 3.45832,-0.8693 1.29545,0 2.33774,5.36209 3.12025,16.05216 0.90799,12.40416 1.01814,21.32054 1.01814,82.41066 0,56.63267 -0.0394,61.86286 -0.48637,64.51545 -0.9289,5.51289 -2.22136,7.57845 -5.81524,9.29365 -6.51576,3.10968 -28.63474,5.65873 -36.31173,4.18464 -7.48534,-1.43728 -11.58033,-5.19064 -14.10159,-12.92515 -4.58909,-14.07797 -9.00637,-46.67485 -10.20628,-75.31617 -0.16347,-3.90197 -0.43219,-10.28701 -0.59715,-14.18897 -0.34839,-8.2407 -0.72464,-12.12381 -1.31061,-13.52626 -0.4773,-1.14231 -0.84089,-1.44037 -1.76464,-1.44659 -1.32908,-0.009 -1.35253,0.33434 -1.38014,20.20413 -0.0261,18.78121 -0.24387,25.56077 -1.28453,39.98709 -1.65337,22.91999 -4.54053,42.49662 -7.56712,51.3096 -0.51436,1.49772 -1.39574,4.01304 -1.95862,5.58959 -0.56289,1.57655 -1.09327,3.20002 -1.17863,3.6077 -0.13294,0.63495 -0.39246,0.79382 -1.80975,1.10789 -0.91001,0.20166 -3.41853,0.92181 -5.5745,1.60034 -4.88085,1.53611 -7.46328,2.06432 -11.84558,2.42289 -4.01405,0.32844 -14.88894,0.31549 -18.67323,-0.0222 l 0,-10e-6 z"
       id="path4416"
       inkscape:connector-curvature="0" />
    <path
       style="opacity:1;fill:#ffeeaa;fill-opacity:1;fill-rule:nonzero;stroke:none;stroke-width:5.9000001;stroke-miterlimit:4;stroke-dasharray:none;stroke-opacity:1"
       d="m 272.59134,261.03031 c 0,-0.13218 1.6625,-1.42289 3.69444,-2.86823 4.14605,-2.94915 8.20304,-6.42681 9.92124,-8.5045 2.80843,-3.39604 3.43666,-5.01239 1.94816,-5.01239 -0.42623,0 -3.81223,1.47168 -7.52445,3.27039 -9.40505,4.55711 -19.58619,8.49666 -20.24799,7.83486 -0.10379,-0.10379 -0.27776,-1.04909 -0.3866,-2.10068 -0.2576,-2.48875 -0.64306,-2.80489 -3.17031,-2.60014 -2.31034,0.18718 -8.65202,1.81649 -12.4691,3.20356 -3.19546,1.1612 -4.44266,1.47052 -4.4437,1.1021 -3.8e-4,-0.13614 -0.12345,-1.9244 -0.27347,-3.97392 -0.15003,-2.04951 -0.41424,-7.85409 -0.58714,-12.89906 l -0.31436,-9.17266 1.49051,-3.1531 c 0.81978,-1.73421 2.5035,-5.41044 3.74159,-8.16941 1.2381,-2.75896 2.46893,-5.17754 2.73518,-5.37461 0.26626,-0.19707 0.87867,-0.35952 1.36092,-0.36099 1.02616,-0.003 3.06423,-1.11773 5.72134,-3.12888 1.93199,-1.46233 2.51459,-1.57325 3.04619,-0.57995 0.55796,1.04255 0.3201,2.35158 -0.59973,3.30061 -0.83713,0.8637 -0.8548,0.92991 -0.37597,1.40874 0.70574,0.70574 2.33692,0.45984 6.55733,-0.98851 9.61881,-3.30096 20.82737,-5.32555 31.24439,-5.64365 4.6274,-0.1413 5.63271,-0.0816 9.74596,0.57846 2.52248,0.40481 6.52119,0.87067 8.88602,1.03524 7.01083,0.48791 8.52381,0.89016 14.35697,3.81703 9.46433,4.74885 16.10458,11.01576 17.97084,16.96047 1.1723,3.73416 0.75208,9.20864 -1.08058,14.07757 -1.43228,3.80522 -5.30153,10.94661 -6.58341,12.15088 l -0.69083,0.649 -1.12123,-1.17867 c -0.90499,-0.95133 -1.31878,-1.17866 -2.14544,-1.17866 -2.15918,0 -2.31394,-0.35314 -1.17364,-2.67816 0.91895,-1.87371 0.78483,-2.82133 -0.47306,-3.34236 -0.82408,-0.34135 -1.10532,-0.23955 -5.37825,1.94672 -2.47979,1.26879 -5.21816,2.58817 -6.08526,2.93195 -0.8671,0.34378 -2.19574,0.87099 -2.95252,1.17159 l -1.37597,0.54654 0.18794,-1.6612 c 0.37004,-3.27072 -1.23071,-3.06527 -5.35159,0.68687 -3.28547,2.99149 -5.77601,4.69773 -6.85711,4.69773 -0.61089,0 -1.11641,-0.35594 -2.09616,-1.47594 l -1.29113,-1.47595 -3.3891,1.18745 c -4.40043,1.5418 -7.81416,2.34603 -16.62742,3.91725 -8.12079,1.44776 -7.5435,1.36766 -7.5435,1.04661 z"
       id="path4418"
       inkscape:connector-curvature="0" />
    <path
       style="opacity:1;fill:#f2f2f2;fill-opacity:1;fill-rule:nonzero;stroke:none;stroke-width:5.9000001;stroke-miterlimit:4;stroke-dasharray:none;stroke-opacity:1"
       d="m 304.81461,398.98809 c -0.35899,-1.91359 0.52775,-19.2346 1.72035,-33.60409 0.56663,-6.82729 0.54314,-9.3999 -0.13737,-15.04891 -0.65123,-5.40589 -0.68094,-6.01956 -0.29148,-6.01956 0.42976,0 1.61402,2.5375 1.97219,4.22577 0.67589,3.18584 0.94137,11.98146 0.61652,20.42577 -0.42445,11.03347 -1.08935,17.86463 -2.60693,26.7838 -0.68554,4.02905 -0.9829,4.78507 -1.27328,3.23722 z"
       id="path4424"
       inkscape:connector-curvature="0" />
    <path
       style="opacity:1;fill:#f2f2f2;fill-opacity:1;fill-rule:nonzero;stroke:none;stroke-width:5.9000001;stroke-miterlimit:4;stroke-dasharray:none;stroke-opacity:1"
       d="m 228.03539,396.78528 c -0.10279,-0.64278 -0.0293,-4.2303 0.16332,-7.97226 0.49454,-9.60762 0.48704,-37.03196 -0.0114,-41.53328 -0.21224,-1.91692 -0.30029,-3.75504 -0.19566,-4.0847 0.25963,-0.81803 1.44821,-0.79077 1.98746,0.0456 1.05014,1.62871 1.61631,10.06996 1.6294,24.29323 0.009,10.21605 -0.2046,13.59788 -1.35137,21.35511 -1.2144,8.21464 -1.82429,10.3822 -2.22179,7.89633 z"
       id="path4426"
       inkscape:connector-curvature="0" />
  </g>
</svg>
