<?xml version="1.0" encoding="UTF-8" standalone="no"?>
<!-- Created with Inkscape (http://www.inkscape.org/) -->

<svg
   xmlns:dc="http://purl.org/dc/elements/1.1/"
   xmlns:cc="http://creativecommons.org/ns#"
   xmlns:rdf="http://www.w3.org/1999/02/22-rdf-syntax-ns#"
   xmlns:svg="http://www.w3.org/2000/svg"
   xmlns="http://www.w3.org/2000/svg"
   xmlns:sodipodi="http://sodipodi.sourceforge.net/DTD/sodipodi-0.dtd"
   xmlns:inkscape="http://www.inkscape.org/namespaces/inkscape"
   id="svg4155"
   version="1.1"
   inkscape:version="0.91 r13725"
   xml:space="preserve"
   width="3060"
   height="4080"
   viewBox="0 0 3060 4080"
   sodipodi:docname="SuperTeacher_v2.svg"><metadata
     id="metadata4161"><rdf:RDF><cc:Work
         rdf:about=""><dc:format>image/svg+xml</dc:format><dc:type
           rdf:resource="http://purl.org/dc/dcmitype/StillImage" /><dc:title /></cc:Work></rdf:RDF></metadata><defs
     id="defs4159"><clipPath
       clipPathUnits="userSpaceOnUse"
       id="clipPath4171"><path
         d="m 0,0 2448,0 0,3264 L 0,3264 0,0 Z"
         id="path4173"
         inkscape:connector-curvature="0" /></clipPath></defs><sodipodi:namedview
     pagecolor="#ffffff"
     bordercolor="#666666"
     borderopacity="1"
     objecttolerance="10"
     gridtolerance="10"
     guidetolerance="10"
     inkscape:pageopacity="0"
     inkscape:pageshadow="2"
     inkscape:window-width="1440"
     inkscape:window-height="856"
     id="namedview4157"
     showgrid="false"
     showguides="false"
     inkscape:zoom="0.16127451"
     inkscape:cx="2005.2724"
     inkscape:cy="2172.0884"
     inkscape:window-x="0"
     inkscape:window-y="0"
     inkscape:window-maximized="0"
     inkscape:current-layer="layer3" /><g
     id="g4163"
     inkscape:groupmode="layer"
     inkscape:label="Grund"
     transform="matrix(1.25,0,0,-1.25,0,4080)"
     style="display:inline"><g
       id="g4165"
       style="fill:#000000;stroke:#000000;stroke-width:0.80000001;stroke-miterlimit:4;stroke-dasharray:none;stroke-opacity:1" /><path
       style="opacity:1;fill:#000000;fill-opacity:1;fill-rule:nonzero;stroke:#000000;stroke-width:0.80000001;stroke-miterlimit:4;stroke-dasharray:none;stroke-opacity:1"
       d="m 733.4933,272.9899 c -60.291,8.42384 -120.0191,20.65328 -156.2554,31.9936 -20.462,6.4036 -53.9453,16.4404 -74.4073,22.304 -34.6029,9.91576 -39.5442,13.12936 -70.6869,45.97208 -18.4158,19.42104 -33.4833,39.14128 -33.4833,43.82272 0,4.68144 -6.873,15.38464 -15.2733,23.78504 -13.0704,13.07032 -14.7729,17.59712 -11.8038,31.38464 1.9083,8.86112 6.549,22.13896 10.3129,29.50624 3.7638,7.36728 6.8721,19.64448 6.9072,27.28264 0.1053,22.84192 16.6833,70.818 48.8424,141.34808 5.8407,12.8096 10.6195,24.84232 10.6195,26.73936 0,3.29512 15.7065,38.87016 25.8123,58.46448 2.6336,5.10632 7.7456,18.4996 11.36,29.76288 3.6144,11.26328 10.8911,31.77344 16.1704,45.57808 5.2793,13.80464 9.3883,32.24728 9.1311,40.98368 -0.3232,10.976 2.1835,16.72568 8.1124,18.60712 4.719,1.4976 8.0673,4.58816 7.4407,6.868 -0.6267,2.27984 13.5318,19.44352 31.4631,38.14152 40.5963,42.33184 77.1587,87.32014 81.1268,99.82254 2.6027,8.2005 -24.4708,56.7977 -46.8071,84.0191 -2.7039,3.2952 -4.9918,7.7596 -5.0844,9.921 -0.093,2.1613 -4.4813,12.8586 -9.7527,23.7716 -5.2713,10.9131 -9.66,23.3217 -9.7526,27.5748 -0.093,4.253 -3.4457,12.0657 -7.4513,17.3616 -4.8851,6.4588 -7.3349,22.0864 -7.4407,47.4654 -0.1008,24.1787 -2.396,39.6046 -6.3584,42.7351 -3.4103,2.6943 -21.5249,9.7768 -40.2546,15.7388 -37.5746,11.9607 -103.607,48.9527 -99.4344,55.7041 1.457,2.3575 5.6344,22.6919 9.2831,45.1877 5.6031,34.5451 10.5234,57.7925 24.93,117.7888 0.9827,4.0924 2.1948,8.5568 2.6936,9.9209 0.4987,1.3642 1.2805,5.8286 1.7372,9.921 0.4568,4.0924 4.3826,19.7179 8.7242,34.7234 4.3415,15.0055 12.7938,47.3727 18.7829,71.9271 5.9891,24.5544 17.4515,61.8721 25.472,82.9281 8.0205,21.056 14.5827,47.4472 14.5827,58.6469 0,30.7851 19.0067,102.1611 37.5929,141.1727 44.0064,92.3678 115.1267,195.8125 167.7005,243.9212 31.8201,29.1175 103.7052,78.8671 142.3648,98.5266 30.8706,15.6985 160.1605,50.6557 213.7308,57.7881 43.8697,5.8408 62.3709,12.2098 50.0306,17.2228 -4.5065,1.8306 -4.7779,5.0871 -1.0108,12.1261 2.8326,5.2928 3.645,12.0589 1.8051,15.0358 -1.8398,2.977 -0.6689,7.0666 2.6019,9.088 7.21,4.4561 -6.0988,55.4554 -17.4283,66.7849 -3.8993,3.8993 -7.1378,14.5038 -7.1968,23.5656 -0.082,12.5869 -4.1799,19.9773 -17.3617,31.31 -19.1139,16.4328 -23.5213,33.0005 -7.6767,28.857 5.2678,-1.3776 10.8326,-5.7745 12.3662,-9.7709 4.3421,-11.3153 12.7793,-2.672 12.7793,13.0914 0,7.8006 1.355,36.1288 3.0111,40.4443 5.1886,13.5215 11.6117,-9.8512 10.7209,-26.69 -1.8388,-34.7582 1.4414,-67.8065 7.3501,-74.0529 3.4103,-3.6052 6.6059,-12.5844 7.1013,-19.9536 0.4956,-7.3693 5.5678,-23.9495 11.272,-36.8448 13.001,-29.3911 22.708,-24.2035 15.9539,8.5261 -9.9241,48.0912 2.3275,105.1673 32.0581,149.3468 9.8729,14.6709 15.2511,27.2593 12.7255,29.7849 -6.146,6.146 -43.1698,-7.092 -109.4236,-39.1248 -39.8805,-19.2817 -57.9005,-25.7018 -61.6408,-21.9615 -6.6112,6.6112 8.9887,25.3619 21.1002,25.3619 4.5192,0 13.0088,4.4644 18.8657,9.9209 5.8569,5.4566 13.7862,9.921 17.6206,9.921 9.8192,0 32.7568,24.0805 36.2697,38.0769 2.8967,11.5413 -6.1786,41.2909 -12.5959,41.2909 -4.4738,0 -21.848,29.8782 -19.0191,32.707 3.353,3.3529 32.8746,-28.0941 36.1949,-38.5556 3.1706,-9.9895 9.8338,-11.7837 14.6744,-3.9513 6.5458,10.5911 -4.2793,36.2866 -22.8994,54.3569 -33.4661,32.4778 -20.8502,42.3528 14.9544,11.7054 14.7988,-12.6672 22.309,-16.3474 24.878,-12.1908 3.2229,5.2149 -7.1454,61.8496 -17.1324,93.5819 -2.5696,8.1645 -1.5212,11.1611 3.9048,11.1611 7.78,0 21.8626,-27.7807 19.488,-38.4438 -2.0062,-9.0084 -0.1508,-8.227 32.9439,13.8727 16.5329,11.0402 39.5678,31.4294 51.1886,45.3091 23.4615,28.0222 32.885,24.8035 10.7647,-3.6769 -16.54,-21.2958 -74.2896,-66.666 -84.856,-66.666 -5.8392,0 -6.7649,-4.4529 -4.4447,-21.3802 1.9863,-14.4923 0.4866,-26.0783 -4.6555,-35.9635 -4.8587,-9.3406 -7.0458,-24.3915 -6.0837,-41.866 1.6376,-29.7412 -2.2409,-40.7092 -12.9434,-36.6023 -3.7959,1.4566 -9.2263,-1.6957 -12.0679,-7.0051 -5.8084,-10.8532 -1.8351,-18.041 6.4294,-11.6309 18.3862,14.2608 89.361,19.5236 144.3105,10.7006 16.3696,-2.6284 45.3885,-5.8907 64.4863,-7.2496 l 34.7234,-2.4707 -0.7631,60.6123 c -0.9782,77.6936 -3.8553,87.6275 -31.4573,108.6139 -21.2112,16.1274 -31.764,33.8464 -20.1576,33.8464 2.9673,0 33.8324,-14.25 68.5891,-31.6666 90.6086,-45.404 118.9758,-53.3365 195.8497,-54.7664 34.7855,-0.647 63.2462,-0.5005 63.2462,0.3256 0,0.8261 -12.3723,5.0987 -27.4941,9.4947 -22.836,6.6386 -30.8201,12.2003 -47.1246,32.8272 -27.1987,34.4089 -26.1873,43.3093 2.6917,23.6884 35.9288,-24.4106 82.3955,-49.1975 120.4185,-64.2351 22.5779,-8.9292 113.2801,-30.4542 114.7475,-32.8284 5.7255,-9.2641 -86.0213,2.285 -130.0109,10.2055 -36.2423,6.5256 -50.9628,7.1479 -69.7079,2.9471 -51.6409,-11.573 -202.8129,16.1352 -222.0567,40.7005 -7.5877,9.6862 -8.0784,7.8945 -8.8722,-32.4013 -0.4623,-23.4599 1.668,-57.0582 4.7337,-74.6628 l 5.574,-32.0085 20.66,-2.9257 c 46.1549,-6.5361 158.9977,-13.9494 229.0003,-15.0444 63.4657,-0.9927 78.7839,-2.8184 104.1702,-12.4158 37.3098,-14.105 70.0048,-19.2269 64.3525,-10.0813 -3.1317,5.0672 5.9345,5.6963 45.0555,3.1265 42.0698,-2.7634 50.5889,-4.8299 60.4131,-14.654 10.3193,-10.3193 10.8635,-13.0815 5.5694,-28.2684 -5.4142,-15.5308 -4.9427,-17.4233 6.1005,-24.4913 6.5824,-4.2129 19.2227,-14.7356 28.0896,-23.3837 13.3176,-12.989 16.1183,-19.4767 16.103,-37.3019 -0.034,-42.6912 -32.3181,-73.616 -76.869,-73.6388 -22.4761,-0.011 -78.2858,9.2549 -104.6737,17.3797 -9.4578,2.912 -10.717,0.7591 -13.5804,-23.2188 -3.0455,-25.5048 -2.5637,-26.9485 13.787,-41.3099 19.0296,-16.7143 34.2287,-44.619 42.7624,-78.5098 9.8531,-39.13 -0.6804,-69.1108 -37.0532,-105.4623 -36.3177,-36.2965 -71.0682,-51.2933 -128.1844,-55.3193 -21.144,-1.4904 -38.4437,-4.2472 -38.4437,-6.1261 0,-3.1554 9.8495,-37.1072 27.8167,-95.8863 4.0068,-13.1079 29.1891,-66.6812 55.9607,-119.0516 26.7716,-52.3705 50.3075,-104.0247 52.3019,-114.7871 1.9945,-10.7624 9.0242,-30.2201 15.6216,-43.2393 14.6894,-28.9882 15.0492,-43.0602 1.6805,-65.7185 -11.8681,-20.115 -9.0677,-29.0482 7.7803,-24.8195 21.2136,5.3242 30.5506,-2.5614 60.8473,-51.3886 31.118,-50.151 110.4923,-199.0418 115.9498,-217.4996 5.6111,-18.9773 -14.7658,-40.866 -76.6232,-82.3078 -71.9343,-48.1929 -100.6288,-61.8647 -142.6068,-67.9462 -29.6437,-4.2946 -32.5769,-3.8565 -41.1267,6.1443 -5.0636,5.9228 -17.0324,19.6976 -26.5973,30.6107 -16.6474,18.9937 -105.4842,200.775 -103.2919,218.871 0.4218,3.482 41.4274,-90.5453 52.4056,-109.3318 10.9784,-18.7867 34.9747,-55.1792 53.3252,-80.8724 l 33.3648,-46.7148 22.3222,3.1413 c 29.1661,4.1043 68.3067,22.5059 141.3738,66.4655 79.9642,48.109 77.5067,45.1088 60.4866,73.8438 -7.627,12.8766 -28.3634,53.547 -46.081,90.3786 -39.3332,81.7663 -76.6506,147.8309 -85.4068,151.1989 -3.5831,1.3783 -12.9592,-0.8266 -20.8356,-4.8997 -7.8765,-4.0731 -17.4598,-7.4056 -21.2961,-7.4056 -3.8364,0 -16.7285,-13.3933 -28.6491,-29.7629 -21.2763,-29.2169 -34.3152,-37.5185 -34.3152,-21.8479 0,4.3533 4.1816,13.8403 9.2927,21.0821 5.1109,7.2418 16.8301,27.4243 26.0425,44.85 9.2124,17.4257 20.6372,38.6318 25.3884,47.1247 12.2904,21.9694 7.9654,37.3716 -25.8653,92.1108 -37.0795,59.9958 -48.732,86.3728 -74.8431,169.4164 -11.4871,36.5337 -25.9644,77.9713 -32.1717,92.0835 -6.2075,14.1122 -9.8113,27.3054 -8.0087,29.3181 1.8028,2.0128 0.4872,2.0538 -2.923,0.091 -6.4498,-3.7117 -7.9667,1.1631 -6.3974,20.5591 1.2551,15.5104 -10.5833,10.0153 -18.8999,-8.7731 -4.1805,-9.4444 -5.3505,-22.0329 -3.2198,-34.6438 2.1365,-12.6463 1.4645,-19.8089 -1.8587,-19.8089 -2.8629,0 -7.7564,-9.4744 -10.8746,-21.0542 -3.1181,-11.5797 -9.6477,-28.8794 -14.5102,-38.4437 -4.8624,-9.5643 -21.3072,-52.4759 -36.544,-95.3591 -15.2367,-42.8832 -35.5602,-93.5716 -45.1634,-112.641 l -17.4604,-34.6717 9.6746,-16.3973 c 5.3211,-9.0184 16.371,-32.636 24.5554,-52.4834 20.5798,-49.9064 31.2594,-63.2338 58.755,-73.321 36.0623,-13.23 49.9106,-34.9131 18.5392,-29.0277 -9.5489,1.7913 -17.3447,2.4505 -17.3238,1.4649 0.02,-0.9857 4.4682,-16.3016 9.883,-34.0354 14.5886,-47.7777 11.8295,-47.1968 -11.7795,2.4802 -11.6695,24.5544 -39.157,73.0173 -61.0834,107.6953 -36.2873,57.3906 -40.6677,62.4648 -48.7939,56.5228 -6.4022,-4.6813 -7.7511,-9.1867 -4.7682,-15.9262 2.2878,-5.1691 5.4406,-81.9454 7.0066,-170.614 l 2.847,-161.2159 24.3902,-39.6838 c 13.4146,-21.8262 46.2,-84.1515 72.8564,-138.5009 45.7842,-93.3488 48.0906,-99.5433 41.6776,-111.9448 -3.7339,-7.2202 -9.3178,-40.8803 -12.4089,-74.80002 -3.0911,-33.91976 -18.9537,-141.5756 -35.2503,-239.23528 -16.2965,-97.65968 -29.8305,-187.55032 -30.0756,-199.75688 -0.245,-12.20656 -2.4301,-23.42032 -4.8558,-24.91952 -8.5197,-5.26544 1.4691,-11.96112 17.8439,-11.96112 23.7839,0 76.119,-17.23712 100.623,-33.14128 33.4165,-21.68872 44.8618,-54.70744 25.9861,-74.968 -10.0255,-10.76112 -10.2262,-10.76992 -237.5677,-10.42256 -227.081,0.34728 -227.5832,0.37056 -252.3287,11.83536 -20.182,9.3504 -25.9265,14.9164 -30.8773,29.91728 -3.3453,10.1364 -4.979,28.2192 -3.6303,40.18408 2.22,19.69648 1.2191,22.3576 -10.5824,28.13288 -17.827,8.72424 -14.7511,21.15344 11.607,46.9012 l 21.5768,21.0772 -8.9946,29.70736 c -4.9472,16.33912 -20.482,50.38264 -34.5219,75.65224 -14.04,25.26968 -34.9009,65.43264 -46.3575,89.25096 -11.4567,23.81832 -22.3973,43.35024 -24.3124,43.40424 -1.9151,0.0544 -10.1871,-9.6472 -18.3822,-21.55832 -8.1949,-11.91104 -34.5308,-39.12528 -58.524,-60.476 -84.1328,-74.8672 -135.3929,-127.85216 -135.3929,-139.94896 0,-28.76136 -35.467,-74.75376 -66.2225,-85.87512 -10.5209,-3.80432 -18.1058,-9.85872 -18.1058,-14.45224 0,-8.77416 36.4608,-37.42176 66.6465,-52.3648 23.3659,-11.56704 54.7624,-41.33768 58.4445,-55.41784 1.532,-5.85832 -2.843,-20.2824 -10.3934,-34.26672 -9.7564,-18.07 -17.406,-25.64024 -30.385,-30.0704 -19.769,-6.74768 -63.0689,-7.19936 -106.6347,-1.11224 z m -96.3656,175.95184 c 96.2493,16.47648 141.7602,32.03984 155.6407,53.22424 4.0065,6.11464 11.7917,25.6004 17.3006,43.30176 8.8792,28.5316 13.3075,34.83264 39.0187,55.52048 15.9515,12.83488 50.0416,43.73456 75.7558,68.66592 25.7142,24.93136 59.3852,57.23136 74.8245,71.77784 15.4393,14.5464 26.7864,27.73304 25.2158,29.3036 -1.5706,1.57056 -0.2513,2.8556 2.9316,2.8556 3.183,0 5.7872,4.4644 5.7872,9.92096 0,5.45656 2.2323,9.92096 4.9605,9.92096 2.7283,0 4.9606,4.53448 4.9606,10.07664 0,5.54224 3.3355,11.35664 7.4122,12.92104 4.0767,1.5644 6.2619,4.70544 4.8561,6.98016 -1.4058,2.27472 0.4946,5.9472 4.2234,8.16112 3.7288,2.21384 8.129,11.00336 9.7784,19.53224 2.8834,14.90984 31.1596,62.1028 39.2536,65.51424 2.1576,0.90944 3.9231,5.80016 3.9231,10.86832 0,5.06816 1.973,10.43424 4.3845,11.92456 4.2448,2.6236 26.9988,46.57968 27.5741,53.26788 0.1563,1.8188 1.9019,4.9243 3.8785,6.901 3.3654,3.3654 40.1766,76.152 41.2487,81.561 4.2347,21.363 14.2059,44.9194 21.9995,51.9726 9.09,8.2263 10.0809,8.272 13.0247,0.6007 1.7524,-4.5667 -0.7682,-18.8219 -5.6013,-31.6783 -9.6613,-25.6997 -66.8173,-140.35792 -121.1211,-242.97568 l -34.8339,-65.82536 16.7862,-23.46344 c 20.1709,-28.1944 39.4514,-66.07024 67.4962,-132.594 11.5018,-27.28272 26.2112,-60.10328 32.6876,-72.93456 14.302,-28.33544 11.2263,-40.13352 -16.2389,-62.2916 -22.729,-18.33696 -20.0392,-23.2176 18.6644,-33.8672 61.7053,-16.9788 204.4761,-13.91392 281.6529,6.04616 40.7392,10.53632 47.5033,20.05208 54.194,76.23864 3.0863,25.91856 13.2812,87.30456 22.6553,136.41344 9.3741,49.1088 20.6267,118.3076 25.0056,153.77504 4.3791,35.46752 9.2663,75.08936 10.8607,88.04864 3.53,28.69088 -5.066,31.73568 -20.9106,7.40688 -45.5111,-69.8812 -68.9346,-103.64312 -76.9185,-110.86848 -8.9114,-8.06472 -9.3337,-7.86104 -9.3337,4.50288 0,7.12232 5.0225,20.60688 11.1612,29.96552 12.1795,18.56856 28.1899,44.8104 35.8996,58.8416 2.6932,4.90136 6.5996,8.91144 8.6809,8.91144 2.0813,0 3.7842,3.16232 3.7842,7.02744 0,3.86496 1.8592,7.77136 4.1316,8.6808 4.3583,1.74424 40.5128,56.85124 40.5128,61.75004 0,1.572 4.6403,9.375 10.3117,17.3398 l 10.3118,14.4816 -43.7082,83.0136 c -90.0262,170.9837 -97.5416,188.2769 -98.594,226.8678 -0.5208,19.0979 -1.6533,57.2894 -2.5167,84.8702 l -1.5697,50.1468 -72.1406,5.0013 c -68.2563,4.7321 -72.8506,4.4764 -85.3293,-4.7494 -14.7299,-10.8903 -15.5285,-10.9557 -90.1719,-7.3772 -51.5606,2.4719 -68.0764,7.4405 -68.0764,20.4801 0,3.947 -27.1662,7.6991 -85.5684,11.818 -99.5197,7.0188 -192.495,25.5991 -207.8393,26.2239 -30.31536,1.2343 -25.78723,8.7882 -24.14423,11.4466 3.2873,5.319 29.80323,2.9388 158.78013,-14.7936 47.7248,-6.5615 102.6688,-11.9299 122.0978,-11.9299 l 35.3255,0 3.1545,23.0145 c 5.9799,43.6285 5.7344,44.2106 -17.9276,42.4949 -22.0887,-1.6016 -260.86876,30.6569 -269.84516,36.2046 -9.7012,5.9957 28.96076,13.4294 42.83136,10.6554 9.3754,-1.8752 14.1804,-0.01 17.6396,6.8469 2.6148,5.1833 14.0011,24.5663 25.3029,43.0735 21.2885,34.8608 66.2598,135.2845 66.2598,147.9624 0,3.9704 2.2322,7.2189 4.9605,7.2189 2.7282,0 4.9604,2.2323 4.9604,4.9605 0,2.7282 -3.2374,4.9605 -7.1942,4.9605 -12.7485,0 -16.4682,15.5563 -13.8302,57.8397 2.78,44.5618 -2.4817,53.6261 -13.2168,22.7682 -25.3671,-72.917 -43.8854,-118.2024 -62.3756,-152.535 -11.7547,-21.8261 -21.3323,-46.2064 -21.2835,-54.1784 0.05,-7.9721 -3.2781,-16.9566 -7.3933,-19.9657 -4.1151,-3.0091 -8.5996,-9.8798 -9.9656,-15.2683 -2.0597,-8.1255 -2.5817,-7.7114 -3.059,2.4268 -0.5385,11.4402 -1.1089,11.6905 -8.8958,3.9036 -6.7289,-6.7289 -7.2672,-10.6321 -2.8141,-20.4056 3.0285,-6.6469 4.3309,-17.3324 2.8943,-23.7456 -3.8668,-17.2611 -42.2978,-109.6861 -49.1945,-118.3108 -3.2725,-4.0924 -14.2794,-24.1824 -24.4599,-44.6444 -10.1805,-20.462 -30.5783,-55.7882 -45.3284,-78.5028 -14.7502,-22.7144 -35.7123,-58.988 -46.5826,-80.6078 l -19.7641,-39.3089 -30.9476,-0.6793 c -27.704,-0.6082 -39.5294,-1.2865 -62.6417,-3.5933 -20.5537,-2.0515 19.437,-140.4751 57.1888,-197.9532 33.0873,-50.3763 32.0128,-53.6555 -43.3696,-132.36126 -57.2019,-59.72384 -63.0596,-67.57272 -68.8744,-92.2864 -10.0204,-42.5876 -30.959,-98.76736 -83.0045,-222.7068 -26.9682,-64.2212 -31.7544,-79.85384 -29.5289,-96.44632 1.9962,-14.88256 0.2015,-23.24936 -7.2237,-33.67704 -6.6745,-9.37344 -9.3792,-19.91072 -8.3372,-32.47976 l 1.5426,-18.60504 37.2036,-5.27192 c 60.4865,-8.5712 147.1292,-8.3616 198.7834,0.48064 z m 59.3373,903.78616 c 27.0148,51.1833 91.8562,168.936 104.481,189.7386 26.3457,43.4112 50.0194,114.8438 40.0938,120.9781 -2.5548,1.579 -14.7472,-6.0212 -27.0941,-16.8895 -12.347,-10.8681 -23.5203,-19.7603 -24.8296,-19.7603 -1.3094,0 -3.5481,4.4644 -4.975,9.921 -1.4269,5.4565 -0.5712,9.9209 1.9017,9.9209 2.4728,0 4.496,2.9373 4.496,6.5273 0,3.59 8.3709,11.2617 18.6018,17.0482 19.8652,11.2354 52.3992,43.3228 69.9096,68.9499 13.062,19.1166 65.6519,138.0383 77.2788,174.7508 16.7808,52.9862 52.1949,116.6111 60.3611,108.445 1.9843,-1.9844 -1.5332,-18.7088 -7.8167,-37.1653 l -11.4246,-33.5575 10.1633,-19.9217 c 9.6656,-18.9461 10.3537,-50.1577 0.9781,-44.3632 -5.8342,3.6057 -10.9328,-15.748 -7.2259,-27.4278 4.7815,-15.0651 14.7728,-2.3822 27.2119,34.543 5.7058,16.9372 16.9588,42.4624 25.007,56.7229 20.4661,36.2639 31.4475,70.1706 59.6108,184.0564 13.4937,54.5653 27.7522,110.8745 31.6854,125.1316 5.0768,18.4013 5.8004,30.6335 2.4942,42.1613 -3.2034,11.1695 -2.9674,16.8027 0.7556,18.0436 2.9772,0.9924 0.1905,4.4233 -6.192,7.6243 -9.3107,4.6692 -16.5085,4.1236 -36.4074,-2.76 -13.6414,-4.7188 -63.0306,-20.874 -109.7538,-35.9005 -163.6197,-52.6211 -237.3189,-97.0027 -325.3966,-195.9539 -36.6111,-41.1308 -89.4601,-119.992 -108.3877,-161.7358 -38.2449,-84.3474 -42.8831,-143.8703 -15.0071,-192.5924 8.4545,-14.777 15.3719,-29.3858 15.3719,-32.4641 0,-12.7081 -13.8147,-4.1545 -27.0128,16.7255 -7.7604,12.2772 -15.6253,22.3222 -17.4776,22.3222 -1.8523,0 -8.5741,-16.601 -14.9374,-36.8911 -12.6566,-40.3569 -13.5425,-35.2471 12.1917,-70.3187 3.2573,-4.4392 2.8718,-8.5855 -1.1745,-12.6318 -4.7242,-4.7242 -8.6844,-3.5234 -18.3608,5.567 -14.7497,13.8566 -13.2217,16.9245 -29.5555,-59.3424 -6.7195,-31.3752 -17.7921,-81.6 -24.6059,-111.611 -6.8137,-30.011 -13.0677,-63.3934 -13.8978,-74.183 -1.3781,-17.9152 0.2855,-20.9865 19.1695,-35.3898 37.2526,-28.4134 89.8401,-43.9039 175.1869,-51.6038 20.462,-1.8461 38.6922,-3.7263 40.5115,-4.1781 1.8193,-0.4519 17.1514,25.4069 34.0712,57.4641 z m 580.2015,159.9757 0,19.8419 -22.0295,0 c -12.1161,0 -23.4089,-2.2322 -25.0952,-4.9604 -4.6476,-7.5202 -11.3554,-6.0063 -22.4222,5.0605 -9.9119,9.912 -9.9166,10.133 -0.4281,20.3178 8.679,9.3157 11.247,9.6987 26.9526,4.0195 11.9904,-4.3358 22.3191,-4.855 33.3943,-1.6786 14.8952,4.2719 29.6138,18.5581 24.3341,23.6191 -4.6576,4.4645 -131.4223,11.8179 -135.7071,7.8721 -5.1277,-4.7224 -7.0964,-76.5462 -2.2325,-81.4546 3.9307,-3.9667 61.1012,-10.9239 97.191,-11.8273 l 26.0426,-0.652 z m 173.617,26.7399 0,36.661 -16.2669,1.8991 c -8.9469,1.0445 -41.0527,1.0507 -71.3462,0.015 l -55.0792,-1.8853 -3.3665,-29.7554 c -1.8515,-16.3655 -1.9365,-31.195 -0.1889,-32.9545 1.7476,-1.7593 31.4619,-4.4463 66.0317,-5.9709 34.5698,-1.5247 66.7605,-3.1988 71.535,-3.7204 7.5699,-0.827 8.6809,3.7432 8.6809,35.7126 l 10e-5,0 z m 0,65.0291 c 0,14.9353 -12.2413,16.682 -19.6674,2.8064 -7.3317,-13.6995 -6.6111,-15.2076 7.2662,-15.2076 9.921,0 12.4012,2.4802 12.4012,12.4012 z m -315.6491,0.074 c 2.3986,6.2508 11.0856,7.0933 51.6727,5.0109 26.8341,-1.3767 60.6795,-4.758 75.2119,-7.514 14.5324,-2.756 46.2079,-5.011 70.3899,-5.011 41.6153,0 43.9673,0.5678 43.9673,10.6125 0,5.8369 6.296,20.9043 13.9909,33.4833 23.0351,37.6552 98.5468,194.4429 107.7718,223.7705 4.72,15.0055 14.0653,38.2291 20.7673,51.6079 11.8806,23.7166 26.1266,70.2725 26.1266,85.3816 0,5.5592 -2.9245,6.6008 -11.1611,3.9752 -20.7363,-6.6103 -24.4979,-4.6068 -33.3654,17.7708 -4.865,12.2772 -11.5736,22.3221 -14.9077,22.3221 -3.4504,0 -12.9253,-23.6345 -21.9908,-54.8536 -27.4092,-94.3911 -97.2411,-260.7204 -139.9348,-333.3044 -25.6332,-43.5793 -36.5856,-55.075 -36.5856,-38.4007 0,4.1161 12.2772,28.7494 27.2828,54.7409 15.0054,25.9913 27.2826,48.5331 27.2826,50.0927 0,1.5596 6.4749,16.5481 14.3886,33.3078 36.8128,77.962 69.141,151.7272 76.3998,174.3261 13.4146,41.7637 34.4095,122.9578 36.8886,142.6599 1.9867,15.7884 1.0939,18.1672 -5.8225,15.5131 -4.493,-1.7241 -7.8134,-1.1867 -7.3787,1.1942 2.0546,11.2547 -1.5385,16.1619 -15.3628,20.981 -12.3217,4.2954 -17.9563,3.4643 -31.7707,-4.6864 -15.0003,-8.8505 -17.3898,-13.3378 -22.3889,-42.0444 -3.078,-17.6751 -13.0856,-53.8537 -22.2394,-80.3967 -22.4844,-65.1988 -164.4586,-353.33 -174.1002,-353.33 -4.0421,0 -7.3493,1.481 -7.3493,3.2912 0,1.8103 24.228,51.4771 53.84,110.3708 85.4917,170.0301 139.6189,298.8451 139.6189,332.2732 0,15.9113 -9.1315,12.694 -49.0306,-17.2751 -22.407,-16.8304 -38.4089,-25.7337 -41.2122,-22.9303 -6.6376,6.6375 63.977,68.1931 92.9117,80.9923 22.7608,10.0682 23.4827,10.9726 14.3683,18.0009 -20.0225,15.4399 -100.1662,49.845 -130.3344,55.9515 -17.2969,3.5012 -39.1603,11.5988 -48.585,17.9946 -32.0906,21.7772 -33.366,16.0549 -9.3936,-42.1442 17.505,-42.4978 38.2814,-78.1689 58.2461,-100.0021 12.7342,-13.9263 16.0599,-29.763 6.2501,-29.763 -14.0598,0 -53.7199,59.1018 -72.0989,107.4422 -2.9823,7.8442 -6.8192,11.3827 -9.4303,8.6969 -2.4212,-2.4905 -21.5572,-59.2175 -42.5244,-126.0601 -47.0516,-149.9988 -57.4684,-176.486 -107.0706,-272.2505 -42.8522,-82.7328 -65.9233,-134.1351 -61.9758,-138.0826 2.9223,-2.9222 117.3044,-19.7607 140.1635,-20.6337 9.7737,-0.3736 16.6667,2.2081 18.4743,6.9186 z m -249.8463,107.7151 c 0,2.9034 -3.1519,2.4213 -7.4407,-1.1381 -4.0924,-3.3964 -7.4408,-6.948 -7.4408,-7.8924 0,-0.9445 3.3484,-0.4325 7.4408,1.1381 4.0924,1.5704 7.4407,5.122 7.4407,7.8924 z m 681.8257,341.5278 c 13.774,8.4006 28.8938,20.4652 33.5996,26.8101 l 8.556,11.5363 -28.398,2.8601 c -15.6188,1.5731 -43.8728,4.3217 -62.7865,6.1079 l -34.3886,3.2478 11.013,-14.3162 c 6.0571,-7.8739 16.5375,-22.6869 23.2897,-32.918 6.7522,-10.231 14.9305,-18.6018 18.1741,-18.6018 3.2435,0 17.1668,6.8732 30.9407,15.2738 z m -72.6367,4.9402 c -0.9776,2.9329 -3.8981,5.3325 -6.4899,5.3325 -2.5919,0 -5.5124,-2.3996 -6.49,-5.3325 -0.9777,-2.9329 1.9428,-5.3326 6.49,-5.3326 4.5471,0 7.4676,2.3997 6.4899,5.3326 z m 215.8411,61.6104 c 78.2297,20.3762 128.0798,71.5014 120.3005,123.3777 -3.7497,25.0053 -29.0862,70.8521 -41.1713,74.5005 -4.8353,1.4596 -25.262,6.03 -45.3924,10.1563 -62.3756,12.7856 -99.7296,38.4396 -99.794,68.5362 -0.03,13.5492 5.9326,10.5719 32.1708,-16.0668 27.5936,-28.0149 48.7984,-37.0526 76.1092,-32.4385 18.4807,3.1223 18.9129,3.704 25.1355,33.8308 9.2634,44.8493 8.7262,45.0512 -126.2853,47.4481 -50.2016,0.8913 -60.2932,6.7959 -52.7893,30.8867 2.9034,9.3212 6.7507,39.304 8.5498,66.6286 l 3.2709,49.6809 -76.0992,8.7315 c -41.8545,4.8022 -89.102,8.6744 -104.9944,8.6047 l -28.8952,-0.1266 3.4353,-43.9135 c 3.3858,-43.2804 3.266,-43.9588 -8.3084,-47.0568 -6.459,-1.7289 -23.2505,-3.174 -37.3142,-3.2112 l -25.5707,-0.068 2.6668,19.8821 c 1.7163,12.7958 -0.4246,27.9767 -6.0064,42.5927 -7.2689,19.0335 -10.3656,22.2677 -19.1269,19.9766 -6.3471,-1.6598 -14.4035,0.8259 -20.5082,6.3275 -14.3769,12.9569 -31.6013,15.8684 -49.2797,8.3298 -21.2008,-9.0407 -34.9794,-25.3217 -49.81,-58.8565 -10.7468,-24.3002 -12.6546,-35.913 -12.6546,-77.0266 0,-40.3404 1.8609,-52.1026 11.161,-70.5454 10.2275,-20.2816 12.8854,-22.2589 31.772,-23.6355 17.2638,-1.2583 23.5385,1.0682 38.6395,14.327 16.8489,14.7936 21.8727,31.7099 11.6985,39.3914 -6.4289,4.8537 4.8543,16.2281 12.998,13.103 10.0591,-3.86 17.1056,-22.0413 13.6555,-35.2343 -1.4339,-5.483 -13.5433,-20.9054 -26.9099,-34.272 -23.4684,-23.4685 -25.0903,-24.2141 -47.2385,-21.7177 -18.4212,2.0764 -26.0875,6.127 -38.9475,20.5787 -8.8063,9.8964 -16.751,20.212 -17.6548,22.9234 -1.025,3.0749 -6.8066,2.5582 -15.3652,-1.3732 -18.268,-8.3912 -15.9031,-22.5158 6.2655,-37.4204 9.5028,-6.389 25.4381,-18.5638 35.4119,-27.0551 16.2387,-13.8252 17.6374,-16.8641 13.3808,-29.0742 -14.4318,-41.3991 4.011,-61.1069 73.4924,-78.5334 23.8566,-5.9835 61.3684,-19.9971 83.3594,-31.1415 112.4167,-56.9697 101.8131,-53.3039 175.2283,-60.5793 92.3669,-9.1536 137.5942,-9.2771 171.4145,-0.4678 l 0,-2e-4 z m -525.8118,189.7618 c -16.2187,11.9072 -22.9886,7.7993 -19.7756,-11.9998 1.6244,-10.0102 5.8229,-20.021 9.3298,-22.2462 3.5071,-2.2252 4.5705,-4.08 2.3633,-4.1218 -2.2073,-0.04 -2.3001,-2.8478 -0.2064,-6.2356 2.41,-3.8994 6.1787,2.0162 10.2707,16.1216 5.7657,19.8745 5.5516,22.951 -1.9819,28.4818 z m 740.9207,95.8198 c 23.7061,8.982 36.3034,24.3024 36.1287,43.9386 -0.2633,29.5924 -17.9506,44.3572 -68.7212,57.3658 -37.1315,9.5139 -87.578,10.5815 -105.884,2.2408 -13.7156,-6.2493 -18.5187,-17.2722 -18.6283,-42.7505 -0.06,-13.9683 3.3066,-17.8122 29.5772,-33.7708 26.6883,-16.2122 73.8599,-30.8701 102.7252,-31.9205 5.9611,-0.2168 17.1221,1.9866 24.8024,4.8966 z m -177.919,65.3961 c 9.9909,40.6314 13.3128,95.8469 6.0368,100.3437 -7.4984,4.6342 -112.9974,15.4263 -116.5057,11.918 -5.5079,-5.5079 -19.0101,-107.2048 -15.8861,-119.652 3.2342,-12.8859 4.5853,-13.3431 44.2158,-14.9625 22.4838,-0.9187 48.7222,-2.1248 58.3076,-2.6801 17.1193,-0.9918 17.5413,-0.5486 23.8316,25.0329 z m -360.6615,54.5653 c 10.7949,9.0379 6.9239,66.8404 -4.7004,70.1859 -21.8862,6.299 -75.2168,8.8225 -75.2168,3.5591 0,-3.0461 2.2322,-5.8174 4.9605,-6.1584 2.7283,-0.341 7.7507,-0.8991 11.1611,-1.2401 6.6112,-0.6611 22.5012,-42.7697 23.1646,-61.386 0.3294,-9.2457 3.2146,-11.1611 16.8113,-11.1611 9.0275,0 19.7464,2.7902 23.8197,6.2006 z m 525.2621,0.8344 c 0,1.141 1.2923,5.4423 2.8719,9.5584 2.2318,5.8161 -2.466,8.1658 -21.0821,10.5448 -13.1747,1.6836 -31.2086,4.1802 -40.0755,5.5479 -12.2328,1.887 -16.1216,0.6606 -16.1216,-5.0842 0,-4.164 5.0225,-8.6029 11.1612,-9.8642 6.1385,-1.2614 20.0899,-4.4215 31.003,-7.0226 23.1873,-5.5266 32.2431,-6.5602 32.2431,-3.6801 z m -96.7294,13.4919 c 3.3037,3.2924 1.679,7.3649 -4.8646,12.1936 -14.1585,10.4479 -24.6509,6.5575 -26.5293,-9.8365 -1.5308,-13.3603 -0.769,-14.0218 12.4012,-10.7676 7.7176,1.9069 16.2644,5.6916 18.9927,8.4105 z"
       id="path4308"
       inkscape:connector-curvature="0"
       sodipodi:nodetypes="cssssssscssssssccssscscsssssssccsssssssscsccsssssscsscssssssssssssscsscssssssssssscssscsssssssssscsscsscsssssscssccsssssssssssssssssssssscsssscsssscssssccccscssssscsssccsssssscsscssscssssssccscssscssssssssscccsssssssssssscscsccccsssscssssssssssssscsssssscssscssssssssscsssccsssssssscscssscsssscssssssssccsccsscsssssssscscsscssscsccsssssssssssssscsscsccscssssccssccccsccscsscccsssscsssssssssssssssssssscssssssssscsssssssssssccccssscssscsscsssscscsccscscsssssscsscscccssssssssssscssssssssssssccccscccsccsssssscssssssssssssssssscssscsssssss" /><path
       style="opacity:1;fill:#000000;fill-opacity:1;fill-rule:nonzero;stroke:#000000;stroke-width:0.80000001;stroke-miterlimit:4;stroke-dasharray:none;stroke-opacity:1"
       d="m 1719.1906,2629.0413 c -19.118,7.6738 -102.426,11.6341 -119.5031,5.681 -15.2381,-5.3121 -21.3697,-0.3916 -9.2702,7.4393 3.4103,2.2072 36.0563,7.4369 72.5467,11.6216 62.4646,7.1633 67.5018,7.091 86.1007,-1.2359 14.3195,-6.4111 18.9258,-11.0044 16.742,-16.6951 -1.6569,-4.3178 -3.0125,-8.7841 -3.0125,-9.9251 0,-3.8023 -32.0804,-1.511 -43.6036,3.1142 z"
       id="path4310"
       inkscape:connector-curvature="0" /><path
       style="opacity:1;fill:#000000;fill-opacity:1;fill-rule:nonzero;stroke:#000000;stroke-width:0.80000001;stroke-miterlimit:4;stroke-dasharray:none;stroke-opacity:1"
       d="m 1939.72,2591.6465 c -30.2939,11.4443 -129.8378,19.1403 -108.8737,51.9451 54.247,-4.2621 100.0457,-26.1089 134.292,-43.1313 6.7351,-3.0687 11.0679,-7.4853 9.6283,-9.8146 -3.6994,-5.9857 -28.7763,-5.2696 -35.0466,1.0008 z"
       id="path4312"
       inkscape:connector-curvature="0"
       sodipodi:nodetypes="cccsc" /><path
       style="opacity:1;fill:#000000;fill-opacity:1;fill-rule:nonzero;stroke:#000000;stroke-width:0.80000001;stroke-miterlimit:4;stroke-dasharray:none;stroke-opacity:1"
       d="m 2072.8246,2624.5125 c -44.4143,10.3501 -57.204,14.9125 -54.4224,19.4135 1.6076,2.6009 -1.6195,4.729 -7.1711,4.729 -13.4823,0 -38.9687,15.9406 -36.6188,22.9035 2.7593,8.1758 -23.3861,11.8649 -46.8023,6.6036 -26.9838,-6.0628 -67.929,1.8861 -90.4536,17.5604 -48.8611,34.001 -89.4437,80.0762 -89.4437,101.5494 0,12.9834 15.4258,2.6025 37.0691,-24.946 50.1576,-63.8425 81.4056,-83.215 123.9386,-76.8368 12.3917,1.8582 22.5303,5.173 22.5303,7.3662 0,2.1932 -4.6278,9.8708 -10.284,17.0615 -5.6561,7.1907 -9.5625,16.528 -8.6809,20.7497 1.2106,5.7958 5.9977,3.5199 19.5464,-9.2926 41.642,-39.3797 114.6675,-81.0277 150.744,-85.9725 30.7014,-4.2081 29.3859,3.4889 -8.2832,48.4642 -16.8162,20.0777 -35.5867,47.6958 -41.7124,61.3736 -29.6351,66.1713 -100.7986,223.6416 17.1874,14.8715 12.7804,-22.6142 34.9088,-60.4115 51.7543,-82.6208 16.8455,-22.2094 32.7309,-43.1941 35.3009,-46.6327 3.048,-4.0781 2.4056,-8.984 -1.8475,-14.1086 -7.2365,-8.7195 -30.8896,-9.5678 -62.3511,-2.2361 z"
       id="path4314"
       inkscape:connector-curvature="0"
       sodipodi:nodetypes="scssssssssscsssssssss" /><path
       style="opacity:1;fill:#000000;fill-opacity:1;fill-rule:nonzero;stroke:#000000;stroke-width:1;stroke-miterlimit:4;stroke-dasharray:none;stroke-opacity:1"
       d=""
       id="path4316"
       inkscape:connector-curvature="0"
       transform="matrix(0.8,0,0,-0.8,0,3264)" /><path
       style="opacity:1;fill:#000000;fill-opacity:1;fill-rule:nonzero;stroke:#000000;stroke-width:0.80000001;stroke-miterlimit:4;stroke-dasharray:none;stroke-opacity:1"
       d="m 1619.7192,2869.6624 c -52.901,21.3409 -119.8308,68.7508 -119.8308,84.8824 0,10.091 3.371,8.4612 33.8178,-16.3494 31.1709,-25.4008 97.6498,-60.5166 103.4968,-54.6696 2.0519,2.0519 -0.267,14.9865 -5.1531,28.7436 -9.7955,27.58 -7.0991,37.2035 5.8312,20.8116 11.4533,-14.5195 46.8243,-31.4412 65.7203,-31.4412 12.9617,0 14.9854,1.4726 11.9289,8.6808 -18.2251,42.981 -21.2157,60.766 -10.2177,60.766 4.3025,0 8.2936,-7.6288 10.3457,-19.7758 1.8376,-10.8766 8.8403,-27.8792 15.5615,-37.7835 11.5456,-17.0134 11.7564,-18.5205 3.8177,-27.2927 -6.7194,-7.4249 -12.482,-8.6438 -28.7668,-6.0846 -11.2002,1.7602 -25.4562,6.5017 -31.68,10.5368 -15.5976,10.1123 -19.2589,4.0825 -9.6969,-15.9694 11.391,-23.8871 3.6537,-24.7529 -45.1746,-5.055 z"
       id="path4318"
       inkscape:connector-curvature="0" /><path
       style="opacity:1;fill:#000000;fill-opacity:1;fill-rule:nonzero;stroke:#000000;stroke-width:0.80000001;stroke-miterlimit:4;stroke-dasharray:none;stroke-opacity:1"
       d="m 2028.1802,2843.6753 c -8.1848,6.2548 -32.7392,22.3456 -54.5654,35.7575 -52.2836,32.1276 -76.9058,55.4392 -94.5861,89.5514 -7.9995,15.4342 -16.5835,31.884 -19.0754,36.555 -7.1632,13.4269 -54.5127,33.1384 -124.4418,51.8048 -85.5657,22.8403 -145.8663,48.1209 -135.6251,58.3621 4.3932,4.3931 202.3484,-55.1502 235.4175,-70.1296 31.7112,-14.3643 46.9708,-31.3357 71.3497,-79.3538 19.2628,-37.9411 66.455,-80.3498 115.4175,-103.7186 23.822,-11.3698 43.3127,-22.8411 43.3127,-25.4917 0,-8.8242 -22.1221,-4.8623 -37.2036,6.6629 z"
       id="path4320"
       inkscape:connector-curvature="0"
       sodipodi:nodetypes="sssssssssss" /><path
       style="opacity:1;fill:#000000;fill-opacity:1;fill-rule:nonzero;stroke:#000000;stroke-width:0.80000001;stroke-miterlimit:4;stroke-dasharray:none;stroke-opacity:1"
       d="m 1509.4639,3089.4927 c 8.417,15.7274 80.2295,40.3846 116.9169,40.144 18.5212,-0.1214 19.201,-0.6149 10.213,-7.4131 -5.296,-4.0056 -15.3506,-7.2829 -22.3437,-7.2829 -11.0671,0 -42.2,-9.9869 -91.1223,-29.2306 -18.5549,-7.2986 -19.4603,-7.0479 -13.6639,3.7826 z"
       id="path4322"
       inkscape:connector-curvature="0" /><path
       style="opacity:1;fill:#000000;fill-opacity:1;fill-rule:nonzero;stroke:#000000;stroke-width:1;stroke-miterlimit:4;stroke-dasharray:none;stroke-opacity:1"
       d=""
       id="path4324"
       inkscape:connector-curvature="0"
       transform="matrix(0.8,0,0,-0.8,0,3264)" /><path
       style="opacity:1;fill:#000000;fill-opacity:1;fill-rule:nonzero;stroke:#000000;stroke-width:0.80000001;stroke-miterlimit:4;stroke-dasharray:none;stroke-opacity:1"
       d="m 1226.8022,2950.7598 c 9.0704,16.9481 53.1006,45.031 117.8088,75.1394 34.9296,16.2526 71.7367,33.9915 81.7935,39.4197 10.0569,5.4283 21.546,8.6183 25.5315,7.0889 8.8067,-3.3795 30.046,18.0698 43.5181,43.9482 11.6849,22.4453 18.1811,20.8114 15.3022,-3.8488 -1.1505,-9.8544 8.989,-23.7365 7.5273,-22.2749 -1.4616,1.4616 -17.387,6.7811 -20.385,3.2468 -16.346,-19.2694 -69.3669,-59.6172 -71.1831,-54.1687 -2.7392,8.2175 -23.1281,2.8979 -44.5117,-11.6134 -9.1624,-6.2178 -28.2857,-15.1081 -42.4963,-19.7563 -29.7496,-9.7309 -59.0097,-23.7685 -68.7241,-32.9706 -10.7901,-10.221 -42.9873,-33.6464 -46.2456,-33.6464 -1.6421,0 -0.7132,4.2462 2.0644,9.4361 z"
       id="path4326"
       inkscape:connector-curvature="0"
       sodipodi:nodetypes="ssssssccssssss" /><path
       style="opacity:1;fill:#000000;fill-opacity:1;fill-rule:nonzero;stroke:#000000;stroke-width:0.80000001;stroke-miterlimit:4;stroke-dasharray:none;stroke-opacity:1"
       d="m 1163.4284,2797.2829 c -0.8733,0.8891 14.8973,58.5257 16.8297,65.9189 4.3225,16.5526 25.3756,73.1785 28.7859,77.4246 1.3695,1.7052 5.4226,3.0832 9.007,3.0623 3.6332,-0.021 5.2974,-0.8443 3.7609,-1.8602 -1.5158,-1.0022 -3.5069,-6.9208 -4.4248,-13.1524 -2.0169,-13.6943 -12.6216,-36.7305 -25.9317,-56.3305 -5.401,-7.9533 -23.3587,-86.2913 -10.6759,-20.14 -0.4708,-3.1236 -16.4778,-55.8119 -17.3511,-54.9227 z"
       id="path4328"
       inkscape:connector-curvature="0"
       sodipodi:nodetypes="ccccscscc" /><path
       style="opacity:1;fill:#000000;fill-opacity:1;fill-rule:nonzero;stroke:#000000;stroke-width:0.80000001;stroke-miterlimit:4;stroke-dasharray:none;stroke-opacity:1"
       d="m 1203.202,2435.7464 c -1.7049,3.1521 -3.5838,14.7349 -4.1754,25.7395 -0.9516,17.7002 -0.3308,21.5828 5.3801,33.6548 9.0311,19.09 25.3571,41.1792 33.5771,45.4299 6.074,3.141 7.5828,3.1224 12.2569,-0.1515 6.4553,-4.5215 6.8559,-11.7741 0.9899,-17.9231 -6.5444,-6.86 -10.8857,-15.2081 -9.2691,-17.8238 0.792,-1.2815 12.4944,-8.0083 26.0053,-14.9483 38.1434,-19.5929 42.5985,-24.4304 31.7809,-34.5084 -7.9681,-7.4236 -12.1508,-6.3304 -24.4384,6.3872 -13.6279,14.1048 -23.0135,18.3185 -40.8021,18.3185 -12.7499,0 -13.9776,-0.5109 -16.3888,-6.8206 -1.4335,-3.7514 -2.243,-14.6335 -1.7988,-24.1824 0.7558,-16.2487 0.4606,-17.4111 -4.6051,-18.1323 -3.6077,-0.5136 -6.4464,1.1406 -8.5125,4.9605 z"
       id="path4332"
       inkscape:connector-curvature="0" /><path
       style="opacity:1;fill:#000000;fill-opacity:1;fill-rule:nonzero;stroke:#000000;stroke-width:0.80000001;stroke-miterlimit:4;stroke-dasharray:none;stroke-opacity:1"
       d="m 1252.5666,1647.021 c -1.7692,1.0009 -5.3965,4.9909 -8.0608,8.8665 -4.5256,6.5835 -4.8331,7.5948 -4.6774,15.3839 0.2098,10.4909 2.7766,16.1141 11.0898,24.2946 11.7155,11.5285 23.8401,14.6523 35.9973,9.2747 3.2895,-1.4552 6.9463,-3.5194 8.1263,-4.5872 3.0944,-2.8004 6.1614,-17.3409 4.802,-22.7661 -2.9644,-11.831 -3.8711,-13.4323 -10.9084,-19.2676 -12.9437,-10.7328 -28.6463,-15.568 -36.3688,-11.1988 z m 19.6712,24.945 c 5.8413,2.4407 10.2205,6.5264 9.3702,8.7423 -0.3624,0.9443 -2.753,2.3443 -5.3126,3.1112 -3.8159,1.1432 -5.4115,1.0299 -8.8625,-0.6295 -5.4358,-2.6137 -10.244,-9.2412 -8.3555,-11.5167 1.8109,-2.182 7.5428,-2.0546 13.1604,0.2927 z"
       id="path4334"
       inkscape:connector-curvature="0" /><path
       style="opacity:1;fill:#000000;fill-opacity:1;fill-rule:nonzero;stroke:#000000;stroke-width:0.80000001;stroke-miterlimit:4;stroke-dasharray:none;stroke-opacity:1"
       d="m 1330.1906,1814.3291 c -8.3212,3.8611 -10.2132,6.99 -11.1697,18.4725 -0.8216,9.8637 -0.6521,11.0814 2.5304,18.1727 2.87,6.3954 4.5756,8.3784 10.7551,12.505 7.3749,4.9247 14.0385,7.0818 18.051,5.843 9.1183,-2.815 19.4224,-7.1332 20.2911,-8.5036 0.5765,-0.9094 1.0568,-5.4784 1.0672,-10.1531 0.017,-7.4112 -0.5647,-9.6101 -4.5395,-17.1743 -4.9412,-9.403 -9.6753,-14.8303 -15.6161,-17.9024 -5.2702,-2.7254 -16.7521,-3.4022 -21.3695,-1.2598 z m 19.6728,25.1632 c 4.112,4.1119 4.3428,7.9022 0.4792,7.8644 -4.9888,-0.049 -13.3313,-4.5852 -13.3313,-7.2495 0,-4.8622 8.212,-5.2551 12.8521,-0.6149 z"
       id="path4336"
       inkscape:connector-curvature="0" /><path
       style="opacity:1;fill:#000000;fill-opacity:1;fill-rule:nonzero;stroke:#000000;stroke-width:0.80000001;stroke-miterlimit:4;stroke-dasharray:none;stroke-opacity:1"
       d="m 1395.4548,1960.33 c -4.8367,1.9361 -12.4968,8.5887 -14.6224,12.6993 -1.5534,3.0041 -1.8334,6.0469 -1.2791,13.9018 0.8353,11.8372 2.1583,15.165 8.8757,22.3264 6.5272,6.9586 23.6039,17.9561 27.7992,17.9028 4.9501,-0.063 8.8426,-4.1492 10.8627,-11.4039 2.5205,-9.0517 2.2066,-17.2317 -1.0288,-26.8101 -2.3463,-6.9462 -4.0058,-9.3366 -11.1796,-16.104 -4.6335,-4.371 -8.4244,-8.6271 -8.4244,-9.4581 0,-0.831 -1.4214,-2.1585 -3.1587,-2.9501 -3.66,-1.6676 -3.9296,-1.6712 -7.8446,-0.1041 z m 11.4319,29.8603 c 5.1812,3.5397 6.9856,5.8745 6.1743,7.989 -1.0245,2.6698 -5.5336,2.075 -10.6555,-1.4054 -5.0469,-3.4294 -5.8302,-5.9526 -2.4581,-7.9167 2.8428,-1.6557 2.4558,-1.7301 6.9393,1.3331 z"
       id="path4338"
       inkscape:connector-curvature="0" /><path
       style="opacity:1;fill:#000000;fill-opacity:1;fill-rule:nonzero;stroke:#000000;stroke-width:0.80000001;stroke-miterlimit:4;stroke-dasharray:none;stroke-opacity:1"
       d="m 1232.5894,483.38094 c -3.9435,3.94352 -4.5448,6.91704 -2.3656,11.69968 2.4916,5.46856 7.6648,7.18904 30.6787,10.20272 25.5372,3.34416 32.2925,4.48552 84.5469,14.28488 50.068,9.38928 78.7902,14.0672 103.3987,16.84016 l 19.6905,2.2188 2.3216,-2.8672 c 1.277,-1.57688 2.3217,-3.56712 2.3217,-4.42264 0,-2.40248 -4.8009,-7.94448 -8.5712,-9.89408 -4.9321,-2.55056 -40.8893,-11.11496 -64.596,-15.38576 -29.0191,-5.22784 -30.4705,-5.45336 -93.0091,-14.44976 -50.1817,-7.2188 -60.0666,-8.8496 -68.5257,-11.30552 -1.3571,-0.394 -3.5792,0.76744 -5.8905,3.07872 z"
       id="path4340"
       inkscape:connector-curvature="0" /><path
       style="opacity:1;fill:#fff6d5;fill-opacity:1;fill-rule:nonzero;stroke:none;stroke-width:2.19224596;stroke-miterlimit:4;stroke-dasharray:none;stroke-opacity:1"
       d="m 2131.7318,2502.7409 c -40.5503,-57.0703 -70.309,-103.1965 -83.3576,-129.2048 -16.9701,-33.8248 -57.0605,-121.5805 -57.1269,-125.0477 -0.034,-1.7593 -4.8616,-19.4761 -10.7288,-39.3708 -5.8671,-19.8946 -10.4119,-36.45 -10.0996,-36.7897 0.3124,-0.3397 7.6288,0.5484 16.2587,1.9736 17.1858,2.8382 26.5534,0.7276 26.5534,-5.9826 0,-6.4006 -15.9149,-18.9282 -35.0759,-27.6104 -32.6155,-14.7786 -37.3417,-17.6221 -46.8288,-28.174 -11.6965,-13.0094 -19.2042,-27.1166 -40.9553,-76.9563 -9.5559,-21.8962 -21.8293,-47.6743 -27.2742,-57.2846 -5.4449,-9.6104 -9.8997,-18.2008 -9.8997,-19.0897 0,-0.889 7.3303,-16.7908 16.2896,-35.3372 19.1688,-39.681 33.8942,-76.2091 66.9577,-166.096 13.3599,-36.3203 30.0202,-79.5999 37.023,-96.1769 7.0027,-16.577 15.9096,-39.6771 19.7929,-51.3337 4.1945,-12.5903 9.2883,-23.4212 12.5481,-26.6811 5.399,-5.3989 5.463,-5.8735 3.9725,-29.429 -1.7886,-28.2666 1.3124,-40.9396 13.3382,-54.5098 6.2833,-7.0902 7.8914,-7.9431 9.7936,-5.1947 1.2964,1.8731 1.7235,8.0058 0.9922,14.2496 -1.666,14.2257 1.7684,23.8448 7.827,21.9219 3.4229,-1.0864 4.3828,-0.3928 4.3828,3.1667 0,2.5068 6.4549,21.8758 14.3441,43.0422 7.8893,21.1664 24.7522,70.0995 37.4732,108.7401 34.6292,105.1882 45.7016,130.4237 87.9077,200.354 37.9024,62.7997 46.3376,82.2888 43.4604,100.4132 -1.5013,9.4574 -42.5943,87.8146 -68.18,130.0072 -12.3014,20.2859 -14.2694,24.9456 -13.7142,32.4721 1.4227,19.2861 15.2452,10.4974 46.8527,-29.7902 20.2549,-25.8174 29.6871,-34.8627 36.3536,-34.8627 2.4183,0 10.9745,-2.855 19.0139,-6.3445 22.7153,-9.8596 26.8747,-10.2351 33.6972,-3.042 14.4474,15.2322 55.8012,90.7376 107.799,196.8235 16.5476,33.7606 37.4359,74.7866 46.4184,91.1688 8.9825,16.3823 16.3317,31.4613 16.3317,33.5089 0,10.4735 -13.7608,21.0146 -76.7286,58.7757 -102.1905,61.2827 -148.2887,83.1466 -188.5331,89.4194 -26.3456,4.1064 -22.0969,7.2234 -56.8789,-41.7285 z"
       id="path4362"
       inkscape:connector-curvature="0"
       transform="matrix(0.8,0,0,-0.8,0,3264)" /><path
       style="opacity:1;fill:#fff6d5;fill-opacity:1;fill-rule:nonzero;stroke:none;stroke-width:1;stroke-miterlimit:4;stroke-dasharray:none;stroke-opacity:1"
       d="m 1076.4486,2006.5781 c 0,-22.5314 1.7934,-35.3052 5.1124,-36.4147 2.8118,-0.94 5.7714,1.5922 6.5768,5.6269 2.2508,11.2759 23.1843,-23.3665 29.5774,-48.947 2.9524,-11.8133 18.8714,-50.0876 35.3755,-85.0539 16.5041,-34.9663 39.2441,-89.2244 50.5332,-120.5735 11.2891,-31.3491 22.254,-59.9579 24.3666,-63.5752 2.3638,-4.0474 3.9152,12.8148 4.0341,43.845 0.2309,60.2445 2.2402,69.4281 15.9431,72.8674 10.8201,2.7156 13.8552,8.5679 5.8307,11.2427 -2.5336,0.8445 -9.1274,14.3269 -14.6529,29.9607 -16.0457,45.3996 -56.2646,129.9691 -84.413,177.4979 l -25.9667,43.8449 -26.1586,2.1922 -26.1586,2.1923 0,-34.7057 z"
       id="path4386"
       inkscape:connector-curvature="0"
       transform="matrix(0.8,0,0,-0.8,0,3264)" /><path
       style="opacity:1;fill:#502d16;fill-opacity:1;fill-rule:nonzero;stroke:none;stroke-width:1;stroke-miterlimit:4;stroke-dasharray:none;stroke-opacity:1"
       d="m 1313.2112,2176.873 c -4.823,-0.7304 -68.9461,-8.7034 -142.496,-17.7176 -73.5498,-9.0143 -134.4394,-16.9168 -135.3101,-17.5613 -0.8707,-0.6444 5.8765,-19.1684 14.9937,-41.1645 14.4538,-34.8709 17.7448,-39.7056 25.6978,-37.7504 16.6608,4.096 200.9541,29.1478 272.1905,37.0001 l 70.1519,7.7328 -0.9956,21.742 c -0.5476,11.9581 -2.1168,28.1543 -3.4871,35.9916 l -2.4914,14.2496 -44.7424,-0.5971 c -24.6083,-0.3284 -48.6884,-1.1947 -53.5113,-1.9252 z"
       id="path4388"
       inkscape:connector-curvature="0"
       transform="matrix(0.8,0,0,-0.8,0,3264)" /><path
       style="opacity:1;fill:#502d16;fill-opacity:1;fill-rule:nonzero;stroke:none;stroke-width:1;stroke-miterlimit:4;stroke-dasharray:none;stroke-opacity:1"
       d="m 1729.7379,2194.1431 c -9.6459,-0.8173 -36.055,-2.701 -58.6871,-4.186 l -41.1491,-2.7 2.9633,-35.5315 c 1.6297,-19.5424 4.0324,-36.6022 5.3391,-37.9107 1.3068,-1.3086 40.1937,-2.3792 86.4153,-2.3792 l 84.0394,0 0,41.6526 0,41.6527 -30.6915,0.444 c -16.8803,0.2443 -38.5835,-0.2246 -48.2294,-1.0419 z"
       id="path4390"
       inkscape:connector-curvature="0"
       transform="matrix(0.8,0,0,-0.8,0,3264)" /><path
       style="opacity:1;fill:#ffe6d5;fill-opacity:1;fill-rule:nonzero;stroke:none;stroke-width:1;stroke-miterlimit:4;stroke-dasharray:none;stroke-opacity:1"
       d="m 1925.7473,1426.6742 c -32.5549,-3.2137 -68.0692,-8.0547 -78.9209,-10.7578 -10.8516,-2.7031 -58.2041,-23.3745 -105.2278,-45.9364 -51.2431,-24.5864 -106.5772,-47.4913 -138.1115,-57.1697 -92.7368,-28.4625 -108.6032,-44.5445 -93.5424,-94.8128 4.8236,-16.0998 4.3956,-17.7987 -7.6729,-30.4549 -7.0298,-7.3722 -25.9045,-23.1535 -41.9438,-35.0696 -16.0392,-11.916 -30.2817,-24.5828 -31.6499,-28.1483 -3.8948,-10.1495 1.3377,-18.8108 13.892,-22.9956 10.3685,-3.4561 13.1734,-1.7422 28.144,17.1971 18.3444,23.2073 32.2339,31.8483 57.4486,35.7398 20.9392,3.2316 36.0937,-2.344 55.0424,-20.2511 37.8191,-35.74 49.2869,-66.7477 33.1869,-89.7337 -13.4583,-19.2144 -39.3952,-6.4537 -28.4502,13.9972 7.6312,14.2591 2.7249,26.0273 -18.3843,44.096 -14.5158,12.425 -21.7258,15.4676 -36.6528,15.4676 -26.8655,0 -31.5717,-2.9644 -44.3732,-27.9502 -9.8305,-19.1872 -11.7997,-29.5716 -13.4732,-71.0515 -2.2028,-54.59576 2.426,-82.98236 19.3723,-118.80388 28.7733,-60.82185 74.0217,-83.69041 111.2488,-56.22517 8.609,6.35156 20.7999,10.96123 28.9884,10.96123 12.8075,0 14.8839,1.95083 22.1667,20.82633 5.1375,13.31527 7.9145,31.49996 7.6999,50.42166 l -0.3355,29.59532 38.9881,0 c 58.4147,0 57.5081,1.04247 53.7333,-61.78356 l -3.1372,-52.21323 38.8488,-0.0292 c 21.3669,-0.016 78.8025,4.24683 127.6348,9.47304 l 88.7859,9.50218 -0,11.3533 c -0.01,23.48514 -8.9741,108.60015 -13.513,128.27323 -5.7218,24.8001 -0.7564,36.8359 16.7685,40.6463 6.6517,1.4463 52.0304,4.328 100.8417,6.4039 107.2202,4.5599 113.4218,6.786 108.5939,38.9807 -1.6674,11.119 -5.318,27.2213 -8.1124,35.783 -4.5378,13.9032 -7.2802,15.9918 -25.6623,19.5442 -29.6228,5.7247 -52.4392,-4.452 -93.1172,-41.5328 -18.4924,-16.8571 -35.4964,-29.4913 -37.7866,-28.0758 -6.2441,3.8591 -5.0179,22.7627 2.4081,37.123 14.4083,27.8626 58.3761,49.7864 131.5236,65.582 29.2217,6.3102 47.1851,12.6174 53.8988,18.9246 16.2982,15.3113 37.3098,62.6448 39.4926,88.9662 2.5512,30.765 -13.0951,64.245 -42.1041,90.0944 -23.8321,21.2363 -80.3655,49.039 -113.9664,56.0477 -30.321,6.3246 -127.9803,5.358 -202.5669,-2.0048 z m -402.4864,-410.3158 c 0.9098,-18.78052 3.4138,-28.27047 8.2625,-31.31363 11.6294,-7.2989 38.4713,0.7353 56.3149,16.85593 17.8466,16.1234 31.0394,19.0332 39.5887,8.7319 9.8866,-11.91258 2.4108,-21.21902 -32.5811,-40.5599 -19.2215,-10.62419 -35.9057,-20.27417 -37.0759,-21.44439 -1.1702,-1.17022 1.6287,-9.10286 6.2198,-17.62808 9.0412,-16.78839 5.8816,-28.856 -8.2847,-31.64263 -9.9222,-1.95178 -35.3897,26.51553 -49.4726,55.3 -9.7048,19.83587 -11.0187,27.20745 -9.103,51.0727 2.571,32.029 5.0102,37.5753 16.5251,37.5753 7.103,0 8.4894,-3.889 9.6063,-26.9472 z"
       id="path4415"
       inkscape:connector-curvature="0"
       transform="matrix(0.8,0,0,-0.8,0,3264)" /><path
       style="opacity:1;fill:#ffe6d5;fill-opacity:1;fill-rule:nonzero;stroke:none;stroke-width:1;stroke-miterlimit:4;stroke-dasharray:none;stroke-opacity:1"
       d="m 2302.1407,1059.3265 c -46.0149,-15.864 -82.6502,-38.9374 -88.5755,-55.7859 -5.5018,-15.64439 4.0753,-46.49887 17.0775,-55.01825 35.2986,-23.12853 165.4311,-3.10581 201.6167,31.02157 13.0656,12.32243 15.2424,17.2278 15.2424,34.34768 0,15.3075 -2.7683,23.2622 -11.8526,34.0583 -25.7983,30.6595 -67.3153,34.1973 -133.5085,11.3766 z"
       id="path4417"
       inkscape:connector-curvature="0"
       transform="matrix(0.8,0,0,-0.8,0,3264)" /><path
       style="opacity:1;fill:#999999;fill-opacity:1;fill-rule:nonzero;stroke:none;stroke-width:1;stroke-miterlimit:4;stroke-dasharray:none;stroke-opacity:1"
       d="m 1690.9059,926.11339 c -2.5605,-1.85971 -7.0609,-14.23291 -10.0008,-27.496 -8.1135,-36.60282 -20.5908,-61.38288 -30.9077,-61.38288 -4.7985,0 -10.1351,-2.28235 -11.8592,-5.07189 -2.3334,-3.77566 6.2847,-4.28665 33.7211,-1.99942 49.308,4.11055 56.5218,6.33195 61.2901,18.87353 5.9021,15.52381 4.9816,59.86389 -1.4159,68.19705 -6.1795,8.0493 -33.7229,14.03971 -40.8276,8.87961 z"
       id="path4419"
       inkscape:connector-curvature="0"
       transform="matrix(0.8,0,0,-0.8,0,3264)" /><path
       style="opacity:1;fill:#999999;fill-opacity:1;fill-rule:nonzero;stroke:none;stroke-width:1;stroke-miterlimit:4;stroke-dasharray:none;stroke-opacity:1"
       d="m 1440.6271,1070.3952 c -8.7981,-9.9914 -21.3755,-42.9124 -25.6792,-67.2142 -1.2619,-7.12591 -4.2138,-16.2094 -6.5598,-20.18555 -7.7452,-13.12711 -9.2996,-23.36975 -10.9397,-72.0861 -0.893,-26.52617 -2.3288,-49.80584 -3.1906,-51.73258 -1.2658,-2.82981 3.8262,-5.85975 26.4908,-15.763 34.0621,-14.88341 65.6866,-25.67487 75.2404,-25.67487 6.7702,0 7.0158,0.29849 5.6916,6.91913 -0.7611,3.80553 -8.7322,19.16758 -17.7136,34.13789 -27.8686,46.45187 -38.1709,79.66035 -40.0159,128.98774 -0.8744,23.38014 -0.2428,36.25944 2.612,53.26034 4.8247,28.7316 2.7129,39.1733 -5.936,29.3512 z"
       id="path4421"
       inkscape:connector-curvature="0"
       transform="matrix(0.8,0,0,-0.8,0,3264)" /><path
       style="opacity:1;fill:#999999;fill-opacity:1;fill-rule:nonzero;stroke:none;stroke-width:1;stroke-miterlimit:4;stroke-dasharray:none;stroke-opacity:1"
       d="m 1421.4033,804.47656 c 0,-10.81762 11.0771,-22.51827 17.538,-18.52522 3.613,2.23297 10.7617,-1.01922 13.5781,-6.17714 1.5676,-2.87088 3.1439,-20.12651 3.9415,-43.1484 1.2019,-34.68896 1.842,-39.41441 6.6809,-49.32553 4.8588,-9.9519 5.3535,-13.66936 5.3732,-40.37126 l 0.022,-29.41006 6.5767,-2.14342 c 17.6514,-5.75278 69.388,-45.50717 95.8999,-73.68948 17.7655,-18.88484 28.0248,-36.06016 23.9649,-40.12012 -3.5116,-3.51153 -10.63,1.9819 -29.1808,22.51948 -8.8813,9.83235 -25.0263,25.35433 -35.8779,34.49332 -19.3489,16.29521 -63.0192,46.51231 -67.2204,46.51231 -1.172,0 -1.52,-1.92452 -0.7734,-4.27669 0.7465,-2.3522 0.2619,-8.34494 -1.077,-13.31724 -2.0606,-7.65219 -1.6967,-11.52538 2.3693,-25.22175 2.642,-8.89966 5.8285,-15.97818 7.081,-15.73002 1.2525,0.24814 5.896,-11.54715 10.3188,-26.21176 4.4229,-14.66464 11.1182,-31.4575 14.8786,-37.31751 10.0193,-15.61379 23.9729,-46.3578 26.7162,-58.86413 3.572,-16.28426 4.4698,-18.55528 7.3358,-18.55528 3.7482,0 23.2081,-13.40321 48.6005,-33.47411 26.6846,-21.09232 40.402,-28.82843 74.5364,-42.03583 14.4688,-5.59834 32.7192,-12.66402 40.5565,-15.70152 7.8373,-3.0375 23.1282,-10.7287 33.9798,-17.09157 31.0639,-18.21439 45.7466,-22.48853 55.7637,-16.23281 3.5533,2.21908 6.118,1.33855 16.9601,-5.82286 19.1447,-12.64539 36.9205,-26.57984 58.273,-45.68011 14.7389,-13.18435 20.2068,-16.84588 23.565,-15.78005 3.4914,1.10816 3.9312,2.21285 2.1822,5.48104 -3.1359,5.85936 -2.7022,10.95815 0.9319,10.95815 1.7175,0 20.7078,-6.54158 42.2008,-14.53683 21.493,-7.99526 46.175,-16.74968 54.849,-19.45427 l 15.7709,-4.91745 5.0555,5.42653 c 13.8901,14.90966 76.2004,38.15889 178.2428,66.50597 60.4769,16.80029 110.6858,35.93693 131.0518,49.94908 7.9605,5.47698 11.8599,11.06598 23.4387,33.59454 32.0891,62.43525 51.4694,83.44359 115.8401,125.57095 16.1834,10.59124 28.911,20.39308 28.911,22.2651 0,6.3286 46.0451,115.2104 62.6076,148.04669 8.2914,16.43834 27.9909,44.78265 50.8274,73.13217 22.2085,27.56988 32.1755,41.70684 34.3885,48.77576 2.4564,7.84644 -6.1529,9.84998 -26.7115,6.21624 -48.6467,-8.59827 -129.0175,-55.11409 -188.7446,-109.23885 -14.459,-13.10279 -21.0349,-15.51261 -23.2537,-8.52172 -1.8495,5.82721 1.8902,14.54345 13.5478,31.57681 11.7523,17.17155 11.4152,18.20044 -7.4148,22.63071 -54.4182,12.80337 -92.376,-8.52617 -160.1612,-89.99911 -24.1092,-28.97748 -40.0925,-43.5712 -46.4105,-42.37554 -5.2845,1.00005 -5.6697,15.19305 -0.7147,26.33157 7.0036,15.74341 30.1136,44.19567 54.7225,67.37273 12.8597,12.11131 22.5884,22.02057 21.6195,22.02057 -4.2985,0 -102.8999,-27.45275 -119.698,-33.3265 -36.6728,-12.82328 -98.4324,-45.03735 -148.8821,-77.6576 -26.5034,-17.13687 -35.2845,-19.89327 -35.2845,-11.0759 0,5.53607 16.2688,30.34153 31.8979,48.63565 14.3892,16.84272 24.7568,23.05362 55.5498,33.27808 l 27.6452,9.17928 -23.0186,0.0605 c -42.6346,0.11203 -114.9353,-3.91337 -135.9192,-7.56745 -40.568,-7.06438 -75.5709,-20.39631 -153.3231,-58.39773 -70.3257,-34.37165 -91.9464,-43.81068 -96.8132,-42.26602 -10.7969,3.42681 0.8695,23.13462 25.1161,42.4282 36.6887,29.1941 38.7009,36.12964 40.6444,140.08772 l 1.3233,70.78128 -14.2496,-1.1924 c -55.0998,-4.61078 -70.6695,-6.24027 -100.8434,-10.55415 -26.9191,-3.84856 -43.7736,-4.83974 -81.1131,-4.77015 -53.5586,0.0997 -77.1682,3.45274 -100.5413,14.2784 -7.6713,3.55304 -14.3302,6.46009 -14.7977,6.46009 -0.4675,0 -0.85,-2.02202 -0.85,-4.49336 z m 666.0093,-300.45529 c 0.3644,-3.1389 -1.8552,-11.40036 -4.9325,-18.35881 -5.6273,-12.72423 -7.2635,-23.0674 -3.6491,-23.0674 1.0703,0 8.2225,2.92149 15.8938,6.49223 38.9042,18.10874 69.6375,17.37997 79.6012,-1.88759 3.9775,-7.69165 2.8747,-11.60885 -8.1509,-28.95337 -8.6463,-13.60168 -18.0723,-36.3404 -20.3501,-49.09151 -1.8134,-10.15101 -5.8603,-18.88113 -10.5609,-22.78232 -2.5506,-2.1168 -4.3762,-2.15296 -8.0993,-0.16043 -7.6182,4.07714 -4.9568,23.56869 7.5989,55.65194 11.1088,28.38625 10.9941,29.67307 -2.65,29.73626 -22.5328,0.10435 -61.7654,-17.82917 -81.6045,-37.30206 -11.3008,-11.09222 -14.053,-12.81933 -16.7978,-10.54135 -4.0389,3.35197 -2.8617,12.21812 4.8732,36.70357 3.0322,9.59858 5.738,21.21849 6.0129,25.82199 0.4628,7.74983 0.094,8.32154 -4.9808,7.71618 -9.1733,-1.09433 -65.4354,-29.85412 -89.8821,-45.94545 -12.6602,-8.33323 -31.4039,-21.8146 -41.6527,-29.95861 -24.0941,-19.14604 -29.3482,-21.96872 -32.908,-17.67944 -4.8999,5.90411 -0,15.01157 17.1554,31.90553 30.8056,30.33093 99.2728,70.70754 153.8641,90.73713 26.0966,9.57483 40.1811,9.90406 41.2192,0.96351 z"
       id="path4423"
       inkscape:connector-curvature="0"
       transform="matrix(0.8,0,0,-0.8,0,3264)" /><path
       style="fill:none;fill-rule:evenodd;stroke:#000000;stroke-width:0.80000001px;stroke-linecap:butt;stroke-linejoin:miter;stroke-opacity:1"
       d="m 1860.7784,2576.3274 5.2614,16.6611 2.6307,8.769 2.6306,6.1383 8.7691,37.7066 6.1382,18.4149 0,14.9073 -19.2918,8.7689 -3.5076,-19.2917 c 0,0 0.8769,7.0152 -3.5076,-14.0304 -4.3844,-21.0456 -5.2613,-21.9225 -9.6458,-39.4604 -4.3845,-17.538 -8.769,-43.845 -8.769,-43.845 z"
       id="path4435"
       inkscape:connector-curvature="0" /><path
       style="opacity:1;fill:#000000;fill-opacity:1;fill-rule:nonzero;stroke:#000000;stroke-width:3.6;stroke-miterlimit:4;stroke-dasharray:none;stroke-opacity:1"
       d="m 2332.9003,781.40582 c -5.4258,-1.23681 -10.0319,-2.37476 -10.2357,-2.52879 -0.2038,-0.15403 1.4421,-8.33422 3.6576,-18.1782 2.2154,-9.84398 4.649,-20.98703 5.4078,-24.76233 0.7589,-3.7753 1.5793,-7.01421 1.8231,-7.19757 0.2438,-0.18336 5.4992,0.87436 11.6786,2.35049 l 11.2353,2.68388 0,8.40878 c 0,6.63198 -0.7748,10.71253 -3.6664,19.31135 -2.0165,5.99641 -4.2853,13.49216 -5.0419,16.65722 -1.5811,6.61474 -0.8361,6.45154 -14.8584,3.25517 z"
       id="path4437"
       inkscape:connector-curvature="0"
       transform="matrix(0.8,0,0,-0.8,0,3264)" /><path
       style="opacity:1;fill:#000000;fill-opacity:1;fill-rule:nonzero;stroke:#000000;stroke-width:5.9;stroke-miterlimit:4;stroke-dasharray:none;stroke-opacity:1"
       d="m 2306.0453,848.62437 c 0,-2.68732 6.8265,-33.58387 7.5935,-34.36763 0.4779,-0.48842 6.1219,0.74471 12.5422,2.74031 9.2466,2.87406 11.5194,3.97017 10.9328,5.27255 -0.58,1.28759 -4.9964,14.59363 -8.6407,26.03292 -0.5311,1.66696 -22.4278,1.98119 -22.4278,0.32185 z"
       id="path4439"
       inkscape:connector-curvature="0"
       transform="matrix(0.8,0,0,-0.8,0,3264)" /><path
       style="opacity:1;fill:#ffe6d5;fill-opacity:1;fill-rule:nonzero;stroke:none;stroke-width:12.93425179;stroke-miterlimit:4;stroke-dasharray:none;stroke-opacity:1"
       d="m 2250.4786,856.80537 c -8.0733,-1.73398 -26.3238,-7.1755 -40.5566,-12.09232 -38.4,-13.26553 -49.0228,-14.94826 -109.1832,-17.29544 -149.6257,-5.83771 -219.7033,-9.6122 -261.9734,-14.1103 -43.8179,-4.66282 -74.6782,-8.72304 -76.9439,-10.12335 -3.7255,-2.30248 -9.9763,-38.62135 -13.053,-75.84196 -2.5431,-30.76612 -2.2521,-95.5761 0.4413,-98.2695 0.7704,-0.77046 3.8525,1.05085 6.849,4.04734 6.7961,6.79619 26.7339,16.86913 45.4385,22.95643 64.9185,21.12737 177.8247,35.88401 221.4168,28.93877 35.3255,-5.62818 51.198,-5.31383 94.7843,1.87717 60.2049,9.93278 108.666,15.71891 140.4276,16.76671 27.0517,0.89242 28.3928,1.16467 37.8757,7.68903 5.407,3.72013 14.9833,8.84901 21.2808,11.39754 6.2975,2.54852 11.7797,4.86773 12.1827,5.1538 0.403,0.28606 -1.5352,11.51735 -4.3072,24.9584 l -5.04,24.43829 -16.2163,-1.5196 c -17.7404,-1.66241 -20.0138,-0.5012 -20.0768,10.25514 -0.044,7.58974 7.1304,16.37761 17.8266,21.83442 6.7794,3.45855 8.3858,5.34339 7.3461,8.61923 -0.7319,2.30599 -2.5912,10.39826 -4.1317,17.98282 l -2.801,13.79012 -10.781,1.09613 c -9.1103,0.92626 -10.8895,1.86045 -11.4814,6.02867 -0.842,5.92845 -6.9619,6.22532 -29.3239,1.42246 z m -44.4001,-63.28299 c 6.2988,-15.075 2.5817,-20.86876 -19.8642,-30.96224 -22.804,-10.25453 -53.9722,-9.27793 -152.339,4.77329 -41.5869,5.94048 -53.2687,9.8441 -54.4495,18.19493 -0.721,5.09902 -0.4467,5.19359 10.9613,3.78018 37.4178,-4.63595 53.8922,-5.26439 87.8315,-3.35042 34.1951,1.9284 48.4209,3.97102 81.7109,11.73253 7.2344,1.6867 19.8627,3.1494 28.063,3.25045 l 14.9095,0.18373 3.1765,-7.60245 z"
       id="path4443"
       inkscape:connector-curvature="0"
       transform="matrix(0.8,0,0,-0.8,0,3264)" /><path
       style="opacity:1;fill:#ffe6d5;fill-opacity:1;fill-rule:nonzero;stroke:none;stroke-width:5.9000001;stroke-miterlimit:4;stroke-dasharray:none;stroke-opacity:1"
       d="m 2230.6614,915.34998 c -1.1173,-1.1173 -1.1587,-1.51659 -0.8376,-8.08391 0.3765,-7.70109 1.3539,-12.50603 3.3302,-16.37311 5.2075,-10.18909 16.1698,-10.34989 29.1942,-0.42825 7.1007,5.40913 9.0073,9.70363 5.931,13.35953 -2.9299,3.48198 -16.202,9.06324 -27.5307,11.57733 -6.5373,1.45078 -8.5953,1.44025 -10.0871,-0.0516 z"
       id="path4445"
       inkscape:connector-curvature="0"
       transform="matrix(0.8,0,0,-0.8,0,3264)" /><path
       style="opacity:1;fill:#fff6d5;fill-opacity:1;fill-rule:nonzero;stroke:none;stroke-width:5.9000001;stroke-miterlimit:4;stroke-dasharray:none;stroke-opacity:1"
       d="m 1470.0698,1246.8479 c -1.7197,-2.4553 -1.5508,-5.3082 0.3436,-5.8036 2.5469,-0.666 1.7738,-2.9549 -2.0588,-6.0954 -5.9872,-4.906 -10.7958,-16.9569 -12.6724,-31.7583 -1.0122,-7.9829 -0.3211,-13.0196 2.1969,-16.0121 1.8354,-2.1813 2.2412,-2.3141 5.7879,-1.894 5.609,0.6643 16.8018,7.3895 20.8378,12.5204 3.2242,4.099 2.6515,10.527 -2.561,28.7459 -3.5691,12.4753 -7.8989,22.0197 -9.9891,22.0197 -0.3731,0 -1.2213,-0.7752 -1.8849,-1.7226 z"
       id="path4447"
       inkscape:connector-curvature="0"
       transform="matrix(0.8,0,0,-0.8,0,3264)" /></g><g
     inkscape:groupmode="layer"
     id="layer1"
     inkscape:label="Grund 2"
     style="display:inline"><path
       style="opacity:1;fill:#d35f5f;fill-opacity:1;fill-rule:nonzero;stroke:none;stroke-width:4.38449192;stroke-miterlimit:4;stroke-dasharray:none;stroke-opacity:1"
       d="m 558.59523,3518.7327 c -59.99826,-8.1377 -56.99839,-6.6279 -56.99839,-28.6859 0,-12.1602 4.05038,-27.495 10.65975,-40.3579 7.94588,-15.464 10.59538,-27.4432 10.40687,-47.0526 -0.22379,-23.2798 4.16941,-37.1542 38.17853,-120.5735 59.52509,-146.0062 83.30405,-208.965 96.43608,-255.3307 6.64892,-23.4755 16.46136,-48.6092 21.80543,-55.8527 5.34407,-7.2435 35.0224,-40.3213 65.95184,-73.5063 95.4848,-102.4479 95.92245,-103.765 57.11022,-171.857 -52.07992,-91.3687 -93.21481,-234.2473 -70.0043,-243.154 3.81444,-1.4637 21.07837,-2.6785 38.3643,-2.6995 17.28594,-0.021 41.91085,-1.2969 54.72203,-2.8354 l 23.29306,-2.7974 17.83327,-35.5288 c 9.8083,-19.5409 35.14713,-64.1377 56.30852,-99.104 21.1614,-34.9663 50.64733,-86.2649 65.52435,-113.9968 14.87701,-27.7319 29.59391,-53.043 32.70421,-56.247 4.6967,-4.8379 21.752,-3.5247 100.6267,7.7479 52.2344,7.4652 137.8082,17.5444 190.164,22.3982 90.8223,8.42 95.5977,9.3224 104.0215,19.6576 11.0115,13.5101 32.7045,17.7255 112.6115,21.883 59.802,3.1114 59.9924,3.0907 84.2595,-9.1969 l 24.322,-12.3154 84.2693,5.3197 c 46.3481,2.9258 84.7337,5.7842 85.3015,6.352 0.5677,0.5677 2.8435,46.3994 5.0573,101.8483 l 4.025,100.816 17.7083,42.1786 c 9.7395,23.1983 48.5273,100.9792 86.1951,172.8465 37.6678,71.8673 68.4869,132.1699 68.4869,134.0058 0,4.4573 -22.1951,41.5208 -52.2344,87.226 -13.4718,20.4975 -25.2863,39.1513 -26.2544,41.4527 -0.9682,2.3015 -4.9142,7.6374 -8.769,11.8576 -17.5345,19.1963 -62.7602,100.9734 -64.9753,117.4884 -1.4272,10.6401 -0.5979,17.7345 2.0729,17.7345 8.1176,0 33.5687,-32.0949 79.433,-100.1679 31.5583,-46.8397 46.7266,-65.8902 49.9201,-62.6967 6.2856,6.2855 -13.4016,157.8358 -40.5223,311.9373 -11.6711,66.3154 -23.4505,136.3577 -26.1766,155.6495 -12.2509,86.6955 -16.5407,97.7954 -42.9967,111.2549 -63.7019,32.4085 -296.8553,42.059 -384.6751,15.9223 -37.6237,-11.1975 -37.7381,-11.6827 -9.6914,-41.0869 31.1726,-32.6811 31.5587,-39.1664 5.7226,-96.1239 -10.6231,-23.4192 -33.1553,-73.7303 -50.0716,-111.8026 -16.9164,-38.0722 -40.2864,-84.0847 -51.9335,-102.2501 -11.647,-18.1654 -23.913,-37.4054 -27.2578,-42.7556 -5.6229,-8.9939 -2.5099,-16.4934 41.2757,-99.4364 73.9675,-140.1168 145.8318,-288.1712 150.5001,-310.0589 4.8884,-22.9204 2.5199,-32.762 -7.4238,-30.847 -10.3941,2.0017 -25.1699,26.4518 -35.7195,59.1065 -8.2536,25.5476 -79.1983,168.95 -94.9722,191.97 -3.2594,4.7566 -5.9262,11.1518 -5.9262,14.2116 0,3.0598 -7.2086,14.9522 -16.019,26.4275 -8.8105,11.4754 -20.3372,30.7294 -25.6148,42.7868 -15.2299,34.7946 -19.3016,43.0018 -28.2773,56.9984 -9.237,14.4038 -24.0006,43.802 -28.074,55.9022 -1.4207,4.2201 -4.485,7.6729 -6.8096,7.6729 -2.3247,0 -5.417,3.7503 -6.8718,8.334 -2.6852,8.4603 -170.7653,169.5396 -219.8854,210.7267 -27.3274,22.914 -31.8578,30.3458 -52.1654,85.5738 -11.72625,31.8904 -23.0282,47.3959 -41.57841,57.0428 -20.04963,10.4268 -65.79827,23.7667 -121.99823,35.5738 -48.93669,10.2811 -67.35531,11.831 -154.22476,12.9775 -54.25809,0.716 -111.47571,-0.4376 -127.15027,-2.5635 z m 1099.00267,-54.4172 c 109.8388,-16.4621 171.0489,-29.8499 180.7275,-39.5285 3.3753,-3.3752 4.8476,-9.4541 3.2796,-13.5402 -3.5535,-9.2604 -15.7699,-8.0211 -151.8109,15.3997 -54.258,9.341 -107.5296,18.308 -118.3812,19.9267 -20.3438,3.0345 -39.4605,12.4455 -39.4605,19.4261 0,6.7057 13.0919,17.4908 18.761,15.4553 2.9445,-1.0572 51.0426,-8.7698 106.8845,-17.1391 z"
       id="path4350"
       inkscape:connector-curvature="0" /><path
       style="opacity:1;fill:#fff6d5;fill-opacity:1;fill-rule:nonzero;stroke:none;stroke-width:4.38449192;stroke-miterlimit:4;stroke-dasharray:none;stroke-opacity:1"
       d="m 788.78106,2454.8209 c -115.50633,-14.4327 -164.00459,-26.6663 -206.07112,-51.9811 -37.29631,-22.4442 -46.03717,-31.6849 -46.03717,-48.6701 0,-16.9799 34.55165,-183.9671 63.61253,-307.4375 2.87364,-12.2092 11.43962,-12.6382 21.88507,-1.0961 9.90781,10.948 18.13531,11.1726 23.76749,0.6487 3.40071,-6.3542 1.05051,-13.235 -10.80697,-31.6397 -8.33402,-12.9357 -15.15277,-25.9504 -15.15277,-28.9216 0,-7.3217 20.95338,-72.3684 25.64044,-79.5969 2.72104,-4.1965 7.6839,0.349 18.09412,16.5717 13.36267,20.8239 28.16068,35.2479 36.16187,35.2479 7.55658,0 2.6662,-23.3849 -9.41222,-45.0075 -7.05162,-12.6236 -16.1907,-34.7114 -20.30905,-49.0839 -23.48736,-81.9675 27.67178,-215.5437 137.76502,-359.7035 30.66058,-40.148 99.56209,-109.7374 138.70447,-140.0893 82.06893,-63.638 144.71623,-92.2854 350.90403,-160.4614 131.0519,-43.3323 131.1717,-43.3351 134.901,-3.1463 2.2911,24.6894 -1.3987,43.0277 -36.4039,180.9312 -43.5147,171.4271 -53.0181,201.809 -79.1954,253.1849 -10.0049,19.6357 -24.9716,53.4703 -33.2594,75.1881 -17.2097,45.0972 -22.9634,54.3115 -28.4816,45.6125 -6.2797,-9.8995 -4.0817,-19.3875 7.3487,-31.721 12.6728,-13.6743 11.9357,-28.5542 -3.1941,-64.4774 l -8.5743,-20.3583 11.2998,-35.7703 c 12.9719,-41.0632 14.0135,-52.8555 4.6686,-52.8555 -13.5622,0 -46.3293,60.8589 -74.3609,138.1115 -7.8751,21.7032 -22.6058,58.9185 -32.7349,82.7007 -51.4246,120.7407 -80.1225,166.0322 -128.1769,202.2912 -39.0025,29.429 -57.01829,49.7663 -53.73409,60.6581 5.17506,17.1628 8.88206,16.5871 36.77629,-5.7106 15.1807,-12.1351 29.3229,-22.0638 31.427,-22.0638 13.2785,0 -8.3279,71.0889 -38.8983,127.9818 -31.71001,59.0139 -166.51427,304.2525 -172.59936,313.9963 -6.04062,9.6726 -13.16113,10.7147 -45.55398,6.6672 z"
       id="path4352"
       inkscape:connector-curvature="0" /><path
       style="opacity:1;fill:#fff6d5;fill-opacity:1;fill-rule:nonzero;stroke:none;stroke-width:4.38449192;stroke-miterlimit:4;stroke-dasharray:none;stroke-opacity:1"
       d="m 1307.2433,2069.6752 c -94.2877,-14.0589 -88.0835,-11.1559 -78.08,-36.5351 4.504,-11.4268 33.8084,-72.2924 65.121,-135.257 66.7489,-134.2218 78.1636,-162.7449 133.8804,-334.5412 23.0716,-71.1383 45.6478,-140.0637 50.1693,-153.1674 l 8.221,-23.8249 23.0746,46.4314 c 28.2484,56.8424 59.6565,97.6773 75.1285,97.6773 16.6435,0 12.0462,-16.6054 -13.8762,-50.1211 -32.7288,-42.3159 -90.3801,-165.1515 -81.6222,-173.9095 1.6797,-1.6797 10.493,1.8393 19.585,7.8199 18.0529,11.8751 41.702,21.1201 82.2984,32.1724 35.6749,9.7124 114.1561,43.1019 136.9797,58.2774 l 18.5984,12.3662 -16.4062,7.7991 c -41.1641,19.5686 -123.8262,88.9123 -123.8262,103.8756 0,4.5632 1.8903,8.2967 4.2008,8.2967 2.3104,0 24.5069,-13.8091 49.3255,-30.687 24.8186,-16.8778 47.591,-30.689 50.6054,-30.6914 26.3475,-0.022 -42.0173,169.5138 -178.4106,442.4341 -60.3061,120.6714 -61.294,123.1609 -48.871,123.1609 12.1475,0 21.9853,-17.4754 109.8378,-195.1099 93.159,-188.3643 114.3932,-238.7381 134.9258,-320.0834 15.6352,-61.9435 17.3,-65.9432 31.4021,-75.4467 24.0416,-16.2015 57.4398,-10.1553 57.4398,10.3986 0,7.5181 2.4747,10.2574 9.2668,10.2574 8.5123,0 9.0234,1.6231 6.2775,19.9343 -5.4348,36.2422 -41.3842,164.152 -57.3525,204.0635 -25.2598,63.1349 -110.3727,247.9901 -128.7547,279.64 -35.9784,61.9473 -47.8027,92.6531 -35.679,92.6531 29.6123,0 145.0916,-246.767 216.9786,-463.66 13.7871,-41.5979 26.8981,-75.6325 29.1355,-75.6325 2.2374,0 9.3887,10.8487 15.8917,24.1081 13.1944,26.9029 18.9395,30.3607 40.276,24.2415 l 14.7257,-4.2233 -2.6494,19.33 c -6.1393,44.7909 -66.889,190.676 -141.5488,339.917 -34.3815,68.7269 -64.5518,130.3838 -67.045,137.0153 l -4.5332,12.0574 -45.3283,0 c -24.9306,0 -66.9061,-2.8034 -93.279,-6.2296 -26.3728,-3.4263 -69.6538,-7.5777 -96.18,-9.2254 -44.8825,-2.7877 -49.0381,-2.3554 -59.8822,6.2297 -14.3727,11.3786 -22.4525,11.2455 -110.0208,-1.8115 z m 297.9514,-55.2857 c 17.7082,-10.9442 24.8467,-26.6492 21.1265,-46.4793 -3.092,-16.4818 -13.01,-23.1175 -34.5526,-23.1175 -33.9202,0 -56.6018,46.6705 -34.6262,71.248 9.2719,10.3698 29.7401,9.6664 48.0523,-1.6512 z m 82.1198,-201.0222 c 14.512,-5.5175 28.7493,-29.0067 28.7702,-47.4663 0.013,-12.4323 -2.1709,-15.3873 -15.4939,-20.954 -13.8209,-5.7747 -17.0977,-5.7273 -30.0839,0.435 -34.3314,16.2913 -32.4952,67.8735 2.56,71.9142 1.6516,0.1903 8.063,-1.5776 14.2476,-3.929 l 0,10e-5 z m 83.0826,-197.4241 c 13.1742,-14.5823 15.8559,-20.8248 15.8559,-36.9096 0,-25.3258 -3.3778,-33.2296 -14.2012,-33.2296 -23.4528,0 -51.5662,31.1069 -51.5662,57.0568 0,10.3766 18.3762,30.633 27.7897,30.633 3.4462,0 13.401,-7.8978 22.1218,-17.5506 z"
       id="path4354"
       inkscape:connector-curvature="0" /><path
       style="opacity:1;fill:#fff6d5;fill-opacity:1;fill-rule:nonzero;stroke:none;stroke-width:4.38449192;stroke-miterlimit:4;stroke-dasharray:none;stroke-opacity:1"
       d="m 1888.106,1490.9978 c -21.5598,-29.6484 -25.4257,-37.2682 -18.908,-37.2682 13.9225,0 133.3211,13.118 135.0395,14.8365 5.78,5.7799 -71.3539,59.6999 -85.4023,59.6999 -1.9956,0 -15.8238,-16.7707 -30.7292,-37.2682 z"
       id="path4358"
       inkscape:connector-curvature="0" /><path
       style="opacity:1;fill:#fff6d5;fill-opacity:1;fill-rule:nonzero;stroke:none;stroke-width:4.38449192;stroke-miterlimit:4;stroke-dasharray:none;stroke-opacity:1"
       d="m 1790.8833,2085.2484 c -4.2505,-2.627 -4.3769,-5.5865 -0.5443,-12.7478 6.81,-12.7246 17.8364,-12.0041 17.8364,1.1656 0,11.3829 -8.4533,17.0449 -17.2921,11.5822 z"
       id="path4360"
       inkscape:connector-curvature="0" /></g><g
     inkscape:groupmode="layer"
     id="layer2"
     inkscape:label="Grund 3"
     style="display:inline"><path
       style="opacity:0.12000002;fill:#000000;fill-opacity:1;fill-rule:nonzero;stroke:none;stroke-width:5.9000001;stroke-miterlimit:4;stroke-dasharray:none;stroke-opacity:1"
       d="m 540.3151,3513.965 c -18.023,-2.2531 -35.4755,-6.3426 -38.7832,-9.0877 -7.2905,-6.0506 -4.0092,-32.5116 6.5679,-52.9655 3.9099,-7.5608 8.6408,-28.9438 10.5133,-47.5178 2.8848,-28.6157 12.0854,-55.7283 60.2734,-177.6143 31.278,-79.114 64.2972,-167.2545 73.376,-195.8678 18.2577,-57.542 14.9588,-52.6796 95.47872,-140.7344 59.605,-65.1829 73.0893,-85.2163 73.0305,-108.5005 -0.023,-9.0688 -11.4031,-37.0137 -30.6512,-75.266 -44.9966,-89.4229 -77.1013,-196.403 -65.4653,-218.145 3.7812,-7.0653 9.9672,-8.2324 44.7894,-8.4501 73.5212,-0.4599 67.9058,3.1418 109.4489,-70.1988 19.8997,-35.1311 58.871,-103.6795 86.6029,-152.3298 l 50.42158,-88.4551 17.538,-0.031 160.7853,21.579 c -25.2553,134.1839 -77.4565,301.3803 -122.1567,496.374 -11.2155,48.9248 30.1031,149.1773 18.995,193.9237 -12.8197,51.6412 -124.04105,191.5046 -135.95145,232.9728 -91.5729,318.8289 -115.58177,339.3955 -188.86753,401.2676 -55.3685,4.9962 -182.65082,4.4592 -225.94552,-0.9531 z"
       id="path4478"
       inkscape:connector-curvature="0"
       sodipodi:nodetypes="csssssscssssscccsssccc" /><path
       style="opacity:0.12000002;fill:#000000;fill-opacity:1;fill-rule:nonzero;stroke:none;stroke-width:5.9000001;stroke-miterlimit:4;stroke-dasharray:none;stroke-opacity:1"
       d="m 1536.2043,2675.1257 c 0,0 59.0431,14.9916 65.9451,68.5957 2.2895,105.6549 -181.531,469.2568 -230.2297,401.3408 -22.8678,-31.8919 -27.02,-29.1845 -37.1743,-60.4492 6.3674,-56.9883 77.3619,-154.2993 201.4589,-409.4873 z"
       id="path4521"
       inkscape:connector-curvature="0"
       sodipodi:nodetypes="ccscc" /><path
       style="opacity:0.12000002;fill:#000000;fill-opacity:1;fill-rule:nonzero;stroke:none;stroke-width:5.9000001;stroke-miterlimit:4;stroke-dasharray:none;stroke-opacity:1"
       d="m 2068.9419,2264.9411 c 97.6271,174.4659 103.2469,163.7174 172.1432,263.8689 22.0121,31.998 -41.8117,12.2305 -48.508,13.1429 -28.5273,3.8871 -29.0911,3.6183 -48.5967,-23.1814 -76.6164,-105.2678 -136.3979,-218.1299 -160.3243,-302.678 l -12.3617,-43.6821 19.6621,1.5073 c 32.7613,2.5115 23.5122,-14.8319 -20.6419,-38.7063 l -40.304,-21.7925 -37.6389,-77.3196 -37.639,-77.3196 23.664,-52.8932 c 5.5375,-12.3774 33.4595,130.2987 165.519,247.993"
       id="path4542"
       inkscape:connector-curvature="0"
       sodipodi:nodetypes="csssscsscccsc" /><path
       style="opacity:0.12000002;fill:#000000;fill-opacity:1;fill-rule:nonzero;stroke:none;stroke-width:5.9000001;stroke-miterlimit:4;stroke-dasharray:none;stroke-opacity:1"
       d="m 794.5291,2455.4606 c -37.04101,-8.058 -62.96661,17.6202 -47.8253,-10.2205 291.7416,-536.4318 190.60734,-277.9798 194.3963,-405.3029 23.79748,-11.9644 110.2233,-140.9346 151.5605,-231 56.6549,-123.4395 69.4648,-216.0117 93.5737,-219.8698 36.9624,-33.5559 112.1,-37.8092 82.0436,-38.2071 -15.2743,0 -43.2244,51.9407 -81.0012,150.5276 -43.9257,114.6339 -82.0314,192.2741 -112.7919,229.8132 -8.7302,10.6542 -31.1497,32.0098 -49.821,47.4569 -38.36498,31.7401 -49.8926,46.5709 -45.92209,59.0807 3.90461,12.3025 8.50609,10.9221 37.20469,-11.1611 14.1025,-10.8516 27.9372,-19.7302 30.7438,-19.7302 13.6111,0 -9.7358,70.4977 -45.7387,138.1115 -69.31806,130.1803 -166.20359,303.2364 -172.43977,308.0106 -7.15393,5.4767 -9.30642,5.6345 -33.98213,2.4911 z"
       id="path4546"
       inkscape:connector-curvature="0"
       sodipodi:nodetypes="cscsccsssssssscc" /></g><g
     inkscape:groupmode="layer"
     id="layer3"
     inkscape:label="Grund 4"
     style="display:inline"><path
       style="display:inline;opacity:1;fill:#000000;fill-opacity:1;fill-rule:nonzero;stroke:none;stroke-width:5.9000001;stroke-miterlimit:4;stroke-dasharray:none;stroke-opacity:1"
       d="m 612.75073,2729.6835 c -8.14777,-4.8498 -16.75666,-11.2736 -19.13086,-14.2752 -26.82516,17.6185 -43.18252,0.4445 -55.41326,-4.99 -7.80632,-3.4771 -13.22496,-4.3762 -18.67482,-1.4595 -14.08848,7.5399 -23.5145,4.433 -42.89823,-14.14 -30.64454,-29.3626 -34.80654,-56.7463 -20.16009,-132.6426 10.69066,-55.3977 37.04537,-127.6288 54.54142,-157.3256 23.29379,-39.5375 34.03131,-16.781 0.25197,43.5643 -10.47886,24.6834 -16.09111,32.8017 -18.1522,41.5007 -1.14979,5.2107 -5.26383,20.9021 -9.14234,34.8698 -11.12009,40.0471 -19.20203,103.5508 -15.25648,119.878 3.57749,14.8043 25.01482,38.8454 34.63818,38.8454 7.85135,0 8.43322,-1.6395 5.63258,-15.8723 -6.28874,-31.9594 -6.32415,-39.1518 -0.19267,-39.1518 3.35007,0 8.97296,9.1733 12.93537,21.1029 4.29615,12.9345 11.54058,24.3294 18.71593,29.4387 28.74332,33.9773 28.37342,-2.5601 27.49303,-9.7693 -0.41991,-3.2454 0.5048,-7.7431 3.72715,-10.4173 4.68027,-3.8844 9.01659,-1.3911 19.35407,13.9294 40.53125,60.0688 65.21839,49.5641 68.9664,17.4014 2.06646,-17.7329 8.25483,-17.164 21.50478,1.9773 14.1111,20.3851 27.32664,21.8908 44.91371,5.1171 23.21747,-22.1438 32.21359,-70.8753 20.31558,-110.0483 -5.18642,-17.0758 -8.72076,-17.3177 -15.45572,-1.0581 -2.89274,6.9838 -7.88555,12.6978 -11.09503,12.6978 -14.80464,0 0.97452,-48.387 21.01841,-64.4534 11.56177,-9.2674 27.63701,-9.5832 31.08013,-0.6107 1.6875,4.3977 -0.89183,9.5578 -7.12923,14.2626 l -9.7733,7.3721 8.05451,19.5825 c 10.85109,26.4068 11.43811,32.2261 22.86864,42.8937 19.17887,26.1974 24.89867,-86.4556 24.26141,-99.2308 -3.53865,-67.75 4.9597,-80.2837 14.21409,-20.9634 6.79708,43.5685 2.18149,96.9039 -10.84898,125.3662 -10.23356,22.353 -25.3558,34.0564 -33.76383,26.1305 -9.04942,-8.5304 -14.96744,-2.4373 -22.00965,22.6608 -5.86486,20.9023 -11.69565,30.7251 -27.79453,46.824 -21.26227,21.2623 -33.71542,18.2375 -48.99125,10.3022 -7.64517,-3.9714 -12.15962,-3.3218 -21.81617,2.3824 -16.0319,9.4703 -28.81293,9.0082 -46.78872,-1.6915 z"
       id="path4757"
       inkscape:connector-curvature="0"
       sodipodi:nodetypes="sccssssccsssssscccssssssssssccccssssssss" /><path
       style="display:inline;opacity:1;fill:#000000;fill-opacity:1;fill-rule:nonzero;stroke:none;stroke-width:5.9000001;stroke-miterlimit:4;stroke-dasharray:none;stroke-opacity:1"
       d="m 2266.2622,2761.1372 c -43.9154,-77.3248 -45.641,-102.5269 -64.8661,-154.2792 -4.782,-5.347 -4.6453,-61.5847 0.1498,-61.5847 7.5887,0 17.4172,21.3584 17.4172,37.8493 -2.307,27.6208 12.2386,44.3553 25.5304,69.12 0.075,2.8574 2.9923,8.9762 6.485,13.5975 5.8329,22.8446 3.029,-17.5194 49.4036,-17.8633 29.5715,10.0261 10.8505,-18.1123 57.6652,-29.0319 3.5957,-1.1297 -5.3873,-12.1262 -23.9302,-29.294 -27.0357,-25.031 -43.1178,-49.7777 -35.4348,-54.5261 1.6645,-1.0287 19.8009,13.1353 40.303,31.4756 20.5022,18.3404 40.9303,34.5058 45.3961,35.9232 12.0807,8.5225 21.1538,24.5629 25.1375,38.6566 5.7714,20.982 21.1804,49.1845 29.7754,54.4963 11.407,7.05 16.5772,-8.7563 18.0759,-55.2615 1.4703,-45.6221 1.2485,-46.9279 -12.2083,-71.8622 -11.4257,-21.1709 -12.751,-26.2759 -7.9663,-30.6866 9.3739,-8.6412 12.2108,-6.4718 24.9076,19.0468 8.0115,16.1017 12.3814,31.8707 12.9133,46.598 1.8627,22.3965 12.7614,29.5808 34.6169,30.6475 8.0779,0 16.3888,-14.7946 15.4551,-27.5121 -0.5127,-6.9838 -1.1696,-23.1736 -1.4595,-35.9773 -1.9551,-37.5466 -16.2875,-55.2725 -31.1176,-79.3617 -16.699,-25.3676 -42.7769,-44.4643 -38.5261,-65.055 1.4726,-6.7047 4.1079,-12.1905 5.8563,-12.1905 1.7483,0 9.5571,9.0473 17.3529,20.105 7.7957,11.0577 21.1844,27.8676 29.7524,37.3552 21.5843,23.9009 37.3794,72.7473 40.7762,126.1009 2.4842,39.0184 2.1257,41.5503 -7.3071,51.5909 -12.8849,13.7154 -31.877,23.0382 -46.9324,23.0382 -10.7148,0 -12.2858,1.8017 -14.6922,16.8506 -19.1622,50.7661 -42.4775,61.8697 -65.4934,17.0104 9.2986,28.7363 -20.3355,72.8817 -57.115,42.3262 -6.3694,28.8154 -49.2894,70.2422 -89.9208,12.6979 z m 57.8127,-1.2681 c 9.5548,-11.5128 9.9296,-38.2469 0.8992,-64.1271 -22.8332,-58.081 -70.5058,-9.1864 -56.8906,17.1827 15.0152,31.879 31.353,52.4451 41.6627,52.4451 5.3699,0 11.8178,-2.4753 14.3287,-5.5007 z m 70.6639,-41.4415 c 3.232,-10.1833 2.6122,-49.2181 -11.7792,-70.5131 -55.2328,-24.6418 -43.4842,40.832 -28.6464,61.6298 10.0364,13.8549 15.5531,17.7319 25.2311,17.7319 8.8476,0 13.1883,-2.5278 15.1945,-8.8486 z"
       id="path4759"
       inkscape:connector-curvature="0"
       sodipodi:nodetypes="ccscccccsssccsssssccscccssssssccccsccsssccss" /><path
       style="opacity:1;fill:#ffe6d5;fill-opacity:1;fill-rule:nonzero;stroke:none;stroke-width:5.9000001;stroke-miterlimit:4;stroke-dasharray:none;stroke-opacity:1"
       d="m 2430.5994,2680.9806 c -6.0996,-9.3127 -15.1821,-27.978 -20.1833,-41.4786 -8.1458,-21.9897 -13.921,-28.5304 -55.4445,-62.7942 l -46.3514,-38.2478 47.2221,-30.7387 c 25.9722,-16.9064 58.6984,-39.5696 72.7249,-50.3627 14.0265,-10.7932 25.5027,-18.0192 25.5027,-16.0579 0,1.9613 11.1566,18.354 24.7923,36.4283 31.6753,41.9857 39.35,60.0945 43.0456,101.5685 3.3877,38.0185 -1.08,51.8673 -16.7325,51.8673 -16.3197,0 -24.4456,-9.5931 -29.0902,-34.3426 -4.9834,-26.5549 -18.4311,-59.3836 -26.3236,-64.2614 -2.9341,-1.8134 -8.4306,-0.1483 -12.3073,3.7284 -6.4174,6.4174 -5.9787,9.1532 5.2274,32.5991 11.443,23.9415 12.1347,28.6043 10.7144,72.2253 -1.8217,55.9485 -6.6886,64.4598 -22.7966,39.867 z"
       id="path4850"
       inkscape:connector-curvature="0" /><path
       style="opacity:1;fill:#ffe6d5;fill-opacity:1;fill-rule:nonzero;stroke:none;stroke-width:5.9000001;stroke-miterlimit:4;stroke-dasharray:none;stroke-opacity:1"
       d="m 2237.8409,2636.7758 c -10.3588,-20.489 -16.149,-38.0507 -16.149,-48.9798 0,-15.7416 1.0843,-17.2452 14.2496,-19.7583 7.8372,-1.496 24.6079,-7.5439 37.2681,-13.4397 12.6603,-5.8958 23.0186,-8.8744 23.0186,-6.619 0,2.2553 13.3179,18.2572 29.5953,35.5597 19.9966,21.2559 27.6165,32.1334 23.4939,33.5382 -3.3558,1.1435 -13.6398,8.8895 -22.8533,17.2134 -9.2136,8.3238 -18.5966,13.9941 -20.8513,12.6007 -7.2289,-4.4678 -30.8596,2.5838 -41.4026,12.3548 l -10.2203,9.4718 -16.149,-31.9418 z"
       id="path4852"
       inkscape:connector-curvature="0" /><path
       style="opacity:1;fill:#ffe6d5;fill-opacity:1;fill-rule:nonzero;stroke:none;stroke-width:5.9000001;stroke-miterlimit:4;stroke-dasharray:none;stroke-opacity:1"
       d="m 2296.0172,2752.8344 c -13.194,-13.9633 -26.0959,-40.4313 -26.0959,-53.5353 0,-13.0069 14.0024,-28.6739 25.6274,-28.6739 16.4975,0 32.272,27.6346 32.7198,57.3203 0.4943,32.7668 -14.1377,44.0587 -32.2513,24.8889 z"
       id="path4854"
       inkscape:connector-curvature="0" /><path
       style="opacity:1;fill:#ffe6d5;fill-opacity:1;fill-rule:nonzero;stroke:none;stroke-width:5.9000001;stroke-miterlimit:4;stroke-dasharray:none;stroke-opacity:1"
       d="m 2357.4558,2708.9895 c -10.9075,-17.6714 -14.0981,-29.4142 -12.2444,-45.0651 1.7722,-14.9629 11.8366,-21.7985 26.6287,-18.0859 13.8493,3.4759 20.8469,21.582 20.8469,53.9402 0,23.1696 -0.1638,23.4604 -13.2179,23.4604 -10.1853,0 -15.2358,-3.2693 -22.0133,-14.2496 z"
       id="path4856"
       inkscape:connector-curvature="0" /><g
       id="g4862"
       transform="translate(289.87842,-58.905775)"><path
         sodipodi:nodetypes="sscsssssscsss"
         inkscape:connector-curvature="0"
         id="path4858"
         d="m 490.72279,2672.2586 c -3.58631,-4.2201 -9.92442,-19.8878 -14.87098,-32.8282 l -9.72057,-25.4293 9.71601,-7.5935 c 18.6538,-14.5787 -6.94695,-28.8451 -25.55294,-11.897 -2.33414,2.1262 -4.64141,5.0394 -5.93968,5.429 -4.64682,1.3946 -3.23304,-8.9441 -5.19638,-19.409 -1.58497,-8.4482 -4.10667,-26.6087 -2.58959,-32.6532 2.67349,-10.652 8.84513,-11.5971 44.95644,-12.3601 l 38.90973,-0.8221 -0.41075,58.0188 c -0.34249,48.3754 -11.28697,88.0395 -17.40402,88.0395 -1.75144,0 -8.31095,-4.2749 -11.89727,-8.4949 z"
         style="opacity:1;fill:#ffe6d5;fill-opacity:1;fill-rule:nonzero;stroke:none;stroke-width:5.9000001;stroke-miterlimit:4;stroke-dasharray:none;stroke-opacity:1" /><path
         sodipodi:nodetypes="ssscssscscsssssscssccsccsssccsssss"
         inkscape:connector-curvature="0"
         id="path4860"
         d="m 338.85431,2770.6192 c -7.96206,-4.1823 -22.99473,-19.4995 -32.56065,-33.1771 -8.59258,-12.2858 -17.66425,-22.3346 -20.16284,-22.3346 -0.94289,0 -3.04412,0.9723 -4.6694,2.1608 -2.33939,1.7106 -3.17141,4.9431 -3.99348,15.5155 -1.71178,22.0145 -6.69892,23.6158 -23.40005,7.5137 -12.10095,-11.667 -16.24529,-17.9551 -22.03674,-33.4358 -5.17912,-13.844 -9.56731,-19.9685 -13.86792,-19.3554 -4.75794,0.6784 -5.04427,9.7888 -1.02043,32.4678 1.79976,10.1438 2.84917,19.1278 2.33203,19.9646 -1.85129,2.9954 -9.68765,1.4771 -15.26913,-2.9585 -7.13341,-5.669 -17.2462,-17.7047 -21.63429,-25.7481 -2.97156,-5.4469 -3.36688,-8.4618 -3.25214,-24.8024 0.21849,-31.1158 6.02387,-66.2578 19.07806,-115.4863 6.79376,-25.6199 9.26209,-32.1491 23.14817,-61.231 8.54894,-17.9043 16.81609,-36.5201 18.37145,-41.3686 l 2.82794,-8.8153 11.62614,7.1245 c 21.47263,13.1585 69.82063,35.6377 96.10942,44.6856 14.06763,4.8418 30.55337,11.0821 36.63499,13.8675 30.09799,7.9854 21.36747,6.0525 57.55877,13.9597 12.68331,10.6717 9.69976,43.4441 3.3603,54.1217 -9.70407,16.3447 -15.76683,28.4456 -19.71213,36.1335 -3.41222,10.8119 -4.98346,19.7608 -2.00509,27.1212 0.48274,2.5482 5.63961,2.4396 10.7741,-2.9112 2.02826,-2.1137 8.96876,-23.1664 13.68426,-19.7934 2.94523,2.1067 8.81517,12.5601 10.17327,21.3658 0.97319,6.3099 3.0108,17.0938 3.12865,21.0482 0.0421,32.0802 -7.19183,68.1892 -34.20147,87.0089 -5.44858,3.609 -10.39573,3.002 -15.21117,3.002 -7.94591,0 -12.65912,-3.5664 -24.76607,-18.7403 -12.35934,-15.4901 -17.71676,-15.7255 -20.05935,-0.8812 -1.87065,11.8538 -4.42062,18.396 -8.92657,22.9019 -5.48475,5.4847 -12.97066,5.85 -22.05863,1.0763 z"
         style="opacity:1;fill:#ffe6d5;fill-opacity:1;fill-rule:nonzero;stroke:none;stroke-width:5.9000001;stroke-miterlimit:4;stroke-dasharray:none;stroke-opacity:1" /></g></g></svg>