<?xml version="1.0" encoding="UTF-8" standalone="no"?>
<!-- Created with Inkscape (http://www.inkscape.org/) -->

<svg
   xmlns:dc="http://purl.org/dc/elements/1.1/"
   xmlns:cc="http://creativecommons.org/ns#"
   xmlns:rdf="http://www.w3.org/1999/02/22-rdf-syntax-ns#"
   xmlns:svg="http://www.w3.org/2000/svg"
   xmlns="http://www.w3.org/2000/svg"
   xmlns:sodipodi="http://sodipodi.sourceforge.net/DTD/sodipodi-0.dtd"
   xmlns:inkscape="http://www.inkscape.org/namespaces/inkscape"
   id="svg4155"
   version="1.1"
   inkscape:version="0.91 r13725"
   xml:space="preserve"
   width="3060"
   height="4080"
   viewBox="0 0 3060 4080"
   sodipodi:docname="SuperTeacher_Phase4_v3.svg"
   enable-background="new"
   inkscape:export-filename="/Users/larsaeschlimann/Desktop/SuperTeacher_Design/PNG/P4"
   inkscape:export-xdpi="350"
   inkscape:export-ydpi="350"><metadata
     id="metadata4161"><rdf:RDF><cc:Work
         rdf:about=""><dc:format>image/svg+xml</dc:format><dc:type
           rdf:resource="http://purl.org/dc/dcmitype/StillImage" /><dc:title /></cc:Work></rdf:RDF></metadata><defs
     id="defs4159"><marker
       inkscape:stockid="Arrow1Lstart"
       orient="auto"
       refY="0.0"
       refX="0.0"
       id="marker4962"
       style="overflow:visible"
       inkscape:isstock="true"><path
         id="path4964"
         d="M 0.0,0.0 L 5.0,-5.0 L -12.5,0.0 L 5.0,5.0 L 0.0,0.0 z "
         style="fill-rule:evenodd;stroke:none;stroke-width:1pt;stroke-opacity:1;fill:#000000;fill-opacity:1"
         transform="scale(0.8) translate(12.5,0)" /></marker><marker
       inkscape:stockid="Arrow1Lstart"
       orient="auto"
       refY="0.0"
       refX="0.0"
       id="Arrow1Lstart"
       style="overflow:visible"
       inkscape:isstock="true"><path
         id="path4692"
         d="M 0.0,0.0 L 5.0,-5.0 L -12.5,0.0 L 5.0,5.0 L 0.0,0.0 z "
         style="fill-rule:evenodd;stroke:none;stroke-width:1pt;stroke-opacity:1;fill:#000000;fill-opacity:1"
         transform="scale(0.8) translate(12.5,0)" /></marker><clipPath
       clipPathUnits="userSpaceOnUse"
       id="clipPath4171"><path
         d="m 0,0 2448,0 0,3264 L 0,3264 0,0 Z"
         id="path4173"
         inkscape:connector-curvature="0" /></clipPath><filter
       inkscape:collect="always"
       style="color-interpolation-filters:sRGB"
       id="filter4226"><feBlend
         inkscape:collect="always"
         mode="lighten"
         in2="BackgroundImage"
         id="feBlend4228" /></filter><filter
       inkscape:collect="always"
       style="color-interpolation-filters:sRGB"
       id="filter4682"><feBlend
         inkscape:collect="always"
         mode="lighten"
         in2="BackgroundImage"
         id="feBlend4684" /></filter></defs><sodipodi:namedview
     pagecolor="#ffffff"
     bordercolor="#666666"
     borderopacity="1"
     objecttolerance="10"
     gridtolerance="10"
     guidetolerance="10"
     inkscape:pageopacity="0"
     inkscape:pageshadow="2"
     inkscape:window-width="1440"
     inkscape:window-height="856"
     id="namedview4157"
     showgrid="false"
     showguides="true"
     inkscape:zoom="0.16029412"
     inkscape:cx="1977.0585"
     inkscape:cy="1947.9085"
     inkscape:window-x="-4"
     inkscape:window-y="0"
     inkscape:window-maximized="0"
     inkscape:current-layer="layer2" /><g
     id="g4163"
     inkscape:groupmode="layer"
     inkscape:label="Hauptkörper"
     transform="matrix(1.25,0,0,-1.25,0,4080)"
     style="display:inline;opacity:1;filter:url(#filter4682)"><g
       id="g4165"
       style="fill:#000000;stroke:#000000;stroke-width:0.80000001;stroke-miterlimit:4;stroke-dasharray:none;stroke-opacity:1" /><path
       style="opacity:1;fill:#000000;fill-opacity:1;fill-rule:nonzero;stroke:#000000;stroke-width:0.89267212;stroke-miterlimit:4;stroke-dasharray:none;stroke-opacity:1"
       d="m 1482.5603,2898.4091 0,0 0,0 c -3.376,-0.025 -12.2054,-7.0234 -24.477,-21.6804 -12.967,-15.4875 -38.6707,-38.2372 -57.1189,-50.5563 -36.927,-24.6597 -38.9985,-25.5325 -36.7599,-15.4805 2.6497,11.8983 -13.0637,42.897 -21.7449,42.897 -6.0546,0 -7.2243,-3.3435 -4.3571,-12.4538 11.144,-35.4081 22.7138,-98.6027 19.1175,-104.4217 -2.8665,-4.6381 -11.2469,-0.5318 -27.76,13.6028 -39.9522,34.1976 -54.0298,23.1777 -16.687,-13.0623 20.7771,-20.1636 32.8568,-48.8349 25.5527,-60.6529 -5.4013,-8.7397 -12.8371,-6.7374 -16.3749,4.4093 -3.7049,11.6734 -36.6468,46.7622 -40.3882,43.0209 -3.1566,-3.1565 16.2298,-36.495 21.2219,-36.495 7.1607,0 17.2883,-33.1954 14.0561,-46.0737 -3.1949,-9.6675 4.3766,-14.5789 -7.8475,-24.7438 -16.8733,-14.0307 -55.9625,-32.7565 -73.3368,-39.8843 l 8.2223,-20.7772 c 9.7816,4.1067 22.0121,9.7282 37.0145,16.9816 4.4055,2.13 8.6779,4.1754 12.8513,6.1563 -1.46,-9.9952 -2.5507,-33.8435 -2.5507,-41.2337 0,-17.5895 -9.415,-27.2331 -14.2601,-14.6071 -1.7112,4.4594 -7.9217,9.3649 -13.7998,10.9021 -17.68,4.6235 -12.7605,-13.8626 8.5676,-32.1989 14.7087,-12.6455 19.2805,-20.8931 19.372,-34.938 0.066,-10.1116 3.6796,-21.9445 8.0305,-26.2955 12.642,-12.6419 27.4923,-69.5484 19.4471,-74.5207 -3.6497,-2.2556 -4.9559,-6.8183 -2.903,-10.1402 2.0531,-3.3218 1.147,-10.8718 -2.0137,-16.7777 -6.7665,-13.3089 11.4939,-32.19 20.9516,-37.0947 7.1219,-3.5718 10.2316,-7.4009 6.9095,-8.5083 -4.1542,-1.3848 -4.4184,-7.6707 -0.8438,-20.1339 3.6891,-12.8632 2.8822,-26.512 -2.7827,-47.0449 -4.3888,-15.9087 -20.2996,-78.7404 -35.3564,-139.6265 -51.3116,-157.0862 -92.7349,-342.5166 -171.5517,-466.3636 -43.9152,-78.6866 -34.8248,-70.7889 -52.3884,-105.9727 -7.2467,-14.5169 54.8971,4.7991 61.5877,-10.9766 10.9805,26.2737 49.485,104.6585 78.4186,160.5194 55.3481,106.8578 66.9729,136.4145 119.475,303.7891 23.3961,74.5857 44.7477,137.8832 47.4494,140.6622 2.9136,2.9969 7.1961,-0.9515 10.5238,-9.7043 20.508,-53.9402 64.7617,-119.8884 80.4503,-119.8884 10.9461,0 7.2352,17.6707 -6.974,33.2103 -22.2775,24.3624 -45.4613,64.1667 -64.9942,111.5875 -17.5543,42.6174 -22.9748,60.0171 -14.5077,60.0758 4.4353,0.03 12.6806,-4.6969 24.9896,-13.0502 10.5165,-7.1341 34.9136,-16.1731 54.2142,-20.0799 33.6629,-6.8138 123.0904,-45.2045 145.4323,-62.4329 10.1702,-7.8425 9.3642,-8.8507 -16.0332,-20.0851 -32.2865,-14.2819 -111.082,-82.968 -103.6755,-90.3744 3.128,-3.1281 20.984,6.8058 45.9865,25.5858 44.5211,33.4408 54.7111,37.0307 54.7111,19.2762 0,-37.3004 -60.3972,-181.0376 -155.7923,-370.764 -33.0422,-65.716 -60.0775,-121.1356 -60.0775,-123.1557 0,-2.0199 3.6911,-3.6718 8.2014,-3.6718 10.7585,0 169.1788,321.508 194.2678,394.2595 10.2141,29.6177 21.3807,69.9874 24.8153,89.71 5.5782,32.032 8.2447,37.0384 24.9826,46.9141 15.4146,9.0949 21.7016,10.0235 35.4506,5.2306 16.6342,-13.3053 33.3905,-29.6678 31.8729,-42.0551 -2.7663,-21.9836 -26.1938,-112.5833 -41.1623,-159.185 -8.0997,-25.2168 -44.173,-107.5275 -85.2502,-194.5206 -8.8304,-18.7011 -16.0541,-35.4259 -16.0541,-37.1661 0,-1.7403 -13.6998,-26.8928 -30.4433,-55.895 -16.7439,-29.0022 -30.4433,-56.4888 -30.4433,-61.0818 0,-18.6057 12.2214,-5.7792 40.8241,42.8483 47.6391,80.9921 125.5601,266.5894 156.1444,371.9148 10.1156,34.8355 20.6879,61.2073 24.538,61.2073 3.7204,0 11.2063,-11.2082 16.6348,-24.9076 9.8947,-24.9698 14.0923,-27.2049 37.2307,-19.8288 9.1907,2.9297 12.4538,1.7676 12.4538,-4.4356 0,-16.8592 -15.8962,-68.8095 -29.1531,-95.2735 -7.4783,-14.9286 -17.9061,-40.8423 -23.1728,-57.5861 -10.2936,-32.7249 -94.5528,-207.6746 -120.2563,-249.6918 -8.5862,-14.0362 -15.6112,-30.8484 -15.6112,-37.3616 0,-11.2082 -2.6244,-11.8418 -49.0604,-11.8418 -26.9832,0 -62.3288,2.5162 -78.5447,5.5914 -16.2158,3.0753 -53.9808,6.8483 -83.9234,8.3845 -45.2887,2.3237 -54.9829,1.3835 -57.6593,-5.5914 -2.017,-5.2561 -9.7092,-8.137 -20.6151,-7.7202 -20.0806,0.7668 -316.3801,42.5773 -352.53669,49.1573 0.12729,-1.3324 0.28342,-2.8493 0.51257,-4.7875 0.84759,-7.1692 0.71432,-12.1647 -0.20049,-15.4301 65.39071,-8.6332 341.42291,-45.895 352.81741,-45.0688 26.403,1.9144 26.6776,1.2644 20.0049,-47.418 l -3.5201,-25.68 -39.417,0 c -14.6021,0 -321.86848,29.3177 -357.85458,33.333 0.24271,-2.1023 0.55863,-4.1675 1.20644,-6.3724 1.06246,-3.6167 2.501,-7.121 4.15307,-10.5273 8.57081,-0.879 291.05277,-28.161 297.93557,-28.6466 65.1675,-4.596 95.4811,-8.7835 95.4811,-13.1878 0,-14.5501 18.4293,-20.0938 75.9626,-22.852 83.2902,-3.993 84.1811,-3.9191 100.6174,8.2327 13.9241,10.2945 19.0511,10.5789 95.2142,5.2986 l 62.5865,-4.3396 c 12.5309,0.1272 22.4929,-1.9454 35.8063,-1.1577 -1.8138,93.3717 -5.1205,175.2684 -7.5616,180.7835 -3.3284,7.5203 -1.8243,12.548 5.3195,17.7715 19.9776,28.3043 23.3511,48.8265 39.0927,80.0842 10.7156,21.2785 33.3924,77.8382 50.3942,125.689 17.0018,47.8508 35.353,95.7335 40.7786,106.4058 5.4258,10.6722 12.7108,29.976 16.1902,42.8971 8.6727,32.6994 5.7548,55.9245 17.8011,84.2547 18.6015,31.5423 47.0886,43.383 80.8113,45.8522 63.7326,4.4923 102.5085,21.2258 143.0332,61.7269 40.5862,40.5625 52.3399,74.0165 41.3454,117.6793 -9.5223,37.8168 -26.4821,68.9534 -47.7161,87.6039 -18.2448,16.025 -18.7816,17.6351 -15.3829,46.0947 3.1946,26.7553 4.5993,29.1577 15.1527,25.9084 29.4446,-9.066 91.7191,-19.4052 116.7989,-19.393 49.7116,0.026 85.7352,34.5329 85.7732,82.1695 0.017,19.8867 -3.1082,27.1289 -17.9685,41.6225 -9.8941,9.6499 -23.998,21.3923 -31.3429,26.0933 -12.3225,7.8867 2e-4,-6e-4 -8.2746,6.2905 l 10.909,57.2757 -179.7078,17.4595 -141.6786,15.8118 c -77.6393,8.6644 -204.0259,9.4931 -255.5274,16.7864 l -23.0542,3.2656 -6.2191,35.7156 c -3.4208,19.6439 -5.7988,57.1339 -5.2828,83.3114 0.8853,44.9636 1.4347,46.9632 9.9013,36.1549 21.4731,-27.4109 190.1562,-58.3283 247.7793,-45.4147 20.9165,4.6875 37.3422,3.9933 77.7828,-3.2882 49.0854,-8.838 151.4602,-21.7258 145.0713,-11.3885 -1.6372,2.6492 -102.8457,26.6673 -128.039,36.6309 -42.4276,16.7796 -94.2774,44.4387 -134.3682,71.677 -32.2244,21.8938 -33.3533,11.9617 -3.004,-26.4332 18.1933,-23.0163 27.1026,-29.2214 52.5839,-36.6292 16.8735,-4.9052 30.6787,-9.6734 30.6787,-10.5952 0,-0.9218 -31.7584,-1.0846 -70.5734,-0.3627 -85.779,1.5956 -117.4308,10.4461 -218.5355,61.1097 -38.7829,19.4342 -73.2234,35.3355 -76.5344,35.3355 -12.9509,0 -1.1772,-19.7721 22.4911,-37.7677 30.7994,-23.4174 34.0103,-34.5022 35.1018,-121.1959 l 0.8526,-67.6321 -38.7458,2.7565 c -21.3101,1.5163 -53.6919,5.1569 -71.9578,8.0898 -61.3148,9.8451 -140.5101,3.9715 -161.0261,-11.9412 -9.222,-7.1527 -13.6558,0.8682 -7.1745,12.9786 3.1707,5.9244 9.2295,9.4414 13.465,7.8161 11.9424,-4.5826 16.2705,7.6568 14.4432,40.8432 -1.0735,19.4988 1.3676,36.2928 6.7891,46.7154 5.738,11.0303 7.4103,23.959 5.194,40.1301 -2.5891,18.8882 -1.5553,23.8563 4.9602,23.8563 11.7908,0 76.2301,50.6255 94.6861,74.3882 13.1127,16.8829 16.2903,25.8111 12.4643,25.7829 z m -85.299,-280.0829 c 2.7469,-0.018 4.6593,-0.5621 5.7308,-1.6336 2.8182,-2.8182 -3.1824,-16.8644 -14.199,-33.2346 -33.1746,-49.2973 -46.8451,-112.9869 -35.7714,-166.6472 7.5365,-36.521 -3.2959,-42.3101 -17.8028,-9.5143 -6.3651,14.389 -12.0247,32.8905 -12.5777,41.1134 -0.5527,8.2246 -4.1189,18.2419 -7.9242,22.2645 -6.5932,6.97 -10.2532,43.8469 -8.2014,82.6315 0.5552,10.496 -1.4363,23.2618 -4.3117,29.8609 50.0021,23.3965 81.9998,35.2447 95.0574,35.1594 z m 140.9881,-9.9972 c 19.5805,-0.01 48.5504,-2.7572 63.8139,-7.1501 12.9709,-3.733 17.2898,-68.2314 5.2444,-78.3163 -4.5451,-3.8054 -16.5064,-6.9182 -26.5796,-6.9182 -15.1718,0 -18.3908,2.1371 -18.7584,12.4538 -0.7402,20.7729 -18.4703,67.7592 -25.8473,68.4969 -3.8055,0.3805 -9.4095,1.0039 -12.4539,1.3844 -3.0443,0.3805 -5.5356,3.4721 -5.5356,6.8711 0,2.2024 8.3682,3.1837 20.1165,3.1784 z m -72.4913,-1.5988 c 11.8568,-0.1688 23.1245,-4.8264 33.151,-13.8626 6.8118,-6.1389 15.801,-8.9132 22.8834,-7.0611 9.7762,2.5565 13.2313,-1.0523 21.3422,-22.2907 6.2284,-16.3091 8.6171,-33.248 6.702,-47.5261 l -2.9744,-22.186 28.5324,0.077 c 15.6928,0.041 34.4293,1.6537 41.6365,3.5829 12.9152,3.4568 13.0482,4.2132 9.2702,52.5072 l -3.8322,49.0011 32.2425,0.1412 c 17.7334,0.078 70.2331,-6.7569 117.1563,-9.6014 l 80.0214,-4.8504 -14.3961,-154.2719 c -1.4313,-15.3374 38.9529,-16.9585 65.4929,-17.3147 143.121,-2.5408 149.7829,-10.7281 140.425,-50.4987 -7.8622,-33.4137 -7.4262,-34.2645 -28.0477,-37.7486 -30.4745,-5.1485 -54.1358,4.935 -84.9259,36.1951 -29.2777,29.7246 -38.1456,10.3831 -37.623,-1.3111 49.8318,-45.8258 74.1248,-54.2582 163.7304,-68.5684 13.485,-4.071 41.7571,-55.2299 45.9412,-83.1318 8.6805,-57.8857 -46.9437,-114.932 -134.2356,-137.6685 -37.738,-9.8298 -88.2057,-9.6926 -191.2724,0.5213 -81.9196,8.1181 -70.0878,4.0281 -195.5265,67.5972 -24.5421,12.4354 -66.3957,28.0714 -93.0159,34.748 -77.53,19.4452 -98.1091,41.437 -82.0055,87.6318 4.7497,13.6246 3.1885,17.0146 -14.9313,32.4413 -11.1291,9.4749 -28.9093,23.0596 -39.5129,30.1887 -24.7367,16.6311 -27.3757,32.3919 -6.9915,41.7551 9.5501,4.3868 16.0019,4.9636 17.1456,1.5326 1.0085,-3.0256 9.8733,-14.5361 19.6998,-25.5789 14.3497,-16.1259 22.9034,-20.645 43.4585,-22.962 24.7139,-2.7856 26.5242,-1.9541 52.7112,24.233 14.915,14.915 28.4266,32.1237 30.0266,38.2418 3.8498,14.7214 -4.0121,35.0089 -15.2364,39.316 -9.0871,3.4871 -21.6779,-9.2051 -14.5042,-14.621 11.3528,-8.5713 5.747,-27.4463 -13.0536,-43.9536 -16.8503,-14.7947 -23.8531,-17.3903 -43.1168,-15.9862 -21.0744,1.5361 -24.04,3.7412 -35.4523,26.3722 -10.3774,20.5792 -12.4538,33.7038 -12.4538,78.7173 0,45.8785 2.1289,58.8342 14.1206,85.9493 16.5485,37.4195 31.9243,55.5879 55.581,65.6759 7.3974,3.1545 14.7234,4.6693 21.8373,4.568 z m 420.236,-25.8474 129.5123,-13.2994 -12.6072,-128.6005 -129.2509,3.9839 z m 178.3025,-21.9541 c 4.4828,0.02 9.8315,-2.1018 15.756,-6.4736 7.3016,-5.3881 9.1156,-9.9325 5.4292,-13.6063 -3.0443,-3.0339 -12.5824,-7.2575 -21.194,-9.3853 -14.6958,-3.6311 -15.5445,-2.8917 -13.8364,12.0162 1.31,11.4332 6.3739,17.4156 13.8452,17.449 z m 52.8297,-4.2385 82.4345,-8.7541 -6.1441,-22.1425 c -0.7142,-5.5381 -69.0397,10.9651 -80.1139,13.1652 z m -19.9631,-43.8664 c 1.2351,0.01 2.4812,0.01 3.7381,0 22.7928,-0.159 48.9964,-3.1388 71.0076,-8.7786 56.6518,-14.5155 76.3888,-30.993 76.6826,-64.0108 0.195,-21.9109 -13.8628,-39.0066 -40.3149,-49.029 -8.5701,-3.2471 -21.0228,-5.7037 -27.6747,-5.4642 -32.2088,1.179 -84.8447,17.5278 -114.6246,35.618 -29.3138,17.8073 -33.0715,22.096 -33.0045,37.6823 0.1223,28.4297 5.4816,40.7307 20.786,47.7039 8.9766,4.09 24.8805,6.1521 43.4044,6.2784 z m -731.515,-221.3112 c 3.7865,0.024 9.0932,-2.4449 15.8797,-7.4273 8.4062,-6.1715 8.6444,-9.6038 2.2108,-31.7806 -4.566,-15.7394 -8.7709,-22.3405 -11.46,-17.9895 -7.5712,14.4072 -10.419,23.5723 -12.8165,36.38 -2.2408,13.8079 -0.1306,20.7765 6.186,20.8174 z m 349.7286,-237.0114 38.371,-3.6248 c 21.1047,-1.9931 52.6327,-5.06 70.0608,-6.8154 l 31.6863,-3.1906 -9.5456,-12.8722 c -5.2509,-7.0799 -22.1226,-20.543 -37.4922,-29.9168 -15.3695,-9.3736 -30.9056,-17.0427 -34.5248,-17.0427 -3.6193,0 -12.746,9.3402 -20.2804,20.7564 -7.5344,11.4163 -19.2281,27.946 -25.9869,36.7321 z m -45.4373,-544.0924 c 4.8565,-0.1396 8.7105,-4.84 8.7105,-13.6935 0,-11.0702 -2.7661,-13.8364 -13.8364,-13.8364 -15.4849,0 -16.29,1.683 -8.1091,16.9695 3.8843,7.2576 8.9499,10.6836 13.235,10.5604 z m -304.7307,-32.1659 c 37.7299,0.188 131.8994,-5.9879 136.122,-10.0356 5.8913,-5.6473 -10.5309,-21.588 -27.1516,-26.3547 -12.3581,-3.5443 -23.8844,-2.9655 -37.2637,1.8725 -17.525,6.3371 -20.3893,5.9106 -30.0737,-4.4843 -10.5877,-11.3646 -10.5824,-11.6123 0.4777,-22.6725 12.3488,-12.3488 19.8332,-14.0385 25.0192,-5.6471 1.8817,3.0442 14.4827,5.5355 28.0024,5.5355 l 24.5816,0 0,-22.1406 0,-22.1407 -29.0606,0.7288 c -40.2705,1.008 -104.0632,8.7703 -108.4493,13.1965 -5.4273,5.477 -3.2302,85.6209 2.4915,90.8904 0.8965,0.8255 6.5976,1.2085 15.3045,1.2518 z m 264.4174,-10.1837 c 14.4295,0 25.8823,-0.2961 30.874,-0.8788 l 18.1498,-2.1183 0,-40.9078 c 0,-35.671 -1.2385,-40.7704 -9.6851,-39.8477 -5.3276,0.582 -41.2484,2.4499 -79.8227,4.1513 -38.5744,1.7012 -71.7303,4.6988 -73.6803,6.6619 -1.9501,1.9634 -1.8548,18.5109 0.2109,36.7722 l 3.7556,33.2014 61.4601,2.1044 c 16.9013,0.5778 34.3083,0.8643 48.7377,0.8614 z"
       id="path4308"
       inkscape:connector-curvature="0"
       sodipodi:nodetypes="cccsccssssscssscsccscsssscssccccscccccssccscsccssscssssssssccsssssssssssssssssscccscsccsccccsssscccccsscccssscsccsscccscccccsscssssssssscccsscssccssccsssssccscssscsssssscssscccsccsscscsssccssscssssscssscccssssssscscccsccssscccccccssscssscccsccccscccsssscssscsscsscscsccccscscccssscscccc" /><path
       style="opacity:1;fill:#000000;fill-opacity:1;fill-rule:nonzero;stroke:#000000;stroke-width:0.89267212;stroke-miterlimit:4;stroke-dasharray:none;stroke-opacity:1"
       d="m 1978.7081,2637.971 c -21.3326,8.5627 -114.291,12.9818 -133.3463,6.3391 -17.0033,-5.9275 -23.8452,-0.437 -10.3441,8.3011 3.8053,2.4628 40.2331,8.2984 80.9505,12.9678 69.7005,7.9931 75.3212,7.9124 96.0746,-1.3791 15.9783,-7.1537 21.1182,-12.2791 18.6814,-18.629 -1.8488,-4.818 -3.3614,-9.8017 -3.3614,-11.0748 0,-4.2428 -35.7966,-1.6861 -48.6547,3.4749 z"
       id="path4310"
       inkscape:connector-curvature="0" /><path
       style="opacity:1;fill:#000000;fill-opacity:1;fill-rule:nonzero;stroke:#000000;stroke-width:0.89267212;stroke-miterlimit:4;stroke-dasharray:none;stroke-opacity:1"
       d="m 2224.7837,2596.2444 c -33.8032,12.77 -144.8783,21.3575 -121.4857,57.9624 60.531,-4.7558 111.635,-29.1333 149.8484,-48.1276 7.5153,-3.4242 12.35,-8.3524 10.7437,-10.9515 -4.128,-6.6791 -32.1098,-5.8801 -39.1064,1.1167 z"
       id="path4312"
       inkscape:connector-curvature="0"
       sodipodi:nodetypes="cccsc" /><path
       style="opacity:1;fill:#000000;fill-opacity:1;fill-rule:nonzero;stroke:#000000;stroke-width:0.89267212;stroke-miterlimit:4;stroke-dasharray:none;stroke-opacity:1"
       d="m 2373.3071,2632.9176 c -49.5592,11.549 -63.8305,16.64 -60.7267,21.6624 1.7938,2.9021 -1.8071,5.2768 -8.0018,5.2768 -15.0441,0 -43.4828,17.7871 -40.8607,25.5566 3.0789,9.1229 -26.0952,13.2393 -52.2239,7.3686 -30.1096,-6.7651 -75.7979,2.1046 -100.9317,19.5946 -54.5212,37.9396 -99.8049,89.3522 -99.8049,113.3129 0,14.4874 17.2127,2.9039 41.3632,-27.8358 55.9678,-71.238 90.8356,-92.8546 138.2956,-85.7376 13.8272,2.0735 25.1402,5.7723 25.1402,8.2195 0,2.4473 -5.1638,11.0143 -11.4753,19.0379 -6.3113,8.0237 -10.6702,18.4426 -9.6864,23.1534 1.3508,6.4672 6.6924,3.9276 21.8106,-10.3691 46.4658,-43.9414 127.9506,-90.4139 168.2062,-95.9315 34.2579,-4.6956 32.79,3.893 -9.2427,54.0783 -18.7642,22.4035 -39.7091,53.2209 -46.5444,68.4831 -33.068,73.8366 -112.4751,249.5483 19.1784,16.5942 14.2609,-25.2338 38.9526,-67.4096 57.7495,-92.1916 18.7969,-24.7821 36.5225,-48.1977 39.3902,-52.0346 3.4011,-4.5505 2.6843,-10.0247 -2.0615,-15.743 -8.0748,-9.7295 -34.4679,-10.6761 -69.5739,-2.4951 z"
       id="path4314"
       inkscape:connector-curvature="0"
       sodipodi:nodetypes="scssssssssscsssssssss" /><path
       style="opacity:1;fill:#000000;fill-opacity:1;fill-rule:nonzero;stroke:#000000;stroke-width:1;stroke-miterlimit:4;stroke-dasharray:none;stroke-opacity:1"
       d=""
       id="path4316"
       inkscape:connector-curvature="0"
       transform="matrix(0.8,0,0,-0.8,0,3264)" /><path
       style="opacity:1;fill:#000000;fill-opacity:1;fill-rule:nonzero;stroke:#000000;stroke-width:0.89267212;stroke-miterlimit:4;stroke-dasharray:none;stroke-opacity:1"
       d="m 1867.7139,2906.4657 c -59.029,23.813 -133.712,76.7149 -133.712,94.7152 0,11.2599 3.7615,9.4413 37.7353,-18.2433 34.7817,-28.3433 108.9615,-67.5269 115.4859,-61.0026 2.2895,2.2896 -0.298,16.7226 -5.7501,32.0733 -10.9302,30.7749 -7.9214,41.5131 6.5067,23.2224 12.7801,-16.2014 52.2484,-35.0833 73.3334,-35.0833 14.4631,0 16.7213,1.6431 13.3107,9.6863 -20.3363,47.96 -23.6733,67.8052 -11.4013,67.8052 4.8009,0 9.2543,-8.5125 11.5441,-22.0666 2.0505,-12.1366 9.8644,-31.1088 17.3642,-42.1604 12.883,-18.9842 13.1182,-20.6659 4.2599,-30.4543 -7.4978,-8.285 -13.9279,-9.6451 -32.0991,-6.7894 -12.4977,1.9641 -28.4051,7.2548 -35.3499,11.7574 -17.4044,11.2837 -21.4898,4.5554 -10.8201,-17.8193 12.7105,-26.6542 4.0769,-27.6203 -50.4077,-5.6406 z"
       id="path4318"
       inkscape:connector-curvature="0" /><path
       style="opacity:1;fill:#000000;fill-opacity:1;fill-rule:nonzero;stroke:#000000;stroke-width:0.89267212;stroke-miterlimit:4;stroke-dasharray:none;stroke-opacity:1"
       d="m 2323.4911,2877.4682 c -9.1329,6.9794 -36.5317,24.9342 -60.8863,39.8997 -58.3401,35.8493 -85.8145,61.8613 -105.5429,99.925 -8.9262,17.2221 -18.5046,35.5775 -21.2851,40.7896 -7.993,14.9823 -60.8275,36.9771 -138.8572,57.8059 -95.4776,25.4861 -162.7634,53.6952 -151.3359,65.1227 4.9021,4.902 225.7885,-61.5388 262.6883,-78.2534 35.3846,-16.0283 52.4119,-34.9656 79.6148,-88.5462 21.4943,-42.3362 74.1532,-89.6575 128.7875,-115.7333 26.5816,-12.6869 48.3301,-25.487 48.3301,-28.4447 0,-9.8464 -24.6847,-5.4255 -41.5133,7.4347 z"
       id="path4320"
       inkscape:connector-curvature="0"
       sodipodi:nodetypes="sssssssssss" /><path
       style="opacity:1;fill:#000000;fill-opacity:1;fill-rule:nonzero;stroke:#000000;stroke-width:0.89267212;stroke-miterlimit:4;stroke-dasharray:none;stroke-opacity:1"
       d="m 1744.6866,3151.7612 c 9.3921,17.5492 89.5233,45.0627 130.4606,44.7942 20.6667,-0.1354 21.4253,-0.6861 11.3961,-8.2718 -5.9095,-4.4696 -17.1288,-8.1265 -24.932,-8.1265 -12.3491,0 -47.0885,-11.1438 -101.6779,-32.6167 -20.7043,-8.1441 -21.7146,-7.8643 -15.2468,4.2208 z"
       id="path4322"
       inkscape:connector-curvature="0" /><path
       style="opacity:1;fill:#000000;fill-opacity:1;fill-rule:nonzero;stroke:#000000;stroke-width:1;stroke-miterlimit:4;stroke-dasharray:none;stroke-opacity:1"
       d=""
       id="path4324"
       inkscape:connector-curvature="0"
       transform="matrix(0.8,0,0,-0.8,0,3264)" /><path
       style="opacity:1;fill:#000000;fill-opacity:1;fill-rule:nonzero;stroke:#000000;stroke-width:0.89267212;stroke-miterlimit:4;stroke-dasharray:none;stroke-opacity:1"
       d="m 1429.2814,2996.9574 c 10.1211,18.9114 59.2517,50.2474 131.4558,83.8436 38.9758,18.1353 80.0466,37.9291 91.2684,43.9861 11.2219,6.0571 24.0419,9.6166 28.4891,7.91 9.8269,-3.7709 33.5265,20.1631 48.5592,49.0392 13.0385,25.0454 20.2872,23.2222 17.0748,-4.2946 -1.2837,-10.996 10.0303,-26.4862 8.3993,-24.8553 -1.6309,1.6309 -19.4011,7.5667 -22.7464,3.6229 -18.2395,-21.5015 -77.4024,-66.5232 -79.4289,-60.4436 -3.0566,9.1695 -25.8073,3.2336 -49.668,-12.9587 -10.2238,-6.938 -31.5623,-16.8582 -47.4191,-22.0448 -33.1958,-10.8582 -65.8454,-26.5219 -76.6851,-36.79 -12.04,-11.405 -47.9669,-37.544 -51.6027,-37.544 -1.8323,0 -0.7958,4.7381 2.3036,10.5292 z"
       id="path4326"
       inkscape:connector-curvature="0"
       sodipodi:nodetypes="ssssssccssssss" /><path
       style="opacity:1;fill:#000000;fill-opacity:1;fill-rule:nonzero;stroke:#000000;stroke-width:0.89267212;stroke-miterlimit:4;stroke-dasharray:none;stroke-opacity:1"
       d="m 1358.5663,2825.7017 c -0.9744,0.9921 16.623,65.3054 18.7793,73.555 4.8232,18.47 28.3151,81.6555 32.1205,86.3935 1.5281,1.9027 6.0507,3.4403 10.0503,3.417 4.0541,-0.023 5.9111,-0.9421 4.1966,-2.0757 -1.6914,-1.1183 -3.9132,-7.7225 -4.9374,-14.676 -2.2505,-15.2806 -14.0837,-40.9853 -28.9356,-62.8558 -6.0267,-8.8746 -26.0646,-96.2873 -11.9126,-22.473 -0.5253,-3.4854 -18.3866,-62.2772 -19.3611,-61.285 z"
       id="path4328"
       inkscape:connector-curvature="0"
       sodipodi:nodetypes="ccccscscc" /><path
       style="opacity:1;fill:#000000;fill-opacity:1;fill-rule:nonzero;stroke:#000000;stroke-width:0.89267212;stroke-miterlimit:4;stroke-dasharray:none;stroke-opacity:1"
       d="m 1402.9473,2422.2848 c -1.9024,3.5172 -3.9989,16.4418 -4.6591,28.7212 -1.0618,19.7506 -0.3691,24.0829 6.0034,37.5533 10.0772,21.3014 28.2944,45.9494 37.4666,50.6925 6.7777,3.5049 8.4612,3.4841 13.6768,-0.169 7.2031,-5.0453 7.6501,-13.138 1.1046,-19.9993 -7.3025,-7.6547 -12.1467,-16.9698 -10.3429,-19.8885 0.8838,-1.43 13.9418,-8.936 29.0178,-16.6799 42.5619,-21.8626 47.5331,-27.2605 35.4624,-38.5059 -8.8911,-8.2836 -13.5584,-7.0637 -27.2694,7.1271 -15.2065,15.7387 -25.6794,20.4405 -45.5286,20.4405 -14.2268,0 -15.5968,-0.5701 -18.2873,-7.6107 -1.5995,-4.1859 -2.5028,-16.3286 -2.0071,-26.9837 0.8433,-18.1309 0.5139,-19.428 -5.1386,-20.2327 -4.0256,-0.5731 -7.1931,1.2727 -9.4986,5.5351 z"
       id="path4332"
       inkscape:connector-curvature="0" /><path
       style="opacity:1;fill:#000000;fill-opacity:1;fill-rule:nonzero;stroke:#000000;stroke-width:0.89267212;stroke-miterlimit:4;stroke-dasharray:none;stroke-opacity:1"
       d="m 1458.0303,1542.1933 c -1.9741,1.1169 -6.0216,5.5691 -8.9945,9.8936 -5.0499,7.3462 -5.393,8.4746 -5.2193,17.166 0.2341,11.7062 3.0983,17.9808 12.3745,27.1089 13.0726,12.864 26.6017,16.3496 40.1672,10.3491 3.6706,-1.6238 7.751,-3.9271 9.0677,-5.1186 3.4528,-3.1248 6.8751,-19.3497 5.3582,-25.4033 -3.3078,-13.2015 -4.3195,-14.9883 -12.172,-21.4996 -14.4431,-11.9761 -31.9647,-17.3714 -40.5818,-12.4961 z m 21.9499,27.8347 c 6.518,2.7234 11.4045,7.2824 10.4557,9.755 -0.4044,1.0537 -3.0719,2.6158 -5.928,3.4716 -4.258,1.2756 -6.0384,1.1492 -9.8892,-0.7024 -6.0655,-2.9165 -11.4306,-10.3117 -9.3234,-12.8508 2.0207,-2.4348 8.4166,-2.2926 14.6849,0.3266 z"
       id="path4334"
       inkscape:connector-curvature="0" /><path
       style="opacity:1;fill:#000000;fill-opacity:1;fill-rule:nonzero;stroke:#000000;stroke-width:0.89267212;stroke-miterlimit:4;stroke-dasharray:none;stroke-opacity:1"
       d="m 1544.6463,1728.8824 c -9.2851,4.3084 -11.3963,7.7998 -12.4636,20.6124 -0.9168,11.0063 -0.7276,12.3651 2.8235,20.2778 3.2025,7.1363 5.1057,9.349 12.001,13.9536 8.2292,5.4952 15.6647,7.9022 20.142,6.5198 10.1746,-3.141 21.6723,-7.9595 22.6416,-9.4886 0.6433,-1.0148 1.1793,-6.113 1.1909,-11.3292 0.019,-8.2698 -0.6301,-10.7234 -5.0654,-19.1638 -5.5136,-10.4923 -10.7961,-16.5483 -17.4251,-19.9762 -5.8807,-3.0411 -18.6926,-3.7963 -23.8449,-1.4058 z m 21.9517,28.0781 c 4.5883,4.5883 4.8459,8.8176 0.5347,8.7755 -5.5667,-0.055 -14.8756,-5.1164 -14.8756,-8.0893 0,-5.4255 9.1633,-5.8639 14.3409,-0.6862 z"
       id="path4336"
       inkscape:connector-curvature="0" /><path
       style="opacity:1;fill:#000000;fill-opacity:1;fill-rule:nonzero;stroke:#000000;stroke-width:0.89267212;stroke-miterlimit:4;stroke-dasharray:none;stroke-opacity:1"
       d="m 1617.4707,1891.7961 c -5.397,2.1604 -13.9444,9.5836 -16.3163,14.1704 -1.7333,3.3521 -2.0457,6.7474 -1.4272,15.5122 0.932,13.2084 2.4083,16.9217 9.9038,24.9127 7.2833,7.7646 26.3382,20.0361 31.0195,19.9766 5.5235,-0.07 9.8669,-4.6298 12.121,-12.7249 2.8125,-10.1003 2.4623,-19.2278 -1.1479,-29.9158 -2.6181,-7.7508 -4.4699,-10.4181 -12.4747,-17.9695 -5.1702,-4.8773 -9.4003,-9.6264 -9.4003,-10.5537 0,-0.9273 -1.586,-2.4085 -3.5246,-3.2918 -4.0839,-1.8608 -4.3848,-1.8648 -8.7533,-0.1162 z m 12.7562,33.3193 c 5.7814,3.9498 7.7948,6.555 6.8895,8.9145 -1.1432,2.979 -6.1746,2.3153 -11.8898,-1.5682 -5.6316,-3.8267 -6.5056,-6.6422 -2.7429,-8.8338 3.1721,-1.8475 2.7403,-1.9305 7.7432,1.4875 z"
       id="path4338"
       inkscape:connector-curvature="0" /><path
       style="opacity:1;fill:#000000;fill-opacity:1;fill-rule:nonzero;stroke:#000000;stroke-width:3.21361947;stroke-miterlimit:4;stroke-dasharray:none;stroke-opacity:1"
       d="m 2142.8813,2648.9442 c -4.8435,1.1041 -8.9552,2.1199 -9.1372,2.2574 -0.1819,0.1375 1.2874,7.4397 3.2651,16.2272 1.9776,8.7874 4.15,18.7345 4.8274,22.1046 0.6774,3.3701 1.4098,6.2614 1.6274,6.4251 0.2176,0.1637 4.909,-0.7805 10.4252,-2.0982 l 10.0294,-2.3959 0,-7.5062 c 0,-5.9202 -0.6916,-9.5628 -3.2729,-17.2387 -1.8001,-5.3529 -3.8254,-12.0441 -4.5008,-14.8695 -1.4114,-5.9048 -0.7463,-5.7591 -13.2636,-2.9058 z"
       id="path4437"
       inkscape:connector-curvature="0" /><path
       style="opacity:1;fill:#000000;fill-opacity:1;fill-rule:nonzero;stroke:#000000;stroke-width:5.26676559;stroke-miterlimit:4;stroke-dasharray:none;stroke-opacity:1"
       d="m 2118.9086,2588.9401 c 0,2.3989 6.0938,29.9794 6.7785,30.679 0.4266,0.436 5.4648,-0.6648 11.196,-2.4462 8.2542,-2.5656 10.2831,-3.544 9.7594,-4.7066 -0.5177,-1.1494 -4.4601,-13.0274 -7.7133,-23.2389 -0.4741,-1.488 -20.0206,-1.7685 -20.0206,-0.2873 z"
       id="path4439"
       inkscape:connector-curvature="0" /><path
       style="display:inline;opacity:1;fill:#000000;fill-rule:evenodd;stroke:#000000;stroke-width:1.34035265px;stroke-linecap:butt;stroke-linejoin:miter;stroke-opacity:1;filter:url(#filter4226)"
       d="m 2120.9392,915.08543 c 0,0 -39.6374,-2.70104 -40.566,26.81402 -1.0739,34.13252 63.5771,33.76115 66.9467,16.7544 8.7867,-44.34492 -26.3807,-43.56842 -26.3807,-43.56842 z"
       id="path4234"
       inkscape:connector-curvature="0"
       sodipodi:nodetypes="cssc"
       transform="matrix(0.89267211,0,0,-0.89267211,60.366258,3346.4834)" /></g><g
     inkscape:groupmode="layer"
     id="layer2"
     inkscape:label="Arme2"
     style="display:inline;opacity:1;filter:url(#filter4226)"><g
       inkscape:groupmode="layer"
       id="layer3"
       inkscape:label="Hände"
       style="display:inline"><path
         style="display:inline;opacity:1;fill:#000000;fill-opacity:1;fill-rule:nonzero;stroke:none;stroke-width:5.9000001;stroke-miterlimit:4;stroke-dasharray:none;stroke-opacity:1"
         d="m 1018.5006,2946.6486 c -10.4705,-1.5203 -22.0885,-4.4666 -25.8177,-6.547 -20.13081,29.6176 -44.327,18.8978 -59.25644,18.5181 -9.53238,-0.2512 -15.50246,1.1358 -19.8753,6.4696 -11.30423,13.7886 -22.34815,14.6106 -50.26181,3.7408 -44.12983,-17.1844 -60.11351,-43.637 -77.42324,-128.1327 -12.63451,-61.6749 -13.03091,-147.073 -10.95309,-185.4771 0.98498,-18.2049 27.91704,-31.8315 18.8622,44.8029 -0.26264,29.9208 -2.58171,40.6861 -0.99192,50.5343 1.03971,5.8627 3.49906,23.7958 5.4701,39.8506 5.63693,46.0329 24.42208,114.9503 35.46164,130.0969 10.00953,13.7345 42.37518,29.364 52.29592,25.255 8.09394,-3.3526 7.99386,-5.2911 -0.97074,-18.7678 -20.13048,-30.2619 -23.23814,-37.6612 -16.91712,-40.2794 3.45359,-1.4304 13.16729,5.625 22.34614,16.2311 9.95226,11.5 22.28641,20.1535 31.86515,22.3568 44.14017,22.7533 28.15702,-14.7551 24.17079,-21.8111 -1.81867,-3.1664 -2.78582,-8.1982 -0.606,-12.3308 3.1662,-6.003 8.70152,-5.2845 25.90039,6.0954 67.43363,44.6173 88.39813,23.2463 78.52773,-11.5107 -5.4416,-19.1631 1.181,-21.219 23.014,-7.1442 23.2519,14.9893 37.5186,10.8982 48.4866,-13.9037 14.4795,-32.7424 2.9444,-86.821 -26.0488,-122.1238 -12.6383,-15.3892 -16.385,-14.1291 -16.3848,5.5089 -2e-4,8.435 -2.7073,16.4574 -6.0159,17.8278 -15.2623,6.3219 -19.6578,-50.2982 -5.8549,-75.4203 7.9616,-14.4906 24.399,-21.6804 31.7797,-13.901 3.6177,3.8127 3.162,10.234 -1.2589,17.7475 l -6.9275,11.7734 16.6652,16.7481 c 22.4625,22.5893 25.5529,28.3377 41.8919,34.4541 30.958,18.8174 -11.2497,-99.7594 -17.3619,-112.6572 -32.5782,-68.3326 -16.2121,-66.9171 5.7016,-27.6809 23.9925,42.9575 43.628,98.9669 42.3487,133.8728 -1.005,27.4137 -11.5968,45.9365 -23.6488,41.3556 -12.972,-4.93 -16.4708,3.8789 -13.0132,32.7595 2.8792,24.0527 1.0627,36.669 -8.6593,60.1397 -12.84,30.9986 -26.9696,33.198 -46.1062,31.5405 -9.5772,-0.8299 -13.9535,1.7679 -21.4726,11.7719 -12.4837,16.6086 -25.8569,21.5899 -48.9568,18.2356 z"
         id="path4757"
         inkscape:connector-curvature="0"
         sodipodi:nodetypes="cccssssccsssssscccssssssssssccccssssssssc" /><g
         style="display:inline;opacity:1;filter:url(#filter4226)"
         id="g4862"
         transform="matrix(1.0309019,-0.42701354,0.42701354,1.0309019,-505.11445,209.75789)"><path
           sodipodi:nodetypes="sscsssssscsss"
           inkscape:connector-curvature="0"
           id="path4858"
           d="m 490.72279,2672.2586 c -3.58631,-4.2201 -9.92442,-19.8878 -14.87098,-32.8282 l -9.72057,-25.4293 9.71601,-7.5935 c 18.6538,-14.5787 -6.94695,-28.8451 -25.55294,-11.897 -2.33414,2.1262 -4.64141,5.0394 -5.93968,5.429 -4.64682,1.3946 -3.23304,-8.9441 -5.19638,-19.409 -1.58497,-8.4482 -4.10667,-26.6087 -2.58959,-32.6532 2.67349,-10.652 8.84513,-11.5971 44.95644,-12.3601 l 38.90973,-0.8221 -0.41075,58.0188 c -0.34249,48.3754 -11.28697,88.0395 -17.40402,88.0395 -1.75144,0 -8.31095,-4.2749 -11.89727,-8.4949 z"
           style="opacity:1;fill:#ffe6d5;fill-opacity:1;fill-rule:nonzero;stroke:none;stroke-width:5.9000001;stroke-miterlimit:4;stroke-dasharray:none;stroke-opacity:1" /><path
           sodipodi:nodetypes="ssscssscscsssssscssccsccsssccsssss"
           inkscape:connector-curvature="0"
           id="path4860"
           d="m 338.85431,2770.6192 c -7.96206,-4.1823 -22.99473,-19.4995 -32.56065,-33.1771 -8.59258,-12.2858 -17.66425,-22.3346 -20.16284,-22.3346 -0.94289,0 -3.04412,0.9723 -4.6694,2.1608 -2.33939,1.7106 -3.17141,4.9431 -3.99348,15.5155 -1.71178,22.0145 -6.69892,23.6158 -23.40005,7.5137 -12.10095,-11.667 -16.24529,-17.9551 -22.03674,-33.4358 -5.17912,-13.844 -9.56731,-19.9685 -13.86792,-19.3554 -4.75794,0.6784 -5.04427,9.7888 -1.02043,32.4678 1.79976,10.1438 2.84917,19.1278 2.33203,19.9646 -1.85129,2.9954 -9.68765,1.4771 -15.26913,-2.9585 -7.13341,-5.669 -17.2462,-17.7047 -21.63429,-25.7481 -2.97156,-5.4469 -3.36688,-8.4618 -3.25214,-24.8024 0.21849,-31.1158 6.02387,-66.2578 19.07806,-115.4863 6.79376,-25.6199 9.26209,-32.1491 23.14817,-61.231 8.54894,-17.9043 16.81609,-36.5201 18.37145,-41.3686 l 2.82794,-8.8153 8.91913,10.778 c 16.0557,19.4019 65.56408,48.7957 91.85287,57.8436 14.06763,4.8418 32.87456,5.4783 38.95618,8.2637 30.09799,7.9854 24.62013,-0.3592 60.81143,7.548 12.68331,10.6717 11.08947,38.6481 4.75001,49.3257 -9.70407,16.3447 -15.76683,28.4456 -19.71213,36.1335 -3.41222,10.8119 -4.98346,19.7608 -2.00509,27.1212 0.48274,2.5482 5.63961,2.4396 10.7741,-2.9112 2.02826,-2.1137 8.96876,-23.1664 13.68426,-19.7934 2.94523,2.1067 8.81517,12.5601 10.17327,21.3658 0.97319,6.3099 3.0108,17.0938 3.12865,21.0482 0.0421,32.0802 -7.19183,68.1892 -34.20147,87.0089 -5.44858,3.609 -10.39573,3.002 -15.21117,3.002 -7.94591,0 -12.65912,-3.5664 -24.76607,-18.7403 -12.35934,-15.4901 -17.71676,-15.7255 -20.05935,-0.8812 -1.87065,11.8538 -4.42062,18.396 -8.92657,22.9019 -5.48475,5.4847 -12.97066,5.85 -22.05863,1.0763 z"
           style="opacity:1;fill:#ffe6d5;fill-opacity:1;fill-rule:nonzero;stroke:none;stroke-width:5.9000001;stroke-miterlimit:4;stroke-dasharray:none;stroke-opacity:1" /></g></g><path
       style="opacity:1;fill:#ff0000;fill-opacity:1;fill-rule:nonzero;stroke:none;stroke-width:5.9000001;stroke-miterlimit:4;stroke-dasharray:none;stroke-opacity:1"
       d=""
       id="path4289"
       inkscape:connector-curvature="0" /><path
       style="opacity:1;fill:#000000;fill-opacity:1;fill-rule:nonzero;stroke:none;stroke-width:5.9000001;stroke-miterlimit:4;stroke-dasharray:none;stroke-opacity:1"
       d="m 1147.7045,3961.9687 c -24.8863,-2.6346 -50.5418,-7.1816 -57.0124,-10.1046 -20.2137,-9.1313 -34.4689,-38.6586 -38.4287,-79.5987 -2.3829,-24.6372 10.9225,-44.8713 2.6565,-53.9872 47.7604,-7.6819 172.0165,0.225 228.528,0.3417 158.0578,0.053 218.1319,-8.0121 258.9651,-34.767 20.1934,-13.2311 44.6884,-13.4946 39.6738,-0.4266 -4.9707,12.9534 1.3561,16.1757 62.4326,31.7964 28.5965,7.3138 64.2907,19.5713 79.3206,27.2389 37.2217,18.9891 71.2566,58.9977 71.2566,83.7633 0,39.1315 2.4133,38.8249 -312.5748,39.7155 -159.2631,0.4502 -309.931,-1.3369 -334.8173,-3.9717 z"
       id="path4407"
       inkscape:connector-curvature="0"
       sodipodi:nodetypes="sssccsssssss" /><path
       style="opacity:1;fill:#000000;fill-opacity:1;fill-rule:nonzero;stroke:none;stroke-width:5.9000001;stroke-miterlimit:4;stroke-dasharray:none;stroke-opacity:1"
       d="m 1136.7184,3561.7392 c 4.1906,32.5313 12.3529,94.4705 25.7132,132.4184 19.4051,55.1184 21.3755,57.7671 81.3111,109.4806 81.2501,70.1018 145.9583,119.8322 207.9314,159.7968 27.9405,18.0182 77.638,43.6189 110.4367,56.8897 68.4743,27.7054 93.3037,26.5276 125.127,-5.9268 60.9492,-110.1703 -78.2529,-216.1365 -149.4957,-279.9849 -5.0774,-4.6899 -11.3277,5.3071 -16.1029,0.3087 -8.4565,-1.7548 -30.4841,11.2051 -38.7758,9.3303 -70.7829,-1.6322 -101.0634,-1.2187 -202.7167,-48.803 -31.6607,-14.8203 -68.7722,-41.5524 -88.0519,-51.5682 -35.9591,-2.8255 -24.7626,-72.0035 -55.3764,-81.9416 z"
       id="path4409"
       inkscape:connector-curvature="0"
       sodipodi:nodetypes="csscsccccscc" /><path
       style="display:inline;opacity:1;fill:#000000;fill-opacity:1;fill-rule:nonzero;stroke:none;stroke-width:5.9000001;stroke-miterlimit:4;stroke-dasharray:none;stroke-opacity:1"
       d="m 1669.442,1181.546 c -25.481,0.1184 -116.7739,24.7102 -232.6789,49.5022 -225.7002,48.2772 -261.0012,64.8069 -346.6971,162.3417 -12.9349,14.7219 -69.6788,111.2122 -93.8374,159.5651 -40.13057,80.3204 -93.17239,201.1099 -106.62591,242.8151 -7.79548,24.1659 -21.67605,79.7773 -30.8447,123.5815 -9.16857,43.8039 -19.61548,86.6957 -23.21688,95.315 -3.60143,8.6195 -8.82864,34.0236 -11.61608,56.4546 -2.78738,22.431 -5.88572,42.1063 -6.88464,43.7226 -7.00112,11.328 -22.28213,143.5757 -27.79575,240.5572 -1.51855,26.7095 -4.79354,80.3206 -7.27912,119.1378 -6.78484,105.9591 -28.14455,168.7198 -4.16478,185.9203 11.38465,8.1659 77.80439,12.5727 99.33157,15.8332 7.63134,1.1559 35.72945,2.3115 62.4391,2.5694 61.98949,-3.0581 98.55709,-5.9732 175.87989,-62.6025 20.799,-22.4515 16.1495,-15.7902 26.3639,-75.3912 5.6675,-33.0692 6.0728,-83.2535 12.1827,-113.7787 6.1099,-30.5255 10.0079,-72.1511 13.9262,-92.5013 3.9185,-20.3503 13.5048,-64.9316 21.3034,-99.0701 13.3571,-58.471 15.3237,-63.2998 33.8893,-83.2521 47.0225,-50.5351 137.62,-185.8565 175.3177,-261.865 36.6571,-73.9109 74.7764,-171.2488 70.9605,-181.1932 -6.3181,-16.4649 -18.0174,-1.2237 -37.7055,49.1143 -60.2231,153.9789 -164.2453,318.6361 -259.0383,410.0342 -42.4702,40.9495 -50.8587,54.9905 -36.2081,60.6128 4.691,1.7998 11.9632,-2.7337 20.6256,-12.8626 16.9816,-19.8561 16.9968,-15.1784 0.183,53.7303 -7.448,30.5253 -15.7821,71.8955 -18.5203,91.9326 -6.5783,47.4107 -18.1711,96.9914 -20.1134,146.831 -12.9371,83.7678 -3.5244,65.2297 -26.7911,88.9664 -26.8746,27.4176 -79.2591,53.0898 -143.20891,57.0256 -66.02317,4.0632 -146.15473,-3.6487 -153.80505,-23.5852 -3.0371,-7.9143 9.24861,-172.3755 12.23283,-177.5428 1.03243,-1.7873 3.23801,-32.3882 4.90142,-68.0008 4.70628,-100.7593 11.52169,-170.2952 23.34546,-238.1905 5.98038,-34.3408 12.16073,-71.4018 13.73443,-82.3586 1.57377,-10.9568 7.91765,-37.3673 14.0962,-58.6884 6.17864,-21.3209 14.42554,-55.0227 18.32637,-74.8921 24.29396,-123.7464 28.72235,-136.8788 94.85295,-281.2527 48.3007,-105.4481 117.9346,-227.8459 150.6755,-264.8442 27.945,-31.5791 70.8697,-61.9542 108.5961,-76.8513 62.9809,-24.8692 416.3381,-105.0156 451.5926,-102.2759 18.1867,1.4135 4.5733,-16.2477 -11.9756,-23.7879 -1.1818,-0.5385 -3.1132,-0.7881 -5.7492,-0.7758 z m 685.1367,367.9417 c -6.8275,0.1378 -26.4135,10.1284 -35.4093,30.3278 -35.8156,80.4195 -81.4568,261.799 -93.4048,345.4553 -16.4354,115.0743 -19.4856,142.3669 -22.0946,197.7216 -2.6318,55.8361 -3.66,61.2819 -11.5702,61.2819 -14.0852,0 -14.3962,10.78 -1.4929,51.6119 6.7047,21.2171 19.2697,71.8752 27.9243,112.5757 25.0082,117.6075 29.0342,134.2463 46.1396,190.6713 8.8893,29.3238 16.1644,62.7417 16.1644,74.26 0,18.285 -2.263,23.0934 -17.8272,37.8994 -19.758,18.7953 -44.9724,31.7891 -99.6629,51.3614 -32.3349,11.5718 -102.8326,26.0782 -106.7719,21.9702 -0.8085,-0.8428 3.391,-17.1429 9.332,-36.2212 35.7335,-114.7521 49.8872,-199.6924 54.764,-253.3536 5.5095,-60.6261 -5.9298,-67.6759 -19.6831,-67.6759 -8.0375,0 4.6314,11.1855 1.779,51.6217 -1.7504,24.8017 -6.8741,61.7449 -11.3873,82.0949 -19.8843,89.6609 -67.655,246.0538 -99.5953,326.065 -18.7864,47.0598 -42.8002,110.5393 -53.3664,141.0645 -42.2992,122.2006 -97.5642,244.1728 -170.5143,376.341 -15.9644,28.9237 -35.9012,68.4688 -44.3045,87.8768 -8.403,19.4083 -26.0967,58.1795 -39.3203,86.1616 -13.2236,27.9814 -27.7822,60.2415 -32.3506,71.6883 -7.9686,19.9671 -36.6363,69.1438 -103.5182,177.569 -54.6915,88.662 -113.722,137.3058 -177.0568,145.9005 -37.7224,5.1191 -116.7649,-2.7688 -179.7157,-17.9342 -30.5249,-7.3536 -61.9719,-14.6901 -69.8816,-16.3016 -27.3858,-5.5794 -51.0048,-41.0562 -43.7815,-65.7627 7.3885,-25.2709 42.5594,-95.2325 62.5568,-124.438 11.1317,-16.2575 21.1947,-32.182 22.3626,-35.3886 1.4104,-3.8731 7.3686,-0.9455 17.7466,8.7219 44.0116,40.9983 185.1246,92.455 291.5177,106.3011 41.5418,5.4064 88.2676,-25.9676 116.4004,-78.1589 50.7251,-94.1035 79.9812,-155.1564 123.516,-257.759 13.4917,-31.7973 26.0837,-59.8954 27.9833,-62.4392 3.3142,-4.4383 6.6666,-12.5223 37.3914,-90.1869 29.1966,-73.8006 31.5915,-83.8769 34.6151,-145.689 2.4437,-49.9517 1.1916,-71.0818 -7.3902,-124.8761 -11.5324,-72.2916 -30.3597,-136.4731 -54.2709,-185.0028 -26.0427,-52.8568 -39.473,-71.6685 -51.1673,-71.6796 -12.9283,-0.011 -12.9081,0.8368 0.5252,22.1162 55.4898,87.9017 88.0522,215.3793 87.7764,343.6374 -0.1123,52.2631 -1.7789,70.4831 -7.4054,80.9377 -3.9936,7.4207 -20.8069,47.8333 -37.3632,89.8055 -79.9055,202.5682 -161.7901,379.6173 -193.1907,417.7121 -16.2786,19.7486 -47.4325,35.5413 -70.1084,35.5413 -47.7684,0 -176.4851,-40.1311 -254.4376,-79.3293 -14.7018,-7.3929 -36.4695,-29.5907 -46.8675,-40.3054 -18.7012,-19.2701 -12.7208,-22.2299 -9.9685,-48.5629 2.8571,-27.3349 18.726,-76.3786 42.8617,-125.4907 46.2522,-94.1145 144.0683,-275.1919 148.6553,-275.1919 1.8182,0 7.7225,3.0939 13.122,6.8759 15.5582,10.8974 31.7922,15.7666 38.5814,11.5704 9.116,-5.6339 -1.151,-16.4843 -28.905,-30.5484 -67.6996,-34.3059 -171.3722,-125.2909 -220.7228,-193.7115 -17.2884,-23.9693 -33.944,-49.1472 -49.5066,-74.6785 -6.4631,-0.7074 -15.3921,-3.3938 -22.6699,-4.8056 -3.7366,-0.1331 -6.2713,-0.074 -7.946,-0.05 60.5764,102.7925 139.5456,193.2396 219.8706,248.1589 24.0478,16.4417 34.5495,26.2513 31.808,29.7115 -2.2511,2.8411 -17.5804,30.1396 -34.0636,60.665 -143.0819,264.9738 -176.878,334.9844 -160.1427,375.0379 6.5367,15.6443 7.7323,27.0935 0.8325,40.4404 -4.1659,8.0586 -13.3396,21.9371 -20.3837,30.8404 -18.5044,23.388 -65.0957,118.96 -67.7916,139.0594 -3.1455,23.4511 5.0427,45.4503 24.2956,65.2723 13.1177,13.505 23.4599,18.5594 54.3123,26.5404 20.9597,5.4223 53.856,14.1494 73.1028,19.3943 19.2464,5.245 50.4657,11.1238 69.376,13.0631 18.9101,1.9394 55.1948,3.2973 80.6325,3.0185 43.0257,-0.4721 48.5075,-1.6305 78.6253,-16.6155 39.917,-19.8605 99.7694,-75.7312 122.1649,-114.0381 8.6839,-14.8534 28.693,-47.8198 44.4658,-73.2575 44.528,-71.8135 58.9205,-97.9557 82.7553,-150.3137 65.6812,-144.2822 98.9379,-212.3509 134.7093,-275.7237 39.9218,-70.7257 101.7277,-215.2585 157.0065,-367.1571 9.72,-26.7094 28.5204,-74.6101 41.7765,-106.445 13.2565,-31.8346 25.5507,-64.4749 27.3207,-72.5341 2.08,-9.4694 5.9753,-14.608 11.0123,-14.5277 19.2546,0.31 91.232,-14.924 124.1852,-26.2833 41.5728,-14.3306 65.055,-25.6233 92.824,-44.6444 23.7093,-16.2404 29.6786,-26.4573 34.0919,-58.3463 2.8934,-20.9045 0.7664,-33.4493 -14.6127,-86.24 -9.8985,-33.9778 -25.3519,-94.7742 -34.3404,-135.1017 -8.9884,-40.3272 -20.6352,-92.541 -25.8823,-116.0321 -5.247,-23.4912 -8.4861,-44.4175 -7.1985,-46.5013 1.2879,-2.0837 3.4085,-33.8531 4.7119,-70.6009 7.3074,-206.0438 48.6301,-397.806 128.23,-595.0501 5.6467,-13.9918 4.3912,-20.5097 -0.1395,-20.9634 -0.2069,-0.021 -0.4204,-0.028 -0.6407,-0.024 z"
       id="path5421"
       inkscape:connector-curvature="0"
       sodipodi:nodetypes="cssssssssssssccssssssssscssccssccssssssssccccsssssssssscssscsssscscsssssscssssssssscssssssscsssscsscccscsssssccsscsssssscccsscssscssccc" /><path
       style="opacity:1;fill:#d35f5f;fill-opacity:1;fill-rule:nonzero;stroke:none;stroke-width:5.9000001;stroke-miterlimit:4;stroke-dasharray:none;stroke-opacity:1"
       d="m 1552.0745,3748.7691 c -1.6407,-2.6548 5.7517,-16.4988 16.4276,-30.7645 34.3238,-45.8648 153.0897,-297.2382 210.3828,-445.2845 28.3455,-73.2453 33.4746,-105.7439 30.0852,-190.6229 -3.0509,-76.4037 -16.0541,-142.1431 -42.4611,-214.6682 -23.5629,-64.7136 -60.8109,-123.1781 -71.6022,-112.3868 -1.534,1.5341 7.1698,21.51 19.3417,44.3911 47.6064,89.4905 72.4218,196.3467 72.9817,314.2617 l 0.3392,71.3735 -49.5924,120.5968 c -105.2776,256.0087 -159.4744,369.3585 -193.345,404.3696 -41.2743,42.6644 -76.908,43.0304 -199.6447,2.0506 -84.5045,-28.2147 -127.2123,-49.3786 -156.6524,-77.6296 l -24.1295,-23.1548 2.6863,-28.5294 c 4.2863,-45.5241 21.67,-90.7028 75.373,-195.8882 49.7604,-97.4631 107.33,-202.996 114.9704,-210.7563 2.1763,-2.2104 11.4515,0.5501 20.6116,6.1345 17.5833,10.7197 33.8828,13.3643 33.8828,5.4978 0,-5.3504 -5.3415,-9.2743 -66.4512,-48.8157 -78.7001,-50.9233 -146.959,-117.0333 -199.3286,-193.0537 l -24.2379,-35.184 10.6918,-20.3329 c 8.1248,-15.451 10.736,-29.1428 10.8758,-57.0267 0.1754,-34.9862 0.7548,-36.8286 12.4504,-39.5911 35.2938,-8.3364 31.3854,-76.5676 -9.0607,-158.1755 -12.228,-24.6722 -17.4446,-40.7428 -15.1974,-46.8178 1.8821,-5.0876 5.9671,-30.2679 9.0778,-55.9562 13.0091,-107.4273 27.4936,-207.5699 30.7954,-212.9123 2.6401,-4.2718 53.8242,-1.0451 201.9481,12.7309 266.5227,24.7875 275.5608,25.9817 284.5522,37.5997 12.6442,16.3376 34.2915,20.7075 116.5165,23.5205 76.9942,2.634 80.216,2.3494 98.4463,-8.6989 16.4173,-9.9493 24.5589,-11.3059 63.1481,-10.5216 77.0039,1.5649 160.0309,8.7549 165.6183,14.3424 6.9154,6.9153 -1.9555,85.7864 -15.9037,141.4025 -24.142,96.2612 -63.9704,218.6111 -120.2282,369.3313 -78.6625,210.745 -93.7509,245.6868 -172.1554,398.6814 -36.0721,70.3891 -84.7952,170.0659 -108.2737,221.5042 -35.6042,78.0035 -120.8561,233.81 -127.9331,233.81 -1.1125,0 -3.3651,-2.1721 -5.0058,-4.8269 z"
       id="path5469"
       inkscape:connector-curvature="0" /><path
       style="opacity:1;fill:#502d16;fill-opacity:1;fill-rule:nonzero;stroke:none;stroke-width:5.9000001;stroke-miterlimit:4;stroke-dasharray:none;stroke-opacity:1"
       d="m 1544.632,2327.4225 c -94.6795,-8.1405 -365.5214,-35.3834 -367.059,-36.921 -2.3657,-2.3657 20.1342,-96.5575 23.9849,-100.4081 1.5227,-1.5227 79.891,7.4368 174.1518,19.91 94.261,12.4731 196.8564,25.5537 227.99,29.0677 l 56.6067,6.3893 -1.0498,26.7957 c -0.5773,14.7376 -2.339,33.9947 -3.9148,42.7933 l -2.865,15.9975 -42.8471,-0.8599 c -23.566,-0.473 -52.815,-1.7171 -64.9977,-2.7645 z"
       id="path5471"
       inkscape:connector-curvature="0" /><path
       style="opacity:1;fill:#d35f5f;fill-opacity:1;fill-rule:nonzero;stroke:none;stroke-width:5.9000001;stroke-miterlimit:4;stroke-dasharray:none;stroke-opacity:1"
       d="m 1079.7264,3806.5108 c 5.0936,-16.702 55.0209,-112.7021 65.9025,-126.7175 9.1253,-11.7531 9.6637,-11.8575 12.6964,-2.4611 16.8423,52.1841 29.3827,72.6149 64.9695,105.8491 l 36.8402,34.4048 -91.8931,0 -91.8932,0 3.3777,-11.0753 z"
       id="path5473"
       inkscape:connector-curvature="0" /><path
       style="opacity:1;fill:#fff6d5;fill-opacity:1;fill-rule:nonzero;stroke:none;stroke-width:5.9000001;stroke-miterlimit:4;stroke-dasharray:none;stroke-opacity:1"
       d="m 863.94714,2654.7858 c -23.26256,-2.8994 -46.28534,-8.4541 -57.91658,-13.9735 -11.54368,-5.4777 -11.69529,-5.8495 -11.68132,-28.6473 0.0176,-28.768 5.7926,-111.3193 10.3814,-148.3991 1.89526,-15.3147 5.84443,-67.0016 8.77594,-114.8599 8.04082,-131.2709 25.08932,-249.3131 50.52066,-349.8006 7.50943,-29.6721 18.4847,-77.4433 24.3895,-106.1584 17.91532,-87.122 41.78513,-150.2612 107.89906,-285.4093 57.4473,-117.4319 108.8876,-202.2296 142.8173,-235.4298 37.217,-36.4169 77.482,-59.9335 127.4937,-74.4625 102.5537,-29.7932 325.4916,-79.7988 389.6286,-87.3949 l 16.9317,-2.0052 0.6065,14.3041 c 2.2189,52.335 1.8805,54.676 -21.187,146.567 -12.7347,50.7298 -30.1079,114.9469 -38.607,142.7047 -8.4991,27.7578 -27.3844,90.4086 -41.9672,139.2241 -61.7779,206.7985 -99.653,302.9865 -159.0329,403.8814 -19.8113,33.6624 -45.1858,83.8609 -55.7939,110.3776 -4.9708,12.4254 -7.454,14.7842 -15.5176,14.7405 -11.6053,-0.062 -123.2041,-16.6754 -125.1598,-18.6311 -0.7601,-0.7601 4.9775,-8.7301 12.7505,-17.7109 34.3067,-39.6385 88.9965,-117.6172 130.397,-185.9248 36.869,-60.8311 80.3874,-154.6473 101.5942,-219.015 7.4667,-22.6632 8.5742,-29.6646 5.2209,-33.0069 -6.5475,-6.5262 -15.0953,7.0754 -35.4966,56.484 -39.5126,95.6931 -79.2558,170.6844 -133.8326,252.5281 -41.4219,62.1166 -69.3758,96.8608 -122.7702,152.5927 -31.073,32.4334 -42.543,46.6985 -41.7672,51.9455 1.7182,11.6194 8.3164,10.8151 23.4517,-2.8588 17.9375,-16.2054 17.9859,-15.081 2.2839,53.0585 -11.2189,48.685 -30.7866,159.6249 -34.8777,197.7404 -1.0273,9.5717 -4.4372,38.5477 -7.5774,64.3913 l -5.7096,46.988 -19.9269,19.6329 c -22.1863,21.859 -57.1363,40.3671 -94.0582,49.8093 -22.25857,5.6923 -106.25942,9.9588 -132.26286,6.7179 z"
       id="path5475"
       inkscape:connector-curvature="0" /><path
       style="opacity:1;fill:#fff6d5;fill-opacity:1;fill-rule:nonzero;stroke:none;stroke-width:5.9000001;stroke-miterlimit:4;stroke-dasharray:none;stroke-opacity:1"
       d="m 2056.9516,2724.549 c -1.1013,-1.1012 -0.7549,-6.1916 0.7697,-11.3119 33.1609,-111.3711 48.5811,-176.1635 57.5476,-241.8051 4.9444,-36.1964 5.1443,-55.6959 1.6867,-164.5552 -2.1573,-67.9212 -5.2536,-131.6725 -6.8805,-141.6694 -2.7995,-17.2016 -2.3235,-19.1096 8.8758,-35.5794 10.5796,-15.5586 19.3616,-33.9771 58.0841,-121.8211 5.9071,-13.4003 22.1626,-54.1233 36.1237,-90.4956 13.9609,-36.3723 25.4379,-64.5652 25.5043,-62.6509 0.067,1.9144 -2.1242,15.2277 -4.8681,29.5852 -9.1731,47.998 -22.5807,150.8702 -26.3109,201.8749 -7.0496,96.39 -6.6566,93.9756 -15.9868,98.2267 -11.255,5.1281 -10.8515,12.1817 3.7161,64.9634 6.6649,24.1481 20.6841,83.1925 31.1538,131.2098 10.4697,48.0172 26.2478,113.0174 35.0624,144.445 8.8146,31.4275 16.9345,68.3021 18.0443,81.9435 l 2.0179,24.8025 -14.4811,15.7102 c -25.1688,27.3049 -84.572,53.7184 -157.6941,70.1184 -41.8468,9.3854 -49.0274,10.3466 -52.3649,7.009 z"
       id="path5477"
       inkscape:connector-curvature="0" /><path
       style="opacity:1;fill:#000000;fill-opacity:1;fill-rule:nonzero;stroke:none;stroke-width:5.9000001;stroke-miterlimit:4;stroke-dasharray:none;stroke-opacity:1"
       d="m 2273.4602,2661.0387 c -1.161,0.1066 -2.1436,1.3821 -3.389,3.4108 -6.786,11.0534 -3.7432,21.1398 17.7794,58.9216 33.4922,58.7931 40.8883,89.8119 33.9612,142.4288 -4.8641,36.9479 -14.298,46.4746 -38.2589,38.6315 -15.7203,-5.1461 -20.8043,-14.7109 -21.4451,-40.3576 -0.4869,-19.4804 -14.5624,-75.232 -19.1458,-75.8358 -5.7062,-0.7513 -13.1822,3.2953 -13.7257,7.4316 -0.3544,2.6912 3.4904,16.7447 8.5432,31.2305 l 9.186,26.3377 -7.9656,50.093 c -8.6558,54.4353 -13.6404,66.349 -26.2811,62.814 -9.2417,-2.5844 -23.0416,-33.5721 -29.2123,-65.597 -5.418,-28.1185 -5.3269,-28.0021 -93.2576,-121.4065 -4.9045,-5.2101 -10.0002,-8.6418 -11.3219,-7.6278 -4.6555,3.5725 5.235,21.944 31.3394,58.2155 l 26.3814,36.6549 -17.3915,5.7274 c -9.5641,3.1507 -22.1221,9.8739 -27.9069,14.9417 -9.1925,8.0532 -13.2631,9.0242 -32.3245,7.7085 -19.6149,-1.3536 -23.2946,-0.3922 -36.5873,9.5587 l -14.7805,11.0648 -14.5452,-41.4845 c -1.0311,-2.9407 -1.8939,-5.4941 -2.7743,-8.0855 -0.8013,2.5709 -1.5474,5.1604 -2.3364,7.7347 -2.7455,8.9582 -3.6754,12.268 -6.0542,20.4904 -1.4273,3.4598 -2.8119,6.9387 -4.2825,10.3804 -0.052,0.1217 -0.1108,0.2404 -0.1634,0.3618 4.867,20.5641 10.6163,41.2716 16.9097,59.9917 14.7156,43.7723 24.1569,61.4212 39.4576,73.7566 11.697,9.4301 25.3425,11.6659 39.6603,6.4989 11.048,-3.9873 30.955,-21.7548 31.8319,-28.4103 0.9055,-6.8821 7.8438,-7.2297 14.9157,-0.7477 10.207,9.356 24.0188,9.8563 37.3283,1.3513 12.1663,-7.7743 23.3495,-28.5113 20.8936,-38.745 -2.504,-10.4357 4.3521,-5.285 10.6812,8.0245 6.194,13.0254 18.1297,20.7294 28.3254,18.2828 7.723,-1.8533 29.6042,-28.9495 36.1885,-44.8145 6.3915,-15.401 10.1647,-17.8848 24.4918,-16.1186 15.7438,1.9409 47.0139,-12.3537 55.4019,-25.3266 6.082,-9.4065 7.3704,-16.5275 8.7502,-48.3843 2.8153,-65.033 -6.4601,-112.8748 -28.4103,-146.5456 -6.299,-9.6626 -17.7797,-28.496 -25.5118,-41.8505 -8.984,-15.5168 -12.4007,-20.9405 -14.9549,-20.7063 z m -145.0026,231.7417 c 1.2043,-0.011 2.4469,0.067 3.7289,0.2355 17.13,2.2551 25.5915,9.1175 29.3345,23.7944 5.2692,20.6602 3.3094,57.5681 -3.5764,67.3622 -3.9578,5.6291 -9.092,7.9139 -17.1604,7.6344 -15.7836,-0.5458 -30.7174,-21.2506 -34.8678,-48.3429 -4.6711,-30.4921 4.4771,-50.5237 22.5412,-50.6836 z m -75.6396,19.3268 c 23.9889,-0.2768 38.7146,30.5378 33.5015,73.6563 -2.583,21.3628 -4.6291,27.6226 -10.7248,32.8171 -11.9672,10.1973 -24.7648,6.2562 -36.9208,-11.3676 -13.1235,-19.0269 -23.9243,-49.0185 -22.2318,-61.7396 1.8203,-13.6833 15.0914,-28.6294 28.6457,-32.2613 2.668,-0.7149 5.2487,-1.0763 7.7302,-1.1049 z"
       id="path4214"
       inkscape:connector-curvature="0" /><path
       style="opacity:1;fill:#ffe6d5;fill-opacity:1;fill-rule:nonzero;stroke:none;stroke-width:5.9000001;stroke-miterlimit:4;stroke-dasharray:none;stroke-opacity:1"
       d="m 2204.8737,2956.2894 c -7.1552,-10.8124 -14.7278,-31.8038 -20.1974,-55.9882 -4.4793,-19.8057 -7.19,-25.7351 -18.0025,-39.3786 -16.4049,-20.7 -82.0195,-89.8322 -85.2615,-89.8322 -4.785,0 -4.226,8.4288 1.2715,19.172 2.57,5.0223 15.2613,24.0456 28.2028,42.2742 l 23.53,33.1427 -14.9702,5.4207 c -8.2337,2.9813 -20.7291,9.3868 -27.7676,14.2344 -12.3567,8.5104 -13.5601,8.8138 -34.9496,8.8138 -21.3685,0 -22.5812,0.3049 -34.2683,8.6141 -6.6636,4.7377 -12.8577,8.6141 -13.7645,8.6141 -0.9068,0 -3.7511,-6.3076 -6.3209,-14.0169 l -4.6723,-14.0168 20.4589,-51.4202 c 11.2523,-28.2812 22.1954,-57.3938 24.3179,-64.6947 2.1224,-7.301 4.712,-13.8017 5.7546,-14.4461 1.0427,-0.6444 13.6214,-2.9127 27.9528,-5.0407 65.2002,-9.6813 134.3337,-31.7604 175.0799,-55.915 l 14.5114,-8.6025 13.4969,26.09 c 23.6933,45.8005 31.747,62.7057 35.8791,75.3132 12.3219,37.5944 8.3511,100.5218 -7.3328,116.2057 -5.1756,5.1755 -7.5193,5.8556 -15.2112,4.4136 -12.1279,-2.2737 -21.6094,-8.1324 -24.92,-15.3982 -1.4906,-3.2716 -3.7837,-16.1018 -5.0959,-28.5119 -2.6295,-24.8671 -13.2859,-67.7123 -17.9472,-72.1577 -3.6841,-3.5136 -13.5241,-0.1577 -15.6301,5.3305 -0.812,2.1161 2.6326,16.8174 7.6547,32.6695 l 9.1311,28.8221 -7.5988,43.9428 c -11.1609,64.5412 -19.0649,77.9034 -33.3308,56.3463 z"
       id="path4258"
       inkscape:connector-curvature="0" /><path
       style="opacity:1;fill:#ffe6d5;fill-opacity:1;fill-rule:nonzero;stroke:none;stroke-width:5.9000001;stroke-miterlimit:4;stroke-dasharray:none;stroke-opacity:1"
       d="m 2044.7379,3011.4007 c -10.4139,-10.8686 -23.7051,-38.6013 -26.7414,-55.7971 -3.2268,-18.2746 16.247,-41.766 34.623,-41.766 19.5379,0 30.6221,16.9922 32.2688,49.4682 2.6424,52.1178 -15.4872,73.8348 -40.1504,48.0949 z"
       id="path4260"
       inkscape:connector-curvature="0" /><path
       style="opacity:1;fill:#ffe6d5;fill-opacity:1;fill-rule:nonzero;stroke:none;stroke-width:5.9000001;stroke-miterlimit:4;stroke-dasharray:none;stroke-opacity:1"
       d="m 2127.4676,2983.7992 c -10.1739,-8.5609 -16.4145,-21.0825 -19.7932,-39.7141 -3.62,-19.9633 -1.0859,-34.592 7.4752,-43.1531 12.1324,-12.1323 33.9269,-6.6077 43.2006,10.9508 6.5852,12.4683 6.2317,56.8366 -0.5457,68.482 -6.7576,11.6117 -18.9749,12.9948 -30.3369,3.4344 z"
       id="path4262"
       inkscape:connector-curvature="0" /></g><g
     inkscape:groupmode="layer"
     id="layer1"
     inkscape:label="Colorierung"
     style="display:inline;opacity:1"><path
       style="display:inline;opacity:1;fill:#fff6d5;fill-opacity:1;fill-rule:nonzero;stroke:none;stroke-width:5.9000001;stroke-miterlimit:4;stroke-dasharray:none;stroke-opacity:1;filter:url(#filter4682)"
       d="m 1908.6775,1522.0798 c -4.6987,-5.2962 -17.923,-23.0289 -29.3874,-39.4059 l -20.8443,-29.7763 13.6306,0 c 13.5718,0 81.9064,6.5653 118.5468,11.3894 l 19.2432,2.5336 -12.6263,13.4601 c -13.6242,14.5239 -52.1417,40.8296 -69.3807,47.3838 -8.5292,3.2428 -12.3329,2.1354 -19.1819,-5.5847 z"
       id="path5064"
       inkscape:connector-curvature="0"
       transform="matrix(1.1158401,0,0,1.1158401,75.457823,-103.10424)" /><path
       style="display:inline;opacity:1;fill:#fff6d5;fill-opacity:1;fill-rule:nonzero;stroke:none;stroke-width:5.9000001;stroke-miterlimit:4;stroke-dasharray:none;stroke-opacity:1;filter:url(#filter4682)"
       d="m 1462.7833,1230.9806 c -6.3258,-17.4936 -7.0528,-47.1728 -1.1555,-47.1728 2.2909,0 9.049,4.4664 15.0179,9.9254 10.188,9.3176 10.5407,11.121 5.7601,29.4485 -6.3437,24.3201 -12.7305,26.8585 -19.6225,7.7989 z"
       id="path5068"
       inkscape:connector-curvature="0"
       transform="matrix(1.1158401,0,0,1.1158401,75.457823,-103.10424)" /><path
       style="display:inline;opacity:1;fill:#ffe6d5;fill-opacity:0.99215686;fill-rule:nonzero;stroke:none;stroke-width:5.9000001;stroke-miterlimit:4;stroke-dasharray:none;stroke-opacity:1;filter:url(#filter4682)"
       d="m 1925.0612,1428.3592 c -32.754,-3.2333 -68.4856,-8.1102 -79.4036,-10.8377 -10.918,-2.7274 -54.5899,-21.9215 -97.0488,-42.6536 -48.2956,-23.5821 -102.669,-45.9984 -145.2313,-59.874 -95.8776,-31.2569 -106.3605,-42.0765 -95.5245,-98.5934 3.9983,-20.8539 0.09,-25.7944 -49.4465,-62.5031 -28.3145,-20.9824 -36.9508,-35.7938 -27.5061,-47.174 12.5932,-15.1739 21.217,-12.3685 47.3856,15.4149 25.015,26.5588 26.0224,27.1159 53.4879,29.5804 l 27.9927,2.5118 29.8638,-31.0717 c 33.5127,-34.8681 38.5638,-46.9041 29.1446,-69.4475 -5.0264,-12.0299 -9.0036,-15.4767 -17.8584,-15.4767 -12.6186,0 -19.4823,11.0423 -11.7006,18.824 8.69,8.69 5.4794,20.3184 -10.4902,37.9949 -20.5306,22.7249 -36.9369,29.2825 -60.7543,24.2833 -16.926,-3.5526 -19.732,-6.1646 -31.1503,-28.9963 -11.7943,-23.5833 -12.5623,-28.5121 -12.7731,-81.9763 -0.2652,-67.23746 6.6379,-94.74633 33.9465,-135.27672 29.7137,-44.09992 63.682,-55.35144 98.1809,-32.5211 9.7122,6.42722 23.4006,12.34129 30.4187,13.14239 19.2188,2.19378 30.4481,27.73193 30.2206,68.72899 l -0.1775,31.98199 37.937,0 c 55.348,0 55.4921,-0.17944 50.0274,-62.27991 -2.4301,-27.61465 -2.8148,-52.06699 -0.8549,-54.33854 2.1973,-2.54681 45.4409,-0.41268 112.8039,5.56703 60.0822,5.33341 115.692,9.67331 123.5773,9.64422 17.1335,-0.0632 16.5341,-8.23335 7.0487,96.07954 -5.2426,57.65491 -5.9807,82.04961 -2.5852,85.44511 7.584,7.5841 39.5218,12.1182 87.0711,12.3614 53.6102,0.2741 111.0448,6.5027 127.0007,13.7727 15.9625,7.273 17.974,16.5756 10.1021,46.7203 -8.0105,30.6753 -15.1293,36.7144 -43.2785,36.7144 -25.644,0 -45.5628,-9.5503 -77.9057,-37.3527 -25.7359,-22.1229 -41.3522,-25.0512 -43.7514,-8.204 -1.0244,7.193 4.5144,14.0236 22.1972,27.3742 33.8932,25.5896 67.0469,39.371 118.8917,49.4211 51.8159,10.0446 55.8023,13.0988 78.9435,60.4841 25.0127,51.2173 16.2664,94.7721 -27.195,135.4251 -24.7061,23.1097 -81.2848,51.5059 -117.8002,59.1225 -30.5064,6.3633 -128.7631,5.3908 -203.8058,-2.0171 z m -405.4895,-389.0218 c 0.193,-1.8196 1.0333,-13.6735 1.8674,-26.3418 1.9352,-29.39051 3.8474,-32.108 22.5942,-32.108 18.5174,0 30.073,5.46731 48.6105,22.9991 14.6929,13.8959 26.308,14.8325 33.9254,2.7357 6.6104,-10.49768 -1.435,-18.50228 -37.8074,-37.61542 -34.0537,-17.89471 -38.8792,-24.21749 -27.8141,-36.44429 10.088,-11.14713 7.311,-28.48524 -4.8399,-30.21793 -11.6422,-1.66014 -36.7906,27.52913 -50.5844,58.71218 -7.6632,17.32413 -8.9384,26.31388 -6.7297,47.44546 1.4988,14.3393 3.8475,27.8877 5.2194,30.1075 2.995,4.846 15.0619,5.4102 15.5586,0.7275 z"
       id="path5072"
       inkscape:connector-curvature="0"
       transform="matrix(1.1158401,0,0,1.1158401,75.457823,-103.10424)" /><path
       style="display:inline;opacity:1;fill:#ffe6d5;fill-opacity:0.99215686;fill-rule:nonzero;stroke:none;stroke-width:5.9000001;stroke-miterlimit:4;stroke-dasharray:none;stroke-opacity:1;filter:url(#filter4682)"
       d="m 2172.0944,839.63559 c -59.4424,-6.83354 -144.8012,-14.60775 -189.6862,-17.27601 -134.2983,-7.98356 -211.648,-13.7535 -218.2291,-16.27891 -10.1874,-3.90926 -19.6659,-67.06458 -19.7778,-131.779 -0.077,-44.24885 3.4437,-55.68744 13.4195,-43.60499 24.4705,29.63797 198.2139,62.34776 272.3205,51.2684 27.8168,-4.15876 42.4936,-3.36863 105.8714,5.69969 40.4678,5.79028 90.4511,11.79367 111.074,13.34088 27.7521,2.08208 43.5545,5.85596 60.8097,14.52242 l 23.3135,11.7093 -2.6821,17.64523 c -4.8716,32.05009 -5.6345,33.08481 -24.3914,33.08481 -14.5385,0 -17.348,1.46203 -17.348,9.02779 0,5.29841 5.1981,12.01107 12.5831,16.24947 11.7439,6.74007 12.3265,8.36324 8.7369,24.33958 -2.1154,9.41485 -2.6979,18.97585 -1.2944,21.24666 3.6538,5.91202 -13.4787,4.74264 -134.7196,-9.19532 z m 33.152,-48.64594 c 3.828,-12.06082 -3.4318,-19.87308 -26.7394,-28.77433 -17.1388,-6.54537 -25.0711,-6.79948 -69.1306,-2.21456 -74.0317,7.70388 -112.6427,13.99017 -120.2944,19.58523 -5.2053,3.80623 9.7548,5.0824 62.7233,5.35064 48.4655,0.24545 77.5854,2.47499 96.0269,7.35227 38.2563,10.11774 53.903,9.76366 57.4142,-1.29925 z"
       id="path5074"
       inkscape:connector-curvature="0"
       transform="matrix(1.1158401,0,0,1.1158401,75.457823,-103.10424)" /><path
       style="display:inline;opacity:1;fill:#ffe6d5;fill-opacity:0.99215686;fill-rule:nonzero;stroke:none;stroke-width:5.9000001;stroke-miterlimit:4;stroke-dasharray:none;stroke-opacity:1;filter:url(#filter4682)"
       d="m 2076.2893,1012.8893 -45.0751,-1.4281 1.9253,-11.97831 c 1.0589,-6.58808 4.2081,-39.76957 6.9982,-73.73665 2.79,-33.96707 5.6841,-62.82073 6.4312,-64.11924 0.7471,-1.29851 32.7699,0.71334 71.1617,4.47077 l 69.8034,6.83171 -0.4885,13.17446 c -0.2687,7.24595 -2.9977,39.47688 -6.0643,71.62429 l -5.5758,58.44987 -27.0205,-0.9304 c -14.8613,-0.5117 -47.3043,-1.5729 -72.0956,-2.3584 z m 63.9444,-47.69142 c 12.477,-8.73923 12.9702,-29.66869 0.9816,-41.65729 -16.221,-16.221 -55.1264,-8.17822 -60.3081,12.46731 -6.743,26.86661 34.0136,46.91982 59.3265,29.18998 z"
       id="path5076"
       inkscape:connector-curvature="0"
       transform="matrix(1.1158401,0,0,1.1158401,75.457823,-103.10424)" /><path
       style="display:inline;opacity:1;fill:#ffe6d5;fill-opacity:0.99215686;fill-rule:nonzero;stroke:none;stroke-width:5.9000001;stroke-miterlimit:4;stroke-dasharray:none;stroke-opacity:1;filter:url(#filter4682)"
       d="m 2341.9298,1074.9384 c -27.4975,-6.1543 -69.0052,-21.8255 -88.2262,-33.3099 -36.2,-21.6294 -41.9162,-28.6764 -41.8424,-51.58441 0.1333,-41.35251 16.5898,-52.64825 77.1329,-52.94399 62.7637,-0.30659 128.7449,19.35023 150.0863,44.71298 14.593,17.34285 15.2409,49.74682 1.3477,67.40912 -17.9914,22.8724 -61.0154,34.1052 -98.4983,25.7162 z"
       id="path5080"
       inkscape:connector-curvature="0"
       transform="matrix(1.1158401,0,0,1.1158401,75.457823,-103.10424)" /><path
       style="display:inline;opacity:1;fill:#ffe6d5;fill-opacity:0.99215686;fill-rule:nonzero;stroke:none;stroke-width:5.9000001;stroke-miterlimit:4;stroke-dasharray:none;stroke-opacity:1;filter:url(#filter4682)"
       d="m 2229.4414,907.811 c 0,-20.57241 16.3573,-29.69232 31.982,-17.83144 10.6588,8.09115 9.6695,13.6113 -3.516,19.61902 -15.8038,7.20069 -28.466,6.40555 -28.466,-1.78758 z"
       id="path5078"
       inkscape:connector-curvature="0"
       transform="matrix(1.1158401,0,0,1.1158401,75.457823,-103.10424)" /><path
       style="display:inline;opacity:1;fill:#b3b3b3;fill-opacity:1;fill-rule:nonzero;stroke:none;stroke-width:5.9000001;stroke-miterlimit:4;stroke-dasharray:none;stroke-opacity:1;filter:url(#filter4682)"
       d="m 1431.0655,1056.0187 c -4.9121,-9.6285 -11.6422,-29.1276 -14.9557,-43.3313 -3.3135,-14.20369 -8.6612,-30.64317 -11.8839,-36.53215 -3.649,-6.66811 -6.5517,-31.71409 -7.6948,-66.39396 l -1.8354,-55.68672 28.2357,-13.34073 c 37.911,-17.91209 74.8232,-28.65012 80.1555,-23.31781 2.6532,2.65315 -2.4398,15.22816 -13.8539,34.20632 -38.4668,63.959 -47.4538,99.66951 -43.3555,172.27555 3.0534,54.0953 -0.1061,60.9469 -14.812,32.1208 z"
       id="path5082"
       inkscape:connector-curvature="0"
       transform="matrix(1.1158401,0,0,1.1158401,75.457823,-103.10424)" /><path
       style="display:inline;opacity:1;fill:#b3b3b3;fill-opacity:1;fill-rule:nonzero;stroke:none;stroke-width:5.9000001;stroke-miterlimit:4;stroke-dasharray:none;stroke-opacity:1;filter:url(#filter4682)"
       d="m 1685.1084,922.43776 c -0.8058,-3.03277 -3.8223,-15.43958 -6.7032,-27.57067 -7.8575,-33.08686 -18.672,-52.37308 -30.9294,-55.15854 -5.8857,-1.33751 -11.5101,-4.85843 -12.4987,-7.82429 -3.4803,-10.44092 85.5864,-4.32312 96.5407,6.63118 2.3408,2.34075 5.4399,18.37815 6.8869,35.63868 3.5303,42.10945 -3.4098,53.79778 -31.9435,53.79778 -12.1878,0 -20.4549,-2.13489 -21.3528,-5.51414 z"
       id="path5084"
       inkscape:connector-curvature="0"
       transform="matrix(1.1158401,0,0,1.1158401,75.457823,-103.10424)" /><path
       style="display:inline;opacity:1;fill:#b3b3b3;fill-opacity:1;fill-rule:nonzero;stroke:none;stroke-width:5.9000001;stroke-miterlimit:4;stroke-dasharray:none;stroke-opacity:1;filter:url(#filter4682)"
       d="m 1421.971,808.51141 c -3.1939,-3.1939 -1.1823,-11.76745 4.2856,-18.26577 4.96,-5.89461 6.7643,-6.65161 13.0454,-5.47327 6.2643,1.1752 7.8444,0.52043 11.2363,-4.65633 3.3114,-5.05377 4.0157,-11.56985 4.3736,-40.4633 0.3216,-25.95684 1.3366,-36.88414 4.1211,-44.3649 10.0028,-26.87325 10.379,-29.12134 8.9464,-53.46321 l -1.3941,-23.68685 11.6967,-5.17424 c 15.4262,-6.82408 60.0766,-40.60098 82.5029,-62.41146 24.9818,-24.29576 40.8797,-49.36181 31.3073,-49.36181 -1.4603,0 -13.6189,11.29255 -27.0193,25.09454 -29.4588,30.34182 -48.1118,46.09237 -76.0347,64.20351 -27.0739,17.56042 -29.2909,18.37574 -28.5299,10.4919 0.3212,-3.3273 -0.1312,-10.5161 -1.0053,-15.97509 -1.2866,-8.03432 -0.3163,-13.70768 5.0927,-29.77633 3.6752,-10.91799 6.2985,-17.04614 5.8296,-13.61811 -1.5569,11.3814 2.1439,2.88581 9.4407,-21.67236 4.5465,-15.30173 11.2652,-31.31513 18.1922,-43.35937 12.2411,-21.28425 22.6488,-46.65097 24.9646,-60.84623 1.4651,-8.98124 3.6937,-12.11916 9.2024,-12.95715 4.0254,-0.61235 27.4472,-17.07245 48.62,-34.16869 21.4516,-17.32131 45.5279,-30.30783 78.9688,-42.5949 37.9875,-13.95763 43.6161,-16.47346 69.5131,-31.07015 29.2666,-16.49592 46.1325,-21.54499 52.5546,-15.73306 3.8593,3.49263 4.9697,3.11326 20.4104,-6.97309 17.6421,-11.52443 51.3662,-39.07635 63.6318,-51.98598 4.9905,-5.25249 9.5988,-8.00014 13.4178,-8.00014 7.8187,0 8.7023,1.33676 5.8602,8.86622 -1.3297,3.52275 -1.817,7.00559 -1.0829,7.73965 0.734,0.73405 15.0811,-3.83141 31.8823,-10.14548 16.8013,-6.31407 41.9097,-15.31146 55.7966,-19.9942 l 25.2488,-8.51408 5.6303,5.15876 c 18.3028,16.76987 65.6316,34.71131 169.3074,64.18112 61.7177,17.54322 90.0987,27.19766 116.4798,39.62322 27.6715,13.03337 33.8443,19.16366 48.6304,48.29514 30.7179,60.52055 57.4075,88.19807 127.5613,132.28319 9.6925,6.09084 16.7643,12.04812 16.7643,14.12225 0,4.9325 16.4164,45.58988 41.2529,102.16804 22.8897,52.14316 37.7212,76.57281 73.6494,121.31098 41.6723,51.89086 42.9503,61.05575 7.6991,55.21147 -19.6397,-3.25603 -32.6386,-7.96762 -64.1516,-23.25223 -44.528,-21.59725 -88.3123,-50.90727 -122.8634,-82.24701 -21.5197,-19.51951 -26.0182,-21.2296 -26.0182,-9.89057 0,6.16954 3.2415,12.82409 14.1113,28.96941 4.3699,6.49074 7.9452,13.02388 7.9452,14.5181 0,4.38595 -14.9898,8.12197 -37.82,9.4262 -17.6823,1.01014 -23.8473,0.43502 -36.4849,-3.40353 -29.5321,-8.97008 -55.7296,-30.64467 -97.4824,-80.65239 -36.7362,-43.99925 -52.2573,-56.78842 -56.26,-46.35758 -6.2363,16.25173 33.1553,69.19113 79.1168,106.32694 4.8255,3.89895 7.7755,7.08899 6.5554,7.08899 -3.3655,0 -99.3298,-25.88139 -115.6864,-31.20037 -42.2854,-13.75075 -109.3978,-48.26476 -167.1124,-85.94126 -16.4142,-10.71535 -26.9852,-13.71705 -26.9852,-7.66262 0,4.55075 19.8648,33.38624 33.4301,48.52684 15.73,17.55652 26.8974,24.16702 56.3687,33.36714 13.6924,4.27438 24.8952,8.37837 24.8952,9.12003 0,2.56464 -126.5789,-1.25895 -147.7788,-4.46398 -52.7977,-7.98205 -73.9894,-15.9964 -186.7845,-70.63906 -65.1128,-31.54337 -74.6992,-35.20724 -76.9271,-29.40137 -2.3019,5.99876 3.193,13.1034 31.0481,40.14304 31.2953,30.37914 32.6593,33.16062 36.3516,74.1282 2.0562,22.81441 3.0926,136.51178 1.2444,136.51178 -10.1261,0 -89.731,-7.93074 -112.6213,-11.22003 -76.3756,-10.97508 -151.6925,-6.834 -184.9271,10.16762 -12.1176,6.19897 -11.2659,5.94157 -13.2141,3.99327 z m 664.2093,-304.33682 c 0.3713,-2.60451 -1.862,-10.76309 -4.9627,-18.13017 -6.2762,-14.91159 -7.2883,-24.55593 -2.5769,-24.55593 1.6834,0 9.3756,2.93937 17.0938,6.53194 29.1812,13.58297 58.0844,17.23688 68.9209,8.71288 7.9431,-6.24806 12.2783,-15.22106 10.1194,-20.94533 -0.9537,-2.52874 -5.1177,-9.97282 -9.2533,-16.54241 -9.4039,-14.93834 -15.7241,-29.88809 -20.4357,-48.33801 -4.66,-18.24836 -8.7599,-24.74203 -15.0554,-23.84592 -10.3919,1.47917 -6.5709,24.93483 11.2924,69.31991 3.3837,8.40743 3.9049,11.92381 2.0434,13.78534 -4.3301,4.3301 -21.9064,2.67114 -40.584,-3.83058 -23.157,-8.06103 -36.2887,-15.82888 -51.9414,-30.72531 -8.365,-7.9608 -13.7819,-11.54823 -16.0964,-10.66009 -4.2976,1.64915 -3.1716,9.08463 5.8474,38.61221 3.473,11.37046 6.3145,23.16354 6.3145,26.20686 0,5.17801 -0.5638,5.45764 -8.7821,4.35535 -19.558,-2.6233 -85.6496,-39.90907 -123.5571,-69.70521 -35.5081,-27.91009 -39.7018,-29.7687 -39.7018,-17.59539 0,16.24622 58.526,61.64485 117.3288,91.0119 57.792,28.86226 92.2499,38.51848 93.9862,26.33796 z"
       id="path5088"
       inkscape:connector-curvature="0"
       transform="matrix(1.1158401,0,0,1.1158401,75.457823,-103.10424)" /><path
       style="display:inline;opacity:1;fill:#fff6d5;fill-opacity:1;fill-rule:nonzero;stroke:none;stroke-width:5.9000001;stroke-miterlimit:4;stroke-dasharray:none;stroke-opacity:1;filter:url(#filter4682)"
       d="m 1783.8993,2086.1279 c 0,-8.7421 11.7964,-24.4698 18.3533,-24.4698 6.0753,0 8.1145,3.3259 8.1145,13.234 0,11.7635 -1.4704,13.2339 -13.2339,13.2339 -7.2786,0 -13.2339,-0.8991 -13.2339,-1.9981 z"
       id="path5070"
       inkscape:connector-curvature="0"
       transform="matrix(1.1158401,0,0,1.1158401,75.457823,-103.10424)" /><path
       style="opacity:1;fill:#502d16;fill-opacity:1;fill-rule:nonzero;stroke:none;stroke-width:5.9000001;stroke-miterlimit:4;stroke-dasharray:none;stroke-opacity:1"
       d="m 2084.4354,2350.9097 c -1.3537,-0.4704 -29.5955,-2.0717 -62.7596,-3.5583 -61.7535,-2.7683 -116.0052,-6.7208 -123.6731,-9.0104 -3.4022,-1.0159 -4.2845,-3.9658 -4.1997,-14.0413 0.1188,-14.1088 6.062,-70.1987 7.6013,-71.738 2.0228,-2.0228 168.8693,-3.8612 181.8005,-2.0031 l 13.5364,1.9451 -0.1272,45.9082 c -0.1383,49.914 -1.5912,56.1771 -12.1786,52.4978 z"
       id="path5143"
       inkscape:connector-curvature="0" /><path
       style="opacity:1;fill:#fff6d5;fill-opacity:1;fill-rule:nonzero;stroke:none;stroke-width:5.9000001;stroke-miterlimit:4;stroke-dasharray:none;stroke-opacity:1"
       d="m 1523.8477,2209.3461 c -51.4382,-6.7896 -94.4203,-13.1665 -95.5158,-14.1711 -1.0956,-1.0046 35.8626,-78.8257 82.129,-172.936 87.7822,-178.5569 92.5288,-190.4776 172.8247,-434.0324 24.4686,-74.2184 46.7088,-137.1632 49.4228,-139.8771 3.2977,-3.2976 9.7757,5.8559 19.53,27.5964 35.0167,78.0455 98.9432,153.9323 98.9432,117.4548 0,-5.0445 -11.3723,-24.4261 -25.2719,-43.0702 -38.9318,-52.2211 -101.2823,-187.0957 -91.1676,-197.2106 1.9986,-1.9986 16.2787,3.2148 31.7334,11.5853 15.4547,8.3706 50.9372,22.2277 78.8499,30.7935 82.1024,25.1958 178.1372,70.1239 178.1372,83.3382 0,2.2577 -9.36,8.3176 -20.8001,13.4665 -49.2288,22.1565 -153.048,115.4743 -128.0998,115.1424 2.0304,-0.027 26.8982,-15.5495 55.2616,-34.4943 28.3636,-18.945 53.8365,-33.7035 56.6066,-32.797 27.0614,8.856 -26.3161,147.2779 -170.3134,441.6672 -48.3965,98.9425 -87.9938,182.7449 -87.9938,186.2275 0,17.7483 16.1559,-5.577 57.0931,-82.4292 47.6624,-89.4779 139.9469,-280.9243 173.7744,-360.4994 11.0525,-25.9995 28.0174,-76.9456 37.6999,-113.2133 24.0425,-90.0565 24.5098,-91.041 48.7924,-102.7961 25.7006,-12.4414 38.1257,-8.885 61.3431,17.5583 15.4051,17.5453 16.1423,20.0809 13.3774,46.0053 -5.0643,47.4813 -45.6178,182.8361 -76.1578,254.1905 -25.1862,58.8458 -49.6142,113.0651 -98.5398,218.7155 -5.6417,12.1828 -24.7085,48.731 -42.3707,81.2182 -17.6622,32.4873 -32.1473,61.8367 -32.189,65.2208 -0.1751,14.2109 11.3646,3.9929 32.6489,-28.9092 53.968,-83.4259 154.2771,-312.1807 200.7119,-457.7234 24.8064,-77.7519 36.7022,-107.737 42.7416,-107.737 2.1755,0 11.4461,12.7365 20.6012,28.3033 16.898,28.7326 19.1958,29.952 47.7827,25.3584 11.5977,-1.8636 12.2535,-0.7873 11.3971,18.7075 -1.9351,44.0545 -68.4623,205.8221 -161.6847,393.1523 -39.1691,78.7105 -71.2166,145.4785 -71.2166,148.3734 0,2.8949 -3.5037,6.608 -7.7861,8.2513 -13.7516,5.277 -91.8193,3.1953 -149.915,-3.9975 -31.0309,-3.8419 -80.373,-8.5838 -109.6494,-10.5374 -49.7025,-3.3169 -54.1744,-2.8539 -67.4826,6.9852 -17.1346,12.6683 -17.5095,12.6602 -135.248,-2.8806 z m 328.8881,-61.0317 c 24.0204,-12.3713 32.902,-25.0132 32.902,-46.8318 0,-15.8421 -2.3789,-22.3923 -9.521,-26.2146 -28.7091,-15.3647 -69.236,8.0987 -69.236,40.0848 0,31.685 20.1753,46.1875 45.855,32.9616 z m 121.017,-243.5389 c 13.4042,-17.0405 18.8313,-45.8569 9.7497,-51.7674 -38.5358,-25.0802 -84.6396,15.057 -63.2353,55.0515 8.0742,15.0865 40.6066,13.0891 53.4856,-3.2841 z m 70.3379,-202.5461 c 24.2922,-26.0452 30.6834,-53.7514 16.7841,-72.7599 -6.2562,-8.5559 -8.1028,-8.771 -20.1123,-2.3438 -22.8783,12.2441 -36.2258,27.8812 -39.7264,46.5409 -2.7871,14.8573 -1.3909,20.1596 7.9181,30.0687 14.4155,15.3444 19.6287,15.121 35.1365,-1.5059 z"
       id="path5278"
       inkscape:connector-curvature="0" /></g></svg>