<?xml version="1.0" encoding="UTF-8" standalone="no"?>
<!-- Created with Inkscape (http://www.inkscape.org/) -->

<svg
   xmlns:dc="http://purl.org/dc/elements/1.1/"
   xmlns:cc="http://creativecommons.org/ns#"
   xmlns:rdf="http://www.w3.org/1999/02/22-rdf-syntax-ns#"
   xmlns:svg="http://www.w3.org/2000/svg"
   xmlns="http://www.w3.org/2000/svg"
   xmlns:sodipodi="http://sodipodi.sourceforge.net/DTD/sodipodi-0.dtd"
   xmlns:inkscape="http://www.inkscape.org/namespaces/inkscape"
   id="svg4155"
   version="1.1"
   inkscape:version="0.91 r13725"
   xml:space="preserve"
   width="3060"
   height="4080"
   viewBox="0 0 3060 4080"
   sodipodi:docname="SuperTeacher_Phase3_v3.svg"
   enable-background="new"
   inkscape:export-filename="/Users/larsaeschlimann/Desktop/SuperTeacher_Design/PNG/P3"
   inkscape:export-xdpi="350"
   inkscape:export-ydpi="350"><metadata
     id="metadata4161"><rdf:RDF><cc:Work
         rdf:about=""><dc:format>image/svg+xml</dc:format><dc:type
           rdf:resource="http://purl.org/dc/dcmitype/StillImage" /><dc:title /></cc:Work></rdf:RDF></metadata><defs
     id="defs4159"><marker
       inkscape:stockid="Arrow1Lstart"
       orient="auto"
       refY="0.0"
       refX="0.0"
       id="marker4962"
       style="overflow:visible"
       inkscape:isstock="true"><path
         id="path4964"
         d="M 0.0,0.0 L 5.0,-5.0 L -12.5,0.0 L 5.0,5.0 L 0.0,0.0 z "
         style="fill-rule:evenodd;stroke:none;stroke-width:1pt;stroke-opacity:1;fill:#000000;fill-opacity:1"
         transform="scale(0.8) translate(12.5,0)" /></marker><marker
       inkscape:stockid="Arrow1Lstart"
       orient="auto"
       refY="0.0"
       refX="0.0"
       id="Arrow1Lstart"
       style="overflow:visible"
       inkscape:isstock="true"><path
         id="path4692"
         d="M 0.0,0.0 L 5.0,-5.0 L -12.5,0.0 L 5.0,5.0 L 0.0,0.0 z "
         style="fill-rule:evenodd;stroke:none;stroke-width:1pt;stroke-opacity:1;fill:#000000;fill-opacity:1"
         transform="scale(0.8) translate(12.5,0)" /></marker><clipPath
       clipPathUnits="userSpaceOnUse"
       id="clipPath4171"><path
         d="m 0,0 2448,0 0,3264 L 0,3264 0,0 Z"
         id="path4173"
         inkscape:connector-curvature="0" /></clipPath><filter
       inkscape:collect="always"
       style="color-interpolation-filters:sRGB"
       id="filter4226"><feBlend
         inkscape:collect="always"
         mode="lighten"
         in2="BackgroundImage"
         id="feBlend4228" /></filter><filter
       inkscape:collect="always"
       style="color-interpolation-filters:sRGB"
       id="filter4682"><feBlend
         inkscape:collect="always"
         mode="lighten"
         in2="BackgroundImage"
         id="feBlend4684" /></filter></defs><sodipodi:namedview
     pagecolor="#ffffff"
     bordercolor="#666666"
     borderopacity="1"
     objecttolerance="10"
     gridtolerance="10"
     guidetolerance="10"
     inkscape:pageopacity="0"
     inkscape:pageshadow="2"
     inkscape:window-width="1440"
     inkscape:window-height="856"
     id="namedview4157"
     showgrid="false"
     showguides="false"
     inkscape:zoom="0.32058824"
     inkscape:cx="1881.1375"
     inkscape:cy="532.35034"
     inkscape:window-x="-4"
     inkscape:window-y="0"
     inkscape:window-maximized="0"
     inkscape:current-layer="layer1" /><g
     inkscape:groupmode="layer"
     id="layer4"
     inkscape:label="Main"><g
       id="g4163"
       inkscape:groupmode="layer"
       inkscape:label="Hauptkörper"
       transform="matrix(1.25,0,0,-1.25,0,4080)"
       style="display:inline;filter:url(#filter4682);opacity:1"><g
         id="g4165"
         style="fill:#000000;stroke:#000000;stroke-width:0.80000001;stroke-miterlimit:4;stroke-dasharray:none;stroke-opacity:1" /><path
         style="opacity:1;fill:#000000;fill-opacity:1;fill-rule:nonzero;stroke:#000000;stroke-width:0.90949553;stroke-miterlimit:4;stroke-dasharray:none;stroke-opacity:1"
         d="m 1464.6989,2892.1221 0,0 0,0 c -3.4396,-0.025 -12.4354,-7.1558 -24.9383,-22.089 -13.2113,-15.7794 -39.3995,-38.9578 -58.1953,-51.5091 -37.6229,-25.1245 -39.7335,-26.0137 -37.4527,-15.7723 2.6996,12.1226 -13.3099,43.7055 -22.1547,43.7055 -6.1686,0 -7.3604,-3.4065 -4.4391,-12.6885 11.3539,-36.0755 23.1417,-100.461 19.4777,-106.3897 -2.9206,-4.7255 -11.4589,-0.5418 -28.2831,13.8592 -40.7052,34.8421 -55.0481,23.6145 -17.0015,-13.3085 21.1687,-20.5436 33.4759,-49.7552 26.0343,-61.7959 -5.5031,-8.9045 -13.079,-6.8644 -16.6835,4.4924 -3.7748,11.8933 -37.3375,47.6434 -41.1494,43.8316 -3.2161,-3.216 16.5357,-37.1827 21.6219,-37.1827 7.2956,0 17.6141,-33.8211 14.321,-46.9421 -3.2551,-9.8497 4.459,-14.8536 -7.9954,-25.2101 -17.1913,-14.2952 -57.0172,-33.3738 -74.719,-40.6359 l 8.3773,-21.1689 c 9.966,4.1841 22.427,9.9116 37.712,17.3017 4.4886,2.1702 8.8415,4.2541 13.0936,6.2724 -1.4876,-10.1836 -2.5988,-34.4814 -2.5988,-42.0109 0,-17.9209 -9.5924,-27.7464 -14.5288,-14.8824 -1.7435,4.5434 -8.0711,9.5415 -14.0599,11.1076 -18.0132,4.7106 -13.001,-14.1238 8.729,-32.8058 14.986,-12.8838 19.6439,-21.2868 19.7371,-35.5964 0.067,-10.3021 3.7489,-22.3581 8.1819,-26.791 12.8802,-12.8802 28.0104,-70.8592 19.8136,-75.9252 -3.7185,-2.2981 -5.0493,-6.9468 -2.9577,-10.3313 2.0917,-3.3844 1.1686,-11.0766 -2.0517,-17.0939 -6.894,-13.5597 11.7105,-32.7967 21.3465,-37.7938 7.256,-3.6391 10.4243,-7.5403 7.0397,-8.6686 -4.2325,-1.4109 -4.5016,-7.8153 -0.8597,-20.5134 3.7585,-13.1056 2.9364,-27.0116 -2.8351,-47.9315 -4.4715,-16.2085 -20.6822,-80.2243 -36.0228,-142.2579 -52.2786,-160.0467 -94.4825,-348.9717 -174.7847,-475.1528 -44.7429,-80.1695 -35.4811,-72.123 -53.3757,-107.9698 -7.3833,-14.7905 55.9316,4.8895 62.7483,-11.1835 11.1874,26.7689 50.4176,106.6309 79.8965,163.5445 56.3912,108.8718 68.2351,138.9854 121.7267,309.5145 23.8368,75.9913 45.5909,140.4817 48.3435,143.3131 2.9685,3.0534 7.3317,-0.9694 10.7221,-9.8872 20.8946,-54.9567 65.9822,-122.1478 81.9665,-122.1478 11.1524,0 7.3716,18.0037 -7.1055,33.8361 -22.6973,24.8215 -46.318,65.376 -66.219,113.6905 -17.8851,43.4206 -23.4079,61.1482 -14.7811,61.208 4.5188,0.031 12.9196,-4.7854 25.4605,-13.2961 10.7147,-7.2685 35.5716,-16.4779 55.2359,-20.4583 34.2974,-6.9423 125.4102,-46.0565 148.1731,-63.6096 10.3619,-7.9903 9.5407,-9.0174 -16.3353,-20.4636 -32.8949,-14.551 -113.1755,-84.5316 -105.6294,-92.0776 3.187,-3.1871 21.3794,6.9341 46.8532,26.068 45.3601,34.071 55.7422,37.7285 55.7422,19.6395 0,-38.0034 -61.5355,-184.4495 -158.7283,-377.7515 -33.665,-66.9545 -61.2098,-123.4186 -61.2098,-125.4767 0,-2.058 3.7606,-3.741 8.356,-3.741 10.9612,0 172.3671,327.5672 197.9289,401.6897 10.4067,30.176 21.7837,71.3065 25.283,91.4008 5.6834,32.6357 8.4001,37.7364 25.4534,47.7982 15.7052,9.2663 22.1106,10.2124 36.1187,5.3291 16.9478,-13.556 34.0198,-30.2269 32.4737,-42.8476 -2.8185,-22.3979 -26.6876,-114.7051 -41.9382,-162.185 -8.2523,-25.692 -45.0054,-109.554 -86.8568,-198.1866 -8.9968,-19.0535 -16.3566,-36.0935 -16.3566,-37.8666 0,-1.773 -13.958,-27.3995 -31.0171,-56.9483 -17.0594,-29.5489 -31.017,-57.5534 -31.017,-62.233 0,-18.9564 12.4517,-5.8881 41.5935,43.6558 48.5369,82.5186 127.9264,271.6136 159.0871,378.924 10.3062,35.492 21.0778,62.3608 25.0005,62.3608 3.7905,0 11.4174,-11.4194 16.9482,-25.377 10.0812,-25.4404 14.358,-27.7176 37.9324,-20.2025 9.364,2.9849 12.6885,1.801 12.6885,-4.5191 0,-17.177 -16.1957,-70.1064 -29.7025,-97.0691 -7.6193,-15.21 -18.2435,-41.6121 -23.6096,-58.6714 -10.4875,-33.3417 -96.3346,-211.5885 -122.5226,-254.3976 -8.748,-14.3007 -15.9054,-31.4298 -15.9054,-38.0656 0,-11.4195 -2.6738,-12.065 -49.985,-12.065 -27.4917,0 -63.5035,2.5636 -80.0249,5.6968 -16.5215,3.1332 -54.9982,6.9774 -85.5051,8.5425 -46.1421,2.3674 -56.019,1.4096 -58.7458,-5.6968 -2.055,-5.3552 -9.8923,-8.2904 -21.0036,-7.8657 -20.4592,0.7813 -211.5094,26.83 -248.3474,33.534 0.1297,-1.3576 0.2888,-2.903 0.5222,-4.8778 0.8636,-7.3042 0.7278,-12.3938 -0.2043,-15.7208 66.6231,-8.7959 237.0241,-30.2102 248.6334,-29.3685 26.9006,1.9505 27.1803,1.2883 20.3819,-48.3116 l -3.5865,-26.164 -40.1598,0 c -14.8773,0 -202.5574,14.825 -239.2217,18.916 0.2473,-2.142 0.5692,-4.2461 1.2292,-6.4926 1.0825,-3.6848 2.5481,-7.2551 4.2313,-10.7256 8.7324,-0.8956 171.1609,-13.6466 178.1735,-14.1412 66.3957,-4.6827 97.2806,-8.9491 97.2806,-13.4364 0,-14.8243 18.7764,-20.4724 77.394,-23.2827 84.8599,-4.0683 85.7676,-3.993 102.5136,8.3879 14.1866,10.4885 19.4102,10.7783 97.0087,5.3984 l 63.7661,-4.4213 c 12.767,0.1296 22.9167,-1.9821 36.481,-1.1795 -1.848,95.1313 -5.217,178.5715 -7.7041,184.1905 -3.3911,7.662 -1.8587,12.7845 5.4197,18.1065 20.3542,28.8377 23.7912,49.7466 39.8295,81.5934 10.9176,21.6795 34.0217,79.3051 51.3439,128.0577 17.3223,48.7526 36.0193,97.5378 41.5472,108.4112 5.528,10.8734 12.9503,30.5409 16.4953,43.7055 8.8362,33.3157 5.8632,56.9785 18.1366,85.8426 18.952,32.1368 47.9761,44.2006 82.3342,46.7164 64.9338,4.5769 104.4404,21.6258 145.7289,62.8902 41.3511,41.3269 53.3263,75.4114 42.1245,119.8971 -9.7016,38.5294 -26.9811,70.2529 -48.6153,89.2549 -18.5887,16.327 -19.1355,17.9675 -15.6728,46.9634 3.2548,27.2595 4.686,29.7072 15.4383,26.3966 29.9995,-9.2368 93.4476,-19.7709 119,-19.7584 50.6486,0.026 87.3511,35.1837 87.3897,83.7181 0.017,20.2615 -3.1667,27.6401 -18.3071,42.4069 -10.0805,9.8318 -24.4502,21.7955 -31.9336,26.585 -12.5546,8.0354 3e-4,-6e-4 -8.4305,6.4091 l 11.1146,58.3552 -183.0946,17.7884 -144.3487,16.1098 c -79.1024,8.8277 -207.871,9.6721 -260.3431,17.1028 l -23.4887,3.3271 -6.3363,36.3887 c -3.4853,20.0141 -5.9081,58.2107 -5.3824,84.8815 0.9021,45.8111 1.4618,47.8483 10.088,36.8364 21.8777,-27.9276 193.7399,-59.4276 252.4489,-46.2706 21.3107,4.7757 38.046,4.0685 79.2487,-3.3502 50.0105,-9.0046 154.3147,-22.1352 147.8054,-11.6032 -1.6681,2.6992 -104.784,27.17 -130.4521,37.3213 -43.2271,17.0958 -96.0541,45.2762 -136.9005,73.0279 -32.8317,22.3064 -33.9819,12.187 -3.0606,-26.9314 18.5362,-23.4501 27.6134,-29.7722 53.5749,-37.3195 17.1915,-4.9977 31.2569,-9.8558 31.2569,-10.795 0,-0.9391 -32.357,-1.105 -71.9035,-0.3694 -87.3956,1.6256 -119.6439,10.6429 -222.654,62.2613 -39.5138,19.8004 -74.6034,36.0015 -77.9768,36.0015 -13.195,0 -1.1994,-20.1447 22.915,-38.4795 31.3799,-23.8588 34.6512,-35.1525 35.7633,-123.48 l 0.8687,-68.9067 -39.476,2.8084 c -21.7118,1.5449 -54.7038,5.2542 -73.3139,8.2423 -62.4704,10.0306 -143.1582,4.0464 -164.0608,-12.1663 -9.3957,-7.2874 -13.9131,0.8846 -7.3097,13.2232 3.2305,6.0361 9.4034,9.6194 13.7187,7.9635 12.1674,-4.6691 16.5771,7.8011 14.7154,41.6129 -1.0938,19.8662 1.3933,36.9767 6.9171,47.5958 5.8461,11.2382 7.5499,24.4105 5.2918,40.8864 -2.6378,19.2441 -1.5846,24.3059 5.0537,24.3059 12.013,0 77.6667,51.5796 96.4705,75.7901 13.3599,17.2011 16.5974,26.2976 12.6992,26.2688 z m -86.9066,-285.3613 c 2.7987,-0.018 4.7471,-0.5727 5.8389,-1.6645 2.8713,-2.8712 -3.2424,-17.1821 -14.4666,-33.8609 -33.7999,-50.2263 -47.728,-115.1162 -36.4456,-169.7879 7.6785,-37.2093 -3.3579,-43.1074 -18.1382,-9.6936 -6.485,14.6603 -12.2513,33.5104 -12.8147,41.8883 -0.5632,8.3796 -4.1965,18.5857 -8.0735,22.6841 -6.7175,7.1014 -10.4465,44.6732 -8.356,84.1888 0.5657,10.6938 -1.4634,23.7002 -4.393,30.4236 50.9444,23.8375 83.5451,35.909 96.8487,35.8221 z m 143.6453,-10.1857 c 19.9495,-0.01 49.4654,-2.8091 65.0165,-7.2848 13.2153,-3.8034 17.6156,-69.5173 5.3433,-79.7922 -4.6308,-3.8772 -16.8175,-7.0486 -27.0806,-7.0486 -15.4577,0 -18.7374,2.1773 -19.1119,12.6885 -0.7541,21.1643 -18.8184,69.0362 -26.3344,69.7878 -3.8772,0.3877 -9.5868,1.0227 -12.6886,1.4104 -3.1017,0.3877 -5.64,3.5376 -5.64,7.0007 0,2.2439 8.5259,3.2437 20.4957,3.2382 z m -73.8575,-1.6289 c 12.0802,-0.172 23.5603,-4.9174 33.7758,-14.1238 6.9401,-6.2546 16.0988,-9.0812 23.3146,-7.1943 9.9604,2.6047 13.4806,-1.0721 21.7444,-22.7107 6.3458,-16.6165 8.7796,-33.8746 6.8283,-48.4217 l -3.0304,-22.6042 29.0701,0.078 c 15.9886,0.042 35.0782,1.6849 42.4212,3.6504 13.1586,3.5221 13.2941,4.2927 9.4449,53.4968 l -3.9044,49.9246 32.8502,0.1439 c 18.0675,0.079 71.5566,-6.8843 119.3642,-9.7824 l 81.5295,-4.9419 -14.6674,-157.1792 c -1.4583,-15.6265 39.687,-17.2782 66.7271,-17.6411 145.8183,-2.5887 152.6058,-10.9302 143.0715,-51.4504 -8.0104,-34.0434 -7.5661,-34.9103 -28.5763,-38.4599 -31.0488,-5.2456 -55.1561,5.0279 -86.5264,36.8772 -29.8294,30.2847 -38.8645,10.5787 -38.332,-1.3359 50.7709,-46.6894 75.5217,-55.2807 166.816,-69.8606 13.7392,-4.1478 42.5441,-56.2708 46.807,-84.6985 8.8441,-58.9766 -47.8284,-117.098 -136.7654,-140.263 -38.4492,-10.015 -89.8681,-9.8753 -194.8771,0.5311 -83.4635,8.2711 -71.4087,4.104 -199.2115,68.8712 -25.0046,12.6697 -67.6469,28.6004 -94.7688,35.4028 -78.9912,19.8117 -99.9581,42.2179 -83.551,89.2833 4.8392,13.8814 3.2486,17.3353 -15.2127,33.0527 -11.3389,9.6535 -29.4542,23.4942 -40.2576,30.7577 -25.2027,16.9445 -27.8915,33.0023 -7.1233,42.542 9.7301,4.4695 16.3035,5.0572 17.4688,1.5614 1.0275,-3.0825 10.0594,-14.81 20.071,-26.0609 14.6202,-16.4298 23.3351,-21.0341 44.2776,-23.3947 25.1796,-2.8381 27.0241,-1.991 53.7046,24.6896 15.1961,15.1961 28.9623,32.7292 30.5925,38.9626 3.9223,14.9988 -4.0877,35.6686 -15.5236,40.0569 -9.2583,3.5529 -22.0864,-9.3785 -14.7775,-14.8965 11.5667,-8.7329 5.8553,-27.9636 -13.2997,-44.782 -17.1678,-15.0735 -24.3026,-17.718 -43.9293,-16.2874 -21.4716,1.565 -24.4931,3.8116 -36.1205,26.8692 -10.5729,20.967 -12.6885,34.339 -12.6885,80.2008 0,46.7431 2.169,59.9429 14.3867,87.5691 16.8605,38.1247 32.526,56.6355 56.6285,66.9136 7.5368,3.2139 15.0009,4.7573 22.2489,4.6541 z m 428.1558,-26.3345 131.9531,-13.55 -12.8448,-131.0242 -131.6867,4.059 z m 181.6628,-22.3679 c 4.5673,0.02 10.0168,-2.1414 16.053,-6.5956 7.4392,-5.4896 9.2874,-10.1197 5.5315,-13.8627 -3.1017,-3.091 -12.8195,-7.3943 -21.5934,-9.5621 -14.9728,-3.6996 -15.8375,-2.9463 -14.0972,12.2426 1.3347,11.6487 6.494,17.7438 14.1061,17.7778 z m 53.8254,-4.3183 83.988,-8.9191 -6.2599,-22.5598 c -0.7277,-5.6425 -70.3408,11.1718 -81.6237,13.4133 z m -20.3393,-44.6932 c 1.2583,0.01 2.5279,0.01 3.8085,0 23.2223,-0.162 49.9197,-3.1979 72.3458,-8.944 57.7195,-14.789 77.8285,-31.5771 78.1278,-65.2172 0.1986,-22.3238 -14.124,-39.7416 -41.0748,-49.953 -8.7315,-3.3083 -21.4189,-5.8111 -28.1961,-5.5671 -32.8159,1.2012 -86.4438,17.8581 -116.7849,36.2892 -29.8663,18.1429 -33.6947,22.5124 -33.6265,38.3925 0.1246,28.9655 5.5849,41.4983 21.1778,48.6029 9.1457,4.1671 25.3493,6.2681 44.2224,6.3967 z m -745.3013,-225.482 c 3.8579,0.024 9.2645,-2.491 16.179,-7.5673 8.5646,-6.2878 8.8073,-9.7848 2.2524,-32.3795 -4.652,-16.036 -8.9361,-22.7616 -11.676,-18.3285 -7.7139,14.6787 -10.6153,24.0165 -13.058,37.0656 -2.283,14.068 -0.133,21.168 6.3026,21.2097 z m 356.3197,-241.4782 39.0941,-3.6931 c 21.5024,-2.0306 53.6246,-5.1554 71.3811,-6.9438 l 32.2836,-3.2507 -9.7256,-13.1149 c -5.3499,-7.2133 -22.5395,-20.9301 -38.1988,-30.4805 -15.6591,-9.5504 -31.488,-17.3639 -35.1754,-17.3639 -3.6876,0 -12.9863,9.5162 -20.6627,21.1476 -7.6763,11.6314 -19.5904,28.4726 -26.4766,37.4243 z m -46.2937,-554.3464 c 4.948,-0.1423 8.8747,-4.9312 8.8747,-13.9516 0,-11.2788 -2.8183,-14.0972 -14.0972,-14.0972 -15.7767,0 -16.597,1.7148 -8.2619,17.2893 3.9575,7.3944 9.1185,10.885 13.4844,10.7595 z m -310.4737,-32.7721 c 38.4409,0.1916 134.3852,-6.1008 138.6873,-10.2247 6.0024,-5.7537 -10.7293,-21.9949 -27.6632,-26.8514 -12.591,-3.6112 -24.3345,-3.0214 -37.966,1.9078 -17.8553,6.4565 -20.7736,6.0219 -30.6405,-4.5688 -10.7872,-11.5788 -10.7818,-11.8312 0.4868,-23.0998 12.5815,-12.5815 20.207,-14.3031 25.4907,-5.7536 1.9171,3.1016 14.7556,5.6399 28.5301,5.6399 l 25.0449,0 0,-22.558 0,-22.5579 -29.6084,0.7425 c -41.0294,1.027 -106.0243,8.9356 -110.493,13.4453 -5.5297,5.5802 -3.2911,87.2345 2.5384,92.6033 0.9134,0.8411 6.7219,1.2312 15.5929,1.2754 z m 269.4007,-10.3757 c 14.7014,0 26.3701,-0.3016 31.4558,-0.8953 l 18.4919,-2.1582 0,-41.6787 c 0,-36.3433 -1.2619,-41.5389 -9.8677,-40.5987 -5.428,0.5929 -42.0257,2.4961 -81.327,4.2295 -39.3014,1.7333 -73.0822,4.7874 -75.0689,6.7874 -1.9868,2.0004 -1.8897,18.8598 0.2149,37.4653 l 3.8263,33.8271 62.6184,2.144 c 17.2199,0.5888 34.9549,0.8806 49.6563,0.8776 z"
         id="path4308"
         inkscape:connector-curvature="0"
         sodipodi:nodetypes="cccsccssssscssscsccscsssscssccccscccccssccscsccssscssssssssccsssssssssssssssssscccscsccsccccsssscccccsscccssscsccsscccscccccsscssssssssscccsscssccssccsssssccscssscsssssscssscccsccsscscsssccssscssssscssscccssssssscscccsccssscccccccssscssscccsccccscccsssscssscsscsscscsccccscscccssscscccc"
         inkscape:export-filename="/Users/larsaeschlimann/Desktop/SuperTeacher_Design/PNG/P3"
         inkscape:export-xdpi="344"
         inkscape:export-ydpi="344" /><path
         style="opacity:1;fill:#000000;fill-opacity:1;fill-rule:nonzero;stroke:#000000;stroke-width:0.90949553;stroke-miterlimit:4;stroke-dasharray:none;stroke-opacity:1"
         d="m 1970.1972,2626.7758 c -21.7347,8.7241 -116.445,13.2264 -135.8594,6.4585 -17.3237,-6.0391 -24.2946,-0.4452 -10.539,8.4576 3.8771,2.5093 40.9913,8.4547 82.4761,13.2122 71.0141,8.1437 76.7407,8.0615 97.8853,-1.4051 16.2794,-7.2885 21.5161,-12.5105 19.0334,-18.9801 -1.8836,-4.9088 -3.4248,-9.9864 -3.4248,-11.2835 0,-4.3228 -36.4712,-1.7179 -49.5716,3.5404 z"
         id="path4310"
         inkscape:connector-curvature="0"
         inkscape:export-filename="/Users/larsaeschlimann/Desktop/SuperTeacher_Design/PNG/P3"
         inkscape:export-xdpi="344"
         inkscape:export-ydpi="344" /><path
         style="opacity:1;fill:#000000;fill-opacity:1;fill-rule:nonzero;stroke:#000000;stroke-width:0.90949553;stroke-miterlimit:4;stroke-dasharray:none;stroke-opacity:1"
         d="m 2220.9103,2584.2628 c -34.4402,13.0107 -147.6086,21.76 -123.7751,59.0548 61.6717,-4.8455 113.7389,-29.6824 152.6724,-49.0347 7.657,-3.4887 12.5828,-8.5098 10.9462,-11.1579 -4.2058,-6.805 -32.7149,-5.9908 -39.8435,1.1378 z"
         id="path4312"
         inkscape:connector-curvature="0"
         sodipodi:nodetypes="cccsc"
         inkscape:export-filename="/Users/larsaeschlimann/Desktop/SuperTeacher_Design/PNG/P3"
         inkscape:export-xdpi="344"
         inkscape:export-ydpi="344" /><path
         style="opacity:1;fill:#000000;fill-opacity:1;fill-rule:nonzero;stroke:#000000;stroke-width:0.90949553;stroke-miterlimit:4;stroke-dasharray:none;stroke-opacity:1"
         d="m 2372.2329,2621.6271 c -50.4933,11.7667 -65.0335,16.9536 -61.8712,22.0707 1.8277,2.9568 -1.8411,5.3762 -8.1526,5.3762 -15.3276,0 -44.3023,18.1224 -41.6308,26.0383 3.137,9.2948 -26.5869,13.4888 -53.2081,7.5074 -30.677,-6.8926 -77.2264,2.1443 -102.8339,19.9639 -55.5487,38.6547 -101.6858,91.0362 -101.6858,115.4484 0,14.7604 17.5371,2.9587 42.1427,-28.3603 57.0227,-72.5806 92.5476,-94.6046 140.902,-87.3534 14.0878,2.1125 25.614,5.881 25.614,8.3744 0,2.4934 -5.2612,11.2218 -11.6915,19.3967 -6.4303,8.1749 -10.8713,18.7901 -9.8691,23.5897 1.3763,6.589 6.8186,4.0016 22.2217,-10.5645 47.3415,-44.7696 130.362,-92.1179 171.3763,-97.7395 34.9035,-4.7841 33.4079,3.9664 -9.4169,55.0975 -19.1179,22.8257 -40.4575,54.2239 -47.4216,69.7737 -33.6912,75.2282 -114.5948,254.2513 19.5398,16.907 14.5297,-25.7094 39.6868,-68.68 58.8379,-93.9291 19.1511,-25.2492 37.2108,-49.106 40.1325,-53.0153 3.4652,-4.6362 2.7349,-10.2136 -2.1003,-16.0396 -8.227,-9.9129 -35.1175,-10.8773 -70.8851,-2.5422 z"
         id="path4314"
         inkscape:connector-curvature="0"
         sodipodi:nodetypes="scssssssssscsssssssss"
         inkscape:export-filename="/Users/larsaeschlimann/Desktop/SuperTeacher_Design/PNG/P3"
         inkscape:export-xdpi="344"
         inkscape:export-ydpi="344" /><path
         style="opacity:1;fill:#000000;fill-opacity:1;fill-rule:nonzero;stroke:#000000;stroke-width:1;stroke-miterlimit:4;stroke-dasharray:none;stroke-opacity:1"
         d=""
         id="path4316"
         inkscape:connector-curvature="0"
         transform="matrix(0.8,0,0,-0.8,0,3264)" /><path
         style="opacity:1;fill:#000000;fill-opacity:1;fill-rule:nonzero;stroke:#000000;stroke-width:0.90949553;stroke-miterlimit:4;stroke-dasharray:none;stroke-opacity:1"
         d="m 1857.1112,2900.3306 c -60.1415,24.2618 -136.232,78.1606 -136.232,96.5002 0,11.4721 3.8324,9.6192 38.4465,-18.5872 35.4372,-28.8774 111.015,-68.7994 117.6623,-62.1522 2.3328,2.3328 -0.3035,17.0377 -5.8584,32.6778 -11.1362,31.3548 -8.0707,42.2955 6.6293,23.66 13.0209,-16.5067 53.2331,-35.7445 74.7154,-35.7445 14.7358,0 17.0365,1.6741 13.5616,9.8689 -20.7195,48.8638 -24.1194,69.083 -11.6162,69.083 4.8914,0 9.4288,-8.6729 11.7618,-22.4825 2.0891,-12.3652 10.0502,-31.695 17.6913,-42.9549 13.1259,-19.342 13.3655,-21.0554 4.3403,-31.0282 -7.6391,-8.4412 -14.1904,-9.8269 -32.7041,-6.9174 -12.7332,2.0011 -28.9404,7.3916 -36.016,11.979 -17.7325,11.4963 -21.8949,4.6412 -11.0242,-18.1552 12.9501,-27.1565 4.1538,-28.1408 -51.3576,-5.7468 z"
         id="path4318"
         inkscape:connector-curvature="0"
         inkscape:export-filename="/Users/larsaeschlimann/Desktop/SuperTeacher_Design/PNG/P3"
         inkscape:export-xdpi="344"
         inkscape:export-ydpi="344" /><path
         style="opacity:1;fill:#000000;fill-opacity:1;fill-rule:nonzero;stroke:#000000;stroke-width:0.90949553;stroke-miterlimit:4;stroke-dasharray:none;stroke-opacity:1"
         d="m 2321.478,2870.7866 c -9.305,7.1109 -37.2201,25.4041 -62.0337,40.6516 -59.4396,36.5249 -87.4318,63.0272 -107.532,101.8083 -9.0944,17.5467 -18.8533,36.2479 -21.6863,41.5582 -8.1436,15.2647 -61.9738,37.6741 -141.4741,58.8953 -97.277,25.9665 -165.8309,54.7072 -154.188,66.3501 4.9945,4.9944 230.0437,-62.6986 267.639,-79.7282 36.0515,-16.3303 53.3996,-35.6246 81.1153,-90.2149 21.8993,-43.1341 75.5506,-91.3472 131.2146,-117.9145 27.0825,-12.926 49.2409,-25.9673 49.2409,-28.9807 0,-10.032 -25.15,-5.5278 -42.2957,7.5748 z"
         id="path4320"
         inkscape:connector-curvature="0"
         sodipodi:nodetypes="sssssssssss"
         inkscape:export-filename="/Users/larsaeschlimann/Desktop/SuperTeacher_Design/PNG/P3"
         inkscape:export-xdpi="344"
         inkscape:export-ydpi="344" /><path
         style="opacity:1;fill:#000000;fill-opacity:1;fill-rule:nonzero;stroke:#000000;stroke-width:0.90949553;stroke-miterlimit:4;stroke-dasharray:none;stroke-opacity:1"
         d="m 1731.7653,3150.2489 c 9.5691,17.88 91.2105,45.912 132.9193,45.6385 21.0562,-0.138 21.829,-0.6991 11.6108,-8.4277 -6.0208,-4.5539 -17.4516,-8.2797 -25.4018,-8.2797 -12.5819,0 -47.9759,-11.3538 -103.5942,-33.2314 -21.0945,-8.2976 -22.1238,-8.0126 -15.5341,4.3003 z"
         id="path4322"
         inkscape:connector-curvature="0"
         inkscape:export-filename="/Users/larsaeschlimann/Desktop/SuperTeacher_Design/PNG/P3"
         inkscape:export-xdpi="344"
         inkscape:export-ydpi="344" /><path
         style="opacity:1;fill:#000000;fill-opacity:1;fill-rule:nonzero;stroke:#000000;stroke-width:1;stroke-miterlimit:4;stroke-dasharray:none;stroke-opacity:1"
         d=""
         id="path4324"
         inkscape:connector-curvature="0"
         transform="matrix(0.8,0,0,-0.8,0,3264)" /><path
         style="opacity:1;fill:#000000;fill-opacity:1;fill-rule:nonzero;stroke:#000000;stroke-width:0.90949553;stroke-miterlimit:4;stroke-dasharray:none;stroke-opacity:1"
         d="m 1410.4159,2992.5277 c 10.3119,19.2678 60.3684,51.1944 133.9332,85.4237 39.7104,18.4771 81.5553,38.6439 92.9885,44.8151 11.4334,6.1712 24.495,9.7978 29.026,8.0591 10.0121,-3.842 34.1584,20.543 49.4744,49.9634 13.2842,25.5174 20.6696,23.6598 17.3966,-4.3756 -1.3079,-11.2032 10.2194,-26.9853 8.5576,-25.3237 -1.6617,1.6617 -19.7668,7.7093 -23.1751,3.6912 -18.5833,-21.9068 -78.8611,-67.7769 -80.9259,-61.5827 -3.1141,9.3422 -26.2936,3.2945 -50.604,-13.2029 -10.4164,-7.0689 -32.1571,-17.176 -48.3127,-22.4604 -33.8214,-11.0627 -67.0863,-27.0216 -78.1303,-37.4832 -12.267,-11.62 -48.871,-38.2516 -52.5753,-38.2516 -1.8668,0 -0.8108,4.8274 2.347,10.7276 z"
         id="path4326"
         inkscape:connector-curvature="0"
         sodipodi:nodetypes="ssssssccssssss"
         inkscape:export-filename="/Users/larsaeschlimann/Desktop/SuperTeacher_Design/PNG/P3"
         inkscape:export-xdpi="344"
         inkscape:export-ydpi="344" /><path
         style="opacity:1;fill:#000000;fill-opacity:1;fill-rule:nonzero;stroke:#000000;stroke-width:0.90949553;stroke-miterlimit:4;stroke-dasharray:none;stroke-opacity:1"
         d="m 1338.3682,2818.0445 c -0.9929,1.0108 16.9362,66.5361 19.1331,74.9412 4.9141,18.8182 28.8488,83.1944 32.7258,88.0217 1.557,1.9386 6.1648,3.5052 10.2398,3.4814 4.1305,-0.024 6.0225,-0.9599 4.2757,-2.1148 -1.7233,-1.1394 -3.9869,-7.868 -5.0304,-14.9526 -2.293,-15.5686 -14.3492,-41.7577 -29.481,-64.0404 -6.1402,-9.0419 -26.5558,-98.1019 -12.1371,-22.8965 -0.5352,-3.5512 -18.7331,-63.4509 -19.7259,-62.44 z"
         id="path4328"
         inkscape:connector-curvature="0"
         sodipodi:nodetypes="ccccscscc"
         inkscape:export-filename="/Users/larsaeschlimann/Desktop/SuperTeacher_Design/PNG/P3"
         inkscape:export-xdpi="344"
         inkscape:export-ydpi="344" /><path
         style="opacity:1;fill:#000000;fill-opacity:1;fill-rule:nonzero;stroke:#000000;stroke-width:0.90949553;stroke-miterlimit:4;stroke-dasharray:none;stroke-opacity:1"
         d="m 1383.5855,2407.0247 c -1.9382,3.5836 -4.0743,16.7517 -4.7468,29.2625 -1.0819,20.1228 -0.3761,24.5368 6.1164,38.2611 10.2672,21.7028 28.8277,46.8154 38.1728,51.6479 6.9054,3.5709 8.6207,3.5497 13.9345,-0.1723 7.3388,-5.1403 7.7943,-13.3856 1.1254,-20.3762 -7.4401,-7.7989 -12.3756,-17.2896 -10.5378,-20.2633 0.9004,-1.4569 14.2045,-9.1044 29.5647,-16.9943 43.364,-22.2746 48.4289,-27.7742 36.1307,-39.2315 -9.0587,-8.4397 -13.8139,-7.1969 -27.7833,7.2614 -15.4931,16.0353 -26.1633,20.8257 -46.3866,20.8257 -14.495,0 -15.8907,-0.5808 -18.632,-7.7541 -1.6297,-4.2649 -2.5499,-16.6364 -2.045,-27.4923 0.8593,-18.4726 0.5237,-19.7941 -5.2353,-20.614 -4.1015,-0.5839 -7.3288,1.2967 -9.6777,5.6394 z"
         id="path4332"
         inkscape:connector-curvature="0"
         inkscape:export-filename="/Users/larsaeschlimann/Desktop/SuperTeacher_Design/PNG/P3"
         inkscape:export-xdpi="344"
         inkscape:export-ydpi="344" /><path
         style="opacity:1;fill:#000000;fill-opacity:1;fill-rule:nonzero;stroke:#000000;stroke-width:0.90949553;stroke-miterlimit:4;stroke-dasharray:none;stroke-opacity:1"
         d="m 1439.7067,1510.3469 c -2.0114,1.1379 -6.1352,5.674 -9.1641,10.0801 -5.145,7.4846 -5.4946,8.6343 -5.3176,17.4895 0.2385,11.9268 3.1566,18.3196 12.6076,27.6198 13.319,13.1064 27.1031,16.6577 40.9243,10.5441 3.7397,-1.6544 7.897,-4.0011 9.2385,-5.2151 3.5179,-3.1837 7.0047,-19.7143 5.4593,-25.8821 -3.3702,-13.4503 -4.401,-15.2707 -12.4015,-21.9047 -14.7153,-12.2018 -32.5671,-17.6988 -41.3465,-12.7316 z m 22.3635,28.3592 c 6.6408,2.7748 11.6194,7.4197 10.6527,9.9389 -0.412,1.0735 -3.1298,2.6652 -6.0397,3.537 -4.3382,1.2997 -6.1522,1.1709 -10.0755,-0.7156 -6.1798,-2.9715 -11.6461,-10.5061 -9.4991,-13.093 2.0587,-2.4807 8.5752,-2.3358 14.9616,0.3327 z"
         id="path4334"
         inkscape:connector-curvature="0"
         inkscape:export-filename="/Users/larsaeschlimann/Desktop/SuperTeacher_Design/PNG/P3"
         inkscape:export-xdpi="344"
         inkscape:export-ydpi="344" /><path
         style="opacity:1;fill:#000000;fill-opacity:1;fill-rule:nonzero;stroke:#000000;stroke-width:0.90949553;stroke-miterlimit:4;stroke-dasharray:none;stroke-opacity:1"
         d="m 1527.955,1700.5544 c -9.4601,4.3896 -11.6111,7.9467 -12.6985,21.0008 -0.934,11.2138 -0.7413,12.5981 2.8768,20.66 3.2628,7.2707 5.2018,9.5251 12.2271,14.2166 8.3843,5.5987 15.9599,8.051 20.5216,6.6427 10.3663,-3.2003 22.0808,-8.1095 23.0684,-9.6675 0.6554,-1.0339 1.2014,-6.2282 1.2132,-11.5427 0.019,-8.4256 -0.642,-10.9255 -5.1608,-19.525 -5.6175,-10.69 -10.9995,-16.8601 -17.7535,-20.3527 -5.9915,-3.0984 -19.0449,-3.8678 -24.2943,-1.4322 z m 22.3654,28.6073 c 4.6748,4.6747 4.9372,8.9837 0.5448,8.9408 -5.6716,-0.056 -15.1559,-5.2128 -15.1559,-8.2418 0,-5.5277 9.3359,-5.9743 14.6111,-0.699 z"
         id="path4336"
         inkscape:connector-curvature="0"
         inkscape:export-filename="/Users/larsaeschlimann/Desktop/SuperTeacher_Design/PNG/P3"
         inkscape:export-xdpi="344"
         inkscape:export-ydpi="344" /><path
         style="opacity:1;fill:#000000;fill-opacity:1;fill-rule:nonzero;stroke:#000000;stroke-width:0.90949553;stroke-miterlimit:4;stroke-dasharray:none;stroke-opacity:1"
         d="m 1602.1519,1866.5384 c -5.4987,2.201 -14.2072,9.7642 -16.6238,14.4374 -1.766,3.4153 -2.0843,6.8745 -1.4541,15.8045 0.9496,13.4574 2.4537,17.2407 10.0905,25.3822 7.4205,7.9111 26.8345,20.4138 31.604,20.3532 5.6276,-0.072 10.0529,-4.7171 12.3495,-12.9648 2.8655,-10.2906 2.5086,-19.5902 -1.1696,-30.4795 -2.6675,-7.897 -4.5541,-10.6145 -12.7098,-18.3082 -5.2676,-4.9692 -9.5774,-9.8079 -9.5774,-10.7526 0,-0.9448 -1.6159,-2.454 -3.591,-3.3539 -4.161,-1.8958 -4.4675,-1.8999 -8.9183,-0.1183 z m 12.9966,33.9472 c 5.8903,4.0242 7.9417,6.6786 7.0193,9.0825 -1.1647,3.0352 -6.2909,2.359 -12.1139,-1.5978 -5.7376,-3.8988 -6.6282,-6.7673 -2.7945,-9.0002 3.2319,-1.8824 2.7919,-1.9669 7.8891,1.5155 z"
         id="path4338"
         inkscape:connector-curvature="0"
         inkscape:export-filename="/Users/larsaeschlimann/Desktop/SuperTeacher_Design/PNG/P3"
         inkscape:export-xdpi="344"
         inkscape:export-ydpi="344" /><path
         style="opacity:1;fill:#000000;fill-opacity:1;fill-rule:nonzero;stroke:#000000;stroke-width:3.27418399;stroke-miterlimit:4;stroke-dasharray:none;stroke-opacity:1"
         d="m 2137.4644,2637.9558 c -4.9347,1.1249 -9.124,2.1598 -9.3093,2.2999 -0.1854,0.1401 1.3116,7.58 3.3266,16.533 2.0148,8.9531 4.2282,19.0876 4.9183,22.5213 0.6902,3.4336 1.4364,6.3794 1.6581,6.5461 0.2218,0.1668 5.0015,-0.7952 10.6217,-2.1377 l 10.2184,-2.441 0,-7.6478 c 0,-6.0317 -0.7047,-9.743 -3.3346,-17.5636 -1.834,-5.4537 -3.8974,-12.271 -4.5855,-15.1496 -1.438,-6.0161 -0.7605,-5.8677 -13.5137,-2.9606 z"
         id="path4437"
         inkscape:connector-curvature="0"
         inkscape:export-filename="/Users/larsaeschlimann/Desktop/SuperTeacher_Design/PNG/P3"
         inkscape:export-xdpi="344"
         inkscape:export-ydpi="344" /><path
         style="opacity:1;fill:#000000;fill-opacity:1;fill-rule:nonzero;stroke:#000000;stroke-width:5.36602402;stroke-miterlimit:4;stroke-dasharray:none;stroke-opacity:1"
         d="m 2113.0399,2576.8208 c 0,2.4441 6.2087,30.5444 6.9063,31.2572 0.4346,0.4443 5.5678,-0.6773 11.407,-2.4923 8.4098,-2.6139 10.4769,-3.6108 9.9434,-4.7953 -0.5275,-1.1711 -4.5442,-13.2729 -7.8587,-23.6768 -0.483,-1.5161 -20.398,-1.8019 -20.398,-0.2928 z"
         id="path4439"
         inkscape:connector-curvature="0"
         inkscape:export-filename="/Users/larsaeschlimann/Desktop/SuperTeacher_Design/PNG/P3"
         inkscape:export-xdpi="344"
         inkscape:export-ydpi="344" /><path
         style="display:inline;opacity:1;fill:#000000;fill-rule:evenodd;stroke:#000000;stroke-width:1.34035265px;stroke-linecap:butt;stroke-linejoin:miter;stroke-opacity:1;filter:url(#filter4226)"
         d="m 2120.9392,915.08543 c 0,0 -39.6374,-2.70104 -40.566,26.81402 -1.0739,34.13252 63.5771,33.76115 66.9467,16.7544 8.7867,-44.34492 -26.3807,-43.56842 -26.3807,-43.56842 z"
         id="path4234"
         inkscape:connector-curvature="0"
         sodipodi:nodetypes="cssc"
         transform="matrix(0.90949555,0,0,-0.90949555,15.702073,3348.6409)"
         inkscape:export-filename="/Users/larsaeschlimann/Desktop/SuperTeacher_Design/PNG/P3"
         inkscape:export-xdpi="344"
         inkscape:export-ydpi="344" /><a
         style="display:inline;opacity:1"
         id="a5272"
         transform="matrix(0.90949555,0,0,-0.90949555,15.702073,3348.6409)"
         inkscape:export-filename="/Users/larsaeschlimann/Desktop/SuperTeacher_Design/PNG/P3"
         inkscape:export-xdpi="344"
         inkscape:export-ydpi="344"><path
           sodipodi:nodetypes="ssssssssssssssccsssscssssscsscsssssssccssssssssssssscsscccssssscssssssssssscssssssssscsssssssssssscss"
           inkscape:connector-curvature="0"
           id="path5244"
           d="m 1330.0074,3524.8364 c -37.5166,-3.9536 -168.2518,25.5456 -188.7138,-3.9161 -20.3563,-29.3094 19.0891,-36.9257 13.5717,-68.203 -5.659,-32.0794 74.2122,-250.0053 88.2064,-352.104 2.6829,-19.5738 4.7494,-19.8103 -30.0015,3.4345 -39.3926,26.3496 -118.3745,65.3853 -157.7252,77.9534 -21.4195,6.8411 -54.717,20.5544 -73.99456,30.4742 -33.16073,17.0637 -84.29824,37.5276 -113.77444,37.462 -37.3345,-0.083 -12.99509,-25.8652 -28.42839,-40.0631 -10.9382,-10.0626 -62.13702,-92.4974 -89.43386,-143.9966 -7.12296,-13.4384 -22.99982,-35.8168 -35.28196,-49.7298 -25.2954,-28.6542 -55.83827,-60.03 -49.63115,-82.5103 5.45014,-19.7388 42.55058,-21.3593 90.67182,-45.1048 47.95325,-23.6625 107.86095,-60.1131 143.67715,-87.4199 35.9202,-27.386 97.94653,-81.1783 107.26649,-93.0265 l 8.2516,-10.4904 -18.60586,-10.7252 c -48.72033,-28.0848 -125.97453,-113.0135 -163.76093,-180.029 -49.04332,-86.9801 -50.4022,-90.5812 -75.03327,-198.85 -9.36305,-41.1563 -17.68448,-113.1631 -6.2731,-162.2091 17.20047,-73.9275 28.61692,-84.6479 37.12155,-81.3843 5.30351,2.035 -16.24882,60.1167 -18.06323,124.2134 -2.04494,72.2408 -1.88425,74.2121 10.53241,129.2403 16.83594,74.6131 25.72854,102.3473 41.01824,127.9278 7.0415,11.7807 21.9749,38.0682 33.1855,58.4167 29.0344,52.7009 89.805,122.2976 134.33343,153.8435 19.68416,13.9451 57.08486,32.5573 84.72116,42.1607 3.7485,1.3025 6.8153,5.9282 6.8153,10.2794 0,9.6591 -9.9902,10.3503 -29.8236,2.0633 l -13.9958,-5.8477 -27.7445,28.461 c -33.12436,33.9798 -94.06499,83.1685 -136.18379,109.9217 -16.759,10.645 -36.895,23.5748 -44.7465,28.7329 -7.8515,5.158 -33.5531,18.906 -57.11447,30.5512 -48.94195,24.1893 -78.04682,26.1499 -81.22554,43.0941 -3.13252,16.6977 21.68826,36.6755 43.6686,62.394 10.36186,12.1241 31.59304,43.95 47.18043,70.7243 59.60008,102.3746 77.09153,131.2465 95.51913,139.3979 35.2584,-0.2835 75.34987,-14.9399 96.84838,-25.7059 21.7057,-10.9092 55.95576,-25.2647 76.11136,-31.9011 67.0591,-22.0798 187.2759,-93.4301 263.929,-156.6455 18.9058,-15.5916 39.9031,-32.7295 46.6606,-38.0844 6.7574,-5.3548 24.3306,-19.5814 39.0515,-31.6145 14.7209,-12.0332 36.3498,-27.4065 48.0641,-34.1631 45.7182,-26.3692 58.4189,-45.534 65.825,-99.3276 8.489,-61.6586 -4.2671,-113.7174 -46.6881,-190.5393 -22.5138,-40.7713 -24.8448,-49.3782 -13.3732,-49.3782 11.2948,0 52.5825,73.7602 70.8482,126.5696 17.1786,49.6667 16.0148,125.8201 -2.5665,167.938 -10.0199,22.7118 -32.1877,45.8206 -60.0017,62.5487 -21.9997,13.2311 -61.3918,43.9095 -126.7407,98.7048 -14.1222,11.8416 -34.564,27.9715 -45.4263,35.8443 l -19.7497,14.3143 -8.4592,71.253 c -13.1674,110.9116 -76.7065,241.7149 -72.7879,288.434 3.276,39.0582 -7.9147,38.97 4.6234,54.0661 86.5449,37.0359 195.9394,18.0746 284.3775,-2.3044 72.0273,-3.2831 91.9923,7.8881 103.6987,-14.5446 15.6531,-29.1713 6.788,-126.4739 24.3082,-195.1733 11.5847,-45.4253 23.6127,-91.354 26.7287,-102.0636 28.3416,-97.4084 36.3234,-121.8725 50.9163,-156.0574 9.2092,-21.5731 20.3005,-50.4894 24.6473,-64.2584 4.3468,-13.769 14.0979,-39.9308 21.6689,-58.1374 7.571,-18.2065 14.9397,-40.989 16.3748,-50.6278 1.435,-9.6388 3.947,-18.4013 5.582,-19.4723 3.0712,-2.0118 23.307,-160.9759 30.9845,-243.403 5.8812,-63.1406 15.2293,-134.4764 21.8726,-166.9106 3.0091,-14.6907 7.2146,-55.626 9.3456,-90.9674 5.9655,-98.9323 7.2504,-106.8774 17.0599,-105.4769 7.8579,1.1219 8.1462,2.9327 6.85,43.0365 -0.7443,23.0259 -0.3595,41.8653 0.8546,41.8653 4.5011,0 33.6361,-100.8066 41.6462,-144.0946 9.6783,-52.3035 8.2089,-76.9176 -6.3013,-105.5521 -10.3998,-20.523 -9.8529,-26.8591 2.3183,-26.8591 5.1965,0 10.8901,6.7109 18.5568,21.8727 l 11.0601,21.8728 17.6543,-28.6881 c 56.4012,-91.6515 81.8094,-152.228 101.1575,-241.1731 7.8713,-36.1848 8.8591,-51.5714 8.9863,-139.9626 0.1364,-94.9216 -0.2443,-100.1474 -8.6198,-118.3021 -11.2036,-24.2853 -11.0262,-26.5703 1.9473,-25.0775 9.0361,1.0397 12.2164,4.8837 20.3519,24.599 9.0614,21.9592 9.6694,27.9409 10.0933,99.3084 0.4795,80.7262 -5.0715,139.2949 -17.5323,184.9864 -25.6267,93.9676 -25.695,94.1312 -77.6928,185.9258 -27.6787,48.8629 -43.4908,72.998 -47.8394,73.0209 -5.2479,0.027 -6.4764,3.9611 -6.3962,20.4799 0.2395,49.3438 -25.9598,150.898 -57.0171,221.01 -11.7642,26.5574 -18.2542,48.5361 -22.9999,77.889 -3.6362,22.4904 -8.3382,51.4067 -10.449,64.2584 -2.1107,12.8517 -9.0793,71.5605 -15.4857,130.464 -20.4111,187.6693 -34.4333,268.0353 -54.0992,310.0604 -6.1907,13.229 -14.2205,34.3118 -17.8442,46.8506 -3.6236,12.5388 -14.5488,41.199 -24.2782,63.6895 -9.7294,22.4905 -20.7778,51.4067 -24.5522,64.2584 -3.7743,12.8517 -13.3573,45.273 -21.2956,72.0473 -7.9383,26.7744 -23.6317,83.7307 -34.8743,126.5696 -14.9405,56.9293 -21.7981,121.2993 -12.646,153.7438 4.4364,15.7271 4.1939,47.0506 2.3918,72.1355 -50.0369,62.9212 -49.4545,-4.9831 -79.6405,5.0024 -56.9361,18.8344 -120.8987,25.4911 -204.2234,16.71 z"
           style="opacity:1;fill:#000000;fill-opacity:1;fill-rule:nonzero;stroke:none;stroke-width:5.9000001;stroke-miterlimit:4;stroke-dasharray:none;stroke-opacity:1" /></a></g><g
       inkscape:groupmode="layer"
       id="layer2"
       inkscape:label="Arme2"
       style="display:inline;opacity:1;filter:url(#filter4226)"><g
         inkscape:groupmode="layer"
         id="layer3"
         inkscape:label="Hände"
         style="display:inline"><path
           style="display:inline;opacity:1;fill:#000000;fill-opacity:1;fill-rule:nonzero;stroke:none;stroke-width:5.9000001;stroke-miterlimit:4;stroke-dasharray:none;stroke-opacity:1"
           d="m 1201.1066,2918.679 c -10.6678,-1.549 -22.5048,-4.5508 -26.3042,-6.6704 -20.5102,30.1757 -45.1624,19.2539 -60.3732,18.867 -9.712,-0.2559 -15.7946,1.1573 -20.2499,6.5916 -11.5172,14.0484 -22.7693,14.8859 -51.2089,3.8112 -44.9617,-17.5082 -61.24655,-44.4593 -78.88247,-130.5475 -12.87263,-62.8371 -13.2765,-149.8447 -11.15951,-188.9726 1.00354,-18.548 28.44313,-32.4313 19.21767,45.6473 -0.26758,30.4847 -2.63036,41.4528 -1.01061,51.4866 1.05931,5.9733 3.56497,24.2443 5.57317,40.6017 5.7432,46.9004 24.88235,117.1167 36.13005,132.5488 10.198,13.9932 43.1738,29.9174 53.2815,25.7309 8.2465,-3.4158 8.1445,-5.3909 -0.9891,-19.1215 -20.5098,-30.8322 -23.676,-38.3709 -17.2359,-41.0385 3.5187,-1.4573 13.4154,5.731 22.7673,16.537 10.1398,11.7167 22.7063,20.5333 32.4656,22.7781 44.972,23.1821 28.6877,-15.0332 24.6263,-22.2221 -1.8529,-3.2261 -2.8383,-8.3527 -0.6174,-12.5632 3.2259,-6.1162 8.8655,-5.3841 26.3885,6.2102 68.7045,45.4582 90.0641,23.6844 80.0077,-11.7276 -5.5442,-19.5242 1.2033,-21.6189 23.4477,-7.2788 23.6901,15.2718 38.2257,11.1036 49.4004,-14.1657 14.7524,-33.3595 2.9999,-88.4573 -26.5398,-124.4254 -12.8764,-15.6792 -16.6938,-14.3954 -16.6935,5.6127 -3e-4,8.594 -2.7583,16.7676 -6.1293,18.1638 -15.5499,6.441 -20.0283,-51.2461 -5.9652,-76.8417 8.1116,-14.7637 24.8588,-22.089 32.3786,-14.163 3.6859,3.8846 3.2216,10.4269 -1.2826,18.082 l -7.0581,11.9953 16.9793,17.0637 c 22.8858,23.015 26.0345,28.8718 42.6814,35.1034 31.5414,19.1721 -11.4617,-101.6394 -17.6891,-114.7803 -33.1922,-69.6205 -16.5177,-68.1782 5.809,-28.2026 24.4447,43.7671 44.4503,100.832 43.1469,136.3958 -1.024,27.9304 -11.8154,46.8022 -24.0945,42.135 -13.2165,-5.0229 -16.7812,3.952 -13.2585,33.3769 2.9334,24.506 1.0827,37.36 -8.8225,61.2731 -13.0819,31.5828 -27.4779,33.8236 -46.9751,32.1349 -9.7577,-0.8456 -14.2165,1.8012 -21.8773,11.9938 -12.719,16.9216 -26.3442,21.9967 -49.8795,18.5793 z"
           id="path4757"
           inkscape:connector-curvature="0"
           sodipodi:nodetypes="cccssssccsssssscccssssssssssccccssssssssc"
           inkscape:export-filename="/Users/larsaeschlimann/Desktop/SuperTeacher_Design/PNG/P3"
           inkscape:export-xdpi="344"
           inkscape:export-ydpi="344" /><g
           style="display:inline;opacity:1;filter:url(#filter4226)"
           id="g4862"
           transform="matrix(1.0503304,-0.43506111,0.43506111,1.0503304,-351.22264,130.20828)"
           inkscape:export-filename="/Users/larsaeschlimann/Desktop/SuperTeacher_Design/PNG/P3"
           inkscape:export-xdpi="344"
           inkscape:export-ydpi="344"><path
             sodipodi:nodetypes="sscsssssscsss"
             inkscape:connector-curvature="0"
             id="path4858"
             d="m 490.72279,2672.2586 c -3.58631,-4.2201 -9.92442,-19.8878 -14.87098,-32.8282 l -9.72057,-25.4293 9.71601,-7.5935 c 18.6538,-14.5787 -6.94695,-28.8451 -25.55294,-11.897 -2.33414,2.1262 -4.64141,5.0394 -5.93968,5.429 -4.64682,1.3946 -3.23304,-8.9441 -5.19638,-19.409 -1.58497,-8.4482 -4.10667,-26.6087 -2.58959,-32.6532 2.67349,-10.652 8.84513,-11.5971 44.95644,-12.3601 l 38.90973,-0.8221 -0.41075,58.0188 c -0.34249,48.3754 -11.28697,88.0395 -17.40402,88.0395 -1.75144,0 -8.31095,-4.2749 -11.89727,-8.4949 z"
             style="opacity:1;fill:#ffe6d5;fill-opacity:1;fill-rule:nonzero;stroke:none;stroke-width:5.9000001;stroke-miterlimit:4;stroke-dasharray:none;stroke-opacity:1" /><path
             sodipodi:nodetypes="ssscssscscsssssscssccsccsssccsssss"
             inkscape:connector-curvature="0"
             id="path4860"
             d="m 338.85431,2770.6192 c -7.96206,-4.1823 -22.99473,-19.4995 -32.56065,-33.1771 -8.59258,-12.2858 -17.66425,-22.3346 -20.16284,-22.3346 -0.94289,0 -3.04412,0.9723 -4.6694,2.1608 -2.33939,1.7106 -3.17141,4.9431 -3.99348,15.5155 -1.71178,22.0145 -6.69892,23.6158 -23.40005,7.5137 -12.10095,-11.667 -16.24529,-17.9551 -22.03674,-33.4358 -5.17912,-13.844 -9.56731,-19.9685 -13.86792,-19.3554 -4.75794,0.6784 -5.04427,9.7888 -1.02043,32.4678 1.79976,10.1438 2.84917,19.1278 2.33203,19.9646 -1.85129,2.9954 -9.68765,1.4771 -15.26913,-2.9585 -7.13341,-5.669 -17.2462,-17.7047 -21.63429,-25.7481 -2.97156,-5.4469 -3.36688,-8.4618 -3.25214,-24.8024 0.21849,-31.1158 6.02387,-66.2578 19.07806,-115.4863 6.79376,-25.6199 9.26209,-32.1491 23.14817,-61.231 8.54894,-17.9043 16.81609,-36.5201 18.37145,-41.3686 l 2.82794,-8.8153 11.62614,7.1245 c 21.47263,13.1585 69.82063,35.6377 96.10942,44.6856 14.06763,4.8418 30.55337,11.0821 36.63499,13.8675 30.09799,7.9854 21.36747,6.0525 57.55877,13.9597 12.68331,10.6717 9.69976,43.4441 3.3603,54.1217 -9.70407,16.3447 -15.76683,28.4456 -19.71213,36.1335 -3.41222,10.8119 -4.98346,19.7608 -2.00509,27.1212 0.48274,2.5482 5.63961,2.4396 10.7741,-2.9112 2.02826,-2.1137 8.96876,-23.1664 13.68426,-19.7934 2.94523,2.1067 8.81517,12.5601 10.17327,21.3658 0.97319,6.3099 3.0108,17.0938 3.12865,21.0482 0.0421,32.0802 -7.19183,68.1892 -34.20147,87.0089 -5.44858,3.609 -10.39573,3.002 -15.21117,3.002 -7.94591,0 -12.65912,-3.5664 -24.76607,-18.7403 -12.35934,-15.4901 -17.71676,-15.7255 -20.05935,-0.8812 -1.87065,11.8538 -4.42062,18.396 -8.92657,22.9019 -5.48475,5.4847 -12.97066,5.85 -22.05863,1.0763 z"
             style="opacity:1;fill:#ffe6d5;fill-opacity:1;fill-rule:nonzero;stroke:none;stroke-width:5.9000001;stroke-miterlimit:4;stroke-dasharray:none;stroke-opacity:1" /></g></g><path
         style="opacity:1;fill:#ff0000;fill-opacity:1;fill-rule:nonzero;stroke:none;stroke-width:5.9000001;stroke-miterlimit:4;stroke-dasharray:none;stroke-opacity:1"
         d=""
         id="path4289"
         inkscape:connector-curvature="0" /><path
         style="opacity:1;fill:#000000;fill-opacity:1;fill-rule:nonzero;stroke:none;stroke-width:5.9000001;stroke-miterlimit:4;stroke-dasharray:none;stroke-opacity:1"
         d="m 1407.6682,4035.8828 c -25.3555,-2.6842 -51.4945,-7.317 -58.087,-10.295 -20.5947,-9.3035 -35.1186,-39.3872 -39.153,-81.0989 -2.4278,-25.1015 11.1284,-45.717 2.7066,-55.0046 48.6605,-7.8267 175.2585,0.2292 232.835,0.3481 161.0365,0.055 222.2429,-8.1631 263.8456,-35.4222 20.5739,-13.4805 45.5306,-13.7489 40.4215,-0.4347 -5.0644,13.1976 1.3816,16.4805 63.6092,32.3957 29.1355,7.4516 65.5023,19.9401 80.8155,27.7522 37.9231,19.347 72.5995,60.1096 72.5995,85.342 0,39.869 2.4588,39.5565 -318.4656,40.4639 -162.2647,0.4587 -315.7721,-1.3621 -341.1273,-4.0465 z"
         id="path4407"
         inkscape:connector-curvature="0"
         sodipodi:nodetypes="sssccsssssss"
         inkscape:export-filename="/Users/larsaeschlimann/Desktop/SuperTeacher_Design/PNG/P3"
         inkscape:export-xdpi="344"
         inkscape:export-ydpi="344" /><path
         style="opacity:1;fill:#000000;fill-opacity:1;fill-rule:nonzero;stroke:none;stroke-width:5.9000001;stroke-miterlimit:4;stroke-dasharray:none;stroke-opacity:1"
         d="m 785.01332,3222.3969 c -15.61634,29.5449 -45.19749,85.9061 -56.36124,125.3456 -16.21519,57.285 -16.13035,60.6475 3.39775,138.9011 26.47363,106.0806 51.13986,185.4863 79.26419,255.155 12.67975,31.4104 39.01975,81.9114 58.53254,112.2226 40.73637,63.2808 62.09973,76.8823 107.65439,68.5521 115.44525,-55.9265 61.78745,-225.9012 39.97215,-320.8982 -1.473,-6.8864 -2.8509,-13.8058 -3.8903,-20.7717 -6.0103,-6.4274 -12.0182,-12.9184 -17.82055,-19.3493 -46.9477,-52.0309 -62.5207,-74.7752 -119.20553,-174.0914 -17.65511,-30.933 -31.2803,-55.463 -41.44904,-75.1245 -28.27814,-23.4708 -30.44369,-63.6881 -50.09436,-89.9413 z"
         id="path4409"
         inkscape:connector-curvature="0"
         sodipodi:nodetypes="csscsccccscc"
         inkscape:export-filename="/Users/larsaeschlimann/Desktop/SuperTeacher_Design/PNG/P3"
         inkscape:export-xdpi="344"
         inkscape:export-ydpi="344" /></g><g
       inkscape:groupmode="layer"
       id="layer1"
       inkscape:label="Colorierung"
       style="display:inline;opacity:1"><path
         style="display:inline;opacity:1;fill:#fff6d5;fill-opacity:1;fill-rule:nonzero;stroke:none;stroke-width:5.9000001;stroke-miterlimit:4;stroke-dasharray:none;stroke-opacity:1;filter:url(#filter4682)"
         d="m 1908.6775,1522.0798 c -4.6987,-5.2962 -17.923,-23.0289 -29.3874,-39.4059 l -20.8443,-29.7763 13.6306,0 c 13.5718,0 81.9064,6.5653 118.5468,11.3894 l 19.2432,2.5336 -12.6263,13.4601 c -13.6242,14.5239 -52.1417,40.8296 -69.3807,47.3838 -8.5292,3.2428 -12.3329,2.1354 -19.1819,-5.5847 z"
         id="path5064"
         inkscape:connector-curvature="0"
         transform="matrix(1.1368694,0,0,1.1368694,19.627589,-105.80124)"
         inkscape:export-filename="/Users/larsaeschlimann/Desktop/SuperTeacher_Design/PNG/P3"
         inkscape:export-xdpi="344"
         inkscape:export-ydpi="344" /><path
         style="display:inline;opacity:1;fill:#fff6d5;fill-opacity:1;fill-rule:nonzero;stroke:none;stroke-width:5.9000001;stroke-miterlimit:4;stroke-dasharray:none;stroke-opacity:1;filter:url(#filter4682)"
         d="m 1462.7833,1230.9806 c -6.3258,-17.4936 -7.0528,-47.1728 -1.1555,-47.1728 2.2909,0 9.049,4.4664 15.0179,9.9254 10.188,9.3176 10.5407,11.121 5.7601,29.4485 -6.3437,24.3201 -12.7305,26.8585 -19.6225,7.7989 z"
         id="path5068"
         inkscape:connector-curvature="0"
         transform="matrix(1.1368694,0,0,1.1368694,19.627589,-105.80124)"
         inkscape:export-filename="/Users/larsaeschlimann/Desktop/SuperTeacher_Design/PNG/P3"
         inkscape:export-xdpi="344"
         inkscape:export-ydpi="344" /><path
         style="display:inline;opacity:1;fill:#ffe6d5;fill-opacity:1;fill-rule:nonzero;stroke:none;stroke-width:5.9000001;stroke-miterlimit:4;stroke-dasharray:none;stroke-opacity:1;filter:url(#filter4682)"
         d="m 1925.0612,1428.3592 c -32.754,-3.2333 -68.4856,-8.1102 -79.4036,-10.8377 -10.918,-2.7274 -54.5899,-21.9215 -97.0488,-42.6536 -48.2956,-23.5821 -102.669,-45.9984 -145.2313,-59.874 -95.8776,-31.2569 -106.3605,-42.0765 -95.5245,-98.5934 3.9983,-20.8539 0.09,-25.7944 -49.4465,-62.5031 -28.3145,-20.9824 -36.9508,-35.7938 -27.5061,-47.174 12.5932,-15.1739 21.217,-12.3685 47.3856,15.4149 25.015,26.5588 26.0224,27.1159 53.4879,29.5804 l 27.9927,2.5118 29.8638,-31.0717 c 33.5127,-34.8681 38.5638,-46.9041 29.1446,-69.4475 -5.0264,-12.0299 -9.0036,-15.4767 -17.8584,-15.4767 -12.6186,0 -19.4823,11.0423 -11.7006,18.824 8.69,8.69 5.4794,20.3184 -10.4902,37.9949 -20.5306,22.7249 -36.9369,29.2825 -60.7543,24.2833 -16.926,-3.5526 -19.732,-6.1646 -31.1503,-28.9963 -11.7943,-23.5833 -12.5623,-28.5121 -12.7731,-81.9763 -0.2652,-67.23746 6.6379,-94.74633 33.9465,-135.27672 29.7137,-44.09992 63.682,-55.35144 98.1809,-32.5211 9.7122,6.42722 23.4006,12.34129 30.4187,13.14239 19.2188,2.19378 30.4481,27.73193 30.2206,68.72899 l -0.1775,31.98199 37.937,0 c 55.348,0 55.4921,-0.17944 50.0274,-62.27991 -2.4301,-27.61465 -2.8148,-52.06699 -0.8549,-54.33854 2.1973,-2.54681 45.4409,-0.41268 112.8039,5.56703 60.0822,5.33341 115.692,9.67331 123.5773,9.64422 17.1335,-0.0632 16.5341,-8.23335 7.0487,96.07954 -5.2426,57.65491 -5.9807,82.04961 -2.5852,85.44511 7.584,7.5841 39.5218,12.1182 87.0711,12.3614 53.6102,0.2741 111.0448,6.5027 127.0007,13.7727 15.9625,7.273 17.974,16.5756 10.1021,46.7203 -8.0105,30.6753 -15.1293,36.7144 -43.2785,36.7144 -25.644,0 -45.5628,-9.5503 -77.9057,-37.3527 -25.7359,-22.1229 -41.3522,-25.0512 -43.7514,-8.204 -1.0244,7.193 4.5144,14.0236 22.1972,27.3742 33.8932,25.5896 67.0469,39.371 118.8917,49.4211 51.8159,10.0446 55.8023,13.0988 78.9435,60.4841 25.0127,51.2173 16.2664,94.7721 -27.195,135.4251 -24.7061,23.1097 -81.2848,51.5059 -117.8002,59.1225 -30.5064,6.3633 -128.7631,5.3908 -203.8058,-2.0171 z m -405.4895,-389.0218 c 0.193,-1.8196 1.0333,-13.6735 1.8674,-26.3418 1.9352,-29.39051 3.8474,-32.108 22.5942,-32.108 18.5174,0 30.073,5.46731 48.6105,22.9991 14.6929,13.8959 26.308,14.8325 33.9254,2.7357 6.6104,-10.49768 -1.435,-18.50228 -37.8074,-37.61542 -34.0537,-17.89471 -38.8792,-24.21749 -27.8141,-36.44429 10.088,-11.14713 7.311,-28.48524 -4.8399,-30.21793 -11.6422,-1.66014 -36.7906,27.52913 -50.5844,58.71218 -7.6632,17.32413 -8.9384,26.31388 -6.7297,47.44546 1.4988,14.3393 3.8475,27.8877 5.2194,30.1075 2.995,4.846 15.0619,5.4102 15.5586,0.7275 z"
         id="path5072"
         inkscape:connector-curvature="0"
         transform="matrix(1.1368694,0,0,1.1368694,19.627589,-105.80124)"
         inkscape:export-filename="/Users/larsaeschlimann/Desktop/SuperTeacher_Design/PNG/P3"
         inkscape:export-xdpi="344"
         inkscape:export-ydpi="344" /><path
         style="display:inline;opacity:1;fill:#ffe6d5;fill-opacity:1;fill-rule:nonzero;stroke:none;stroke-width:5.9000001;stroke-miterlimit:4;stroke-dasharray:none;stroke-opacity:1;filter:url(#filter4682)"
         d="m 2172.0944,839.63559 c -59.4424,-6.83354 -144.8012,-14.60775 -189.6862,-17.27601 -134.2983,-7.98356 -211.648,-13.7535 -218.2291,-16.27891 -10.1874,-3.90926 -19.6659,-67.06458 -19.7778,-131.779 -0.077,-44.24885 3.4437,-55.68744 13.4195,-43.60499 24.4705,29.63797 198.2139,62.34776 272.3205,51.2684 27.8168,-4.15876 42.4936,-3.36863 105.8714,5.69969 40.4678,5.79028 90.4511,11.79367 111.074,13.34088 27.7521,2.08208 43.5545,5.85596 60.8097,14.52242 l 23.3135,11.7093 -2.6821,17.64523 c -4.8716,32.05009 -5.6345,33.08481 -24.3914,33.08481 -14.5385,0 -17.348,1.46203 -17.348,9.02779 0,5.29841 5.1981,12.01107 12.5831,16.24947 11.7439,6.74007 12.3265,8.36324 8.7369,24.33958 -2.1154,9.41485 -2.6979,18.97585 -1.2944,21.24666 3.6538,5.91202 -13.4787,4.74264 -134.7196,-9.19532 z m 33.152,-48.64594 c 3.828,-12.06082 -3.4318,-19.87308 -26.7394,-28.77433 -17.1388,-6.54537 -25.0711,-6.79948 -69.1306,-2.21456 -74.0317,7.70388 -112.6427,13.99017 -120.2944,19.58523 -5.2053,3.80623 9.7548,5.0824 62.7233,5.35064 48.4655,0.24545 77.5854,2.47499 96.0269,7.35227 38.2563,10.11774 53.903,9.76366 57.4142,-1.29925 z"
         id="path5074"
         inkscape:connector-curvature="0"
         transform="matrix(1.1368694,0,0,1.1368694,19.627589,-105.80124)"
         inkscape:export-filename="/Users/larsaeschlimann/Desktop/SuperTeacher_Design/PNG/P3"
         inkscape:export-xdpi="344"
         inkscape:export-ydpi="344" /><path
         style="display:inline;opacity:1;fill:#ffe6d5;fill-opacity:1;fill-rule:nonzero;stroke:none;stroke-width:5.9000001;stroke-miterlimit:4;stroke-dasharray:none;stroke-opacity:1;filter:url(#filter4682)"
         d="m 2076.2893,1012.8893 -45.0751,-1.4281 1.9253,-11.97831 c 1.0589,-6.58808 4.2081,-39.76957 6.9982,-73.73665 2.79,-33.96707 5.6841,-62.82073 6.4312,-64.11924 0.7471,-1.29851 32.7699,0.71334 71.1617,4.47077 l 69.8034,6.83171 -0.4885,13.17446 c -0.2687,7.24595 -2.9977,39.47688 -6.0643,71.62429 l -5.5758,58.44987 -27.0205,-0.9304 c -14.8613,-0.5117 -47.3043,-1.5729 -72.0956,-2.3584 z m 63.9444,-47.69142 c 12.477,-8.73923 12.9702,-29.66869 0.9816,-41.65729 -16.221,-16.221 -55.1264,-8.17822 -60.3081,12.46731 -6.743,26.86661 34.0136,46.91982 59.3265,29.18998 z"
         id="path5076"
         inkscape:connector-curvature="0"
         transform="matrix(1.1368694,0,0,1.1368694,19.627589,-105.80124)"
         inkscape:export-filename="/Users/larsaeschlimann/Desktop/SuperTeacher_Design/PNG/P3"
         inkscape:export-xdpi="344"
         inkscape:export-ydpi="344" /><path
         style="display:inline;opacity:1;fill:#ffe6d5;fill-opacity:1;fill-rule:nonzero;stroke:none;stroke-width:5.9000001;stroke-miterlimit:4;stroke-dasharray:none;stroke-opacity:1;filter:url(#filter4682)"
         d="m 2341.9298,1074.9384 c -27.4975,-6.1543 -69.0052,-21.8255 -88.2262,-33.3099 -36.2,-21.6294 -41.9162,-28.6764 -41.8424,-51.58441 0.1333,-41.35251 16.5898,-52.64825 77.1329,-52.94399 62.7637,-0.30659 128.7449,19.35023 150.0863,44.71298 14.593,17.34285 15.2409,49.74682 1.3477,67.40912 -17.9914,22.8724 -61.0154,34.1052 -98.4983,25.7162 z"
         id="path5080"
         inkscape:connector-curvature="0"
         transform="matrix(1.1368694,0,0,1.1368694,19.627589,-105.80124)"
         inkscape:export-filename="/Users/larsaeschlimann/Desktop/SuperTeacher_Design/PNG/P3"
         inkscape:export-xdpi="344"
         inkscape:export-ydpi="344" /><path
         style="display:inline;opacity:1;fill:#ffe6d5;fill-opacity:1;fill-rule:nonzero;stroke:none;stroke-width:5.9000001;stroke-miterlimit:4;stroke-dasharray:none;stroke-opacity:1;filter:url(#filter4682)"
         d="m 2229.4414,907.811 c 0,-20.57241 16.3573,-29.69232 31.982,-17.83144 10.6588,8.09115 9.6695,13.6113 -3.516,19.61902 -15.8038,7.20069 -28.466,6.40555 -28.466,-1.78758 z"
         id="path5078"
         inkscape:connector-curvature="0"
         transform="matrix(1.1368694,0,0,1.1368694,19.627589,-105.80124)"
         inkscape:export-filename="/Users/larsaeschlimann/Desktop/SuperTeacher_Design/PNG/P3"
         inkscape:export-xdpi="344"
         inkscape:export-ydpi="344" /><path
         style="display:inline;opacity:1;fill:#b3b3b3;fill-opacity:1;fill-rule:nonzero;stroke:none;stroke-width:5.9000001;stroke-miterlimit:4;stroke-dasharray:none;stroke-opacity:1;filter:url(#filter4682)"
         d="m 1431.0655,1056.0187 c -4.9121,-9.6285 -11.6422,-29.1276 -14.9557,-43.3313 -3.3135,-14.20369 -8.6612,-30.64317 -11.8839,-36.53215 -3.649,-6.66811 -6.5517,-31.71409 -7.6948,-66.39396 l -1.8354,-55.68672 28.2357,-13.34073 c 37.911,-17.91209 74.8232,-28.65012 80.1555,-23.31781 2.6532,2.65315 -2.4398,15.22816 -13.8539,34.20632 -38.4668,63.959 -47.4538,99.66951 -43.3555,172.27555 3.0534,54.0953 -0.1061,60.9469 -14.812,32.1208 z"
         id="path5082"
         inkscape:connector-curvature="0"
         transform="matrix(1.1368694,0,0,1.1368694,19.627589,-105.80124)"
         inkscape:export-filename="/Users/larsaeschlimann/Desktop/SuperTeacher_Design/PNG/P3"
         inkscape:export-xdpi="344"
         inkscape:export-ydpi="344" /><path
         style="display:inline;opacity:1;fill:#b3b3b3;fill-opacity:1;fill-rule:nonzero;stroke:none;stroke-width:5.9000001;stroke-miterlimit:4;stroke-dasharray:none;stroke-opacity:1;filter:url(#filter4682)"
         d="m 1685.1084,922.43776 c -0.8058,-3.03277 -3.8223,-15.43958 -6.7032,-27.57067 -7.8575,-33.08686 -18.672,-52.37308 -30.9294,-55.15854 -5.8857,-1.33751 -11.5101,-4.85843 -12.4987,-7.82429 -3.4803,-10.44092 85.5864,-4.32312 96.5407,6.63118 2.3408,2.34075 5.4399,18.37815 6.8869,35.63868 3.5303,42.10945 -3.4098,53.79778 -31.9435,53.79778 -12.1878,0 -20.4549,-2.13489 -21.3528,-5.51414 z"
         id="path5084"
         inkscape:connector-curvature="0"
         transform="matrix(1.1368694,0,0,1.1368694,19.627589,-105.80124)"
         inkscape:export-filename="/Users/larsaeschlimann/Desktop/SuperTeacher_Design/PNG/P3"
         inkscape:export-xdpi="344"
         inkscape:export-ydpi="344" /><path
         style="display:inline;opacity:1;fill:#b3b3b3;fill-opacity:1;fill-rule:nonzero;stroke:none;stroke-width:5.9000001;stroke-miterlimit:4;stroke-dasharray:none;stroke-opacity:1;filter:url(#filter4682)"
         d="m 1421.971,808.51141 c -3.1939,-3.1939 -1.1823,-11.76745 4.2856,-18.26577 4.96,-5.89461 6.7643,-6.65161 13.0454,-5.47327 6.2643,1.1752 7.8444,0.52043 11.2363,-4.65633 3.3114,-5.05377 4.0157,-11.56985 4.3736,-40.4633 0.3216,-25.95684 1.3366,-36.88414 4.1211,-44.3649 10.0028,-26.87325 10.379,-29.12134 8.9464,-53.46321 l -1.3941,-23.68685 11.6967,-5.17424 c 15.4262,-6.82408 60.0766,-40.60098 82.5029,-62.41146 24.9818,-24.29576 40.8797,-49.36181 31.3073,-49.36181 -1.4603,0 -13.6189,11.29255 -27.0193,25.09454 -29.4588,30.34182 -48.1118,46.09237 -76.0347,64.20351 -27.0739,17.56042 -29.2909,18.37574 -28.5299,10.4919 0.3212,-3.3273 -0.1312,-10.5161 -1.0053,-15.97509 -1.2866,-8.03432 -0.3163,-13.70768 5.0927,-29.77633 3.6752,-10.91799 6.2985,-17.04614 5.8296,-13.61811 -1.5569,11.3814 2.1439,2.88581 9.4407,-21.67236 4.5465,-15.30173 11.2652,-31.31513 18.1922,-43.35937 12.2411,-21.28425 22.6488,-46.65097 24.9646,-60.84623 1.4651,-8.98124 3.6937,-12.11916 9.2024,-12.95715 4.0254,-0.61235 27.4472,-17.07245 48.62,-34.16869 21.4516,-17.32131 45.5279,-30.30783 78.9688,-42.5949 37.9875,-13.95763 43.6161,-16.47346 69.5131,-31.07015 29.2666,-16.49592 46.1325,-21.54499 52.5546,-15.73306 3.8593,3.49263 4.9697,3.11326 20.4104,-6.97309 17.6421,-11.52443 51.3662,-39.07635 63.6318,-51.98598 4.9905,-5.25249 9.5988,-8.00014 13.4178,-8.00014 7.8187,0 8.7023,1.33676 5.8602,8.86622 -1.3297,3.52275 -1.817,7.00559 -1.0829,7.73965 0.734,0.73405 15.0811,-3.83141 31.8823,-10.14548 16.8013,-6.31407 41.9097,-15.31146 55.7966,-19.9942 l 25.2488,-8.51408 5.6303,5.15876 c 18.3028,16.76987 65.6316,34.71131 169.3074,64.18112 61.7177,17.54322 90.0987,27.19766 116.4798,39.62322 27.6715,13.03337 33.8443,19.16366 48.6304,48.29514 30.7179,60.52055 57.4075,88.19807 127.5613,132.28319 9.6925,6.09084 16.7643,12.04812 16.7643,14.12225 0,4.9325 16.4164,45.58988 41.2529,102.16804 22.8897,52.14316 37.7212,76.57281 73.6494,121.31098 41.6723,51.89086 42.9503,61.05575 7.6991,55.21147 -19.6397,-3.25603 -32.6386,-7.96762 -64.1516,-23.25223 -44.528,-21.59725 -88.3123,-50.90727 -122.8634,-82.24701 -21.5197,-19.51951 -26.0182,-21.2296 -26.0182,-9.89057 0,6.16954 3.2415,12.82409 14.1113,28.96941 4.3699,6.49074 7.9452,13.02388 7.9452,14.5181 0,4.38595 -14.9898,8.12197 -37.82,9.4262 -17.6823,1.01014 -23.8473,0.43502 -36.4849,-3.40353 -29.5321,-8.97008 -55.7296,-30.64467 -97.4824,-80.65239 -36.7362,-43.99925 -52.2573,-56.78842 -56.26,-46.35758 -6.2363,16.25173 33.1553,69.19113 79.1168,106.32694 4.8255,3.89895 7.7755,7.08899 6.5554,7.08899 -3.3655,0 -99.3298,-25.88139 -115.6864,-31.20037 -42.2854,-13.75075 -109.3978,-48.26476 -167.1124,-85.94126 -16.4142,-10.71535 -26.9852,-13.71705 -26.9852,-7.66262 0,4.55075 19.8648,33.38624 33.4301,48.52684 15.73,17.55652 26.8974,24.16702 56.3687,33.36714 13.6924,4.27438 24.8952,8.37837 24.8952,9.12003 0,2.56464 -126.5789,-1.25895 -147.7788,-4.46398 -52.7977,-7.98205 -73.9894,-15.9964 -186.7845,-70.63906 -65.1128,-31.54337 -74.6992,-35.20724 -76.9271,-29.40137 -2.3019,5.99876 3.193,13.1034 31.0481,40.14304 31.2953,30.37914 32.6593,33.16062 36.3516,74.1282 2.0562,22.81441 3.0926,136.51178 1.2444,136.51178 -10.1261,0 -89.731,-7.93074 -112.6213,-11.22003 -76.3756,-10.97508 -151.6925,-6.834 -184.9271,10.16762 -12.1176,6.19897 -11.2659,5.94157 -13.2141,3.99327 z m 664.2093,-304.33682 c 0.3713,-2.60451 -1.862,-10.76309 -4.9627,-18.13017 -6.2762,-14.91159 -7.2883,-24.55593 -2.5769,-24.55593 1.6834,0 9.3756,2.93937 17.0938,6.53194 29.1812,13.58297 58.0844,17.23688 68.9209,8.71288 7.9431,-6.24806 12.2783,-15.22106 10.1194,-20.94533 -0.9537,-2.52874 -5.1177,-9.97282 -9.2533,-16.54241 -9.4039,-14.93834 -15.7241,-29.88809 -20.4357,-48.33801 -4.66,-18.24836 -8.7599,-24.74203 -15.0554,-23.84592 -10.3919,1.47917 -6.5709,24.93483 11.2924,69.31991 3.3837,8.40743 3.9049,11.92381 2.0434,13.78534 -4.3301,4.3301 -21.9064,2.67114 -40.584,-3.83058 -23.157,-8.06103 -36.2887,-15.82888 -51.9414,-30.72531 -8.365,-7.9608 -13.7819,-11.54823 -16.0964,-10.66009 -4.2976,1.64915 -3.1716,9.08463 5.8474,38.61221 3.473,11.37046 6.3145,23.16354 6.3145,26.20686 0,5.17801 -0.5638,5.45764 -8.7821,4.35535 -19.558,-2.6233 -85.6496,-39.90907 -123.5571,-69.70521 -35.5081,-27.91009 -39.7018,-29.7687 -39.7018,-17.59539 0,16.24622 58.526,61.64485 117.3288,91.0119 57.792,28.86226 92.2499,38.51848 93.9862,26.33796 z"
         id="path5088"
         inkscape:connector-curvature="0"
         transform="matrix(1.1368694,0,0,1.1368694,19.627589,-105.80124)"
         inkscape:export-filename="/Users/larsaeschlimann/Desktop/SuperTeacher_Design/PNG/P3"
         inkscape:export-xdpi="344"
         inkscape:export-ydpi="344" /><path
         style="display:inline;opacity:1;fill:#fff6d5;fill-opacity:1;fill-rule:nonzero;stroke:none;stroke-width:5.9000001;stroke-miterlimit:4;stroke-dasharray:none;stroke-opacity:1;filter:url(#filter4682)"
         d="m 1783.8993,2086.1279 c 0,-8.7421 11.7964,-24.4698 18.3533,-24.4698 6.0753,0 8.1145,3.3259 8.1145,13.234 0,11.7635 -1.4704,13.2339 -13.2339,13.2339 -7.2786,0 -13.2339,-0.8991 -13.2339,-1.9981 z"
         id="path5070"
         inkscape:connector-curvature="0"
         transform="matrix(1.1368694,0,0,1.1368694,19.627589,-105.80124)"
         inkscape:export-filename="/Users/larsaeschlimann/Desktop/SuperTeacher_Design/PNG/P3"
         inkscape:export-xdpi="344"
         inkscape:export-ydpi="344" /><path
         style="opacity:1;fill:#502d16;fill-opacity:1;fill-rule:nonzero;stroke:none;stroke-width:5.9000001;stroke-miterlimit:4;stroke-dasharray:none;stroke-opacity:1"
         d="m 2066.4667,2394.4615 c -1.3791,-0.4793 -30.1532,-2.1107 -63.9423,-3.6253 -62.9173,-2.8205 -118.1914,-6.8475 -126.0039,-9.1803 -3.4663,-1.035 -4.3652,-4.0405 -4.2788,-14.3059 0.1211,-14.3747 6.1762,-71.5217 7.7446,-73.09 2.0609,-2.0609 172.0517,-3.9339 185.2267,-2.0408 l 13.7915,1.9817 -0.1296,46.7734 c -0.1409,50.8547 -1.6212,57.2358 -12.4082,53.4872 z"
         id="path5143"
         inkscape:connector-curvature="0"
         inkscape:export-filename="/Users/larsaeschlimann/Desktop/SuperTeacher_Design/PNG/P3"
         inkscape:export-xdpi="344"
         inkscape:export-ydpi="344" /><path
         style="opacity:1;fill:#000000;fill-opacity:1;fill-rule:nonzero;stroke:none;stroke-width:5.9000001;stroke-miterlimit:4;stroke-dasharray:none;stroke-opacity:1"
         d="m 1041.227,2627.7442 c -31.8942,-3.6559 -88.43513,14.785 -105.73826,-6.1387 -13.65333,-16.51 7.39503,-79.4693 -1.30895,-118.7188 -15.3334,-69.1439 -17.81322,-87.8967 -23.30433,-176.2307 -2.8826,-46.371 -7.85785,-114.3734 -11.05614,-151.1164 -8.38329,-96.3098 -5.3724,-178.7913 9.02401,-247.2072 6.43997,-30.6046 13.74663,-68.6716 16.23691,-84.5937 4.55235,-29.1056 12.35588,-60.8293 24.10185,-97.9815 3.48505,-11.0229 9.44385,-30.0625 13.24181,-42.3103 3.79797,-12.2475 10.75635,-32.2891 15.46325,-44.5368 4.7068,-12.2477 13.5236,-38.7476 19.5929,-58.8886 11.05165,-36.6753 67.74495,-145.056 108.97805,-208.3336 11.1733,-17.1468 41.4251,-52.4387 67.2262,-78.4266 46.3606,-46.6959 75.902,-68.1921 103.823,-75.5476 7.8911,-2.0788 37.3953,-9.9957 65.565,-17.5932 45.9937,-12.4044 61.5275,-14.2759 152.2975,-18.3501 82.1652,-3.6878 119.0652,-5.9352 129.1161,-1.1181 6.8005,3.2594 4.8984,9.1842 4.9673,11.6337 0.077,2.7285 -43.3923,6.9351 -99.3253,8.8767 -50.2154,1.743 -107.3341,5.3788 -126.9306,8.0797 -44.0053,6.0649 -123.8891,28.9529 -144.488,41.3983 -47.9898,28.9943 -115.8372,104.81 -158.2914,176.8817 -40.2465,68.3238 -82.4243,149.8703 -82.5809,159.6618 -0.063,3.9539 -5.1703,21.2181 -11.3491,38.3647 -26.49385,73.524 -48.78796,150.0495 -57.73843,198.1898 -3.41568,18.3714 -11.41823,58.4548 -17.78346,89.074 -9.59135,46.1382 -11.60003,67.8739 -11.73034,126.9306 -0.0864,39.1927 1.95673,95.3092 4.54043,124.7037 2.58367,29.3944 5.91551,76.4923 7.4041,104.662 3.48925,66.0311 10.4009,139.9136 15.20739,162.5601 14.25449,67.1625 19.66202,96.5801 14.71813,120.896 -8.9579,44.0582 42.05748,30.5361 145.92028,30.4983 93.669,-0.034 144.2228,-20.8395 175.4054,-41.8535 19.0037,-12.8066 1.8312,-22.7429 -5.6696,-55.3228 -5.8705,-25.4983 -6.232,-190.7144 -0.5229,-239.0467 12.555,-106.2925 24.0837,-174.7345 39.7607,-236.0462 18.5786,-72.6588 45.8169,-162.1952 63.0022,-207.0971 8.3841,-21.906 10.2822,-35.7819 10.5309,-76.9885 0.2869,-47.4712 0.7938,-50.1953 9.1214,-48.9906 8.0343,1.162 10.4107,5.5407 18.8215,34.6782 1.0883,3.7696 10.7297,-10.2995 22.1278,-32.2895 14.258,-27.5072 22.6046,-38.9698 28.3769,-38.9698 4.4975,0 9.4145,2.0013 10.9262,4.4474 1.5118,2.4461 -11.5356,31.6901 -28.9941,64.9869 -32.2604,61.5262 -65.4831,140.9446 -80.8765,193.3342 -30.7733,104.7335 -46.2239,171.2072 -57.4527,247.1804 -16.2236,109.7665 -16.9658,122.3482 -15.4079,261.1579 1.4248,126.9443 41.0726,126.1236 33.3338,138.8488 -9.284,15.2662 -70.4539,38.6745 -105.9383,49.1943 -28.5215,8.4558 -135.4754,12.8299 -182.3437,7.4574 z"
         id="path5242"
         inkscape:connector-curvature="0"
         sodipodi:nodetypes="ssssssssssssssssscsssscsssssssssssssssccsscsssssss"
         inkscape:export-filename="/Users/larsaeschlimann/Desktop/SuperTeacher_Design/PNG/P3"
         inkscape:export-xdpi="344"
         inkscape:export-ydpi="344" /><path
         style="opacity:1;fill:#fff6d5;fill-opacity:1;fill-rule:nonzero;stroke:none;stroke-width:5.9000001;stroke-miterlimit:4;stroke-dasharray:none;stroke-opacity:1"
         d="m 1495.3141,2250.23 c -52.4075,-6.9175 -96.1998,-13.4146 -97.316,-14.4382 -1.1162,-1.0235 36.5386,-80.3113 83.677,-176.1952 89.4365,-181.9219 94.2726,-194.0673 176.0817,-442.2122 24.9297,-75.6171 47.5891,-139.7482 50.3542,-142.5132 3.3599,-3.3598 9.96,5.9662 19.8981,28.1164 35.6767,79.5164 100.8079,156.8333 100.8079,119.6684 0,-5.1396 -11.5866,-24.8864 -25.7481,-43.8819 -39.6655,-53.2053 -103.1912,-190.6218 -92.8858,-200.9273 2.0362,-2.0362 16.5854,3.2754 32.3314,11.8037 15.746,8.5283 51.8972,22.6466 80.336,31.3739 83.6497,25.6706 181.4944,71.4454 181.4944,84.9088 0,2.3002 -9.5364,8.4743 -21.1922,13.7203 -50.1565,22.574 -155.9323,117.6505 -130.514,117.3123 2.0687,-0.027 27.4052,-15.8425 56.3032,-35.1444 28.898,-19.302 54.8511,-34.3387 57.6734,-33.4151 27.5713,9.023 -26.8121,150.0536 -173.5232,449.991 -49.3086,100.8071 -89.6521,186.1888 -89.6521,189.7371 0,18.0828 16.4604,-5.682 58.169,-83.9827 48.5607,-91.1642 142.5844,-286.2186 177.0494,-367.2934 11.2608,-26.4895 28.5454,-78.3957 38.4104,-115.3469 24.4956,-91.7537 24.9718,-92.7568 49.712,-104.7334 26.1849,-12.6759 38.8442,-9.0524 62.4991,17.8892 15.6954,17.8759 16.4466,20.4594 13.6295,46.8724 -5.1597,48.376 -46.4775,186.2818 -77.593,258.981 -25.6609,59.9547 -50.5492,115.1959 -100.397,222.8374 -5.748,12.4123 -25.1741,49.6494 -43.1692,82.7489 -17.995,33.0995 -32.7531,63.002 -32.7956,66.4499 -0.1784,14.4787 11.5788,4.0681 33.2642,-29.454 54.9851,-84.9982 157.1846,-318.0642 204.4945,-466.3498 25.274,-79.2172 37.394,-109.7674 43.5471,-109.7674 2.2166,0 11.6619,12.9765 20.9895,28.8367 17.2165,29.2741 19.5576,30.5165 48.6832,25.8363 11.8163,-1.8987 12.4845,-0.8022 11.6119,19.0601 -1.9715,44.8847 -69.7525,209.701 -164.7318,400.5617 -39.9073,80.1939 -72.5588,148.2202 -72.5588,151.1697 0,2.9494 -3.5697,6.7325 -7.9328,8.4068 -14.0108,5.3764 -93.5497,3.2555 -152.7403,-4.0729 -31.6157,-3.9143 -81.8877,-8.7456 -111.7159,-10.736 -50.6392,-3.3793 -55.1953,-2.9077 -68.7543,7.1169 -17.4576,12.907 -17.8395,12.8988 -137.797,-2.9349 z m 335.0865,-62.1819 c 24.473,-12.6045 33.522,-25.4846 33.522,-47.7144 0,-16.1407 -2.4238,-22.8144 -9.7004,-26.7087 -29.2502,-15.6542 -70.5408,8.2514 -70.5408,40.8403 0,32.2821 20.5555,47.0579 46.7192,33.5828 z m 123.2977,-248.1287 c 13.6567,-17.3617 19.1861,-46.7211 9.9334,-52.743 -39.2621,-25.5528 -86.2348,15.3408 -64.4271,56.089 8.2264,15.3709 41.3719,13.3358 54.4937,-3.346 z m 71.6634,-206.3633 c 24.75,-26.5361 31.2617,-54.7645 17.1005,-74.1311 -6.3742,-8.7172 -8.2556,-8.9364 -20.4914,-2.388 -23.3095,12.4748 -36.9085,28.4066 -40.4751,47.418 -2.8396,15.1373 -1.4171,20.5395 8.0674,30.6353 14.6871,15.6337 19.9985,15.4061 35.7986,-1.5342 z"
         id="path5278"
         inkscape:connector-curvature="0"
         inkscape:export-filename="/Users/larsaeschlimann/Desktop/SuperTeacher_Design/PNG/P3"
         inkscape:export-xdpi="344"
         inkscape:export-ydpi="344" /><path
         style="opacity:1;fill:#fff6d5;fill-opacity:1;fill-rule:nonzero;stroke:none;stroke-width:5.9000001;stroke-miterlimit:4;stroke-dasharray:none;stroke-opacity:1"
         d="m 2109.6616,2460.2569 c 0,-22.5634 -2.1525,-44.9433 -4.7835,-49.7329 -2.6309,-4.7895 -6.9273,-58.3575 -9.5475,-119.0401 -4.0282,-93.2907 -3.6589,-111.5743 2.3912,-118.3765 13.0879,-14.7152 72.2745,-151.0235 113.0088,-260.2622 22.1137,-59.3033 46.9959,-123.6217 55.2938,-142.9297 8.2979,-19.3082 19.3413,-58.3515 24.5411,-86.7633 12.7075,-69.4344 15.8061,-74.1926 29.1873,-44.8192 9.7498,21.4021 10.5724,31.9661 10.5724,135.7683 0,125.8028 -4.7552,161.9221 -32.4469,246.4573 -9.2085,28.111 -25.1321,67.8459 -35.3856,88.2995 -23.2663,46.4109 -72.7555,129.9675 -76.9776,129.9675 -1.7336,0 -8.5901,-10.2509 -15.2366,-22.7798 -7.9309,-14.9498 -14.8231,-22.1736 -20.0518,-21.0163 -9.2635,2.0506 -9.2804,1.9082 4.8775,41.2885 16.1588,44.9459 11.5283,84.8174 -23.55,202.7801 -9.3785,31.5385 -18.141,58.4319 -19.4722,59.7631 -1.3313,1.3311 -2.4204,-16.0407 -2.4204,-38.6043 z"
         id="path5280"
         inkscape:connector-curvature="0"
         inkscape:export-filename="/Users/larsaeschlimann/Desktop/SuperTeacher_Design/PNG/P3"
         inkscape:export-xdpi="344"
         inkscape:export-ydpi="344" /><path
         style="opacity:1;fill:#fff6d5;fill-opacity:1;fill-rule:nonzero;stroke:none;stroke-width:5.9000001;stroke-miterlimit:4;stroke-dasharray:none;stroke-opacity:1"
         d="m 972.71685,2600.0895 c -12.5123,-5.4383 -12.57999,-5.6852 -11.67745,-42.5867 0.36099,-14.7597 -3.08714,-43.5131 -8.50529,-70.924 -11.34627,-57.4018 -14.60701,-85.7674 -21.40171,-186.1754 -2.96967,-43.8842 -7.18631,-105.0004 -9.37028,-135.8139 -2.18398,-30.8134 -3.21179,-85.8681 -2.28404,-122.3439 1.55541,-61.152 2.97446,-72.7118 18.21239,-148.3613 18.66136,-92.6454 28.31531,-128.8948 61.26013,-230.0235 46.5185,-142.7957 127.6103,-277.8136 215.448,-358.7209 35.0785,-32.3108 57.9336,-44.344 112.7681,-59.3725 59.3204,-16.2579 80.588,-19.0268 193.8169,-25.2332 53.3571,-2.9246 98.3755,-6.1595 100.0407,-7.1888 1.6653,-1.0292 9.3892,2.7369 17.1643,8.3691 10.0468,7.2779 13.0378,11.3387 10.3392,14.0374 -2.6987,2.6986 -2.45,10.5742 0.8595,27.2244 l 4.6566,23.4272 -25.6627,101.8468 c -14.1143,56.0158 -32.6296,124.9858 -41.1448,153.2666 -8.5153,28.281 -25.3619,84.9316 -37.4368,125.8901 -43.8175,148.63 -81.5729,256.9462 -114.8363,329.4532 -7.0717,15.4146 -28.3465,55.3093 -47.2775,88.655 -18.931,33.3458 -41.8961,77.3843 -51.0335,97.8637 -13.165,29.5057 -18.2591,37.4837 -24.5398,38.4329 -7.7131,1.1656 -7.8584,0.5939 -5.4046,-21.2772 10.8879,-97.0435 49.6182,-252.3374 86.0878,-345.1791 10.7261,-27.3057 33.0892,-77.5731 49.6957,-111.7052 37.9213,-77.9411 37.8316,-77.707 30.7911,-80.4088 -7.8186,-3.0002 -16.3131,6.7615 -34.2979,39.4143 -8.5295,15.4861 -17.1258,28.6957 -19.1029,29.3548 -1.9772,0.659 -5.4639,-5.04 -7.7483,-12.6644 -4.3432,-14.4966 -13.1032,-24.6271 -17.5048,-20.2438 -1.4156,1.4098 -3.5901,25.1751 -4.8321,52.8118 -2.0998,46.7242 -3.2901,53.2329 -16.9715,92.8027 -45.3557,131.1792 -67.9178,223.2503 -87.7686,358.1661 -9.2544,62.8966 -9.9175,75.0428 -9.97,182.6292 -0.056,113.5403 0.073,115.61 8.6548,139.4043 10.4344,28.9312 9.4857,31.2392 -19.418,47.244 -43.06,23.8432 -105.1959,33.1781 -219.7959,33.021 -43.9716,-0.06 -63.40415,-1.4382 -71.81045,-5.092 z"
         id="path5282"
         inkscape:connector-curvature="0"
         inkscape:export-filename="/Users/larsaeschlimann/Desktop/SuperTeacher_Design/PNG/P3"
         inkscape:export-xdpi="344"
         inkscape:export-ydpi="344" /><path
         style="opacity:1;fill:#d35f5f;fill-opacity:1;fill-rule:nonzero;stroke:none;stroke-width:5.9000001;stroke-miterlimit:4;stroke-dasharray:none;stroke-opacity:1"
         d="m 1463.6107,3874.7475 c -34.1555,-3.8023 -79.9875,-16.0711 -88.3682,-23.6555 -5.1315,-4.6439 -6.2337,-11.6815 -6.2132,-39.6712 0.028,-39.4466 5.8444,-66.4377 31.4001,-145.7311 37.4506,-116.2001 46.4535,-153.7591 55.8074,-232.8204 l 5.8899,-49.7837 23.0532,-17.0627 c 12.6793,-9.3845 46.5344,-36.4751 75.2335,-60.2014 62.5819,-51.7379 85.4186,-69.3268 120.9546,-93.1603 44.7666,-30.0242 68.4253,-61.3309 77.0459,-101.9515 18.3511,-86.4721 -0.7965,-174.6273 -57.7918,-266.0724 -19.1228,-30.6813 -28.6361,-40.1006 -34.539,-34.1977 -3.21,3.21 2.9585,18.7918 26.5703,67.1165 42.1467,86.2595 46.9519,103.2663 46.8399,165.7758 -0.1529,85.3304 -11.6412,107.7848 -77.9274,152.3141 -23.405,15.7228 -73.1226,53.5276 -110.4839,84.0105 -126.7922,103.4492 -237.1481,171.927 -336.4158,208.7525 -20.1343,7.4693 -56.2796,22.374 -80.323,33.1218 -42.9098,19.1813 -70.4334,27.9236 -102.2826,32.4879 -27.0347,3.8743 -33.7898,-4.1472 -106.9624,-127.0148 -41.85954,-70.2884 -61.5148,-98.4867 -100.44204,-144.0987 -15.05455,-17.6398 -19.49721,-25.5045 -19.49721,-34.5157 0,-10.387 1.85216,-12.5879 16.84444,-20.0156 9.26445,-4.59 29.86548,-13.515 45.78007,-19.8333 84.29423,-33.4661 206.49164,-116.6908 295.24994,-201.0853 l 36.2722,-34.4888 16.5851,5.9441 c 18.9641,6.7968 27.6243,7.4524 30.7895,2.3311 3.1363,-5.0746 -1.4579,-17.6894 -6.4644,-17.7502 -2.3066,-0.028 -20.6044,-7.9427 -40.6616,-17.5882 -34.3705,-16.5284 -36.208,-17.9532 -31.9493,-24.7723 5.2589,-8.4209 3.7742,-8.2144 27.1598,-3.7793 25.4289,4.8224 38.2635,1.2972 53.2438,-14.6244 10.5164,-11.177 15.2726,-13.6443 26.3113,-13.6491 21.6066,-0.011 33.834,-8.6135 44.463,-31.2874 8.0119,-17.091 9.4973,-25.2362 9.8168,-53.8272 0.4959,-44.3849 -0.2326,-41.948 12.9218,-43.2163 33.6471,-3.2441 30.4933,-78.0542 -6.4411,-152.7882 -10.2581,-20.7563 -11.9106,-26.9417 -8.94,-33.4616 2.9765,-6.5328 1.7331,-11.0972 -6.7853,-24.9083 -15.0508,-24.4024 -21.2515,-55.4852 -23.7118,-118.863 -2.0093,-51.7586 -1.711,-55.8526 4.0693,-55.8526 3.4307,0 56.729,3.9751 118.4409,8.8337 199.1976,15.6827 207.271,16.8602 211.7206,30.8795 5.0174,15.809 51.0033,23.5477 148.7378,25.0304 l 56.7606,0.8611 17.4311,-11.5252 c 15.807,-10.4514 19.9307,-11.5251 44.2627,-11.5251 23.2329,0 189.2255,10.3295 190.5129,11.8553 0.484,0.5737 -2.9969,47.7441 -9.4622,128.2195 -2.037,25.3553 -7.542,70.8353 -12.2334,101.0666 -8.6443,55.7045 -13.6389,96.5917 -26.6415,218.0912 -11.5897,108.2974 -24.8538,203.5191 -32.6024,234.0491 -7.9733,31.4155 -38.7142,117.3843 -70.7138,197.7559 -24.5947,61.7727 -52.7858,152.8881 -79.2554,256.1574 -19.3961,75.6729 -19.7875,78.3791 -30.151,208.4659 -4.0656,51.0326 -9.5048,68.2859 -23.1649,73.4795 -5.0973,1.938 -30.3829,3.5236 -56.1902,3.5236 -33.1326,0 -56.2531,2.0195 -78.672,6.8717 -74.3963,16.1017 -156.2042,23.2027 -204.8816,17.7838 z"
         id="path5284"
         inkscape:connector-curvature="0"
         inkscape:export-filename="/Users/larsaeschlimann/Desktop/SuperTeacher_Design/PNG/P3"
         inkscape:export-xdpi="344"
         inkscape:export-ydpi="344" /><path
         style="opacity:1;fill:#d35f5f;fill-opacity:1;fill-rule:nonzero;stroke:none;stroke-width:5.9000001;stroke-miterlimit:4;stroke-dasharray:none;stroke-opacity:1"
         d="m 938.8317,2641.9283 c -12.38687,-33.4079 -14.67141,-41.4262 -29.61093,-103.9296 -12.68039,-53.0517 -13.1466,-57.3128 -13.38587,-122.3439 -0.25102,-68.2242 6.67958,-135.5954 12.39585,-120.4981 1.46186,3.8609 4.44058,34.1685 6.61935,67.3502 2.3086,35.1588 7.73679,78.8064 13.0101,104.6129 8.31354,40.6847 8.84808,48.6696 6.5794,98.2824 l -2.46929,54.0001 11.10895,6.2853 c 10.55071,5.9695 10.99478,7.0872 8.837,22.2432 -1.24956,8.7768 -2.6909,16.4483 -3.20294,17.0478 -0.51206,0.5995 -4.95878,-9.7732 -9.88162,-23.0503 z"
         id="path5286"
         inkscape:connector-curvature="0"
         inkscape:export-filename="/Users/larsaeschlimann/Desktop/SuperTeacher_Design/PNG/P3"
         inkscape:export-xdpi="344"
         inkscape:export-ydpi="344" /><path
         style="opacity:1;fill:#502d16;fill-opacity:1;fill-rule:nonzero;stroke:none;stroke-width:5.9000001;stroke-miterlimit:4;stroke-dasharray:none;stroke-opacity:1"
         d="m 1425.7437,2365.7416 c -55.5868,-4.5852 -108.0882,-9.3273 -116.6701,-10.5381 l -15.6033,-2.2012 2.3939,-50.1478 c 1.3168,-27.5813 3.7756,-51.5295 5.4643,-53.2181 1.7295,-1.7296 35.3711,1.0365 77.041,6.3344 131.9997,16.7826 219.004,26.6055 236.0845,26.654 22.6108,0.065 24.9695,5.0564 20.3888,43.149 -1.9575,16.2776 -4.4524,33.9841 -5.5442,39.3477 l -1.9851,9.7521 -50.2516,-0.3976 c -27.6383,-0.2187 -95.7315,-4.1492 -151.3182,-8.7344 z"
         id="path5288"
         inkscape:connector-curvature="0"
         inkscape:export-filename="/Users/larsaeschlimann/Desktop/SuperTeacher_Design/PNG/P3"
         inkscape:export-xdpi="344"
         inkscape:export-ydpi="344" /></g></g></svg>