<?xml version="1.0" encoding="UTF-8" standalone="no"?>
<!-- Created with Inkscape (http://www.inkscape.org/) -->

<svg
   xmlns:dc="http://purl.org/dc/elements/1.1/"
   xmlns:cc="http://creativecommons.org/ns#"
   xmlns:rdf="http://www.w3.org/1999/02/22-rdf-syntax-ns#"
   xmlns:svg="http://www.w3.org/2000/svg"
   xmlns="http://www.w3.org/2000/svg"
   xmlns:sodipodi="http://sodipodi.sourceforge.net/DTD/sodipodi-0.dtd"
   xmlns:inkscape="http://www.inkscape.org/namespaces/inkscape"
   id="svg4155"
   version="1.1"
   inkscape:version="0.91 r13725"
   xml:space="preserve"
   width="3060"
   height="4080"
   viewBox="0 0 3060 4080"
   sodipodi:docname="SuperTeacher_Phase1_v3.svg"
   enable-background="new"
   inkscape:export-filename="/Users/larsaeschlimann/Desktop/SuperTeacher_Design/PNG/P1"
   inkscape:export-xdpi="350"
   inkscape:export-ydpi="350"><metadata
     id="metadata4161"><rdf:RDF><cc:Work
         rdf:about=""><dc:format>image/svg+xml</dc:format><dc:type
           rdf:resource="http://purl.org/dc/dcmitype/StillImage" /><dc:title /></cc:Work></rdf:RDF></metadata><defs
     id="defs4159"><clipPath
       clipPathUnits="userSpaceOnUse"
       id="clipPath4171"><path
         d="m 0,0 2448,0 0,3264 L 0,3264 0,0 Z"
         id="path4173"
         inkscape:connector-curvature="0" /></clipPath><filter
       inkscape:collect="always"
       style="color-interpolation-filters:sRGB"
       id="filter4226"><feBlend
         inkscape:collect="always"
         mode="lighten"
         in2="BackgroundImage"
         id="feBlend4228" /></filter><filter
       inkscape:collect="always"
       style="color-interpolation-filters:sRGB"
       id="filter4233"><feBlend
         inkscape:collect="always"
         mode="lighten"
         in2="BackgroundImage"
         id="feBlend4235" /></filter><filter
       inkscape:collect="always"
       style="color-interpolation-filters:sRGB"
       id="filter4228"><feBlend
         inkscape:collect="always"
         mode="lighten"
         in2="BackgroundImage"
         id="feBlend4230" /></filter></defs><sodipodi:namedview
     pagecolor="#ffffff"
     bordercolor="#666666"
     borderopacity="1"
     objecttolerance="10"
     gridtolerance="10"
     guidetolerance="10"
     inkscape:pageopacity="0"
     inkscape:pageshadow="2"
     inkscape:window-width="1440"
     inkscape:window-height="856"
     id="namedview4157"
     showgrid="false"
     showguides="false"
     inkscape:zoom="0.90676046"
     inkscape:cx="2551.3004"
     inkscape:cy="2927.417"
     inkscape:window-x="0"
     inkscape:window-y="0"
     inkscape:window-maximized="0"
     inkscape:current-layer="layer5" /><g
     inkscape:groupmode="layer"
     id="layer1"
     inkscape:label="Main"><g
       id="g4163"
       inkscape:groupmode="layer"
       inkscape:label="Hauptkörper"
       transform="matrix(1.25,0,0,-1.25,0,4080)"
       style="display:inline"><g
         id="g4165"
         style="fill:#000000;stroke:#000000;stroke-width:0.80000001;stroke-miterlimit:4;stroke-dasharray:none;stroke-opacity:1" /><path
         style="opacity:1;fill:#000000;fill-opacity:1;fill-rule:nonzero;stroke:#000000;stroke-width:0.89377826;stroke-miterlimit:4;stroke-dasharray:none;stroke-opacity:1"
         d="m 1481.8635,2930.223 0,0 0,0 c -3.38,-0.026 -12.2204,-7.0322 -24.5072,-21.7073 -12.983,-15.5068 -38.7186,-38.2847 -57.1896,-50.619 -36.9728,-24.6904 -39.0468,-25.5641 -36.8055,-15.4997 2.653,11.913 -13.0799,42.9502 -21.7718,42.9502 -6.0621,0 -7.2333,-3.3476 -4.3625,-12.4692 11.1578,-35.452 22.7419,-98.7249 19.1411,-104.5512 -2.8701,-4.6438 -11.2607,-0.5324 -27.7944,13.6198 -40.0017,34.2399 -54.0967,23.2063 -16.7077,-13.0786 20.8029,-20.1886 32.8976,-48.8954 25.5845,-60.7279 -5.408,-8.7507 -12.8531,-6.7459 -16.3952,4.4147 -3.7096,11.6877 -36.6923,46.8201 -40.4384,43.0741 -3.1605,-3.1604 16.2499,-36.5402 21.2483,-36.5402 7.1695,0 17.3097,-33.2365 14.0735,-46.1309 -3.1989,-9.6793 4.3821,-14.5969 -7.8572,-24.7743 -16.8942,-14.0482 -56.0318,-32.7971 -73.4277,-39.9337 l 8.2325,-20.8031 c 9.7937,4.1119 22.0394,9.7404 37.0603,17.0028 4.4109,2.1326 8.6886,4.1805 12.8673,6.164 -1.4619,-10.0077 -2.5539,-33.8855 -2.5539,-41.285 0,-17.6111 -9.4267,-27.2667 -14.2778,-14.6252 -1.7132,4.4649 -7.9316,9.3766 -13.8169,10.9157 -17.7019,4.6293 -12.7762,-13.8798 8.5783,-32.2388 14.7269,-12.6612 19.3043,-20.9189 19.3959,-34.9813 0.067,-10.1241 3.6842,-21.9717 8.0406,-26.328 12.6576,-12.6576 27.5263,-69.6347 19.471,-74.6131 -3.6542,-2.2584 -4.9619,-6.8268 -2.9064,-10.1529 2.0555,-3.3259 1.1483,-10.8852 -2.0162,-16.7983 -6.775,-13.3254 11.508,-32.23 20.9776,-37.1408 7.1306,-3.5761 10.2441,-7.41 6.9179,-8.5188 -4.1593,-1.3865 -4.4237,-7.6802 -0.8448,-20.1588 3.6937,-12.8793 2.8858,-26.5448 -2.7861,-47.1033 -4.3942,-15.9283 -20.3248,-78.8379 -35.4002,-139.7995 -51.4278,-157.4417 -92.922,-343.344 -171.993,-467.3463 1.2935,-1.7013 2.7788,-3.1919 4.2297,-4.8112 0.3551,-0.3963 0.8059,-0.7181 1.0876,-1.1696 3.7519,-6.0142 2.9949,-4.4543 4.3887,-9.8734 -0.037,0.2611 -0.2517,1.0055 -0.1118,0.782 0.2547,-0.407 0.361,-0.8929 0.4731,-1.3599 0.3027,-1.2607 0.6446,-2.5219 0.7698,-3.8124 0.01,-0.1044 0.024,-0.2936 0.036,-0.4277 0.1016,-0.4183 0.1249,-0.5244 0.1868,-0.7838 0.1545,-0.2139 0.1506,-0.2071 0.3281,-0.4522 0.3348,-0.4064 1.8742,-2.444 2.6447,-2.9414 0.073,-0.046 0.03,0.2833 0.103,0.2374 1.1172,-0.703 5.2503,-3.9117 5.9981,-4.7377 1.5865,-1.7528 2.8841,-3.7473 4.3258,-5.621 -0.036,0.1305 -0.2031,0.4895 -0.1101,0.3909 0.4705,-0.4986 0.8309,-1.0911 1.2674,-1.62 0.1442,-0.1745 -0.4023,0.7961 -0.2426,0.6356 1.4811,-1.49 3.0051,-2.9552 4.2978,-4.6104 1.0912,-1.3993 1.882,-3.0072 2.8227,-4.5107 2.3678,-4.5288 0.6373,-1.1665 1.7893,-3.5787 0.01,0.01 0.01,0.024 0.024,0.026 0.3369,0.072 0.418,-0.5485 0.646,-0.8066 3.4899,-3.9501 -3.2776,4.1716 3.5018,-4.1076 0.2612,-0.3056 0.5334,-0.6016 0.803,-0.9006 11.7566,25.3346 28.146,58.4114 48.6933,98.0816 55.4167,106.9903 67.0561,136.5836 119.6232,304.1656 23.425,74.6782 44.8032,138.0539 47.5082,140.8365 2.9172,3.0006 7.2049,-0.9526 10.5368,-9.7163 20.5334,-54.007 64.842,-120.037 80.55,-120.037 10.9597,0 7.2442,17.6926 -6.9826,33.2515 -22.3051,24.3926 -45.5177,64.2462 -65.0747,111.7258 -17.5762,42.6702 -23.0035,60.0914 -14.5257,60.1502 4.4406,0.03 12.6963,-4.7027 25.0205,-13.0663 10.5295,-7.143 34.9569,-16.1932 54.2813,-20.1049 33.7047,-6.8222 123.243,-45.2605 145.6126,-62.5102 10.1828,-7.8522 9.3758,-8.8617 -16.0532,-20.11 -32.3263,-14.2996 -111.2195,-83.0709 -103.8039,-90.4865 3.132,-3.1319 21.0099,6.8144 46.0436,25.6176 44.5762,33.4822 54.7788,37.0766 54.7788,19.3 0,-37.3465 -60.4719,-181.2619 -155.9852,-371.2233 -33.0832,-65.7974 -60.152,-121.2858 -60.152,-123.3084 0,-2.0223 3.6957,-3.6763 8.2115,-3.6763 10.7719,0 169.3884,321.9065 194.5085,394.7479 10.227,29.6546 21.4072,70.0743 24.846,89.8214 5.5852,32.0716 8.2549,37.0842 25.0136,46.9722 15.4338,9.1062 21.7284,10.0359 35.4945,5.2371 16.6549,-13.3219 33.4319,-29.7047 31.9124,-42.1073 -2.7697,-22.0109 -26.2262,-112.7229 -41.2132,-159.3822 -8.1097,-25.248 -44.2277,-107.6607 -85.3559,-194.7617 -8.8413,-18.7242 -16.074,-35.4697 -16.074,-37.2122 0,-1.7425 -13.7167,-26.926 -30.481,-55.9641 -16.7646,-29.0383 -30.4809,-56.5589 -30.4809,-61.1575 0,-18.6289 12.2365,-5.7865 40.8745,42.9013 47.6985,81.0925 125.7158,266.9197 156.338,372.3758 10.1281,34.8785 20.7135,61.283 24.5684,61.283 3.725,0 11.2201,-11.2221 16.6553,-24.9385 9.907,-25.0006 14.1098,-27.2385 37.2769,-19.8533 9.2021,2.9334 12.4693,1.7698 12.4693,-4.4412 0,-16.88 -15.916,-68.8947 -29.1893,-95.3915 -7.4876,-14.9471 -17.9283,-40.8929 -23.2016,-57.6574 -10.3063,-32.7654 -94.6699,-207.932 -120.4052,-250.0012 -8.5969,-14.0536 -15.6306,-30.8867 -15.6306,-37.4079 0,-11.222 -2.6277,-11.8565 -49.1212,-11.8565 -27.0166,0 -62.4061,2.5193 -78.642,5.5983 -16.2359,3.0792 -54.0477,6.8569 -84.0273,8.3949 -45.3449,2.3266 -55.051,1.3852 -57.7308,-5.5983 -2.0195,-5.2626 -9.7213,-8.1471 -20.6407,-7.7298 -8.9664,0.3423 -30.6999,2.936 -55.0546,6.2338 1.8973,-1.6114 3.7705,-3.2548 5.6751,-4.846 3.8951,-3.4921 7.7389,-7.1317 11.167,-11.0954 0.9898,-1.1444 2.0753,-2.5552 3.1107,-3.9155 17.9403,-1.8279 31.1414,-2.8562 35.6953,-2.526 24.1704,1.7525 26.4419,1.2128 21.552,-36.1247 4.4344,-0.8005 8.94,-1.6106 13.0121,-3.528 1.2089,-0.5691 2.3864,-1.2059 3.549,-1.8713 0.5805,21.4543 2.5592,42.9259 5.4307,45.5704 0.8976,0.8265 6.6058,1.21 15.3234,1.2534 37.7767,0.1883 132.0629,-5.9953 136.2907,-10.048 5.8986,-5.6543 -10.5438,-21.6148 -27.1853,-26.3874 -12.3734,-3.5488 -23.9139,-2.9692 -37.3098,1.8749 -17.5467,6.3449 -20.4146,5.9178 -30.111,-4.4899 -10.6007,-11.3787 -10.5955,-11.6267 0.4783,-22.7006 12.3642,-12.3641 19.8579,-14.0559 25.0503,-5.6542 1.884,3.0481 14.5006,5.5425 28.0371,5.5425 l 24.612,0 0,-22.1681 0,-22.1681 -74.391,1.9639 -8.5292,-17.4965 c -3.3115,-6.7934 99.9454,-4.2588 106.5853,0.6453 13.9414,10.3072 11.4908,13.1199 87.7483,7.833 l 80.5971,-5.5879 1.7526,-56.0252 c 0.9647,-30.814 2.2304,-73.4823 2.8122,-94.819 1.1758,-43.1146 9.5719,-62.4343 110.1513,-253.46125 l 48.8313,-92.74525 -11.5196,-16.17881 c -6.3362,-8.89845 -11.5215,-17.6152 -11.5215,-19.37156 -37.4306,-57.91174 -67.6085,-106.68612 -103.9121,-162.23469 -6.8583,-10.45569 -12.4692,-25.51934 -12.4692,-33.47657 0,-13.81325 0.4726,-14.04108 10.4285,-5.03098 8.9199,8.07233 35.0894,45.79049 85.9356,123.86337 17.7018,27.18069 27.3042,23.77968 23.3603,-8.27443 -1.7814,-14.47841 -7.2399,-58.74465 -12.1323,-98.36977 -4.8923,-39.62503 -17.4647,-116.93543 -27.9376,-171.80089 -10.473,-54.86557 -21.8622,-123.44811 -25.3104,-152.40492 -7.4749,-62.77291 -15.0334,-73.40288 -60.5483,-85.1743 -86.2236,-22.29986 -245.7289,-25.72482 -314.6674,-6.75571 -43.2406,11.89797 -46.2471,17.35074 -20.8537,37.83722 30.6849,24.75551 34.1212,37.93721 18.1427,69.59421 -7.2356,14.33539 -23.6691,51.00309 -36.5193,81.48397 -31.3322,74.32187 -52.8718,116.63735 -75.4072,148.13678 l -18.7554,26.2146 38.9178,73.54115 c 60.6693,114.6469 124.5263,242.74499 135.32,271.45722 5.3997,14.36351 8.2161,30.28942 6.2583,35.3915 -3.289,8.57051 -4.3964,8.52031 -14.552,-0.67038 -8.7071,-7.87995 -19.8476,-34.1987 -24.5788,-58.06586 -2.2867,-19.73614 -53.0906,-102.60778 -134.36,-257.00137 -29.2857,-50.54253 -41.241,-87.34573 -78.3452,-122.52968 -17.2492,-16.25165 -54.8677,-52.33651 -83.5962,-80.19041 -28.7285,-27.85388 -66.8152,-62.37713 -84.6366,-76.71656 -28.72509,-23.11292 -33.6726,-30.15241 -43.59265,-62.02856 -6.15465,-19.77637 -14.85177,-41.54603 -19.32792,-48.37744 -15.50761,-23.6677 -66.35335,-41.05454 -173.88525,-59.46244 -57.70926,-9.87876 -154.50955,-10.11365 -222.08644,-0.53771 l -41.56419,5.88992 -1.72295,20.78552 c -1.16415,14.04242 1.85794,25.81482 9.31484,36.28704 8.29559,11.65004 10.30039,20.99887 8.07019,37.626 -2.48639,18.5375 2.85994,36.00149 32.9895,107.75087 58.14641,138.46797 81.5397,201.23445 92.73471,248.81429 6.49643,27.61068 13.04146,36.37909 76.94872,103.10392 84.21894,87.93188 85.41846,91.59521 48.45256,147.87669 -110.98439,239.43537 -82.04326,298.33737 -64.80939,386.46137 12.83226,59.1944 36.32737,116.0686 52.54264,154.2274 3.0327,-0.3594 6.50554,-0.6467 10.64504,-0.8152 4.5128,-0.1837 31.15489,-4.3723 69.15959,-10.4513 -1.29865,2.5516 -1.4772,5.6075 -0.91822,8.7143 -2.27624,0.7952 -4.53102,1.6672 -6.80458,2.4371 -5.50747,1.8645 -9.34294,4.3488 -11.76402,7.0524 -25.12035,3.5927 -44.75003,6.2701 -54.27958,7.2689 7.56104,17.8095 12.3073,29.5248 11.27173,32.2859 -3.13287,8.3539 -62.06779,-85.8478 -89.93992,-183.1878 -56.79047,-167.1986 -19.04137,-242.5495 83.72014,-456.43443 -4.43326,-13.96797 -45.28308,-64.22923 -90.63819,-111.52333 -20.03326,-20.88983 -35.85079,-40.0662 -35.15063,-42.61329 0.70006,-2.54709 -3.04066,-5.99876 -8.31282,-7.67219 -6.62391,-2.10163 -9.42456,-8.52647 -9.06348,-20.78911 0.28736,-9.7605 -4.30348,-30.36405 -10.20164,-45.78691 -5.89815,-15.42286 -14.02788,-38.33728 -18.06584,-50.92087 -4.03811,-12.58359 -9.74863,-27.54822 -12.69096,-33.25311 -11.29043,-21.89123 -28.83831,-61.63603 -28.83831,-65.31741 0,-2.11942 -5.33989,-15.56229 -11.86526,-29.87346 -35.92887,-78.79781 -54.44995,-132.39823 -54.56759,-157.91776 -0.0392,-8.53352 -3.51082,-22.25006 -7.71583,-30.48096 -4.20512,-8.23089 -9.39111,-23.0652 -11.5231,-32.96504 -3.31715,-15.40373 -1.41487,-20.4609 13.18846,-35.06336 9.385,-9.38512 17.06384,-21.34218 17.06384,-26.57239 0,-5.23022 16.8332,-27.26292 37.40776,-48.96055 34.79333,-36.69264 40.31454,-40.28277 78.97368,-51.360888 22.86061,-6.550948 60.26772,-17.765006 83.12836,-24.919253 40.48402,-12.66966 107.21457,-26.33115 174.57305,-35.742457 48.6727,-6.80067 97.04797,-6.295685 119.13439,1.242977 14.50036,4.949476 23.04596,13.406854 33.94606,33.59525 8.4355,15.623238 13.3237,31.738951 11.6121,38.284001 -4.1137,15.73068 -39.1897,48.99041 -65.29465,61.91337 -33.72172,16.69471 -74.4594,48.7019 -74.4594,58.50404 0,5.13199 8.47454,11.89539 20.22872,16.14566 34.36074,12.42477 73.9846,63.80871 73.9846,95.94157 0,13.51481 57.26813,72.71198 151.26323,156.35531 26.8057,23.85352 56.2299,54.25664 65.3854,67.56402 9.1556,13.3071 18.3964,24.14738 20.5359,24.0866 2.1396,-0.0607 14.3628,-21.88228 27.1626,-48.49265 12.7995,-26.61037 36.1061,-71.48207 51.7919,-99.71393 15.6857,-28.23177 33.0415,-66.26508 38.5687,-84.5196 l 10.0497,-33.19027 -24.1058,-23.54721 c -29.4478,-28.76599 -32.8853,-42.65262 -12.9685,-52.39955 13.1849,-6.45227 14.3036,-9.42524 11.8234,-31.4306 -1.5068,-13.36744 0.3177,-33.57022 4.0551,-44.89493 5.5311,-16.75915 11.9499,-22.97761 34.4977,-33.42409 27.6463,-12.80875 28.2067,-12.83547 281.9068,-13.22345 253.9911,-0.38809 254.2148,-0.37727 265.4155,11.6453 21.0884,22.63557 8.3015,59.52394 -29.0322,83.75507 -27.3763,17.76849 -85.845,37.02728 -112.417,37.02728 -18.2943,0 -29.4556,7.48029 -19.9371,13.36295 2.71,1.67496 5.1518,14.20241 5.4255,27.83986 0.2738,13.63744 15.3953,114.06631 33.6022,223.17393 18.2069,109.10761 35.9286,229.3821 39.3822,267.27812 3.4532,37.89566 9.6906,75.50148 13.8621,83.56827 7.1648,13.85516 4.5892,20.77641 -46.5619,125.06784 -29.7812,60.72053 -66.4096,130.35243 -81.3967,154.73713 l -27.2498,44.3346 -3.1805,180.1137 c -1.7496,99.0627 -5.2716,184.839 -7.8276,190.6139 -3.3325,7.5296 -1.8267,12.5636 5.326,17.7936 20.0023,28.3395 23.3801,48.887 39.1412,80.1834 10.729,21.3049 33.4337,77.9346 50.4566,125.8446 17.0229,47.9102 35.3969,95.8523 40.8293,106.5377 5.4325,10.6856 12.7265,30.0132 16.2102,42.9504 8.6835,32.7398 5.7619,55.9937 17.8231,84.359 18.6246,31.5815 47.147,43.4368 80.9113,45.9091 63.8116,4.4979 102.6357,21.2521 143.2106,61.8034 40.6365,40.6127 52.4048,74.1082 41.3966,117.8251 -9.534,37.8636 -26.5148,69.0389 -47.7752,87.7124 -18.2674,16.0449 -18.8048,17.6569 -15.4019,46.1519 3.1985,26.7884 4.605,29.1937 15.1715,25.9404 29.481,-9.0773 91.8327,-19.4292 116.9436,-19.417 49.7733,0.027 85.8415,34.5758 85.8795,82.2713 0.017,19.9116 -3.1121,27.1626 -17.9908,41.6741 -9.9064,9.6619 -24.0277,21.4188 -31.3818,26.1256 -12.3377,7.8965 2e-4,-5e-4 -8.2849,6.2984 l 10.9226,57.3467 -179.9304,17.4811 -141.8542,15.8314 c -77.7355,8.675 -204.2788,9.5049 -255.8441,16.8071 l -23.0828,3.2696 -6.2268,35.7599 c -3.425,19.6683 -5.8058,57.2046 -5.2893,83.4147 0.8865,45.0193 1.4364,47.0214 9.9136,36.1997 21.4996,-27.4449 190.3918,-58.4005 248.0863,-45.4709 20.9424,4.6931 37.3885,3.9982 77.8792,-3.2924 49.1461,-8.8489 151.6478,-21.7527 145.2511,-11.4027 -1.6394,2.6526 -102.9732,26.7005 -128.1979,36.6763 -42.48,16.8004 -94.3939,44.4939 -134.5345,71.7661 -32.2643,21.9207 -33.3948,11.9763 -3.0077,-26.4661 18.2158,-23.0449 27.1362,-29.2577 52.6492,-36.6746 16.8943,-4.9113 30.7165,-9.6854 30.7165,-10.6084 0,-0.923 -31.7976,-1.0859 -70.6608,-0.3631 -85.8853,1.5976 -117.5764,10.4591 -218.8063,61.1854 -38.831,19.4582 -73.3142,35.3793 -76.6293,35.3793 -12.967,0 -1.1786,-19.7966 22.519,-37.8144 30.8376,-23.4465 34.0525,-34.5451 35.1455,-121.3461 l 0.8535,-67.716 -38.7938,2.76 c -21.3365,1.5181 -53.7583,5.1634 -72.0469,8.0997 -61.3907,9.8574 -140.6842,3.9765 -161.2257,-11.956 -9.2333,-7.1615 -13.6726,0.8694 -7.1833,12.9947 3.1747,5.9318 9.2409,9.4531 13.4817,7.8258 11.9571,-4.5883 16.2905,7.6663 14.4611,40.8939 -1.0749,19.5229 1.3693,36.3378 6.7976,46.7732 5.7448,11.044 7.4195,23.9887 5.2004,40.1799 -2.5923,18.9115 -1.5574,23.8859 4.9662,23.8859 11.8051,0 76.3245,50.6881 94.8034,74.4803 13.129,16.9039 16.3106,25.8431 12.4797,25.8148 z m -85.4045,-280.4299 c 2.7503,-0.019 4.665,-0.5629 5.738,-1.6358 2.8216,-2.8215 -3.1865,-16.8852 -14.2167,-33.2756 -33.2158,-49.3584 -46.9031,-113.1269 -35.8157,-166.8538 7.5458,-36.5663 -3.3001,-42.3624 -17.8249,-9.5261 -6.373,14.4069 -12.0397,32.9312 -12.5933,41.1644 -0.5535,8.2347 -4.124,18.2645 -7.934,22.2922 -6.6014,6.9786 -10.266,43.9011 -8.2116,82.7337 0.5559,10.509 -1.4381,23.2907 -4.3171,29.8979 50.0642,23.4256 82.1014,35.2884 95.1753,35.2031 z m 141.1627,-10.0096 c 19.6048,-0.01 48.6106,-2.7606 63.893,-7.159 12.987,-3.7377 17.3112,-68.316 5.2509,-78.4133 -4.5507,-3.8102 -16.5268,-6.9268 -26.6125,-6.9268 -15.1906,0 -18.4136,2.1397 -18.7816,12.4692 -0.7412,20.7986 -18.4932,67.8432 -25.8794,68.5818 -3.8103,0.381 -9.4211,1.0051 -12.4693,1.3861 -3.0482,0.3809 -5.5425,3.4764 -5.5425,6.8796 0,2.2051 8.3785,3.1877 20.1414,3.1824 z m -72.581,-1.6009 c 11.8714,-0.169 23.1532,-4.8323 33.192,-13.8796 6.8203,-6.1466 15.8206,-8.9243 22.9118,-7.0701 9.7883,2.5598 13.2477,-1.0536 21.3685,-22.3182 6.2363,-16.3293 8.6279,-33.2891 6.7104,-47.5849 l -2.9781,-22.2136 28.5677,0.077 c 15.7123,0.041 34.472,1.6558 41.6882,3.5873 12.9313,3.4611 13.0644,4.2186 9.2816,52.5723 l -3.8369,49.0618 32.2825,0.1415 c 17.7553,0.077 70.32,-6.7654 117.3014,-9.6134 l 80.1207,-4.8564 -14.4141,-154.463 c -1.433,-15.3564 39.0013,-16.9797 65.5741,-17.3363 143.2983,-2.5438 149.9685,-10.7412 140.599,-50.5612 -7.872,-33.4552 -7.4354,-34.3069 -28.0824,-37.7954 -30.5123,-5.1548 -54.203,4.9412 -85.0311,36.2401 -29.3139,29.7613 -38.193,10.3958 -37.6697,-1.3129 49.8936,-45.8825 74.2167,-54.3252 163.9332,-68.6533 13.5018,-4.0761 41.809,-55.2983 45.9982,-83.2348 8.6912,-57.9574 -47.0018,-115.0744 -134.4019,-137.8391 -37.7848,-9.8419 -88.315,-9.7046 -191.5094,0.522 -82.0212,8.1282 -70.1747,4.0331 -195.7688,67.681 -24.5725,12.4508 -66.4779,28.1061 -93.1311,34.7911 -77.6262,19.4692 -98.2308,41.4881 -82.1072,87.7403 4.7555,13.6414 3.1925,17.0356 -14.9498,32.4815 -11.1429,9.4865 -28.9451,23.0881 -39.5619,30.226 -24.7673,16.6518 -27.4096,32.432 -7.0001,41.8069 9.5618,4.3923 16.0217,4.9699 17.1668,1.5344 1.0098,-3.0292 9.8856,-14.554 19.7242,-25.6105 14.3675,-16.1459 22.9319,-20.6705 43.5124,-22.9904 24.7444,-2.789 26.5571,-1.9566 52.7765,24.2629 14.9335,14.9335 28.4618,32.1636 30.0638,38.2893 3.8546,14.7397 -4.017,35.0522 -15.2553,39.3647 -9.0983,3.4915 -21.7047,-9.2164 -14.5221,-14.6391 11.3668,-8.5819 5.7541,-27.4804 -13.0698,-44.0081 -16.8711,-14.8131 -23.8826,-17.4118 -43.1702,-16.0059 -21.1004,1.538 -24.0699,3.7458 -35.4962,26.4048 -10.3903,20.6047 -12.4693,33.7456 -12.4693,78.8148 0,45.9352 2.1316,58.9071 14.1381,86.0558 16.5691,37.4659 31.9638,55.6569 55.6498,65.7573 7.4067,3.1584 14.7417,4.675 21.8645,4.5736 z m 420.7566,-25.8794 129.6729,-13.3158 -12.6229,-128.76 -129.411,3.9889 z m 178.5234,-21.9813 c 4.4884,0.021 9.8438,-2.1045 15.7756,-6.4816 7.3106,-5.3948 9.1268,-9.9449 5.436,-13.6232 -3.0482,-3.0376 -12.598,-7.2664 -21.2203,-9.3968 -14.714,-3.6357 -15.5638,-2.8953 -13.8536,12.031 1.3116,11.4474 6.3817,17.4372 13.8623,17.4706 z m 52.8953,-4.2437 82.5366,-8.765 -6.1517,-22.1699 c -0.7151,-5.545 -69.1253,10.9787 -80.2131,13.1815 z m -19.9878,-43.9208 c 1.2365,0.01 2.4841,0.01 3.7427,0 22.8209,-0.1592 49.057,-3.1427 71.0955,-8.7895 56.7221,-14.5334 76.4835,-31.0313 76.7776,-64.09 0.1953,-21.9381 -13.8799,-39.055 -40.3648,-49.0899 -8.5807,-3.2511 -21.0489,-5.7115 -27.7089,-5.4709 -32.2489,1.1804 -84.9499,17.5495 -114.7668,35.6622 -29.3501,17.8293 -33.1123,22.1233 -33.0453,37.7289 0.1225,28.465 5.4885,40.7812 20.8118,47.763 8.9877,4.0951 24.9112,6.1598 43.4582,6.2862 z M 1364.8067,2320.572 c 3.7912,0.024 9.1044,-2.4479 15.8994,-7.4365 8.4165,-6.1791 8.655,-9.6157 2.2135,-31.82 -4.5716,-15.7589 -8.7817,-22.3683 -11.4742,-18.0117 -7.5806,14.4249 -10.432,23.6014 -12.8324,36.425 -2.2435,13.825 -0.1307,20.8022 6.1937,20.8432 z m 350.162,-237.3051 38.4185,-3.6292 c 21.1308,-1.9957 52.6978,-5.0663 70.1476,-6.8239 l 31.7256,-3.1946 -9.5575,-12.8881 c -5.2574,-7.0887 -22.15,-20.5685 -37.5386,-29.9538 -15.3885,-9.3853 -30.9438,-17.0639 -34.5677,-17.0639 -3.6238,0 -12.7617,9.3517 -20.3055,20.7822 -7.5436,11.4304 -19.2519,27.9806 -26.019,36.7775 z m -45.4938,-544.7665 c 4.8626,-0.1398 8.7215,-4.8462 8.7215,-13.7107 0,-11.0839 -2.7697,-13.8535 -13.8537,-13.8535 -15.5039,0 -16.3102,1.6852 -8.119,16.9905 3.889,7.2667 8.9609,10.6969 13.2512,10.5737 z m -40.3631,-42.4022 c 14.4474,0 25.9144,-0.2964 30.9123,-0.8798 l 18.1723,-2.121 0,-40.9584 c 0,-35.7153 -1.2402,-40.821 -9.6972,-39.8972 -5.3342,0.5828 -41.2994,2.453 -79.9216,4.1565 -38.6222,1.7033 -71.8191,4.7046 -73.7716,6.6701 -1.9525,1.9658 -1.857,18.5339 0.2111,36.8178 l 3.7602,33.2426 61.5364,2.107 c 16.9222,0.5785 34.3508,0.8654 48.7981,0.8624 z"
         id="path4308"
         inkscape:connector-curvature="0"
         sodipodi:nodetypes="sccsccssssscssscsccscsssscssccccsccccccccccccccscccccccccccssccscsccssscssssssssccsssssssssssssssssscccccccccccsssscscsccccscsccssccccssssssssssssccsscscccsssssscsssssscccccccccsccsccsscssscsscsssssssscsssscsssscsccsssssscsssssccssccsscccssscsccsscccscccccsscssssssssscccsscssscsscssssscsscssscssssssscsscccsccsscscsssccssscssssscssscccsssssssccsccsscssscccccccssscsssccsccccccsccsssscssccscccssscsccccc"
         inkscape:export-filename="/Users/larsaeschlimann/Desktop/SuperTeacher_Design/PNG/P1"
         inkscape:export-xdpi="350"
         inkscape:export-ydpi="350" /><path
         style="opacity:1;fill:#000000;fill-opacity:1;fill-rule:nonzero;stroke:#000000;stroke-width:0.89377826;stroke-miterlimit:4;stroke-dasharray:none;stroke-opacity:1"
         d="m 1978.6263,2669.4622 c -21.3591,8.5734 -114.4327,12.9979 -133.5116,6.3469 -17.0244,-5.9348 -23.8747,-0.4375 -10.3569,8.3114 3.8101,2.4659 40.283,8.3086 81.0508,12.984 69.7868,8.0029 75.4146,7.9221 96.1937,-1.3809 15.9981,-7.1627 21.1443,-12.2944 18.7045,-18.6522 -1.8511,-4.8239 -3.3657,-9.8137 -3.3657,-11.0885 0,-4.248 -35.8409,-1.6881 -48.7148,3.4793 z"
         id="path4310"
         inkscape:connector-curvature="0"
         inkscape:export-filename="/Users/larsaeschlimann/Desktop/SuperTeacher_Design/PNG/P1"
         inkscape:export-xdpi="350"
         inkscape:export-ydpi="350" /><path
         style="opacity:1;fill:#000000;fill-opacity:1;fill-rule:nonzero;stroke:#000000;stroke-width:0.89377826;stroke-miterlimit:4;stroke-dasharray:none;stroke-opacity:1"
         d="m 2225.0067,2627.6838 c -33.845,12.7859 -145.0578,21.3841 -121.6362,58.0342 60.6061,-4.7616 111.7734,-29.1694 150.0342,-48.1872 7.5245,-3.4284 12.3653,-8.3628 10.7568,-10.9651 -4.133,-6.6873 -32.1495,-5.8874 -39.1548,1.1181 z"
         id="path4312"
         inkscape:connector-curvature="0"
         sodipodi:nodetypes="cccsc"
         inkscape:export-filename="/Users/larsaeschlimann/Desktop/SuperTeacher_Design/PNG/P1"
         inkscape:export-xdpi="350"
         inkscape:export-ydpi="350" /><path
         style="opacity:1;fill:#000000;fill-opacity:1;fill-rule:nonzero;stroke:#000000;stroke-width:0.89377826;stroke-miterlimit:4;stroke-dasharray:none;stroke-opacity:1"
         d="m 2373.7143,2664.4025 c -49.6208,11.5634 -63.9097,16.6606 -60.8021,21.6892 1.7961,2.9058 -1.8093,5.2833 -8.0116,5.2833 -15.0628,0 -43.5368,17.8092 -40.9114,25.5884 3.0828,9.1341 -26.1275,13.2557 -52.2887,7.3776 -30.1469,-6.7734 -75.8918,2.1072 -101.0567,19.6189 -54.5887,37.9868 -99.9286,89.463 -99.9286,113.4533 0,14.5054 17.234,2.9076 41.4145,-27.8702 56.0371,-71.3263 90.9481,-92.9697 138.4669,-85.8438 13.8444,2.076 25.1714,5.7794 25.1714,8.2297 0,2.4502 -5.1703,11.0279 -11.4895,19.0614 -6.3191,8.0337 -10.6834,18.4655 -9.6985,23.1821 1.3526,6.4752 6.7008,3.9325 21.8377,-10.382 46.5235,-43.9958 128.1093,-90.5259 168.4147,-96.0503 34.3003,-4.7014 32.8305,3.8979 -9.2543,54.1453 -18.7873,22.4312 -39.7581,53.2867 -46.6019,68.5679 -33.109,73.9282 -112.6145,249.8576 19.2021,16.6148 14.2785,-25.2651 39.0009,-67.493 57.8211,-92.3058 18.8202,-24.8128 36.5677,-48.2574 39.439,-52.0991 3.4052,-4.5562 2.6875,-10.0371 -2.0641,-15.7625 -8.0847,-9.7416 -34.5105,-10.6893 -69.66,-2.4982 z"
         id="path4314"
         inkscape:connector-curvature="0"
         sodipodi:nodetypes="scssssssssscsssssssss"
         inkscape:export-filename="/Users/larsaeschlimann/Desktop/SuperTeacher_Design/PNG/P1"
         inkscape:export-xdpi="350"
         inkscape:export-ydpi="350" /><path
         style="opacity:1;fill:#000000;fill-opacity:1;fill-rule:nonzero;stroke:#000000;stroke-width:1;stroke-miterlimit:4;stroke-dasharray:none;stroke-opacity:1"
         d=""
         id="path4316"
         inkscape:connector-curvature="0"
         transform="matrix(0.8,0,0,-0.8,0,3264)" /><path
         style="opacity:1;fill:#000000;fill-opacity:1;fill-rule:nonzero;stroke:#000000;stroke-width:0.89377826;stroke-miterlimit:4;stroke-dasharray:none;stroke-opacity:1"
         d="m 1867.4945,2938.2896 c -59.1022,23.8425 -133.8776,76.81 -133.8776,94.8325 0,11.2739 3.7661,9.453 37.782,-18.2659 34.8248,-28.3783 109.0965,-67.6106 115.629,-61.0782 2.2923,2.2925 -0.2985,16.7433 -5.7572,32.1131 -10.9438,30.813 -7.9313,41.5645 6.5147,23.2511 12.7959,-16.2215 52.3132,-35.1268 73.4242,-35.1268 14.4811,0 16.742,1.6453 13.3273,9.6984 -20.3615,48.0193 -23.7027,67.8892 -11.4154,67.8892 4.8068,0 9.2658,-8.5231 11.5583,-22.094 2.0531,-12.1516 9.8767,-31.1473 17.3857,-42.2126 12.8991,-19.0078 13.1345,-20.6915 4.2653,-30.492 -7.5072,-8.2953 -13.9453,-9.6571 -32.1389,-6.7978 -12.5132,1.9665 -28.4403,7.2638 -35.3936,11.7718 -17.4261,11.2979 -21.5166,4.5612 -10.8337,-17.8413 12.7262,-26.6872 4.082,-27.6545 -50.4701,-5.6475 z"
         id="path4318"
         inkscape:connector-curvature="0"
         inkscape:export-filename="/Users/larsaeschlimann/Desktop/SuperTeacher_Design/PNG/P1"
         inkscape:export-xdpi="350"
         inkscape:export-ydpi="350" /><path
         style="opacity:1;fill:#000000;fill-opacity:1;fill-rule:nonzero;stroke:#000000;stroke-width:0.89377826;stroke-miterlimit:4;stroke-dasharray:none;stroke-opacity:1"
         d="m 2323.8365,2909.2562 c -9.1443,6.988 -36.577,24.965 -60.9617,39.949 -58.4124,35.8938 -85.921,61.938 -105.6739,100.0489 -8.9371,17.2435 -18.5273,35.6217 -21.3113,40.8401 -8.003,15.0008 -60.9029,37.0229 -139.0293,57.8775 -95.596,25.5177 -162.9652,53.7618 -151.5235,65.2035 4.9083,4.9081 226.0684,-61.6151 263.0139,-78.3504 35.4285,-16.0481 52.4768,-35.0089 79.7135,-88.6558 21.5208,-42.3887 74.245,-89.7687 128.947,-115.8769 26.6145,-12.7026 48.39,-25.5185 48.39,-28.4798 0,-9.8587 -24.7154,-5.4324 -41.5647,7.4439 z"
         id="path4320"
         inkscape:connector-curvature="0"
         sodipodi:nodetypes="sssssssssss"
         inkscape:export-filename="/Users/larsaeschlimann/Desktop/SuperTeacher_Design/PNG/P1"
         inkscape:export-xdpi="350"
         inkscape:export-ydpi="350" /><path
         style="opacity:1;fill:#000000;fill-opacity:1;fill-rule:nonzero;stroke:#000000;stroke-width:0.89377826;stroke-miterlimit:4;stroke-dasharray:none;stroke-opacity:1"
         d="m 1744.3148,3183.8891 c 9.4036,17.5709 89.6342,45.1185 130.6222,44.8497 20.6924,-0.1356 21.4519,-0.687 11.4102,-8.2821 -5.9168,-4.4752 -17.15,-8.1365 -24.9629,-8.1365 -12.3644,0 -47.1468,-11.1577 -101.8039,-32.6573 -20.7299,-8.1541 -21.7415,-7.874 -15.2656,4.2262 z"
         id="path4322"
         inkscape:connector-curvature="0"
         inkscape:export-filename="/Users/larsaeschlimann/Desktop/SuperTeacher_Design/PNG/P1"
         inkscape:export-xdpi="350"
         inkscape:export-ydpi="350" /><path
         style="opacity:1;fill:#000000;fill-opacity:1;fill-rule:nonzero;stroke:#000000;stroke-width:1;stroke-miterlimit:4;stroke-dasharray:none;stroke-opacity:1"
         d=""
         id="path4324"
         inkscape:connector-curvature="0"
         transform="matrix(0.8,0,0,-0.8,0,3264)" /><path
         style="opacity:1;fill:#000000;fill-opacity:1;fill-rule:nonzero;stroke:#000000;stroke-width:0.89377826;stroke-miterlimit:4;stroke-dasharray:none;stroke-opacity:1"
         d="m 1428.5187,3028.8934 c 10.1337,18.9348 59.3252,50.3096 131.6186,83.9475 39.0242,18.1577 80.146,37.9761 91.3816,44.0405 11.2359,6.0648 24.0717,9.6287 28.5244,7.9199 9.839,-3.7756 33.5681,20.188 48.6195,49.0999 13.0546,25.0764 20.3123,23.2511 17.0959,-4.2999 -1.2853,-11.0096 10.0426,-26.5189 8.4097,-24.8859 -1.6329,1.6328 -19.4252,7.5759 -22.7746,3.6273 -18.2622,-21.5283 -77.4983,-66.6057 -79.5274,-60.5186 -3.0603,9.1809 -25.8393,3.2377 -49.7295,-12.9747 -10.2364,-6.9467 -31.6014,-16.8791 -47.4778,-22.0721 -33.237,-10.8717 -65.9271,-26.5547 -76.7802,-36.8355 -12.0549,-11.4193 -48.0264,-37.5906 -51.6666,-37.5906 -1.8346,0 -0.7968,4.7439 2.3064,10.5422 z"
         id="path4326"
         inkscape:connector-curvature="0"
         sodipodi:nodetypes="ssssssccssssss"
         inkscape:export-filename="/Users/larsaeschlimann/Desktop/SuperTeacher_Design/PNG/P1"
         inkscape:export-xdpi="350"
         inkscape:export-ydpi="350" /><path
         style="opacity:1;fill:#000000;fill-opacity:1;fill-rule:nonzero;stroke:#000000;stroke-width:0.89377826;stroke-miterlimit:4;stroke-dasharray:none;stroke-opacity:1"
         d="m 1357.716,2857.4255 c -0.9756,0.9933 16.6436,65.3863 18.8026,73.6461 4.8291,18.493 28.3502,81.7567 32.1602,86.5005 1.53,1.9051 6.0583,3.4446 10.0628,3.4214 4.0592,-0.024 5.9184,-0.9434 4.2018,-2.0783 -1.6934,-1.1197 -3.9179,-7.7321 -4.9434,-14.6942 -2.2534,-15.2995 -14.1012,-41.0362 -28.9716,-62.9337 -6.0341,-8.8856 -26.0968,-96.4066 -11.9273,-22.5009 -0.5261,-3.4897 -18.4094,-62.3543 -19.3851,-61.3609 z"
         id="path4328"
         inkscape:connector-curvature="0"
         sodipodi:nodetypes="ccccscscc"
         inkscape:export-filename="/Users/larsaeschlimann/Desktop/SuperTeacher_Design/PNG/P1"
         inkscape:export-xdpi="350"
         inkscape:export-ydpi="350" /><path
         style="opacity:1;fill:#000000;fill-opacity:1;fill-rule:nonzero;stroke:#000000;stroke-width:0.89377826;stroke-miterlimit:4;stroke-dasharray:none;stroke-opacity:1"
         d="m 1402.152,2453.5086 c -1.9047,3.5217 -4.0039,16.4623 -4.6649,28.7568 -1.0631,19.7752 -0.3695,24.1129 6.0108,37.6 10.0898,21.3277 28.3295,46.0063 37.5131,50.7553 6.786,3.5092 8.4717,3.4883 13.6937,-0.1692 7.212,-5.0516 7.6596,-13.1544 1.1059,-20.0241 -7.3115,-7.6642 -12.1617,-16.9909 -10.3556,-19.9132 0.8849,-1.4317 13.959,-8.947 29.0538,-16.7006 42.6146,-21.8896 47.592,-27.2941 35.5063,-38.5536 -8.9021,-8.2938 -13.5751,-7.0725 -27.3031,7.136 -15.2254,15.7582 -25.7113,20.4659 -45.5851,20.4659 -14.2445,0 -15.6161,-0.5708 -18.3099,-7.6202 -1.6016,-4.1912 -2.506,-16.3489 -2.0097,-27.0171 0.8444,-18.1535 0.5146,-19.4521 -5.145,-20.2579 -4.0306,-0.5737 -7.202,1.2743 -9.5103,5.5419 z"
         id="path4332"
         inkscape:connector-curvature="0"
         inkscape:export-filename="/Users/larsaeschlimann/Desktop/SuperTeacher_Design/PNG/P1"
         inkscape:export-xdpi="350"
         inkscape:export-ydpi="350" /><path
         style="opacity:1;fill:#000000;fill-opacity:1;fill-rule:nonzero;stroke:#000000;stroke-width:0.89377826;stroke-miterlimit:4;stroke-dasharray:none;stroke-opacity:1"
         d="m 1457.3033,1572.3267 c -1.9766,1.1182 -6.0291,5.5759 -9.0057,9.9058 -5.0561,7.3553 -5.3997,8.4851 -5.2257,17.1872 0.2343,11.7207 3.102,18.0031 12.3898,27.1426 13.0888,12.8799 26.6346,16.3699 40.217,10.3619 3.675,-1.6258 7.7604,-3.932 9.0789,-5.125 3.457,-3.1286 6.8836,-19.3737 5.3648,-25.4348 -3.3119,-13.2178 -4.3248,-15.0068 -12.1871,-21.5262 -14.4609,-11.9909 -32.0042,-17.3929 -40.632,-12.5115 z m 21.9771,27.8691 c 6.5261,2.7268 11.4185,7.2915 10.4686,9.7671 -0.4049,1.055 -3.0758,2.6191 -5.9353,3.476 -4.2632,1.2771 -6.0458,1.1506 -9.9015,-0.7034 -6.0729,-2.9201 -11.4448,-10.3245 -9.3349,-12.8667 2.0232,-2.4378 8.427,-2.2954 14.7031,0.327 z"
         id="path4334"
         inkscape:connector-curvature="0"
         inkscape:export-filename="/Users/larsaeschlimann/Desktop/SuperTeacher_Design/PNG/P1"
         inkscape:export-xdpi="350"
         inkscape:export-ydpi="350" /><path
         style="opacity:1;fill:#000000;fill-opacity:1;fill-rule:nonzero;stroke:#000000;stroke-width:0.89377826;stroke-miterlimit:4;stroke-dasharray:none;stroke-opacity:1"
         d="m 1544.0266,1759.2471 c -9.2966,4.3137 -11.4105,7.8095 -12.4791,20.638 -0.9179,11.0199 -0.7285,12.3803 2.8271,20.3028 3.2063,7.1452 5.112,9.3606 12.0158,13.971 8.2394,5.5019 15.6841,7.9119 20.167,6.5279 10.1871,-3.145 21.6991,-7.9694 22.6697,-9.5004 0.6441,-1.016 1.1807,-6.1206 1.1922,-11.3433 0.02,-8.28 -0.6308,-10.7366 -5.0717,-19.1876 -5.5203,-10.5051 -10.8093,-16.5686 -17.4465,-20.0009 -5.8881,-3.0448 -18.7159,-3.801 -23.8745,-1.4075 z m 21.9789,28.1129 c 4.594,4.5939 4.8518,8.8285 0.5354,8.7863 -5.5738,-0.055 -14.8941,-5.1227 -14.8941,-8.0992 0,-5.4322 9.1747,-5.8711 14.3587,-0.6871 z"
         id="path4336"
         inkscape:connector-curvature="0"
         inkscape:export-filename="/Users/larsaeschlimann/Desktop/SuperTeacher_Design/PNG/P1"
         inkscape:export-xdpi="350"
         inkscape:export-ydpi="350" /><path
         style="opacity:1;fill:#000000;fill-opacity:1;fill-rule:nonzero;stroke:#000000;stroke-width:0.89377826;stroke-miterlimit:4;stroke-dasharray:none;stroke-opacity:1"
         d="m 1616.9412,1922.3626 c -5.4037,2.1631 -13.9616,9.5956 -16.3365,14.188 -1.7354,3.3563 -2.0483,6.7557 -1.429,15.5314 0.9332,13.2249 2.4113,16.9427 9.9162,24.9436 7.2923,7.7744 26.3707,20.061 31.0578,20.0014 5.5304,-0.07 9.8792,-4.6356 12.1362,-12.7407 2.8159,-10.1128 2.4652,-19.2516 -1.1496,-29.9529 -2.6213,-7.7604 -4.4753,-10.431 -12.49,-17.9917 -5.1767,-4.8835 -9.4119,-9.6384 -9.4119,-10.5668 0,-0.9284 -1.588,-2.4116 -3.529,-3.296 -4.089,-1.863 -4.3903,-1.8671 -8.7642,-0.1163 z m 12.7721,33.3606 c 5.7884,3.9547 7.8044,6.5632 6.8979,8.9256 -1.1446,2.9828 -6.1822,2.3182 -11.9045,-1.5702 -5.6385,-3.8314 -6.5137,-6.6504 -2.7462,-8.8447 3.176,-1.8498 2.7436,-1.9329 7.7528,1.4893 z"
         id="path4338"
         inkscape:connector-curvature="0"
         inkscape:export-filename="/Users/larsaeschlimann/Desktop/SuperTeacher_Design/PNG/P1"
         inkscape:export-xdpi="350"
         inkscape:export-ydpi="350" /><path
         style="opacity:1;fill:#000000;fill-opacity:1;fill-rule:nonzero;stroke:#000000;stroke-width:0.89377826;stroke-miterlimit:4;stroke-dasharray:none;stroke-opacity:1"
         d="m 1434.9843,272.28141 c -4.4057,4.4058 -5.0775,7.72788 -2.6429,13.07115 2.7836,6.1096 8.5632,8.03177 34.2749,11.39872 28.5308,3.73617 36.078,5.01132 94.4577,15.95939 55.9372,10.48992 88.0263,15.7162 115.5195,18.81421 l 21.9986,2.47889 2.5938,-3.2033 c 1.4266,-1.76172 2.5938,-3.98527 2.5938,-4.94107 0,-2.6841 -5.3636,-8.87576 -9.5759,-11.05389 -5.5103,-2.84955 -45.6825,-12.41788 -72.1681,-17.18932 -32.4208,-5.84066 -34.0424,-6.09262 -103.912,-16.14361 -56.0641,-8.065 -67.1078,-9.88696 -76.5584,-12.63078 -1.5162,-0.44019 -3.9987,0.8574 -6.581,3.43961 z"
         id="path4340"
         inkscape:connector-curvature="0"
         inkscape:export-filename="/Users/larsaeschlimann/Desktop/SuperTeacher_Design/PNG/P1"
         inkscape:export-xdpi="350"
         inkscape:export-ydpi="350" /><path
         style="opacity:1;fill:#000000;fill-opacity:1;fill-rule:nonzero;stroke:#000000;stroke-width:3.21760154;stroke-miterlimit:4;stroke-dasharray:none;stroke-opacity:1"
         d="m 2143.9508,2679.1849 c -4.8495,1.1055 -8.9663,2.1226 -9.1484,2.2603 -0.1823,0.1376 1.2889,7.4489 3.2689,16.2472 1.9803,8.7984 4.1553,18.7578 4.8335,22.132 0.6783,3.3743 1.4115,6.2692 1.6294,6.4331 0.2179,0.1638 4.915,-0.7814 10.4381,-2.1007 l 10.0419,-2.3988 0,-7.5157 c 0,-5.9275 -0.6926,-9.5746 -3.2769,-17.26 -1.8023,-5.3595 -3.8302,-12.0591 -4.5065,-14.8879 -1.413,-5.9122 -0.7472,-5.7663 -13.28,-2.9095 z"
         id="path4437"
         inkscape:connector-curvature="0"
         inkscape:export-filename="/Users/larsaeschlimann/Desktop/SuperTeacher_Design/PNG/P1"
         inkscape:export-xdpi="350"
         inkscape:export-ydpi="350" /><path
         style="opacity:1;fill:#000000;fill-opacity:1;fill-rule:nonzero;stroke:#000000;stroke-width:5.27329159;stroke-miterlimit:4;stroke-dasharray:none;stroke-opacity:1"
         d="m 2119.0005,2620.3706 c 0,2.4018 6.1013,30.0164 6.7868,30.7169 0.4271,0.4366 5.4717,-0.6656 11.2099,-2.4491 8.2645,-2.5689 10.2958,-3.5485 9.7715,-4.7125 -0.5184,-1.1509 -4.4656,-13.0436 -7.7227,-23.2677 -0.4748,-1.4899 -20.0455,-1.7708 -20.0455,-0.2876 z"
         id="path4439"
         inkscape:connector-curvature="0"
         inkscape:export-filename="/Users/larsaeschlimann/Desktop/SuperTeacher_Design/PNG/P1"
         inkscape:export-xdpi="350"
         inkscape:export-ydpi="350" /><path
         style="display:inline;opacity:1;fill:#000000;fill-rule:evenodd;stroke:#000000;stroke-width:1.34035265px;stroke-linecap:butt;stroke-linejoin:miter;stroke-opacity:1;filter:url(#filter4226)"
         d="m 2120.9392,915.08543 c 0,0 -39.6374,-2.70104 -40.566,26.81402 -1.0739,34.13252 63.5771,33.76115 66.9467,16.7544 8.7867,-44.34492 -26.3807,-43.56842 -26.3807,-43.56842 z"
         id="path4234"
         inkscape:connector-curvature="0"
         sodipodi:nodetypes="cssc"
         transform="matrix(0.89377824,0,0,-0.89377824,57.907336,3378.8526)"
         inkscape:export-filename="/Users/larsaeschlimann/Desktop/SuperTeacher_Design/PNG/P1"
         inkscape:export-xdpi="350"
         inkscape:export-ydpi="350" /></g><g
       inkscape:groupmode="layer"
       id="layer2"
       inkscape:label="Arme2"
       style="display:inline;opacity:1;filter:url(#filter4226)"><g
         inkscape:groupmode="layer"
         id="layer4"
         inkscape:label="Hände"
         style="display:inline;opacity:0.98999999;filter:url(#filter4233)"><path
           style="display:inline;opacity:1;fill:#000000;fill-opacity:1;fill-rule:nonzero;stroke:none;stroke-width:5.9000001;stroke-miterlimit:4;stroke-dasharray:none;stroke-opacity:1"
           d="m 1757.143,2314.6169 c -0.2497,1.7636 -0.7305,3.6501 -1.4969,5.6297 l 0,0 c -0.1842,0.4759 -0.315,0.9754 -0.5521,1.4271 -1.5218,2.9009 -2.7795,4.6781 -4.3248,7.4889 -0.1324,0.241 -0.2577,0.4855 -0.3818,0.7309 8.5033,1.5635 18.5366,3.136 30.1212,4.6633 14.1633,1.9008 136.7505,31.121 104.0676,46.8557 -14.0455,10.3844 -20.5583,9.8434 -51.7762,16.3874 l -23.1518,4.8616 -6.1121,-12.2348 c -3.9004,-7.8045 -9.0411,-11.693 -14.2163,-10.7359 -10.5571,1.9558 -13.4823,19.6796 -5.6558,34.2673 13.5682,25.2897 63.5087,52.4745 66.5228,36.2115 0.6533,-3.5258 -4.6066,-10.175 -11.6895,-14.7748 -16.4903,-10.7088 -15.5045,-14.5414 4.3096,-16.7627 45.4547,-5.0944 97.1539,14.7102 116.7521,44.7238 14.8454,22.7342 10.5019,36.9454 -14.764,48.2958 -23.7256,10.658 -25.6118,17.3412 -6.5528,23.2218 34.5682,10.6654 41.0819,39.9236 -33.1566,72.2179 -18.9344,8.2368 -22.5561,12.4912 -19.2416,18.4234 2.2815,4.0842 7.0352,6.0154 10.6857,6.2146 8.0988,0.501 48.3108,7.535 5.1344,32.192 -7.0739,6.842 -21.0672,12.4798 -36.1505,14.5653 -13.9115,1.9245 -25.134,6.233 -25.8161,9.9133 -1.2483,6.7354 6.6598,8.1607 43.0481,7.7595 16.2053,-0.1791 17.8875,0.7951 16.289,9.4199 -1.9592,10.5716 -32.7318,29.225 -49.7228,30.141 -18.739,1.0102 -86.855,-20.7958 -128.5833,-41.1649 -14.554,-7.1043 -30.9531,-14.8187 -36.4429,-17.1422 -9.1365,-4.0357 -16.9119,-11.8543 -41.8936,-28.391 -7.7207,-6.4188 -14.862,-11.834 -21.417,-16.4049 0.257,1.3506 -0.072,2.0191 -0.8118,2.2082 -0.8622,2.6912 -3.187,4.7458 -5.5599,6.8561 -3.6989,3.2904 -4.8986,4.1637 -9.1233,7.5805 33.9624,25.6726 98.4092,62.587 150.7247,83.1132 80.3913,31.5415 111.3207,32.5449 149.8148,4.8594 24.3498,-17.5118 29.6813,-27.2345 24.2669,-44.2458 -2.0943,-6.5807 0,-12.3497 5.405,-20.2171 8.4602,-12.3293 30.6577,-26.8017 16.7648,-59.8565 3.7807,-1.9969 12.5887,-10.1459 19.5755,-18.109 l 0,0 c 15.4135,-17.5682 18.5249,-31.5149 11.386,-51.0542 -4.3005,-11.7694 -4.0947,-16.8602 1.8243,-24.45 11.8269,-15.1657 17.6837,-28.23 -1.3443,-55.9158 -14.4072,-20.9628 -24.0103,-29.3668 -45.7777,-40.0651 -26.137,-12.8456 -31.6242,-20.5882 -20.4111,-28.7925 10.4187,-7.6226 0.6399,-26.6183 -21.8316,-42.4108 -28.6133,-20.109 -86.2626,-36.0363 -135.507,-37.44 -1.1527,-0.033 -2.136,-0.035 -3.2338,-0.06 z m -136.9776,320.2087 c 0.2513,-0.784 0.3884,-1.618 0.3535,-2.5289 -2.8221,-1.9589 -5.491,-3.7035 -8.0758,-5.3375 -1.1793,1.0474 -2.5079,2.0952 -4.0172,3.1248 4.4006,2.1092 9.6608,5.2731 11.7395,4.7416 z m -38.459,-11.9556 c 0,0.017 0.016,0.021 0.037,0 -0.012,0 -0.024,0 -0.037,0 z m 23.3154,15.0956 c 0.032,0.055 0.059,0.1073 0.092,0.1615 1.6108,2.6245 5.9323,1.654 8.8985,2.4811 -5.7522,-2.133 -7.893,-2.1941 -8.9902,-2.6426 z"
           id="path4757"
           inkscape:connector-curvature="0"
           inkscape:export-filename="/Users/larsaeschlimann/Desktop/SuperTeacher_Design/PNG/P1"
           inkscape:export-xdpi="350"
           inkscape:export-ydpi="350" /></g><path
         style="opacity:1;fill:#000000;fill-opacity:1;fill-rule:nonzero;stroke:none;stroke-width:5.9000001;stroke-miterlimit:4;stroke-dasharray:none;stroke-opacity:1"
         d="m 2115.1414,2228.8446 c -3.7048,-4.4642 18.3114,-35.3222 35.6791,-58.6 6.8772,-9.2171 19.1531,-27.8188 27.2801,-41.3371 8.1269,-13.5185 22.7411,-36.6449 32.4761,-51.3923 16.0664,-24.3386 49.6895,-87.7647 47.6219,-89.8324 -0.4688,-0.4688 -13.507,13.1289 -28.9737,30.2171 -32.1822,35.5559 -41.6949,44.4439 -49.7268,46.4596 -7.8815,1.9782 -11.4707,-1.9861 -7.8769,-8.7009 1.5272,-2.8537 14.3198,-18.1227 28.4281,-33.9312 52.2878,-58.5888 100.4034,-119.5622 122.2155,-154.875 28.1327,-45.545 35.9444,-63.8147 47.5026,-111.0974 11.0768,-45.3129 17.876,-182.4164 11.9611,-241.1873 -2.7321,-27.1457 -1.7049,-30.3617 8.5593,-26.7945 4.7533,1.6519 7.1507,4.9337 10.52,14.4006 3.8727,10.8806 4.3759,18.5512 4.469,68.1222 0.1209,64.3709 -3.9753,143.7026 -8.9008,172.3847 -10.3257,60.1291 -30.3567,103.0335 -78.6064,168.3682 -10.5922,14.3431 -15.3837,23.3692 -19.571,36.8685 -6.0731,19.5795 -47.4382,105.0189 -59.5301,122.959 -4.1654,6.18 -9.0565,14.2241 -10.8691,17.8755 -1.8125,3.6514 -5.635,9.5429 -8.4944,13.092 -2.8594,3.5492 -12.3616,18.5574 -21.116,33.3515 -8.7543,14.7941 -20.3299,32.3161 -25.7234,38.9378 -5.3935,6.6217 -12.8522,17.2539 -16.5749,23.6271 -12.5261,21.4442 -34.2333,38.9355 -40.7493,31.0843 z"
         id="path4242"
         inkscape:connector-curvature="0"
         sodipodi:nodetypes="cssssssssssssssssssscsssc"
         inkscape:export-filename="/Users/larsaeschlimann/Desktop/SuperTeacher_Design/PNG/P1"
         inkscape:export-xdpi="350"
         inkscape:export-ydpi="350" /><path
         style="opacity:1;fill:#000000;fill-opacity:1;fill-rule:nonzero;stroke:none;stroke-width:5.9000001;stroke-miterlimit:4;stroke-dasharray:none;stroke-opacity:1"
         d="m 1611.0904,2678.7236 c -5.5524,0 -15.2154,-0.4867 -20.108,-2.4471 -4.8926,-1.9603 -13.8726,-4.6766 -19.9556,-6.0362 -220.956,-175.066 -478.6665,-360.1513 -661.88745,-541.0905 -13.93148,-15.0827 -27.59314,-31.7998 -30.35927,-37.1489 -11.92384,-23.0581 -13.59658,-114.3425 -3.18858,-174.0064 12.15841,-69.6981 46.49727,-219.5796 65.15759,-284.3985 33.86054,-117.6186 101.61631,-253.9818 167.45341,-337.0115 20.5472,-25.9129 74.6757,-74.0853 110.5911,-98.4221 34.3579,-23.2816 117.2123,-41.0212 268.6944,-55.9502 182.8723,-18.0224 169.1734,-7.087 169.1734,2.6808 0,1.456 -65.4278,5.7795 -92.4821,7.9009 -122.4238,9.5992 -282.5994,32.6127 -309.4685,44.4634 -31.9441,14.0892 -110.924,82.4072 -139.9762,121.0801 -87.6524,116.679 -119.24243,197.5217 -194.8078,498.5377 -24.20833,96.4343 -30.33469,134.9573 -30.59775,192.4016 -0.31116,67.9445 1.72011,72.0479 65.50627,132.3307 209.88178,152.9659 428.61328,350.4208 627.07468,506.4468 4.0118,0.9426 7.9149,1.8604 11.7123,2.7538 l 149.0726,-347.7878 c -8.7434,-4.1482 -16.9019,-8.1407 -24.0952,-11.8121 -111.633,-56.9753 -226.7846,-155.79 -325.8063,-279.5843 -41.7269,-52.1657 -82.1908,-115.3574 -78.103,-121.9718 3.985,-6.4481 13.2212,-3.0283 25.34,9.3826 6.7884,6.9519 13.3738,12.6399 14.6341,12.6399 7.0601,0 39.1113,-116.4698 42.7115,-155.2075 2.4114,-25.9449 7.6313,-27.4117 11.9608,-3.361 7.3727,32.9016 -7.0223,43.1622 -1.0107,83.9927 26.053,-26.6729 37.2446,-49.2998 53.0362,-81.8432 23.0022,-47.4038 48.6364,-109.7696 63.299,-154.0013 10.9966,-33.1727 18.7869,-46.0716 25.3687,-42.004 6.1726,3.815 2.0538,25.3335 -14.1052,73.6918 -24.5307,73.4121 -64.2677,149.2024 -107.1405,204.3494 -33.9434,43.661 -61.8941,87.3535 -61.8941,96.7527 0,5.7882 23.556,39.1174 53.4162,75.5781 36.6581,44.7615 85.3833,94.8618 132.7652,136.5123 87.0926,76.5575 117.2277,107.5877 223.7202,153.1048 z"
         id="path4240"
         inkscape:connector-curvature="0"
         sodipodi:nodetypes="ccccssssssssssssccccsssssscccssssssscc"
         inkscape:export-filename="/Users/larsaeschlimann/Desktop/SuperTeacher_Design/PNG/P1"
         inkscape:export-xdpi="350"
         inkscape:export-ydpi="350" /></g><g
       inkscape:groupmode="layer"
       id="layer5"
       inkscape:label="Colorierung"
       style="display:inline;opacity:1;filter:url(#filter4228)"><path
         style="display:inline;opacity:1;fill:#502d16;fill-opacity:1;fill-rule:nonzero;stroke:none;stroke-width:5.9000001;stroke-miterlimit:4;stroke-dasharray:none;stroke-opacity:1;filter:url(#filter4226)"
         d="m 1725.6056,2194.9914 c -52.1255,-2.7555 -90.0149,-5.9772 -93.1605,-7.9213 -4.2063,-2.5996 0.2023,-69.2996 4.9098,-74.2838 2.7694,-2.9323 129.1255,-5.9529 155.7507,-3.7233 l 17.5,1.4655 0,39.9519 c 0,23.7152 -0.8414,41.5241 -2.0703,43.8205 -2.479,4.6321 -7.5666,4.6744 -82.9297,0.6905 z"
         id="path4265"
         inkscape:connector-curvature="0"
         transform="matrix(1.1172228,0,0,1.1172228,72.38418,-143.56554)"
         inkscape:export-filename="/Users/larsaeschlimann/Desktop/SuperTeacher_Design/PNG/P1"
         inkscape:export-xdpi="350"
         inkscape:export-ydpi="350" /><path
         style="display:inline;opacity:1;fill:#502d16;fill-opacity:1;fill-rule:nonzero;stroke:none;stroke-width:5.9000001;stroke-miterlimit:4;stroke-dasharray:none;stroke-opacity:1;filter:url(#filter4226)"
         d="m 805.10565,2106.705 c -9.43769,-0.8501 -9.78513,-1.5883 -5.5348,-11.7608 l 2.9652,-7.0968 5.5348,3.9783 c 3.04414,2.188 8.17818,6.7604 11.40898,10.1609 l 5.87418,6.1828 -5.87418,-0.3494 c -3.2308,-0.1922 -9.69918,-0.694 -14.37418,-1.115 z"
         id="path4267"
         inkscape:connector-curvature="0"
         transform="matrix(1.1172228,0,0,1.1172228,72.38418,-143.56554)"
         inkscape:export-filename="/Users/larsaeschlimann/Desktop/SuperTeacher_Design/PNG/P1"
         inkscape:export-xdpi="350"
         inkscape:export-ydpi="350" /><path
         style="display:inline;opacity:1;fill:#502d16;fill-opacity:1;fill-rule:nonzero;stroke:none;stroke-width:5.9000001;stroke-miterlimit:4;stroke-dasharray:none;stroke-opacity:1;filter:url(#filter4226)"
         d="m 1403.7726,2115.4493 -15.8331,-12.2799 10.7262,-0.6182 c 19.394,-1.1177 23.0356,1.9349 21.5791,18.0888 l -0.6392,7.0893 -15.833,-12.28 z"
         id="path4269"
         inkscape:connector-curvature="0"
         transform="matrix(1.1172228,0,0,1.1172228,72.38418,-143.56554)"
         inkscape:export-filename="/Users/larsaeschlimann/Desktop/SuperTeacher_Design/PNG/P1"
         inkscape:export-xdpi="350"
         inkscape:export-ydpi="350" /><path
         style="display:inline;opacity:1;fill:#fff6d5;fill-opacity:0.99215686;fill-rule:nonzero;stroke:none;stroke-width:5.9000001;stroke-miterlimit:4;stroke-dasharray:none;stroke-opacity:1;filter:url(#filter4226)"
         d="m 1788.1761,2088.3824 c -4.6691,-1.1214 -5.2829,-3.2045 -2.7513,-9.3382 9.5595,-23.1618 26.1444,-25.5972 26.1444,-3.8391 0,6.5199 -1.8113,11.3019 -4.713,12.4426 -2.639,1.0375 -15.3395,1.537 -18.6801,0.7347 z"
         id="path4273"
         inkscape:connector-curvature="0"
         transform="matrix(1.1172228,0,0,1.1172228,72.38418,-143.56554)"
         inkscape:export-filename="/Users/larsaeschlimann/Desktop/SuperTeacher_Design/PNG/P1"
         inkscape:export-xdpi="350"
         inkscape:export-ydpi="350" /><path
         style="opacity:1;fill:#ffe6d5;fill-opacity:1;fill-rule:nonzero;stroke:none;stroke-width:5.9000001;stroke-miterlimit:4;stroke-dasharray:none;stroke-opacity:1"
         d="m 1836.6518,2734.1648 c -28.2121,-5.2835 -78.5857,-22.6448 -113.6544,-39.1713 -8.3133,-3.9177 -21.5139,-10.1298 -29.3349,-13.8048 -11.3084,-5.3138 -16.4845,-8.3084 -25.2799,-14.6257 -6.0829,-4.3689 -14.2594,-10.1113 -18.1698,-12.7608 -3.9105,-2.6493 -10.1932,-7.2827 -13.9613,-10.2965 -6.0555,-4.843 -6.7656,-5.6746 -6.1138,-7.1599 0.4057,-0.9241 28.4466,-65.1366 62.3136,-142.6945 33.8668,-77.5578 61.8995,-140.9412 62.2951,-140.8521 9.5012,2.1433 52.827,3.1932 79.4268,1.9247 l 18.0612,-0.8612 7.6137,2.8229 c 12.303,4.5614 22.1473,9.693 26.3318,13.7265 2.0882,2.0125 3.7966,4.0322 3.7966,4.4881 0,2.926 -11.6307,11.0711 -20.3049,14.2197 -4.5706,1.6591 -59.3541,13.3197 -59.8709,12.7436 -0.1218,-0.1356 -1.856,-3.5157 -3.8538,-7.511 -6.9482,-13.8951 -13.3198,-18.1173 -20.3305,-13.4719 -8.7266,5.7821 -8.8119,23.2176 -0.1803,36.8415 8.2158,12.9676 32.2364,30.8967 48.0556,35.8691 11.9775,3.7648 18.5223,1.2626 16.6114,-6.3506 -0.6751,-2.6897 -8.5181,-10.4124 -15.6361,-15.3962 -12.7586,-8.9332 -7.9133,-12.2941 18.7748,-13.022 17.1501,-0.4678 27.1414,0.6204 42.1858,4.5946 33.9046,8.9567 60.1371,28.1319 69.4981,50.8014 2.8386,6.8739 3.2186,15.0183 0.9221,19.7622 -2.9921,6.1811 -9.6253,11.4278 -22.6578,17.9221 -12.3952,6.1766 -18.4537,10.7995 -18.4537,14.081 0,2.8075 4.1763,6.0202 10.8587,8.3533 19.6002,6.8429 28.0805,14.9748 26.8094,25.7077 -0.6777,5.7217 -4.0403,11.3669 -10.8083,18.1451 -7.9727,7.9847 -18.0424,14.5083 -35.5497,23.0299 -8.0382,3.9126 -17.1831,8.3722 -20.3222,9.9103 -6.974,3.4172 -11.2788,7.3657 -11.2747,10.3413 0,2.6552 2.4504,6.7699 5.0315,8.461 1.0725,0.7028 5.0693,1.7827 8.8818,2.3999 17.8193,2.8845 25.2232,8.4528 21.3075,16.0248 -1.4916,2.8845 -7.7503,8.6075 -13.104,11.9824 -2.3896,1.5066 -5.9447,3.9547 -7.8998,5.4406 -7.834,5.9527 -18.4711,9.6514 -38.7099,13.4597 -8.8498,1.6653 -16.2943,4.3632 -19.136,6.9348 -1.7999,1.6291 -1.8045,5.1583 -0.011,6.7836 2.6291,2.3794 9.187,3.1098 32.4477,3.6143 l 23.1781,0.5028 1.525,1.8844 c 1.7922,2.2146 1.4152,6.0951 -0.9778,10.0672 -4.5733,7.5909 -22.2817,19.0768 -37.0284,24.0169 -6.5777,2.2035 -15.2882,2.6225 -23.305,1.1211 l 10e-5,0 z"
         id="path4214"
         inkscape:connector-curvature="0"
         inkscape:export-filename="/Users/larsaeschlimann/Desktop/SuperTeacher_Design/PNG/P1"
         inkscape:export-xdpi="350"
         inkscape:export-ydpi="350" /><path
         style="opacity:1;fill:#b3b3b3;fill-opacity:1;fill-rule:nonzero;stroke:none;stroke-width:5.9000001;stroke-miterlimit:4;stroke-dasharray:none;stroke-opacity:1"
         d="m 1960.6845,893.69134 c -5.6853,-2.30444 -7.029,-5.32815 -9.1432,-20.57319 -2.4583,-17.72716 -14.5482,-54.67716 -21.918,-66.98833 -6.0867,-10.16759 -11.1441,-13.52168 -20.4464,-13.55982 -6.1914,-0.0254 -13.9816,-5.62636 -11.4067,-8.20117 6.2581,-6.25825 90.1694,-0.92744 104.281,6.6249 8.9336,4.78108 14.3214,30.09427 13.2462,62.23329 -1.037,30.99667 -3.9668,35.62048 -25.4519,40.16789 -10.6241,2.2487 -24.009,2.38468 -29.161,0.29643 z"
         id="path4272"
         inkscape:connector-curvature="0"
         inkscape:export-filename="/Users/larsaeschlimann/Desktop/SuperTeacher_Design/PNG/P1"
         inkscape:export-xdpi="350"
         inkscape:export-ydpi="350" /><path
         style="opacity:1;fill:#b3b3b3;fill-opacity:1;fill-rule:nonzero;stroke:none;stroke-width:5.9000001;stroke-miterlimit:4;stroke-dasharray:none;stroke-opacity:1"
         d="m 1680.2649,1051.6527 c -9.8975,-12.976 -23.5555,-49.0306 -27.1884,-71.77167 -2.1855,-13.6808 -4.1028,-19.0496 -9.7187,-27.21474 -7.1546,-10.40245 -9.6664,-28.90656 -11.2169,-82.63623 -0.7743,-26.83382 -1.962,-50.93752 -2.6394,-53.56374 -1.173,-4.54837 -0.6639,-5.03093 10.73,-10.17025 59.4869,-26.83195 98.9835,-40.40225 108.6562,-37.33223 2.0942,0.66467 3.4961,2.63509 3.4954,4.91287 0,5.1633 -8.2252,21.79019 -19.1165,38.65227 -40.2413,62.30245 -57.0592,140.24621 -44.4706,206.10432 3.5261,18.4477 2.9498,37.5713 -1.1559,38.3538 -1.6587,0.3159 -4.7964,-1.9534 -7.3752,-5.3344 z"
         id="path4274"
         inkscape:connector-curvature="0"
         inkscape:export-filename="/Users/larsaeschlimann/Desktop/SuperTeacher_Design/PNG/P1"
         inkscape:export-xdpi="350"
         inkscape:export-ydpi="350" /><path
         style="opacity:1;fill:#b3b3b3;fill-opacity:1;fill-rule:nonzero;stroke:none;stroke-width:5.9000001;stroke-miterlimit:4;stroke-dasharray:none;stroke-opacity:1"
         d="m 1660.635,758.43666 c -1.9378,-5.04997 1.0035,-15.27109 5.8679,-20.39104 4.2656,-4.48961 5.7755,-5.01129 12.3967,-4.28308 16.1244,1.7734 19.559,-7.91856 19.2204,-54.23903 -0.2298,-31.42782 0.9967,-39.51992 8.8912,-58.66487 6.5339,-15.84538 7.9142,-29.24067 5.3438,-51.85874 -2.313,-20.35191 -1.1291,-25.68063 5.7048,-25.68063 12.3652,0 75.5345,-47.76176 108.5717,-82.08996 11.8894,-12.35417 25.4713,-31.15985 27.7975,-38.48885 0.6086,-1.91756 0.2742,-4.31883 -0.743,-5.33615 -2.9698,-2.96966 -14.9176,6.50261 -30.2473,23.98015 -25.5629,29.14414 -54.9816,53.94527 -92.6994,78.14926 -23.7072,15.21318 -27.4025,16.2749 -25.9723,7.46256 0.5236,-3.22752 -0.2767,-10.09573 -1.7787,-15.26264 l -2.731,-9.39437 7.8151,-23.50704 c 4.2982,-12.92888 7.3407,-20.37064 6.7609,-16.53723 -2.092,13.83174 2.413,3.35824 10.4927,-24.39441 6.3883,-21.9428 9.9496,-30.89629 16.7244,-42.04771 14.3093,-23.55278 25.76,-49.42861 30.8507,-69.71368 4.0571,-16.16639 5.2673,-18.94919 8.307,-19.10325 1.9569,-0.0991 5.4854,-1.18514 7.8409,-2.41326 7.2301,-3.76932 39.4457,-27.62393 54.4538,-40.32117 19.7288,-16.69089 48.4136,-31.42945 90.9684,-46.74041 31.5516,-11.3521 49.1767,-19.42739 70.682,-32.38461 28.8425,-17.37801 51.647,-24.27507 57.3887,-17.35684 1.1929,1.43753 3.6219,2.61369 5.3975,2.61369 7.3118,0 55.4651,-36.18457 85.4615,-64.21938 10.4383,-9.75579 14.4597,-12.44875 18.5889,-12.44875 9.982,0 11.0533,1.24805 7.2166,8.40657 -7.1874,13.41021 -4.768,13.43077 28.8135,0.24505 27.5003,-10.79792 71.9059,-26.57236 85.4578,-30.3576 l 10.5148,-2.93695 6.7154,6.33359 c 17.9173,16.89816 86.0643,42.42166 190.9333,71.51142 87.1044,24.16204 145.2615,47.23074 162.4807,64.45 2.5875,2.58744 12.1291,19.09304 21.2037,36.67911 9.0747,17.58605 20.6206,38.08231 25.6575,45.54725 11.2339,16.64881 35.7012,42.20566 55.5115,57.98373 12.9964,10.35089 55.2785,38.96355 70.8435,47.94035 3.5207,2.03056 5.8675,5.00446 6.5188,8.26104 2.4088,12.04398 52.2798,130.0749 69.1278,163.60676 10.2432,20.3862 31.7192,51.3025 60.7167,87.40602 44.6408,55.58016 46.8483,64.13391 15.8845,61.55165 -53.5182,-4.46326 -145.4428,-55.52095 -221.9572,-123.28178 -17.2408,-15.26823 -21.3502,-17.14345 -24.1421,-11.01622 -2.4016,5.2709 1.5722,16.42805 10.0694,28.27152 10.1947,14.20977 15.0703,23.00257 14.1233,25.47058 -1.4096,3.67354 -15.9884,7.93623 -34.6982,10.14546 -29.0797,3.43367 -55.2818,-3.12223 -81.7341,-20.45022 -16.3677,-10.72189 -56.1479,-50.44386 -80.232,-80.11467 -26.6669,-32.8525 -44.3169,-49.66004 -52.1494,-49.66004 -8.9764,0 -7.7229,14.56521 3.0114,34.99453 11.54,21.96217 46.6672,61.20965 76.2529,85.1968 6.4752,5.24988 11.0739,9.77832 10.2193,10.06317 -1.7972,0.59908 -91.3901,-23.14485 -119.7765,-31.74319 -25.889,-7.84188 -41.6065,-14.25077 -77.0958,-31.43625 -37.5416,-18.17921 -70.1879,-36.5154 -104.991,-58.96933 -14.8545,-9.58364 -29.9758,-18.59406 -33.6028,-20.02315 -17.418,-6.86285 -10.8979,10.11301 17.911,46.63465 23.3838,29.64401 33.1711,36.098 75.8066,49.98877 l 26.1368,8.51548 -35.7204,0.53902 c -61.4112,0.92672 -126.4666,-3.31359 -157.6923,-10.27837 -43.9374,-9.80009 -72.8655,-21.42727 -165.5336,-66.53367 -90.6343,-44.1165 -99.7895,-47.7015 -102.6672,-40.20254 -2.8206,7.35074 9.523,23.19749 34.4688,44.25056 37.1231,31.33027 40.1716,40.42069 42.9188,127.98364 2.0101,64.06946 2.1908,107.16534 0.4496,107.1485 -5.1607,-0.0498 -74.0878,-5.6265 -86.6873,-7.0135 -8.6251,-0.94952 -30.5801,-3.84304 -48.7887,-6.43006 -29.2316,-4.15307 -38.6135,-4.71161 -80.1531,-4.77162 -62.4931,-0.0903 -93.0427,4.39437 -118.1367,17.34244 -13.6703,7.05359 -13.2088,6.9451 -14.5604,3.42294 z m 743.0899,-338.21805 c 0.3061,-3.1496 -1.4719,-10.19723 -4.1757,-16.55334 -13.5487,-31.84874 -10.8784,-37.51306 11.8597,-25.15568 13.1788,7.16221 28.9489,12.13994 47.2502,14.91408 19.6014,2.97126 26.1157,1.39429 36.2963,-8.78622 10.6029,-10.60279 10.7921,-14.65709 1.3829,-29.62335 -12.6138,-20.0638 -22.5101,-42.51666 -27.2172,-61.75131 -4.5367,-18.53855 -10.0559,-28.73672 -15.5524,-28.73672 -1.3524,0 -4.1282,1.66934 -6.1685,3.70965 -3.2129,3.21293 -3.5699,5.02109 -2.6664,13.50405 1.0633,9.98313 8.5914,33.83936 18.3636,58.19294 6.4986,16.19473 6.7486,19.67057 1.5166,21.07271 -12.8426,3.44171 -37.7983,-2.06847 -61.8994,-13.66729 -21.0526,-10.13158 -30.2707,-16.53704 -43.4148,-30.168 -5.9321,-6.15189 -11.8128,-10.8297 -13.0684,-10.39515 -4.3064,1.49055 -2.2263,20.04094 4.6413,41.38904 3.5453,11.02105 6.889,24.65644 7.4305,30.30085 l 0.9845,10.26261 -6.7982,-1.24257 c -17.4373,-3.18719 -68.0402,-28.94767 -106.1185,-54.02184 -10.5417,-6.94174 -29.285,-20.63008 -41.6517,-30.4185 -31.81,-25.17823 -37.6301,-27.75361 -37.6301,-16.65126 0,9.23028 3.4483,14.37966 20.4484,30.53603 32.9913,31.35374 94.4857,69.2219 148.5699,91.48917 31.7718,13.0808 48.5156,18.15615 58.3726,17.69367 8.3954,-0.39392 8.7316,-0.60825 9.2448,-5.89357 z"
         id="path4276"
         inkscape:connector-curvature="0"
         inkscape:export-filename="/Users/larsaeschlimann/Desktop/SuperTeacher_Design/PNG/P1"
         inkscape:export-xdpi="350"
         inkscape:export-ydpi="350" /><path
         style="opacity:1;fill:#ffe6d5;fill-opacity:1;fill-rule:nonzero;stroke:none;stroke-width:5.9000001;stroke-miterlimit:4;stroke-dasharray:none;stroke-opacity:1"
         d="m 2308.191,1459.1756 c -33.3069,-2.3227 -118.4435,-10.2203 -139.4594,-12.9369 -41.593,-5.3765 -61.7705,-13.0567 -146.8079,-55.8799 -77.3339,-38.944 -112.844,-53.2651 -171.9991,-69.3667 -54.5204,-14.8401 -83.8586,-31.389 -93.7696,-52.8929 -5.0285,-10.9104 -4.8907,-31.3408 0.3199,-47.4289 2.0176,-6.2292 3.6785,-14.7512 3.6907,-18.9377 0.022,-7.0552 -0.7771,-8.393 -10.9128,-18.2957 -9.9699,-9.7409 -32.8857,-27.9759 -62.1718,-49.4726 -27.696,-20.3297 -29.9564,-36.5913 -6.6975,-48.1818 11.505,-5.7332 19.3436,-5.9447 21.7984,-0.5883 2.9772,6.4964 23.687,31.2132 34.2148,40.835 11.0813,10.1277 23.0423,15.3795 40.9162,17.9648 17.8286,2.5787 28.2067,2.0547 36.8914,-1.8632 9.5805,-4.3219 49.1855,-43.7826 61.9211,-61.6951 l 8.6484,-12.164 -0.038,-14.8442 c -0.03,-11.856 -0.8043,-16.2906 -3.844,-22.0302 -8.402,-15.8645 -21.222,-20.6464 -31.7045,-11.826 -6.4998,5.4693 -6.7645,9.8714 -1.0048,16.7162 9.4922,11.281 4.1219,29.78 -13.8352,47.6574 -20.7421,20.6498 -34.8856,26.4779 -58.8536,24.2519 -22.7371,-2.1116 -29.8495,-7.4389 -41.9657,-31.433 -12.5444,-24.8422 -15.212,-42.6238 -15.2564,-101.70107 -0.045,-61.50092 3.0886,-77.42572 23.1689,-117.69475 18.1927,-36.48353 34.3955,-54.93876 58.3487,-66.4598 25.4202,-12.22658 46.4708,-10.03507 69.9471,7.28194 13.6614,10.07707 20.4423,12.30675 32.4305,10.66359 10.3665,-1.42089 14.897,2.55035 21.7847,19.09514 9.9401,23.87756 12.8194,38.9267 11.6224,60.74847 -0.5794,10.56106 -1.5808,23.04981 -2.2255,27.75274 l -1.1719,8.55073 36.4135,-1.13887 c 47.5827,-1.48811 61.0366,-4.11459 64.938,-12.67752 2.7359,-6.00459 2.4844,-17.51765 -1.4994,-68.62731 -1.9048,-24.43796 -3.472,-45.80485 -3.4826,-47.48196 -0.018,-2.74002 2.1458,-3.04779 21.3259,-3.03426 11.7398,0.008 51.141,2.69492 87.5585,5.97031 36.4172,3.27541 90.3493,7.35424 119.8489,9.06406 29.4996,1.70982 54.277,3.53179 55.0607,4.0488 1.2749,0.84083 -3.7216,59.40276 -13.6084,159.50139 -3.9335,39.82437 -3.8002,40.49137 9.2363,46.25817 12.1343,5.3675 25.6293,6.7765 82.1189,8.5737 134.7949,4.2885 163.504,10.5601 165.973,36.2568 0.8695,9.049 -2.4762,28.0918 -8.5784,48.8239 -4.6816,15.9059 -9.2471,20.1438 -24.5755,22.8132 -33.5191,5.8371 -58.3137,-0.9813 -86.8533,-23.8847 -7.0726,-5.6757 -15.6036,-13.267 -18.9579,-16.8695 -8.7875,-9.4379 -25.2737,-21.3117 -31.4844,-22.6757 -7.4725,-1.6413 -14.8184,1.9097 -18.0533,8.7272 -4.4628,9.4047 -3.4918,12.1027 8.1544,22.6554 45.963,41.6474 83.7519,58.0671 164.2266,71.3584 15.3336,2.5326 30.478,5.8959 33.6541,7.4739 8.4587,4.2027 21.5141,22.6268 34.2788,48.3752 15.0402,30.3379 18.6922,41.7526 19.6764,61.5 0.9922,19.9036 -1.5642,33.7861 -9.32,50.6101 -27.3677,59.3688 -110.083,109.3854 -196.272,118.6827 -19.4075,2.0936 -82.9295,2.0217 -113.7642,-0.1286 z m -537.9837,-441.1142 c 1.5637,-1.2099 2.1781,-8.7675 2.1781,-26.79357 0,-28.4835 1.9549,-36.30574 9.5497,-38.21194 2.5037,-0.6283 11.3765,-0.8105 19.7175,-0.4046 20.1503,0.9804 31.4083,6.1467 47.9999,22.02704 6.8581,6.5641 14.4081,13.2387 16.7777,14.8324 8.861,5.9598 19.4663,2.1149 27.0695,-9.8141 2.6983,-4.2335 2.7972,-5.4449 0.7557,-9.2594 -3.4434,-6.4341 -15.0633,-14.29614 -43.4594,-29.40469 -38.119,-20.28171 -43.5616,-23.57726 -43.5616,-26.37782 0,-3.83006 5.0377,-12.9529 10.8132,-19.5819 6.3391,-7.2759 8.8597,-13.67189 7.5088,-19.05391 -1.4864,-5.92254 -9.3188,-12.55232 -14.8292,-12.55232 -13.7091,0 -38.7069,29.30763 -56.4764,66.21335 -6.8401,14.20635 -7.155,15.60755 -7.7145,34.32609 -0.6024,20.1559 1.7587,41.48167 5.4441,49.16727 3.6971,7.7102 11.7787,9.8775 18.2269,4.8881 z"
         id="path4281"
         inkscape:connector-curvature="0"
         inkscape:export-filename="/Users/larsaeschlimann/Desktop/SuperTeacher_Design/PNG/P1"
         inkscape:export-xdpi="350"
         inkscape:export-ydpi="350" /><path
         style="opacity:1;fill:#ffe6d5;fill-opacity:1;fill-rule:nonzero;stroke:none;stroke-width:5.9000001;stroke-miterlimit:4;stroke-dasharray:none;stroke-opacity:1"
         d="m 2607.8937,804.79654 c -13.417,-1.34536 -73.793,-7.90272 -134.1691,-14.57193 -122.1884,-13.49703 -149.7384,-15.72307 -257.8838,-20.83715 -41.2091,-1.94872 -90.0549,-4.71376 -108.5463,-6.14454 -31.0186,-2.40008 -68.0579,-6.9726 -69.6884,-8.60307 -1.9658,-1.96593 -10.7838,-61.15442 -12.6015,-84.58606 -2.2631,-29.17131 -1.7742,-109.14041 0.6906,-112.99122 1.1446,-1.7881 3.4182,-0.46589 9.5717,5.5661 13.8398,13.56661 43.5558,25.58621 92.5797,37.44678 84.4895,20.44088 173.2443,27.83988 221.2922,18.4479 21.1586,-4.1359 49.5812,-2.59316 95.8352,5.20188 69.9301,11.78508 135.55,19.06609 163.847,18.18004 l 16.694,-0.52273 8.6139,6.27987 c 10.0577,7.3324 24.1938,14.6768 36.4932,18.96015 5.609,1.95329 8.4793,3.88064 8.0584,5.41072 -0.3597,1.30716 -2.9129,12.57004 -5.6738,25.02861 -2.7608,12.45856 -5.3854,24.27081 -5.8322,26.24941 -0.804,3.55892 -1.0109,3.56985 -19.3115,1.01937 -20.0396,-2.79284 -20.3563,-2.70549 -22.749,6.27353 -2.6234,9.84476 4.9621,20.4041 20.0869,27.96208 7.3854,3.69046 9.802,5.74025 8.8501,7.50656 -2.37,4.3976 -8.9987,37.99043 -7.8603,39.83265 1.4137,2.28721 -6.7995,2.04938 -38.297,-1.10895 z m -70.7134,-65.60265 c 3.3992,-13.06796 1.3689,-17.03762 -12.6841,-24.80106 -17.9959,-9.94176 -30.1795,-12.97488 -52.1151,-12.9742 -29.6368,8.9e-4 -142.4112,13.43531 -169.3736,20.17687 -10.92,2.73039 -18.3396,8.00182 -18.3396,13.02972 0,4.65989 5.6798,5.04587 21.2922,1.44702 33.0773,-7.62473 138.6786,-2.53441 168.9391,8.1434 11.8187,4.1704 23.5448,5.66178 42.3027,5.38025 l 17.3404,-0.26027 2.638,-10.14173 z"
         id="path4283"
         inkscape:connector-curvature="0"
         inkscape:export-filename="/Users/larsaeschlimann/Desktop/SuperTeacher_Design/PNG/P1"
         inkscape:export-xdpi="350"
         inkscape:export-ydpi="350" /><path
         style="opacity:1;fill:#ffe6d5;fill-opacity:1;fill-rule:nonzero;stroke:none;stroke-width:5.9000001;stroke-miterlimit:4;stroke-dasharray:none;stroke-opacity:1"
         d="m 2399.7239,988.19523 -56.5761,-1.8854 0.4979,-8.7122 c 0.7966,-13.9401 14.1417,-161.7114 14.632,-162.02088 1.0735,-0.6777 158.3368,16.14457 159.2242,17.03203 0.9541,0.95405 -12.387,143.51945 -14.3423,153.26555 l -0.9614,4.7916 -22.9491,-0.2926 c -12.622,-0.161 -48.4083,-1.141 -79.5252,-2.1781 z m 59.5415,-50.11424 c 11.4723,-3.43715 14.0042,-8.40911 13.3095,-26.1355 -0.4702,-11.99485 -1.3468,-16.1394 -4.238,-20.03911 -8.9218,-12.03388 -22.0629,-16.04229 -41.4971,-12.65796 -12.3464,2.15003 -20.3112,6.53898 -26.1383,14.40331 -2.8024,3.78209 -3.6451,7.48636 -3.6451,16.02097 0,10.29728 0.4355,11.55085 6.0134,17.30577 8.2808,8.54358 20.5916,12.9534 36.4747,13.06548 7.0763,0.0494 15.9509,-0.83345 19.7209,-1.96296 z"
         id="path4285"
         inkscape:connector-curvature="0"
         inkscape:export-filename="/Users/larsaeschlimann/Desktop/SuperTeacher_Design/PNG/P1"
         inkscape:export-xdpi="350"
         inkscape:export-ydpi="350" /><path
         style="opacity:1;fill:#ffe6d5;fill-opacity:1;fill-rule:nonzero;stroke:none;stroke-width:5.9000001;stroke-miterlimit:4;stroke-dasharray:none;stroke-opacity:1"
         d="m 2564.7117,879.81857 c -1.95,-1.94999 -1.4704,-16.08522 0.8031,-23.67366 2.3357,-7.79571 8.6412,-13.58782 14.7926,-13.58782 9.5923,0 28.4576,13.36094 28.4576,20.15459 0,6.59144 -39.3056,21.85471 -44.0533,17.10689 z"
         id="path4287"
         inkscape:connector-curvature="0"
         inkscape:export-filename="/Users/larsaeschlimann/Desktop/SuperTeacher_Design/PNG/P1"
         inkscape:export-xdpi="350"
         inkscape:export-ydpi="350" /><path
         style="opacity:1;fill:#ffe6d5;fill-opacity:1;fill-rule:nonzero;stroke:none;stroke-width:5.9000001;stroke-miterlimit:4;stroke-dasharray:none;stroke-opacity:1"
         d="m 2698.5015,1057.7311 c -56.4757,-10.4461 -122.8164,-39.2753 -147.746,-64.20477 -7.7075,-7.7073 -8.9072,-13.3202 -7.8138,-36.55124 2.0868,-44.3313 20.7224,-54.95818 92.8313,-52.93636 36.6778,1.02839 61.2615,4.62371 91.8348,13.43045 36.0202,10.37592 54.7903,20.01421 68.353,35.09901 10.024,11.14924 13.937,22.66374 13.8921,40.87974 -0.044,18.05927 -5.3155,29.71077 -19.1682,42.37147 -22.7425,20.7854 -55.7961,28.642 -92.1832,21.9117 z"
         id="path4289"
         inkscape:connector-curvature="0"
         inkscape:export-filename="/Users/larsaeschlimann/Desktop/SuperTeacher_Design/PNG/P1"
         inkscape:export-xdpi="350"
         inkscape:export-ydpi="350" /><path
         style="opacity:1;fill:#fff6d5;fill-opacity:1;fill-rule:nonzero;stroke:none;stroke-width:5.9000001;stroke-miterlimit:4;stroke-dasharray:none;stroke-opacity:1"
         d="m 1582.7624,2646.6527 c -11.4678,-6.5759 -85.4229,-66.7064 -245.6867,-199.7596 -175.6186,-145.8012 -258.5539,-212.7425 -334.3313,-269.8559 -61.38383,-46.2649 -97.40177,-82.0787 -106.4964,-105.8926 -5.28194,-13.8305 -5.85503,-24.4963 -4.28166,-79.6856 2.04861,-71.8594 6.00178,-92.4685 49.18173,-256.3996 61.85833,-234.8429 99.96373,-324.7605 179.21033,-422.8831 35.5446,-44.0112 116.0258,-110.3444 143.2306,-118.0522 41.9368,-11.8813 186.8071,-31.5482 305.2129,-41.434 l 76.6473,-6.3993 13.2688,11.3577 13.2687,11.3576 1.7137,33.0573 c 1.6664,32.1476 1.0304,35.7309 -23.1085,130.1963 -13.6523,53.4265 -35.6751,132.8157 -48.9396,176.4208 -79.3283,260.7783 -88.4103,288.4593 -119.6795,364.7711 -19.1596,46.7584 -60.4739,129.2156 -64.7421,129.2156 -4.5565,0 -44.9922,-55.0387 -47.3565,-64.4589 -2.8637,-11.4096 8.608,-31.4108 52.9745,-92.3623 58.7913,-80.7688 98.0532,-157.8698 121.377,-238.3547 10.0591,-34.7122 11.1609,-47.4083 4.1141,-47.4083 -7.9317,0 -11.5592,6.946 -30.095,57.6286 -34.7276,94.9553 -73.9874,177.2377 -97.2113,203.74 l -13.7422,15.6821 0.6126,-47.5817 c 0.5575,-43.2988 -1.1295,-56.3854 -6.5677,-50.9472 -1.0738,1.074 -3.4612,12.705 -5.3051,25.8464 -4.2542,30.3198 -25.8989,113.1494 -34.8661,133.4248 l -6.8279,15.4385 -13.1338,-12.8248 c -14.2898,-13.9537 -25.037,-16.6953 -25.037,-6.3866 0,8.0549 30.0631,56.2061 59.2503,94.9002 95.4044,126.479 216.5931,234.9413 328.9565,294.412 25.0277,13.2465 36.7875,21.3285 35.5869,24.4573 -10.5837,27.5808 -147.1282,342.9618 -148.4513,342.8828 -0.9771,-0.059 -4.913,-1.9045 -8.7463,-4.1027 z"
         id="path4291"
         inkscape:connector-curvature="0"
         inkscape:export-filename="/Users/larsaeschlimann/Desktop/SuperTeacher_Design/PNG/P1"
         inkscape:export-xdpi="350"
         inkscape:export-ydpi="350" /><path
         style="opacity:1;fill:#fff6d5;fill-opacity:1;fill-rule:nonzero;stroke:none;stroke-width:5.9000001;stroke-miterlimit:4;stroke-dasharray:none;stroke-opacity:1"
         d="m 1888.9399,2180.6025 c -22.042,-1.3404 -58.1108,-4.8972 -80.1529,-7.9037 -22.0421,-3.0067 -62.8867,-6.5399 -90.7656,-7.8516 l -50.689,-2.3852 -10.2969,9.6086 c -9.9209,9.2575 -11.3496,9.5443 -39.098,7.8472 l -28.8011,-1.7613 -30.404,-27.3907 c -16.7224,-15.0648 -43.56,-40.015 -59.6395,-55.445 l -29.2353,-28.0544 53.8942,-106.1148 c 60.8527,-119.8154 83.7902,-175.5885 124.619,-303.0124 48.1212,-150.1833 81.8383,-248.7194 85.4904,-249.8408 1.9169,-0.5886 11.3154,15.7874 20.886,36.3912 29.4882,63.4828 72.2712,122.8418 88.5385,122.8418 18.2435,0 12.2201,-19.2182 -17.6889,-56.4389 -10.3118,-12.8326 -25.7615,-36.3558 -34.3326,-52.2737 -31.157,-57.8631 -63.4178,-139.0906 -57.5663,-144.9421 1.2233,-1.2231 15.9821,5.1275 32.7978,14.1126 17.9568,9.5951 44.739,20.107 64.9007,25.4731 18.88,5.0252 48.5681,14.5568 65.9737,21.1817 43.6544,16.6155 113.9254,51.1731 121.7641,59.8809 6.4335,7.1466 6.3145,7.2759 -16.659,18.1307 -31.1393,14.7124 -74.2142,47.0392 -109.4773,82.1597 -26.8948,26.7861 -32.0101,36.2008 -19.669,36.2008 2.6879,0 17.8853,-8.9395 33.7723,-19.8655 79.7441,-54.8437 80.1502,-55.0588 84.1555,-44.6211 3.4469,8.9825 -4.7797,43.6773 -20.9475,88.3427 -31.5623,87.1944 -74.7004,182.3679 -172.8221,381.2892 -42.3154,85.7855 -76.2943,156.598 -75.5088,157.3611 0.7854,0.7631 4.482,1.9285 8.2144,2.5898 9.5895,1.6993 23.7238,-22.5967 92.559,-159.1036 125.391,-248.6623 162.5864,-337.489 186.7093,-445.8811 9.1851,-41.2715 14.3763,-49.8943 37.0326,-61.5131 15.4678,-7.9324 24.2331,-8.3166 37.1653,-1.6289 12.5947,6.5128 34.5448,30.9101 37.1504,41.2922 3.0393,12.1091 -25.989,132.4964 -48.5288,201.2611 -10.8242,33.0228 -40.8608,103.409 -83.9699,196.7715 -18.5852,40.2507 -36.8738,80.9156 -40.6415,90.3661 -3.7674,9.4507 -16.4017,33.758 -28.076,54.0162 -46.1654,80.1102 -59.4589,111.7591 -46.9427,111.7591 32.4797,0 174.5876,-306.1955 242.6743,-522.8824 17.908,-56.9927 27.7204,-80.6306 32.8549,-79.1469 2.1292,0.6151 8.6693,10.805 14.5335,22.6439 15.4512,31.1938 21.4058,36.8166 36.3371,34.3115 6.7345,-1.1297 15.7729,-3.0221 20.0856,-4.205 6.8358,-1.8749 7.8408,-0.8427 7.8408,8.0543 0,16.489 -12.6842,60.1939 -28.2302,97.2703 -7.9508,18.9622 -21.1402,51.7271 -29.3098,72.8107 -8.1697,21.0839 -22.4056,55.5844 -31.6352,76.6683 -17.6189,40.2466 -101.4995,209.3306 -128.5224,259.0713 -8.6853,15.9871 -15.8156,32.4532 -15.8449,36.5917 -0.028,4.1385 -1.2055,9.2483 -2.6137,11.3552 -3.5241,5.2725 -53.6649,7.5402 -101.8805,4.6077 z m -33.043,-69.4552 c 21.8224,-10.564 30.3343,-21.435 31.9485,-40.8032 1.826,-21.9091 -4.2988,-32.9366 -21.4202,-38.5666 -17.4447,-5.7363 -30.3472,-1.5106 -47.9903,15.7174 -20.2844,19.8072 -21.9036,42.3401 -4.3884,61.0694 10.7668,11.5135 21.9739,12.205 41.8504,2.583 z m 112.1354,-237.529 c 12.6561,-11.8102 22.5381,-33.0793 21.3006,-45.8461 -0.9023,-9.311 -3.6927,-12.3691 -17.5653,-19.2509 l -16.4924,-8.1813 -15.8381,7.6669 c -18.7319,9.0682 -26.1027,21.36 -26.1027,43.5303 0,12.5607 1.9357,17.9494 8.9773,24.9908 7.5718,7.5721 11.1713,8.683 22.9944,7.0972 7.7612,-1.041 17.9042,-5.5073 22.7262,-10.0069 z m 79.599,-211.123 c 20.4332,-22.2538 26.5453,-46.0696 16.8948,-65.832 -3.6121,-7.3975 -9.0479,-13.9059 -12.0791,-14.4635 -6.9217,-1.2731 -37.0358,19.2383 -46.1318,31.4213 -3.7672,5.0457 -7.5905,17.0526 -8.5242,26.7697 -1.5714,16.3544 -0.8842,18.3755 9.5674,28.139 6.1933,5.7852 14.3685,10.5188 18.1671,10.5188 3.7985,0 13.7462,-7.449 22.1058,-16.5533 z"
         id="path4293"
         inkscape:connector-curvature="0"
         inkscape:export-filename="/Users/larsaeschlimann/Desktop/SuperTeacher_Design/PNG/P1"
         inkscape:export-xdpi="350"
         inkscape:export-ydpi="350" /><path
         style="opacity:1;fill:#fff6d5;fill-opacity:1;fill-rule:nonzero;stroke:none;stroke-width:5.9000001;stroke-miterlimit:4;stroke-dasharray:none;stroke-opacity:1"
         d="m 1708.7771,1234.2716 c -8.7394,-20.783 -12.3682,-43.1126 -8.1181,-49.9533 2.7521,-4.4296 4.813,-4.3156 15.6791,0.866 6.8808,3.2812 13.4658,8.455 14.6333,11.4975 2.6669,6.9502 -4.616,40.2854 -10.585,48.4485 -4.0098,5.4839 -5.2089,4.3625 -11.6093,-10.8587 z"
         id="path4295"
         inkscape:connector-curvature="0"
         inkscape:export-filename="/Users/larsaeschlimann/Desktop/SuperTeacher_Design/PNG/P1"
         inkscape:export-xdpi="350"
         inkscape:export-ydpi="350" /><path
         style="opacity:1;fill:#fff6d5;fill-opacity:1;fill-rule:nonzero;stroke:none;stroke-width:5.9000001;stroke-miterlimit:4;stroke-dasharray:none;stroke-opacity:1"
         d="m 2212.5077,1563.8194 c -3.1341,-1.7538 -19.0977,-21.9375 -35.4751,-44.8526 l -29.7769,-41.6637 16.3374,1.7375 c 8.9855,0.9555 45.9019,4.6898 82.0363,8.2986 36.1344,3.6084 66.7146,7.6113 67.9558,8.8951 1.2413,1.2838 -7.6,11.4321 -19.6473,22.5519 -26.0391,24.0341 -72.7718,49.8786 -81.4302,45.0332 z"
         id="path4297"
         inkscape:connector-curvature="0"
         inkscape:export-filename="/Users/larsaeschlimann/Desktop/SuperTeacher_Design/PNG/P1"
         inkscape:export-xdpi="350"
         inkscape:export-ydpi="350" /><path
         style="opacity:1;fill:#d35f5f;fill-opacity:1;fill-rule:nonzero;stroke:none;stroke-width:5.9000001;stroke-miterlimit:4;stroke-dasharray:none;stroke-opacity:1"
         d="m 750.95009,3795.0862 c -27.28994,-1.8892 -68.1221,-6.4888 -104.62164,-11.7853 -11.81336,-1.7142 -12.28352,-2.095 -14.33708,-11.614 -3.0047,-13.9277 -0.94945,-40.3267 3.93166,-50.5011 2.27573,-4.7437 6.90993,-13.5119 10.29824,-19.4851 5.53646,-9.7605 6.16052,-13.5979 6.16052,-37.8832 0,-33.5646 4.15921,-46.8819 46.58688,-149.1645 64.83888,-156.3105 89.90861,-223.0764 106.57977,-283.8445 5.39137,-19.652 12.54413,-40.4391 15.89498,-46.1933 9.04842,-15.5383 24.31296,-33.0815 80.95116,-93.0342 80.33284,-85.0344 92.35266,-101.414 92.4579,-125.9941 0.0561,-13.0979 -2.31357,-18.7111 -26.39238,-62.518 -5.58718,-10.1647 -18.43333,-37.8871 -28.54697,-61.605 -57.37039,-134.5422 -79.99583,-230.7785 -73.0417,-310.6798 2.62351,-30.1436 15.16331,-95.6088 26.98098,-140.8567 9.55426,-36.5815 23.32811,-77.0536 42.16905,-123.9063 l 15.36591,-38.2113 7.59042,1.1527 c 4.17474,0.6341 21.37414,3.072 38.22087,5.4176 l 30.63054,4.2647 17.4215,15.0657 c 60.5032,52.3218 157.6301,130.6762 267.3836,215.7042 35.8305,27.7585 108.8821,84.4262 162.3368,125.9281 85.9426,66.7253 98.8607,75.9224 111.6232,79.4707 21.4942,5.9758 23.9298,5.4887 28.7775,-5.7558 l 4.2113,-9.7685 18.5461,11.9835 c 60.985,39.405 150.2787,77.7706 196.0835,84.2482 32.2041,4.5542 59.5593,-5.1297 85.7402,-30.353 l 12.0574,-11.6165 -1.3113,-14.4611 c -1.4539,-16.0345 -0.6634,-18.1595 13.879,-37.3103 9.6729,-12.738 10.1429,-14.17 10.258,-31.2496 0.1203,-17.8085 0.1785,-17.9614 11.4414,-30.0025 19.3452,-20.6815 23.3601,-32.5927 17.9662,-53.3017 -4.8599,-18.6581 -4.797,-19.2076 3.7385,-32.6666 9.876,-15.5729 9.7985,-27.3617 -0.2957,-44.9647 -10.7473,-18.7425 -27.758,-34.8287 -48.1761,-45.5581 -9.6238,-5.0573 -20.0358,-11.8965 -23.1379,-15.1983 l -5.6399,-6.0035 5.358,-5.7033 c 10.2739,-10.9361 4.3893,-25.6912 -16.7107,-41.901 -10.1317,-7.7833 -10.1687,-7.8706 -5.0935,-11.9834 6.9579,-5.6391 27.6839,-7.8601 56.2876,-6.032 72.3062,4.6213 142.2231,9.5687 142.8206,10.1061 0.3761,0.3382 2.2613,48.7289 4.1897,107.5349 3.9617,120.8124 3.7741,119.5767 26.0213,171.4719 13.0163,30.3628 55.3546,113.9536 110.8371,218.832 17.9247,33.8829 39.7439,75.1558 48.4872,91.7177 l 15.897,30.1125 -10.9662,15.4753 c -6.0313,8.5114 -13.2039,19.9108 -15.9391,25.3321 -4.1201,8.1659 -76.0408,121.6807 -122.56,193.4404 -15.659,24.1551 -23.253,42.8077 -23.3253,57.2926 -0.032,6.4378 0.8194,11.7051 1.8926,11.7051 3.5799,0 22.0707,-20.7176 36.2895,-40.6594 7.7309,-10.8426 30.1401,-44.1093 49.7985,-73.9263 37.1494,-56.3464 48.0427,-70.2299 55.1046,-70.2299 9.7833,0 9.5428,7.0539 -3.8326,112.4918 -11.9074,93.8654 -21.7216,156.7661 -40.6579,260.5868 -15.9967,87.7034 -23.2222,131.1269 -30.8541,185.4272 -10.8953,77.5193 -18.8946,90.6445 -64.1029,105.1825 -19.4109,6.2419 -70.7321,15.8278 -108.425,20.2519 -46.0066,5.3996 -174.5711,7.6057 -218.238,3.7449 -56.1723,-4.9667 -106.5451,-16.8631 -119.8457,-28.3037 -6.2213,-5.3514 -6.513,-6.3534 -3.4928,-11.9967 1.8124,-3.3868 11.1199,-12.6537 20.683,-20.5934 35.2028,-29.2265 38.8456,-44.848 20.0306,-85.8978 -6.212,-13.5531 -24.5934,-55.1366 -40.8474,-92.4078 -50.9506,-116.8314 -69.9832,-153.7538 -104.4636,-202.6535 -8.7258,-12.3748 -15.865,-23.5276 -15.865,-24.7843 0,-1.2566 17.6251,-35.7047 39.1669,-76.5514 110.2938,-209.1352 175.0658,-340.467 182.7672,-370.5789 5.8874,-23.0198 5.9095,-25.7814 0.2614,-32.7564 l -4.5116,-5.5717 -9.8751,8.9215 c -12.2017,11.0237 -23.0635,33.957 -31.722,66.9773 -7.0782,26.9939 -25.8584,64.6222 -105.7693,211.9217 -22.7932,42.0148 -53.934,99.6771 -69.2017,128.1387 -41.9258,78.1568 -57.4631,103.782 -75.042,123.763 -19.394,22.0442 -154.0008,150.7856 -195.5912,187.0683 -74.2521,64.7763 -70.4967,60.0291 -88.1958,111.4912 -14.0806,40.9404 -22.6431,57.752 -33.9932,66.7415 -14.0672,11.1415 -46.67,25.5826 -77.725,34.4278 -36.1189,10.2872 -116.84378,26.3894 -155.84049,31.0853 -37.64162,4.5326 -140.03778,6.5137 -182.98802,3.5401 z M 1904.199,3727.2971 c 131.8317,-19.7829 195.9031,-32.2845 214.3501,-41.8236 8.543,-4.4178 12.25,-14.7357 7.132,-19.8514 -4.5146,-4.5124 -65.739,3.6884 -168.2095,22.5311 -40.82,7.5062 -92.5042,16.3929 -114.8537,19.7483 -22.3496,3.3553 -43.0571,7.6874 -46.0171,9.6268 -7.6997,5.0452 -9.3869,12.5977 -4.4853,20.0785 3.6026,5.4982 5.3168,6.1185 13.1414,4.7552 4.9492,-0.8622 49.4732,-7.6416 98.9421,-15.0649 z"
         id="path4305"
         inkscape:connector-curvature="0"
         inkscape:export-filename="/Users/larsaeschlimann/Desktop/SuperTeacher_Design/PNG/P1"
         inkscape:export-xdpi="350"
         inkscape:export-ydpi="350" /><path
         style="display:inline;opacity:1;fill:#fff6d5;fill-opacity:1;fill-rule:nonzero;stroke:none;stroke-width:5.9000001;stroke-miterlimit:4;stroke-dasharray:none;stroke-opacity:1;filter:url(#filter4226)"
         d="m 1828.7729,2108.9171 c -0.4287,-3.6697 -1.5406,-22.9788 -2.4709,-42.9092 -0.9302,-19.9304 -2.38,-38.0484 -3.2216,-40.2621 -2.7992,-7.3625 -1.7363,-11.6873 4.6578,-18.9514 6.7871,-7.7106 19.9129,-32.3437 28.9201,-54.2742 3.1708,-7.7202 10.3191,-23.8216 15.8852,-35.7808 17.466,-37.5271 33.0641,-76.7592 60.4945,-152.155 19.0913,-52.4748 37.7052,-100.4363 43.3348,-111.6587 10.8265,-21.5821 18.6083,-49.0677 23.7978,-84.0544 6.8278,-46.0318 11.4874,-58.1689 29.1144,-75.8356 7.4267,-7.4436 14.136,-12.3142 23.238,-16.8699 7.0382,-3.5228 13.0086,-6.1932 13.2674,-5.9343 0.2589,0.2589 1.2276,13.8772 2.1528,30.263 2.799,49.576 -1.8802,143.2814 -9.3324,186.8881 -11.3927,66.6651 -45.0782,124.2877 -130.7209,223.6124 -10.8172,12.5453 -26.5358,30.7824 -34.9303,40.5269 -14.8435,17.2306 -17.7454,22.7582 -12.9198,24.6099 6.7261,2.581 16.3974,-4.4354 36.934,-26.7951 25.405,-27.6604 37.3995,-39.9718 38.1813,-39.1901 1.1302,1.1302 -21.2173,44.5115 -32.6748,63.4286 -20.2051,33.3602 -54.6227,86.8166 -65.7015,102.0458 -6.2843,8.6386 -14.9811,21.1654 -19.3262,27.8373 l -7.9001,12.1309 -0.7796,-6.6721 z"
         id="path4301"
         inkscape:connector-curvature="0"
         transform="matrix(1.1172228,0,0,1.1172228,72.38418,-143.56554)"
         inkscape:export-filename="/Users/larsaeschlimann/Desktop/SuperTeacher_Design/PNG/P1"
         inkscape:export-xdpi="350"
         inkscape:export-ydpi="350" /></g><g
       inkscape:groupmode="layer"
       id="layer3"
       inkscape:label="Schatten"
       style="display:inline;opacity:0.37000002"><path
         style="opacity:0.606;fill:#000000;fill-opacity:0.99215686;fill-rule:nonzero;stroke:none;stroke-width:5.9000001;stroke-miterlimit:4;stroke-dasharray:none;stroke-opacity:1"
         d="m 957.06334,2238.8987 c 11.17125,-7.133 47.41576,-2.7843 68.75256,8.2495 7.2475,3.7477 37.82,27.2227 67.939,52.1662 106.5577,88.2478 379.701,301.9469 453.1294,354.5148 27.9272,19.9932 38.5859,25.1309 52.1371,25.1309 9.653,0 20.6346,-14.1514 21.6915,-17.317 1.2489,-3.7413 21.0862,17.4437 65.7299,40.357 25.3662,8.0898 44.9786,21.3455 64.194,29.5425 30.5118,13.016 54.9153,25.1327 69.2776,24.9671 75.1652,-0.8679 7.2524,47.8151 -83.6236,23.7267 -13.3514,-3.539 -63.8056,-38.5258 -101.4744,-50.8344 -26.3414,-8.6073 -38.5286,21.4994 -67.6623,8.7073 -54.6784,-24.0086 -161.1169,-93.6881 -209.4864,-130.8294 l -314.2639,-241.3124 c -116.33373,-82.6282 -111.40431,-94.554 -86.34046,-127.0688 z"
         id="path4278"
         inkscape:connector-curvature="0"
         sodipodi:nodetypes="cssssccsssssscc"
         inkscape:export-filename="/Users/larsaeschlimann/Desktop/SuperTeacher_Design/PNG/P1"
         inkscape:export-xdpi="350"
         inkscape:export-ydpi="350" /><path
         style="opacity:0.606;fill:#000000;fill-opacity:0.99215686;fill-rule:nonzero;stroke:none;stroke-width:5.9000001;stroke-miterlimit:4;stroke-dasharray:none;stroke-opacity:1"
         d="m 1588.9528,3345.3844 -25.5955,-38.7386 14.9556,-28.4612 c 46.2951,-88.1011 200.2592,-408.2637 208.8195,-430.2831 -0.879,-13.6004 34.2904,23.011 31.344,36.3175 -42.7391,166.5401 -177.9562,415.1713 -229.5236,461.1654 z"
         id="path4282"
         inkscape:connector-curvature="0"
         sodipodi:nodetypes="ccsccc"
         inkscape:export-filename="/Users/larsaeschlimann/Desktop/SuperTeacher_Design/PNG/P1"
         inkscape:export-xdpi="350"
         inkscape:export-ydpi="350" /></g></g></svg>