<?xml version="1.0" encoding="UTF-8" standalone="no"?>
<!-- Created with Inkscape (http://www.inkscape.org/) -->

<svg
   xmlns:dc="http://purl.org/dc/elements/1.1/"
   xmlns:cc="http://creativecommons.org/ns#"
   xmlns:rdf="http://www.w3.org/1999/02/22-rdf-syntax-ns#"
   xmlns:svg="http://www.w3.org/2000/svg"
   xmlns="http://www.w3.org/2000/svg"
   xmlns:sodipodi="http://sodipodi.sourceforge.net/DTD/sodipodi-0.dtd"
   xmlns:inkscape="http://www.inkscape.org/namespaces/inkscape"
   id="svg4155"
   version="1.1"
   inkscape:version="0.91 r13725"
   xml:space="preserve"
   width="3060"
   height="4080"
   viewBox="0 0 3060 4080"
   sodipodi:docname="SuperTeacher_Phase7_v3.svg"
   enable-background="new"
   inkscape:export-filename="/Users/larsaeschlimann/Desktop/SuperTeacher_Design/PNG/P7"
   inkscape:export-xdpi="350"
   inkscape:export-ydpi="350"><metadata
     id="metadata4161"><rdf:RDF><cc:Work
         rdf:about=""><dc:format>image/svg+xml</dc:format><dc:type
           rdf:resource="http://purl.org/dc/dcmitype/StillImage" /><dc:title /></cc:Work></rdf:RDF></metadata><defs
     id="defs4159"><marker
       inkscape:stockid="Arrow1Lstart"
       orient="auto"
       refY="0.0"
       refX="0.0"
       id="marker4962"
       style="overflow:visible"
       inkscape:isstock="true"><path
         id="path4964"
         d="M 0.0,0.0 L 5.0,-5.0 L -12.5,0.0 L 5.0,5.0 L 0.0,0.0 z "
         style="fill-rule:evenodd;stroke:none;stroke-width:1pt;stroke-opacity:1;fill:#000000;fill-opacity:1"
         transform="scale(0.8) translate(12.5,0)" /></marker><marker
       inkscape:stockid="Arrow1Lstart"
       orient="auto"
       refY="0.0"
       refX="0.0"
       id="Arrow1Lstart"
       style="overflow:visible"
       inkscape:isstock="true"><path
         id="path4692"
         d="M 0.0,0.0 L 5.0,-5.0 L -12.5,0.0 L 5.0,5.0 L 0.0,0.0 z "
         style="fill-rule:evenodd;stroke:none;stroke-width:1pt;stroke-opacity:1;fill:#000000;fill-opacity:1"
         transform="scale(0.8) translate(12.5,0)" /></marker><clipPath
       clipPathUnits="userSpaceOnUse"
       id="clipPath4171"><path
         d="m 0,0 2448,0 0,3264 L 0,3264 0,0 Z"
         id="path4173"
         inkscape:connector-curvature="0" /></clipPath><filter
       inkscape:collect="always"
       style="color-interpolation-filters:sRGB"
       id="filter4226"><feBlend
         inkscape:collect="always"
         mode="lighten"
         in2="BackgroundImage"
         id="feBlend4228" /></filter><filter
       inkscape:collect="always"
       style="color-interpolation-filters:sRGB"
       id="filter4682"><feBlend
         inkscape:collect="always"
         mode="lighten"
         in2="BackgroundImage"
         id="feBlend4684" /></filter></defs><sodipodi:namedview
     pagecolor="#ffffff"
     bordercolor="#666666"
     borderopacity="1"
     objecttolerance="10"
     gridtolerance="10"
     guidetolerance="10"
     inkscape:pageopacity="0"
     inkscape:pageshadow="2"
     inkscape:window-width="1440"
     inkscape:window-height="856"
     id="namedview4157"
     showgrid="false"
     showguides="false"
     inkscape:zoom="0.11334506"
     inkscape:cx="1741.7649"
     inkscape:cy="2374.9024"
     inkscape:window-x="-4"
     inkscape:window-y="0"
     inkscape:window-maximized="0"
     inkscape:current-layer="layer3" /><g
     inkscape:groupmode="layer"
     id="layer4"
     inkscape:label="Main"><g
       id="g4163"
       inkscape:groupmode="layer"
       inkscape:label="Hauptkörper"
       transform="matrix(1.25,0,0,-1.25,0,4080)"
       style="display:inline;filter:url(#filter4682);opacity:1"><g
         id="g4165"
         style="fill:#000000;stroke:#000000;stroke-width:0.80000001;stroke-miterlimit:4;stroke-dasharray:none;stroke-opacity:1" /><path
         style="opacity:1;fill:#000000;fill-opacity:1;fill-rule:nonzero;stroke:#000000;stroke-width:0.90949553;stroke-miterlimit:4;stroke-dasharray:none;stroke-opacity:1"
         d="m 1464.699,2892.1221 0,0 0,0 c -3.4396,-0.025 -12.4354,-7.1558 -24.9383,-22.089 -13.2113,-15.7794 -39.3995,-38.9578 -58.1953,-51.5091 -37.6229,-25.1245 -39.7335,-26.0137 -37.4527,-15.7723 2.6996,12.1226 -13.3099,43.7055 -22.1547,43.7055 -6.1687,0 -7.3605,-3.4065 -4.4392,-12.6885 11.354,-36.0755 23.1418,-100.461 19.4778,-106.3897 -2.9206,-4.7255 -11.4589,-0.5418 -28.2832,13.8592 -40.7052,34.8421 -55.0481,23.6145 -17.0015,-13.3085 21.1687,-20.5436 33.476,-49.7552 26.0343,-61.7959 -5.5031,-8.9045 -13.079,-6.8644 -16.6835,4.4924 -3.7748,11.8933 -37.3375,47.6434 -41.1494,43.8316 -3.2161,-3.216 16.5357,-37.1827 21.6219,-37.1827 7.2956,0 17.6141,-33.8211 14.321,-46.9421 -3.2551,-9.8497 4.459,-14.8536 -7.9954,-25.2101 -17.1913,-14.2952 -57.0172,-33.3738 -74.719,-40.6359 l 8.3773,-21.1689 c 9.966,4.1841 22.427,9.9116 37.712,17.3017 4.4886,2.1702 8.8415,4.2541 13.0936,6.2724 -1.4876,-10.1836 -2.5988,-34.4814 -2.5988,-42.0109 0,-17.9209 -9.5924,-27.7464 -14.5288,-14.8824 -1.7435,4.5434 -8.0711,9.5415 -14.0599,11.1076 -18.0132,4.7106 -13.001,-14.1238 8.729,-32.8058 14.986,-12.8838 19.6439,-21.2868 19.7371,-35.5964 0.067,-10.3021 3.7489,-22.3581 8.1819,-26.791 12.8802,-12.8802 28.0104,-70.8592 19.8136,-75.9252 -3.7185,-2.2981 -5.0493,-6.9468 -2.9577,-10.3313 2.0917,-3.3844 1.1686,-11.0766 -2.0517,-17.0939 -6.894,-13.5597 11.7105,-32.7967 21.3465,-37.7938 7.2561,-3.6391 10.4244,-7.5403 7.0397,-8.6686 -4.2325,-1.4109 -4.5016,-7.8153 -0.8597,-20.5134 3.7586,-13.1056 2.9365,-27.0116 -2.8351,-47.9315 -4.4715,-16.2085 -20.6822,-80.2243 -36.0228,-142.2579 -52.2786,-160.0467 -94.4825,-348.9717 -174.7847,-475.1528 -44.7429,-80.1695 -35.4812,-72.123 -53.3758,-107.9698 -7.3833,-14.7905 55.9317,4.8895 62.7484,-11.1835 11.1874,26.7689 50.4176,106.6309 79.8965,163.5445 56.3912,108.8718 68.2351,138.9854 121.7267,309.5145 23.8369,75.9913 45.591,140.4817 48.3436,143.3131 2.9685,3.0534 7.3317,-0.9694 10.7221,-9.8872 20.8946,-54.9567 65.9823,-122.1478 81.9665,-122.1478 11.1524,0 7.3716,18.0037 -7.1055,33.8361 -22.6973,24.8215 -46.318,65.376 -66.219,113.6905 -17.8851,43.4206 -23.4079,61.1482 -14.7811,61.208 4.5188,0.031 12.9196,-4.7854 25.4605,-13.2961 10.7147,-7.2685 35.5716,-16.4779 55.2359,-20.4583 34.2974,-6.9423 125.4102,-46.0565 148.1731,-63.6096 10.3619,-7.9903 9.5407,-9.0174 -16.3353,-20.4636 -32.8949,-14.551 -113.1755,-84.5316 -105.6294,-92.0776 3.187,-3.1871 21.3794,6.9341 46.8532,26.068 45.3601,34.071 55.7422,37.7285 55.7422,19.6395 0,-38.0034 -61.5355,-184.4495 -158.7283,-377.7515 -33.665,-66.9545 -61.2098,-123.4186 -61.2098,-125.4767 0,-2.058 3.7606,-3.741 8.356,-3.741 10.9612,0 172.3671,327.5672 197.9289,401.6897 10.4067,30.176 21.7837,71.3065 25.283,91.4008 5.6834,32.6357 8.4001,37.7364 25.4534,47.7982 15.7052,9.2663 22.1106,10.2124 36.1187,5.3291 16.9478,-13.556 34.0198,-30.2269 32.4737,-42.8476 -2.8185,-22.3979 -26.6876,-114.7051 -41.9382,-162.185 -8.2523,-25.692 -45.0054,-109.554 -86.8568,-198.1866 -8.9968,-19.0535 -16.3566,-36.0935 -16.3566,-37.8666 0,-1.773 -13.958,-27.3995 -31.0171,-56.9483 -17.0594,-29.5489 -31.017,-57.5534 -31.017,-62.233 0,-18.9564 12.4517,-5.8881 41.5935,43.6558 48.5369,82.5186 127.9264,271.6136 159.0871,378.924 10.3062,35.492 21.0778,62.3608 25.0005,62.3608 3.7905,0 11.4174,-11.4194 16.9482,-25.377 10.0812,-25.4404 14.358,-27.7176 37.9324,-20.2025 9.364,2.9849 12.6885,1.801 12.6885,-4.5191 0,-17.177 -16.1957,-70.1064 -29.7025,-97.0691 -7.6193,-15.21 -18.2435,-41.6121 -23.6096,-58.6714 -10.4875,-33.3417 -96.3346,-211.5885 -122.5226,-254.3976 -8.748,-14.3007 -15.9054,-31.4298 -15.9054,-38.0656 0,-11.4195 -2.6738,-12.065 -49.985,-12.065 -27.4917,0 -63.5035,2.5636 -80.0249,5.6968 -16.5215,3.1332 -54.9982,6.9774 -85.5051,8.5425 -46.1422,2.3674 -56.0191,1.4096 -58.7459,-5.6968 -2.055,-5.3552 -9.8922,-8.2904 -21.0036,-7.8657 -20.4592,0.7813 -211.5094,26.83 -248.3475,33.534 0.1297,-1.3576 0.2888,-2.903 0.5223,-4.8778 0.8635,-7.3042 0.7278,-12.3938 -0.2043,-15.7208 66.6231,-8.7959 237.0241,-30.2102 248.6334,-29.3685 26.9006,1.9505 27.1803,1.2883 20.3819,-48.3116 l -3.5865,-26.164 -40.1598,0 c -14.8773,0 -202.5574,14.825 -239.2217,18.916 0.2472,-2.142 0.5691,-4.2461 1.2291,-6.4926 1.0825,-3.6848 2.5482,-7.2551 4.2314,-10.7256 8.7323,-0.8956 171.1609,-13.6466 178.1735,-14.1412 66.3957,-4.6827 97.2806,-8.9491 97.2806,-13.4364 0,-14.8243 18.7765,-20.4724 77.3941,-23.2827 84.8599,-4.0683 85.7676,-3.993 102.5136,8.3879 14.1866,10.4885 19.4102,10.7783 97.0087,5.3984 l 63.7661,-4.4213 c 12.767,0.1296 22.9167,-1.9821 36.481,-1.1795 -1.848,95.1313 -5.217,178.5715 -7.7041,184.1905 -3.3911,7.662 -1.8587,12.7845 5.4197,18.1065 20.3542,28.8377 23.7912,49.7466 39.8295,81.5934 10.9176,21.6795 34.0217,79.3051 51.3439,128.0577 17.3223,48.7526 36.0193,97.5378 41.5472,108.4112 5.528,10.8734 12.9503,30.5409 16.4953,43.7055 8.8362,33.3157 5.8632,56.9785 18.1366,85.8426 18.952,32.1368 47.9761,44.2006 82.3342,46.7164 64.9338,4.5769 104.4404,21.6258 145.7289,62.8902 41.3511,41.3269 53.3263,75.4114 42.1245,119.8971 -9.7016,38.5294 -26.9811,70.2529 -48.6153,89.2549 -18.5886,16.327 -19.1355,17.9675 -15.6728,46.9634 3.2548,27.2595 4.686,29.7072 15.4383,26.3966 29.9995,-9.2368 93.4476,-19.7709 119.0001,-19.7584 50.6485,0.026 87.351,35.1837 87.3896,83.7181 0.017,20.2615 -3.1667,27.6401 -18.3071,42.4069 -10.0805,9.8318 -24.4502,21.7955 -31.9336,26.585 -12.5546,8.0354 3e-4,-6e-4 -8.4305,6.4091 l 11.1146,58.3552 -183.0946,17.7884 -144.3487,16.1098 c -79.1024,8.8277 -207.871,9.6721 -260.3431,17.1028 l -23.4887,3.3271 -6.3363,36.3887 c -3.4853,20.0141 -5.9081,58.2107 -5.3824,84.8815 0.9021,45.8111 1.4618,47.8483 10.088,36.8364 21.8777,-27.9276 193.7399,-59.4276 252.4489,-46.2706 21.3107,4.7757 38.046,4.0685 79.2487,-3.3502 50.0105,-9.0046 154.3147,-22.1352 147.8054,-11.6032 -1.6681,2.6992 -104.784,27.17 -130.4521,37.3213 -43.2271,17.0958 -96.0541,45.2762 -136.9005,73.0279 -32.8316,22.3064 -33.9819,12.187 -3.0606,-26.9314 18.5362,-23.4501 27.6134,-29.7722 53.5749,-37.3195 17.1915,-4.9977 31.2569,-9.8558 31.2569,-10.795 0,-0.9391 -32.357,-1.105 -71.9035,-0.3694 -87.3956,1.6256 -119.6439,10.6429 -222.654,62.2613 -39.5138,19.8004 -74.6034,36.0015 -77.9768,36.0015 -13.195,0 -1.1994,-20.1447 22.915,-38.4795 31.3799,-23.8588 34.6512,-35.1525 35.7633,-123.48 l 0.8687,-68.9067 -39.476,2.8084 c -21.7118,1.5449 -54.7038,5.2542 -73.3139,8.2423 -62.4704,10.0306 -143.1582,4.0464 -164.0609,-12.1663 -9.3957,-7.2874 -13.9131,0.8846 -7.3097,13.2232 3.2305,6.0361 9.4034,9.6194 13.7188,7.9635 12.1674,-4.6691 16.5771,7.8011 14.7154,41.6129 -1.0938,19.8662 1.3933,36.9767 6.9171,47.5958 5.8461,11.2382 7.5499,24.4105 5.2918,40.8864 -2.6378,19.2441 -1.5846,24.3059 5.0537,24.3059 12.013,0 77.6667,51.5796 96.4705,75.7901 13.3599,17.2011 16.5974,26.2976 12.6992,26.2688 z m -86.9066,-285.3613 c 2.7987,-0.018 4.7471,-0.5727 5.8389,-1.6645 2.8713,-2.8712 -3.2424,-17.1821 -14.4666,-33.8609 -33.7999,-50.2263 -47.728,-115.1162 -36.4456,-169.7879 7.6785,-37.2093 -3.3579,-43.1074 -18.1383,-9.6936 -6.485,14.6603 -12.2513,33.5104 -12.8147,41.8883 -0.5632,8.3796 -4.1965,18.5857 -8.0735,22.6841 -6.7175,7.1014 -10.4465,44.6732 -8.356,84.1888 0.5657,10.6938 -1.4634,23.7002 -4.393,30.4236 50.9445,23.8375 83.5452,35.909 96.8488,35.8221 z m 143.6453,-10.1857 c 19.9495,-0.01 49.4654,-2.8091 65.0165,-7.2848 13.2153,-3.8034 17.6156,-69.5173 5.3433,-79.7922 -4.6308,-3.8772 -16.8175,-7.0486 -27.0806,-7.0486 -15.4577,0 -18.7374,2.1773 -19.1119,12.6885 -0.7541,21.1643 -18.8184,69.0362 -26.3344,69.7878 -3.8772,0.3877 -9.5868,1.0227 -12.6886,1.4104 -3.1017,0.3877 -5.64,3.5376 -5.64,7.0007 0,2.2439 8.5259,3.2437 20.4957,3.2382 z m -73.8575,-1.6289 c 12.0802,-0.172 23.5603,-4.9174 33.7758,-14.1238 6.9401,-6.2546 16.0988,-9.0812 23.3146,-7.1943 9.9604,2.6047 13.4806,-1.0721 21.7444,-22.7107 6.3458,-16.6165 8.7796,-33.8746 6.8283,-48.4217 l -3.0304,-22.6042 29.0701,0.078 c 15.9886,0.042 35.0782,1.6849 42.4212,3.6504 13.1586,3.5221 13.2941,4.2927 9.4449,53.4968 l -3.9044,49.9246 32.8502,0.1439 c 18.0675,0.079 71.5566,-6.8843 119.3642,-9.7824 l 81.5295,-4.9419 -14.6674,-157.1792 c -1.4583,-15.6265 39.687,-17.2782 66.7271,-17.6411 145.8183,-2.5887 152.6058,-10.9302 143.0715,-51.4504 -8.0104,-34.0434 -7.5661,-34.9103 -28.5763,-38.4599 -31.0488,-5.2456 -55.1561,5.0279 -86.5264,36.8772 -29.8294,30.2847 -38.8645,10.5787 -38.332,-1.3359 50.7709,-46.6894 75.5217,-55.2807 166.816,-69.8606 13.7392,-4.1478 42.5441,-56.2708 46.807,-84.6985 8.8441,-58.9766 -47.8284,-117.098 -136.7654,-140.263 -38.4492,-10.015 -89.8681,-9.8753 -194.8771,0.5311 -83.4635,8.2711 -71.4087,4.104 -199.2115,68.8712 -25.0046,12.6697 -67.6469,28.6004 -94.7688,35.4028 -78.9912,19.8117 -99.9581,42.2179 -83.551,89.2833 4.8392,13.8814 3.2486,17.3353 -15.2127,33.0527 -11.3389,9.6535 -29.4542,23.4942 -40.2576,30.7577 -25.2028,16.9445 -27.8916,33.0023 -7.1233,42.542 9.7301,4.4695 16.3035,5.0572 17.4688,1.5614 1.0275,-3.0825 10.0594,-14.81 20.071,-26.0609 14.6202,-16.4298 23.3351,-21.0341 44.2776,-23.3947 25.1796,-2.8381 27.0241,-1.991 53.7046,24.6896 15.1961,15.1961 28.9623,32.7292 30.5925,38.9626 3.9223,14.9988 -4.0877,35.6686 -15.5236,40.0569 -9.2583,3.5529 -22.0864,-9.3785 -14.7775,-14.8965 11.5667,-8.7329 5.8553,-27.9636 -13.2997,-44.782 -17.1678,-15.0735 -24.3026,-17.718 -43.9293,-16.2874 -21.4716,1.565 -24.4931,3.8116 -36.1205,26.8692 -10.5729,20.967 -12.6885,34.339 -12.6885,80.2008 0,46.7431 2.169,59.9429 14.3867,87.5691 16.8605,38.1247 32.526,56.6355 56.6285,66.9136 7.5368,3.2139 15.0009,4.7573 22.2489,4.6541 z m 428.1558,-26.3345 131.9531,-13.55 -12.8448,-131.0242 -131.6867,4.059 z m 181.6628,-22.3679 c 4.5673,0.02 10.0168,-2.1414 16.053,-6.5956 7.4392,-5.4896 9.2874,-10.1197 5.5315,-13.8627 -3.1017,-3.091 -12.8195,-7.3943 -21.5934,-9.5621 -14.9728,-3.6996 -15.8375,-2.9463 -14.0972,12.2426 1.3347,11.6487 6.494,17.7438 14.1061,17.7778 z m 53.8254,-4.3183 83.988,-8.9191 -6.2599,-22.5598 c -0.7277,-5.6425 -70.3408,11.1718 -81.6237,13.4133 z m -20.3393,-44.6932 c 1.2583,0.01 2.5279,0.01 3.8085,0 23.2223,-0.162 49.9197,-3.1979 72.3458,-8.944 57.7195,-14.789 77.8285,-31.5771 78.1278,-65.2172 0.1986,-22.3238 -14.124,-39.7416 -41.0748,-49.953 -8.7315,-3.3083 -21.4189,-5.8111 -28.1961,-5.5671 -32.8159,1.2012 -86.4438,17.8581 -116.7849,36.2892 -29.8663,18.1429 -33.6947,22.5124 -33.6265,38.3925 0.1246,28.9655 5.5849,41.4983 21.1778,48.6029 9.1457,4.1671 25.3493,6.2681 44.2224,6.3967 z m -745.3013,-225.482 c 3.8579,0.024 9.2645,-2.491 16.179,-7.5673 8.5646,-6.2878 8.8073,-9.7848 2.2524,-32.3795 -4.652,-16.036 -8.9361,-22.7616 -11.676,-18.3285 -7.7139,14.6787 -10.6153,24.0165 -13.058,37.0656 -2.283,14.068 -0.133,21.168 6.3026,21.2097 z m 356.3197,-241.4782 39.0941,-3.6931 c 21.5024,-2.0306 53.6246,-5.1554 71.3811,-6.9438 l 32.2836,-3.2507 -9.7256,-13.1149 c -5.3499,-7.2133 -22.5395,-20.9301 -38.1988,-30.4805 -15.6591,-9.5504 -31.488,-17.3639 -35.1754,-17.3639 -3.6876,0 -12.9863,9.5162 -20.6627,21.1476 -7.6763,11.6314 -19.5904,28.4726 -26.4766,37.4243 z m -46.2937,-554.3464 c 4.948,-0.1423 8.8747,-4.9312 8.8747,-13.9516 0,-11.2788 -2.8183,-14.0972 -14.0972,-14.0972 -15.7767,0 -16.597,1.7148 -8.2619,17.2893 3.9575,7.3944 9.1185,10.885 13.4844,10.7595 z m -310.4737,-32.7721 c 38.4409,0.1916 134.3852,-6.1008 138.6873,-10.2247 6.0024,-5.7537 -10.7293,-21.9949 -27.6632,-26.8514 -12.591,-3.6112 -24.3345,-3.0214 -37.966,1.9078 -17.8553,6.4565 -20.7736,6.0219 -30.6405,-4.5688 -10.7872,-11.5788 -10.7818,-11.8312 0.4868,-23.0998 12.5815,-12.5815 20.207,-14.3031 25.4907,-5.7536 1.9171,3.1016 14.7556,5.6399 28.5301,5.6399 l 25.0449,0 0,-22.558 0,-22.5579 -29.6084,0.7425 c -41.0294,1.027 -106.0243,8.9356 -110.493,13.4453 -5.5297,5.5802 -3.2911,87.2345 2.5384,92.6033 0.9134,0.8411 6.7219,1.2312 15.5929,1.2754 z m 269.4007,-10.3757 c 14.7014,0 26.3701,-0.3016 31.4558,-0.8953 l 18.4919,-2.1582 0,-41.6787 c 0,-36.3433 -1.2619,-41.5389 -9.8677,-40.5987 -5.428,0.5929 -42.0257,2.4961 -81.327,4.2295 -39.3014,1.7333 -73.0822,4.7874 -75.0689,6.7874 -1.9868,2.0004 -1.8897,18.8598 0.2149,37.4653 l 3.8263,33.8271 62.6184,2.144 c 17.2199,0.5888 34.9549,0.8806 49.6563,0.8776 z"
         id="path4308"
         inkscape:connector-curvature="0"
         sodipodi:nodetypes="cccsccssssscssscsccscsssscssccccscccccssccscsccssscssssssssccsssssssssssssssssscccscsccsccccsssscccccsscccssscsccsscccscccccsscssssssssscccsscssccssccsssssccscssscsssssscssscccsccsscscsssccssscssssscssscccssssssscscccsccssscccccccssscssscccsccccscccsssscssscsscsscscsccccscscccssscscccc" /><path
         style="opacity:1;fill:#000000;fill-opacity:1;fill-rule:nonzero;stroke:#000000;stroke-width:0.90949553;stroke-miterlimit:4;stroke-dasharray:none;stroke-opacity:1"
         d="m 1970.1973,2626.7758 c -21.7347,8.7241 -116.445,13.2264 -135.8594,6.4585 -17.3237,-6.0391 -24.2946,-0.4452 -10.539,8.4576 3.8771,2.5093 40.9913,8.4547 82.4761,13.2122 71.0141,8.1437 76.7407,8.0615 97.8853,-1.4051 16.2794,-7.2885 21.5161,-12.5105 19.0334,-18.9801 -1.8836,-4.9088 -3.4248,-9.9864 -3.4248,-11.2835 0,-4.3228 -36.4712,-1.7179 -49.5716,3.5404 z"
         id="path4310"
         inkscape:connector-curvature="0" /><path
         style="opacity:1;fill:#000000;fill-opacity:1;fill-rule:nonzero;stroke:#000000;stroke-width:0.90949553;stroke-miterlimit:4;stroke-dasharray:none;stroke-opacity:1"
         d="m 2220.9104,2584.2628 c -34.4402,13.0107 -147.6086,21.76 -123.7751,59.0548 61.6717,-4.8455 113.7389,-29.6824 152.6724,-49.0347 7.657,-3.4887 12.5828,-8.5098 10.9462,-11.1579 -4.2058,-6.805 -32.7149,-5.9908 -39.8435,1.1378 z"
         id="path4312"
         inkscape:connector-curvature="0"
         sodipodi:nodetypes="cccsc" /><path
         style="opacity:1;fill:#000000;fill-opacity:1;fill-rule:nonzero;stroke:#000000;stroke-width:0.90949553;stroke-miterlimit:4;stroke-dasharray:none;stroke-opacity:1"
         d="m 2372.233,2621.6271 c -50.4933,11.7667 -65.0335,16.9536 -61.8712,22.0707 1.8277,2.9568 -1.8411,5.3762 -8.1526,5.3762 -15.3276,0 -44.3023,18.1224 -41.6308,26.0383 3.137,9.2948 -26.5869,13.4888 -53.2081,7.5074 -30.677,-6.8926 -77.2264,2.1443 -102.8339,19.9639 -55.5487,38.6547 -101.6858,91.0362 -101.6858,115.4484 0,14.7604 17.5371,2.9587 42.1427,-28.3603 57.0227,-72.5806 92.5476,-94.6046 140.902,-87.3534 14.0878,2.1125 25.614,5.881 25.614,8.3744 0,2.4934 -5.2612,11.2218 -11.6915,19.3967 -6.4303,8.1749 -10.8713,18.7901 -9.8691,23.5897 1.3763,6.589 6.8186,4.0016 22.2217,-10.5645 47.3415,-44.7696 130.362,-92.1179 171.3763,-97.7395 34.9035,-4.7841 33.4079,3.9664 -9.4169,55.0975 -19.1179,22.8257 -40.4575,54.2239 -47.4216,69.7737 -33.6912,75.2282 -114.5948,254.2513 19.5398,16.907 14.5297,-25.7094 39.6868,-68.68 58.8379,-93.9291 19.1511,-25.2492 37.2108,-49.106 40.1325,-53.0153 3.4652,-4.6362 2.7349,-10.2136 -2.1003,-16.0396 -8.227,-9.9129 -35.1175,-10.8773 -70.8851,-2.5422 z"
         id="path4314"
         inkscape:connector-curvature="0"
         sodipodi:nodetypes="scssssssssscsssssssss" /><path
         style="opacity:1;fill:#000000;fill-opacity:1;fill-rule:nonzero;stroke:#000000;stroke-width:1;stroke-miterlimit:4;stroke-dasharray:none;stroke-opacity:1"
         d=""
         id="path4316"
         inkscape:connector-curvature="0"
         transform="matrix(0.8,0,0,-0.8,0,3264)" /><path
         style="opacity:1;fill:#000000;fill-opacity:1;fill-rule:nonzero;stroke:#000000;stroke-width:0.90949553;stroke-miterlimit:4;stroke-dasharray:none;stroke-opacity:1"
         d="m 1857.1113,2900.3306 c -60.1415,24.2618 -136.232,78.1606 -136.232,96.5002 0,11.4721 3.8324,9.6192 38.4465,-18.5872 35.4372,-28.8774 111.015,-68.7994 117.6623,-62.1522 2.3328,2.3328 -0.3035,17.0377 -5.8584,32.6778 -11.1362,31.3548 -8.0707,42.2955 6.6293,23.66 13.0209,-16.5067 53.2331,-35.7445 74.7154,-35.7445 14.7358,0 17.0365,1.6741 13.5616,9.8689 -20.7195,48.8638 -24.1194,69.083 -11.6162,69.083 4.8914,0 9.4288,-8.6729 11.7618,-22.4825 2.0891,-12.3652 10.0502,-31.695 17.6913,-42.9549 13.1259,-19.342 13.3655,-21.0554 4.3403,-31.0282 -7.6391,-8.4412 -14.1904,-9.8269 -32.7041,-6.9174 -12.7332,2.0011 -28.9404,7.3916 -36.016,11.979 -17.7325,11.4963 -21.8949,4.6412 -11.0242,-18.1552 12.9501,-27.1565 4.1538,-28.1408 -51.3576,-5.7468 z"
         id="path4318"
         inkscape:connector-curvature="0" /><path
         style="opacity:1;fill:#000000;fill-opacity:1;fill-rule:nonzero;stroke:#000000;stroke-width:0.90949553;stroke-miterlimit:4;stroke-dasharray:none;stroke-opacity:1"
         d="m 2321.4781,2870.7866 c -9.305,7.1109 -37.2201,25.4041 -62.0337,40.6516 -59.4396,36.5249 -87.4318,63.0272 -107.532,101.8083 -9.0944,17.5467 -18.8533,36.2479 -21.6863,41.5582 -8.1436,15.2647 -61.9738,37.6741 -141.4741,58.8953 -97.277,25.9665 -165.8309,54.7072 -154.188,66.3501 4.9945,4.9944 230.0437,-62.6986 267.639,-79.7282 36.0515,-16.3303 53.3996,-35.6246 81.1153,-90.2149 21.8993,-43.1341 75.5506,-91.3472 131.2146,-117.9145 27.0825,-12.926 49.2409,-25.9673 49.2409,-28.9807 0,-10.032 -25.15,-5.5278 -42.2957,7.5748 z"
         id="path4320"
         inkscape:connector-curvature="0"
         sodipodi:nodetypes="sssssssssss" /><path
         style="opacity:1;fill:#000000;fill-opacity:1;fill-rule:nonzero;stroke:#000000;stroke-width:0.90949553;stroke-miterlimit:4;stroke-dasharray:none;stroke-opacity:1"
         d="m 1731.7654,3150.2489 c 9.5691,17.88 91.2105,45.912 132.9193,45.6385 21.0562,-0.138 21.829,-0.6991 11.6108,-8.4277 -6.0208,-4.5539 -17.4516,-8.2797 -25.4018,-8.2797 -12.5819,0 -47.9759,-11.3538 -103.5942,-33.2314 -21.0945,-8.2976 -22.1238,-8.0126 -15.5341,4.3003 z"
         id="path4322"
         inkscape:connector-curvature="0" /><path
         style="opacity:1;fill:#000000;fill-opacity:1;fill-rule:nonzero;stroke:#000000;stroke-width:1;stroke-miterlimit:4;stroke-dasharray:none;stroke-opacity:1"
         d=""
         id="path4324"
         inkscape:connector-curvature="0"
         transform="matrix(0.8,0,0,-0.8,0,3264)" /><path
         style="opacity:1;fill:#000000;fill-opacity:1;fill-rule:nonzero;stroke:#000000;stroke-width:0.90949553;stroke-miterlimit:4;stroke-dasharray:none;stroke-opacity:1"
         d="m 1410.416,2992.5277 c 10.3119,19.2678 60.3684,51.1944 133.9332,85.4237 39.7104,18.4771 81.5553,38.6439 92.9885,44.8151 11.4334,6.1712 24.495,9.7978 29.026,8.0591 10.0121,-3.842 34.1584,20.543 49.4744,49.9634 13.2842,25.5174 20.6696,23.6598 17.3966,-4.3756 -1.3079,-11.2032 10.2194,-26.9853 8.5576,-25.3237 -1.6617,1.6617 -19.7668,7.7093 -23.1751,3.6912 -18.5833,-21.9068 -78.8611,-67.7769 -80.9259,-61.5827 -3.1141,9.3422 -26.2936,3.2945 -50.604,-13.2029 -10.4164,-7.0689 -32.1571,-17.176 -48.3127,-22.4604 -33.8214,-11.0627 -67.0863,-27.0216 -78.1303,-37.4832 -12.267,-11.62 -48.871,-38.2516 -52.5753,-38.2516 -1.8668,0 -0.8108,4.8274 2.347,10.7276 z"
         id="path4326"
         inkscape:connector-curvature="0"
         sodipodi:nodetypes="ssssssccssssss" /><path
         style="opacity:1;fill:#000000;fill-opacity:1;fill-rule:nonzero;stroke:#000000;stroke-width:0.90949553;stroke-miterlimit:4;stroke-dasharray:none;stroke-opacity:1"
         d="m 1338.3683,2818.0445 c -0.9929,1.0108 16.9362,66.5361 19.1331,74.9412 4.9141,18.8182 28.8488,83.1944 32.7258,88.0217 1.557,1.9386 6.1648,3.5052 10.2398,3.4814 4.1305,-0.024 6.0225,-0.9599 4.2757,-2.1148 -1.7233,-1.1394 -3.9869,-7.868 -5.0304,-14.9526 -2.293,-15.5686 -14.3492,-41.7577 -29.481,-64.0404 -6.1402,-9.0419 -26.5558,-98.1019 -12.1371,-22.8965 -0.5352,-3.5512 -18.7331,-63.4509 -19.7259,-62.44 z"
         id="path4328"
         inkscape:connector-curvature="0"
         sodipodi:nodetypes="ccccscscc" /><path
         style="opacity:1;fill:#000000;fill-opacity:1;fill-rule:nonzero;stroke:#000000;stroke-width:0.90949553;stroke-miterlimit:4;stroke-dasharray:none;stroke-opacity:1"
         d="m 1383.5856,2407.0247 c -1.9382,3.5836 -4.0743,16.7517 -4.7468,29.2625 -1.0819,20.1228 -0.3761,24.5368 6.1164,38.2611 10.2672,21.7028 28.8277,46.8154 38.1728,51.6479 6.9054,3.5709 8.6207,3.5497 13.9345,-0.1723 7.3388,-5.1403 7.7943,-13.3856 1.1254,-20.3762 -7.4401,-7.7989 -12.3756,-17.2896 -10.5378,-20.2633 0.9004,-1.4569 14.2045,-9.1044 29.5647,-16.9943 43.364,-22.2746 48.4289,-27.7742 36.1307,-39.2315 -9.0587,-8.4397 -13.8139,-7.1969 -27.7833,7.2614 -15.4931,16.0353 -26.1633,20.8257 -46.3866,20.8257 -14.495,0 -15.8907,-0.5808 -18.632,-7.7541 -1.6297,-4.2649 -2.5499,-16.6364 -2.045,-27.4923 0.8593,-18.4726 0.5237,-19.7941 -5.2353,-20.614 -4.1015,-0.5839 -7.3288,1.2967 -9.6777,5.6394 z"
         id="path4332"
         inkscape:connector-curvature="0" /><path
         style="opacity:1;fill:#000000;fill-opacity:1;fill-rule:nonzero;stroke:#000000;stroke-width:0.90949553;stroke-miterlimit:4;stroke-dasharray:none;stroke-opacity:1"
         d="m 1439.7068,1510.3469 c -2.0114,1.1379 -6.1352,5.674 -9.1641,10.0801 -5.145,7.4846 -5.4946,8.6343 -5.3176,17.4895 0.2385,11.9268 3.1566,18.3196 12.6076,27.6198 13.319,13.1064 27.1031,16.6577 40.9243,10.5441 3.7397,-1.6544 7.897,-4.0011 9.2385,-5.2151 3.5179,-3.1837 7.0047,-19.7143 5.4593,-25.8821 -3.3702,-13.4503 -4.401,-15.2707 -12.4015,-21.9047 -14.7153,-12.2018 -32.5671,-17.6988 -41.3465,-12.7316 z m 22.3635,28.3592 c 6.6408,2.7748 11.6194,7.4197 10.6527,9.9389 -0.412,1.0735 -3.1298,2.6652 -6.0397,3.537 -4.3382,1.2997 -6.1522,1.1709 -10.0755,-0.7156 -6.1798,-2.9715 -11.6461,-10.5061 -9.4991,-13.093 2.0587,-2.4807 8.5752,-2.3358 14.9616,0.3327 z"
         id="path4334"
         inkscape:connector-curvature="0" /><path
         style="opacity:1;fill:#000000;fill-opacity:1;fill-rule:nonzero;stroke:#000000;stroke-width:0.90949553;stroke-miterlimit:4;stroke-dasharray:none;stroke-opacity:1"
         d="m 1527.9551,1700.5544 c -9.4601,4.3896 -11.6111,7.9467 -12.6985,21.0008 -0.934,11.2138 -0.7413,12.5981 2.8768,20.66 3.2628,7.2707 5.2018,9.5251 12.2271,14.2166 8.3843,5.5987 15.9599,8.051 20.5216,6.6427 10.3663,-3.2003 22.0808,-8.1095 23.0684,-9.6675 0.6554,-1.0339 1.2014,-6.2282 1.2132,-11.5427 0.019,-8.4256 -0.642,-10.9255 -5.1608,-19.525 -5.6175,-10.69 -10.9995,-16.8601 -17.7535,-20.3527 -5.9915,-3.0984 -19.0449,-3.8678 -24.2943,-1.4322 z m 22.3654,28.6073 c 4.6748,4.6747 4.9372,8.9837 0.5448,8.9408 -5.6716,-0.056 -15.1559,-5.2128 -15.1559,-8.2418 0,-5.5277 9.3359,-5.9743 14.6111,-0.699 z"
         id="path4336"
         inkscape:connector-curvature="0" /><path
         style="opacity:1;fill:#000000;fill-opacity:1;fill-rule:nonzero;stroke:#000000;stroke-width:0.90949553;stroke-miterlimit:4;stroke-dasharray:none;stroke-opacity:1"
         d="m 1602.152,1866.5384 c -5.4987,2.201 -14.2072,9.7642 -16.6238,14.4374 -1.766,3.4153 -2.0843,6.8745 -1.4541,15.8045 0.9496,13.4574 2.4537,17.2407 10.0905,25.3822 7.4205,7.9111 26.8345,20.4138 31.604,20.3532 5.6276,-0.072 10.0529,-4.7171 12.3495,-12.9648 2.8655,-10.2906 2.5086,-19.5902 -1.1696,-30.4795 -2.6675,-7.897 -4.5541,-10.6145 -12.7098,-18.3082 -5.2676,-4.9692 -9.5774,-9.8079 -9.5774,-10.7526 0,-0.9448 -1.6159,-2.454 -3.591,-3.3539 -4.161,-1.8958 -4.4675,-1.8999 -8.9183,-0.1183 z m 12.9966,33.9472 c 5.8903,4.0242 7.9417,6.6786 7.0193,9.0825 -1.1647,3.0352 -6.2909,2.359 -12.1139,-1.5978 -5.7376,-3.8988 -6.6282,-6.7673 -2.7945,-9.0002 3.2319,-1.8824 2.7919,-1.9669 7.8891,1.5155 z"
         id="path4338"
         inkscape:connector-curvature="0" /><path
         style="opacity:1;fill:#000000;fill-opacity:1;fill-rule:nonzero;stroke:#000000;stroke-width:3.27418399;stroke-miterlimit:4;stroke-dasharray:none;stroke-opacity:1"
         d="m 2137.4645,2637.9558 c -4.9347,1.1249 -9.124,2.1598 -9.3093,2.2999 -0.1854,0.1401 1.3116,7.58 3.3266,16.533 2.0149,8.9531 4.2282,19.0876 4.9183,22.5213 0.6902,3.4336 1.4364,6.3794 1.6581,6.5461 0.2218,0.1668 5.0015,-0.7952 10.6217,-2.1377 l 10.2184,-2.441 0,-7.6478 c 0,-6.0317 -0.7047,-9.743 -3.3346,-17.5636 -1.834,-5.4537 -3.8974,-12.271 -4.5855,-15.1496 -1.438,-6.0161 -0.7605,-5.8677 -13.5137,-2.9606 z"
         id="path4437"
         inkscape:connector-curvature="0" /><path
         style="opacity:1;fill:#000000;fill-opacity:1;fill-rule:nonzero;stroke:#000000;stroke-width:5.36602402;stroke-miterlimit:4;stroke-dasharray:none;stroke-opacity:1"
         d="m 2113.04,2576.8208 c 0,2.4441 6.2087,30.5444 6.9063,31.2572 0.4346,0.4443 5.5678,-0.6773 11.407,-2.4923 8.4098,-2.6139 10.4769,-3.6108 9.9434,-4.7953 -0.5275,-1.1711 -4.5442,-13.2729 -7.8587,-23.6768 -0.483,-1.5161 -20.398,-1.8019 -20.398,-0.2928 z"
         id="path4439"
         inkscape:connector-curvature="0" /><path
         style="display:inline;opacity:1;fill:#000000;fill-rule:evenodd;stroke:#000000;stroke-width:1.34035265px;stroke-linecap:butt;stroke-linejoin:miter;stroke-opacity:1;filter:url(#filter4226)"
         d="m 2120.9392,915.08543 c 0,0 -39.6374,-2.70104 -40.566,26.81402 -1.0739,34.13252 63.5771,33.76115 66.9467,16.7544 8.7867,-44.34492 -26.3807,-43.56842 -26.3807,-43.56842 z"
         id="path4234"
         inkscape:connector-curvature="0"
         sodipodi:nodetypes="cssc"
         transform="matrix(0.90949555,0,0,-0.90949555,15.702072,3348.6409)" /><a
         style="display:inline;opacity:1"
         id="a5272"
         transform="matrix(0.90949555,0,0,-0.90949555,15.702072,3348.6409)"><path
           style="opacity:1;fill:#000000;fill-opacity:1;fill-rule:nonzero;stroke:none;stroke-width:5.9000001;stroke-miterlimit:4;stroke-dasharray:none;stroke-opacity:1"
           d="m 2021.7676,1511.4805 c -8.572,-0.2307 -7.4809,4.1742 2.3222,25.4238 8.3755,18.1547 8.7556,23.3811 8.6192,118.3027 -0.1272,88.3912 -1.115,103.7781 -8.9863,139.9629 -19.3481,88.9451 -44.757,149.5204 -101.1582,241.1719 l -17.6543,28.6894 -11.0586,-21.873 c -7.6667,-15.1618 -13.3621,-21.873 -18.5586,-21.873 -12.1712,0 -12.7162,6.3363 -2.3164,26.8593 14.5102,28.6345 15.979,53.2473 6.3007,105.5508 -5.7353,30.9951 -22.2666,91.3167 -32.8652,123.1699 -0.1106,0.5466 -0.1989,1.0248 -0.3164,1.6075 -0.7342,2.4229 -1.2502,4.0706 -1.7148,5.5371 0.322,-0.4669 -2.7703,6.5595 -2.8788,8.3531 2.0839,6.671 1.5957,0.3713 1.4354,7.5316 -0.1741,0.8942 0.2593,0.7664 0.1797,1.7598 -0.2035,2.5374 -0.6081,5.0538 -0.8496,7.5879 -0.5774,6.0599 -0.4927,7.4032 -0.6699,13.8633 0.01,6.7389 -0.2087,13.4731 -0.543,20.2031 2.6021,-7.195 5.5518,-14.4809 8.9492,-22.1504 31.0573,-70.112 57.2571,-171.666 57.0176,-221.0098 -0.08,-16.5188 1.1486,-20.4534 6.3965,-20.4804 4.3486,-0.023 20.1592,-24.1586 47.8379,-73.0215 51.9978,-91.7946 52.0666,-91.9582 77.6933,-185.9258 12.4608,-45.6915 18.0127,-104.2601 17.5332,-184.9863 -0.4239,-71.3675 -1.0323,-77.3494 -10.0937,-99.3086 -8.1355,-19.7153 -11.3155,-23.5599 -20.3516,-24.5996 -1.6217,-0.1866 -3.0449,-0.3128 -4.2695,-0.3457 z M 866.80859,2524.2207 c -7.6382,0.6381 -15.27837,1.2512 -22.92187,1.8145 19.82068,31 46.17229,64.1498 73.11133,92.9003 5.80531,-3.6709 11.44635,-6.9177 17.46875,-9.7929 -25.02617,-26.2563 -49.58018,-56.862 -67.65821,-84.9219 z"
           id="path5244"
           inkscape:connector-curvature="0"
           sodipodi:nodetypes="cssscccssscccccccccsccssssscccccc" /></a><path
         style="opacity:1;fill:#000000;fill-opacity:1;fill-rule:nonzero;stroke:none;stroke-width:5.9000001;stroke-miterlimit:4;stroke-dasharray:none;stroke-opacity:1"
         d="m 1000.4201,127.5184 c -28.39459,4.38277 -111.42817,2.45217 -143.1698,14.10187 -30.10908,30.33563 1.69159,65.81571 -0.67239,96.35811 -1.42464,15.0609 2.22448,48.67672 2.67993,65.24301 0.0374,1.36137 -7.44006,-6.3575 -11.6878,-9.14072 -12.74674,-8.35198 -31.76253,-71.57849 -44.11243,34.70481 -1.78765,15.38454 -11.70512,15.49594 -23.96215,72.54642 -9.93797,46.25648 -13.03839,73.04994 -14.66435,126.72952 -2.00175,66.08401 3.84733,106.71785 22.209,123.42819 8.12873,7.39765 41.63429,17.83457 63.65167,29.75429 14.30424,7.74397 15.46296,9.17587 15.34274,18.96027 -0.20191,16.4259 -6.17734,34.4265 -22.59111,68.0539 -30.57978,62.6498 -63.13763,182.6432 -77.26223,284.75353 -3.3368,24.1225 -7.41704,53.8059 -9.06714,65.9631 -8.18109,60.2732 -5.90683,218.3877 3.22568,224.2603 8.48057,5.4538 13.00981,1.5944 12.50717,-10.6569 -2.74079,-66.8029 -1.08999,-173.0175 3.27422,-210.6564 17.18918,-148.24973 49.32309,-276.96713 88.3778,-354.01193 19.41861,-38.308 20.5788,-47.4461 17.54216,-138.16996 -4.57083,-136.56038 -3.34668,-291.57055 2.80462,-355.13739 6.56543,-67.84636 -14.38693,-91.33749 -1.5091,-101.15987 14.08752,-10.74511 80.27616,-17.80249 112.44741,-22.89791 43.6603,-6.91513 205.9789,-19.99609 259.5147,40.62397 20.9027,113.55052 15.4195,355.30064 16.6583,468.04317 1.4356,124.72349 1.0181,142.76609 -4.6451,200.67999 -3.4223,34.9995 -6.2228,65.8346 -6.2228,68.5223 0,5.5323 13.1117,6.9525 16.3165,1.7673 1.0602,-1.7159 4.5839,-25.2567 7.8296,-52.3127 6.2764,-52.3182 7.4704,-104.793 5.9799,-262.86487 -0.4509,-47.81831 -0.7825,-89.36573 -0.7368,-92.32759 0.1035,-6.62086 37.9625,18.88922 90.6602,61.08588 19.0733,15.27255 54.0868,42.1437 77.808,59.71375 39.3107,29.117 67.4694,52.46703 115.6566,95.90613 31.9156,28.7704 66.2797,86.1136 76.4719,127.6073 9.1194,37.1276 19.1719,175.12283 21.5926,296.41673 1.488,74.5642 0.9807,95.0173 -3.0114,121.4379 -6.1529,40.7198 -6.0868,42.5765 1.6058,45.018 10.2053,3.239 12.8946,-4.0395 18.7573,-50.7631 5.0382,-40.153 5.1723,-50.7332 1.8211,-143.7314 -1.9896,-55.2135 -4.8304,-109.0084 -6.3131,-119.5447 -1.4826,-10.5363 -3.442,-35.55723 -4.3539,-55.60263 -0.9118,-20.0453 -2.1761,-37.2862 -2.8094,-38.3135 -0.6336,-1.0273 -2.6749,-15.1303 -4.5363,-31.3396 -1.8612,-16.2097 -5.4908,-36.1034 -8.0658,-44.208 -7.1865,-22.6212 -26.5254,-59.6564 -43.0904,-82.5216 -18.4194,-25.4247 -22.1281,-29.34 -46.7399,-49.3413 -10.8154,-8.7896 -30.0461,-25.6032 -42.7344,-37.36365 -12.6884,-11.76054 -41.2519,-34.54955 -63.4744,-50.64224 -22.2226,-16.09271 -59.3573,-44.42922 -82.5216,-62.97 -23.1642,-18.54081 -54.8917,-41.39818 -70.5053,-50.79424 l -28.3883,-17.08366 -3.272,-29.47201 c 3.9531,-105.84811 17.2753,-220.83384 5.1998,-280.41679 -6.4972,-28.56961 -40.8429,-15.46661 -50.5203,-26.48865 -11.8136,-13.45477 -15.55,-14.47312 -90.6195,-24.69772 -23.5041,-3.20125 -49.3656,-6.99788 -57.4703,-8.43686 -21.669,-3.84743 -61.1822,-3.24603 -91.2052,1.38815 z m -152.08004,195.09917 10.23574,14.15548 -0.45523,79.7781 c -0.26295,46.08302 0.2208,101.05568 3.42059,159.76578 2.68336,49.23388 4.44411,89.95095 3.91277,90.48226 -1.83984,1.83984 -57.16569,-34.88207 -63.63741,-42.08097 -10.11128,-12.82685 -6.55088,-30.0645 -9.4345,-43.70025 -4.71336,-20.76336 -2.04903,-147.56487 7.56203,-179.50003 2.25727,-7.50036 5.5893,-21.82724 7.40451,-31.8375 5.03842,-27.78513 4.42493,-57.96072 17.65176,-57.94744 6.03692,0.006 19.8547,6.06494 23.33974,10.88457 z"
         id="path4397"
         inkscape:connector-curvature="0"
         sodipodi:nodetypes="sccssssssssssscsssssssccsscsscsssssscsscscscsssssscccssssscsscccsscs" /><path
         style="opacity:1;fill:#d35f5f;fill-opacity:1;fill-rule:nonzero;stroke:none;stroke-width:5.9000001;stroke-miterlimit:4;stroke-dasharray:none;stroke-opacity:1"
         d="m 968.72817,154.26918 c -35.557,5.36602 -69.8522,12.44008 -79.11554,16.31917 l -11.02851,4.61833 2.50765,19.13133 c 1.37921,10.52213 2.2188,37.64238 1.86575,60.26717 -0.35305,22.6247 -0.98688,139.43649 -1.4085,259.58167 l -0.7666,218.44582 -17.58041,38.299 c -24.87201,54.1836 -56.84137,153.1583 -48.24135,149.3514 39.5798,-17.5205 49.94073,-18.7823 60.29337,-7.3427 4.02177,4.444 8.78238,5.5131 24.54919,5.5131 19.31503,0 34.60268,4.8376 36.88024,11.6703 0.80081,2.4026 5.36793,2.5424 17.08796,0.5232 23.3805,-4.0282 32.41761,-1.8141 44.34748,10.8653 8.4698,9.0019 12.2649,10.9762 21.1061,10.98 17.2854,0.01 27.0673,6.8907 35.5705,25.0299 6.3959,13.6439 7.604,20.2373 7.8901,43.06173 0.1857,14.8231 0.505,28.466 0.7092,30.3176 0.2043,1.8515 4.5205,3.7665 9.5916,4.2554 27.8127,2.6817 23.7419,67.611 -8.1963,130.7298 -5.4127,10.697 -6.2061,14.7172 -3.7941,19.2243 2.4242,4.5296 1.8087,7.442 -2.9995,14.1946 -14.4526,20.2968 -22.5305,62.1199 -22.5766,116.89 -0.023,26.8014 0.175,27.6602 6.3599,27.6568 9.739,-0.01 180.9392,-13.6847 216.1924,-17.2745 35.7477,-3.6401 42.9293,-5.7754 45.3786,-13.4922 4.1766,-13.1596 41.4076,-19.7162 119.2907,-21.0078 l 42.5544,-0.7057 15.9486,9.2201 c 15.0402,8.6949 17.5448,9.2218 43.9728,9.2499 24.3381,0.026 137.3896,-5.7585 139.3928,-7.1322 0.3999,-0.2743 2.7747,-15.7038 5.2772,-34.2878 9.4754,-70.3644 -1.9057,-342.10673 -17.4541,-416.74453 -5.1347,-24.6484 -30.0803,-75.7276 -49.3923,-101.1369 -21.3557,-28.0982 -68.7262,-69.7955 -146.2559,-128.73987 -20.2842,-15.42177 -56.0299,-42.87944 -79.4348,-61.01706 -41.849,-32.43088 -73.9502,-55.28532 -81.9832,-58.36787 -3.5118,-1.3476 -4.2523,22.05836 -5.3198,168.1572 -1.0085,138.0235 -2.1026,175.2861 -5.8579,199.5107 -6.6112,42.6474 -6.5792,42.5544 -14.6976,42.5544 -8.7567,0 -8.8743,-3.4 -2.3072,-66.6685 4.019,-38.719 4.6243,-77.2936 4.1177,-262.41871 -0.6127,-223.95982 -2.9172,-305.65407 -10.4833,-371.64152 -4.1472,-36.17018 -4.8754,-38.80099 -13.1,-47.33051 -4.7898,-4.96739 -15.2001,-11.82408 -23.1341,-15.23724 -27.9275,-12.01407 -51.3874,-14.38794 -152.2077,-15.40149 -52.2709,-0.52559 -98.86803,-0.37753 -103.54893,0.32888 z"
         id="path4412"
         inkscape:connector-curvature="0" /><path
         style="opacity:1;fill:#d35f5f;fill-opacity:1;fill-rule:nonzero;stroke:none;stroke-width:5.9000001;stroke-miterlimit:4;stroke-dasharray:none;stroke-opacity:1"
         d="m 820.20665,331.9123 c -10.34537,34.98784 -16.86502,69.83198 -21.63091,115.60607 -10.13544,97.34586 -8.5418,163.75713 4.25651,177.38037 8.73493,9.29787 59.21548,42.30555 61.38399,40.13704 0.96578,-0.96579 0.2405,-31.02416 -1.61171,-66.79635 -1.85223,-35.77219 -3.3366,-108.85743 -3.29862,-162.41171 0.0678,-95.57316 -0.0456,-97.53858 -6.13989,-106.43263 -4.88592,-7.13053 -20.59633,-18.05076 -25.96879,-18.05076 -0.49993,0 -3.6457,9.25558 -6.99058,20.56797 z"
         id="path4414"
         inkscape:connector-curvature="0" /></g><g
       inkscape:groupmode="layer"
       id="layer2"
       inkscape:label="Arme2"
       style="display:inline;opacity:1;filter:url(#filter4226)"><g
         inkscape:groupmode="layer"
         id="layer3"
         inkscape:label="Hände"
         style="display:inline"><path
           style="display:inline;opacity:1;fill:#000000;fill-opacity:1;fill-rule:nonzero;stroke:none;stroke-width:5.9000001;stroke-miterlimit:4;stroke-dasharray:none;stroke-opacity:1"
           d="m 1201.1066,2918.679 c -10.6678,-1.549 -22.5048,-4.5508 -26.3042,-6.6704 -20.5102,30.1757 -45.1624,19.2539 -60.3732,18.867 -9.712,-0.2559 -15.7946,1.1573 -20.2498,6.5916 -11.5173,14.0484 -22.7694,14.8859 -51.2091,3.8112 -44.9615,-17.5082 -61.24643,-44.4593 -78.88238,-130.5475 -12.87262,-62.8371 -13.27649,-149.8447 -11.15951,-188.9726 1.00354,-18.548 28.44317,-32.4313 19.21768,45.6473 -0.26759,30.4847 -2.63036,41.4528 -1.01061,51.4866 1.0593,5.9733 3.565,24.2443 5.57318,40.6017 5.74317,46.9004 24.88234,117.1167 36.12994,132.5488 10.1982,13.9932 43.1738,29.9174 53.2815,25.7309 8.2465,-3.4158 8.1445,-5.3909 -0.989,-19.1215 -20.5099,-30.8322 -23.6761,-38.3709 -17.236,-41.0385 3.5187,-1.4573 13.4155,5.731 22.7673,16.537 10.1398,11.7167 22.7064,20.5333 32.4657,22.7781 44.972,23.1821 28.6876,-15.0332 24.6263,-22.2221 -1.853,-3.2261 -2.8383,-8.3527 -0.6174,-12.5632 3.2258,-6.1162 8.8655,-5.3841 26.3885,6.2102 68.7045,45.4582 90.0641,23.6844 80.0077,-11.7276 -5.5442,-19.5242 1.2032,-21.6189 23.4477,-7.2788 23.6901,15.2718 38.2256,11.1036 49.4004,-14.1657 14.7523,-33.3595 2.9998,-88.4573 -26.5398,-124.4254 -12.8764,-15.6792 -16.6938,-14.3954 -16.6936,5.6127 -2e-4,8.594 -2.7582,16.7676 -6.1293,18.1638 -15.5498,6.441 -20.0282,-51.2461 -5.9651,-76.8417 8.1115,-14.7637 24.8588,-22.089 32.3786,-14.163 3.6858,3.8846 3.2215,10.4269 -1.2826,18.082 l -7.0582,11.9953 16.9794,17.0637 c 22.8858,23.015 26.0344,28.8718 42.6814,35.1034 31.5414,19.1721 -11.4617,-101.6394 -17.6891,-114.7803 -33.1922,-69.6205 -16.5177,-68.1782 5.809,-28.2026 24.4446,43.7671 44.4503,100.832 43.1468,136.3958 -1.0239,27.9304 -11.8153,46.8022 -24.0944,42.135 -13.2165,-5.0229 -16.7813,3.952 -13.2586,33.3769 2.9335,24.506 1.0828,37.36 -8.8224,61.2731 -13.082,31.5828 -27.4779,33.8236 -46.9751,32.1349 -9.7578,-0.8456 -14.2166,1.8012 -21.8774,11.9938 -12.7189,16.9216 -26.3442,21.9967 -49.8794,18.5793 z"
           id="path4757"
           inkscape:connector-curvature="0"
           sodipodi:nodetypes="cccssssccsssssscccssssssssssccccssssssssc" /><g
           style="display:inline;opacity:1;filter:url(#filter4226)"
           id="g4862"
           transform="matrix(1.0503304,-0.43506111,0.43506111,1.0503304,-351.22265,130.20827)"><path
             sodipodi:nodetypes="sscsssssscsss"
             inkscape:connector-curvature="0"
             id="path4858"
             d="m 490.72279,2672.2586 c -3.58631,-4.2201 -9.92442,-19.8878 -14.87098,-32.8282 l -9.72057,-25.4293 9.71601,-7.5935 c 18.6538,-14.5787 -6.94695,-28.8451 -25.55294,-11.897 -2.33414,2.1262 -4.64141,5.0394 -5.93968,5.429 -4.64682,1.3946 -3.23304,-8.9441 -5.19638,-19.409 -1.58497,-8.4482 -4.10667,-26.6087 -2.58959,-32.6532 2.67349,-10.652 8.84513,-11.5971 44.95644,-12.3601 l 38.90973,-0.8221 -0.41075,58.0188 c -0.34249,48.3754 -11.28697,88.0395 -17.40402,88.0395 -1.75144,0 -8.31095,-4.2749 -11.89727,-8.4949 z"
             style="opacity:1;fill:#ffe6d5;fill-opacity:1;fill-rule:nonzero;stroke:none;stroke-width:5.9000001;stroke-miterlimit:4;stroke-dasharray:none;stroke-opacity:1" /><path
             sodipodi:nodetypes="ssscssscscsssssscssccsccsssccsssss"
             inkscape:connector-curvature="0"
             id="path4860"
             d="m 338.85431,2770.6192 c -7.96206,-4.1823 -22.99473,-19.4995 -32.56065,-33.1771 -8.59258,-12.2858 -17.66425,-22.3346 -20.16284,-22.3346 -0.94289,0 -3.04412,0.9723 -4.6694,2.1608 -2.33939,1.7106 -3.17141,4.9431 -3.99348,15.5155 -1.71178,22.0145 -6.69892,23.6158 -23.40005,7.5137 -12.10095,-11.667 -16.24529,-17.9551 -22.03674,-33.4358 -5.17912,-13.844 -9.56731,-19.9685 -13.86792,-19.3554 -4.75794,0.6784 -5.04427,9.7888 -1.02043,32.4678 1.79976,10.1438 2.84917,19.1278 2.33203,19.9646 -1.85129,2.9954 -9.68765,1.4771 -15.26913,-2.9585 -7.13341,-5.669 -17.2462,-17.7047 -21.63429,-25.7481 -2.97156,-5.4469 -3.36688,-8.4618 -3.25214,-24.8024 0.21849,-31.1158 6.02387,-66.2578 19.07806,-115.4863 6.79376,-25.6199 9.26209,-32.1491 23.14817,-61.231 8.54894,-17.9043 16.81609,-36.5201 18.37145,-41.3686 l 2.82794,-8.8153 11.62614,7.1245 c 21.47263,13.1585 69.82063,35.6377 96.10942,44.6856 14.06763,4.8418 30.55337,11.0821 36.63499,13.8675 30.09799,7.9854 21.36747,6.0525 57.55877,13.9597 12.68331,10.6717 9.69976,43.4441 3.3603,54.1217 -9.70407,16.3447 -15.76683,28.4456 -19.71213,36.1335 -3.41222,10.8119 -4.98346,19.7608 -2.00509,27.1212 0.48274,2.5482 5.63961,2.4396 10.7741,-2.9112 2.02826,-2.1137 8.96876,-23.1664 13.68426,-19.7934 2.94523,2.1067 8.81517,12.5601 10.17327,21.3658 0.97319,6.3099 3.0108,17.0938 3.12865,21.0482 0.0421,32.0802 -7.19183,68.1892 -34.20147,87.0089 -5.44858,3.609 -10.39573,3.002 -15.21117,3.002 -7.94591,0 -12.65912,-3.5664 -24.76607,-18.7403 -12.35934,-15.4901 -17.71676,-15.7255 -20.05935,-0.8812 -1.87065,11.8538 -4.42062,18.396 -8.92657,22.9019 -5.48475,5.4847 -12.97066,5.85 -22.05863,1.0763 z"
             style="opacity:1;fill:#ffe6d5;fill-opacity:1;fill-rule:nonzero;stroke:none;stroke-width:5.9000001;stroke-miterlimit:4;stroke-dasharray:none;stroke-opacity:1" /></g></g><path
         style="opacity:1;fill:#ff0000;fill-opacity:1;fill-rule:nonzero;stroke:none;stroke-width:5.9000001;stroke-miterlimit:4;stroke-dasharray:none;stroke-opacity:1"
         d=""
         id="path4289"
         inkscape:connector-curvature="0" /><path
         style="opacity:1;fill:#000000;fill-opacity:1;fill-rule:nonzero;stroke:none;stroke-width:5.9000001;stroke-miterlimit:4;stroke-dasharray:none;stroke-opacity:1"
         d="m 1157.5568,4035.8828 c -25.3554,-2.6842 -51.4944,-7.317 -58.0869,-10.295 -20.5947,-9.3035 -35.1185,-39.3872 -39.1529,-81.0989 -2.4278,-25.1015 11.1283,-45.717 2.7065,-55.0046 48.6605,-7.8267 175.2584,0.2292 232.8349,0.3481 161.0365,0.055 222.2429,-8.1631 263.8456,-35.4222 20.5739,-13.4805 45.5306,-13.7489 40.4215,-0.4347 -5.0644,13.1976 1.3816,16.4805 63.6092,32.3957 29.1355,7.4516 65.5023,19.9401 80.8155,27.7522 37.9231,19.347 72.5995,60.1096 72.5995,85.342 0,39.869 2.4588,39.5565 -318.4656,40.4639 -162.2647,0.4587 -315.7721,-1.3621 -341.1273,-4.0465 z"
         id="path4407"
         inkscape:connector-curvature="0"
         sodipodi:nodetypes="sssccsssssss" /><path
         style="opacity:1;fill:#000000;fill-opacity:1;fill-rule:nonzero;stroke:none;stroke-width:5.9000001;stroke-miterlimit:4;stroke-dasharray:none;stroke-opacity:1"
         d="m 980.46638,3277.4742 c -26.60416,20.2236 -77.16567,58.8909 -103.89712,89.964 -38.8269,45.1327 -40.16569,48.2185 -55.40042,127.4197 -20.65104,107.3664 -31.71028,189.7762 -35.53329,264.8101 -1.72383,33.8293 0.90496,90.726 5.84186,126.4349 10.30617,74.5501 23.95699,95.882 68.78432,107.5063 128.26107,-2.1211 151.15637,-178.8875 171.36617,-274.2391 1.5633,-6.8665 3.2269,-13.7227 5.2169,-20.4788 -2.7453,-8.3605 -5.4619,-16.7775 -8.0172,-25.054 -20.6767,-66.9607 -25.226,-94.1477 -34.826,-208.0979 -2.9905,-35.4911 -5.0206,-63.4778 -5.9659,-85.5931 -15.76755,-33.195 -0.7989,-70.5855 -7.56932,-102.6721 z"
         id="path4409"
         inkscape:connector-curvature="0"
         sodipodi:nodetypes="csscsccccscc" /></g><g
       inkscape:groupmode="layer"
       id="layer1"
       inkscape:label="Colorierung"
       style="display:inline;opacity:1"><path
         style="display:inline;opacity:1;fill:#fff6d5;fill-opacity:1;fill-rule:nonzero;stroke:none;stroke-width:5.9000001;stroke-miterlimit:4;stroke-dasharray:none;stroke-opacity:1;filter:url(#filter4682)"
         d="m 1908.6775,1522.0798 c -4.6987,-5.2962 -17.923,-23.0289 -29.3874,-39.4059 l -20.8443,-29.7763 13.6306,0 c 13.5718,0 81.9064,6.5653 118.5468,11.3894 l 19.2432,2.5336 -12.6263,13.4601 c -13.6242,14.5239 -52.1417,40.8296 -69.3807,47.3838 -8.5292,3.2428 -12.3329,2.1354 -19.1819,-5.5847 z"
         id="path5064"
         inkscape:connector-curvature="0"
         transform="matrix(1.1368694,0,0,1.1368694,19.627589,-105.80125)" /><path
         style="display:inline;opacity:1;fill:#fff6d5;fill-opacity:1;fill-rule:nonzero;stroke:none;stroke-width:5.9000001;stroke-miterlimit:4;stroke-dasharray:none;stroke-opacity:1;filter:url(#filter4682)"
         d="m 1462.7833,1230.9806 c -6.3258,-17.4936 -7.0528,-47.1728 -1.1555,-47.1728 2.2909,0 9.049,4.4664 15.0179,9.9254 10.188,9.3176 10.5407,11.121 5.7601,29.4485 -6.3437,24.3201 -12.7305,26.8585 -19.6225,7.7989 z"
         id="path5068"
         inkscape:connector-curvature="0"
         transform="matrix(1.1368694,0,0,1.1368694,19.627589,-105.80125)" /><path
         style="display:inline;opacity:1;fill:#ffe6d5;fill-opacity:0.99215686;fill-rule:nonzero;stroke:none;stroke-width:5.9000001;stroke-miterlimit:4;stroke-dasharray:none;stroke-opacity:1;filter:url(#filter4682)"
         d="m 1925.0612,1428.3592 c -32.754,-3.2333 -68.4856,-8.1102 -79.4036,-10.8377 -10.918,-2.7274 -54.5899,-21.9215 -97.0488,-42.6536 -48.2956,-23.5821 -102.669,-45.9984 -145.2313,-59.874 -95.8776,-31.2569 -106.3605,-42.0765 -95.5245,-98.5934 3.9983,-20.8539 0.09,-25.7944 -49.4465,-62.5031 -28.3145,-20.9824 -36.9508,-35.7938 -27.5061,-47.174 12.5932,-15.1739 21.217,-12.3685 47.3856,15.4149 25.015,26.5588 26.0224,27.1159 53.4879,29.5804 l 27.9927,2.5118 29.8638,-31.0717 c 33.5127,-34.8681 38.5638,-46.9041 29.1446,-69.4475 -5.0264,-12.0299 -9.0036,-15.4767 -17.8584,-15.4767 -12.6186,0 -19.4823,11.0423 -11.7006,18.824 8.69,8.69 5.4794,20.3184 -10.4902,37.9949 -20.5306,22.7249 -36.9369,29.2825 -60.7543,24.2833 -16.926,-3.5526 -19.732,-6.1646 -31.1503,-28.9963 -11.7943,-23.5833 -12.5623,-28.5121 -12.7731,-81.9763 -0.2652,-67.23746 6.6379,-94.74633 33.9465,-135.27672 29.7137,-44.09992 63.682,-55.35144 98.1809,-32.5211 9.7122,6.42722 23.4006,12.34129 30.4187,13.14239 19.2188,2.19378 30.4481,27.73193 30.2206,68.72899 l -0.1775,31.98199 37.937,0 c 55.348,0 55.4921,-0.17944 50.0274,-62.27991 -2.4301,-27.61465 -2.8148,-52.06699 -0.8549,-54.33854 2.1973,-2.54681 45.4409,-0.41268 112.8039,5.56703 60.0822,5.33341 115.692,9.67331 123.5773,9.64422 17.1335,-0.0632 16.5341,-8.23335 7.0487,96.07954 -5.2426,57.65491 -5.9807,82.04961 -2.5852,85.44511 7.584,7.5841 39.5218,12.1182 87.0711,12.3614 53.6102,0.2741 111.0448,6.5027 127.0007,13.7727 15.9625,7.273 17.974,16.5756 10.1021,46.7203 -8.0105,30.6753 -15.1293,36.7144 -43.2785,36.7144 -25.644,0 -45.5628,-9.5503 -77.9057,-37.3527 -25.7359,-22.1229 -41.3522,-25.0512 -43.7514,-8.204 -1.0244,7.193 4.5144,14.0236 22.1972,27.3742 33.8932,25.5896 67.0469,39.371 118.8917,49.4211 51.8159,10.0446 55.8023,13.0988 78.9435,60.4841 25.0127,51.2173 16.2664,94.7721 -27.195,135.4251 -24.7061,23.1097 -81.2848,51.5059 -117.8002,59.1225 -30.5064,6.3633 -128.7631,5.3908 -203.8058,-2.0171 z m -405.4895,-389.0218 c 0.193,-1.8196 1.0333,-13.6735 1.8674,-26.3418 1.9352,-29.39051 3.8474,-32.108 22.5942,-32.108 18.5174,0 30.073,5.46731 48.6105,22.9991 14.6929,13.8959 26.308,14.8325 33.9254,2.7357 6.6104,-10.49768 -1.435,-18.50228 -37.8074,-37.61542 -34.0537,-17.89471 -38.8792,-24.21749 -27.8141,-36.44429 10.088,-11.14713 7.311,-28.48524 -4.8399,-30.21793 -11.6422,-1.66014 -36.7906,27.52913 -50.5844,58.71218 -7.6632,17.32413 -8.9384,26.31388 -6.7297,47.44546 1.4988,14.3393 3.8475,27.8877 5.2194,30.1075 2.995,4.846 15.0619,5.4102 15.5586,0.7275 z"
         id="path5072"
         inkscape:connector-curvature="0"
         transform="matrix(1.1368694,0,0,1.1368694,19.627589,-105.80125)" /><path
         style="display:inline;opacity:1;fill:#ffe6d5;fill-opacity:0.99215686;fill-rule:nonzero;stroke:none;stroke-width:5.9000001;stroke-miterlimit:4;stroke-dasharray:none;stroke-opacity:1;filter:url(#filter4682)"
         d="m 2172.0944,839.63559 c -59.4424,-6.83354 -144.8012,-14.60775 -189.6862,-17.27601 -134.2983,-7.98356 -211.648,-13.7535 -218.2291,-16.27891 -10.1874,-3.90926 -19.6659,-67.06458 -19.7778,-131.779 -0.077,-44.24885 3.4437,-55.68744 13.4195,-43.60499 24.4705,29.63797 198.2139,62.34776 272.3205,51.2684 27.8168,-4.15876 42.4936,-3.36863 105.8714,5.69969 40.4678,5.79028 90.4511,11.79367 111.074,13.34088 27.7521,2.08208 43.5545,5.85596 60.8097,14.52242 l 23.3135,11.7093 -2.6821,17.64523 c -4.8716,32.05009 -5.6345,33.08481 -24.3914,33.08481 -14.5385,0 -17.348,1.46203 -17.348,9.02779 0,5.29841 5.1981,12.01107 12.5831,16.24947 11.7439,6.74007 12.3265,8.36324 8.7369,24.33958 -2.1154,9.41485 -2.6979,18.97585 -1.2944,21.24666 3.6538,5.91202 -13.4787,4.74264 -134.7196,-9.19532 z m 33.152,-48.64594 c 3.828,-12.06082 -3.4318,-19.87308 -26.7394,-28.77433 -17.1388,-6.54537 -25.0711,-6.79948 -69.1306,-2.21456 -74.0317,7.70388 -112.6427,13.99017 -120.2944,19.58523 -5.2053,3.80623 9.7548,5.0824 62.7233,5.35064 48.4655,0.24545 77.5854,2.47499 96.0269,7.35227 38.2563,10.11774 53.903,9.76366 57.4142,-1.29925 z"
         id="path5074"
         inkscape:connector-curvature="0"
         transform="matrix(1.1368694,0,0,1.1368694,19.627589,-105.80125)" /><path
         style="display:inline;opacity:1;fill:#ffe6d5;fill-opacity:0.99215686;fill-rule:nonzero;stroke:none;stroke-width:5.9000001;stroke-miterlimit:4;stroke-dasharray:none;stroke-opacity:1;filter:url(#filter4682)"
         d="m 2076.2893,1012.8893 -45.0751,-1.4281 1.9253,-11.97831 c 1.0589,-6.58808 4.2081,-39.76957 6.9982,-73.73665 2.79,-33.96707 5.6841,-62.82073 6.4312,-64.11924 0.7471,-1.29851 32.7699,0.71334 71.1617,4.47077 l 69.8034,6.83171 -0.4885,13.17446 c -0.2687,7.24595 -2.9977,39.47688 -6.0643,71.62429 l -5.5758,58.44987 -27.0205,-0.9304 c -14.8613,-0.5117 -47.3043,-1.5729 -72.0956,-2.3584 z m 63.9444,-47.69142 c 12.477,-8.73923 12.9702,-29.66869 0.9816,-41.65729 -16.221,-16.221 -55.1264,-8.17822 -60.3081,12.46731 -6.743,26.86661 34.0136,46.91982 59.3265,29.18998 z"
         id="path5076"
         inkscape:connector-curvature="0"
         transform="matrix(1.1368694,0,0,1.1368694,19.627589,-105.80125)" /><path
         style="display:inline;opacity:1;fill:#ffe6d5;fill-opacity:0.99215686;fill-rule:nonzero;stroke:none;stroke-width:5.9000001;stroke-miterlimit:4;stroke-dasharray:none;stroke-opacity:1;filter:url(#filter4682)"
         d="m 2341.9298,1074.9384 c -27.4975,-6.1543 -69.0052,-21.8255 -88.2262,-33.3099 -36.2,-21.6294 -41.9162,-28.6764 -41.8424,-51.58441 0.1333,-41.35251 16.5898,-52.64825 77.1329,-52.94399 62.7637,-0.30659 128.7449,19.35023 150.0863,44.71298 14.593,17.34285 15.2409,49.74682 1.3477,67.40912 -17.9914,22.8724 -61.0154,34.1052 -98.4983,25.7162 z"
         id="path5080"
         inkscape:connector-curvature="0"
         transform="matrix(1.1368694,0,0,1.1368694,19.627589,-105.80125)" /><path
         style="display:inline;opacity:1;fill:#ffe6d5;fill-opacity:0.99215686;fill-rule:nonzero;stroke:none;stroke-width:5.9000001;stroke-miterlimit:4;stroke-dasharray:none;stroke-opacity:1;filter:url(#filter4682)"
         d="m 2229.4414,907.811 c 0,-20.57241 16.3573,-29.69232 31.982,-17.83144 10.6588,8.09115 9.6695,13.6113 -3.516,19.61902 -15.8038,7.20069 -28.466,6.40555 -28.466,-1.78758 z"
         id="path5078"
         inkscape:connector-curvature="0"
         transform="matrix(1.1368694,0,0,1.1368694,19.627589,-105.80125)" /><path
         style="display:inline;opacity:1;fill:#b3b3b3;fill-opacity:1;fill-rule:nonzero;stroke:none;stroke-width:5.9000001;stroke-miterlimit:4;stroke-dasharray:none;stroke-opacity:1;filter:url(#filter4682)"
         d="m 1431.0655,1056.0187 c -4.9121,-9.6285 -11.6422,-29.1276 -14.9557,-43.3313 -3.3135,-14.20369 -8.6612,-30.64317 -11.8839,-36.53215 -3.649,-6.66811 -6.5517,-31.71409 -7.6948,-66.39396 l -1.8354,-55.68672 28.2357,-13.34073 c 37.911,-17.91209 74.8232,-28.65012 80.1555,-23.31781 2.6532,2.65315 -2.4398,15.22816 -13.8539,34.20632 -38.4668,63.959 -47.4538,99.66951 -43.3555,172.27555 3.0534,54.0953 -0.1061,60.9469 -14.812,32.1208 z"
         id="path5082"
         inkscape:connector-curvature="0"
         transform="matrix(1.1368694,0,0,1.1368694,19.627589,-105.80125)" /><path
         style="display:inline;opacity:1;fill:#b3b3b3;fill-opacity:1;fill-rule:nonzero;stroke:none;stroke-width:5.9000001;stroke-miterlimit:4;stroke-dasharray:none;stroke-opacity:1;filter:url(#filter4682)"
         d="m 1685.1084,922.43776 c -0.8058,-3.03277 -3.8223,-15.43958 -6.7032,-27.57067 -7.8575,-33.08686 -18.672,-52.37308 -30.9294,-55.15854 -5.8857,-1.33751 -11.5101,-4.85843 -12.4987,-7.82429 -3.4803,-10.44092 85.5864,-4.32312 96.5407,6.63118 2.3408,2.34075 5.4399,18.37815 6.8869,35.63868 3.5303,42.10945 -3.4098,53.79778 -31.9435,53.79778 -12.1878,0 -20.4549,-2.13489 -21.3528,-5.51414 z"
         id="path5084"
         inkscape:connector-curvature="0"
         transform="matrix(1.1368694,0,0,1.1368694,19.627589,-105.80125)" /><path
         style="display:inline;opacity:1;fill:#b3b3b3;fill-opacity:1;fill-rule:nonzero;stroke:none;stroke-width:5.9000001;stroke-miterlimit:4;stroke-dasharray:none;stroke-opacity:1;filter:url(#filter4682)"
         d="m 1421.971,808.51141 c -3.1939,-3.1939 -1.1823,-11.76745 4.2856,-18.26577 4.96,-5.89461 6.7643,-6.65161 13.0454,-5.47327 6.2643,1.1752 7.8444,0.52043 11.2363,-4.65633 3.3114,-5.05377 4.0157,-11.56985 4.3736,-40.4633 0.3216,-25.95684 1.3366,-36.88414 4.1211,-44.3649 10.0028,-26.87325 10.379,-29.12134 8.9464,-53.46321 l -1.3941,-23.68685 11.6967,-5.17424 c 15.4262,-6.82408 60.0766,-40.60098 82.5029,-62.41146 24.9818,-24.29576 40.8797,-49.36181 31.3073,-49.36181 -1.4603,0 -13.6189,11.29255 -27.0193,25.09454 -29.4588,30.34182 -48.1118,46.09237 -76.0347,64.20351 -27.0739,17.56042 -29.2909,18.37574 -28.5299,10.4919 0.3212,-3.3273 -0.1312,-10.5161 -1.0053,-15.97509 -1.2866,-8.03432 -0.3163,-13.70768 5.0927,-29.77633 3.6752,-10.91799 6.2985,-17.04614 5.8296,-13.61811 -1.5569,11.3814 2.1439,2.88581 9.4407,-21.67236 4.5465,-15.30173 11.2652,-31.31513 18.1922,-43.35937 12.2411,-21.28425 22.6488,-46.65097 24.9646,-60.84623 1.4651,-8.98124 3.6937,-12.11916 9.2024,-12.95715 4.0254,-0.61235 27.4472,-17.07245 48.62,-34.16869 21.4516,-17.32131 45.5279,-30.30783 78.9688,-42.5949 37.9875,-13.95763 43.6161,-16.47346 69.5131,-31.07015 29.2666,-16.49592 46.1325,-21.54499 52.5546,-15.73306 3.8593,3.49263 4.9697,3.11326 20.4104,-6.97309 17.6421,-11.52443 51.3662,-39.07635 63.6318,-51.98598 4.9905,-5.25249 9.5988,-8.00014 13.4178,-8.00014 7.8187,0 8.7023,1.33676 5.8602,8.86622 -1.3297,3.52275 -1.817,7.00559 -1.0829,7.73965 0.734,0.73405 15.0811,-3.83141 31.8823,-10.14548 16.8013,-6.31407 41.9097,-15.31146 55.7966,-19.9942 l 25.2488,-8.51408 5.6303,5.15876 c 18.3028,16.76987 65.6316,34.71131 169.3074,64.18112 61.7177,17.54322 90.0987,27.19766 116.4798,39.62322 27.6715,13.03337 33.8443,19.16366 48.6304,48.29514 30.7179,60.52055 57.4075,88.19807 127.5613,132.28319 9.6925,6.09084 16.7643,12.04812 16.7643,14.12225 0,4.9325 16.4164,45.58988 41.2529,102.16804 22.8897,52.14316 37.7212,76.57281 73.6494,121.31098 41.6723,51.89086 42.9503,61.05575 7.6991,55.21147 -19.6397,-3.25603 -32.6386,-7.96762 -64.1516,-23.25223 -44.528,-21.59725 -88.3123,-50.90727 -122.8634,-82.24701 -21.5197,-19.51951 -26.0182,-21.2296 -26.0182,-9.89057 0,6.16954 3.2415,12.82409 14.1113,28.96941 4.3699,6.49074 7.9452,13.02388 7.9452,14.5181 0,4.38595 -14.9898,8.12197 -37.82,9.4262 -17.6823,1.01014 -23.8473,0.43502 -36.4849,-3.40353 -29.5321,-8.97008 -55.7296,-30.64467 -97.4824,-80.65239 -36.7362,-43.99925 -52.2573,-56.78842 -56.26,-46.35758 -6.2363,16.25173 33.1553,69.19113 79.1168,106.32694 4.8255,3.89895 7.7755,7.08899 6.5554,7.08899 -3.3655,0 -99.3298,-25.88139 -115.6864,-31.20037 -42.2854,-13.75075 -109.3978,-48.26476 -167.1124,-85.94126 -16.4142,-10.71535 -26.9852,-13.71705 -26.9852,-7.66262 0,4.55075 19.8648,33.38624 33.4301,48.52684 15.73,17.55652 26.8974,24.16702 56.3687,33.36714 13.6924,4.27438 24.8952,8.37837 24.8952,9.12003 0,2.56464 -126.5789,-1.25895 -147.7788,-4.46398 -52.7977,-7.98205 -73.9894,-15.9964 -186.7845,-70.63906 -65.1128,-31.54337 -74.6992,-35.20724 -76.9271,-29.40137 -2.3019,5.99876 3.193,13.1034 31.0481,40.14304 31.2953,30.37914 32.6593,33.16062 36.3516,74.1282 2.0562,22.81441 3.0926,136.51178 1.2444,136.51178 -10.1261,0 -89.731,-7.93074 -112.6213,-11.22003 -76.3756,-10.97508 -151.6925,-6.834 -184.9271,10.16762 -12.1176,6.19897 -11.2659,5.94157 -13.2141,3.99327 z m 664.2093,-304.33682 c 0.3713,-2.60451 -1.862,-10.76309 -4.9627,-18.13017 -6.2762,-14.91159 -7.2883,-24.55593 -2.5769,-24.55593 1.6834,0 9.3756,2.93937 17.0938,6.53194 29.1812,13.58297 58.0844,17.23688 68.9209,8.71288 7.9431,-6.24806 12.2783,-15.22106 10.1194,-20.94533 -0.9537,-2.52874 -5.1177,-9.97282 -9.2533,-16.54241 -9.4039,-14.93834 -15.7241,-29.88809 -20.4357,-48.33801 -4.66,-18.24836 -8.7599,-24.74203 -15.0554,-23.84592 -10.3919,1.47917 -6.5709,24.93483 11.2924,69.31991 3.3837,8.40743 3.9049,11.92381 2.0434,13.78534 -4.3301,4.3301 -21.9064,2.67114 -40.584,-3.83058 -23.157,-8.06103 -36.2887,-15.82888 -51.9414,-30.72531 -8.365,-7.9608 -13.7819,-11.54823 -16.0964,-10.66009 -4.2976,1.64915 -3.1716,9.08463 5.8474,38.61221 3.473,11.37046 6.3145,23.16354 6.3145,26.20686 0,5.17801 -0.5638,5.45764 -8.7821,4.35535 -19.558,-2.6233 -85.6496,-39.90907 -123.5571,-69.70521 -35.5081,-27.91009 -39.7018,-29.7687 -39.7018,-17.59539 0,16.24622 58.526,61.64485 117.3288,91.0119 57.792,28.86226 92.2499,38.51848 93.9862,26.33796 z"
         id="path5088"
         inkscape:connector-curvature="0"
         transform="matrix(1.1368694,0,0,1.1368694,19.627589,-105.80125)" /><path
         style="display:inline;opacity:1;fill:#fff6d5;fill-opacity:1;fill-rule:nonzero;stroke:none;stroke-width:5.9000001;stroke-miterlimit:4;stroke-dasharray:none;stroke-opacity:1;filter:url(#filter4682)"
         d="m 1783.8993,2086.1279 c 0,-8.7421 11.7964,-24.4698 18.3533,-24.4698 6.0753,0 8.1145,3.3259 8.1145,13.234 0,11.7635 -1.4704,13.2339 -13.2339,13.2339 -7.2786,0 -13.2339,-0.8991 -13.2339,-1.9981 z"
         id="path5070"
         inkscape:connector-curvature="0"
         transform="matrix(1.1368694,0,0,1.1368694,19.627589,-105.80125)" /><path
         style="opacity:1;fill:#502d16;fill-opacity:1;fill-rule:nonzero;stroke:none;stroke-width:5.9000001;stroke-miterlimit:4;stroke-dasharray:none;stroke-opacity:1"
         d="m 2066.4666,2394.4615 c -1.3791,-0.4793 -30.1532,-2.1107 -63.9423,-3.6253 -62.9173,-2.8205 -118.1915,-6.8475 -126.0039,-9.1803 -3.4663,-1.035 -4.3653,-4.0405 -4.2789,-14.3059 0.1211,-14.3747 6.1763,-71.5217 7.7446,-73.09 2.0609,-2.0609 172.0518,-3.9339 185.2268,-2.0408 l 13.7914,1.9817 -0.1296,46.7734 c -0.1408,50.8547 -1.6211,57.2358 -12.4081,53.4872 z"
         id="path5143"
         inkscape:connector-curvature="0" /><path
         style="opacity:1;fill:#000000;fill-opacity:1;fill-rule:nonzero;stroke:none;stroke-width:5.9000001;stroke-miterlimit:4;stroke-dasharray:none;stroke-opacity:1"
         d="m 1041.227,2627.7442 c -31.8943,-3.6559 -88.43514,14.785 -105.73827,-6.1387 -13.65332,-16.51 7.39503,-79.4693 -1.30894,-118.7188 -15.3334,-69.1439 -17.81322,-87.8967 -23.30434,-176.2307 -2.8826,-46.371 -7.85784,-114.3734 -11.05613,-151.1164 -8.3833,-96.3098 -5.3724,-178.7913 9.024,-247.2072 6.43997,-30.6046 13.74663,-68.6716 16.23692,-84.5937 4.55234,-29.1056 12.35587,-60.8293 24.10185,-97.9815 3.48505,-11.0229 9.44385,-30.0625 13.24181,-42.3103 3.79796,-12.2475 10.75638,-32.2891 15.4632,-44.5368 4.70684,-12.2477 13.5236,-38.7476 19.5929,-58.8886 11.0517,-36.6753 67.745,-145.056 108.9782,-208.3336 11.1732,-17.1468 41.425,-52.4387 67.2261,-78.4266 46.3606,-46.6959 75.9019,-68.1921 103.823,-75.5476 7.8911,-2.0788 37.3953,-9.9957 65.565,-17.5932 45.9937,-12.4044 61.5273,-14.2759 152.2974,-18.3501 82.1652,-3.6878 119.0652,-5.9352 129.1161,-1.1181 6.8005,3.2594 4.8984,9.1842 4.9673,11.6337 0.077,2.7285 -43.3923,6.9351 -99.3253,8.8767 -50.2155,1.743 -107.3342,5.3788 -126.9306,8.0797 -44.0053,6.0649 -123.889,28.9529 -144.4879,41.3983 -47.9898,28.9943 -115.8373,104.81 -158.2914,176.8817 -40.2464,68.3238 -82.4243,149.8703 -82.5809,159.6618 -0.064,3.9539 -5.1703,21.2181 -11.349,38.3647 -26.49395,73.524 -48.78807,150.0495 -57.73854,198.1898 -3.41567,18.3714 -11.41822,58.4548 -17.78345,89.074 -9.59135,46.1382 -11.60004,67.8739 -11.73035,126.9306 -0.0864,39.1927 1.95674,95.3092 4.54043,124.7037 2.58367,29.3944 5.91552,76.4923 7.4041,104.662 3.48926,66.0311 10.4009,139.9136 15.20739,162.5601 14.25449,67.1625 19.66202,96.5801 14.71813,120.896 -8.95789,44.0582 42.05749,30.5361 145.92029,30.4983 93.6689,-0.034 144.2228,-20.8395 175.4054,-41.8535 19.0037,-12.8066 1.8312,-22.7429 -5.6697,-55.3228 -5.8704,-25.4983 -6.2319,-190.7144 -0.5228,-239.0467 12.555,-106.2925 24.0837,-174.7345 39.7606,-236.0462 18.5786,-72.6588 45.817,-162.1952 63.0023,-207.0971 8.384,-21.906 10.2822,-35.7819 10.5309,-76.9885 0.2868,-47.4712 0.7938,-50.1953 9.1213,-48.9906 8.0343,1.162 10.4107,5.5407 18.8215,34.6782 1.0883,3.7696 10.7296,-10.2995 22.1278,-32.2895 14.258,-27.5072 22.6046,-38.9698 28.3769,-38.9698 4.4975,0 9.4144,2.0013 10.9261,4.4474 1.5118,2.4461 -11.5356,31.6901 -28.994,64.9869 -32.2604,61.5262 -65.483,140.9446 -80.8764,193.3342 -30.7733,104.7335 -46.2239,171.2072 -57.4528,247.1804 -16.2235,109.7665 -16.9657,122.3482 -15.4078,261.1579 1.4248,126.9443 41.0725,126.1236 33.3338,138.8488 -9.2841,15.2662 -70.4539,38.6745 -105.9383,49.1943 -28.5216,8.4558 -135.4754,12.8299 -182.3438,7.4574 z"
         id="path5242"
         inkscape:connector-curvature="0"
         sodipodi:nodetypes="ssssssssssssssssscsssscsssssssssssssssccsscsssssss" /><path
         style="opacity:1;fill:#fff6d5;fill-opacity:1;fill-rule:nonzero;stroke:none;stroke-width:5.9000001;stroke-miterlimit:4;stroke-dasharray:none;stroke-opacity:1"
         d="m 1495.314,2250.23 c -52.4076,-6.9175 -96.1998,-13.4146 -97.3159,-14.4382 -1.1162,-1.0235 36.5385,-80.3113 83.6768,-176.1952 89.4365,-181.9219 94.2727,-194.0673 176.0818,-442.2122 24.9297,-75.6171 47.5891,-139.7482 50.3542,-142.5132 3.3599,-3.3598 9.96,5.9662 19.8981,28.1164 35.6766,79.5164 100.8079,156.8333 100.8079,119.6684 0,-5.1396 -11.5866,-24.8864 -25.7482,-43.8819 -39.6655,-53.2053 -103.1911,-190.6218 -92.8857,-200.9273 2.0362,-2.0362 16.5854,3.2754 32.3314,11.8037 15.746,8.5283 51.8972,22.6466 80.336,31.3739 83.6497,25.6706 181.4944,71.4454 181.4944,84.9088 0,2.3002 -9.5364,8.4743 -21.1922,13.7203 -50.1565,22.574 -155.9323,117.6505 -130.514,117.3123 2.0687,-0.027 27.4052,-15.8425 56.3031,-35.1444 28.8981,-19.302 54.8511,-34.3387 57.6734,-33.4151 27.5714,9.023 -26.812,150.0536 -173.5231,449.991 -49.3086,100.8071 -89.6521,186.1888 -89.6521,189.7371 0,18.0828 16.4603,-5.682 58.169,-83.9827 48.5607,-91.1642 142.5844,-286.2186 177.0494,-367.2934 11.2608,-26.4895 28.5454,-78.3957 38.4103,-115.3469 24.4957,-91.7537 24.9718,-92.7568 49.712,-104.7334 26.185,-12.6759 38.8443,-9.0524 62.4992,17.8892 15.6954,17.8759 16.4465,20.4594 13.6295,46.8724 -5.1597,48.376 -46.4775,186.2818 -77.5931,258.981 -25.6608,59.9547 -50.5492,115.1959 -100.3969,222.8374 -5.748,12.4123 -25.1742,49.6494 -43.1692,82.7489 -17.9951,33.0995 -32.7531,63.002 -32.7956,66.4499 -0.1784,14.4787 11.5788,4.0681 33.2642,-29.454 54.985,-84.9982 157.1846,-318.0642 204.4945,-466.3498 25.274,-79.2172 37.3939,-109.7674 43.5471,-109.7674 2.2166,0 11.6619,12.9765 20.9895,28.8367 17.2165,29.2741 19.5575,30.5165 48.6832,25.8363 11.8163,-1.8987 12.4844,-0.8022 11.6119,19.0601 -1.9716,44.8847 -69.7525,209.701 -164.7318,400.5617 -39.9073,80.1939 -72.5588,148.2202 -72.5588,151.1697 0,2.9494 -3.5697,6.7325 -7.9328,8.4068 -14.0108,5.3764 -93.5497,3.2555 -152.7404,-4.0729 -31.6156,-3.9143 -81.8876,-8.7456 -111.7158,-10.736 -50.6392,-3.3793 -55.1954,-2.9077 -68.7543,7.1169 -17.4576,12.907 -17.8396,12.8988 -137.797,-2.9349 z m 335.0864,-62.1819 c 24.4731,-12.6045 33.5221,-25.4846 33.5221,-47.7144 0,-16.1407 -2.4238,-22.8144 -9.7004,-26.7087 -29.2502,-15.6542 -70.5409,8.2514 -70.5409,40.8403 0,32.2821 20.5555,47.0579 46.7192,33.5828 z m 123.2977,-248.1287 c 13.6568,-17.3617 19.1862,-46.7211 9.9334,-52.743 -39.262,-25.5528 -86.2347,15.3408 -64.427,56.089 8.2263,15.3709 41.3719,13.3358 54.4936,-3.346 z m 71.6635,-206.3633 c 24.75,-26.5361 31.2616,-54.7645 17.1005,-74.1311 -6.3742,-8.7172 -8.2557,-8.9364 -20.4914,-2.388 -23.3095,12.4748 -36.9085,28.4066 -40.4751,47.418 -2.8397,15.1373 -1.4171,20.5395 8.0673,30.6353 14.6872,15.6337 19.9986,15.4061 35.7987,-1.5342 z"
         id="path5278"
         inkscape:connector-curvature="0" /><path
         style="opacity:1;fill:#fff6d5;fill-opacity:1;fill-rule:nonzero;stroke:none;stroke-width:5.9000001;stroke-miterlimit:4;stroke-dasharray:none;stroke-opacity:1"
         d="m 972.71681,2600.0895 c -12.51226,-5.4383 -12.57995,-5.6852 -11.67741,-42.5867 0.36099,-14.7597 -3.08715,-43.5131 -8.5053,-70.924 -11.34626,-57.4018 -14.60701,-85.7674 -21.4017,-186.1754 -2.96967,-43.8842 -7.18631,-105.0004 -9.37028,-135.8139 -2.18399,-30.8134 -3.2118,-85.8681 -2.28404,-122.3439 1.55541,-61.152 2.97446,-72.7118 18.21238,-148.3613 18.66136,-92.6454 28.31532,-128.8948 61.26004,-230.0235 46.5186,-142.7957 127.6104,-277.8136 215.448,-358.7209 35.0786,-32.3108 57.9336,-44.344 112.7682,-59.3725 59.3203,-16.2579 80.5879,-19.0268 193.8168,-25.2332 53.3571,-2.9246 98.3754,-6.1595 100.0407,-7.1888 1.6653,-1.0292 9.3892,2.7369 17.1642,8.3691 10.0469,7.2779 13.0379,11.3387 10.3393,14.0374 -2.6987,2.6986 -2.4501,10.5742 0.8595,27.2244 l 4.6566,23.4272 -25.6627,101.8468 c -14.1143,56.0158 -32.6296,124.9858 -41.1449,153.2666 -8.5152,28.281 -25.3618,84.9316 -37.4367,125.8901 -43.8175,148.63 -81.5729,256.9462 -114.8364,329.4532 -7.0716,15.4146 -28.3464,55.3093 -47.2774,88.655 -18.9309,33.3458 -41.896,77.3843 -51.0335,97.8637 -13.1649,29.5057 -18.259,37.4837 -24.5397,38.4329 -7.7131,1.1656 -7.8584,0.5939 -5.4046,-21.2772 10.8879,-97.0435 49.6182,-252.3374 86.0877,-345.1791 10.7261,-27.3057 33.0892,-77.5731 49.6957,-111.7052 37.9213,-77.9411 37.8316,-77.707 30.791,-80.4088 -7.8185,-3.0002 -16.313,6.7615 -34.2978,39.4143 -8.5295,15.4861 -17.1258,28.6957 -19.103,29.3548 -1.9771,0.659 -5.4639,-5.04 -7.7482,-12.6644 -4.3433,-14.4966 -13.1031,-24.6271 -17.5047,-20.2438 -1.4156,1.4098 -3.5901,25.1751 -4.8321,52.8118 -2.0998,46.7242 -3.2901,53.2329 -16.9716,92.8027 -45.3556,131.1792 -67.9177,223.2503 -87.7686,358.1661 -9.2543,62.8966 -9.9174,75.0428 -9.97,182.6292 -0.056,113.5403 0.073,115.61 8.6549,139.4043 10.4344,28.9312 9.4857,31.2392 -19.4181,47.244 -43.0599,23.8432 -105.1959,33.1781 -219.7958,33.021 -43.9716,-0.06 -63.40415,-1.4382 -71.81049,-5.092 z"
         id="path5282"
         inkscape:connector-curvature="0" /><path
         style="opacity:1;fill:#502d16;fill-opacity:1;fill-rule:nonzero;stroke:none;stroke-width:5.9000001;stroke-miterlimit:4;stroke-dasharray:none;stroke-opacity:1"
         d="m 1425.7436,2365.7416 c -55.5867,-4.5852 -108.0881,-9.3273 -116.67,-10.5381 l -15.6033,-2.2012 2.3939,-50.1478 c 1.3167,-27.5813 3.7756,-51.5295 5.4643,-53.2181 1.7295,-1.7296 35.371,1.0365 77.0409,6.3344 131.9997,16.7826 219.004,26.6055 236.0845,26.654 22.6107,0.065 24.9695,5.0564 20.3887,43.149 -1.9574,16.2776 -4.4523,33.9841 -5.5441,39.3477 l -1.9851,9.7521 -50.2516,-0.3976 c -27.6383,-0.2187 -95.7316,-4.1492 -151.3182,-8.7344 z"
         id="path5288"
         inkscape:connector-curvature="0" /><path
         style="opacity:1;fill:#fff6d5;fill-opacity:1;fill-rule:nonzero;stroke:none;stroke-width:5.9000001;stroke-miterlimit:4;stroke-dasharray:none;stroke-opacity:1"
         d="m 2111.8445,2479.793 c -1.4656,-9.7521 -4.7717,-28.9016 -7.3469,-42.5544 -2.5751,-13.6529 -5.7429,-63.9202 -7.0394,-111.7052 -1.2966,-47.785 -3.7107,-98.8504 -5.3649,-113.4784 -2.9927,-26.465 -2.9482,-26.6841 9.0005,-44.3275 17.0071,-25.1126 67.4047,-140.4377 101.0774,-231.2967 30.957,-83.5309 49.2285,-130.926 68.8519,-178.5977 7.5801,-18.4147 15.3093,-46.4489 19.554,-70.924 7.5318,-43.4287 11.5039,-59.2407 17.4509,-69.4674 3.2599,-5.6056 3.7754,-5.6874 3.8688,-0.6135 0.059,3.2195 4.0817,14.39 8.9386,24.8233 l 8.8309,18.9697 0.035,114.8058 c 0.033,108.7794 -0.4351,117.126 -8.9141,159.0022 -17.6237,87.0397 -50.3279,167.415 -106.1103,260.7814 -14.8573,24.8677 -27.5504,45.214 -28.2069,45.214 -0.6564,0 -7.2597,-10.3727 -14.6739,-23.0503 -10.4797,-17.9194 -15.3199,-23.0503 -21.7445,-23.0503 -10.6833,0 -10.4342,5.1208 1.4878,30.588 8.9984,19.2222 9.7342,24.1202 9.5221,63.3863 -0.199,36.8177 -1.9825,49.4861 -13.23,93.9742 -7.15,28.281 -17.5726,65.782 -23.1611,83.3357 l -10.1611,31.9158 -2.6646,-17.731 z"
         id="path4410"
         inkscape:connector-curvature="0" /></g></g></svg>