<?xml version="1.0" encoding="UTF-8" standalone="no"?>
<!-- Created with Inkscape (http://www.inkscape.org/) -->

<svg
   xmlns:dc="http://purl.org/dc/elements/1.1/"
   xmlns:cc="http://creativecommons.org/ns#"
   xmlns:rdf="http://www.w3.org/1999/02/22-rdf-syntax-ns#"
   xmlns:svg="http://www.w3.org/2000/svg"
   xmlns="http://www.w3.org/2000/svg"
   xmlns:sodipodi="http://sodipodi.sourceforge.net/DTD/sodipodi-0.dtd"
   xmlns:inkscape="http://www.inkscape.org/namespaces/inkscape"
   width="210mm"
   height="297mm"
   viewBox="0 0 744.09448819 1052.3622047"
   id="svg2"
   version="1.1"
   inkscape:version="0.91 r13725"
   sodipodi:docname="SuperTecher_Saut.svg">
  <defs
     id="defs4">
    <clipPath
       id="clipPath4171"
       clipPathUnits="userSpaceOnUse">
      <path
         inkscape:connector-curvature="0"
         id="path4173"
         d="m 0,0 2448,0 0,3264 L 0,3264 0,0 Z" />
    </clipPath>
    <filter
       id="filter4226"
       style="color-interpolation-filters:sRGB"
       inkscape:collect="always">
      <feBlend
         id="feBlend4228"
         in2="BackgroundImage"
         mode="lighten"
         inkscape:collect="always" />
    </filter>
  </defs>
  <sodipodi:namedview
     id="base"
     pagecolor="#ffffff"
     bordercolor="#666666"
     borderopacity="1.0"
     inkscape:pageopacity="0.0"
     inkscape:pageshadow="2"
     inkscape:zoom="0.87215656"
     inkscape:cx="378.78178"
     inkscape:cy="518.29344"
     inkscape:document-units="px"
     inkscape:current-layer="layer1"
     showgrid="false"
     inkscape:window-width="1440"
     inkscape:window-height="851"
     inkscape:window-x="0"
     inkscape:window-y="1"
     inkscape:window-maximized="1" />
  <metadata
     id="metadata7">
    <rdf:RDF>
      <cc:Work
         rdf:about="">
        <dc:format>image/svg+xml</dc:format>
        <dc:type
           rdf:resource="http://purl.org/dc/dcmitype/StillImage" />
        <dc:title></dc:title>
      </cc:Work>
    </rdf:RDF>
  </metadata>
  <g
     inkscape:label="Ebene 1"
     inkscape:groupmode="layer"
     id="layer1">
    <g
       id="g4211"
       style="fill:#000000"
       transform="matrix(1.0907529,0,0,1.0907529,-24.28552,-38.8216)">
      <path
         inkscape:connector-curvature="0"
         id="path4205"
         d="m 161.2505,914.83521 c -5.02624,-1.98476 -17.85377,-14.3546 -25.23767,-24.33718 -8.30791,-11.23175 -18.24522,-32.44833 -19.44929,-41.52501 -1.3343,-10.05847 1.04224,-15.01494 11.89542,-24.8088 16.20995,-14.6278 27.33908,-22.28888 75.98439,-52.30631 l 13.19485,-8.1421 -8.65445,-16.50151 c -4.75994,-9.07584 -10.15989,-21.9144 -11.99988,-28.53014 -4.91443,-17.66999 -8.6521,-50.28404 -7.40544,-64.6182 2.52848,-29.07265 12.99195,-66.14963 28.63129,-101.45409 4.34572,-9.8101 7.90132,-18.38385 7.90132,-19.05278 0,-2.45762 -3.11343,-1.04836 -13.99972,6.33679 -13.09727,8.88506 -32.71052,26.13442 -53.92153,47.42263 -25.05807,25.76055 -26.17769,25.74147 -40.10427,11.10101 -5.29498,-5.57395 -14.97614,-18.70605 -21.513681,-29.18244 C 86.68425,553.39225 84.86973,549.43842 85.781578,545.72514 121.09922,483.19083 185.9986,422.81809 250.27834,398.2241 c 19.63267,-7.51342 29.586,-11.16169 108.83561,-16.90952 5.61228,3.0036 7.29732,5.92825 -4.13529,5.97827 -5.96724,0.0261 -34.5662,1.71126 -48.31642,4.41509 -28.94031,4.8831 -47.3508,6.6399 -71.8777,20.90958 -37.59992,21.87552 -89.61022,61.88097 -108.27869,83.28615 -14.45597,16.57515 -36.60194,48.53817 -36.60194,52.82715 0,2.28359 25.57784,39.66289 32.33654,47.25643 3.77047,4.23621 8.0903,7.70219 9.59964,7.70219 1.50933,0 11.84527,-9.18473 22.96875,-20.41052 30.91671,-31.20103 46.19479,-43.55443 74.54522,-60.27499 15.86069,-9.35435 25.64905,-13.73608 27.76445,-12.4287 2.49296,1.54074 -0.0414,3.80482 -9.73756,8.69949 -5.11643,2.58276 -10.03427,5.66758 -10.92853,6.85514 -0.89425,1.18756 -5.49895,10.82731 -10.23265,21.42165 -20.26491,45.35427 -31.08936,86.08039 -31.00965,116.67135 0.11281,43.2905 10.93771,74.76634 39.63351,115.24331 1.68151,2.37185 2.55862,4.81116 1.94912,5.42065 -1.8457,1.84569 -6.35571,-1.86378 -11.53956,-9.49125 l -4.91163,-7.22694 -16.16804,10.17731 c -8.89243,5.59753 -22.37034,13.94946 -29.95091,18.55986 -15.89928,9.6697 -35.05778,24.01493 -44.997,33.69218 -6.24997,6.08525 -6.89143,7.44654 -6.89143,14.6249 0,11.89967 14.38117,39.45249 28.22446,54.07514 10.11609,10.68559 10.65344,11.00901 17.06729,10.27216 5.48156,-0.62975 28.38302,-10.31286 51.1883,-21.64323 2.67549,-1.32927 13.41707,-6.29178 23.87016,-11.02779 39.62649,-17.95367 51.24789,-27.20687 69.92591,-55.67636 18.48849,-28.18061 31.94871,-51.70442 40.03972,-69.97564 3.75182,-8.4724 7.35938,-15.99494 8.01678,-16.71676 0.65739,-0.72182 11.27336,4.27231 23.59104,11.09806 12.31768,6.82574 29.22087,15.64256 37.56265,19.59292 15.35641,7.27225 48.22019,16.83454 57.85706,16.83454 6.42017,0 8.44692,1.59145 16.52035,12.97211 17.56107,24.75481 52.40665,63.23902 57.25987,63.23902 13.34515,0 66.75281,-38.28061 66.64253,-47.76688 -0.0212,-1.82093 -1.67935,-7.32404 -3.68486,-12.22912 -4.02989,-9.85632 -14.52866,-41.83506 -22.33128,-68.02005 -4.43141,-14.87142 -5.87291,-17.70135 -11.79275,-23.15129 -9.56593,-8.80659 -38.00602,-28.17349 -68.93889,-46.94542 -14.58676,-8.85212 -32.0991,-19.99873 -38.91632,-24.77026 -6.81723,-4.77153 -15.13127,-9.9767 -18.47564,-11.56705 -6.39893,-3.04288 -16.7798,-13.20629 -13.01358,-14.65153 2.29027,-0.87886 20.04774,12.24383 44.54899,28.69752 7.40388,4.97203 17.83968,11.48354 23.19067,14.46999 17.82878,9.95052 65.27586,42.03868 74.14182,50.14167 8.30153,7.58715 9.01733,8.89052 14.02946,25.54615 12.76015,42.40273 17.04514,55.54341 21.5857,66.19649 6.63422,15.56515 6.57419,20.4684 -0.33787,27.59983 -8.26841,8.53083 -33.38592,27.20114 -45.36933,33.72384 -14.34945,7.81059 -21.03923,8.8823 -28.12165,4.50512 -10.2124,-6.31161 -46.50651,-47.52552 -57.46058,-65.24955 -3.2056,-5.18679 -4.72846,-6.04411 -13.73759,-7.73388 -31.0976,-5.83274 -59.61838,-17.10284 -97.09308,-38.36677 -6.95741,-3.94777 -13.27552,-7.17778 -14.04024,-7.17778 -0.76471,0 -3.74557,5.29019 -6.62413,11.75598 -7.92617,17.80368 -23.32351,44.72487 -40.37696,70.59634 -11.92244,18.08731 -17.54236,25.02018 -25.27976,31.18571 -8.65278,6.89499 -34.76584,20.91873 -64.26988,34.51549 -4.90508,2.26049 -20.10613,9.27595 -33.78011,15.58994 -13.67399,6.314 -25.71372,11.43375 -26.75497,11.3772 -1.04125,-0.0565 -3.71739,-0.82311 -5.94697,-1.70353 z"
         style="opacity:1;fill:#000000;fill-opacity:1;fill-rule:nonzero;stroke:none;stroke-width:5.9000001;stroke-miterlimit:4;stroke-dasharray:none;stroke-opacity:1"
         sodipodi:nodetypes="ssssscssssssccscccsccsssssssssssssscsssssssssssssssscsssssssssssssssssssssssscs" />
      <path
         inkscape:connector-curvature="0"
         id="path4207"
         d="m 570.48311,635.30566 c -24.60103,-12.42194 -38.23392,-20.75543 -66.31109,-40.53454 -24.66904,-17.37823 -49.62016,-38.6805 -52.8968,-45.01683 -3.74102,-7.23433 5.44539,-0.44653 18.30394,11.49985 13.39032,12.44043 51.5156,40.30271 70.53291,51.54605 13.404,7.92466 51.16653,26.56255 53.81883,26.56255 2.68208,0 9.48203,-9.14594 14.13926,-19.01731 2.42858,-5.14754 8.4254,-15.3948 13.32628,-22.77167 10.57606,-15.91924 11.06542,-14.66573 -10.88207,-27.87525 -21.69878,-13.05983 -37.14065,-26.26371 -54.11717,-46.27398 -25.04475,-29.52033 -47.60059,-52.88847 -67.93885,-70.38554 -0.63174,-0.54349 -0.56441,-1.93343 0.14962,-3.08875 0.96355,-1.55905 3.65944,-0.17718 10.45707,5.36014 10.74415,8.75212 50.07788,50.60033 63.741,67.81575 9.66466,12.17739 27.29203,27.72475 41.92838,36.98089 4.45916,2.82 11.92717,7.5774 16.59557,10.57199 4.66839,2.99459 9.19583,5.44471 10.06097,5.44471 0.86515,0 2.05206,2.55363 2.63757,5.67473 1.11922,5.96591 2.43605,3.48257 -27.32561,51.53166 -4.78924,7.73204 -9.94117,12.51868 -13.47404,12.51868 -1.02609,0 -11.26169,-4.7444 -22.74577,-10.54313 z"
         style="opacity:1;fill:#000000;fill-opacity:1;fill-rule:nonzero;stroke:none;stroke-width:5.9000001;stroke-miterlimit:4;stroke-dasharray:none;stroke-opacity:1"
         sodipodi:nodetypes="sssssssssssssssssssss" />
      <path
         inkscape:connector-curvature="0"
         id="path4209"
         d="m 573.11491,837.29742 c 0,-0.83131 5.80407,-6.77779 12.89794,-13.2144 7.09387,-6.43661 13.64212,-13.83767 14.55167,-16.4468 1.83809,-5.27274 4.98066,-4.68851 4.98066,0.92594 0,3.72463 -8.93172,13.21862 -22.8682,24.30781 -7.73146,6.15189 -9.56207,6.9995 -9.56207,4.42745 z"
         style="opacity:1;fill:#000000;fill-opacity:1;fill-rule:nonzero;stroke:none;stroke-width:5.9000001;stroke-miterlimit:4;stroke-dasharray:none;stroke-opacity:1" />
    </g>
    <g
       style="enable-background:new"
       id="g4561"
       transform="matrix(0.23362576,0,0,0.23362576,34.36402,106.3607)">
      <g
         style="display:inline"
         transform="matrix(1.25,0,0,-1.25,0,4080)"
         inkscape:label="Hauptkörper"
         id="g4163">
        <g
           style="fill:#000000;stroke:#000000;stroke-width:0.80000001;stroke-miterlimit:4;stroke-dasharray:none;stroke-opacity:1"
           id="g4165" />
        <path
           style="opacity:1;fill:#000000;fill-opacity:1;fill-rule:nonzero;stroke:#000000;stroke-width:0.2375315;stroke-miterlimit:4;stroke-dasharray:none;stroke-opacity:1"
           d="m 681.43457,643.40142 c 0.61675,2.6984 2.75489,0.33886 2.75489,0.33886 -0.4758,-25.49813 -1.37846,-47.30772 -2.04101,-48.80468 -0.88566,-2.00106 -0.48488,-3.33858 1.41601,-4.72852 5.31586,-7.53151 6.21367,-12.99121 10.40235,-21.30859 2.85133,-5.66199 8.88615,-20.71248 13.41015,-33.44532 4.52403,-12.73263 9.4059,-25.47466 10.84961,-28.31445 1.44374,-2.83978 3.38277,-7.97589 4.3086,-11.41406 2.30773,-8.70099 1.53091,-14.88153 4.73632,-22.41992 4.94969,-8.39313 12.53064,-11.54219 21.50391,-12.19922 16.95863,-1.19535 27.27535,-5.64884 38.05859,-16.42578 10.79961,-10.79329 13.92749,-19.69424 11.00196,-31.3125 -2.53377,-10.06267 -7.04495,-18.34783 -12.69532,-23.31055 -4.85476,-4.26409 -4.9983,-4.69281 -4.09374,-12.26562 0.85005,-7.11935 1.22308,-7.75915 4.03124,-6.89454 7.83513,2.41237 24.40659,5.16341 31.08008,5.16016 13.2278,-0.007 22.81217,-9.1896 22.82227,-21.86523 0.005,-5.29192 -0.82706,-7.2176 -4.78125,-11.07422 -2.63271,-2.56775 -6.38544,-5.69249 -8.33984,-6.94336 -3.27909,-2.09859 6.9e-4,1.7e-4 -2.20118,-1.67383 l 2.90235,-15.24023 -47.81836,-4.64649 -37.69922,-4.20703 c -20.65907,-2.30551 -54.29009,-2.52614 -67.99414,-4.4668 l -6.13477,-0.86914 -1.65429,-9.5039 c -0.91025,-5.22706 -1.54355,-15.20239 -1.40625,-22.16797 0.23558,-11.9644 0.38187,-12.49707 2.63476,-9.6211 5.71377,7.2938 50.5987,15.52213 65.93164,12.08594 5.56567,-1.24728 9.93643,-1.06254 20.69727,0.875 13.06114,2.35171 40.3035,5.77993 38.60351,3.0293 -0.4357,-0.70494 -27.3666,-7.09489 -34.07031,-9.7461 -11.28956,-4.46488 -25.08613,-11.82636 -35.75391,-19.07421 -8.5746,-5.82573 -8.87644,-3.18134 -0.80078,7.03515 4.84106,6.12443 7.21185,7.77498 13.99219,9.7461 4.48987,1.30523 8.16406,2.57288 8.16406,2.81836 0,0.24528 -8.451,0.28975 -18.77929,0.0976 -22.82498,-0.42456 -31.24739,-2.78062 -58.15039,-16.26172 -10.31975,-5.17124 -19.48421,-9.40234 -20.36524,-9.40234 -3.44611,0 -0.31158,5.26232 5.98633,10.05078 8.19543,6.23116 9.04939,9.1797 9.33984,32.24805 l 0.22657,17.99609 -10.31055,-0.73242 c -5.67042,-0.40348 -14.28612,-1.37174 -19.14649,-2.15235 -16.3153,-2.61967 -37.38854,-1.05845 -42.84765,3.17579 -2.45387,1.90325 -3.63476,-0.23066 -1.91016,-3.45313 0.84371,-1.57644 2.45695,-2.51256 3.58399,-2.08008 3.17774,1.2194 4.32997,-2.03659 3.84375,-10.86718 -0.28566,-5.18843 0.36401,-9.65633 1.80664,-12.42969 1.52675,-2.93506 1.9706,-6.37671 1.38086,-10.67969 -0.68892,-5.02596 -0.41343,-6.34766 1.32031,-6.34766 3.13731,0 20.28435,-13.46994 25.19531,-19.79296 3.48917,-4.49238 4.33449,-6.86885 3.3164,-6.86133 l 0,0.002 c -0.89832,0.007 -3.24833,1.86749 -6.51367,5.76758 -3.45039,4.12108 -10.29035,10.17513 -15.19922,13.45312 -9.82592,6.56172 -10.37693,6.79387 -9.78125,4.11914 0.70504,-3.16602 -3.47517,-11.41406 -5.78516,-11.41406 -1.61106,0 -1.92311,0.88834 -1.16016,3.3125 2.9653,9.42178 6.04504,26.23873 5.08789,27.78711 -0.76276,1.23416 -2.99274,0.13998 -7.38671,-3.62109 -10.63092,-9.09966 -14.37797,-6.16657 -4.44141,3.47656 5.52859,5.36533 8.74434,12.99402 6.80078,16.13867 -1.43723,2.32555 -3.41604,1.79415 -4.35742,-1.17187 -0.98585,-3.10617 -9.75248,-12.44279 -10.74805,-11.44727 -0.83993,0.83991 4.32009,9.71094 5.64844,9.71094 1.90538,0 4.60029,8.83299 3.74023,12.25976 -0.85012,2.57244 1.16287,3.87922 -2.08984,6.58399 -4.48982,3.73346 -14.89052,8.7147 -19.51367,10.61133 l 2.1875,5.52929 c 2.6028,-1.09276 5.85763,-2.58947 9.84961,-4.51953 1.17226,-0.56677 2.30941,-1.10962 3.41992,-1.63672 -0.38851,2.65964 -0.67969,9.00422 -0.67969,10.97071 0,4.68038 -2.50374,7.24639 -3.79297,3.88672 -0.45534,-1.18659 -2.10777,-2.49117 -3.67187,-2.9004 -4.70448,-1.23026 -3.3959,3.68923 2.2793,8.56836 3.91385,3.36485 5.12995,5.55965 5.15429,9.29688 0.0176,2.69058 0.97897,5.83834 2.13672,6.99609 3.3639,3.3639 7.31654,18.50701 5.17578,19.83008 -0.97115,0.6002 -1.31969,1.81334 -0.77344,2.69727 0.5465,0.8839 0.30588,2.89333 -0.53515,4.46484 -1.80051,3.54138 3.0576,8.566 5.57422,9.87109 1.89505,0.95042 2.72381,1.96902 1.83984,2.26368 -1.1054,0.36848 -1.17576,2.04107 -0.22461,5.35742 0.98165,3.42278 0.76519,7.05397 -0.74219,12.51758 -1.16782,4.23314 -5.39978,20.95308 -9.40625,37.15429 -15.28629,46.79777 -27.26776,103.0594 -53.61523,135.18164 -3.35566,5.49506 -6.7373,11.25008 -7.51367,12.78907 -1.02709,2.0359 -2.45458,2.58997 -5.23828,2.0332 -1.86762,-0.3735 -78.97815,-10.32317 -81.84707,-9.7726 -0.38711,0.80101 -0.77288,1.60434 -1.1211,2.42188 -0.12976,0.3047 -0.28884,0.6954 -0.43359,1.0918 13.98609,2.79531 144.94323,20.59807 150.80605,20.17298 7.02559,-0.50941 7.09975,-0.33673 5.32422,12.61719 l -0.9375,6.83203 -10.48828,0 c -5.76874,0 -22.08353,-1.59281 -36.25391,-3.54101 -23.79986,-3.27231 -103.48214,-15.22901 -114.8523,-16.40489 l -1.58789,3.76368 c 41.33095,3.96255 96.61163,16.07729 138.17652,19.43222 17.34044,1.22296 25.40625,2.33783 25.40625,3.50977 0,3.87164 4.90382,5.34613 20.21289,6.08007 22.16271,1.06251 22.39992,1.04404 26.77344,-2.18945 3.70509,-2.73926 5.06966,-2.8152 25.33594,-1.41016 l 23.4541,1.82325 M 605.04492,307.58203 c 0.73093,0.005 1.24026,0.15042 1.52539,0.43555 0.74989,0.74989 -0.84789,4.48562 -3.77929,8.8418 -8.82746,13.11752 -12.46418,30.06512 -9.51758,44.34374 2.00538,9.71809 -0.87811,11.2579 -4.73828,2.53126 -1.69367,-3.829 -3.19856,-8.75141 -3.34571,-10.93946 -0.14708,-2.18836 -1.09682,-4.85343 -2.10937,-5.92383 -1.75439,-1.85464 -2.72761,-11.66807 -2.18164,-21.98828 0.14774,-2.7929 -0.38137,-6.18936 -1.14649,-7.94531 13.30509,-6.22558 21.81848,-9.37816 25.29297,-9.35547 z m 37.51563,2.66016 c 5.21018,0.002 12.91901,0.73343 16.98047,1.90234 3.45142,0.99333 4.59968,18.15616 1.39453,20.83985 -1.20942,1.01259 -4.39187,1.83984 -7.07227,1.83984 -4.03706,0 -4.89242,-0.56732 -4.99023,-3.3125 -0.19696,-5.52745 -4.91595,-18.03027 -6.87891,-18.22656 -1.0126,-0.10125 -2.50438,-0.2679 -3.31445,-0.36914 -0.81008,-0.10125 -1.47266,-0.9237 -1.47266,-1.82813 0,-0.58604 2.22739,-0.84711 5.35352,-0.8457 z m -19.28907,0.42578 c 3.15497,0.0449 6.15236,1.28502 8.82032,3.68945 1.81255,1.63351 4.20529,2.37173 6.08984,1.87891 2.60135,-0.68026 3.52145,0.27836 5.67969,5.92969 1.65733,4.3397 2.2928,8.84722 1.7832,12.64648 l -0.79297,5.9043 7.59375,-0.0215 c 4.17571,-0.011 9.16035,-0.43979 11.07813,-0.95312 3.4366,-0.91984 3.4721,-1.12013 2.46679,-13.97071 l -1.01953,-13.03906 8.58008,-0.0371 c 4.71868,-0.0207 18.68801,1.79782 31.17383,2.55469 l 21.29297,1.29102 -3.83203,41.04882 c -0.38086,4.08115 10.36571,4.51265 17.42773,4.60743 38.08314,0.67608 39.8553,2.8549 37.36524,13.4375 -2.09206,8.89106 -1.9755,9.11786 -7.4629,10.04492 -8.10896,1.36998 -14.40471,-1.31284 -22.59765,-9.63086 -7.79051,-7.90942 -10.15079,-2.76406 -10.01172,0.34765 13.25977,12.1938 19.72518,14.43828 43.56836,18.2461 3.58825,1.08326 11.11127,14.69666 12.22461,22.12109 2.3098,15.40283 -12.49121,30.58089 -35.71875,36.63086 -10.04172,2.6156 -23.47143,2.57916 -50.89649,-0.13867 -21.79802,-2.16016 -18.64929,-1.07119 -52.02734,-17.98633 -6.53041,-3.30893 -17.66857,-7.4695 -24.75195,-9.24609 -20.63002,-5.17417 -26.10554,-11.02637 -21.82031,-23.31836 1.26383,-3.62537 0.84885,-4.52596 -3.97266,-8.63086 -2.96135,-2.52118 -7.69216,-6.13621 -10.51367,-8.0332 -6.58219,-4.42538 -7.28536,-8.61986 -1.86133,-11.11133 2.54118,-1.16728 4.25815,-1.32118 4.5625,-0.40821 0.26834,0.80507 2.62746,3.86826 5.24219,6.80664 3.81832,4.29114 6.09493,5.49287 11.56445,6.10938 6.57613,0.74122 7.05728,0.52086 14.02539,-6.44727 3.96875,-3.96874 7.56448,-8.54781 7.99023,-10.17578 1.02438,-3.9172 -1.06799,-9.31484 -4.05468,-10.46093 -2.41798,-0.9279 -5.76823,2.44949 -3.85938,3.89062 3.02086,2.28075 1.53002,7.30288 -3.47265,11.69531 -4.4837,3.93673 -6.34873,4.62752 -11.47461,4.25391 -5.60769,-0.40874 -6.3969,-0.99568 -9.4336,-7.01758 -2.76132,-5.47593 -3.3125,-8.96962 -3.3125,-20.94726 0,-12.20768 0.56674,-15.65407 3.75782,-22.86914 4.4034,-9.95717 8.49424,-14.79225 14.78906,-17.47657 1.96837,-0.83937 3.91758,-1.24179 5.81054,-1.21484 z m 111.82032,6.87695 34.46289,3.53906 -3.35547,34.22071 -34.39258,-1.06055 z m 47.44531,5.8418 c 1.19284,-0.005 2.61496,0.55916 4.19141,1.72266 1.94288,1.43371 2.42622,2.64353 1.44531,3.62109 -0.81008,0.80728 -3.34721,1.93186 -5.63867,2.49805 -3.91041,0.96621 -4.13811,0.76959 -3.6836,-3.19727 0.34858,-3.04226 1.69751,-4.63566 3.68555,-4.64453 z m 14.05664,1.1289 21.93555,2.32813 -1.63477,5.89258 c -0.19005,1.47364 -18.37164,-2.91848 -21.31836,-3.50391 z m -5.3125,11.67188 c 0.32862,-0.002 0.66165,-0.002 0.99609,0 6.06494,0.0423 13.03735,0.83525 18.89454,2.33594 15.0745,3.86244 20.32612,8.2473 20.40429,17.0332 0.0519,5.83028 -3.68984,10.37804 -10.72851,13.04492 -2.2804,0.86402 -5.5933,1.51912 -7.36328,1.45508 -8.57067,-0.31347 -22.57586,-4.66469 -30.5,-9.47852 -7.80034,-4.73834 -8.80102,-5.87996 -8.78321,-10.02734 0.0325,-7.56487 1.45889,-10.83785 5.53125,-12.69336 2.38857,-1.08829 6.61979,-1.63632 11.54883,-1.66992 z m -194.64844,58.88867 c 1.00756,-0.006 2.41878,0.65078 4.22461,1.97656 2.23681,1.64218 2.30176,2.55602 0.58985,8.45704 -1.21498,4.1881 -2.33522,5.94488 -3.05079,4.78711 -2.01462,-3.83382 -2.77221,-6.27364 -3.41015,-9.68165 -0.59625,-3.67413 -0.0343,-5.52818 1.64648,-5.53906 z m 6.48047,28.09961 c 1.18018,-0.008 3.37314,1.24993 6.64844,3.47266 2.79833,1.8983 9.29009,4.30224 14.42578,5.34179 8.95738,1.81311 32.75426,12.02898 38.69922,16.61329 2.7062,2.0868 2.49043,2.35632 -4.26758,5.3457 -8.59111,3.80027 -29.55674,22.0761 -27.58594,24.04687 0.83234,0.83236 5.58338,-1.8114 12.23633,-6.80859 11.84662,-8.89826 14.55859,-9.85319 14.55859,-5.12891 0,9.92528 -16.07136,48.17188 -41.45507,98.65625 -8.79223,17.48638 -15.98633,32.23398 -15.98633,32.77149 0,0.53748 0.98149,0.97656 2.18164,0.97656 2.86273,0 45.01742,-85.54974 51.69336,-104.9082 2.71788,-7.88101 5.68961,-18.6231 6.60351,-23.8711 1.48431,-8.52341 2.1927,-9.85654 6.64649,-12.48437 4.10169,-2.42007 5.77511,-2.66598 9.43359,-1.39063 4.42621,3.54041 8.88427,7.89335 8.48047,11.18946 -0.73609,5.84964 -6.96819,29.95716 -10.95117,42.35742 -2.15524,6.70993 -11.7553,28.61368 -22.68555,51.76172 -2.34968,4.97619 -4.27148,9.4256 -4.27148,9.88867 0,0.46307 -3.64626,7.15584 -8.10156,14.87305 -4.45538,7.71723 -8.09961,15.03176 -8.09961,16.2539 0,4.95082 3.25241,1.53697 10.86328,-11.40234 12.67636,-21.55123 33.41064,-70.93681 41.54883,-98.96289 2.69166,-9.26941 5.50482,-16.28711 6.52929,-16.28711 0.98996,0 2.98131,2.98343 4.42578,6.62891 2.6329,6.64423 3.74937,7.23808 9.90625,5.27539 2.44558,-0.77958 3.31446,-0.47092 3.31446,1.17968 0,4.48609 -4.23028,18.30975 -7.75782,25.35157 -1.98992,3.97235 -4.76458,10.86886 -6.16601,15.32421 -2.73902,8.70779 -25.16054,55.25909 -32,66.43946 -2.28472,3.7349 -4.15214,8.20833 -4.15235,9.9414 0,2.9824 -0.69851,3.15235 -13.05468,3.15235 -7.17999,0 -16.58551,-0.66999 -20.90039,-1.48828 -4.31488,-0.8183 -14.36461,-1.8217 -22.33203,-2.23047 -12.0509,-0.6183 -14.62963,-0.36767 -15.3418,1.48828 -0.5367,1.39861 -2.58438,2.16366 -5.48633,2.05273 -6.7872,-0.25919 -40.74755,-5.25734 -41.61523,-6.125 -1.17208,-1.17205 5.67696,-16.43544 18.40039,-41 14.72761,-28.43385 17.82072,-36.29718 31.79101,-80.83398 6.22547,-19.84654 11.90807,-36.69021 12.62696,-37.42969 0.77527,-0.79744 1.91531,0.25299 2.80078,2.58203 5.457,14.35296 17.23168,31.90235 21.40625,31.90235 2.91266,0 1.92548,-4.70297 -1.85547,-8.83789 -5.92781,-6.4826 -12.09743,-17.07319 -17.29492,-29.69141 -4.67104,-11.34009 -6.11241,-15.97072 -3.85938,-15.98633 z m 86.57813,34.9668 10.21093,0.96484 c 5.61575,0.53034 14.00514,1.34542 18.64258,1.8125 l 8.43164,0.84961 -2.54101,3.42578 c -1.39723,1.88389 -5.88491,5.46667 -9.97461,7.96094 -4.08968,2.49425 -8.22445,4.53516 -9.1875,4.53516 -0.96307,0 -3.39165,-2.4857 -5.39649,-5.52344 -2.00481,-3.03777 -5.11561,-7.43751 -6.91406,-9.77539 z m -12.08985,144.77734 c 1.29227,0.0371 2.31836,1.2887 2.31836,3.64453 0,2.94568 -0.73594,3.68164 -3.68164,3.68164 -4.12036,0 -4.33508,-0.44804 -2.1582,-4.51562 1.03357,-1.93118 2.38126,-2.84333 3.52148,-2.81055 z m -81.08594,8.56055 c 10.03976,-0.05 35.09711,1.59288 36.22071,2.66992 1.56763,1.5027 -2.80201,5.74335 -7.22461,7.01172 -3.28839,0.94312 -6.35589,0.7893 -9.91602,-0.49805 -4.66322,-1.68623 -5.42502,-1.5726 -8.00195,1.19336 -2.81727,3.02402 -2.81604,3.09019 0.12695,6.0332 3.2859,3.2861 5.27827,3.73483 6.65821,1.50196 0.50069,-0.81003 3.85371,-1.47266 7.45117,-1.47266 l 6.54101,0 0,5.89258 0,5.89062 -7.73242,-0.19335 c -10.71559,-0.26822 -27.69033,-2.33395 -28.85742,-3.51172 -1.44417,-1.45738 -0.86037,-22.7834 0.66211,-24.18555 0.23855,-0.21967 1.75543,-0.32049 4.07226,-0.33203 z m 70.35938,2.70898 c 3.83955,0 6.88662,0.0793 8.21484,0.23438 l 4.83008,0.5625 0,10.88476 c 0,9.49171 -0.33055,10.84906 -2.57812,10.60352 -1.41761,-0.15487 -10.97598,-0.6508 -21.24024,-1.10352 -10.26428,-0.45268 -19.08658,-1.25108 -19.60547,-1.77343 -0.51888,-0.52243 -0.493,-4.926 0.0566,-9.78516 l 1,-8.83398 16.35352,-0.56055 c 4.49728,-0.15376 9.12922,-0.2293 12.96875,-0.22852 z"
           id="path4308"
           inkscape:connector-curvature="0"
           sodipodi:nodetypes="ccsccsscccssccsccsccccscccccsscsssssssssscccscssscssccsccsscsscssscsccscsscscsscccssccccccccsccsscccssscccscsccsscccscssscscsssscccscccccccsssccssscscsssccsscccsssscssccccccccssccccccccsssccssccsscccccssscssssssssccsssssssscssssccsssccsssccsssccccccssscccssccsssscccsccccscssccssscccccs"
           transform="matrix(3.3679744,0,0,-3.3679744,-839.66928,3647.3648)" />
        <path
           inkscape:connector-curvature="0"
           id="path4310"
           d="m 1719.1906,2629.0413 c -19.118,7.6738 -102.426,11.6341 -119.5031,5.681 -15.2381,-5.3121 -21.3697,-0.3916 -9.2702,7.4393 3.4103,2.2072 36.0563,7.4369 72.5467,11.6216 62.4646,7.1633 67.5018,7.091 86.1007,-1.2359 14.3195,-6.4111 18.9258,-11.0044 16.742,-16.6951 -1.6569,-4.3178 -3.0125,-8.7841 -3.0125,-9.9251 0,-3.8023 -32.0804,-1.511 -43.6036,3.1142 z"
           style="opacity:1;fill:#000000;fill-opacity:1;fill-rule:nonzero;stroke:#000000;stroke-width:0.80000001;stroke-miterlimit:4;stroke-dasharray:none;stroke-opacity:1" />
        <path
           sodipodi:nodetypes="cccsc"
           inkscape:connector-curvature="0"
           id="path4312"
           d="m 1939.72,2591.6465 c -30.2939,11.4443 -129.8378,19.1403 -108.8737,51.9451 54.247,-4.2621 100.0457,-26.1089 134.292,-43.1313 6.7351,-3.0687 11.0679,-7.4853 9.6283,-9.8146 -3.6994,-5.9857 -28.7763,-5.2696 -35.0466,1.0008 z"
           style="opacity:1;fill:#000000;fill-opacity:1;fill-rule:nonzero;stroke:#000000;stroke-width:0.80000001;stroke-miterlimit:4;stroke-dasharray:none;stroke-opacity:1" />
        <path
           sodipodi:nodetypes="scssssssssscsssssssss"
           inkscape:connector-curvature="0"
           id="path4314"
           d="m 2072.8246,2624.5125 c -44.4143,10.3501 -57.204,14.9125 -54.4224,19.4135 1.6076,2.6009 -1.6195,4.729 -7.1711,4.729 -13.4823,0 -38.9687,15.9406 -36.6188,22.9035 2.7593,8.1758 -23.3861,11.8649 -46.8023,6.6036 -26.9838,-6.0628 -67.929,1.8861 -90.4536,17.5604 -48.8611,34.001 -89.4437,80.0762 -89.4437,101.5494 0,12.9834 15.4258,2.6025 37.0691,-24.946 50.1576,-63.8425 81.4056,-83.215 123.9386,-76.8368 12.3917,1.8582 22.5303,5.173 22.5303,7.3662 0,2.1932 -4.6278,9.8708 -10.284,17.0615 -5.6561,7.1907 -9.5625,16.528 -8.6809,20.7497 1.2106,5.7958 5.9977,3.5199 19.5464,-9.2926 41.642,-39.3797 114.6675,-81.0277 150.744,-85.9725 30.7014,-4.2081 29.3859,3.4889 -8.2832,48.4642 -16.8162,20.0777 -35.5867,47.6958 -41.7124,61.3736 -29.6351,66.1713 -100.7986,223.6416 17.1874,14.8715 12.7804,-22.6142 34.9088,-60.4115 51.7543,-82.6208 16.8455,-22.2094 32.7309,-43.1941 35.3009,-46.6327 3.048,-4.0781 2.4056,-8.984 -1.8475,-14.1086 -7.2365,-8.7195 -30.8896,-9.5678 -62.3511,-2.2361 z"
           style="opacity:1;fill:#000000;fill-opacity:1;fill-rule:nonzero;stroke:#000000;stroke-width:0.80000001;stroke-miterlimit:4;stroke-dasharray:none;stroke-opacity:1" />
        <path
           transform="matrix(0.8,0,0,-0.8,0,3264)"
           inkscape:connector-curvature="0"
           id="path4316"
           d=""
           style="opacity:1;fill:#000000;fill-opacity:1;fill-rule:nonzero;stroke:#000000;stroke-width:1;stroke-miterlimit:4;stroke-dasharray:none;stroke-opacity:1" />
        <path
           inkscape:connector-curvature="0"
           id="path4318"
           d="m 1619.7192,2869.6624 c -52.901,21.3409 -119.8308,68.7508 -119.8308,84.8824 0,10.091 3.371,8.4612 33.8178,-16.3494 31.1709,-25.4008 97.6498,-60.5166 103.4968,-54.6696 2.0519,2.0519 -0.267,14.9865 -5.1531,28.7436 -9.7955,27.58 -7.0991,37.2035 5.8312,20.8116 11.4533,-14.5195 46.8243,-31.4412 65.7203,-31.4412 12.9617,0 14.9854,1.4726 11.9289,8.6808 -18.2251,42.981 -21.2157,60.766 -10.2177,60.766 4.3025,0 8.2936,-7.6288 10.3457,-19.7758 1.8376,-10.8766 8.8403,-27.8792 15.5615,-37.7835 11.5456,-17.0134 11.7564,-18.5205 3.8177,-27.2927 -6.7194,-7.4249 -12.482,-8.6438 -28.7668,-6.0846 -11.2002,1.7602 -25.4562,6.5017 -31.68,10.5368 -15.5976,10.1123 -19.2589,4.0825 -9.6969,-15.9694 11.391,-23.8871 3.6537,-24.7529 -45.1746,-5.055 z"
           style="opacity:1;fill:#000000;fill-opacity:1;fill-rule:nonzero;stroke:#000000;stroke-width:0.80000001;stroke-miterlimit:4;stroke-dasharray:none;stroke-opacity:1" />
        <path
           sodipodi:nodetypes="sssssssssss"
           inkscape:connector-curvature="0"
           id="path4320"
           d="m 2028.1802,2843.6753 c -8.1848,6.2548 -32.7392,22.3456 -54.5654,35.7575 -52.2836,32.1276 -76.9058,55.4392 -94.5861,89.5514 -7.9995,15.4342 -16.5835,31.884 -19.0754,36.555 -7.1632,13.4269 -54.5127,33.1384 -124.4418,51.8048 -85.5657,22.8403 -145.8663,48.1209 -135.6251,58.3621 4.3932,4.3931 202.3484,-55.1502 235.4175,-70.1296 31.7112,-14.3643 46.9708,-31.3357 71.3497,-79.3538 19.2628,-37.9411 66.455,-80.3498 115.4175,-103.7186 23.822,-11.3698 43.3127,-22.8411 43.3127,-25.4917 0,-8.8242 -22.1221,-4.8623 -37.2036,6.6629 z"
           style="opacity:1;fill:#000000;fill-opacity:1;fill-rule:nonzero;stroke:#000000;stroke-width:0.80000001;stroke-miterlimit:4;stroke-dasharray:none;stroke-opacity:1" />
        <path
           inkscape:connector-curvature="0"
           id="path4322"
           d="m 1509.4639,3089.4927 c 8.417,15.7274 80.2295,40.3846 116.9169,40.144 18.5212,-0.1214 19.201,-0.6149 10.213,-7.4131 -5.296,-4.0056 -15.3506,-7.2829 -22.3437,-7.2829 -11.0671,0 -42.2,-9.9869 -91.1223,-29.2306 -18.5549,-7.2986 -19.4603,-7.0479 -13.6639,3.7826 z"
           style="opacity:1;fill:#000000;fill-opacity:1;fill-rule:nonzero;stroke:#000000;stroke-width:0.80000001;stroke-miterlimit:4;stroke-dasharray:none;stroke-opacity:1" />
        <path
           transform="matrix(0.8,0,0,-0.8,0,3264)"
           inkscape:connector-curvature="0"
           id="path4324"
           d=""
           style="opacity:1;fill:#000000;fill-opacity:1;fill-rule:nonzero;stroke:#000000;stroke-width:1;stroke-miterlimit:4;stroke-dasharray:none;stroke-opacity:1" />
        <path
           sodipodi:nodetypes="ssssssccssssss"
           inkscape:connector-curvature="0"
           id="path4326"
           d="m 1226.8022,2950.7598 c 9.0704,16.9481 53.1006,45.031 117.8088,75.1394 34.9296,16.2526 71.7367,33.9915 81.7935,39.4197 10.0569,5.4283 21.546,8.6183 25.5315,7.0889 8.8067,-3.3795 30.046,18.0698 43.5181,43.9482 11.6849,22.4453 18.1811,20.8114 15.3022,-3.8488 -1.1505,-9.8544 8.989,-23.7365 7.5273,-22.2749 -1.4616,1.4616 -17.387,6.7811 -20.385,3.2468 -16.346,-19.2694 -69.3669,-59.6172 -71.1831,-54.1687 -2.7392,8.2175 -23.1281,2.8979 -44.5117,-11.6134 -9.1624,-6.2178 -28.2857,-15.1081 -42.4963,-19.7563 -29.7496,-9.7309 -59.0097,-23.7685 -68.7241,-32.9706 -10.7901,-10.221 -42.9873,-33.6464 -46.2456,-33.6464 -1.6421,0 -0.7132,4.2462 2.0644,9.4361 z"
           style="opacity:1;fill:#000000;fill-opacity:1;fill-rule:nonzero;stroke:#000000;stroke-width:0.80000001;stroke-miterlimit:4;stroke-dasharray:none;stroke-opacity:1" />
        <path
           sodipodi:nodetypes="ccccscscc"
           inkscape:connector-curvature="0"
           id="path4328"
           d="m 1163.4284,2797.2829 c -0.8733,0.8891 14.8973,58.5257 16.8297,65.9189 4.3225,16.5526 25.3756,73.1785 28.7859,77.4246 1.3695,1.7052 5.4226,3.0832 9.007,3.0623 3.6332,-0.021 5.2974,-0.8443 3.7609,-1.8602 -1.5158,-1.0022 -3.5069,-6.9208 -4.4248,-13.1524 -2.0169,-13.6943 -12.6216,-36.7305 -25.9317,-56.3305 -5.401,-7.9533 -23.3587,-86.2913 -10.6759,-20.14 -0.4708,-3.1236 -16.4778,-55.8119 -17.3511,-54.9227 z"
           style="opacity:1;fill:#000000;fill-opacity:1;fill-rule:nonzero;stroke:#000000;stroke-width:0.80000001;stroke-miterlimit:4;stroke-dasharray:none;stroke-opacity:1" />
        <path
           inkscape:connector-curvature="0"
           id="path4332"
           d="m 1203.202,2435.7464 c -1.7049,3.1521 -3.5838,14.7349 -4.1754,25.7395 -0.9516,17.7002 -0.3308,21.5828 5.3801,33.6548 9.0311,19.09 25.3571,41.1792 33.5771,45.4299 6.074,3.141 7.5828,3.1224 12.2569,-0.1515 6.4553,-4.5215 6.8559,-11.7741 0.9899,-17.9231 -6.5444,-6.86 -10.8857,-15.2081 -9.2691,-17.8238 0.792,-1.2815 12.4944,-8.0083 26.0053,-14.9483 38.1434,-19.5929 42.5985,-24.4304 31.7809,-34.5084 -7.9681,-7.4236 -12.1508,-6.3304 -24.4384,6.3872 -13.6279,14.1048 -23.0135,18.3185 -40.8021,18.3185 -12.7499,0 -13.9776,-0.5109 -16.3888,-6.8206 -1.4335,-3.7514 -2.243,-14.6335 -1.7988,-24.1824 0.7558,-16.2487 0.4606,-17.4111 -4.6051,-18.1323 -3.6077,-0.5136 -6.4464,1.1406 -8.5125,4.9605 z"
           style="opacity:1;fill:#000000;fill-opacity:1;fill-rule:nonzero;stroke:#000000;stroke-width:0.80000001;stroke-miterlimit:4;stroke-dasharray:none;stroke-opacity:1" />
        <path
           inkscape:connector-curvature="0"
           id="path4334"
           d="m 1252.5666,1647.021 c -1.7692,1.0009 -5.3965,4.9909 -8.0608,8.8665 -4.5256,6.5835 -4.8331,7.5948 -4.6774,15.3839 0.2098,10.4909 2.7766,16.1141 11.0898,24.2946 11.7155,11.5285 23.8401,14.6523 35.9973,9.2747 3.2895,-1.4552 6.9463,-3.5194 8.1263,-4.5872 3.0944,-2.8004 6.1614,-17.3409 4.802,-22.7661 -2.9644,-11.831 -3.8711,-13.4323 -10.9084,-19.2676 -12.9437,-10.7328 -28.6463,-15.568 -36.3688,-11.1988 z m 19.6712,24.945 c 5.8413,2.4407 10.2205,6.5264 9.3702,8.7423 -0.3624,0.9443 -2.753,2.3443 -5.3126,3.1112 -3.8159,1.1432 -5.4115,1.0299 -8.8625,-0.6295 -5.4358,-2.6137 -10.244,-9.2412 -8.3555,-11.5167 1.8109,-2.182 7.5428,-2.0546 13.1604,0.2927 z"
           style="opacity:1;fill:#000000;fill-opacity:1;fill-rule:nonzero;stroke:#000000;stroke-width:0.80000001;stroke-miterlimit:4;stroke-dasharray:none;stroke-opacity:1" />
        <path
           inkscape:connector-curvature="0"
           id="path4336"
           d="m 1330.1906,1814.3291 c -8.3212,3.8611 -10.2132,6.99 -11.1697,18.4725 -0.8216,9.8637 -0.6521,11.0814 2.5304,18.1727 2.87,6.3954 4.5756,8.3784 10.7551,12.505 7.3749,4.9247 14.0385,7.0818 18.051,5.843 9.1183,-2.815 19.4224,-7.1332 20.2911,-8.5036 0.5765,-0.9094 1.0568,-5.4784 1.0672,-10.1531 0.017,-7.4112 -0.5647,-9.6101 -4.5395,-17.1743 -4.9412,-9.403 -9.6753,-14.8303 -15.6161,-17.9024 -5.2702,-2.7254 -16.7521,-3.4022 -21.3695,-1.2598 z m 19.6728,25.1632 c 4.112,4.1119 4.3428,7.9022 0.4792,7.8644 -4.9888,-0.049 -13.3313,-4.5852 -13.3313,-7.2495 0,-4.8622 8.212,-5.2551 12.8521,-0.6149 z"
           style="opacity:1;fill:#000000;fill-opacity:1;fill-rule:nonzero;stroke:#000000;stroke-width:0.80000001;stroke-miterlimit:4;stroke-dasharray:none;stroke-opacity:1" />
        <path
           inkscape:connector-curvature="0"
           id="path4338"
           d="m 1395.4548,1960.33 c -4.8367,1.9361 -12.4968,8.5887 -14.6224,12.6993 -1.5534,3.0041 -1.8334,6.0469 -1.2791,13.9018 0.8353,11.8372 2.1583,15.165 8.8757,22.3264 6.5272,6.9586 23.6039,17.9561 27.7992,17.9028 4.9501,-0.063 8.8426,-4.1492 10.8627,-11.4039 2.5205,-9.0517 2.2066,-17.2317 -1.0288,-26.8101 -2.3463,-6.9462 -4.0058,-9.3366 -11.1796,-16.104 -4.6335,-4.371 -8.4244,-8.6271 -8.4244,-9.4581 0,-0.831 -1.4214,-2.1585 -3.1587,-2.9501 -3.66,-1.6676 -3.9296,-1.6712 -7.8446,-0.1041 z m 11.4319,29.8603 c 5.1812,3.5397 6.9856,5.8745 6.1743,7.989 -1.0245,2.6698 -5.5336,2.075 -10.6555,-1.4054 -5.0469,-3.4294 -5.8302,-5.9526 -2.4581,-7.9167 2.8428,-1.6557 2.4558,-1.7301 6.9393,1.3331 z"
           style="opacity:1;fill:#000000;fill-opacity:1;fill-rule:nonzero;stroke:#000000;stroke-width:0.80000001;stroke-miterlimit:4;stroke-dasharray:none;stroke-opacity:1" />
        <path
           transform="matrix(0.8,0,0,-0.8,0,3264)"
           inkscape:connector-curvature="0"
           id="path4419"
           d="m 1690.9059,926.11339 c -2.5605,-1.85971 -7.0609,-14.23291 -10.0008,-27.496 -8.1135,-36.60282 -20.5908,-61.38288 -30.9077,-61.38288 -4.7985,0 -10.1351,-2.28235 -11.8592,-5.07189 -2.3334,-3.77566 6.2847,-4.28665 33.7211,-1.99942 49.308,4.11055 56.5218,6.33195 61.2901,18.87353 5.9021,15.52381 4.9816,59.86389 -1.4159,68.19705 -6.1795,8.0493 -33.7229,14.03971 -40.8276,8.87961 z"
           style="opacity:1;fill:#999999;fill-opacity:1;fill-rule:nonzero;stroke:none;stroke-width:1;stroke-miterlimit:4;stroke-dasharray:none;stroke-opacity:1" />
        <path
           transform="matrix(0.8,0,0,-0.8,0,3264)"
           inkscape:connector-curvature="0"
           id="path4421"
           d="m 1440.6271,1070.3952 c -8.7981,-9.9914 -21.3755,-42.9124 -25.6792,-67.2142 -1.2619,-7.12591 -4.2138,-16.2094 -6.5598,-20.18555 -7.7452,-13.12711 -9.2996,-23.36975 -10.9397,-72.0861 -0.893,-26.52617 -2.3288,-49.80584 -3.1906,-51.73258 -1.2658,-2.82981 3.8262,-5.85975 26.4908,-15.763 34.0621,-14.88341 65.6866,-25.67487 75.2404,-25.67487 6.7702,0 7.0158,0.29849 5.6916,6.91913 -0.7611,3.80553 -8.7322,19.16758 -17.7136,34.13789 -27.8686,46.45187 -38.1709,79.66035 -40.0159,128.98774 -0.8744,23.38014 -0.2428,36.25944 2.612,53.26034 4.8247,28.7316 2.7129,39.1733 -5.936,29.3512 z"
           style="opacity:1;fill:#999999;fill-opacity:1;fill-rule:nonzero;stroke:none;stroke-width:1;stroke-miterlimit:4;stroke-dasharray:none;stroke-opacity:1" />
        <path
           transform="matrix(0.8,0,0,-0.8,0,3264)"
           inkscape:connector-curvature="0"
           id="path4423"
           d="m 1421.4033,804.47656 c 0,-10.81762 11.0771,-22.51827 17.538,-18.52522 3.613,2.23297 10.7617,-1.01922 13.5781,-6.17714 1.5676,-2.87088 3.1439,-20.12651 3.9415,-43.1484 1.2019,-34.68896 1.842,-39.41441 6.6809,-49.32553 4.8588,-9.9519 5.3535,-13.66936 5.3732,-40.37126 l 0.022,-29.41006 6.5767,-2.14342 c 17.6514,-5.75278 69.388,-45.50717 95.8999,-73.68948 17.7655,-18.88484 28.0248,-36.06016 23.9649,-40.12012 -3.5116,-3.51153 -10.63,1.9819 -29.1808,22.51948 -8.8813,9.83235 -25.0263,25.35433 -35.8779,34.49332 -19.3489,16.29521 -63.0192,46.51231 -67.2204,46.51231 -1.172,0 -1.52,-1.92452 -0.7734,-4.27669 0.7465,-2.3522 0.2619,-8.34494 -1.077,-13.31724 -2.0606,-7.65219 -1.6967,-11.52538 2.3693,-25.22175 2.642,-8.89966 5.8285,-15.97818 7.081,-15.73002 1.2525,0.24814 5.896,-11.54715 10.3188,-26.21176 4.4229,-14.66464 11.1182,-31.4575 14.8786,-37.31751 10.0193,-15.61379 23.9729,-46.3578 26.7162,-58.86413 3.572,-16.28426 4.4698,-18.55528 7.3358,-18.55528 3.7482,0 23.2081,-13.40321 48.6005,-33.47411 26.6846,-21.09232 40.402,-28.82843 74.5364,-42.03583 14.4688,-5.59834 32.7192,-12.66402 40.5565,-15.70152 7.8373,-3.0375 23.1282,-10.7287 33.9798,-17.09157 31.0639,-18.21439 45.7466,-22.48853 55.7637,-16.23281 3.5533,2.21908 6.118,1.33855 16.9601,-5.82286 19.1447,-12.64539 36.9205,-26.57984 58.273,-45.68011 14.7389,-13.18435 20.2068,-16.84588 23.565,-15.78005 3.4914,1.10816 3.9312,2.21285 2.1822,5.48104 -3.1359,5.85936 -2.7022,10.95815 0.9319,10.95815 1.7175,0 20.7078,-6.54158 42.2008,-14.53683 21.493,-7.99526 46.175,-16.74968 54.849,-19.45427 l 15.7709,-4.91745 5.0555,5.42653 c 13.8901,14.90966 76.2004,38.15889 178.2428,66.50597 60.4769,16.80029 110.6858,35.93693 131.0518,49.94908 7.9605,5.47698 11.8599,11.06598 23.4387,33.59454 32.0891,62.43525 51.4694,83.44359 115.8401,125.57095 16.1834,10.59124 28.911,20.39308 28.911,22.2651 0,6.3286 46.0451,115.2104 62.6076,148.04669 8.2914,16.43834 27.9909,44.78265 50.8274,73.13217 22.2085,27.56988 32.1755,41.70684 34.3885,48.77576 2.4564,7.84644 -6.1529,9.84998 -26.7115,6.21624 -48.6467,-8.59827 -129.0175,-55.11409 -188.7446,-109.23885 -14.459,-13.10279 -21.0349,-15.51261 -23.2537,-8.52172 -1.8495,5.82721 1.8902,14.54345 13.5478,31.57681 11.7523,17.17155 11.4152,18.20044 -7.4148,22.63071 -54.4182,12.80337 -92.376,-8.52617 -160.1612,-89.99911 -24.1092,-28.97748 -40.0925,-43.5712 -46.4105,-42.37554 -5.2845,1.00005 -5.6697,15.19305 -0.7147,26.33157 7.0036,15.74341 30.1136,44.19567 54.7225,67.37273 12.8597,12.11131 22.5884,22.02057 21.6195,22.02057 -4.2985,0 -102.8999,-27.45275 -119.698,-33.3265 -36.6728,-12.82328 -98.4324,-45.03735 -148.8821,-77.6576 -26.5034,-17.13687 -35.2845,-19.89327 -35.2845,-11.0759 0,5.53607 16.2688,30.34153 31.8979,48.63565 14.3892,16.84272 24.7568,23.05362 55.5498,33.27808 l 27.6452,9.17928 -23.0186,0.0605 c -42.6346,0.11203 -114.9353,-3.91337 -135.9192,-7.56745 -40.568,-7.06438 -75.5709,-20.39631 -153.3231,-58.39773 -70.3257,-34.37165 -91.9464,-43.81068 -96.8132,-42.26602 -10.7969,3.42681 0.8695,23.13462 25.1161,42.4282 36.6887,29.1941 38.7009,36.12964 40.6444,140.08772 l 1.3233,70.78128 -14.2496,-1.1924 c -55.0998,-4.61078 -70.6695,-6.24027 -100.8434,-10.55415 -26.9191,-3.84856 -43.7736,-4.83974 -81.1131,-4.77015 -53.5586,0.0997 -77.1682,3.45274 -100.5413,14.2784 -7.6713,3.55304 -14.3302,6.46009 -14.7977,6.46009 -0.4675,0 -0.85,-2.02202 -0.85,-4.49336 z m 666.0093,-300.45529 c 0.3644,-3.1389 -1.8552,-11.40036 -4.9325,-18.35881 -5.6273,-12.72423 -7.2635,-23.0674 -3.6491,-23.0674 1.0703,0 8.2225,2.92149 15.8938,6.49223 38.9042,18.10874 69.6375,17.37997 79.6012,-1.88759 3.9775,-7.69165 2.8747,-11.60885 -8.1509,-28.95337 -8.6463,-13.60168 -18.0723,-36.3404 -20.3501,-49.09151 -1.8134,-10.15101 -5.8603,-18.88113 -10.5609,-22.78232 -2.5506,-2.1168 -4.3762,-2.15296 -8.0993,-0.16043 -7.6182,4.07714 -4.9568,23.56869 7.5989,55.65194 11.1088,28.38625 10.9941,29.67307 -2.65,29.73626 -22.5328,0.10435 -61.7654,-17.82917 -81.6045,-37.30206 -11.3008,-11.09222 -14.053,-12.81933 -16.7978,-10.54135 -4.0389,3.35197 -2.8617,12.21812 4.8732,36.70357 3.0322,9.59858 5.738,21.21849 6.0129,25.82199 0.4628,7.74983 0.094,8.32154 -4.9808,7.71618 -9.1733,-1.09433 -65.4354,-29.85412 -89.8821,-45.94545 -12.6602,-8.33323 -31.4039,-21.8146 -41.6527,-29.95861 -24.0941,-19.14604 -29.3482,-21.96872 -32.908,-17.67944 -4.8999,5.90411 0,15.01157 17.1554,31.90553 30.8056,30.33093 99.2728,70.70754 153.8641,90.73713 26.0966,9.57483 40.1811,9.90406 41.2192,0.96351 z"
           style="opacity:1;fill:#999999;fill-opacity:1;fill-rule:nonzero;stroke:none;stroke-width:1;stroke-miterlimit:4;stroke-dasharray:none;stroke-opacity:1" />
        <path
           inkscape:connector-curvature="0"
           id="path4435"
           d="m 1860.7784,2576.3274 5.2614,16.6611 2.6307,8.769 2.6306,6.1383 8.7691,37.7066 6.1382,18.4149 0,14.9073 -19.2918,8.7689 -3.5076,-19.2917 c 0,0 0.8769,7.0152 -3.5076,-14.0304 -4.3844,-21.0456 -5.2613,-21.9225 -9.6458,-39.4604 -4.3845,-17.538 -8.769,-43.845 -8.769,-43.845 z"
           style="fill:none;fill-rule:evenodd;stroke:#000000;stroke-width:0.80000001px;stroke-linecap:butt;stroke-linejoin:miter;stroke-opacity:1" />
        <path
           transform="matrix(0.8,0,0,-0.8,0,3264)"
           inkscape:connector-curvature="0"
           id="path4437"
           d="m 2332.9003,781.40582 c -5.4258,-1.23681 -10.0319,-2.37476 -10.2357,-2.52879 -0.2038,-0.15403 1.4421,-8.33422 3.6576,-18.1782 2.2154,-9.84398 4.649,-20.98703 5.4078,-24.76233 0.7589,-3.7753 1.5793,-7.01421 1.8231,-7.19757 0.2438,-0.18336 5.4992,0.87436 11.6786,2.35049 l 11.2353,2.68388 0,8.40878 c 0,6.63198 -0.7748,10.71253 -3.6664,19.31135 -2.0165,5.99641 -4.2853,13.49216 -5.0419,16.65722 -1.5811,6.61474 -0.8361,6.45154 -14.8584,3.25517 z"
           style="opacity:1;fill:#000000;fill-opacity:1;fill-rule:nonzero;stroke:#000000;stroke-width:3.5999999;stroke-miterlimit:4;stroke-dasharray:none;stroke-opacity:1" />
        <path
           transform="matrix(0.8,0,0,-0.8,0,3264)"
           inkscape:connector-curvature="0"
           id="path4439"
           d="m 2306.0453,848.62437 c 0,-2.68732 6.8265,-33.58387 7.5935,-34.36763 0.4779,-0.48842 6.1219,0.74471 12.5422,2.74031 9.2466,2.87406 11.5194,3.97017 10.9328,5.27255 -0.58,1.28759 -4.9964,14.59363 -8.6407,26.03292 -0.5311,1.66696 -22.4278,1.98119 -22.4278,0.32185 z"
           style="opacity:1;fill:#000000;fill-opacity:1;fill-rule:nonzero;stroke:#000000;stroke-width:5.9000001;stroke-miterlimit:4;stroke-dasharray:none;stroke-opacity:1" />
      </g>
      <g
         style="display:none"
         inkscape:label="Arme1"
         id="layer1-6">
        <path
           inkscape:connector-curvature="0"
           id="path4274"
           d="m 2155.8952,1291.5367 c -45.4892,50.6251 -69.2008,93.6908 -114.4976,207.9536 -31.371,79.1344 -59.9366,133.3191 -108.7407,206.265 l -16.0351,23.967 6.3516,10.6513 6.3517,10.6513 10.0934,-21.1172 c 5.5513,-11.6145 15.0115,-32.0087 21.0226,-45.3204 18.9836,-42.0395 27.066,-50.9175 57.8745,-63.5712 14.7642,-6.0641 31.6461,-18.2428 31.6461,-22.8299 0,-1.7246 -5.9894,-2.2044 -17.3617,-1.3907 -11.8761,0.8497 -17.3558,0.3672 -17.3428,-1.5269 0.066,-9.7233 44.7886,-126.0842 60.7226,-157.9922 11.164,-22.3557 29.4384,-51.2187 60.3272,-95.2815 14.3442,-20.462 27.8503,-39.7746 30.0134,-42.9167 3.5822,-5.2036 5.2606,-5.5885 18.8145,-4.316 33.4633,3.1419 73.283,21.1763 155.9255,70.6189 49.3981,29.5535 66.0562,42.2429 66.0562,50.3183 0,2.7064 -6.0219,15.6908 -13.3821,28.8543 -7.3602,13.1635 -28.5223,54.6266 -47.0271,92.1402 -37.1803,75.3741 -62.8267,121.8989 -74.8856,135.849 l -7.9162,9.1577 -12.1026,-4.1507 c -34.5221,-11.8393 -36.0394,-12.6393 -45.5386,-24.0116 -5.2529,-6.2887 -15.5792,-18.6878 -22.9473,-27.5537 -7.3681,-8.8658 -15.4393,-16.5131 -17.9361,-16.9939 -3.9089,-0.7528 -4.3417,0.3431 -3.1168,7.8919 0.7824,4.8214 5.2098,14.7008 9.8385,21.9544 10.9119,17.0994 44.7223,79.1608 51.5754,94.6701 8.6719,19.6257 4.5037,32.1295 -29.9834,89.9443 -32.2423,54.0518 -45.5196,84.3214 -74.2402,169.2536 -14.5967,43.1648 -31.4057,92.3031 -37.3535,109.1964 l -10.8142,30.7149 7.2682,5.7955 c 3.9976,3.1876 8.0383,4.9914 8.9793,4.0084 3.1876,-3.3292 18.9818,-43.711 40.472,-103.477 12.5019,-34.7686 28.4363,-73.4518 38.3123,-93.0091 27.6296,-54.7139 45.0856,-93.6642 56.1336,-125.2523 5.7252,-16.3696 13.3168,-36.4596 16.8702,-44.6444 8.96,-20.6382 8.6871,-35.4355 -1.0202,-55.3331 -4.1793,-8.5664 -7.2486,-18.0367 -6.8207,-21.0451 0.7126,-5.0096 2.1836,-5.478 17.4827,-5.5675 15.61,-0.091 17.2804,-0.6557 25.4886,-8.6114 16.0992,-15.6039 42.9932,-59.5567 91.7018,-149.8679 37.686,-69.8742 55.8436,-107.5759 55.8436,-115.952 0,-3.9737 -1.5768,-10.2739 -3.5039,-14.0005 -7.5489,-14.5979 -43.075,-43.0331 -96.3473,-77.1165 -57.1218,-36.5462 -89.9279,-49.9366 -131.5939,-53.7123 l -18.1678,-1.6463 -16.4901,18.3519 z"
           style="display:inline;opacity:1;fill:#d35f5f;fill-opacity:1;fill-rule:nonzero;stroke:none;stroke-width:5.9000001;stroke-miterlimit:4;stroke-dasharray:none;stroke-opacity:1"
           transform="matrix(1.25,0,0,-1.25,0,4080)" />
        <path
           inkscape:connector-curvature="0"
           id="path4286"
           d="m 1283.463,2622.2446 c -26.0092,23.6207 -48.3999,39.3758 -79.4174,55.8812 -43.8867,23.353 -111.3507,48.1806 -135.678,49.9305 l -11.6081,0.8354 -20.0992,-28.1841 c -11.0544,-15.5011 -30.3064,-42.507 -42.78245,-60.0138 -57.12836,-80.1643 -160.31137,-244.7417 -191.88683,-306.0603 -20.64626,-40.094 -32.4146,-58.3861 -52.20229,-81.1398 -25.58131,-29.4158 -57.3902,-79.4168 -78.42305,-123.2744 -17.40527,-36.2934 -43.7427,-118.0617 -59.35416,-184.2726 -20.13216,-85.3834 -28.90308,-150.7989 -27.62806,-206.0576 1.32132,-57.2738 19.73029,-170.8395 34.93858,-215.5361 15.31548,-45.0125 84.26163,-172.2514 126.8231,-234.0491 8.99983,-13.0686 17.50176,-25.6588 18.8924,-27.9785 1.59188,-2.6552 5.34939,-4.5044 10.14155,-4.9914 l 7.61274,-0.7729 -46.2806,97.6296 c -78.209,164.9843 -100.44946,225.0024 -115.44672,311.55 -16.40049,94.6422 -11.49399,198.6516 14.88273,315.4932 18.24135,80.8049 36.35396,131.1806 65.40796,181.9156 19.04687,33.2606 28.56513,45.6368 52.40678,68.1433 27.32161,25.7911 41.29166,33.3562 85.86611,46.4984 31.12214,9.1758 38.58861,12.9864 36.05401,18.3999 -1.88558,4.0284 -20.05569,4.4443 -41.56295,0.9517 -21.93167,-3.5613 -32.93308,-4.3581 -34.68478,-2.5122 -2.71914,2.8653 29.11443,65.1715 40.66488,79.5915 6.78065,8.4648 16.66414,12.0327 42.19512,15.2311 17.89152,2.2419 21.86762,4.568 21.67559,12.6823 -0.18641,7.8761 -1.9959,8.8907 -18.36393,10.2908 -8.14094,0.6969 -15.83231,2.3529 -17.09206,3.6801 -1.25951,1.3272 -0.71013,5.9917 1.2213,10.3661 3.42542,7.7578 118.47086,179.1368 150.68453,224.4691 18.5049,26.0409 34.7198,44.9667 42.0819,49.117 10.5146,5.9271 53.5595,-1.0576 84.2662,-13.674 28.1833,-11.5799 66.0783,-34.4527 99.4906,-60.0522 18.8257,-14.424 87.6578,-73.4782 88.0963,-75.583 0.763,-3.6557 -10.0647,-40.05 -30.0896,-101.1397 -26.3453,-80.3724 -54.8317,-169.7282 -68.1715,-213.8423 -5.8244,-19.2607 -13.7444,-43.7255 -17.5996,-54.3664 -20.0853,-55.4319 -54.9804,-113.6984 -65.1783,-108.8331 -4.5614,2.1767 -7.8127,18.6891 -10.0255,50.9185 l -1.9407,28.2663 -6.4473,-2.3948 c -8.8593,-3.291 -11.0268,-5.6071 -13.3328,-14.2472 -2.9131,-10.9149 -2.6889,-25.6798 0.7318,-48.8377 3.7146,-25.1286 2.9228,-70.955 -1.7004,-98.4153 -3.9412,-23.4061 -23.6659,-77.3885 -53.3044,-145.8797 -18.4567,-42.6528 -25.1516,-56.9294 -52.9737,-112.9695 -19.15697,-38.5864 -38.52831,-97.647 -38.02677,-115.9393 0.1781,-6.5009 0.19008,-6.5142 5.57772,-5.8778 7.53179,0.8898 17.5555,13.7022 24.93915,31.8772 3.2374,7.97 9.5828,30.8227 14.1004,50.7846 7.6069,33.6153 9.6379,39.1416 27.5142,74.8735 28.0183,56.0056 43.0341,89.7456 62.958,141.4627 21.5337,55.8961 31.7324,90.8545 33.4898,114.7989 0.7313,9.9537 2.2123,19.8985 3.2921,22.0989 1.0831,2.207 6.6485,6.1992 12.4098,8.901 12.7236,5.9672 24.592,18.8883 35.9626,39.1523 9.6079,17.123 46.0481,100.9026 51.7672,119.0182 2.2826,7.2289 11.3604,34.9243 20.1727,61.5463 17.4298,52.6509 18.9028,57.6391 35.4753,120.0891 12.5448,47.2721 26.4824,92.4773 40.3209,130.7785 l 9.2915,25.716 -10.1641,10.7294 c -5.5867,5.9048 -17.3373,18.8822 -26.1018,28.8494 -8.7649,9.9672 -23.9915,25.4378 -33.8367,34.3797 l 0,0 z"
           style="display:inline;opacity:1;fill:#ff0000;fill-opacity:1;fill-rule:nonzero;stroke:none;stroke-width:5.9000001;stroke-miterlimit:4;stroke-dasharray:none;stroke-opacity:1" />
      </g>
      <g
         style="display:inline;opacity:1;filter:url(#filter4226)"
         inkscape:label="Arme2"
         id="layer2">
        <path
           sodipodi:nodetypes="cssc"
           inkscape:connector-curvature="0"
           id="path4234"
           d="m 2120.9392,915.08543 c 0,0 -39.6374,-2.70104 -40.566,26.81402 -1.0739,34.13252 63.5771,33.76115 66.9467,16.7544 8.7867,-44.34492 -26.3807,-43.56842 -26.3807,-43.56842 z"
           style="fill:#000000;fill-rule:evenodd;stroke:#000000;stroke-width:1.34035265px;stroke-linecap:butt;stroke-linejoin:miter;stroke-opacity:1" />
      </g>
      <g
         style="display:none"
         inkscape:label="Hände"
         id="layer3">
        <path
           sodipodi:nodetypes="sccssssccsssssscccssssssssssccccssssssss"
           inkscape:connector-curvature="0"
           id="path4757"
           d="m 612.75073,2729.6835 c -8.14777,-4.8498 -16.75666,-11.2736 -19.13086,-14.2752 -26.82516,17.6185 -43.18252,0.4445 -55.41326,-4.99 -7.80632,-3.4771 -13.22496,-4.3762 -18.67482,-1.4595 -14.08848,7.5399 -23.5145,4.433 -42.89823,-14.14 -30.64454,-29.3626 -34.80654,-56.7463 -20.16009,-132.6426 10.69066,-55.3977 37.04537,-127.6288 54.54142,-157.3256 23.29379,-39.5375 34.03131,-16.781 0.25197,43.5643 -10.47886,24.6834 -16.09111,32.8017 -18.1522,41.5007 -1.14979,5.2107 -5.26383,20.9021 -9.14234,34.8698 -11.12009,40.0471 -19.20203,103.5508 -15.25648,119.878 3.57749,14.8043 25.01482,38.8454 34.63818,38.8454 7.85135,0 8.43322,-1.6395 5.63258,-15.8723 -6.28874,-31.9594 -6.32415,-39.1518 -0.19267,-39.1518 3.35007,0 8.97296,9.1733 12.93537,21.1029 4.29615,12.9345 11.54058,24.3294 18.71593,29.4387 28.74332,33.9773 28.37342,-2.5601 27.49303,-9.7693 -0.41991,-3.2454 0.5048,-7.7431 3.72715,-10.4173 4.68027,-3.8844 9.01659,-1.3911 19.35407,13.9294 40.53125,60.0688 65.21839,49.5641 68.9664,17.4014 2.06646,-17.7329 8.25483,-17.164 21.50478,1.9773 14.1111,20.3851 27.32664,21.8908 44.91371,5.1171 23.21747,-22.1438 32.21359,-70.8753 20.31558,-110.0483 -5.18642,-17.0758 -8.72076,-17.3177 -15.45572,-1.0581 -2.89274,6.9838 -7.88555,12.6978 -11.09503,12.6978 -14.80464,0 0.97452,-48.387 21.01841,-64.4534 11.56177,-9.2674 27.63701,-9.5832 31.08013,-0.6107 1.6875,4.3977 -0.89183,9.5578 -7.12923,14.2626 l -9.7733,7.3721 8.05451,19.5825 c 10.85109,26.4068 11.43811,32.2261 22.86864,42.8937 19.17887,26.1974 24.89867,-86.4556 24.26141,-99.2308 -3.53865,-67.75 4.9597,-80.2837 14.21409,-20.9634 6.79708,43.5685 2.18149,96.9039 -10.84898,125.3662 -10.23356,22.353 -25.3558,34.0564 -33.76383,26.1305 -9.04942,-8.5304 -14.96744,-2.4373 -22.00965,22.6608 -5.86486,20.9023 -11.69565,30.7251 -27.79453,46.824 -21.26227,21.2623 -33.71542,18.2375 -48.99125,10.3022 -7.64517,-3.9714 -12.15962,-3.3218 -21.81617,2.3824 -16.0319,9.4703 -28.81293,9.0082 -46.78872,-1.6915 z"
           style="display:inline;opacity:1;fill:#000000;fill-opacity:1;fill-rule:nonzero;stroke:none;stroke-width:5.9000001;stroke-miterlimit:4;stroke-dasharray:none;stroke-opacity:1" />
        <path
           sodipodi:nodetypes="ccscccccsssccsssssccscccssssssccccsccsssccss"
           inkscape:connector-curvature="0"
           id="path4759"
           d="m 2266.2622,2761.1372 c -43.9154,-77.3248 -45.641,-102.5269 -64.8661,-154.2792 -4.782,-5.347 -4.6453,-61.5847 0.1498,-61.5847 7.5887,0 17.4172,21.3584 17.4172,37.8493 -2.307,27.6208 12.2386,44.3553 25.5304,69.12 0.075,2.8574 2.9923,8.9762 6.485,13.5975 5.8329,22.8446 3.029,-17.5194 49.4036,-17.8633 29.5715,10.0261 10.8505,-18.1123 57.6652,-29.0319 3.5957,-1.1297 -5.3873,-12.1262 -23.9302,-29.294 -27.0357,-25.031 -43.1178,-49.7777 -35.4348,-54.5261 1.6645,-1.0287 19.8009,13.1353 40.303,31.4756 20.5022,18.3404 40.9303,34.5058 45.3961,35.9232 12.0807,8.5225 21.1538,24.5629 25.1375,38.6566 5.7714,20.982 21.1804,49.1845 29.7754,54.4963 11.407,7.05 16.5772,-8.7563 18.0759,-55.2615 1.4703,-45.6221 1.2485,-46.9279 -12.2083,-71.8622 -11.4257,-21.1709 -12.751,-26.2759 -7.9663,-30.6866 9.3739,-8.6412 12.2108,-6.4718 24.9076,19.0468 8.0115,16.1017 12.3814,31.8707 12.9133,46.598 1.8627,22.3965 12.7614,29.5808 34.6169,30.6475 8.0779,0 16.3888,-14.7946 15.4551,-27.5121 -0.5127,-6.9838 -1.1696,-23.1736 -1.4595,-35.9773 -1.9551,-37.5466 -16.2875,-55.2725 -31.1176,-79.3617 -16.699,-25.3676 -42.7769,-44.4643 -38.5261,-65.055 1.4726,-6.7047 4.1079,-12.1905 5.8563,-12.1905 1.7483,0 9.5571,9.0473 17.3529,20.105 7.7957,11.0577 21.1844,27.8676 29.7524,37.3552 21.5843,23.9009 37.3794,72.7473 40.7762,126.1009 2.4842,39.0184 2.1257,41.5503 -7.3071,51.5909 -12.8849,13.7154 -31.877,23.0382 -46.9324,23.0382 -10.7148,0 -12.2858,1.8017 -14.6922,16.8506 -19.1622,50.7661 -42.4775,61.8697 -65.4934,17.0104 9.2986,28.7363 -20.3355,72.8817 -57.115,42.3262 -6.3694,28.8154 -49.2894,70.2422 -89.9208,12.6979 z m 57.8127,-1.2681 c 9.5548,-11.5128 9.9296,-38.2469 0.8992,-64.1271 -22.8332,-58.081 -70.5058,-9.1864 -56.8906,17.1827 15.0152,31.879 31.353,52.4451 41.6627,52.4451 5.3699,0 11.8178,-2.4753 14.3287,-5.5007 z m 70.6639,-41.4415 c 3.232,-10.1833 2.6122,-49.2181 -11.7792,-70.5131 -55.2328,-24.6418 -43.4842,40.832 -28.6464,61.6298 10.0364,13.8549 15.5531,17.7319 25.2311,17.7319 8.8476,0 13.1883,-2.5278 15.1945,-8.8486 z"
           style="display:inline;opacity:1;fill:#000000;fill-opacity:1;fill-rule:nonzero;stroke:none;stroke-width:5.9000001;stroke-miterlimit:4;stroke-dasharray:none;stroke-opacity:1" />
        <path
           inkscape:connector-curvature="0"
           id="path4850"
           d="m 2430.5994,2680.9806 c -6.0996,-9.3127 -15.1821,-27.978 -20.1833,-41.4786 -8.1458,-21.9897 -13.921,-28.5304 -55.4445,-62.7942 l -46.3514,-38.2478 47.2221,-30.7387 c 25.9722,-16.9064 58.6984,-39.5696 72.7249,-50.3627 14.0265,-10.7932 25.5027,-18.0192 25.5027,-16.0579 0,1.9613 11.1566,18.354 24.7923,36.4283 31.6753,41.9857 39.35,60.0945 43.0456,101.5685 3.3877,38.0185 -1.08,51.8673 -16.7325,51.8673 -16.3197,0 -24.4456,-9.5931 -29.0902,-34.3426 -4.9834,-26.5549 -18.4311,-59.3836 -26.3236,-64.2614 -2.9341,-1.8134 -8.4306,-0.1483 -12.3073,3.7284 -6.4174,6.4174 -5.9787,9.1532 5.2274,32.5991 11.443,23.9415 12.1347,28.6043 10.7144,72.2253 -1.8217,55.9485 -6.6886,64.4598 -22.7966,39.867 z"
           style="opacity:1;fill:#ffe6d5;fill-opacity:1;fill-rule:nonzero;stroke:none;stroke-width:5.9000001;stroke-miterlimit:4;stroke-dasharray:none;stroke-opacity:1" />
        <path
           inkscape:connector-curvature="0"
           id="path4852"
           d="m 2237.8409,2636.7758 c -10.3588,-20.489 -16.149,-38.0507 -16.149,-48.9798 0,-15.7416 1.0843,-17.2452 14.2496,-19.7583 7.8372,-1.496 24.6079,-7.5439 37.2681,-13.4397 12.6603,-5.8958 23.0186,-8.8744 23.0186,-6.619 0,2.2553 13.3179,18.2572 29.5953,35.5597 19.9966,21.2559 27.6165,32.1334 23.4939,33.5382 -3.3558,1.1435 -13.6398,8.8895 -22.8533,17.2134 -9.2136,8.3238 -18.5966,13.9941 -20.8513,12.6007 -7.2289,-4.4678 -30.8596,2.5838 -41.4026,12.3548 l -10.2203,9.4718 -16.149,-31.9418 z"
           style="opacity:1;fill:#ffe6d5;fill-opacity:1;fill-rule:nonzero;stroke:none;stroke-width:5.9000001;stroke-miterlimit:4;stroke-dasharray:none;stroke-opacity:1" />
        <path
           inkscape:connector-curvature="0"
           id="path4854"
           d="m 2296.0172,2752.8344 c -13.194,-13.9633 -26.0959,-40.4313 -26.0959,-53.5353 0,-13.0069 14.0024,-28.6739 25.6274,-28.6739 16.4975,0 32.272,27.6346 32.7198,57.3203 0.4943,32.7668 -14.1377,44.0587 -32.2513,24.8889 z"
           style="opacity:1;fill:#ffe6d5;fill-opacity:1;fill-rule:nonzero;stroke:none;stroke-width:5.9000001;stroke-miterlimit:4;stroke-dasharray:none;stroke-opacity:1" />
        <path
           inkscape:connector-curvature="0"
           id="path4856"
           d="m 2357.4558,2708.9895 c -10.9075,-17.6714 -14.0981,-29.4142 -12.2444,-45.0651 1.7722,-14.9629 11.8366,-21.7985 26.6287,-18.0859 13.8493,3.4759 20.8469,21.582 20.8469,53.9402 0,23.1696 -0.1638,23.4604 -13.2179,23.4604 -10.1853,0 -15.2358,-3.2693 -22.0133,-14.2496 z"
           style="opacity:1;fill:#ffe6d5;fill-opacity:1;fill-rule:nonzero;stroke:none;stroke-width:5.9000001;stroke-miterlimit:4;stroke-dasharray:none;stroke-opacity:1" />
        <g
           transform="translate(289.87842,-58.905775)"
           id="g4862">
          <path
             style="opacity:1;fill:#ffe6d5;fill-opacity:1;fill-rule:nonzero;stroke:none;stroke-width:5.9000001;stroke-miterlimit:4;stroke-dasharray:none;stroke-opacity:1"
             d="m 490.72279,2672.2586 c -3.58631,-4.2201 -9.92442,-19.8878 -14.87098,-32.8282 l -9.72057,-25.4293 9.71601,-7.5935 c 18.6538,-14.5787 -6.94695,-28.8451 -25.55294,-11.897 -2.33414,2.1262 -4.64141,5.0394 -5.93968,5.429 -4.64682,1.3946 -3.23304,-8.9441 -5.19638,-19.409 -1.58497,-8.4482 -4.10667,-26.6087 -2.58959,-32.6532 2.67349,-10.652 8.84513,-11.5971 44.95644,-12.3601 l 38.90973,-0.8221 -0.41075,58.0188 c -0.34249,48.3754 -11.28697,88.0395 -17.40402,88.0395 -1.75144,0 -8.31095,-4.2749 -11.89727,-8.4949 z"
             id="path4858"
             inkscape:connector-curvature="0"
             sodipodi:nodetypes="sscsssssscsss" />
          <path
             style="opacity:1;fill:#ffe6d5;fill-opacity:1;fill-rule:nonzero;stroke:none;stroke-width:5.9000001;stroke-miterlimit:4;stroke-dasharray:none;stroke-opacity:1"
             d="m 338.85431,2770.6192 c -7.96206,-4.1823 -22.99473,-19.4995 -32.56065,-33.1771 -8.59258,-12.2858 -17.66425,-22.3346 -20.16284,-22.3346 -0.94289,0 -3.04412,0.9723 -4.6694,2.1608 -2.33939,1.7106 -3.17141,4.9431 -3.99348,15.5155 -1.71178,22.0145 -6.69892,23.6158 -23.40005,7.5137 -12.10095,-11.667 -16.24529,-17.9551 -22.03674,-33.4358 -5.17912,-13.844 -9.56731,-19.9685 -13.86792,-19.3554 -4.75794,0.6784 -5.04427,9.7888 -1.02043,32.4678 1.79976,10.1438 2.84917,19.1278 2.33203,19.9646 -1.85129,2.9954 -9.68765,1.4771 -15.26913,-2.9585 -7.13341,-5.669 -17.2462,-17.7047 -21.63429,-25.7481 -2.97156,-5.4469 -3.36688,-8.4618 -3.25214,-24.8024 0.21849,-31.1158 6.02387,-66.2578 19.07806,-115.4863 6.79376,-25.6199 9.26209,-32.1491 23.14817,-61.231 8.54894,-17.9043 16.81609,-36.5201 18.37145,-41.3686 l 2.82794,-8.8153 11.62614,7.1245 c 21.47263,13.1585 69.82063,35.6377 96.10942,44.6856 14.06763,4.8418 30.55337,11.0821 36.63499,13.8675 30.09799,7.9854 21.36747,6.0525 57.55877,13.9597 12.68331,10.6717 9.69976,43.4441 3.3603,54.1217 -9.70407,16.3447 -15.76683,28.4456 -19.71213,36.1335 -3.41222,10.8119 -4.98346,19.7608 -2.00509,27.1212 0.48274,2.5482 5.63961,2.4396 10.7741,-2.9112 2.02826,-2.1137 8.96876,-23.1664 13.68426,-19.7934 2.94523,2.1067 8.81517,12.5601 10.17327,21.3658 0.97319,6.3099 3.0108,17.0938 3.12865,21.0482 0.0421,32.0802 -7.19183,68.1892 -34.20147,87.0089 -5.44858,3.609 -10.39573,3.002 -15.21117,3.002 -7.94591,0 -12.65912,-3.5664 -24.76607,-18.7403 -12.35934,-15.4901 -17.71676,-15.7255 -20.05935,-0.8812 -1.87065,11.8538 -4.42062,18.396 -8.92657,22.9019 -5.48475,5.4847 -12.97066,5.85 -22.05863,1.0763 z"
             id="path4860"
             inkscape:connector-curvature="0"
             sodipodi:nodetypes="ssscssscscsssssscssccsccsssccsssss" />
        </g>
      </g>
    </g>
    <path
       style="opacity:1;fill:#000000;fill-opacity:1;fill-rule:nonzero;stroke:none;stroke-width:5.9000001;stroke-miterlimit:4;stroke-dasharray:none;stroke-opacity:1"
       d="m 102.30928,982.67825 c -5.331225,-12.2944 -14.224589,-39.28732 -17.750883,-53.87828 -3.828207,-15.8391 -3.890996,-17.35967 -1.143306,-27.65426 1.599083,-5.99146 4.415169,-13.32785 6.257997,-16.30341 3.238753,-5.22948 9.206139,-4.82857 12.122692,-3.61289 1.7408,0.72711 3.09709,2.29665 3.2064,3.71423 0.10418,1.35111 4.66369,18.80769 17.16613,39.45191 22.68168,37.45195 23.9869,23.15828 22.88208,27.66135 -0.60974,2.48258 -2.44077,23.27186 -2.53013,28.61343 -0.23216,13.86442 -2.72371,23.87987 -6.50915,26.16467 -4.75768,2.872 -13.77384,2.2392 -18.63317,-1.307 -4.06682,-2.9685 -11.01818,-13.50914 -15.06868,-22.84975 z"
       id="path4725"
       inkscape:connector-curvature="0"
       sodipodi:nodetypes="cccscsscccccc" />
    <path
       style="opacity:1;fill:#000000;fill-opacity:1;fill-rule:nonzero;stroke:none;stroke-width:5.9000001;stroke-miterlimit:4;stroke-dasharray:none;stroke-opacity:1"
       d="m 613.66621,913.67139 c -12.27959,6.22688 -19.49298,7.58273 -24.33618,4.57454 -1.40357,-0.87179 -4.25015,-4.5264 -6.32574,-8.12149 -2.39129,-4.14177 -2.71595,-10.43516 -3.86093,-10.2375 -5.36423,0.92609 4.1827,-2.23589 18.27992,-8.72336 17.93794,-8.25489 28.84711,-15.32343 47.93546,-31.05923 7.62488,-6.28572 9.34686,-9.41993 10.15927,-9.01035 0.75053,0.37828 7.85733,-1.13053 10.8881,-2.30111 21.44701,-8.28669 43.19128,-2.97471 39.15273,9.56484 -1.12702,3.49922 -3.54271,5.0752 -40.70446,26.55492 -21.72833,12.55958 -44.76315,25.5007 -51.18817,28.75874 z"
       id="path4727"
       inkscape:connector-curvature="0"
       sodipodi:nodetypes="sscsssccccs" />
  </g>
</svg>
