<?xml version="1.0" encoding="UTF-8" standalone="no"?>
<!-- Created with Inkscape (http://www.inkscape.org/) -->

<svg
   xmlns:dc="http://purl.org/dc/elements/1.1/"
   xmlns:cc="http://creativecommons.org/ns#"
   xmlns:rdf="http://www.w3.org/1999/02/22-rdf-syntax-ns#"
   xmlns:svg="http://www.w3.org/2000/svg"
   xmlns="http://www.w3.org/2000/svg"
   xmlns:sodipodi="http://sodipodi.sourceforge.net/DTD/sodipodi-0.dtd"
   xmlns:inkscape="http://www.inkscape.org/namespaces/inkscape"
   id="svg4155"
   version="1.1"
   inkscape:version="0.91 r13725"
   xml:space="preserve"
   width="3060"
   height="4080"
   viewBox="0 0 3060 4080"
   sodipodi:docname="SuperTeacher_Phase5_v3.svg"
   enable-background="new"
   inkscape:export-filename="/Users/larsaeschlimann/Desktop/SuperTeacher_Design/PNG/P5"
   inkscape:export-xdpi="350"
   inkscape:export-ydpi="350"><metadata
     id="metadata4161"><rdf:RDF><cc:Work
         rdf:about=""><dc:format>image/svg+xml</dc:format><dc:type
           rdf:resource="http://purl.org/dc/dcmitype/StillImage" /><dc:title /></cc:Work></rdf:RDF></metadata><defs
     id="defs4159"><marker
       inkscape:stockid="Arrow1Lstart"
       orient="auto"
       refY="0.0"
       refX="0.0"
       id="marker4962"
       style="overflow:visible"
       inkscape:isstock="true"><path
         id="path4964"
         d="M 0.0,0.0 L 5.0,-5.0 L -12.5,0.0 L 5.0,5.0 L 0.0,0.0 z "
         style="fill-rule:evenodd;stroke:none;stroke-width:1pt;stroke-opacity:1;fill:#000000;fill-opacity:1"
         transform="scale(0.8) translate(12.5,0)" /></marker><marker
       inkscape:stockid="Arrow1Lstart"
       orient="auto"
       refY="0.0"
       refX="0.0"
       id="Arrow1Lstart"
       style="overflow:visible"
       inkscape:isstock="true"><path
         id="path4692"
         d="M 0.0,0.0 L 5.0,-5.0 L -12.5,0.0 L 5.0,5.0 L 0.0,0.0 z "
         style="fill-rule:evenodd;stroke:none;stroke-width:1pt;stroke-opacity:1;fill:#000000;fill-opacity:1"
         transform="scale(0.8) translate(12.5,0)" /></marker><clipPath
       clipPathUnits="userSpaceOnUse"
       id="clipPath4171"><path
         d="m 0,0 2448,0 0,3264 L 0,3264 0,0 Z"
         id="path4173"
         inkscape:connector-curvature="0" /></clipPath><filter
       inkscape:collect="always"
       style="color-interpolation-filters:sRGB"
       id="filter4226"><feBlend
         inkscape:collect="always"
         mode="lighten"
         in2="BackgroundImage"
         id="feBlend4228" /></filter><filter
       inkscape:collect="always"
       style="color-interpolation-filters:sRGB"
       id="filter4682"><feBlend
         inkscape:collect="always"
         mode="lighten"
         in2="BackgroundImage"
         id="feBlend4684" /></filter></defs><sodipodi:namedview
     pagecolor="#ffffff"
     bordercolor="#666666"
     borderopacity="1"
     objecttolerance="10"
     gridtolerance="10"
     guidetolerance="10"
     inkscape:pageopacity="0"
     inkscape:pageshadow="2"
     inkscape:window-width="1440"
     inkscape:window-height="856"
     id="namedview4157"
     showgrid="false"
     showguides="true"
     inkscape:zoom="0.11334506"
     inkscape:cx="581.87572"
     inkscape:cy="2266.4843"
     inkscape:window-x="-4"
     inkscape:window-y="0"
     inkscape:window-maximized="0"
     inkscape:current-layer="layer1" /><g
     id="g4163"
     inkscape:groupmode="layer"
     inkscape:label="Hauptkörper"
     transform="matrix(1.25,0,0,-1.25,0,4080)"
     style="display:inline;opacity:1;filter:url(#filter4682)"><g
       id="g4165"
       style="fill:#000000;stroke:#000000;stroke-width:0.80000001;stroke-miterlimit:4;stroke-dasharray:none;stroke-opacity:1" /><path
       style="opacity:1;fill:#000000;fill-opacity:1;fill-rule:nonzero;stroke:#000000;stroke-width:0.89312637;stroke-miterlimit:4;stroke-dasharray:none;stroke-opacity:1"
       d="m 1482.0346,2898.2393 0,0 0,0 c -3.3777,-0.025 -12.2116,-7.027 -24.4894,-21.6914 -12.9736,-15.4954 -38.6905,-38.2567 -57.148,-50.582 -36.9458,-24.6723 -39.0184,-25.5455 -36.7786,-15.4884 2.651,11.9043 -13.0703,42.9189 -21.756,42.9189 -6.0576,0 -7.228,-3.3453 -4.3593,-12.4602 11.1497,-35.4262 22.7254,-98.6529 19.1272,-104.4749 -2.868,-4.6404 -11.2525,-0.532 -27.774,13.6098 -39.9726,34.215 -54.0574,23.1895 -16.6956,-13.069 20.7877,-20.1738 32.8736,-48.8598 25.5657,-60.6837 -5.404,-8.7442 -12.8436,-6.7408 -16.3832,4.4115 -3.7068,11.6793 -36.6654,46.786 -40.4088,43.0428 -3.1582,-3.1581 16.2381,-36.5135 21.2327,-36.5135 7.1643,0 17.2971,-33.2124 14.0633,-46.0972 -3.1965,-9.6725 4.3788,-14.5863 -7.8515,-24.7564 -16.8819,-14.0379 -55.991,-32.7732 -73.3741,-39.9046 l 8.2264,-20.7878 c 9.7867,4.1088 22.0234,9.7332 37.0334,16.9903 4.4077,2.1311 8.6823,4.1775 12.8578,6.1594 -1.4607,-10.0003 -2.552,-33.8607 -2.552,-41.2547 0,-17.5984 -9.4198,-27.247 -14.2673,-14.6145 -1.7121,4.4616 -7.9258,9.3697 -13.8068,10.9076 -17.689,4.6259 -12.767,-13.8696 8.5719,-32.2153 14.7162,-12.6519 19.2903,-20.9037 19.3818,-34.9558 0.066,-10.1167 3.6815,-21.9556 8.0347,-26.3088 12.6484,-12.6484 27.5062,-69.5838 19.4569,-74.5586 -3.6515,-2.2568 -4.9583,-6.8218 -2.9044,-10.1454 2.0541,-3.3235 1.1476,-10.8773 -2.0147,-16.7862 -6.77,-13.3158 11.4997,-32.2065 20.9623,-37.1136 7.1254,-3.5736 10.2367,-7.4047 6.9129,-8.5126 -4.1563,-1.3855 -4.4206,-7.6746 -0.8442,-20.1442 3.691,-12.8698 2.8837,-26.5255 -2.7841,-47.0688 -4.391,-15.9168 -20.3099,-78.7805 -35.3744,-139.6976 -51.3377,-157.1661 -92.7821,-342.6909 -171.639,-466.6009 -43.9375,-78.7267 -34.8425,-70.8249 -52.415,-106.0266 -7.2504,-14.5243 54.925,4.8015 61.619,-10.9823 10.986,26.2872 49.5102,104.7119 78.4584,160.6011 55.3764,106.9123 67.0071,136.4839 119.5359,303.9438 23.4079,74.6237 44.7705,137.9533 47.4735,140.7338 2.9151,2.9984 7.1998,-0.952 10.5292,-9.7093 20.5185,-53.9676 64.7947,-119.9494 80.4912,-119.9494 10.9517,0 7.239,17.6797 -6.9776,33.2272 -22.2887,24.3747 -45.4844,64.1993 -65.0272,111.6443 -17.5632,42.6391 -22.9865,60.0476 -14.515,60.1063 4.4375,0.03 12.687,-4.6993 25.0022,-13.0568 10.5219,-7.1377 34.9314,-16.1813 54.2418,-20.0901 33.6801,-6.8173 123.153,-45.2275 145.5063,-62.4647 10.1754,-7.8465 9.369,-8.8552 -16.0414,-20.0953 -32.3028,-14.2892 -111.1385,-83.0102 -103.7282,-90.4204 3.1296,-3.1297 20.9946,6.8093 46.0099,25.5989 44.5437,33.4577 54.739,37.0494 54.739,19.2859 0,-37.3193 -60.428,-181.1297 -155.8716,-370.9527 -33.0591,-65.7493 -60.1081,-121.1972 -60.1081,-123.2183 0,-2.0209 3.693,-3.6737 8.2056,-3.6737 10.764,0 169.2649,321.6716 194.3666,394.4601 10.2194,29.6329 21.3916,70.0231 24.828,89.7557 5.581,32.0483 8.2489,37.0573 24.9953,46.938 15.4225,9.0995 21.7126,10.0286 35.4686,5.2332 16.6427,-13.3121 33.4075,-29.6829 31.8892,-42.0764 -2.7678,-21.9949 -26.2072,-112.6407 -41.1833,-159.2661 -8.1038,-25.2296 -44.1955,-107.5821 -85.2936,-194.6195 -8.8349,-18.7107 -16.0623,-35.4439 -16.0623,-37.1851 0,-1.7411 -13.7067,-26.9064 -30.4588,-55.9234 -16.7524,-29.017 -30.4587,-56.5175 -30.4587,-61.1129 0,-18.6152 12.2276,-5.7821 40.8449,42.8701 47.6633,81.0334 125.6239,266.7251 156.2238,372.1041 10.1207,34.8532 20.6984,61.2384 24.5505,61.2384 3.7223,0 11.2119,-11.2139 16.6432,-24.9203 9.8998,-24.9825 14.0995,-27.2187 37.2496,-19.8389 9.1955,2.9312 12.4602,1.7686 12.4602,-4.4378 0,-16.8678 -15.9042,-68.8446 -29.1679,-95.322 -7.4821,-14.9362 -17.9152,-40.8631 -23.1846,-57.6154 -10.2989,-32.7416 -94.6009,-207.7803 -120.3175,-249.8189 -8.5906,-14.0433 -15.6191,-30.8641 -15.6191,-37.3805 0,-11.2139 -2.6257,-11.8479 -49.0854,-11.8479 -26.997,0 -62.3606,2.5175 -78.5846,5.5943 -16.2241,3.0768 -54.0084,6.8518 -83.9662,8.3888 -45.3117,2.3248 -55.0108,1.3841 -57.6886,-5.5943 -2.018,-5.2588 -9.7142,-8.1412 -20.6256,-7.7241 -20.0909,0.7672 -271.9582,33.4953 -308.1332,40.0787 0.1274,-1.3332 0.2836,-2.8508 0.5129,-4.79 0.848,-7.1728 -0.2006,-15.4379 -0.2006,-15.4379 65.424,-8.6376 297.0136,-36.8148 308.4139,-35.9882 26.4165,1.9154 26.6912,1.2651 20.0152,-47.4421 l -3.522,-25.6931 -39.437,0 c -14.6095,0 -274.754,28.3477 -310.7584,32.3651 0.2429,-2.1034 0.5589,-4.1697 1.2071,-6.3757 1.063,-3.6185 2.5022,-7.1246 4.1552,-10.5326 8.5751,-0.8795 243.9225,-27.1905 250.8089,-27.6762 65.2006,-4.5984 95.5297,-8.7881 95.5297,-13.1946 0,-14.5575 18.4386,-20.104 76.0012,-22.8636 83.3325,-3.9951 84.224,-3.9211 100.6686,8.2369 13.9312,10.2997 19.0608,10.5843 95.2627,5.3013 l 62.6183,-4.3418 c 12.5373,0.1273 22.5043,-1.9464 35.8245,-1.1583 -1.8148,93.4191 -5.1231,175.3576 -7.5654,180.8755 -3.3301,7.5241 -1.8253,12.5543 5.3221,17.7805 19.9878,28.3188 23.363,48.8514 39.1126,80.125 10.7211,21.2893 33.4095,77.8778 50.4199,125.7529 17.0104,47.8752 35.371,95.7823 40.7994,106.46 5.4285,10.6776 12.7172,29.9912 16.1984,42.9189 8.6771,32.716 5.7577,55.9529 17.8102,84.2975 18.6109,31.5585 47.1125,43.4052 80.8524,45.8756 63.765,4.4946 102.5606,21.2366 143.106,61.7583 40.6068,40.5831 52.3665,74.0542 41.3664,117.7392 -9.5271,37.836 -26.4956,68.9885 -47.7404,87.6485 -18.2541,16.0332 -18.7911,17.6441 -15.3907,46.1181 3.1962,26.769 4.6016,29.1726 15.1604,25.9216 29.4596,-9.0706 91.7657,-19.4151 116.8583,-19.4028 49.7369,0.026 85.7789,34.5505 85.8168,82.2113 0.017,19.8968 -3.1097,27.1427 -17.9776,41.6437 -9.8991,9.6548 -24.0102,21.4032 -31.3588,26.1065 -12.3288,7.8907 2e-4,-6e-4 -8.2789,6.2937 l 10.9147,57.3049 -179.7993,17.4683 -141.7507,15.8199 c -77.6788,8.6688 -204.1297,9.498 -255.6574,16.7949 l -23.066,3.2673 -6.2222,35.7337 c -3.4226,19.6539 -5.8018,57.163 -5.2855,83.3538 0.8858,44.9866 1.4354,46.9871 9.9063,36.1734 21.484,-27.4249 190.253,-58.358 247.9054,-45.4378 20.9271,4.6898 37.3612,3.9953 77.8224,-3.2899 49.1103,-8.8425 151.5373,-21.7368 145.1451,-11.3944 -1.638,2.6506 -102.898,26.681 -128.1042,36.6496 -42.4491,16.7881 -94.3253,44.4614 -134.4365,71.7135 -32.2408,21.905 -33.3703,11.9677 -3.0055,-26.4466 18.2025,-23.0281 27.1163,-29.2363 52.6106,-36.6479 16.8821,-4.9077 30.6943,-9.6783 30.6943,-10.6006 0,-0.9223 -31.7746,-1.0852 -70.6093,-0.3628 -85.8227,1.5963 -117.4905,10.4514 -218.6467,61.1408 -38.8026,19.444 -73.2607,35.3534 -76.5734,35.3534 -12.9575,0 -1.1778,-19.7821 22.5026,-37.7869 30.8151,-23.4294 34.0276,-34.5198 35.1197,-121.2576 l 0.853,-67.6665 -38.7655,2.7579 c -21.321,1.5171 -53.7192,5.1596 -71.9944,8.0939 -61.3461,9.8501 -140.5817,3.9736 -161.1081,-11.9473 -9.2266,-7.1563 -13.6627,0.8686 -7.1782,12.9852 3.1724,5.9275 9.2343,9.4463 13.472,7.8201 11.9484,-4.585 16.2787,7.6607 14.4505,40.864 -1.0741,19.5087 1.3682,36.3112 6.7926,46.7392 5.7409,11.0359 7.414,23.9712 5.1965,40.1505 -2.5903,18.8978 -1.5561,23.8685 4.9628,23.8685 11.7967,0 76.2689,50.6512 94.7342,74.426 13.1194,16.8915 16.2987,25.8243 12.4707,25.796 z m -85.3424,-280.2254 c 2.7483,-0.018 4.6616,-0.5624 5.7338,-1.6345 2.8196,-2.8196 -3.1841,-16.8729 -14.2063,-33.2515 -33.1915,-49.3223 -46.8689,-113.0443 -35.7896,-166.732 7.5403,-36.5396 -3.2975,-42.3316 -17.8119,-9.5191 -6.3683,14.3964 -12.0308,32.9072 -12.5841,41.1343 -0.553,8.2288 -4.1209,18.2512 -7.9282,22.2759 -6.5965,6.9735 -10.2584,43.8692 -8.2056,82.6735 0.5556,10.5014 -1.437,23.2737 -4.3139,29.8761 50.0276,23.4084 82.0416,35.2626 95.1058,35.1773 z m 141.0599,-10.0023 c 19.5905,-0.01 48.5751,-2.7586 63.8463,-7.1537 12.9775,-3.735 17.2986,-68.2662 5.2471,-78.3562 -4.5474,-3.8074 -16.5148,-6.9217 -26.5932,-6.9217 -15.1795,0 -18.4001,2.1382 -18.7679,12.4602 -0.7405,20.7834 -18.4796,67.7937 -25.8604,68.5317 -3.8074,0.3807 -9.4143,1.0044 -12.4602,1.3851 -3.0459,0.3807 -5.5385,3.4739 -5.5385,6.8746 0,2.2035 8.3725,3.1853 20.1268,3.18 z m -72.5282,-1.5996 c 11.8628,-0.1689 23.1363,-4.8289 33.1679,-13.8696 6.8152,-6.142 15.809,-8.9178 22.895,-7.0648 9.7811,2.5578 13.238,-1.0528 21.353,-22.302 6.2316,-16.3174 8.6216,-33.2649 6.7054,-47.5502 l -2.9759,-22.1974 28.547,0.077 c 15.7008,0.041 34.4468,1.6545 41.6577,3.5847 12.9217,3.4586 13.0548,4.2154 9.2748,52.5339 l -3.8341,49.026 32.259,0.1413 c 17.7424,0.078 70.2687,-6.7603 117.2158,-9.6063 l 80.0622,-4.8529 -14.4035,-154.3503 c -1.432,-15.3453 38.9728,-16.9672 65.5262,-17.3236 143.1939,-2.5421 149.8592,-10.7335 140.4965,-50.5244 -7.8662,-33.4307 -7.4299,-34.2819 -28.062,-37.7677 -30.49,-5.1512 -54.1633,4.9375 -84.9691,36.2135 -29.2925,29.7397 -38.165,10.3883 -37.6421,-1.3118 49.8572,-45.8491 74.1625,-54.2858 163.8137,-68.6033 13.4919,-4.0731 41.7784,-55.258 45.9645,-83.1741 8.685,-57.9151 -46.9675,-114.9905 -134.3038,-137.7386 -37.7572,-9.8347 -88.2507,-9.6975 -191.3698,0.5216 -81.9613,8.1223 -70.1234,4.0302 -195.626,67.6317 -24.5546,12.4417 -66.4294,28.0856 -93.0631,34.7656 -77.5696,19.4551 -98.1591,41.458 -82.0473,87.6764 4.7521,13.6315 3.1901,17.0232 -14.9389,32.4578 -11.1348,9.4797 -28.924,23.0713 -39.533,30.2041 -24.7493,16.6395 -27.3896,32.4083 -6.9951,41.7763 9.5549,4.389 16.01,4.9662 17.1544,1.5333 1.0089,-3.027 9.8783,-14.5434 19.7098,-25.5919 14.357,-16.134 22.915,-20.6555 43.4806,-22.9736 24.7264,-2.787 26.5377,-1.9551 52.738,24.2453 14.9226,14.9226 28.4411,32.1401 30.0419,38.2613 3.8517,14.7288 -4.0141,35.0266 -15.2442,39.336 -9.0917,3.4889 -21.6889,-9.2098 -14.5115,-14.6284 11.3585,-8.5758 5.7499,-27.4604 -13.0603,-43.9761 -16.8588,-14.8022 -23.8652,-17.3991 -43.1387,-15.9943 -21.0851,1.5369 -24.0523,3.7431 -35.4704,26.3857 -10.3827,20.5897 -12.4602,33.7209 -12.4602,78.7573 0,45.9019 2.1301,58.8641 14.1279,85.993 16.5569,37.4386 31.9405,55.6163 55.6092,65.7094 7.4012,3.156 14.7309,4.6716 21.8485,4.5703 z m 420.4498,-25.8605 129.5782,-13.3062 -12.6136,-128.666 -129.3167,3.9859 z m 178.3932,-21.9654 c 4.4851,0.02 9.8365,-2.1028 15.764,-6.4769 7.3054,-5.3908 9.1203,-9.9375 5.432,-13.6132 -3.0459,-3.0354 -12.5888,-7.2611 -21.2047,-9.39 -14.7033,-3.633 -15.5525,-2.8932 -13.8435,12.0223 1.3107,11.439 6.3771,17.4245 13.8522,17.4578 z m 52.8567,-4.2406 82.4763,-8.7585 -6.1472,-22.1538 c -0.7146,-5.5409 -69.0748,10.9707 -80.1546,13.1719 z m -19.9733,-43.8888 c 1.2356,0.01 2.4825,0.01 3.74,0 22.8043,-0.159 49.0213,-3.1403 71.0437,-8.7829 56.6807,-14.523 76.4277,-31.0089 76.7216,-64.0435 0.1951,-21.922 -13.8698,-39.0264 -40.3354,-49.0539 -8.5744,-3.2488 -21.0335,-5.7066 -27.6887,-5.467 -32.2253,1.1796 -84.888,17.5368 -114.683,35.6361 -29.3288,17.8164 -33.0883,22.1072 -33.0213,37.7015 0.1224,28.4442 5.4844,40.7514 20.7966,47.7282 8.9811,4.092 24.8932,6.1552 43.4265,6.2815 z M 1365.063,2289.033 c 3.7885,0.024 9.0978,-2.4461 15.8878,-7.4311 8.4105,-6.1746 8.6488,-9.6087 2.2119,-31.7967 -4.5683,-15.7475 -8.7753,-22.352 -11.4658,-17.9987 -7.5751,14.4145 -10.4243,23.5843 -12.823,36.3985 -2.2419,13.8149 -0.1307,20.7871 6.1891,20.828 z m 349.9066,-237.1321 38.3905,-3.6266 c 21.1154,-1.9941 52.6595,-5.0626 70.0964,-6.8188 l 31.7025,-3.1922 -9.5504,-12.8788 c -5.2537,-7.0835 -22.1339,-20.5535 -37.5113,-29.932 -15.3774,-9.3785 -30.9213,-17.0514 -34.5424,-17.0514 -3.6212,0 -12.7525,9.345 -20.2908,20.767 -7.5381,11.4221 -19.2378,27.9602 -26.0001,36.7507 z m -45.4605,-544.3692 c 4.859,-0.1397 8.715,-4.8425 8.715,-13.7005 0,-11.0758 -2.7675,-13.8435 -13.8435,-13.8435 -15.4927,0 -16.2983,1.6839 -8.1131,16.9782 3.8862,7.2613 8.9544,10.689 13.2416,10.5658 z m -304.8857,-32.1822 c 37.7491,0.1881 131.9665,-5.991 136.1912,-10.0407 5.8944,-5.6502 -10.5362,-21.599 -27.1653,-26.3682 -12.3644,-3.5461 -23.8966,-2.967 -37.2828,1.8735 -17.5338,6.3403 -20.3996,5.9135 -30.0889,-4.4866 -10.5931,-11.3704 -10.5878,-11.6182 0.478,-22.684 12.355,-12.3551 19.8433,-14.0457 25.0319,-5.65 1.8826,3.0457 14.4901,5.5383 28.0166,5.5383 l 24.5942,0 0,-22.1519 0,-22.152 -29.0755,0.7292 c -40.291,1.0085 -104.1161,8.7748 -108.5044,13.2032 -5.4301,5.4798 -3.2319,85.6645 2.4927,90.9367 0.897,0.8259 6.6009,1.2091 15.3123,1.2525 z m 264.552,-10.189 c 14.4368,0 25.8955,-0.2962 30.8896,-0.8792 l 18.1591,-2.1194 0,-40.9286 c 0,-35.6891 -1.2391,-40.7912 -9.6901,-39.868 -5.3302,0.5824 -41.2693,2.4512 -79.8632,4.1534 -38.5941,1.7022 -71.7669,4.7013 -73.7179,6.6653 -1.951,1.9644 -1.8556,18.5204 0.2111,36.791 l 3.7574,33.2183 61.4914,2.1054 c 16.9099,0.5782 34.3258,0.8648 48.7626,0.8618 z"
       id="path4308"
       inkscape:connector-curvature="0"
       sodipodi:nodetypes="cccsccssssscssscsccscsssscssccccscccccssccscsccssscssssssssccsssssssssssssssssscccscsccsccccsssscccccsscccssscsccsscccscccccsscssssssssscccsscssccssccsssssccscssscsssssscssscccsccsscscsssccssscssssscssscccssssssscscccsccssscccccccssscssscccsccccscccsssscssscsscsscscsccccscscccssscscccc" /><path
       style="opacity:1;fill:#000000;fill-opacity:1;fill-rule:nonzero;stroke:#000000;stroke-width:0.89312637;stroke-miterlimit:4;stroke-dasharray:none;stroke-opacity:1"
       d="m 1978.4349,2637.6687 c -21.3435,8.5671 -114.3492,12.9884 -133.4142,6.3423 -17.012,-5.9305 -23.8573,-0.4372 -10.3493,8.3053 3.8072,2.4641 40.2535,8.3026 80.9917,12.9745 69.7359,7.9971 75.3595,7.9164 96.1235,-1.3798 15.9864,-7.1574 21.1289,-12.2854 18.6909,-18.6386 -1.8498,-4.8204 -3.3632,-9.8066 -3.3632,-11.0804 0,-4.2449 -35.8148,-1.6869 -48.6794,3.4767 z"
       id="path4310"
       inkscape:connector-curvature="0" /><path
       style="opacity:1;fill:#000000;fill-opacity:1;fill-rule:nonzero;stroke:#000000;stroke-width:0.89312637;stroke-miterlimit:4;stroke-dasharray:none;stroke-opacity:1"
       d="m 2224.6357,2595.9208 c -33.8204,12.7766 -144.952,21.3684 -121.5475,57.992 60.5618,-4.7583 111.6918,-29.1482 149.9247,-48.1522 7.5191,-3.4259 12.3563,-8.3566 10.7491,-10.9571 -4.1301,-6.6824 -32.1261,-5.883 -39.1263,1.1173 z"
       id="path4312"
       inkscape:connector-curvature="0"
       sodipodi:nodetypes="cccsc" /><path
       style="opacity:1;fill:#000000;fill-opacity:1;fill-rule:nonzero;stroke:#000000;stroke-width:0.89312637;stroke-miterlimit:4;stroke-dasharray:none;stroke-opacity:1"
       d="m 2373.2347,2632.6127 c -49.5845,11.5549 -63.863,16.6484 -60.7576,21.6734 1.7947,2.9037 -1.808,5.2795 -8.0059,5.2795 -15.0517,0 -43.5049,17.7962 -40.8815,25.5696 3.0805,9.1276 -26.1084,13.2461 -52.2504,7.3723 -30.125,-6.7685 -75.8365,2.1057 -100.9832,19.6046 -54.5489,37.959 -99.8556,89.3977 -99.8556,113.3706 0,14.4947 17.2215,2.9054 41.3842,-27.8499 55.9964,-71.2743 90.8819,-92.9019 138.3661,-85.7813 13.8341,2.0746 25.153,5.7752 25.153,8.2237 0,2.4485 -5.1666,11.0199 -11.4812,19.0476 -6.3145,8.0278 -10.6756,18.452 -9.6914,23.1652 1.3515,6.4704 6.6959,3.9296 21.8217,-10.3744 46.4895,-43.9638 128.0158,-90.4599 168.2918,-95.9804 34.2753,-4.6979 32.8067,3.8951 -9.2474,54.1059 -18.7737,22.4149 -39.7293,53.2479 -46.568,68.5179 -33.0849,73.8742 -112.5324,249.6753 19.1881,16.6027 14.2682,-25.2467 38.9725,-67.4439 57.7789,-92.2385 18.8065,-24.7948 36.5411,-48.2223 39.4102,-52.0611 3.4028,-4.5529 2.6857,-10.0298 -2.0625,-15.751 -8.0789,-9.7345 -34.4854,-10.6816 -69.6093,-2.4964 z"
       id="path4314"
       inkscape:connector-curvature="0"
       sodipodi:nodetypes="scssssssssscsssssssss" /><path
       style="opacity:1;fill:#000000;fill-opacity:1;fill-rule:nonzero;stroke:#000000;stroke-width:1;stroke-miterlimit:4;stroke-dasharray:none;stroke-opacity:1"
       d=""
       id="path4316"
       inkscape:connector-curvature="0"
       transform="matrix(0.8,0,0,-0.8,0,3264)" /><path
       style="opacity:1;fill:#000000;fill-opacity:1;fill-rule:nonzero;stroke:#000000;stroke-width:0.89312637;stroke-miterlimit:4;stroke-dasharray:none;stroke-opacity:1"
       d="m 1867.3842,2906.3 c -59.0591,23.8252 -133.78,76.7539 -133.78,94.7634 0,11.2657 3.7634,9.4461 37.7544,-18.2526 34.7995,-28.3577 109.017,-67.5612 115.5447,-61.0336 2.2907,2.2908 -0.2981,16.7311 -5.753,32.0896 -10.9358,30.7905 -7.9255,41.5343 6.51,23.2342 12.7866,-16.2096 52.275,-35.1012 73.3707,-35.1012 14.4705,0 16.7298,1.6441 13.3175,9.6913 -20.3466,47.9844 -23.6854,67.8397 -11.4071,67.8397 4.8033,0 9.259,-8.5169 11.55,-22.0779 2.0515,-12.1427 9.8694,-31.1245 17.373,-42.1818 12.8896,-18.9939 13.1249,-20.6764 4.2621,-30.4698 -7.5016,-8.2892 -13.935,-9.65 -32.1155,-6.7929 -12.504,1.9651 -28.4195,7.2586 -35.3678,11.7634 -17.4133,11.2895 -21.5008,4.5577 -10.8257,-17.8284 12.717,-26.6677 4.079,-27.6343 -50.4333,-5.6434 z"
       id="path4318"
       inkscape:connector-curvature="0" /><path
       style="opacity:1;fill:#000000;fill-opacity:1;fill-rule:nonzero;stroke:#000000;stroke-width:0.89312637;stroke-miterlimit:4;stroke-dasharray:none;stroke-opacity:1"
       d="m 2323.3933,2877.2878 c -9.1375,6.9829 -36.5503,24.9468 -60.9172,39.92 -58.3698,35.8675 -85.8583,61.8927 -105.5967,99.9759 -8.9307,17.2308 -18.5139,35.5955 -21.2959,40.8102 -7.9971,14.9899 -60.8584,36.996 -138.9278,57.8353 -95.5263,25.4991 -162.8463,53.7226 -151.413,65.1559 4.9046,4.9045 225.9034,-61.5701 262.822,-78.2932 35.4026,-16.0364 52.4386,-34.9834 79.6554,-88.5912 21.5051,-42.3578 74.1909,-89.7032 128.853,-115.7923 26.5951,-12.6933 48.3546,-25.5 48.3546,-28.4591 0,-9.8514 -24.6973,-5.4283 -41.5344,7.4385 z"
       id="path4320"
       inkscape:connector-curvature="0"
       sodipodi:nodetypes="sssssssssss" /><path
       style="opacity:1;fill:#000000;fill-opacity:1;fill-rule:nonzero;stroke:#000000;stroke-width:0.89312637;stroke-miterlimit:4;stroke-dasharray:none;stroke-opacity:1"
       d="m 1744.2943,3151.7203 c 9.3968,17.5582 89.5689,45.0857 130.527,44.8171 20.6772,-0.1355 21.4361,-0.6865 11.4019,-8.2761 -5.9125,-4.4718 -17.1376,-8.1306 -24.9447,-8.1306 -12.3554,0 -47.1124,-11.1495 -101.7297,-32.6333 -20.7148,-8.1482 -21.7256,-7.8684 -15.2545,4.2229 z"
       id="path4322"
       inkscape:connector-curvature="0" /><path
       style="opacity:1;fill:#000000;fill-opacity:1;fill-rule:nonzero;stroke:#000000;stroke-width:1;stroke-miterlimit:4;stroke-dasharray:none;stroke-opacity:1"
       d=""
       id="path4324"
       inkscape:connector-curvature="0"
       transform="matrix(0.8,0,0,-0.8,0,3264)" /><path
       style="opacity:1;fill:#000000;fill-opacity:1;fill-rule:nonzero;stroke:#000000;stroke-width:0.89312637;stroke-miterlimit:4;stroke-dasharray:none;stroke-opacity:1"
       d="m 1428.7286,2996.8378 c 10.1262,18.921 59.2819,50.273 131.5226,83.8862 38.9957,18.1445 80.0875,37.9484 91.315,44.0085 11.2276,6.0602 24.0541,9.6215 28.5035,7.9141 9.8319,-3.7729 33.5436,20.1733 48.584,49.0641 13.0451,25.0581 20.2975,23.234 17.0835,-4.2968 -1.2844,-11.0016 10.0354,-26.4996 8.4035,-24.8679 -1.6317,1.6317 -19.411,7.5705 -22.758,3.6247 -18.2488,-21.5125 -77.4417,-66.5571 -79.4693,-60.4743 -3.0581,9.1741 -25.8204,3.2352 -49.6932,-12.9653 -10.229,-6.9416 -31.5784,-16.8668 -47.4433,-22.0561 -33.2126,-10.8637 -65.8789,-26.5353 -76.7241,-36.8086 -12.0461,-11.4108 -47.9914,-37.5631 -51.6289,-37.5631 -1.8333,0 -0.7963,4.7404 2.3047,10.5345 z"
       id="path4326"
       inkscape:connector-curvature="0"
       sodipodi:nodetypes="ssssssccssssss" /><path
       style="opacity:1;fill:#000000;fill-opacity:1;fill-rule:nonzero;stroke:#000000;stroke-width:0.89312637;stroke-miterlimit:4;stroke-dasharray:none;stroke-opacity:1"
       d="m 1357.9776,2825.495 c -0.975,0.9926 16.6314,65.3385 18.7888,73.5923 4.8256,18.4795 28.3295,81.6971 32.1368,86.4375 1.5289,1.9037 6.0538,3.4421 10.0555,3.4188 4.0561,-0.024 5.914,-0.9426 4.1987,-2.0768 -1.6923,-1.1188 -3.9152,-7.7264 -4.9399,-14.6834 -2.2517,-15.2885 -14.0909,-41.0063 -28.9504,-62.8878 -6.0297,-8.8792 -26.0778,-96.3363 -11.9186,-22.4845 -0.5256,-3.4872 -18.396,-62.3089 -19.3709,-61.3161 z"
       id="path4328"
       inkscape:connector-curvature="0"
       sodipodi:nodetypes="ccccscscc" /><path
       style="opacity:1;fill:#000000;fill-opacity:1;fill-rule:nonzero;stroke:#000000;stroke-width:0.89312637;stroke-miterlimit:4;stroke-dasharray:none;stroke-opacity:1"
       d="m 1402.3811,2421.8727 c -1.9033,3.5191 -4.001,16.4502 -4.6614,28.7358 -1.0624,19.7607 -0.3693,24.0952 6.0064,37.5725 10.0823,21.3122 28.3088,45.9728 37.4857,50.7183 6.7811,3.5066 8.4655,3.4859 13.6837,-0.1691 7.2067,-5.0479 7.654,-13.1447 1.1051,-20.0095 -7.3062,-7.6586 -12.1529,-16.9785 -10.3481,-19.8987 0.8842,-1.4306 13.9489,-8.9405 29.0326,-16.6884 42.5836,-21.8736 47.5573,-27.2742 35.4804,-38.5254 -8.8956,-8.2878 -13.5652,-7.0673 -27.2832,7.1307 -15.2143,15.7467 -25.6925,20.4509 -45.5518,20.4509 -14.2341,0 -15.6047,-0.5703 -18.2966,-7.6145 -1.6004,-4.1881 -2.5041,-16.337 -2.0082,-26.9975 0.8438,-18.1401 0.5142,-19.4379 -5.1412,-20.243 -4.0276,-0.5734 -7.1968,1.2734 -9.5034,5.5379 z"
       id="path4332"
       inkscape:connector-curvature="0" /><path
       style="opacity:1;fill:#000000;fill-opacity:1;fill-rule:nonzero;stroke:#000000;stroke-width:0.89312637;stroke-miterlimit:4;stroke-dasharray:none;stroke-opacity:1"
       d="m 1457.4921,1541.3334 c -1.9751,1.1174 -6.0246,5.5719 -8.9991,9.8987 -5.0524,7.3498 -5.3957,8.4789 -5.2219,17.1747 0.2342,11.7121 3.0998,17.9899 12.3808,27.1226 13.0792,12.8706 26.6152,16.358 40.1876,10.3544 3.6725,-1.6246 7.7549,-3.9291 9.0723,-5.1212 3.4546,-3.1264 6.8786,-19.3595 5.361,-25.4162 -3.3095,-13.2083 -4.3217,-14.996 -12.1782,-21.5105 -14.4505,-11.9822 -31.981,-17.3803 -40.6025,-12.5025 z m 21.9611,27.8488 c 6.5213,2.7248 11.4103,7.2861 10.461,9.76 -0.4046,1.0542 -3.0735,2.6172 -5.931,3.4734 -4.2601,1.2762 -6.0415,1.1498 -9.8942,-0.7028 -6.0686,-2.918 -11.4365,-10.317 -9.3281,-12.8574 2.0217,-2.436 8.4208,-2.2937 14.6923,0.3268 z"
       id="path4334"
       inkscape:connector-curvature="0" /><path
       style="opacity:1;fill:#000000;fill-opacity:1;fill-rule:nonzero;stroke:#000000;stroke-width:0.89312637;stroke-miterlimit:4;stroke-dasharray:none;stroke-opacity:1"
       d="m 1544.1522,1728.1175 c -9.2899,4.3106 -11.4021,7.8037 -12.4699,20.6229 -0.9173,11.0119 -0.7281,12.3713 2.8249,20.2881 3.2041,7.1399 5.1083,9.3537 12.0071,13.9607 8.2334,5.498 15.6727,7.9062 20.1523,6.5232 10.1797,-3.1427 21.6833,-7.9636 22.6531,-9.4935 0.6436,-1.0153 1.1798,-6.1162 1.1915,-11.335 0.019,-8.2739 -0.6305,-10.7288 -5.068,-19.1735 -5.5164,-10.4976 -10.8016,-16.5567 -17.4339,-19.9864 -5.8837,-3.0427 -18.7022,-3.7983 -23.8571,-1.4065 z m 21.9629,28.0924 c 4.5906,4.5906 4.8483,8.8221 0.535,8.7799 -5.5696,-0.055 -14.8832,-5.119 -14.8832,-8.0934 0,-5.4282 9.1679,-5.8668 14.3482,-0.6865 z"
       id="path4336"
       inkscape:connector-curvature="0" /><path
       style="opacity:1;fill:#000000;fill-opacity:1;fill-rule:nonzero;stroke:#000000;stroke-width:0.89312637;stroke-miterlimit:4;stroke-dasharray:none;stroke-opacity:1"
       d="m 1617.0137,1891.1141 c -5.3998,2.1615 -13.9516,9.5885 -16.3246,14.1776 -1.7342,3.3538 -2.0468,6.7508 -1.428,15.5201 0.9325,13.2151 2.4096,16.9303 9.9089,24.9253 7.287,7.7687 26.3516,20.0464 31.0353,19.9869 5.5263,-0.07 9.8719,-4.6322 12.1272,-12.7314 2.8139,-10.1054 2.4634,-19.2376 -1.1486,-29.9311 -2.6194,-7.7547 -4.4721,-10.4234 -12.481,-17.9786 -5.1729,-4.8798 -9.4051,-9.6313 -9.4051,-10.5591 0,-0.9277 -1.5868,-2.4097 -3.5264,-3.2935 -4.086,-1.8617 -4.387,-1.8657 -8.7577,-0.1162 z m 12.7626,33.3363 c 5.7844,3.9517 7.7988,6.5583 6.8931,8.9189 -1.1438,2.9806 -6.1778,2.3166 -11.8959,-1.569 -5.6344,-3.8286 -6.5089,-6.6455 -2.7443,-8.8382 3.1738,-1.8485 2.7417,-1.9315 7.7471,1.4883 z"
       id="path4338"
       inkscape:connector-curvature="0" /><path
       style="opacity:1;fill:#000000;fill-opacity:1;fill-rule:nonzero;stroke:#000000;stroke-width:3.21525478;stroke-miterlimit:4;stroke-dasharray:none;stroke-opacity:1"
       d="m 2142.6916,2648.6475 c -4.8459,1.1046 -8.9598,2.121 -9.1418,2.2585 -0.182,0.1376 1.288,7.4435 3.2667,16.2355 1.9787,8.7919 4.1522,18.744 4.8299,22.1159 0.6778,3.3718 1.4105,6.2645 1.6282,6.4283 0.2178,0.1638 4.9115,-0.7809 10.4305,-2.0993 l 10.0345,-2.397 0,-7.5101 c 0,-5.9232 -0.692,-9.5677 -3.2745,-17.2475 -1.801,-5.3556 -3.8273,-12.0502 -4.5031,-14.877 -1.4121,-5.9078 -0.7467,-5.7621 -13.2704,-2.9073 z"
       id="path4437"
       inkscape:connector-curvature="0" /><path
       style="opacity:1;fill:#000000;fill-opacity:1;fill-rule:nonzero;stroke:#000000;stroke-width:5.26944542;stroke-miterlimit:4;stroke-dasharray:none;stroke-opacity:1"
       d="m 2118.7067,2588.6128 c 0,2.4002 6.0969,29.9947 6.7819,30.6947 0.4269,0.4362 5.4677,-0.6651 11.2018,-2.4475 8.2584,-2.5669 10.2883,-3.5458 9.7644,-4.709 -0.518,-1.15 -4.4624,-13.034 -7.7173,-23.2507 -0.4743,-1.4888 -20.0308,-1.7695 -20.0308,-0.2875 z"
       id="path4439"
       inkscape:connector-curvature="0" /><path
       style="display:inline;opacity:1;fill:#000000;fill-rule:evenodd;stroke:#000000;stroke-width:1.34035265px;stroke-linecap:butt;stroke-linejoin:miter;stroke-opacity:1;filter:url(#filter4226)"
       d="m 2120.9392,915.08543 c 0,0 -39.6374,-2.70104 -40.566,26.81402 -1.0739,34.13252 63.5771,33.76115 66.9467,16.7544 8.7867,-44.34492 -26.3807,-43.56842 -26.3807,-43.56842 z"
       id="path4234"
       inkscape:connector-curvature="0"
       sodipodi:nodetypes="cssc"
       transform="matrix(0.89312636,0,0,-0.89312636,59.11689,3346.5416)" /><path
       style="opacity:1;fill:#000000;fill-opacity:1;fill-rule:nonzero;stroke:none;stroke-width:5.9000001;stroke-miterlimit:4;stroke-dasharray:none;stroke-opacity:1"
       d="m 1824.0915,2078.7418 c -6.1246,0 -7.3767,-13.6216 -6.9967,-76.1181 0.5752,-94.5488 12.3479,-162.6773 39.6656,-229.5597 23.1164,-56.596 22.5732,-54.479 13.0446,-50.8227 -3.9582,1.519 -8.4503,-0.5037 -9.9814,-4.4935 -1.7089,-4.4534 35.0188,-46.6299 95.1267,-109.2423 32.8981,-34.2689 116.7331,-75.147 149.5342,-98.5376 49.5321,-47.2113 -41.1216,-133.6542 -60.096,-165.1073 -46.9719,-74.492 -71.3778,-99.8005 -113.979,-75.8138 -34.6748,21.0644 -115.9919,113.7027 -186.1969,184.4996 -50.3107,50.7344 -68.6779,66.2366 -73.1632,61.7513 -4.4853,-4.4853 -3.0952,-9.0703 5.5385,-18.2603 6.34,-6.7487 10.3429,-13.4554 8.8946,-14.904 -1.4484,-1.4482 -3.3059,-39.0682 -4.1272,-83.6015 -17.0592,-186.6632 -77.7751,-350.7409 -139.0905,-390.4445 -16.7944,-14.84158 -19.2429,1.2872 -63.3439,78.4242 -42.9433,71.7267 -66.513,79.398 -72.8597,73.0514 -6.1482,-6.1484 17.0521,-33.8278 61.7026,-94.0714 48.6417,-94.68778 72.0092,-143.83048 98.9818,-244.32238 l 50.5802,-218.54547 c 54.5571,-235.72535 74.9916,-301.53241 64.9644,-325.53063 -65.9821,-56.17309 -144.4185,-36.9498 -233.4444,-42.22809 -67.7803,-4.06211 -126.0494,-31.91649 -141.4418,-1.4357 -12.5822,24.91573 -15.7764,163.33352 -44.2883,259.95908 -11.9275,40.42129 -26.2121,88.84776 -31.7443,107.61476 -10.8293,60.97168 -35.6054,113.94872 -71.5705,157.64725 -23.6184,28.8847 -45.79,58.1538 -76.3361,89.972 -53.2647,59.2653 -102.9277,103.4543 -129.34983,142.4136 -46.1544,51.99548 -65.61268,108.38538 -70.28311,164.73988 -2.27249,-14.2126 -8.57958,-23.0704 -15.83032,-26.9926 4.55987,-29.5451 13.05739,-59.4275 27.09732,-88.6724 C 940.67482,945.17682 954.4089,959.29422 994.269,912.70952 946.04916,834.51592 884.59002,757.83822 849.81979,710.49492 729.13136,546.29096 667.73192,471.37088 667.73192,437.14244 c 0,-30.29994 162.80943,-141.95119 245.88885,-164.71028 47.09793,-12.9021 77.55203,-22.27153 107.90433,-0.28437 20.515,14.86091 93.3435,154.71208 161.9192,243.55136 18.3865,23.81959 34.9077,43.29805 36.7124,43.28171 1.8046,-0.0143 8.9643,-20.68436 15.9105,-45.93313 16.0691,-58.41091 33.6886,-281.42055 47.5764,-314.01939 43.3252,-89.58969 366.4846,-5.80541 437.9634,24.28884 16.2129,8.6769 -8.2167,64.51007 -11.9665,86.69604 -1.7657,10.44663 -22.7888,75.71559 -28.6602,113.74277 -44.6744,177.67892 -72.4358,358.49703 -130.4855,533.65873 -5.3728,36.5653 22.857,36.4955 42.0345,64.02068 16.5374,23.9022 42.772,68.5487 71.1571,151.0588 4.7478,14.2766 36.2827,182.4206 38.2352,220.9981 l 3.4295,67.7677 63.5149,-59.5202 c 119.6967,-112.1674 140.4152,-169.62 184.1652,-169.62 28.9823,0 69.4498,38.5437 109.2111,104.6765 32.5415,54.1248 80.7668,115.1769 76.7973,150.3934 -1.8924,16.7885 -10.3529,28.4326 -48.7071,51.3443 -23.8238,14.2316 -63.4589,23.3999 -107.2279,69.4273 -59.1114,62.1618 -81.7726,89.529 -82.5898,99.7405 -0.6192,7.7402 -10.6591,36.5136 -22.3106,63.9423 -30.1651,71.0106 -38.9309,123.1664 -45,267.7269 -1.249,29.7483 -3.4765,39.3708 -9.1127,39.3708 z M 1011.9257,893.05032 c 42.4759,-68.3556 166.5889,-168.02325 187.9856,-249.60445 l 14.5395,-55.56398 -24.3796,-30.59476 c -13.4082,-16.82659 -43.9701,-60.52931 -73.8747,-97.11704 -29.9048,-36.58781 -51.7708,-74.42788 -65.6151,-91.75132 -13.8445,-17.32334 -35.4734,-66.4645 -43.8086,-72.59786 -23.6961,-17.43669 -57.42767,5.13449 -100.93025,18.52013 -54.85923,16.87991 -64.39039,21.15326 -114.04107,51.14372 -54.6849,33.03121 -88.44424,54.09113 -80.30114,84.33239 6.32686,23.49592 102.40064,164.06669 210.48825,312.99887 34.37631,47.3665 61.56171,90.302 65.51921,96.2624 2.3912,3.6013 21.5862,33.9906 24.4179,33.9719 z"
       id="path5553"
       inkscape:connector-curvature="0"
       sodipodi:nodetypes="sssccscccssccccccccsccssccccccsccsssscsccsccccscsssssscssscccsssssssssc" /><path
       style="opacity:1;fill:#ffe6d5;fill-opacity:1;fill-rule:nonzero;stroke:none;stroke-width:5.9000001;stroke-miterlimit:4;stroke-dasharray:none;stroke-opacity:1"
       d="m 785.63309,1119.4654 c -10.67007,3.5307 -21.42925,10.9709 -38.38349,26.543 -14.9454,13.727 -18.92985,15.1899 -21.7723,7.9943 -0.87175,-2.2069 -0.83823,-4.2399 0.1448,-8.7815 1.621,-7.489 1.72812,-14.4665 0.2712,-17.6641 -2.57645,-5.6546 -8.49573,-4.4999 -21.72927,4.239 -11.47728,7.5792 -15.4246,11.5861 -23.03483,23.3829 -7.09923,11.0047 -11.81761,16.1437 -14.82228,16.1437 -5.05389,0 -4.12131,-6.0349 4.14676,-26.8349 7.42374,-18.6759 7.48152,-19.0823 2.98041,-20.9629 -2.81997,-1.1784 -4.43217,-1.2845 -7.39402,-0.4869 -9.59084,2.5825 -28.6007,18.8213 -32.53895,27.7956 -7.0067,15.9667 -10.2105,65.7809 -7.39208,114.9353 1.54897,27.0145 1.90912,29.9935 5.39716,44.6426 2.05559,8.6331 3.93288,15.8919 4.17173,16.1308 0.85038,0.8503 28.15097,-3.5857 33.59586,-5.4591 6.61179,-2.2748 20.1007,-5.2519 33.55017,-7.4049 34.41351,-5.5088 67.28536,-7.3525 131.56484,-7.3793 38.06686,-0.016 55.20898,0.8459 68.88972,3.4635 4.04959,0.7748 7.69282,1.0788 8.09609,0.6756 0.40325,-0.4033 1.93748,-8.7102 3.40938,-18.4599 2.21631,-14.6804 2.68978,-21.2256 2.75524,-38.0874 0.074,-19.0908 -0.0476,-20.5306 -1.95083,-23.0845 -1.11642,-1.4981 -2.48726,-2.8763 -3.04631,-3.0627 -1.1488,-0.3829 -10.22214,5.5423 -14.47558,9.453 -1.54404,1.4196 -8.77305,11.5443 -16.06445,22.4992 l -13.2571,19.9181 5.0643,6.0853 c 7.62496,9.1623 8.5949,13.0213 4.34179,17.2745 -2.27161,2.2716 -3.12488,2.488 -8.32427,2.112 -10.31262,-0.746 -18.90023,-8.571 -24.78977,-22.5886 -6.12131,-14.5691 -8.59141,-35.9888 -4.98313,-43.2118 3.8567,-7.7203 9.50513,-3.2881 13.08644,10.2687 1.22036,4.6196 3.01782,9.1223 3.99435,10.0061 1.65604,1.4986 1.93741,1.432 4.18205,-0.99 5.90003,-6.3662 13.02996,-23.6866 16.56123,-40.2314 2.99197,-14.0181 2.97987,-35.2027 -0.0266,-46.5234 -3.06092,-11.526 -8.22677,-21.3339 -14.73602,-27.9781 -11.14415,-11.375 -20.14403,-10.4959 -35.62129,3.4796 -2.97951,2.6903 -6.69597,5.8681 -8.25878,7.0615 -3.02786,2.3124 -7.92387,2.8908 -9.04966,1.0693 -0.37417,-0.6055 -0.75418,-6.2656 -0.84448,-12.5783 -0.14552,-10.1735 -0.43853,-11.9689 -2.57895,-15.8027 -1.32813,-2.3787 -3.60066,-5.2019 -5.05006,-6.2735 -3.29607,-2.437 -10.84317,-3.0603 -16.07904,-1.3277 l 2e-5,0 z"
       id="path5708"
       inkscape:connector-curvature="0" /><path
       style="opacity:1;fill:#000000;fill-opacity:0.94117647;fill-rule:nonzero;stroke:none;stroke-width:5.9000001;stroke-miterlimit:4;stroke-dasharray:none;stroke-opacity:1"
       d="m 2126.3951,1109.004 c -8.5652,-2.2666 -22.253,-0.095 -32.5802,5.1696 -10.0228,5.1095 -44.5968,31.8606 -61.0372,47.2271 -7.2736,6.7986 -23.7897,23.5532 -36.7027,37.233 -23.4123,24.8022 -23.5056,24.9326 -33.4353,46.6205 -0.1173,17.5634 14.9793,9.6236 18.6159,1.8833 6.0656,-13.1782 17.7878,-26.6643 31.6059,-36.3578 6.6808,-4.6864 16.3998,-12.1432 21.5975,-16.5706 l 9.4507,-8.0493 4.148,11.1535 c 4.9735,13.3741 14.2213,22.0705 27.8309,26.1714 l 9.2219,2.7789 4.017,13.8217 c 2.961,10.1884 5.9757,15.7233 11.4684,21.056 4.0983,3.979 7.1435,7.9071 6.7675,8.7293 -0.3759,0.8219 -14.7498,7.0176 -31.9403,13.7678 -31.9929,12.5628 -48.3056,22.6009 -46.1491,28.3985 1.3571,3.6495 6.6474,2.6405 46.7188,-8.9121 16.5399,-4.7684 35.8535,-9.6873 42.9196,-10.9305 15.53,-2.7326 28.6382,-10.3817 41.3999,-24.1583 18.8879,-20.39 40.797,-34.6483 47.061,-30.6264 6.6625,4.2771 3.8605,15.2014 -14.0796,54.8952 l -16.2265,35.9026 -16.0771,12.6369 c -8.8421,6.9501 -16.7652,14.1402 -17.6059,15.9773 -2.0001,4.3678 1.7156,12.8675 5.7353,13.121 8.7118,0.549 33.8229,-21.4985 46.0797,-40.4584 13.0861,-20.2417 18.855,-23.3514 35.5162,-19.145 9.9258,2.5059 12.2848,5.7919 11.7676,16.3925 -0.361,7.4056 -2.2586,12.0038 -13.7456,33.31 -9.2345,17.1281 -15.9648,27.4553 -21.9163,33.6294 -11.2312,11.6512 -32.6889,25.9069 -58.3175,38.7439 -23.9268,11.985 -23.0838,11.1568 -25.4432,20.6384 -1.8186,7.3071 -1.7615,26.2139 2.013,25.6191 0,0 4.921,-12.286 16.4671,-18.3201 11.5468,-6.034 26.435,-13.6581 33.0855,-16.9427 32.0845,-15.8453 59.8578,-47.3976 85.6185,-97.2675 l 12.0369,-23.302 -5.9134,-15.2456 c -6.1598,-15.8814 -15.1334,-26.6776 -26.5001,-31.8816 -7.0173,-3.213 -9.2028,-8.2727 -7.2778,-16.8508 2.2377,-9.9696 0.2578,-35.7341 -3.3274,-43.3117 -3.4309,-7.2519 -10.9055,-11.9291 -18.3262,-11.4682 -2.4104,0.1542 -8.2886,2.4799 -13.0611,5.178 l -8.678,4.9059 3.0199,-6.5952 c 6.3373,-13.8426 3.1629,-32.845 -6.8994,-41.2991 -5.7746,-4.8514 -18.8561,-8.2976 -22.4373,-5.9108 -3.9271,2.6172 -6.4909,-1.1855 -6.4431,-9.5551 0.06,-10.6218 -7.1823,-28.6326 -13.3548,-33.2068 -8.0679,-5.9795 -9.4061,-6.6686 -16.6876,-8.5952 z m 4.8171,28.0701 c 8.4882,11.1644 -5.6507,43.2214 -26.3796,59.8102 -15.5038,12.4073 -31.0452,10.8109 -38.008,-3.9044 -9.3819,-19.8287 -1.5163,-34.0706 29.0155,-52.5381 18.3204,-11.0813 28.7526,-12.0746 35.3721,-3.3677 z m 42.7509,58.9063 c 1.9063,5.1252 1.3609,6.9059 -7.1288,23.2766 -11.8522,22.8543 -21.1418,32.421 -31.8543,32.8052 -10.7797,0.3869 -18.5206,-3.6586 -22.165,-11.5815 -2.7538,-5.9876 -2.5404,-7.7105 2.2235,-17.9399 7.5163,-16.14 18.1851,-26.6158 33.0599,-32.461 14.2155,-5.5865 22.2769,-3.7478 25.8647,5.9006 z"
       id="path5731"
       inkscape:connector-curvature="0"
       sodipodi:nodetypes="csssccccccscccsscssscscscccscsscccccscscccccccccccccscsccsccscc" /><path
       style="opacity:1;fill:#ffe6d5;fill-opacity:1;fill-rule:nonzero;stroke:none;stroke-width:5.9000001;stroke-miterlimit:4;stroke-dasharray:none;stroke-opacity:1"
       d="m 2194.32,1239.6859 c -7.7365,4.1049 -29.4315,21.8328 -39.3986,32.194 -10.3055,10.7132 -21.8411,16.4302 -43.4332,21.5252 -15.0079,3.5414 -55.6077,14.3676 -63.4144,16.9098 -2.4906,0.8111 1.076,6.8523 41.8388,70.8673 11.0386,17.3354 23.8851,38.1674 28.5477,46.2933 4.6625,8.1259 8.7437,15.0974 9.0691,15.4921 0.9681,1.1741 42.1198,-21.0979 55.9844,-30.2997 23.1787,-15.3834 32.2519,-26.4673 50.1677,-61.2847 8.6645,-16.8387 11.3157,-29.5332 7.3941,-35.4062 -2.7338,-4.0945 -10.7413,-7.0597 -19.4184,-7.1909 -10.2333,-0.1546 -14.4294,3.1222 -27.6902,21.624 -10.2429,14.2912 -32.7512,35.5788 -39.3771,37.2418 -6.5928,1.6547 -10.5076,-0.4441 -10.4729,-5.6147 0.043,-6.3618 1.179,-7.6953 18.4087,-21.6047 l 15.4076,-12.4384 13.6231,-30.5339 c 16.4054,-36.7699 20.5004,-48.966 18.7639,-55.8848 -1.5281,-6.0881 -6.8933,-6.7216 -16.0003,-1.8895 z"
       id="path5735"
       inkscape:connector-curvature="0" /><path
       style="opacity:1;fill:#ffe6d5;fill-opacity:1;fill-rule:nonzero;stroke:none;stroke-width:5.9000001;stroke-miterlimit:4;stroke-dasharray:none;stroke-opacity:1"
       d="m 2027.7598,1198.4109 c -16.0605,12.332 -43.2371,38.8045 -43.2371,42.117 0,1.1451 6.9015,8.5744 15.3367,16.5096 8.4353,7.9353 20.5613,21.0975 26.9467,29.2496 l 11.61,14.8219 9.0045,-4.5389 c 4.9524,-2.4964 20.307,-9.176 34.121,-14.8435 13.8142,-5.6676 25.1166,-11.4004 25.1166,-12.7397 0,-1.3391 -1.8637,-4.1215 -4.1415,-6.1829 -5.2945,-4.7915 -9.4588,-12.8068 -13.6759,-26.3228 -3.1531,-10.1056 -3.8965,-10.9277 -12.4788,-13.7987 -13.4696,-4.506 -21.7757,-12.085 -26.9648,-24.6046 -2.4924,-6.0135 -5.079,-10.9336 -5.748,-10.9336 -0.6689,0 -7.8192,5.07 -15.8894,11.2666 z"
       id="path5737"
       inkscape:connector-curvature="0" /><path
       style="opacity:1;fill:#ffe6d5;fill-opacity:1;fill-rule:nonzero;stroke:none;stroke-width:5.9000001;stroke-miterlimit:4;stroke-dasharray:none;stroke-opacity:1"
       d="m 2112.5553,1131.8172 c -13.6001,4.2465 -39.5095,22.6554 -45.3362,32.2116 -7.1707,11.7607 -4.0072,30.4966 6.3775,37.7704 6.1574,4.3128 18.5413,3.8475 26.3699,-0.9909 22.4491,-13.8743 41.0616,-52.4374 31.0401,-64.3121 -4.2601,-5.0482 -11.4391,-6.8686 -18.4513,-4.679 z"
       id="path5739"
       inkscape:connector-curvature="0" /><path
       style="opacity:1;fill:#ffe6d5;fill-opacity:1;fill-rule:nonzero;stroke:none;stroke-width:5.9000001;stroke-miterlimit:4;stroke-dasharray:none;stroke-opacity:1"
       d="m 2142.4826,1192.2558 c -10.8712,5.4174 -20.8271,16.1167 -27.7071,29.7762 -4.8138,9.5571 -5.0655,12.226 -1.8239,19.3403 3.0391,6.6703 11.136,10.7796 21.2397,10.7796 6.8231,0 9.2838,-1.2578 16.3801,-8.3722 10.7053,-10.7328 25.8421,-39.3596 24.2229,-45.8107 -2.9922,-11.9221 -15.4365,-14.1224 -32.3117,-5.7132 z"
       id="path5741"
       inkscape:connector-curvature="0" /></g><g
     inkscape:groupmode="layer"
     id="layer2"
     inkscape:label="Arme2"
     style="display:inline;opacity:1;filter:url(#filter4226)"><g
       inkscape:groupmode="layer"
       id="layer3"
       inkscape:label="Hände"
       style="display:inline"><path
         style="display:inline;opacity:1;fill:#000000;fill-opacity:1;fill-rule:nonzero;stroke:none;stroke-width:5.9000001;stroke-miterlimit:4;stroke-dasharray:none;stroke-opacity:1"
         d="m 968.5248,2702.6777 c -9.9931,-3.4921 -20.841,-8.6037 -24.1063,-11.3588 -25.42518,25.245 -47.14243,10.0976 -61.73254,6.8746 -9.3142,-2.066 -15.44224,-1.8439 -20.75515,2.5597 -13.73456,11.3842 -24.73798,10.083 -50.0776,-5.9214 -40.06054,-25.3017 -50.70854,-54.333 -51.57815,-140.6231 -0.63457,-62.9845 11.58552,-128.4639 20.9578,-165.785 4.44277,-17.6914 0,0 13.66553,29.1351 -5.97002,29.3359 -10.3028,39.4661 -10.6215,49.4417 -0.0981,5.9565 -1.10627,24.0385 -2.23539,40.1826 -3.25179,46.2862 2.04086,117.5582 9.99153,134.5415 7.2086,15.3999 36.01203,36.9288 46.53988,34.7872 8.58931,-1.7477 8.86107,-3.6706 2.62948,-18.6176 -13.99349,-33.5641 -15.63304,-41.4244 -8.92514,-42.7891 3.66491,-0.7454 11.85812,8.038 18.8481,20.207 7.57896,13.1944 18.04065,24.0477 27.02758,28.0403 39.00749,30.7733 30.47059,-9.116 27.90265,-16.8068 -1.18167,-3.4571 -1.17095,-8.5835 1.75884,-12.226 4.25561,-5.2912 9.55485,-3.5291 24.27381,10.9309 57.71067,56.6934 82.38027,39.7068 79.32167,3.6864 -1.686,-19.8593 5.2107,-20.6142 23.9665,-2.6227 19.9748,19.1601 34.7675,17.8657 50.2743,-4.399 20.4714,-29.393 19.4664,-84.7072 -2.2691,-124.9138 -9.4744,-17.5268 -13.3948,-17.0048 -17.1436,2.2823 -1.6105,8.2842 -5.8007,15.6466 -9.3118,16.3607 -16.1964,3.2953 -9.7042,-53.1518 8.648,-75.1901 10.5855,-12.7116 28.1018,-16.6349 33.8654,-7.5854 2.8252,4.4352 1.1518,10.6548 -4.6244,17.1899 l -9.0514,10.2405 13.1701,19.6301 c 17.7485,26.4738 19.6863,32.7095 34.5656,41.8357 26.8123,24.3912 9.2273,-87.8117 5.6866,-101.6461 30.2974,-19.1574 7.9333,-42.9607 10.8841,-26.0975 8.4854,48.4917 22.7237,93.2146 14.8034,127.2526 -6.2205,26.7319 -20.1591,42.9015 -31.1211,36.1018 -11.7989,-7.3184 -16.9169,0.665 -19.0346,29.6896 -1.7641,24.1726 -5.9566,36.2165 -19.9855,57.4114 -18.5283,27.9935 -32.8253,27.4562 -51.3034,22.1751 -9.2477,-2.6434 -14.0417,-0.9271 -23.3362,7.4622 -15.4313,13.9285 -29.5164,16.2677 -51.5631,8.5636 z"
         id="path4757"
         inkscape:connector-curvature="0"
         sodipodi:nodetypes="cccssssccsssssscccssssssssssccccssssssssc" /></g><path
       style="opacity:1;fill:#ff0000;fill-opacity:1;fill-rule:nonzero;stroke:none;stroke-width:5.9000001;stroke-miterlimit:4;stroke-dasharray:none;stroke-opacity:1"
       d=""
       id="path4289"
       inkscape:connector-curvature="0" /><path
       style="opacity:1;fill:#000000;fill-opacity:1;fill-rule:nonzero;stroke:none;stroke-width:5.9000001;stroke-miterlimit:4;stroke-dasharray:none;stroke-opacity:1"
       d="m 1704.8924,3963.9645 c -24.899,-2.636 -50.5676,-7.1853 -57.0414,-10.1098 -20.2241,-9.136 -34.4865,-38.6783 -38.4483,-79.6393 -2.3841,-24.6497 10.928,-44.8941 2.6578,-54.0146 47.7847,-7.6858 172.1041,0.2251 228.6444,0.3419 158.1382,0.054 218.2429,-8.0162 259.0968,-34.7847 20.2037,-13.2378 44.7112,-13.5014 39.694,-0.4268 -4.9732,12.96 1.3568,16.1839 62.4644,31.8126 28.6111,7.3175 64.3234,19.5812 79.361,27.2527 37.2405,18.9988 71.2928,59.0277 71.2928,83.806 0,39.1514 2.4145,38.8446 -312.7338,39.7356 -159.3442,0.4505 -310.0888,-1.3376 -334.9877,-3.9736 z"
       id="path4407"
       inkscape:connector-curvature="0"
       sodipodi:nodetypes="sssccsssssss" /><path
       style="opacity:1;fill:#000000;fill-opacity:1;fill-rule:nonzero;stroke:none;stroke-width:5.9000001;stroke-miterlimit:4;stroke-dasharray:none;stroke-opacity:1"
       d="m 860.42135,3497.6199 c -0.26339,32.8157 -0.58281,95.3215 7.50785,134.7513 11.75104,57.2713 13.34458,60.1645 65.73399,119.5636 71.02061,80.5212 128.41011,138.603 184.41451,186.6328 25.2495,21.6545 71.036,53.7794 101.7459,71.3875 64.1132,36.7612 88.8853,38.965 124.837,11.1158 75.3754,-100.9309 -48.2203,-224.8714 -110.1703,-297.835 -4.3959,-5.3382 -11.9491,3.7226 -16.0038,-1.8806 -8.1444,-2.8878 -31.7389,6.9678 -39.7035,3.9835 -69.942,-11.229 -100.0139,-14.9309 -194.3166,-75.9017 -29.3714,-18.9897 -62.52848,-50.5271 -80.27954,-63.0733 -35.26086,-7.6834 -14.76901,-74.736 -43.76551,-88.7439 z"
       id="path4409"
       inkscape:connector-curvature="0"
       sodipodi:nodetypes="csscsccccscc" /><path
       transform="matrix(1.3955099,0,0,-1.3955099,73.89611,4451.7673)"
       style="display:inline;opacity:1;fill:#000000;fill-opacity:1;fill-rule:nonzero;stroke:none;stroke-width:5.9000001;stroke-miterlimit:4;stroke-dasharray:none;stroke-opacity:1;filter:url(#filter4682)"
       d="m 613.42494,1438.2478 c -31.94593,3.1388 -57.56179,7.5512 -67.96823,11.7079 -11.27431,4.5033 -48.91068,2.6994 -55.63694,17.9053 -10.48707,23.7077 24.9584,113.3084 49.54211,196.2592 11.7745,39.7296 59.48408,168.1168 83.42345,224.4936 25.04605,58.9831 81.12653,170.9839 100.54353,200.7999 36.1698,55.541 89.6687,122.2985 132.1277,164.8726 21.8872,21.9466 29.9632,28.2194 48.8222,37.9218 75.5305,38.8578 268.51424,80.7962 303.67824,65.9941 19.7261,-8.3037 10.4131,-12.6229 -35.7219,-16.5674 -112.0683,-9.5815 -233.18554,-45.2578 -283.75944,-83.584 -33.8153,-25.6262 -89.7647,-90.9698 -131.5036,-153.5838 -65.7798,-98.6785 -114.51109,-203.6937 -177.17086,-381.8007 -33.51702,-95.2702 -67.26573,-172.2305 -67.24306,-223.0148 0.0178,-39.58 31.52369,-37.4619 102.1145,-43.9573 15.09725,-1.3892 54.55962,-0.7512 68.28443,-0.739 47.16127,0.4295 105.36665,6.6852 114.35777,37.7064 8.54862,32.7061 15.08419,90.8745 33.80402,136.9995 39.3461,97.7227 44.8324,161.434 88.1408,248.9711 46.7641,94.5219 66.627,125.9914 77.0089,122.0076 6.53774,-2.5088 3.6992,-9.9245 -20.9116,-54.6315 -45.3596,-82.3986 -75.48149,-189.4034 -119.79749,-296.6774 -48.8196,-118.1755 -19.47058,-140.9553 -42.24628,-174.982 -30.9764,-46.2787 -91.32253,-37.1963 -141.24603,-37.7614 -20.58717,-0.233 -46.97616,0.5141 -58.64222,1.6603 z"
       id="path5565"
       inkscape:connector-curvature="0"
       sodipodi:nodetypes="ssssssssssssssscccscsssss" /></g><g
     inkscape:groupmode="layer"
     id="layer1"
     inkscape:label="Colorierung"
     style="display:inline;opacity:1"><path
       style="display:inline;opacity:1;fill:#fff6d5;fill-opacity:1;fill-rule:nonzero;stroke:none;stroke-width:5.9000001;stroke-miterlimit:4;stroke-dasharray:none;stroke-opacity:1;filter:url(#filter4682)"
       d="m 1908.6775,1522.0798 c -4.6987,-5.2962 -17.923,-23.0289 -29.3874,-39.4059 l -20.8443,-29.7763 13.6306,0 c 13.5718,0 81.9064,6.5653 118.5468,11.3894 l 19.2432,2.5336 -12.6263,13.4601 c -13.6242,14.5239 -52.1417,40.8296 -69.3807,47.3838 -8.5292,3.2428 -12.3329,2.1354 -19.1819,-5.5847 z"
       id="path5064"
       inkscape:connector-curvature="0"
       transform="matrix(1.116408,0,0,1.116408,73.89611,-103.17707)" /><path
       style="display:inline;opacity:1;fill:#fff6d5;fill-opacity:1;fill-rule:nonzero;stroke:none;stroke-width:5.9000001;stroke-miterlimit:4;stroke-dasharray:none;stroke-opacity:1;filter:url(#filter4682)"
       d="m 1462.7833,1230.9806 c -6.3258,-17.4936 -7.0528,-47.1728 -1.1555,-47.1728 2.2909,0 9.049,4.4664 15.0179,9.9254 10.188,9.3176 10.5407,11.121 5.7601,29.4485 -6.3437,24.3201 -12.7305,26.8585 -19.6225,7.7989 z"
       id="path5068"
       inkscape:connector-curvature="0"
       transform="matrix(1.116408,0,0,1.116408,73.89611,-103.17707)" /><path
       style="display:inline;opacity:1;fill:#ffe6d5;fill-opacity:0.99215686;fill-rule:nonzero;stroke:none;stroke-width:5.9000001;stroke-miterlimit:4;stroke-dasharray:none;stroke-opacity:1;filter:url(#filter4682)"
       d="m 1925.0612,1428.3592 c -32.754,-3.2333 -68.4856,-8.1102 -79.4036,-10.8377 -10.918,-2.7274 -54.5899,-21.9215 -97.0488,-42.6536 -48.2956,-23.5821 -102.669,-45.9984 -145.2313,-59.874 -95.8776,-31.2569 -106.3605,-42.0765 -95.5245,-98.5934 3.9983,-20.8539 0.09,-25.7944 -49.4465,-62.5031 -28.3145,-20.9824 -36.9508,-35.7938 -27.5061,-47.174 12.5932,-15.1739 21.217,-12.3685 47.3856,15.4149 25.015,26.5588 26.0224,27.1159 53.4879,29.5804 l 27.9927,2.5118 29.8638,-31.0717 c 33.5127,-34.8681 38.5638,-46.9041 29.1446,-69.4475 -5.0264,-12.0299 -9.0036,-15.4767 -17.8584,-15.4767 -12.6186,0 -19.4823,11.0423 -11.7006,18.824 8.69,8.69 5.4794,20.3184 -10.4902,37.9949 -20.5306,22.7249 -36.9369,29.2825 -60.7543,24.2833 -16.926,-3.5526 -19.732,-6.1646 -31.1503,-28.9963 -11.7943,-23.5833 -12.5623,-28.5121 -12.7731,-81.9763 -0.2652,-67.23746 6.6379,-94.74633 33.9465,-135.27672 29.7137,-44.09992 63.682,-55.35144 98.1809,-32.5211 9.7122,6.42722 23.4006,12.34129 30.4187,13.14239 19.2188,2.19378 30.4481,27.73193 30.2206,68.72899 l -0.1775,31.98199 37.937,0 c 55.348,0 55.4921,-0.17944 50.0274,-62.27991 -2.4301,-27.61465 -2.8148,-52.06699 -0.8549,-54.33854 2.1973,-2.54681 45.4409,-0.41268 112.8039,5.56703 60.0822,5.33341 115.692,9.67331 123.5773,9.64422 17.1335,-0.0632 16.5341,-8.23335 7.0487,96.07954 -5.2426,57.65491 -5.9807,82.04961 -2.5852,85.44511 7.584,7.5841 39.5218,12.1182 87.0711,12.3614 53.6102,0.2741 111.0448,6.5027 127.0007,13.7727 15.9625,7.273 17.974,16.5756 10.1021,46.7203 -8.0105,30.6753 -15.1293,36.7144 -43.2785,36.7144 -25.644,0 -45.5628,-9.5503 -77.9057,-37.3527 -25.7359,-22.1229 -41.3522,-25.0512 -43.7514,-8.204 -1.0244,7.193 4.5144,14.0236 22.1972,27.3742 33.8932,25.5896 67.0469,39.371 118.8917,49.4211 51.8159,10.0446 55.8023,13.0988 78.9435,60.4841 25.0127,51.2173 16.2664,94.7721 -27.195,135.4251 -24.7061,23.1097 -81.2848,51.5059 -117.8002,59.1225 -30.5064,6.3633 -128.7631,5.3908 -203.8058,-2.0171 z m -405.4895,-389.0218 c 0.193,-1.8196 1.0333,-13.6735 1.8674,-26.3418 1.9352,-29.39051 3.8474,-32.108 22.5942,-32.108 18.5174,0 30.073,5.46731 48.6105,22.9991 14.6929,13.8959 26.308,14.8325 33.9254,2.7357 6.6104,-10.49768 -1.435,-18.50228 -37.8074,-37.61542 -34.0537,-17.89471 -38.8792,-24.21749 -27.8141,-36.44429 10.088,-11.14713 7.311,-28.48524 -4.8399,-30.21793 -11.6422,-1.66014 -36.7906,27.52913 -50.5844,58.71218 -7.6632,17.32413 -8.9384,26.31388 -6.7297,47.44546 1.4988,14.3393 3.8475,27.8877 5.2194,30.1075 2.995,4.846 15.0619,5.4102 15.5586,0.7275 z"
       id="path5072"
       inkscape:connector-curvature="0"
       transform="matrix(1.116408,0,0,1.116408,73.89611,-103.17707)" /><path
       style="display:inline;opacity:1;fill:#ffe6d5;fill-opacity:0.99215686;fill-rule:nonzero;stroke:none;stroke-width:5.9000001;stroke-miterlimit:4;stroke-dasharray:none;stroke-opacity:1;filter:url(#filter4682)"
       d="m 2172.0944,839.63559 c -59.4424,-6.83354 -144.8012,-14.60775 -189.6862,-17.27601 -134.2983,-7.98356 -211.648,-13.7535 -218.2291,-16.27891 -10.1874,-3.90926 -19.6659,-67.06458 -19.7778,-131.779 -0.077,-44.24885 3.4437,-55.68744 13.4195,-43.60499 24.4705,29.63797 198.2139,62.34776 272.3205,51.2684 27.8168,-4.15876 42.4936,-3.36863 105.8714,5.69969 40.4678,5.79028 90.4511,11.79367 111.074,13.34088 27.7521,2.08208 43.5545,5.85596 60.8097,14.52242 l 23.3135,11.7093 -2.6821,17.64523 c -4.8716,32.05009 -5.6345,33.08481 -24.3914,33.08481 -14.5385,0 -17.348,1.46203 -17.348,9.02779 0,5.29841 5.1981,12.01107 12.5831,16.24947 11.7439,6.74007 12.3265,8.36324 8.7369,24.33958 -2.1154,9.41485 -2.6979,18.97585 -1.2944,21.24666 3.6538,5.91202 -13.4787,4.74264 -134.7196,-9.19532 z m 33.152,-48.64594 c 3.828,-12.06082 -3.4318,-19.87308 -26.7394,-28.77433 -17.1388,-6.54537 -25.0711,-6.79948 -69.1306,-2.21456 -74.0317,7.70388 -112.6427,13.99017 -120.2944,19.58523 -5.2053,3.80623 9.7548,5.0824 62.7233,5.35064 48.4655,0.24545 77.5854,2.47499 96.0269,7.35227 38.2563,10.11774 53.903,9.76366 57.4142,-1.29925 z"
       id="path5074"
       inkscape:connector-curvature="0"
       transform="matrix(1.116408,0,0,1.116408,73.89611,-103.17707)" /><path
       style="display:inline;opacity:1;fill:#ffe6d5;fill-opacity:0.99215686;fill-rule:nonzero;stroke:none;stroke-width:5.9000001;stroke-miterlimit:4;stroke-dasharray:none;stroke-opacity:1;filter:url(#filter4682)"
       d="m 2076.2893,1012.8893 -45.0751,-1.4281 1.9253,-11.97831 c 1.0589,-6.58808 4.2081,-39.76957 6.9982,-73.73665 2.79,-33.96707 5.6841,-62.82073 6.4312,-64.11924 0.7471,-1.29851 32.7699,0.71334 71.1617,4.47077 l 69.8034,6.83171 -0.4885,13.17446 c -0.2687,7.24595 -2.9977,39.47688 -6.0643,71.62429 l -5.5758,58.44987 -27.0205,-0.9304 c -14.8613,-0.5117 -47.3043,-1.5729 -72.0956,-2.3584 z m 63.9444,-47.69142 c 12.477,-8.73923 12.9702,-29.66869 0.9816,-41.65729 -16.221,-16.221 -55.1264,-8.17822 -60.3081,12.46731 -6.743,26.86661 34.0136,46.91982 59.3265,29.18998 z"
       id="path5076"
       inkscape:connector-curvature="0"
       transform="matrix(1.116408,0,0,1.116408,73.89611,-103.17707)" /><path
       style="display:inline;opacity:1;fill:#ffe6d5;fill-opacity:0.99215686;fill-rule:nonzero;stroke:none;stroke-width:5.9000001;stroke-miterlimit:4;stroke-dasharray:none;stroke-opacity:1;filter:url(#filter4682)"
       d="m 2341.9298,1074.9384 c -27.4975,-6.1543 -69.0052,-21.8255 -88.2262,-33.3099 -36.2,-21.6294 -41.9162,-28.6764 -41.8424,-51.58441 0.1333,-41.35251 16.5898,-52.64825 77.1329,-52.94399 62.7637,-0.30659 128.7449,19.35023 150.0863,44.71298 14.593,17.34285 15.2409,49.74682 1.3477,67.40912 -17.9914,22.8724 -61.0154,34.1052 -98.4983,25.7162 z"
       id="path5080"
       inkscape:connector-curvature="0"
       transform="matrix(1.116408,0,0,1.116408,73.89611,-103.17707)" /><path
       style="display:inline;opacity:1;fill:#ffe6d5;fill-opacity:0.99215686;fill-rule:nonzero;stroke:none;stroke-width:5.9000001;stroke-miterlimit:4;stroke-dasharray:none;stroke-opacity:1;filter:url(#filter4682)"
       d="m 2229.4414,907.811 c 0,-20.57241 16.3573,-29.69232 31.982,-17.83144 10.6588,8.09115 9.6695,13.6113 -3.516,19.61902 -15.8038,7.20069 -28.466,6.40555 -28.466,-1.78758 z"
       id="path5078"
       inkscape:connector-curvature="0"
       transform="matrix(1.116408,0,0,1.116408,73.89611,-103.17707)" /><path
       style="display:inline;opacity:1;fill:#b3b3b3;fill-opacity:1;fill-rule:nonzero;stroke:none;stroke-width:5.9000001;stroke-miterlimit:4;stroke-dasharray:none;stroke-opacity:1;filter:url(#filter4682)"
       d="m 1431.0655,1056.0187 c -4.9121,-9.6285 -11.6422,-29.1276 -14.9557,-43.3313 -3.3135,-14.20369 -8.6612,-30.64317 -11.8839,-36.53215 -3.649,-6.66811 -6.5517,-31.71409 -7.6948,-66.39396 l -1.8354,-55.68672 28.2357,-13.34073 c 37.911,-17.91209 74.8232,-28.65012 80.1555,-23.31781 2.6532,2.65315 -2.4398,15.22816 -13.8539,34.20632 -38.4668,63.959 -47.4538,99.66951 -43.3555,172.27555 3.0534,54.0953 -0.1061,60.9469 -14.812,32.1208 z"
       id="path5082"
       inkscape:connector-curvature="0"
       transform="matrix(1.116408,0,0,1.116408,73.89611,-103.17707)" /><path
       style="display:inline;opacity:1;fill:#b3b3b3;fill-opacity:1;fill-rule:nonzero;stroke:none;stroke-width:5.9000001;stroke-miterlimit:4;stroke-dasharray:none;stroke-opacity:1;filter:url(#filter4682)"
       d="m 1685.1084,922.43776 c -0.8058,-3.03277 -3.8223,-15.43958 -6.7032,-27.57067 -7.8575,-33.08686 -18.672,-52.37308 -30.9294,-55.15854 -5.8857,-1.33751 -11.5101,-4.85843 -12.4987,-7.82429 -3.4803,-10.44092 85.5864,-4.32312 96.5407,6.63118 2.3408,2.34075 5.4399,18.37815 6.8869,35.63868 3.5303,42.10945 -3.4098,53.79778 -31.9435,53.79778 -12.1878,0 -20.4549,-2.13489 -21.3528,-5.51414 z"
       id="path5084"
       inkscape:connector-curvature="0"
       transform="matrix(1.116408,0,0,1.116408,73.89611,-103.17707)" /><path
       style="display:inline;opacity:1;fill:#b3b3b3;fill-opacity:1;fill-rule:nonzero;stroke:none;stroke-width:5.9000001;stroke-miterlimit:4;stroke-dasharray:none;stroke-opacity:1;filter:url(#filter4682)"
       d="m 1421.971,808.51141 c -3.1939,-3.1939 -1.1823,-11.76745 4.2856,-18.26577 4.96,-5.89461 6.7643,-6.65161 13.0454,-5.47327 6.2643,1.1752 7.8444,0.52043 11.2363,-4.65633 3.3114,-5.05377 4.0157,-11.56985 4.3736,-40.4633 0.3216,-25.95684 1.3366,-36.88414 4.1211,-44.3649 10.0028,-26.87325 10.379,-29.12134 8.9464,-53.46321 l -1.3941,-23.68685 11.6967,-5.17424 c 15.4262,-6.82408 60.0766,-40.60098 82.5029,-62.41146 24.9818,-24.29576 40.8797,-49.36181 31.3073,-49.36181 -1.4603,0 -13.6189,11.29255 -27.0193,25.09454 -29.4588,30.34182 -48.1118,46.09237 -76.0347,64.20351 -27.0739,17.56042 -29.2909,18.37574 -28.5299,10.4919 0.3212,-3.3273 -0.1312,-10.5161 -1.0053,-15.97509 -1.2866,-8.03432 -0.3163,-13.70768 5.0927,-29.77633 3.6752,-10.91799 6.2985,-17.04614 5.8296,-13.61811 -1.5569,11.3814 2.1439,2.88581 9.4407,-21.67236 4.5465,-15.30173 11.2652,-31.31513 18.1922,-43.35937 12.2411,-21.28425 22.6488,-46.65097 24.9646,-60.84623 1.4651,-8.98124 3.6937,-12.11916 9.2024,-12.95715 4.0254,-0.61235 27.4472,-17.07245 48.62,-34.16869 21.4516,-17.32131 45.5279,-30.30783 78.9688,-42.5949 37.9875,-13.95763 43.6161,-16.47346 69.5131,-31.07015 29.2666,-16.49592 46.1325,-21.54499 52.5546,-15.73306 3.8593,3.49263 4.9697,3.11326 20.4104,-6.97309 17.6421,-11.52443 51.3662,-39.07635 63.6318,-51.98598 4.9905,-5.25249 9.5988,-8.00014 13.4178,-8.00014 7.8187,0 8.7023,1.33676 5.8602,8.86622 -1.3297,3.52275 -1.817,7.00559 -1.0829,7.73965 0.734,0.73405 15.0811,-3.83141 31.8823,-10.14548 16.8013,-6.31407 41.9097,-15.31146 55.7966,-19.9942 l 25.2488,-8.51408 5.6303,5.15876 c 18.3028,16.76987 65.6316,34.71131 169.3074,64.18112 61.7177,17.54322 90.0987,27.19766 116.4798,39.62322 27.6715,13.03337 33.8443,19.16366 48.6304,48.29514 30.7179,60.52055 57.4075,88.19807 127.5613,132.28319 9.6925,6.09084 16.7643,12.04812 16.7643,14.12225 0,4.9325 16.4164,45.58988 41.2529,102.16804 22.8897,52.14316 37.7212,76.57281 73.6494,121.31098 41.6723,51.89086 42.9503,61.05575 7.6991,55.21147 -19.6397,-3.25603 -32.6386,-7.96762 -64.1516,-23.25223 -44.528,-21.59725 -88.3123,-50.90727 -122.8634,-82.24701 -21.5197,-19.51951 -26.0182,-21.2296 -26.0182,-9.89057 0,6.16954 3.2415,12.82409 14.1113,28.96941 4.3699,6.49074 7.9452,13.02388 7.9452,14.5181 0,4.38595 -14.9898,8.12197 -37.82,9.4262 -17.6823,1.01014 -23.8473,0.43502 -36.4849,-3.40353 -29.5321,-8.97008 -55.7296,-30.64467 -97.4824,-80.65239 -36.7362,-43.99925 -52.2573,-56.78842 -56.26,-46.35758 -6.2363,16.25173 33.1553,69.19113 79.1168,106.32694 4.8255,3.89895 7.7755,7.08899 6.5554,7.08899 -3.3655,0 -99.3298,-25.88139 -115.6864,-31.20037 -42.2854,-13.75075 -109.3978,-48.26476 -167.1124,-85.94126 -16.4142,-10.71535 -26.9852,-13.71705 -26.9852,-7.66262 0,4.55075 19.8648,33.38624 33.4301,48.52684 15.73,17.55652 26.8974,24.16702 56.3687,33.36714 13.6924,4.27438 24.8952,8.37837 24.8952,9.12003 0,2.56464 -126.5789,-1.25895 -147.7788,-4.46398 -52.7977,-7.98205 -73.9894,-15.9964 -186.7845,-70.63906 -65.1128,-31.54337 -74.6992,-35.20724 -76.9271,-29.40137 -2.3019,5.99876 3.193,13.1034 31.0481,40.14304 31.2953,30.37914 32.6593,33.16062 36.3516,74.1282 2.0562,22.81441 3.0926,136.51178 1.2444,136.51178 -10.1261,0 -89.731,-7.93074 -112.6213,-11.22003 -76.3756,-10.97508 -151.6925,-6.834 -184.9271,10.16762 -12.1176,6.19897 -11.2659,5.94157 -13.2141,3.99327 z m 664.2093,-304.33682 c 0.3713,-2.60451 -1.862,-10.76309 -4.9627,-18.13017 -6.2762,-14.91159 -7.2883,-24.55593 -2.5769,-24.55593 1.6834,0 9.3756,2.93937 17.0938,6.53194 29.1812,13.58297 58.0844,17.23688 68.9209,8.71288 7.9431,-6.24806 12.2783,-15.22106 10.1194,-20.94533 -0.9537,-2.52874 -5.1177,-9.97282 -9.2533,-16.54241 -9.4039,-14.93834 -15.7241,-29.88809 -20.4357,-48.33801 -4.66,-18.24836 -8.7599,-24.74203 -15.0554,-23.84592 -10.3919,1.47917 -6.5709,24.93483 11.2924,69.31991 3.3837,8.40743 3.9049,11.92381 2.0434,13.78534 -4.3301,4.3301 -21.9064,2.67114 -40.584,-3.83058 -23.157,-8.06103 -36.2887,-15.82888 -51.9414,-30.72531 -8.365,-7.9608 -13.7819,-11.54823 -16.0964,-10.66009 -4.2976,1.64915 -3.1716,9.08463 5.8474,38.61221 3.473,11.37046 6.3145,23.16354 6.3145,26.20686 0,5.17801 -0.5638,5.45764 -8.7821,4.35535 -19.558,-2.6233 -85.6496,-39.90907 -123.5571,-69.70521 -35.5081,-27.91009 -39.7018,-29.7687 -39.7018,-17.59539 0,16.24622 58.526,61.64485 117.3288,91.0119 57.792,28.86226 92.2499,38.51848 93.9862,26.33796 z"
       id="path5088"
       inkscape:connector-curvature="0"
       transform="matrix(1.116408,0,0,1.116408,73.89611,-103.17707)" /><path
       style="display:inline;opacity:1;fill:#fff6d5;fill-opacity:1;fill-rule:nonzero;stroke:none;stroke-width:5.9000001;stroke-miterlimit:4;stroke-dasharray:none;stroke-opacity:1;filter:url(#filter4682)"
       d="m 1783.8993,2086.1279 c 0,-8.7421 11.7964,-24.4698 18.3533,-24.4698 6.0753,0 8.1145,3.3259 8.1145,13.234 0,11.7635 -1.4704,13.2339 -13.2339,13.2339 -7.2786,0 -13.2339,-0.8991 -13.2339,-1.9981 z"
       id="path5070"
       inkscape:connector-curvature="0"
       transform="matrix(1.116408,0,0,1.116408,73.89611,-103.17707)" /><path
       style="opacity:1;fill:#502d16;fill-opacity:1;fill-rule:nonzero;stroke:none;stroke-width:5.9000001;stroke-miterlimit:4;stroke-dasharray:none;stroke-opacity:1"
       d="m 2083.8959,2352.0856 c -1.3543,-0.4706 -29.6105,-2.0727 -62.7914,-3.5601 -61.785,-2.7697 -116.0643,-6.7242 -123.7361,-9.015 -3.4039,-1.0164 -4.2867,-3.9678 -4.2018,-14.0484 0.1189,-14.116 6.0651,-70.2345 7.6052,-71.7745 2.0238,-2.0239 168.9551,-3.8632 181.893,-2.0041 l 13.5432,1.946 -0.1273,45.9316 c -0.1383,49.9394 -1.592,56.2057 -12.1848,52.5245 z"
       id="path5143"
       inkscape:connector-curvature="0" /><path
       style="opacity:1;fill:#fff6d5;fill-opacity:1;fill-rule:nonzero;stroke:none;stroke-width:5.9000001;stroke-miterlimit:4;stroke-dasharray:none;stroke-opacity:1"
       d="m 1523.023,2210.45 c -51.4643,-6.793 -94.4684,-13.1732 -95.5645,-14.1783 -1.096,-1.0051 35.881,-78.8658 82.1709,-173.024 87.8268,-178.6477 92.5759,-190.5746 172.9126,-434.2533 24.4811,-74.2562 46.7326,-137.2329 49.448,-139.9483 3.2994,-3.2993 9.7807,5.8589 19.5399,27.6105 35.0345,78.0852 98.9936,154.0106 98.9936,117.5145 0,-5.047 -11.3781,-24.4385 -25.2848,-43.0921 -38.9516,-52.2477 -101.3339,-187.1909 -91.214,-197.3109 1.9996,-1.9996 16.287,3.2165 31.7496,11.5912 15.4625,8.3748 50.9631,22.239 78.89,30.8092 82.1442,25.2086 178.2279,70.1595 178.2279,83.3806 0,2.2588 -9.3648,8.3218 -20.8108,13.4733 -49.2538,22.1678 -153.1258,115.5331 -128.165,115.2009 2.0315,-0.027 26.912,-15.5573 55.2898,-34.5118 28.378,-18.9546 53.8639,-33.7207 56.6354,-32.8137 27.0751,8.8606 -26.3295,147.3529 -170.4,441.892 -48.4212,98.9928 -88.0386,182.8378 -88.0386,186.3223 0,17.7573 16.1641,-5.5798 57.1221,-82.4712 47.6867,-89.5234 140.0181,-281.0672 173.8628,-360.6828 11.0581,-26.0128 28.0317,-76.9847 37.7191,-113.2709 24.0548,-90.1024 24.5223,-91.0874 48.8172,-102.8484 25.7137,-12.4477 38.1451,-8.8895 61.3744,17.5672 15.4129,17.5542 16.1505,20.0911 13.3841,46.0287 -5.0668,47.5054 -45.641,182.9292 -76.1965,254.3199 -25.199,58.8757 -49.6394,113.1226 -98.59,218.8268 -5.6445,12.1889 -24.7211,48.7557 -42.3922,81.2595 -17.6712,32.5038 -32.1636,61.8681 -32.2054,65.2539 -0.1751,14.2182 11.3704,3.995 32.6656,-28.9238 53.9954,-83.4684 154.3555,-312.3396 200.8139,-457.9564 24.8191,-77.7914 36.7209,-107.7918 42.7634,-107.7918 2.1766,0 11.452,12.743 20.6117,28.3177 16.9066,28.7472 19.2055,29.9672 47.807,25.3713 11.6036,-1.8645 12.2597,-0.7877 11.4029,18.717 -1.9361,44.0769 -68.4971,205.9268 -161.767,393.3524 -39.189,78.7505 -71.2528,145.5525 -71.2528,148.4489 0,2.8964 -3.5055,6.6114 -7.7901,8.2555 -13.7586,5.2797 -91.8659,3.1969 -149.9913,-3.9995 -31.0466,-3.8439 -80.4138,-8.5882 -109.7051,-10.5428 -49.7279,-3.3186 -54.202,-2.8554 -67.5169,6.9888 -17.1434,12.6747 -17.5185,12.6666 -135.3169,-2.8821 z m 329.0555,-61.0627 c 24.0326,-12.3777 32.9187,-25.026 32.9187,-46.8557 0,-15.8502 -2.3801,-22.4037 -9.5258,-26.228 -28.7237,-15.3725 -69.2712,8.1029 -69.2712,40.1053 0,31.7011 20.1855,46.2109 45.8783,32.9784 z m 121.0786,-243.6629 c 13.4109,-17.0492 18.8408,-45.8802 9.7546,-51.7937 -38.5554,-25.093 -84.6827,15.0647 -63.2675,55.0795 8.0783,15.0942 40.6273,13.0957 53.5129,-3.2858 z m 70.3736,-202.6491 c 24.3046,-26.0586 30.699,-53.7789 16.7927,-72.797 -6.2595,-8.5603 -8.107,-8.7755 -20.1226,-2.345 -22.8899,12.2504 -36.2441,27.8954 -39.7465,46.5646 -2.7886,14.8649 -1.3916,20.1698 7.9221,30.084 14.4228,15.3522 19.6386,15.1287 35.1543,-1.5066 z"
       id="path5278"
       inkscape:connector-curvature="0" /><path
       style="display:inline;opacity:1;fill:#fff6d5;fill-opacity:1;fill-rule:nonzero;stroke:none;stroke-width:5.9000001;stroke-miterlimit:4;stroke-dasharray:none;stroke-opacity:1;filter:url(#filter4682)"
       d="m 727.91333,2258.3416 c -45.66214,-4.2895 -75.19411,-13.9705 -82.12554,-26.9221 -7.33847,-13.712 -5.12827,-54.6145 5.04434,-93.3516 10.29479,-39.2024 93.39315,-272.0258 130.66702,-366.1005 44.22441,-111.6169 91.6912,-207.9552 142.642,-289.5055 70.10656,-112.2103 165.75945,-218.6416 222.84645,-247.9573 46.3096,-23.7812 131.3547,-51.9493 189.6863,-62.8266 64.3999,-12.0089 71.2821,-12.4308 82.5331,-5.0588 9.0652,5.9398 11.5704,11.9994 13.8069,33.3971 2.3449,22.4348 -0.6062,39.4619 -20.816,120.1055 -26.5486,105.937 -98.7773,347.1018 -128.5848,429.3325 -22.3913,61.7713 -52.2834,128.0124 -74.3032,164.6564 -19.6993,32.7823 -47.1113,85.5102 -59.0369,113.5591 l -9.5526,22.4679 -38.1164,-5.6357 c -20.964,-3.0995 -38.9583,-6.4776 -39.9875,-7.5067 -1.0291,-1.0291 2.2641,-11.5182 7.3183,-23.3091 5.0541,-11.7909 31.082,-80.0612 57.8396,-151.7117 29.8885,-80.0342 62.1126,-157.1313 83.559,-199.9171 19.1997,-38.304 34.9087,-72.5468 34.9087,-76.0951 0,-24.2098 -29.2252,15.9948 -72.3719,99.5609 -39.2743,76.0661 -54.7999,115.2033 -90.0665,227.0413 -14.5365,46.0982 -34.4636,106.6434 -44.2824,134.5449 -9.8188,27.9015 -23.3125,77.3634 -29.986,109.9153 -13.44182,65.5661 -20.50639,78.4722 -49.24933,89.9728 -38.17289,15.2738 -138.43575,20.1685 -232.37264,11.3441 z"
       id="path5710"
       inkscape:connector-curvature="0"
       transform="matrix(1.116408,0,0,1.116408,73.89611,-103.17707)" /><path
       style="display:inline;opacity:1;fill:#fff6d5;fill-opacity:1;fill-rule:nonzero;stroke:none;stroke-width:5.9000001;stroke-miterlimit:4;stroke-dasharray:none;stroke-opacity:1;filter:url(#filter4682)"
       d="m 2111.3478,2333.1129 c -24.6228,-8.7955 -51.6226,-32.8937 -133.9772,-119.5787 -34.4503,-36.262 -82.8369,-85.9239 -107.5256,-110.3599 l -44.8886,-44.429 -0.012,-12.918 c -0.01,-7.1049 -1.066,-16.7124 -2.3538,-21.3502 -1.9716,-7.1001 -1.7083,-9.2986 1.6666,-13.9161 13.72,-18.7721 19.2756,-28.3257 27.3667,-47.061 4.9934,-11.5624 14.0142,-31.7822 20.0464,-44.9331 16.115,-35.1325 36.3244,-85.7986 59.0855,-148.1304 26.9526,-73.8104 46.7213,-123.0247 48.5516,-120.8697 0.8242,0.9704 2.786,8.7122 4.3596,17.204 4.629,24.9808 16.8793,63.293 34.4219,107.6528 9.0227,22.8158 16.405,42.5261 16.405,43.8008 0,1.3504 -2.228,1.7584 -5.3389,0.9776 -7.021,-1.7621 -12.3064,0.4196 -12.3064,5.0799 0,6.1432 30.0469,41.4098 84.3456,98.9979 38.951,41.3107 46.6618,47.0055 133.5519,98.634 28.2538,16.7879 53.9116,33.0645 57.0173,36.1702 13.2126,13.2125 17.425,30.1317 12.8939,51.7881 -5.196,24.8339 -20.6092,51.7792 -55.0177,96.1811 -9.8708,12.7377 -27.9851,38.0476 -40.2541,56.2442 -42.3255,62.7749 -68.2082,81.4707 -98.0374,70.8155 z"
       id="path5733"
       inkscape:connector-curvature="0"
       transform="matrix(1.116408,0,0,1.116408,73.89611,-103.17707)" /><path
       style="display:inline;opacity:1;fill:#d35f5f;fill-opacity:1;fill-rule:nonzero;stroke:none;stroke-width:5.9000001;stroke-miterlimit:4;stroke-dasharray:none;stroke-opacity:1;filter:url(#filter4682)"
       d="m 1407.2118,3492.6558 c -11.2046,-9.3242 -15.383,-27.7598 -28.6325,-126.3303 -16.6106,-123.576 -69.23,-330.5382 -101.2429,-398.2078 -20.5072,-43.3487 -79.6396,-116.8099 -182.609,-226.8584 -138.99545,-148.5513 -176.59232,-217.1098 -164.73251,-300.3922 4.71271,-33.0937 7.40748,-38.6703 19.51797,-40.3901 25.41756,-3.6096 32.78388,-34.2508 23.75201,-98.8 -4.0548,-28.9789 -3.24038,-32.5717 8.20708,-36.205 24.11405,-7.6535 44.44925,-39.3805 44.44925,-69.3499 0,-19.9811 2.5026,-27.5947 9.0705,-27.5947 4.9887,0 70.2594,6.7701 145.0458,15.0447 74.7865,8.2746 155.6268,16.9502 179.6452,19.2793 30.8175,2.9883 47.6569,7.9255 57.2175,16.776 11.0742,10.2517 27.3788,13.632 89.3007,18.514 71.2987,5.6214 77.3705,5.1895 103.2627,-7.3447 25.8632,-12.5202 32.6537,-13.0086 113.4516,-8.1603 l 85.9418,5.157 -2.0619,24.9542 c -6.0692,73.4552 -49.4384,221.3862 -84.0169,286.579 -21.7536,41.0135 -63.1599,86.8552 -74.9128,82.9375 -4.0523,-1.3507 -20.9555,-26.0339 -37.5627,-54.8516 -52.1587,-90.508 -87.4859,-130.5207 -102.2243,-115.7824 -1.9294,1.9294 13.9733,27.5687 35.3393,56.9762 42.1973,58.0792 95.1959,164.0981 121.5868,243.2238 22.7455,68.1956 147.3706,602.303 151.4269,648.9716 l 3.2676,37.5954 -30.5633,16.6346 c -38.6492,21.0356 -91.9912,29.7167 -183.031,29.7873 -39.4587,0.031 -95.6055,4.259 -124.7707,9.3965 -64.7926,11.4131 -58.3708,11.5482 -74.1222,-1.5597 z"
       id="path5716"
       inkscape:connector-curvature="0"
       transform="matrix(1.116408,0,0,1.116408,73.89611,-103.17707)" /><path
       style="display:inline;opacity:1;fill:#502d16;fill-opacity:1;fill-rule:nonzero;stroke:none;stroke-width:5.9000001;stroke-miterlimit:4;stroke-dasharray:none;stroke-opacity:1;filter:url(#filter4682)"
       d="m 1188.123,2163.9502 c -80.633,-8.6254 -148.7857,-17.6558 -151.4505,-20.0674 -5.0286,-4.5511 4.8511,-60.1548 13.0254,-73.3084 3.5614,-5.7307 40.5815,-3.2171 157.3211,10.682 83.965,9.9969 165.2967,18.984 180.7371,19.9713 25.8658,1.6539 28.2361,3.2216 30.1424,19.9363 1.138,9.9777 0.309,27.5236 -1.8423,38.9909 l -3.9114,20.8495 -38.7081,-0.6858 c -21.2895,-0.3772 -104.6806,-7.743 -185.3137,-16.3684 z"
       id="path5714"
       inkscape:connector-curvature="0"
       transform="matrix(1.116408,0,0,1.116408,73.89611,-103.17707)" /><path
       style="opacity:1;fill:#d35f5f;fill-opacity:1;fill-rule:nonzero;stroke:none;stroke-width:5.9000001;stroke-miterlimit:4;stroke-dasharray:none;stroke-opacity:1"
       d="m 1136.4479,3686.064 c -80.9223,-28.8008 -122.6214,-49.2384 -187.4752,-91.886 -39.55434,-26.0107 -58.00863,-46.601 -58.00863,-64.7225 0,-21.9848 57.83533,-112.096 196.39953,-306.0034 33.8726,-47.4015 87.4378,-124.3603 119.0339,-171.0196 l 57.4474,-84.8353 12.7942,17.9816 c 7.0367,9.8898 43.3657,52.1797 80.731,93.9773 108.3173,121.1661 126.8771,149.2506 145.8473,220.6946 l 11.646,43.8594 -68.1463,88.6468 c -79.8131,103.8234 -142.7252,193.459 -168.4629,240.0217 -19.0687,34.4976 -29.1176,43.3898 -48.385,42.8155 -6.2726,-0.1871 -48.3121,-13.4755 -93.4213,-29.5301 z"
       id="path4207"
       inkscape:connector-curvature="0" /></g></svg>