<?xml version="1.0" encoding="UTF-8" standalone="no"?>
<!-- Created with Inkscape (http://www.inkscape.org/) -->

<svg
   xmlns:dc="http://purl.org/dc/elements/1.1/"
   xmlns:cc="http://creativecommons.org/ns#"
   xmlns:rdf="http://www.w3.org/1999/02/22-rdf-syntax-ns#"
   xmlns:svg="http://www.w3.org/2000/svg"
   xmlns="http://www.w3.org/2000/svg"
   xmlns:sodipodi="http://sodipodi.sourceforge.net/DTD/sodipodi-0.dtd"
   xmlns:inkscape="http://www.inkscape.org/namespaces/inkscape"
   id="svg4155"
   version="1.1"
   inkscape:version="0.91 r13725"
   xml:space="preserve"
   width="3060"
   height="4080"
   viewBox="0 0 3060 4080"
   sodipodi:docname="SuperTeacher_Phase2_v3.svg"
   enable-background="new"
   inkscape:export-filename="/Users/larsaeschlimann/Desktop/SuperTeacher_Design/PNG/P2"
   inkscape:export-xdpi="350"
   inkscape:export-ydpi="350"><metadata
     id="metadata4161"><rdf:RDF><cc:Work
         rdf:about=""><dc:format>image/svg+xml</dc:format><dc:type
           rdf:resource="http://purl.org/dc/dcmitype/StillImage" /><dc:title /></cc:Work></rdf:RDF></metadata><defs
     id="defs4159"><marker
       inkscape:stockid="Arrow1Lstart"
       orient="auto"
       refY="0.0"
       refX="0.0"
       id="marker4962"
       style="overflow:visible"
       inkscape:isstock="true"><path
         id="path4964"
         d="M 0.0,0.0 L 5.0,-5.0 L -12.5,0.0 L 5.0,5.0 L 0.0,0.0 z "
         style="fill-rule:evenodd;stroke:none;stroke-width:1pt;stroke-opacity:1;fill:#000000;fill-opacity:1"
         transform="scale(0.8) translate(12.5,0)" /></marker><marker
       inkscape:stockid="Arrow1Lstart"
       orient="auto"
       refY="0.0"
       refX="0.0"
       id="Arrow1Lstart"
       style="overflow:visible"
       inkscape:isstock="true"><path
         id="path4692"
         d="M 0.0,0.0 L 5.0,-5.0 L -12.5,0.0 L 5.0,5.0 L 0.0,0.0 z "
         style="fill-rule:evenodd;stroke:none;stroke-width:1pt;stroke-opacity:1;fill:#000000;fill-opacity:1"
         transform="scale(0.8) translate(12.5,0)" /></marker><clipPath
       clipPathUnits="userSpaceOnUse"
       id="clipPath4171"><path
         d="m 0,0 2448,0 0,3264 L 0,3264 0,0 Z"
         id="path4173"
         inkscape:connector-curvature="0" /></clipPath><filter
       inkscape:collect="always"
       style="color-interpolation-filters:sRGB"
       id="filter4226"><feBlend
         inkscape:collect="always"
         mode="lighten"
         in2="BackgroundImage"
         id="feBlend4228" /></filter><filter
       inkscape:collect="always"
       style="color-interpolation-filters:sRGB"
       id="filter4682"><feBlend
         inkscape:collect="always"
         mode="lighten"
         in2="BackgroundImage"
         id="feBlend4684" /></filter></defs><sodipodi:namedview
     pagecolor="#ffffff"
     bordercolor="#666666"
     borderopacity="1"
     objecttolerance="10"
     gridtolerance="10"
     guidetolerance="10"
     inkscape:pageopacity="0"
     inkscape:pageshadow="2"
     inkscape:window-width="1440"
     inkscape:window-height="856"
     id="namedview4157"
     showgrid="false"
     showguides="false"
     inkscape:zoom="5.1294118"
     inkscape:cx="3005.3834"
     inkscape:cy="3322.4421"
     inkscape:window-x="-4"
     inkscape:window-y="0"
     inkscape:window-maximized="0"
     inkscape:current-layer="svg4155" /><g
     inkscape:groupmode="layer"
     id="layer4"
     inkscape:label="Main"><g
       id="g4163"
       inkscape:groupmode="layer"
       inkscape:label="Hauptkörper"
       transform="matrix(1.25,0,0,-1.25,0,4080)"
       style="display:inline;filter:url(#filter4682);opacity:1"><g
         id="g4165"
         style="fill:#000000;stroke:#000000;stroke-width:0.80000001;stroke-miterlimit:4;stroke-dasharray:none;stroke-opacity:1" /><path
         style="opacity:1;fill:#000000;fill-opacity:1;fill-rule:nonzero;stroke:#000000;stroke-width:0.90949553;stroke-miterlimit:4;stroke-dasharray:none;stroke-opacity:1"
         d="m 1464.699,2892.1222 0,0 0,0 c -3.4396,-0.025 -12.4354,-7.1558 -24.9383,-22.089 -13.2113,-15.7795 -39.3995,-38.9578 -58.1953,-51.5091 -37.6229,-25.1245 -39.7335,-26.0137 -37.4527,-15.7723 2.6996,12.1226 -13.3099,43.7055 -22.1548,43.7055 -6.1686,0 -7.3604,-3.4065 -4.4391,-12.6885 11.354,-36.0755 23.1418,-100.461 19.4777,-106.3897 -2.9205,-4.7255 -11.4588,-0.5418 -28.2831,13.8592 -40.7052,34.8421 -55.0481,23.6145 -17.0015,-13.3085 21.1686,-20.5436 33.476,-49.7553 26.0343,-61.796 -5.5031,-8.9044 -13.079,-6.8643 -16.6835,4.4925 -3.7748,11.8933 -37.3375,47.6434 -41.1494,43.8316 -3.2161,-3.216 16.5357,-37.1827 21.6218,-37.1827 7.2957,0 17.6142,-33.8211 14.3211,-46.9421 -3.2551,-9.8497 4.459,-14.8536 -7.9954,-25.2101 -17.1913,-14.2952 -57.0172,-33.3738 -74.719,-40.6359 l 8.3773,-21.1689 c 9.966,4.1841 22.427,9.9116 37.712,17.3017 4.4886,2.1702 8.8415,4.2541 13.0936,6.2724 -1.4876,-10.1837 -2.5988,-34.4814 -2.5988,-42.0109 0,-17.921 -9.5925,-27.7464 -14.5288,-14.8824 -1.7435,4.5434 -8.0711,9.5415 -14.0599,11.1076 -18.0132,4.7106 -13.001,-14.1238 8.729,-32.8058 14.986,-12.8838 19.6439,-21.2868 19.7371,-35.5964 0.067,-10.3021 3.7489,-22.3581 8.1819,-26.791 12.8802,-12.8802 28.0104,-70.8592 19.8135,-75.9252 -3.7184,-2.2981 -5.0492,-6.9468 -2.9576,-10.3313 2.0917,-3.3844 1.1686,-11.0767 -2.0517,-17.0939 -6.894,-13.5597 11.7105,-32.7967 21.3465,-37.7938 7.2561,-3.6391 10.4244,-7.5403 7.0397,-8.6686 -4.2325,-1.4109 -4.5016,-7.8153 -0.8597,-20.5134 3.7586,-13.1056 2.9365,-27.0116 -2.8351,-47.9315 -4.4716,-16.2085 -20.6822,-80.2243 -36.0228,-142.2579 -52.2786,-160.0467 -94.4826,-348.9717 -174.7847,-475.1528 0,-0.4861 -8e-4,-0.6903 0,-1.0463 5.1755,-5.7965 8.8221,-14.9615 9.0382,-27.5104 0.095,-5.5155 -0.1289,-11.0352 0,-16.5503 0.072,-3.0725 0,-6.1647 0.2753,-9.2229 1.9818,-2.5612 4.0108,-5.0869 5.8958,-7.72 4.2261,-5.9038 9.1227,-13.5474 12.2178,-20.9948 11.1874,26.7689 32.3632,70.5223 61.842,127.4359 56.3913,108.8717 68.2353,138.9854 121.7268,309.5145 23.837,75.9913 45.591,140.4816 48.3436,143.3131 2.9685,3.0533 7.3316,-0.9694 10.7221,-9.8872 20.8945,-54.9568 65.9823,-122.1478 81.9665,-122.1478 11.1524,0 7.3717,18.0037 -7.1054,33.8361 -22.6973,24.8215 -46.3182,65.376 -66.2191,113.6905 -17.8852,43.4206 -23.4079,61.1482 -14.7811,61.208 4.5188,0.031 12.9196,-4.7854 25.4606,-13.2961 10.7146,-7.2685 35.5715,-16.4779 55.2358,-20.4583 34.2974,-6.9423 125.4103,-46.0565 148.1732,-63.6096 10.3619,-7.9903 9.5406,-9.0175 -16.3354,-20.4636 -32.895,-14.5511 -113.1755,-84.5316 -105.6294,-92.0776 3.187,-3.1871 21.3794,6.934 46.8532,26.068 45.3601,34.071 55.7422,37.7285 55.7422,19.6395 0,-38.0034 -61.5354,-184.4495 -158.7283,-377.7515 -33.665,-66.9545 -61.2098,-123.4186 -61.2098,-125.4767 0,-2.058 3.7607,-3.741 8.356,-3.741 10.9613,0 172.3672,327.5672 197.929,401.6897 10.4066,30.176 21.7836,71.3065 25.2829,91.4008 5.6833,32.6357 8.4001,37.7364 25.4534,47.7982 15.7052,9.2663 22.1106,10.2124 36.1187,5.3291 16.9477,-13.556 34.0198,-30.227 32.4736,-42.8476 -2.8184,-22.398 -26.6874,-114.7051 -41.938,-162.1851 -8.2523,-25.6919 -45.0055,-109.5539 -86.8568,-198.1865 -8.9968,-19.0536 -16.3567,-36.0935 -16.3567,-37.8666 0,-1.773 -13.9579,-27.3995 -31.017,-56.9483 -17.0594,-29.5489 -31.017,-57.5534 -31.017,-62.233 0,-18.9564 12.4518,-5.8881 41.5934,43.6558 48.5371,82.5186 127.9265,271.6136 159.0871,378.924 10.3063,35.492 21.0778,62.3608 25.0004,62.3608 3.7905,0 11.4175,-11.4194 16.9483,-25.377 10.0812,-25.4404 14.3579,-27.7176 37.9323,-20.2025 9.364,2.9849 12.6886,1.8009 12.6886,-4.5191 0,-17.177 -16.1958,-70.1064 -29.7025,-97.0691 -7.6193,-15.21 -18.2436,-41.6121 -23.6096,-58.6714 -10.4876,-33.3417 -96.3346,-211.5885 -122.5225,-254.3976 -8.7481,-14.3007 -15.9055,-31.4298 -15.9055,-38.0656 0,-11.4195 -2.6739,-12.065 -49.985,-12.065 -27.4918,0 -63.5035,2.5636 -80.025,5.6968 -16.5214,3.1332 -54.9981,6.9774 -85.5049,8.5425 -46.1423,2.3674 -56.0191,1.4095 -58.746,-5.6968 -2.055,-5.3552 -9.8923,-8.2904 -21.0037,-7.8657 -20.4591,0.7813 -105.1889,12.7878 -142.0269,19.492 0.1297,-1.358 0.2888,-2.9031 0.5222,-4.8779 0.8636,-7.3043 0.7278,-12.3938 -0.2042,-15.7208 66.6231,-8.7959 130.7037,-16.1681 142.3129,-15.3264 26.9006,1.9505 27.1803,1.2883 20.3819,-48.3116 l -3.5864,-26.164 -40.16,0 c -14.8772,0 -48.0928,2.7888 -84.7571,6.8798 0.2473,-2.142 0.5692,-4.2461 1.2292,-6.4925 1.0825,-3.6849 2.5481,-7.2552 4.2313,-10.7257 8.7323,-0.8956 16.6965,-1.6104 23.7091,-2.105 66.3956,-4.6827 97.2804,-8.9491 97.2804,-13.4364 0,-14.8243 18.7766,-20.4725 77.3942,-23.2827 84.8599,-4.0683 85.7677,-3.993 102.5137,8.3879 14.1866,10.4885 19.4102,10.7783 97.0087,5.3984 l 63.7659,-4.4213 c 12.7671,0.1296 22.9168,-1.9821 36.4811,-1.1795 -1.848,95.1313 -5.217,178.5715 -7.7041,184.1905 -3.3911,7.662 -1.8587,12.7845 5.4197,18.1065 20.3541,28.8377 23.7913,49.7466 39.8295,81.5934 10.9176,21.6795 34.0217,79.3051 51.3439,128.0577 17.3222,48.7526 36.0194,97.5378 41.5473,108.4112 5.528,10.8734 12.9503,30.5409 16.4952,43.7055 8.8362,33.3157 5.8633,56.9785 18.1366,85.8426 18.9521,32.1368 47.976,44.2006 82.3342,46.7164 64.9337,4.5769 104.4405,21.6258 145.7289,62.8902 41.3512,41.3269 53.3263,75.4114 42.1246,119.8971 -9.7017,38.5294 -26.9812,70.2529 -48.6154,89.2549 -18.5886,16.327 -19.1355,17.9675 -15.6727,46.9634 3.2548,27.2595 4.6859,29.7072 15.4383,26.3966 29.9995,-9.2368 93.4476,-19.7709 119,-19.7584 50.6485,0.026 87.3511,35.1837 87.3897,83.718 0.017,20.2617 -3.1668,27.6402 -18.3071,42.407 -10.0805,9.8318 -24.4503,21.7955 -31.9336,26.585 -12.5547,8.0354 2e-4,-6e-4 -8.4307,6.4091 l 11.1147,58.3552 -183.0945,17.7884 -144.3487,16.1098 c -79.1025,8.8277 -207.871,9.6721 -260.3431,17.1028 l -23.4888,3.3271 -6.3363,36.3887 c -3.4853,20.0141 -5.908,58.2107 -5.3823,84.8815 0.902,45.8111 1.4616,47.8483 10.0878,36.8364 21.8778,-27.9276 193.7401,-59.4276 252.4491,-46.2706 21.3106,4.7757 38.0459,4.0685 79.2486,-3.3502 50.0104,-9.0046 154.3147,-22.1352 147.8055,-11.6032 -1.6683,2.6992 -104.7841,27.1699 -130.4522,37.3213 -43.2272,17.0958 -96.054,45.2762 -136.9004,73.0279 -32.8317,22.3064 -33.982,12.187 -3.0607,-26.9314 18.5361,-23.4501 27.6135,-29.7722 53.575,-37.3195 17.1915,-4.9977 31.2568,-9.8558 31.2568,-10.795 0,-0.9391 -32.3569,-1.105 -71.9034,-0.3694 -87.3956,1.6256 -119.644,10.6429 -222.6542,62.2613 -39.5137,19.8004 -74.6034,36.0015 -77.9768,36.0015 -13.1949,0 -1.1993,-20.1447 22.9151,-38.4795 31.3798,-23.8588 34.6513,-35.1525 35.7634,-123.48 l 0.8687,-68.9067 -39.476,2.8084 c -21.7118,1.5449 -54.7038,5.2542 -73.3139,8.2423 -62.4705,10.0306 -143.1583,4.0464 -164.0609,-12.1663 -9.3958,-7.2874 -13.9131,0.8846 -7.3097,13.2232 3.2305,6.0361 9.4033,9.6194 13.7187,7.9634 12.1674,-4.669 16.5771,7.8012 14.7154,41.613 -1.0938,19.8662 1.3934,36.9767 6.9171,47.5958 5.8459,11.2381 7.5499,24.4105 5.2918,40.8864 -2.6378,19.2441 -1.5847,24.3059 5.0537,24.3059 12.0127,0 77.6667,51.5796 96.4705,75.7901 13.3599,17.2011 16.5974,26.2976 12.6992,26.2688 z m -86.9066,-285.3613 c 2.7987,-0.018 4.7471,-0.5727 5.8389,-1.6645 2.8713,-2.8712 -3.2424,-17.1821 -14.4666,-33.8609 -33.7999,-50.2263 -47.728,-115.1162 -36.4456,-169.7879 7.6785,-37.2093 -3.3579,-43.1074 -18.1383,-9.6936 -6.485,14.6603 -12.2513,33.5104 -12.8147,41.8883 -0.5632,8.3795 -4.1965,18.5857 -8.0735,22.6841 -6.7175,7.1014 -10.4465,44.6732 -8.356,84.1888 0.5657,10.6938 -1.4634,23.7002 -4.393,30.4236 50.9445,23.8375 83.5452,35.909 96.8488,35.8221 z m 143.6453,-10.1857 c 19.9495,-0.01 49.4654,-2.8091 65.0165,-7.2848 13.2153,-3.8034 17.6156,-69.5173 5.3433,-79.7922 -4.6308,-3.8772 -16.8175,-7.0486 -27.0806,-7.0486 -15.4577,0 -18.7374,2.1773 -19.1119,12.6885 -0.7542,21.1643 -18.8184,69.0362 -26.3344,69.7878 -3.8772,0.3877 -9.5869,1.0227 -12.6886,1.4104 -3.1017,0.3877 -5.64,3.5376 -5.64,7.0007 0,2.2439 8.5259,3.2437 20.4957,3.2382 z m -73.8575,-1.6289 c 12.0802,-0.172 23.5603,-4.9174 33.7758,-14.1238 6.9401,-6.2546 16.0988,-9.0812 23.3146,-7.1943 9.9604,2.6047 13.4806,-1.0721 21.7444,-22.7107 6.3458,-16.6165 8.7795,-33.8746 6.8283,-48.4217 l -3.0304,-22.6042 29.0701,0.078 c 15.9886,0.042 35.0781,1.6848 42.4212,3.6504 13.1586,3.522 13.2941,4.2926 9.4449,53.4968 l -3.9044,49.9245 32.8502,0.1439 c 18.0675,0.079 71.5566,-6.8843 119.3641,-9.7824 l 81.5296,-4.9418 -14.6674,-157.1793 c -1.4583,-15.6265 39.687,-17.2782 66.7271,-17.6411 145.8183,-2.5887 152.6058,-10.9302 143.0715,-51.4504 -8.0104,-34.0434 -7.5661,-34.9103 -28.5763,-38.4599 -31.0488,-5.2456 -55.1561,5.0279 -86.5264,36.8772 -29.8294,30.2847 -38.8646,10.5787 -38.332,-1.3359 50.7709,-46.6894 75.5217,-55.2807 166.816,-69.8606 13.7392,-4.1478 42.5441,-56.2708 46.807,-84.6985 8.8441,-58.9766 -47.8284,-117.098 -136.7654,-140.263 -38.4492,-10.015 -89.8681,-9.8753 -194.8772,0.5311 -83.4635,8.2711 -71.4086,4.104 -199.2114,68.8712 -25.0046,12.6697 -67.6469,28.6004 -94.7688,35.4028 -78.9912,19.8117 -99.9581,42.2179 -83.551,89.2833 4.8392,13.8814 3.2485,17.3353 -15.2128,33.0527 -11.3388,9.6535 -29.4541,23.4942 -40.2575,30.7577 -25.2029,16.9445 -27.8916,33.0023 -7.1233,42.542 9.7301,4.4695 16.3035,5.0572 17.4688,1.5614 1.0275,-3.0825 10.0594,-14.81 20.071,-26.0609 14.6202,-16.4298 23.335,-21.0341 44.2775,-23.3947 25.1797,-2.8381 27.0242,-1.991 53.7047,24.6896 15.1961,15.1961 28.9623,32.7292 30.5925,38.9626 3.9223,14.9988 -4.0877,35.6686 -15.5236,40.0569 -9.2584,3.5529 -22.0864,-9.3785 -14.7775,-14.8965 11.5667,-8.7329 5.8553,-27.9636 -13.2997,-44.782 -17.1678,-15.0735 -24.3026,-17.718 -43.9293,-16.2874 -21.4716,1.565 -24.4931,3.8116 -36.1205,26.8692 -10.573,20.967 -12.6885,34.339 -12.6885,80.2008 0,46.7431 2.169,59.943 14.3867,87.5691 16.8604,38.1247 32.526,56.6356 56.6285,66.9137 7.5368,3.2139 15.0009,4.7572 22.2489,4.654 z m 428.1558,-26.3345 131.9531,-13.55 -12.8448,-131.0242 -131.6868,4.059 12.5785,140.5152 z m 181.6628,-22.3679 c 4.5673,0.02 10.0168,-2.1414 16.0529,-6.5956 7.4393,-5.4896 9.2874,-10.1197 5.5316,-13.8627 -3.1017,-3.091 -12.8195,-7.3943 -21.5934,-9.5621 -14.9728,-3.6996 -15.8375,-2.9463 -14.0972,12.2426 1.3347,11.6487 6.494,17.7438 14.1061,17.7778 z m 53.8254,-4.3183 83.988,-8.9191 -6.2599,-22.5598 c -0.7277,-5.6425 -70.3408,11.1718 -81.6237,13.4133 l 3.8956,18.0656 z m -20.3393,-44.6932 c 1.2583,0.01 2.5279,0.01 3.8085,0 23.2223,-0.162 49.9197,-3.1979 72.3458,-8.944 57.7195,-14.789 77.8284,-31.577 78.1278,-65.2172 0.1986,-22.3238 -14.1241,-39.7416 -41.0748,-49.953 -8.7315,-3.3083 -21.419,-5.8115 -28.1962,-5.5671 -32.8158,1.2012 -86.4437,17.8581 -116.7848,36.2892 -29.8663,18.1429 -33.6947,22.5124 -33.6265,38.3925 0.1246,28.9655 5.5849,41.4983 21.1778,48.6029 9.1457,4.1671 25.3493,6.2681 44.2224,6.3967 z m -745.3013,-225.482 c 3.8578,0.024 9.2645,-2.491 16.179,-7.5673 8.5646,-6.2878 8.8072,-9.7848 2.2524,-32.3795 -4.652,-16.036 -8.9361,-22.7616 -11.676,-18.3285 -7.7139,14.6787 -10.6153,24.0165 -13.058,37.0656 -2.283,14.068 -0.133,21.168 6.3026,21.2097 z m 356.3197,-241.4782 39.0941,-3.6931 c 21.5024,-2.0306 53.6246,-5.1554 71.3811,-6.9438 l 32.2835,-3.2507 -9.7255,-13.1149 c -5.3499,-7.2133 -22.5395,-20.9301 -38.1988,-30.4805 -15.6591,-9.5504 -31.488,-17.3639 -35.1754,-17.3639 -3.6876,0 -12.9863,9.5162 -20.6627,21.1476 -7.6763,11.6314 -19.5904,28.4726 -26.4766,37.4243 l -12.5197,16.275 z m -46.2937,-554.3464 c 4.948,-0.1423 8.8746,-4.9312 8.8746,-13.9516 0,-11.2788 -2.8182,-14.0972 -14.0971,-14.0972 -15.7767,0 -16.5971,1.7148 -8.2619,17.2893 3.9575,7.3944 9.1185,10.885 13.4844,10.7595 z m -310.4737,-32.7721 c 38.4409,0.1916 134.3851,-6.1008 138.6873,-10.2247 6.0024,-5.7537 -10.7293,-21.9949 -27.6632,-26.8514 -12.591,-3.6112 -24.3345,-3.0214 -37.9661,1.9078 -17.8552,6.4565 -20.7735,6.0219 -30.6404,-4.5688 -10.7872,-11.5788 -10.7818,-11.8312 0.4868,-23.0998 12.5815,-12.5815 20.2069,-14.3031 25.4907,-5.7536 1.9171,3.1016 14.7556,5.6399 28.5301,5.6399 l 25.0449,0 0,-22.558 0,-22.5579 -29.6084,0.7425 c -41.0294,1.027 -106.0243,8.9356 -110.493,13.4453 -5.5297,5.5802 -3.2911,87.2345 2.5384,92.6033 0.9134,0.8411 6.7219,1.2312 15.5929,1.2754 z m -623.14304,-5.2935 c -0.0353,-1.2683 -0.0857,-2.5344 -0.22737,-3.7943 -0.68789,-6.1142 -1.10188,-7.4212 -2.08012,-10.818 0.62086,-0.032 1.2286,-0.067 1.88116,-0.094 5.59541,-0.2273 47.00808,-7.115 102.99504,-16.4028 -1.70684,3.8027 -3.40616,7.6059 -4.97913,11.4451 -1.07536,2.6246 -1.6635,4.0553 -2.35545,5.7376 -43.14638,6.6544 -78.48152,11.9339 -95.23413,13.9267 z m 892.54374,-5.0822 c 14.7014,0 26.3701,-0.3016 31.4558,-0.8953 l 18.4918,-2.1582 0,-41.6787 c 0,-36.3433 -1.2618,-41.5389 -9.8676,-40.5987 -5.428,0.5929 -42.0257,2.4961 -81.327,4.2295 -39.3014,1.7333 -73.0822,4.7874 -75.069,6.7874 -1.9868,2.0004 -1.8896,18.8598 0.215,37.4653 l 3.8263,33.8271 62.6184,2.144 c 17.2198,0.5888 34.9549,0.8806 49.6563,0.8776 z"
         id="path4308"
         inkscape:connector-curvature="0" /><path
         style="opacity:1;fill:#000000;fill-opacity:1;fill-rule:nonzero;stroke:#000000;stroke-width:0.90949553;stroke-miterlimit:4;stroke-dasharray:none;stroke-opacity:1"
         d="m 1970.1973,2626.7759 c -21.7347,8.7241 -116.445,13.2264 -135.8594,6.4585 -17.3237,-6.0391 -24.2946,-0.4452 -10.539,8.4576 3.877,2.5093 40.9913,8.4547 82.4761,13.2122 71.0141,8.1437 76.7407,8.0615 97.8853,-1.4051 16.2794,-7.2885 21.5161,-12.5105 19.0334,-18.9801 -1.8837,-4.9088 -3.4248,-9.9864 -3.4248,-11.2835 0,-4.3228 -36.4712,-1.7179 -49.5716,3.5404 z"
         id="path4310"
         inkscape:connector-curvature="0" /><path
         style="opacity:1;fill:#000000;fill-opacity:1;fill-rule:nonzero;stroke:#000000;stroke-width:0.90949553;stroke-miterlimit:4;stroke-dasharray:none;stroke-opacity:1"
         d="m 2220.9104,2584.2629 c -34.4402,13.0107 -147.6086,21.76 -123.7751,59.0548 61.6717,-4.8455 113.7389,-29.6824 152.6724,-49.0347 7.657,-3.4887 12.5828,-8.5098 10.9461,-11.1579 -4.2057,-6.805 -32.7148,-5.9908 -39.8434,1.1378 z"
         id="path4312"
         inkscape:connector-curvature="0"
         sodipodi:nodetypes="cccsc" /><path
         style="opacity:1;fill:#000000;fill-opacity:1;fill-rule:nonzero;stroke:#000000;stroke-width:0.90949553;stroke-miterlimit:4;stroke-dasharray:none;stroke-opacity:1"
         d="m 2372.233,2621.6272 c -50.4933,11.7667 -65.0335,16.9536 -61.8712,22.0707 1.8277,2.9568 -1.8411,5.3762 -8.1526,5.3762 -15.3276,0 -44.3023,18.1224 -41.6308,26.0383 3.137,9.2948 -26.5869,13.4888 -53.2081,7.5074 -30.677,-6.8926 -77.2264,2.1443 -102.8339,19.9639 -55.5487,38.6547 -101.6858,91.0362 -101.6858,115.4484 0,14.7604 17.5371,2.9587 42.1427,-28.3603 57.0227,-72.5806 92.5475,-94.6046 140.902,-87.3534 14.0878,2.1125 25.614,5.881 25.614,8.3744 0,2.4934 -5.2612,11.2218 -11.6915,19.3967 -6.4303,8.1749 -10.8714,18.7901 -9.8691,23.5897 1.3763,6.589 6.8186,4.0016 22.2217,-10.5645 47.3415,-44.7696 130.362,-92.1179 171.3763,-97.7395 34.9034,-4.7841 33.4079,3.9664 -9.417,55.0975 -19.1178,22.8257 -40.4574,54.2239 -47.4215,69.7737 -33.6912,75.2282 -114.5949,254.2513 19.5398,16.907 14.5297,-25.7094 39.6868,-68.68 58.8379,-93.9291 19.1511,-25.2492 37.2108,-49.106 40.1325,-53.0153 3.4652,-4.6362 2.7349,-10.2136 -2.1003,-16.0396 -8.227,-9.9129 -35.1175,-10.8773 -70.8851,-2.5422 z"
         id="path4314"
         inkscape:connector-curvature="0"
         sodipodi:nodetypes="scssssssssscsssssssss" /><path
         style="opacity:1;fill:#000000;fill-opacity:1;fill-rule:nonzero;stroke:#000000;stroke-width:1;stroke-miterlimit:4;stroke-dasharray:none;stroke-opacity:1"
         d=""
         id="path4316"
         inkscape:connector-curvature="0"
         transform="matrix(0.8,0,0,-0.8,0,3264)" /><path
         style="opacity:1;fill:#000000;fill-opacity:1;fill-rule:nonzero;stroke:#000000;stroke-width:0.90949553;stroke-miterlimit:4;stroke-dasharray:none;stroke-opacity:1"
         d="m 1857.1113,2900.3307 c -60.1415,24.2618 -136.232,78.1606 -136.232,96.5002 0,11.4721 3.8324,9.6192 38.4465,-18.5872 35.4372,-28.8774 111.015,-68.7994 117.6623,-62.1522 2.3328,2.3328 -0.3035,17.0377 -5.8584,32.6778 -11.1362,31.3548 -8.0707,42.2955 6.6293,23.66 13.0209,-16.5067 53.2331,-35.7445 74.7154,-35.7445 14.7358,0 17.0365,1.6741 13.5616,9.8689 -20.7195,48.8638 -24.1195,69.083 -11.6162,69.083 4.8914,0 9.4288,-8.6729 11.7617,-22.4825 2.0892,-12.3652 10.0503,-31.695 17.6914,-42.9549 13.1259,-19.342 13.3655,-21.0554 4.3403,-31.0282 -7.6391,-8.4412 -14.1904,-9.8269 -32.7041,-6.9174 -12.7332,2.0011 -28.9404,7.3916 -36.0161,11.979 -17.7324,11.4963 -21.8948,4.6412 -11.0241,-18.1552 12.9501,-27.1565 4.1538,-28.1408 -51.3576,-5.7468 z"
         id="path4318"
         inkscape:connector-curvature="0" /><path
         style="opacity:1;fill:#000000;fill-opacity:1;fill-rule:nonzero;stroke:#000000;stroke-width:0.90949553;stroke-miterlimit:4;stroke-dasharray:none;stroke-opacity:1"
         d="m 2321.4781,2870.7867 c -9.305,7.1109 -37.2202,25.4041 -62.0337,40.6516 -59.4396,36.5249 -87.4319,63.0272 -107.532,101.8083 -9.0944,17.5467 -18.8533,36.2479 -21.6863,41.5582 -8.1436,15.2647 -61.9738,37.6741 -141.4741,58.8953 -97.277,25.9665 -165.8309,54.7072 -154.188,66.3501 4.9945,4.9944 230.0437,-62.6986 267.639,-79.7282 36.0515,-16.3303 53.3996,-35.6246 81.1153,-90.2149 21.8992,-43.1341 75.5506,-91.3472 131.2146,-117.9145 27.0825,-12.926 49.2409,-25.9673 49.2409,-28.9807 0,-10.032 -25.15,-5.5278 -42.2957,7.5748 z"
         id="path4320"
         inkscape:connector-curvature="0"
         sodipodi:nodetypes="sssssssssss" /><path
         style="opacity:1;fill:#000000;fill-opacity:1;fill-rule:nonzero;stroke:#000000;stroke-width:0.90949553;stroke-miterlimit:4;stroke-dasharray:none;stroke-opacity:1"
         d="m 1731.7654,3150.249 c 9.5691,17.88 91.2105,45.912 132.9193,45.6385 21.0562,-0.138 21.829,-0.6991 11.6108,-8.4277 -6.0208,-4.5539 -17.4516,-8.2797 -25.4018,-8.2797 -12.5819,0 -47.9759,-11.3538 -103.5942,-33.2314 -21.0945,-8.2976 -22.1238,-8.0126 -15.5341,4.3003 z"
         id="path4322"
         inkscape:connector-curvature="0" /><path
         style="opacity:1;fill:#000000;fill-opacity:1;fill-rule:nonzero;stroke:#000000;stroke-width:1;stroke-miterlimit:4;stroke-dasharray:none;stroke-opacity:1"
         d=""
         id="path4324"
         inkscape:connector-curvature="0"
         transform="matrix(0.8,0,0,-0.8,0,3264)" /><path
         style="opacity:1;fill:#000000;fill-opacity:1;fill-rule:nonzero;stroke:#000000;stroke-width:0.90949553;stroke-miterlimit:4;stroke-dasharray:none;stroke-opacity:1"
         d="m 1410.416,2992.5278 c 10.3118,19.2678 60.3684,51.1944 133.9332,85.4237 39.7104,18.4771 81.5553,38.6439 92.9885,44.8151 11.4334,6.1712 24.495,9.7978 29.026,8.0591 10.0121,-3.842 34.1584,20.543 49.4744,49.9634 13.2842,25.5174 20.6696,23.6598 17.3966,-4.3756 -1.3079,-11.2032 10.2193,-26.9853 8.5576,-25.3237 -1.6617,1.6617 -19.7668,7.7093 -23.1751,3.6912 -18.5833,-21.9068 -78.8611,-67.7769 -80.9259,-61.5827 -3.1141,9.3422 -26.2936,3.2945 -50.604,-13.2029 -10.4164,-7.0689 -32.1571,-17.176 -48.3127,-22.4604 -33.8214,-11.0627 -67.0864,-27.0216 -78.1304,-37.4832 -12.2669,-11.62 -48.8709,-38.2516 -52.5752,-38.2516 -1.8668,0 -0.8108,4.8274 2.347,10.7276 z"
         id="path4326"
         inkscape:connector-curvature="0"
         sodipodi:nodetypes="ssssssccssssss" /><path
         style="opacity:1;fill:#000000;fill-opacity:1;fill-rule:nonzero;stroke:#000000;stroke-width:0.90949553;stroke-miterlimit:4;stroke-dasharray:none;stroke-opacity:1"
         d="m 1338.3682,2818.0446 c -0.9928,1.0108 16.9363,66.5361 19.1332,74.9412 4.9141,18.8182 28.8488,83.1944 32.7258,88.0217 1.557,1.9386 6.1648,3.5052 10.2398,3.4814 4.1305,-0.024 6.0225,-0.9599 4.2757,-2.1148 -1.7233,-1.1394 -3.9869,-7.868 -5.0305,-14.9526 -2.2929,-15.5686 -14.3491,-41.7577 -29.4809,-64.0404 -6.1402,-9.0419 -26.5558,-98.1019 -12.1371,-22.8965 -0.5353,-3.5512 -18.7331,-63.4509 -19.726,-62.44 z"
         id="path4328"
         inkscape:connector-curvature="0"
         sodipodi:nodetypes="ccccscscc" /><path
         style="opacity:1;fill:#000000;fill-opacity:1;fill-rule:nonzero;stroke:#000000;stroke-width:0.90949553;stroke-miterlimit:4;stroke-dasharray:none;stroke-opacity:1"
         d="m 1383.5856,2407.0248 c -1.9382,3.5836 -4.0743,16.7517 -4.7468,29.2625 -1.0819,20.1228 -0.3761,24.5368 6.1164,38.2611 10.2672,21.7028 28.8277,46.8154 38.1728,51.6479 6.9053,3.5709 8.6207,3.5497 13.9345,-0.1723 7.3388,-5.1403 7.7943,-13.3856 1.1254,-20.3762 -7.4401,-7.7989 -12.3756,-17.2896 -10.5378,-20.2633 0.9004,-1.4569 14.2045,-9.1044 29.5647,-16.9943 43.364,-22.2746 48.4289,-27.7742 36.1307,-39.2315 -9.0587,-8.4397 -13.8139,-7.1969 -27.7833,7.2614 -15.4931,16.0353 -26.1633,20.8257 -46.3866,20.8257 -14.495,0 -15.8907,-0.5808 -18.632,-7.7541 -1.6297,-4.2649 -2.55,-16.6364 -2.045,-27.4923 0.8593,-18.4726 0.5237,-19.7941 -5.2354,-20.614 -4.1014,-0.5839 -7.3287,1.2967 -9.6776,5.6394 z"
         id="path4332"
         inkscape:connector-curvature="0" /><path
         style="opacity:1;fill:#000000;fill-opacity:1;fill-rule:nonzero;stroke:#000000;stroke-width:0.90949553;stroke-miterlimit:4;stroke-dasharray:none;stroke-opacity:1"
         d="m 1439.7067,1510.347 c -2.0113,1.1379 -6.1351,5.674 -9.164,10.0801 -5.145,7.4846 -5.4946,8.6343 -5.3176,17.4895 0.2385,11.9268 3.1566,18.3196 12.6076,27.6198 13.319,13.1064 27.1031,16.6577 40.9243,10.5441 3.7397,-1.6544 7.897,-4.0011 9.2385,-5.2151 3.5179,-3.1837 7.0047,-19.7143 5.4592,-25.8821 -3.3701,-13.4503 -4.4009,-15.2707 -12.4014,-21.9047 -14.7153,-12.2018 -32.5671,-17.6988 -41.3466,-12.7316 z m 22.3636,28.3592 c 6.6408,2.7748 11.6194,7.4197 10.6527,9.9389 -0.412,1.0735 -3.1298,2.6652 -6.0397,3.537 -4.3382,1.2997 -6.1522,1.1709 -10.0755,-0.7156 -6.1798,-2.9715 -11.6461,-10.5061 -9.4991,-13.093 2.0587,-2.4807 8.5752,-2.3358 14.9616,0.3327 z"
         id="path4334"
         inkscape:connector-curvature="0" /><path
         style="opacity:1;fill:#000000;fill-opacity:1;fill-rule:nonzero;stroke:#000000;stroke-width:0.90949553;stroke-miterlimit:4;stroke-dasharray:none;stroke-opacity:1"
         d="m 1527.9551,1700.5545 c -9.4601,4.3896 -11.6111,7.9467 -12.6985,21.0008 -0.934,11.2138 -0.7413,12.5981 2.8767,20.66 3.2629,7.2707 5.2019,9.5251 12.2272,14.2166 8.3843,5.5987 15.9599,8.051 20.5216,6.6427 10.3663,-3.2003 22.0807,-8.1095 23.0683,-9.6675 0.6555,-1.0339 1.2015,-6.2282 1.2133,-11.5427 0.019,-8.4256 -0.642,-10.9255 -5.1608,-19.525 -5.6175,-10.69 -10.9996,-16.8601 -17.7535,-20.3527 -5.9915,-3.0984 -19.0449,-3.8678 -24.2943,-1.4322 z m 22.3654,28.6073 c 4.6748,4.6747 4.9372,8.9837 0.5448,8.9408 -5.6716,-0.056 -15.156,-5.2128 -15.156,-8.2418 0,-5.5277 9.336,-5.9743 14.6112,-0.699 z"
         id="path4336"
         inkscape:connector-curvature="0" /><path
         style="opacity:1;fill:#000000;fill-opacity:1;fill-rule:nonzero;stroke:#000000;stroke-width:0.90949553;stroke-miterlimit:4;stroke-dasharray:none;stroke-opacity:1"
         d="m 1602.152,1866.5385 c -5.4987,2.201 -14.2073,9.7642 -16.6238,14.4374 -1.766,3.4153 -2.0843,6.8745 -1.4542,15.8045 0.9497,13.4574 2.4537,17.2407 10.0906,25.3822 7.4205,7.9111 26.8345,20.4138 31.604,20.3532 5.6276,-0.072 10.0529,-4.7171 12.3495,-12.9648 2.8655,-10.2906 2.5086,-19.5902 -1.1696,-30.4795 -2.6675,-7.897 -4.5541,-10.6145 -12.7098,-18.3082 -5.2677,-4.9692 -9.5774,-9.8079 -9.5774,-10.7526 0,-0.9448 -1.616,-2.454 -3.591,-3.3539 -4.161,-1.8958 -4.4675,-1.8999 -8.9183,-0.1183 z m 12.9965,33.9472 c 5.8904,4.0242 7.9418,6.6786 7.0194,9.0825 -1.1647,3.0352 -6.291,2.359 -12.1139,-1.5978 -5.7377,-3.8988 -6.6282,-6.7673 -2.7945,-9.0002 3.2319,-1.8824 2.7919,-1.9669 7.889,1.5155 z"
         id="path4338"
         inkscape:connector-curvature="0" /><path
         style="opacity:1;fill:#000000;fill-opacity:1;fill-rule:nonzero;stroke:#000000;stroke-width:3.27418399;stroke-miterlimit:4;stroke-dasharray:none;stroke-opacity:1"
         d="m 2137.4645,2637.9559 c -4.9347,1.1249 -9.124,2.1598 -9.3093,2.2999 -0.1854,0.1401 1.3116,7.58 3.3265,16.533 2.0149,8.9531 4.2283,19.0876 4.9184,22.5213 0.6902,3.4336 1.4364,6.3794 1.6581,6.5461 0.2218,0.1668 5.0015,-0.7952 10.6216,-2.1377 l 10.2185,-2.441 0,-7.6478 c 0,-6.0317 -0.7047,-9.743 -3.3346,-17.5636 -1.834,-5.4537 -3.8974,-12.271 -4.5856,-15.1496 -1.438,-6.0161 -0.7604,-5.8677 -13.5136,-2.9606 z"
         id="path4437"
         inkscape:connector-curvature="0" /><path
         style="opacity:1;fill:#000000;fill-opacity:1;fill-rule:nonzero;stroke:#000000;stroke-width:5.36602402;stroke-miterlimit:4;stroke-dasharray:none;stroke-opacity:1"
         d="m 2113.04,2576.8209 c 0,2.4441 6.2087,30.5444 6.9062,31.2572 0.4347,0.4443 5.5679,-0.6773 11.4071,-2.4923 8.4098,-2.6139 10.4769,-3.6108 9.9434,-4.7953 -0.5276,-1.1711 -4.5442,-13.2729 -7.8587,-23.6768 -0.4831,-1.5161 -20.398,-1.8019 -20.398,-0.2928 z"
         id="path4439"
         inkscape:connector-curvature="0" /><path
         style="display:inline;opacity:1;fill:#000000;fill-rule:evenodd;stroke:#000000;stroke-width:1.34035265px;stroke-linecap:butt;stroke-linejoin:miter;stroke-opacity:1;filter:url(#filter4226)"
         d="m 2120.9392,915.08543 c 0,0 -39.6374,-2.70104 -40.566,26.81402 -1.0739,34.13252 63.5771,33.76115 66.9467,16.7544 8.7867,-44.34492 -26.3807,-43.56842 -26.3807,-43.56842 z"
         id="path4234"
         inkscape:connector-curvature="0"
         sodipodi:nodetypes="cssc"
         transform="matrix(0.90949555,0,0,-0.90949555,15.702065,3348.641)" /><path
         style="fill:#000000;fill-rule:evenodd;stroke:none;stroke-width:0.80000001px;stroke-linecap:butt;stroke-linejoin:miter;stroke-opacity:1"
         d="m 788.06403,1489.7239 -43.0185,5.7936 -13.81196,-63.9642 -20.29958,-6.4034 c 13.99423,67.8233 15.19455,80.4706 41.97912,166.1297 l 9.1412,-21.393 -13.57079,-56.651 40.28976,-5.7808 z"
         id="path4668"
         inkscape:connector-curvature="0"
         sodipodi:nodetypes="ccccccccc" /></g><g
       inkscape:groupmode="layer"
       id="layer2"
       inkscape:label="Arme2"
       style="display:inline;opacity:1;filter:url(#filter4226)"><g
         inkscape:groupmode="layer"
         id="layer3"
         inkscape:label="Hände"
         style="display:inline"><path
           style="display:inline;opacity:1;fill:#000000;fill-opacity:1;fill-rule:nonzero;stroke:none;stroke-width:5.9000001;stroke-miterlimit:4;stroke-dasharray:none;stroke-opacity:1"
           d="m 1484.7993,2891.0549 c -10.7783,0.1764 -22.9429,-0.8943 -27.0323,-2.3792 -15.4218,33.0669 -41.5032,26.2268 -56.5801,28.2769 -9.6281,1.3003 -15.4065,3.6676 -18.9356,9.7444 -9.123,15.7091 -20.0965,18.3348 -49.941,11.9496 -47.1823,-10.0945 -67.5667,-34.0953 -98.7397,-116.2563 -22.7535,-59.9709 -37.0631,-145.7946 -41.2291,-184.7576 -1.9749,-18.4698 22.8921,-36.5619 26.2686,41.9875 4.6098,30.1352 4.031,41.3402 7.2341,50.986 2.0007,5.727 7.3953,23.3624 11.993,39.1883 13.1677,45.3789 43.2869,111.6317 56.8572,125.0672 12.3042,12.1827 47.4016,22.6299 56.71,16.8812 7.5943,-4.6903 7.1778,-6.6237 -4.0335,-18.7175 -25.1755,-27.1564 -29.5063,-34.092 -23.5755,-37.7549 3.2404,-2.001 14.1591,3.5125 25.1183,12.6843 11.8827,9.9449 25.6973,16.6388 35.6899,17.2944 48.1,15.6938 25.9152,-19.4264 20.7567,-25.8736 -2.345,-2.8883 -4.1373,-7.7914 -2.6182,-12.3028 2.2066,-6.5533 7.8906,-6.7323 27.042,1.9113 75.0888,33.8888 92.6923,8.9802 77.1037,-24.3684 -8.5945,-18.3868 -2.2689,-21.5333 21.9822,-10.934 25.827,11.2876 39.5092,4.8492 46.5002,-21.8818 9.2288,-35.2889 -11.1815,-87.799 -46.0917,-118.5816 -15.2175,-13.4187 -18.7806,-11.5411 -15.5815,8.2095 1.3737,8.4835 -0.042,16.9929 -3.1465,18.9102 -14.32,8.8442 -27.9639,-47.3849 -18.1739,-74.8995 5.6468,-15.8707 21.0072,-25.7794 29.6978,-19.1576 4.2594,3.2454 4.8471,9.7776 1.6247,18.0545 l -5.0495,12.9693 19.4893,14.1297 c 26.2709,19.0599 30.3155,24.338 47.7445,27.8278 34.201,13.8824 -27.5645,-98.4994 -35.8128,-110.4757 -43.8962,-63.4181 -27.2056,-64.6602 1.2254,-28.7685 31.1276,39.2959 59.9996,92.4283 64.3989,127.743 3.4552,27.7347 -4.1807,48.089 -17.048,45.4452 -13.8494,-2.8451 -15.9335,6.5839 -7.7516,35.0673 6.8138,23.7218 7.0419,36.7062 1.0875,61.8953 -7.8642,33.2682 -21.7167,37.7819 -41.233,39.2321 -9.7674,0.7259 -13.7458,4.051 -19.6784,15.3371 -9.8499,18.7376 -22.4884,25.9259 -46.2674,26.3153 z"
           id="path4757"
           inkscape:connector-curvature="0"
           sodipodi:nodetypes="cccssssccsssssscccssssssssssccccssssssssc" /><g
           style="display:inline;opacity:1;filter:url(#filter4226)"
           id="g4862"
           transform="matrix(0.96726115,-0.59739268,0.59739268,0.96726115,-493.38528,386.64244)"><path
             sodipodi:nodetypes="sscsssssscsss"
             inkscape:connector-curvature="0"
             id="path4858"
             d="m 490.72279,2672.2586 c -3.58631,-4.2201 -9.92442,-19.8878 -14.87098,-32.8282 l -9.72057,-25.4293 9.71601,-7.5935 c 18.6538,-14.5787 -6.94695,-28.8451 -25.55294,-11.897 -2.33414,2.1262 -4.64141,5.0394 -5.93968,5.429 -4.64682,1.3946 -3.23304,-8.9441 -5.19638,-19.409 -1.58497,-8.4482 -4.10667,-26.6087 -2.58959,-32.6532 2.67349,-10.652 8.84513,-11.5971 44.95644,-12.3601 l 38.90973,-0.8221 -0.41075,58.0188 c -0.34249,48.3754 -11.28697,88.0395 -17.40402,88.0395 -1.75144,0 -8.31095,-4.2749 -11.89727,-8.4949 z"
             style="opacity:1;fill:#ffe6d5;fill-opacity:1;fill-rule:nonzero;stroke:none;stroke-width:5.9000001;stroke-miterlimit:4;stroke-dasharray:none;stroke-opacity:1" /><path
             sodipodi:nodetypes="ssscssscscsssssscssccsccsssccsssss"
             inkscape:connector-curvature="0"
             id="path4860"
             d="m 338.85431,2770.6192 c -7.96206,-4.1823 -22.99473,-19.4995 -32.56065,-33.1771 -8.59258,-12.2858 -17.66425,-22.3346 -20.16284,-22.3346 -0.94289,0 -3.04412,0.9723 -4.6694,2.1608 -2.33939,1.7106 -3.17141,4.9431 -3.99348,15.5155 -1.71178,22.0145 -6.69892,23.6158 -23.40005,7.5137 -12.10095,-11.667 -16.24529,-17.9551 -22.03674,-33.4358 -5.17912,-13.844 -9.56731,-19.9685 -13.86792,-19.3554 -4.75794,0.6784 -5.04427,9.7888 -1.02043,32.4678 1.79976,10.1438 2.84917,19.1278 2.33203,19.9646 -1.85129,2.9954 -9.68765,1.4771 -15.26913,-2.9585 -7.13341,-5.669 -17.2462,-17.7047 -21.63429,-25.7481 -2.97156,-5.4469 -3.36688,-8.4618 -3.25214,-24.8024 0.21849,-31.1158 6.02387,-66.2578 19.07806,-115.4863 6.79376,-25.6199 9.26209,-32.1491 23.14817,-61.231 8.54894,-17.9043 16.81609,-36.5201 18.37145,-41.3686 l 2.82794,-8.8153 11.62614,7.1245 c 21.47263,13.1585 69.82063,35.6377 96.10942,44.6856 14.06763,4.8418 30.55337,11.0821 36.63499,13.8675 30.09799,7.9854 21.36747,6.0525 57.55877,13.9597 12.68331,10.6717 9.69976,43.4441 3.3603,54.1217 -9.70407,16.3447 -15.76683,28.4456 -19.71213,36.1335 -3.41222,10.8119 -4.98346,19.7608 -2.00509,27.1212 0.48274,2.5482 5.63961,2.4396 10.7741,-2.9112 2.02826,-2.1137 8.96876,-23.1664 13.68426,-19.7934 2.94523,2.1067 8.81517,12.5601 10.17327,21.3658 0.97319,6.3099 3.0108,17.0938 3.12865,21.0482 0.0421,32.0802 -7.19183,68.1892 -34.20147,87.0089 -5.44858,3.609 -10.39573,3.002 -15.21117,3.002 -7.94591,0 -12.65912,-3.5664 -24.76607,-18.7403 -12.35934,-15.4901 -17.71676,-15.7255 -20.05935,-0.8812 -1.87065,11.8538 -4.42062,18.396 -8.92657,22.9019 -5.48475,5.4847 -12.97066,5.85 -22.05863,1.0763 z"
             style="opacity:1;fill:#ffe6d5;fill-opacity:1;fill-rule:nonzero;stroke:none;stroke-width:5.9000001;stroke-miterlimit:4;stroke-dasharray:none;stroke-opacity:1" /></g></g><path
         style="opacity:1;fill:#ff0000;fill-opacity:1;fill-rule:nonzero;stroke:none;stroke-width:5.9000001;stroke-miterlimit:4;stroke-dasharray:none;stroke-opacity:1"
         d=""
         id="path4289"
         inkscape:connector-curvature="0" /><path
         style="opacity:1;fill:#000000;fill-opacity:1;fill-rule:nonzero;stroke:none;stroke-width:5.9000001;stroke-miterlimit:4;stroke-dasharray:none;stroke-opacity:1"
         d="m 2097.3482,2561.9667 c -5.9327,-5.9327 23.7286,-51.4107 37.6968,-74.6963 18.0221,-30.0439 35.849,-57.3186 68.6264,-137.4437 9.3163,-22.7737 16.9387,-42.7926 16.9387,-44.4863 0,-1.6938 3.3686,-13.1514 7.486,-25.4614 10.8205,-32.3502 16.9304,-60.3751 13.1629,-60.3751 -2.8012,0 -15.3626,12.434 -30.7141,30.4026 -3.2346,3.7862 -8.2373,6.0541 -12.1267,5.4978 -12.4244,-1.7766 -9.3083,-11.0224 10.8375,-32.1551 33.4925,-35.1335 69.2556,-87.1335 80.9653,-117.7252 3.8395,-10.0303 11.12,-27.8111 16.1789,-39.513 13.5763,-31.4024 22.5385,-65.4279 37.4913,-142.3377 0.5947,-3.0591 1.7585,-7.8462 2.5862,-10.6382 0.8277,-2.7918 2.225,-11.5726 3.1049,-19.5126 0.8801,-7.9401 3.2875,-27.0887 5.35,-42.5525 2.2735,-17.0459 3.7931,-65.8126 3.8595,-123.859 0.1012,-88.7086 -0.4168,-98.3667 -7.0552,-131.4493 -3.9406,-19.6385 -6.3761,-37.7612 -5.4123,-40.2729 2.1197,-5.5241 15.8324,-6.0728 19.1767,-0.7674 5.1146,8.1136 15.4047,69.1212 16.5333,98.0227 2.9971,76.7469 1.1987,150.1467 -5.2502,214.282 -5.1692,51.4084 -23.891,138.5943 -37.855,176.2889 -5.264,14.2095 -12.0216,32.8238 -15.0169,41.3651 -7.1644,20.4298 -21.7304,49.5824 -32.8456,65.7377 -7.8924,11.4716 -13.6717,30.3727 -16.5074,53.9887 -0.5019,4.1792 -1.7487,8.9665 -2.7708,10.6381 -1.0221,1.6718 -4.2054,13.2978 -7.0739,25.8354 -7.4279,32.466 -9.3327,38.6533 -28.0286,91.0418 -33.1665,92.9375 -115.3989,230.8746 -129.7469,233.0325 -3.2048,0.4819 -7.5207,-0.8174 -9.5908,-2.8876 z"
         id="path4295"
         inkscape:connector-curvature="0"
         sodipodi:nodetypes="ssssssscssccccssscssssscccsscs" /><path
         style="opacity:1;fill:#000000;fill-opacity:1;fill-rule:nonzero;stroke:none;stroke-width:5.9000001;stroke-miterlimit:4;stroke-dasharray:none;stroke-opacity:1"
         d="m 1200.2794,2642.9956 c -33.657,-4.3984 -8.9001,-15.2248 -55.8629,-94.1563 -73.2372,-123.0915 -136.5845,-262.1118 -194.8338,-427.5772 -66.28072,-188.2792 -68.41561,-220.2573 -26.869,-402.4526 21.7308,-95.2971 53.5712,-177.4189 115.0847,-296.8235 34.2975,-64.0999 41.1305,-88.6604 103.281,-123.0371 181.9069,-100.6165 477.1994,-114.5628 477.0572,-102.5119 -2.3619,6.1549 35.4521,19.2149 -9.8767,12.6098 -69.3386,-6.9874 -134.4399,7.1483 -206.4095,23.0607 -91.5759,20.2476 -188.0625,48.0287 -250.9512,89.5283 -52.7273,34.7942 -75.2035,71.9889 -95.2935,111.8957 -79.4656,158.1149 -112.4912,258.9335 -134.4147,410.3321 -9.387,64.8248 -9.3458,71.0071 0.7591,113.9293 12.764,54.2171 69.0848,217.2984 106.7909,309.2214 45.6386,111.2608 115.8245,208.1824 153.7922,306.7099 l 17.267,44.8084 57.9319,-2.5549 c 46.387,-2.0457 169.6594,-30.6153 197.8773,-44.601 27.018,-13.3911 65.1532,-43.4684 65.1532,-58.0069 0,-15.5742 -23.7084,-40.9093 -53.2529,-120.4337 -77.0783,-207.4702 -98.4467,-292.1678 -98.7366,-391.3619 -0.1514,-51.8111 19.9263,-140.1386 52.1116,-229.253 32.7357,-90.6384 47.103,-119.9255 58.8317,-119.9255 11.9385,0 11.1824,7.9423 -3.4942,36.7109 -14.6177,28.653 -50.5685,129.9951 -65.682,185.1513 -22.173,80.92 -26.0782,120.1936 -18.2626,183.6634 10.9705,89.0916 23.1566,131.0399 96.4522,332.0166 47.5206,130.3016 73.9139,116.0131 54.2254,141.043 -22.1873,28.2065 -84.3238,67.6034 -168.3681,85.9365 -103.4266,22.5611 -139.3901,30.6414 -174.3077,26.0782 z"
         id="path4299"
         inkscape:connector-curvature="0"
         sodipodi:nodetypes="sssscsccsscsssscssssssssssssss" /><path
         style="opacity:1;fill:#000000;fill-opacity:1;fill-rule:nonzero;stroke:none;stroke-width:5.9000001;stroke-miterlimit:4;stroke-dasharray:none;stroke-opacity:1"
         d="m 1634.9795,3906.9181 c -39.4097,-4.5871 -83.9308,-9.6332 -65.4399,-41.9796 12.7054,-22.2258 40.2558,-147.7152 11.3438,-205.3291 -41.71,-83.1171 -72.5896,-202.8739 -72.5896,-281.5171 0,-13.5118 -2.196,-24.567 -4.8801,-24.567 -2.6841,0 -13.7094,10.6116 -24.5007,23.5814 -40.7647,48.9943 -108.2269,114.1517 -153.7216,148.47 -25.9395,19.5671 -68.386,54.1791 -94.3255,76.9155 -25.9395,22.7362 -69.0468,55.5857 -95.7939,72.9988 -105.6372,68.773 -168.1942,57.0341 -278.29569,-52.2222 -31.10702,-30.8682 -64.74691,-65.6586 -74.75533,-77.3122 -28.15401,-32.7821 -100.91058,-61.1877 -103.40874,-103.1612 -1.90413,-31.9931 -37.73297,-48.0455 -23.10503,-76.8796 22.13071,-43.6231 164.9422,-110.99 289.30889,-231.1474 56.6211,-54.7047 102.9473,-103.0265 102.9473,-107.3818 0,-4.3552 -11.2865,-20.472 -25.0812,-35.815 -47.57,-52.9093 -128.02379,-196.6627 -151.43545,-270.5821 -20.34435,-64.2347 -25.23811,-100.9775 -25.12651,-188.6509 0.0995,-78.1201 1.66505,-91.8513 17.08096,-149.8112 22.57819,-84.8885 26.59632,-94.3255 40.1624,-94.3255 14.1074,0 14.069,0.8192 -2.2948,48.9309 -30.10031,88.4986 -38.1829,177.4338 -25.52282,280.8346 8.33095,68.0426 21.95672,113.0668 53.60732,177.1371 54.9372,111.2091 104.4879,181.0406 175.4828,247.307 39.243,36.6291 43.0208,42.9946 28.7642,48.4654 -5.3844,2.0662 -15.5075,-3.2752 -26.6198,-14.0455 -9.8622,-9.5588 -19.685,-17.3798 -21.8285,-17.3798 -2.1435,0 -3.8972,9.5102 -3.8972,21.1338 0,24.0884 -11.4668,43.7561 -21.7909,37.3754 -4.7742,-2.9506 -5.7504,-12.804 -3.2445,-32.752 l 3.5842,-28.5314 -132.1498,133.1654 c -151.19645,152.3584 -237.57152,146.7496 -236.87191,198.2426 0.30502,22.4472 71.20113,73.1769 81.62577,94.4841 32.35192,66.1249 145.76124,176.1534 207.91474,201.7166 52.758,21.6987 77.5726,17.0407 141.4106,-26.5446 31.8104,-21.7185 88.5348,-67.383 109.778,-88.374 4.9395,-4.881 33.7864,-27.6598 64.1038,-50.6194 88.1933,-66.7896 166.0827,-150.8833 272.0223,-293.6904 65.3,-88.0247 75.3637,-107.7558 93.5873,-183.4863 13.3002,-55.2709 14.7093,-69.8591 12.0739,-124.9952 -2.7812,-58.1853 -2.2846,-62.4213 7.3172,-62.4213 23.8284,0 25.5085,116.7978 2.9135,202.5225 -18.0072,68.3186 -27.4414,86.5488 -83.4839,161.3207 -24.4137,32.5728 -47.2204,64.1177 -50.6816,70.0995 -3.4612,5.982 -9.0791,13.6625 -12.4843,17.0675 -14.8801,14.8802 -0.8197,153.5274 24.0358,237.0113 7.723,25.9394 25.213,69.8555 38.8668,97.5908 38.3071,77.8147 16.5189,186.0933 3.1649,217.1355 -6.3986,14.8739 15.0791,18.4094 17.0805,21.6476 5.1594,8.3481 81.4469,7.2577 166.6667,-2.3819 39.6722,-4.4876 93.3545,-8.3606 119.2939,-8.6065 27.7634,-0.2629 59.7154,-4.3634 77.68,-9.9681 27.7598,-8.6606 94.6284,0.3752 108.9544,-26.2217 21.2247,-39.4044 -41.7335,-180.6571 -34.93,-402.9412 7.2847,-238.0058 11.237,-341.7806 16.4832,-432.7877 2.2869,-39.6722 3.3755,-167.0117 2.4191,-282.9765 -1.9933,-241.6955 3.3787,-309.2291 18.761,-309.2291 9.9308,0 6.8468,42.6877 7.1248,221.8392 0.4638,298.8519 0.097,326.1123 -5.8097,431.4006 -6.6982,119.4046 -2.1286,385.5606 -3.4003,482.7776 -0.9224,70.5152 51.847,275.9016 33.9545,310.7808 -23.2983,45.417 -123.8916,37.4454 -210.1399,42.2071 -35.0945,1.9375 -88.7768,5.9031 -119.2939,8.8121 -82.3029,7.8456 -129.6823,9.4956 -162.6115,5.6631 z"
         id="path4301"
         inkscape:connector-curvature="0"
         sodipodi:nodetypes="sssssssssssssssssssssssscssssscsssssssssssssscssscsssssssssssssss" /><path
         style="opacity:1;fill:#000000;fill-opacity:1;fill-rule:nonzero;stroke:none;stroke-width:5.9000001;stroke-miterlimit:4;stroke-dasharray:none;stroke-opacity:1"
         d="m 1671.4218,4035.8828 c -25.3554,-2.6842 -51.4944,-7.317 -58.0869,-10.295 -20.5947,-9.3035 -35.1186,-39.3872 -39.153,-81.0989 -2.4278,-25.1015 11.1284,-45.717 2.7066,-55.0046 48.6605,-7.8267 175.2584,0.2292 232.8349,0.3481 161.0365,0.055 222.2429,-8.1631 263.8456,-35.4222 20.5739,-13.4805 45.5306,-13.7489 40.4215,-0.4347 -5.0644,13.1976 1.3816,16.4805 63.6092,32.3957 29.1355,7.4516 65.5023,19.9401 80.8155,27.7522 37.9231,19.347 72.5994,60.1096 72.5994,85.342 0,39.869 2.4589,39.5565 -318.4655,40.4639 -162.2647,0.4587 -315.7721,-1.3621 -341.1273,-4.0465 z"
         id="path4407"
         inkscape:connector-curvature="0"
         sodipodi:nodetypes="sssccsssssss" /><path
         style="opacity:1;fill:#000000;fill-opacity:1;fill-rule:nonzero;stroke:none;stroke-width:5.9000001;stroke-miterlimit:4;stroke-dasharray:none;stroke-opacity:1"
         d="m 663.77499,3392.0499 c -8.06153,32.4311 -23.2369,94.2483 -24.59931,135.2144 -1.97885,59.503 -1.08868,62.747 36.66626,134.0173 51.18194,96.6148 94.20129,167.7695 138.23843,228.6417 19.85413,27.445 57.55453,70.1394 83.77753,94.8753 54.7452,51.6414 78.7505,59.7128 120.97,40.6831 98.6295,-82.0219 5.7102,-234.129 -38.2872,-321.1034 -3.0842,-6.3311 -6.0838,-12.7169 -8.7663,-19.2291 -7.3782,-4.7953 -14.7696,-9.6531 -21.9469,-14.5017 -58.07219,-39.2292 -78.65299,-57.5662 -157.53638,-140.3568 -24.56911,-25.7861 -43.68807,-46.3243 -58.28233,-62.9674 -33.08833,-15.9901 -44.85183,-54.5095 -70.2338,-75.2734 z"
         id="path4409"
         inkscape:connector-curvature="0"
         sodipodi:nodetypes="csscsccccscc" /></g><g
       inkscape:groupmode="layer"
       id="layer1"
       inkscape:label="Colorierung"
       style="display:inline;opacity:1"><path
         style="display:inline;opacity:1;fill:#fff6d5;fill-opacity:1;fill-rule:nonzero;stroke:none;stroke-width:5.9000001;stroke-miterlimit:4;stroke-dasharray:none;stroke-opacity:1;filter:url(#filter4682)"
         d="m 1380.2646,2080.8193 c -36.5561,-4.3466 -86.7069,-11.2911 -111.0398,-15.376 l -27.2248,-4.5704 -5.0128,-20.8955 -5.0127,-20.8954 59.3422,-119.513 c 69.1324,-139.23 81.4705,-169.9114 132.6135,-329.7717 48.7605,-152.413 60.3033,-184.5459 64.6887,-180.0794 1.9587,1.9949 12.6628,21.8454 23.787,44.1122 21.7392,43.5146 55.2299,91.381 67.1321,95.9484 4.0302,1.5465 9.178,0.9615 11.4396,-1.3 6.0467,-6.0468 0.241,-20.1146 -16.6399,-40.3197 -8.2129,-9.8302 -21.8215,-29.2295 -30.2413,-43.1095 -28.2479,-46.5667 -62.0621,-132.888 -54.872,-140.0781 1.4502,-1.4502 13.7779,3.6509 27.3948,11.3358 13.6169,7.6849 44.2454,19.6208 68.0634,26.5242 71.1274,20.6157 159.5149,62.1443 159.5149,74.9477 0,2.4518 -5.1636,6.4211 -11.4748,8.8206 -29.1834,11.0955 -125.2757,89.2201 -125.2757,101.8511 0,8.7395 13.5994,2.2582 56.7499,-27.0464 25.0223,-16.9933 47.3036,-29.7792 49.514,-28.4131 20.6806,12.7813 -36.6375,156.3789 -169.8011,425.3985 -35.4149,71.546 -64.3908,132.5875 -64.3908,135.6478 0,3.0603 2.6931,5.5642 5.9846,5.5642 7.4992,0 42.0817,-62.42 103.8698,-187.4806 91.8236,-185.8532 121.7693,-258.4521 141.9171,-344.0563 5.136,-21.8218 11.1925,-43.1409 13.459,-47.3759 5.6002,-10.4641 27.0889,-21.0251 42.7802,-21.0251 17.4266,0 50.579,34.8393 47.2187,49.6214 -1.2416,5.4622 -4.3447,19.8567 -6.8958,31.9878 -10.9423,52.0344 -37.3618,140.1661 -54.9224,183.2135 -28.6335,70.1913 -105.173,237.1049 -121.1129,264.1173 -21.8473,37.0231 -44.3703,83.2701 -44.3703,91.1063 0,22.5926 30.5323,-18.871 70.0288,-95.1006 51.1618,-98.7444 101.698,-221.3446 147.7937,-358.546 14.8528,-44.2086 28.9902,-80.3792 31.4164,-80.3792 2.4262,0 8.7228,8.5427 13.9923,18.9839 15.5854,30.8809 18.4795,33.0294 40.4378,30.0196 l 19.4817,-2.6702 -2.966,18.7407 c -7.6885,48.5799 -67.9119,192.8378 -146.0787,349.914 -35.1029,70.5392 -63.8233,130.5503 -63.8233,133.3581 0,2.8077 -5.2576,6.4246 -11.6836,8.0374 -13.9954,3.5126 -103.5379,-0.9785 -140.0326,-7.0235 -14.2966,-2.3681 -51.335,-5.6434 -82.3075,-7.2785 -53.2877,-2.8132 -56.96,-2.4646 -68.3414,6.488 -6.6152,5.2035 -14.2413,9.1636 -16.9469,8.8 -2.7055,-0.3635 -10.8745,-1.369 -18.1531,-2.2344 z m 229.8291,-73.8614 c 26.5143,-26.5143 17.4599,-59.9938 -16.225,-59.9938 -21.9835,0 -43.7688,20.5392 -43.7688,41.2653 0,35.7345 32.7608,45.9616 59.9938,18.7285 z m 81.4125,-196.8751 c 20.1606,-10.7897 29.2617,-52.919 13.2795,-61.4724 -16.492,-8.8262 -34.0987,-5.3953 -46.2166,9.0059 -26.2296,31.1723 -1.3441,70.8132 32.9371,52.4665 z m 76.2936,-193.278 c 16.3013,-17.0149 22.74,-41.1551 15.1826,-56.9232 -8.3199,-17.3589 -17.1671,-16.8914 -38.2204,2.0199 -23.2521,20.8864 -28.8351,43.5891 -14.295,58.1292 12.6168,12.6169 23.0153,11.7183 37.3328,-3.2259 z"
         id="path5062"
         inkscape:connector-curvature="0"
         transform="matrix(1.1368694,0,0,1.1368694,19.62759,-105.80126)" /><path
         style="display:inline;opacity:1;fill:#fff6d5;fill-opacity:1;fill-rule:nonzero;stroke:none;stroke-width:5.9000001;stroke-miterlimit:4;stroke-dasharray:none;stroke-opacity:1;filter:url(#filter4682)"
         d="m 1908.6775,1522.0798 c -4.6987,-5.2962 -17.923,-23.0289 -29.3874,-39.4059 l -20.8443,-29.7763 13.6306,0 c 13.5718,0 81.9064,6.5653 118.5468,11.3894 l 19.2432,2.5336 -12.6263,13.4601 c -13.6242,14.5239 -52.1417,40.8296 -69.3807,47.3838 -8.5292,3.2428 -12.3329,2.1354 -19.1819,-5.5847 z"
         id="path5064"
         inkscape:connector-curvature="0"
         transform="matrix(1.1368694,0,0,1.1368694,19.62759,-105.80126)" /><path
         style="display:inline;opacity:1;fill:#fff6d5;fill-opacity:1;fill-rule:nonzero;stroke:none;stroke-width:5.9000001;stroke-miterlimit:4;stroke-dasharray:none;stroke-opacity:1;filter:url(#filter4682)"
         d="m 1462.7833,1230.9806 c -6.3258,-17.4936 -7.0528,-47.1728 -1.1555,-47.1728 2.2909,0 9.049,4.4664 15.0179,9.9254 10.188,9.3176 10.5407,11.121 5.7601,29.4485 -6.3437,24.3201 -12.7305,26.8585 -19.6225,7.7989 z"
         id="path5068"
         inkscape:connector-curvature="0"
         transform="matrix(1.1368694,0,0,1.1368694,19.62759,-105.80126)" /><path
         style="display:inline;opacity:1;fill:#ffe6d5;fill-opacity:0.99215686;fill-rule:nonzero;stroke:none;stroke-width:5.9000001;stroke-miterlimit:4;stroke-dasharray:none;stroke-opacity:1;filter:url(#filter4682)"
         d="m 1925.0612,1428.3592 c -32.754,-3.2333 -68.4856,-8.1102 -79.4036,-10.8377 -10.918,-2.7274 -54.5899,-21.9215 -97.0488,-42.6536 -48.2956,-23.5821 -102.669,-45.9984 -145.2313,-59.874 -95.8776,-31.2569 -106.3605,-42.0765 -95.5245,-98.5934 3.9983,-20.8539 0.09,-25.7944 -49.4465,-62.5031 -28.3145,-20.9824 -36.9508,-35.7938 -27.5061,-47.174 12.5932,-15.1739 21.217,-12.3685 47.3856,15.4149 25.015,26.5588 26.0224,27.1159 53.4879,29.5804 l 27.9927,2.5118 29.8638,-31.0717 c 33.5127,-34.8681 38.5638,-46.9041 29.1446,-69.4475 -5.0264,-12.0299 -9.0036,-15.4767 -17.8584,-15.4767 -12.6186,0 -19.4823,11.0423 -11.7006,18.824 8.69,8.69 5.4794,20.3184 -10.4902,37.9949 -20.5306,22.7249 -36.9369,29.2825 -60.7543,24.2833 -16.926,-3.5526 -19.732,-6.1646 -31.1503,-28.9963 -11.7943,-23.5833 -12.5623,-28.5121 -12.7731,-81.9763 -0.2652,-67.23746 6.6379,-94.74633 33.9465,-135.27672 29.7137,-44.09992 63.682,-55.35144 98.1809,-32.5211 9.7122,6.42722 23.4006,12.34129 30.4187,13.14239 19.2188,2.19378 30.4481,27.73193 30.2206,68.72899 l -0.1775,31.98199 37.937,0 c 55.348,0 55.4921,-0.17944 50.0274,-62.27991 -2.4301,-27.61465 -2.8148,-52.06699 -0.8549,-54.33854 2.1973,-2.54681 45.4409,-0.41268 112.8039,5.56703 60.0822,5.33341 115.692,9.67331 123.5773,9.64422 17.1335,-0.0632 16.5341,-8.23335 7.0487,96.07954 -5.2426,57.65491 -5.9807,82.04961 -2.5852,85.44511 7.584,7.5841 39.5218,12.1182 87.0711,12.3614 53.6102,0.2741 111.0448,6.5027 127.0007,13.7727 15.9625,7.273 17.974,16.5756 10.1021,46.7203 -8.0105,30.6753 -15.1293,36.7144 -43.2785,36.7144 -25.644,0 -45.5628,-9.5503 -77.9057,-37.3527 -25.7359,-22.1229 -41.3522,-25.0512 -43.7514,-8.204 -1.0244,7.193 4.5144,14.0236 22.1972,27.3742 33.8932,25.5896 67.0469,39.371 118.8917,49.4211 51.8159,10.0446 55.8023,13.0988 78.9435,60.4841 25.0127,51.2173 16.2664,94.7721 -27.195,135.4251 -24.7061,23.1097 -81.2848,51.5059 -117.8002,59.1225 -30.5064,6.3633 -128.7631,5.3908 -203.8058,-2.0171 z m -405.4895,-389.0218 c 0.193,-1.8196 1.0333,-13.6735 1.8674,-26.3418 1.9352,-29.39051 3.8474,-32.108 22.5942,-32.108 18.5174,0 30.073,5.46731 48.6105,22.9991 14.6929,13.8959 26.308,14.8325 33.9254,2.7357 6.6104,-10.49768 -1.435,-18.50228 -37.8074,-37.61542 -34.0537,-17.89471 -38.8792,-24.21749 -27.8141,-36.44429 10.088,-11.14713 7.311,-28.48524 -4.8399,-30.21793 -11.6422,-1.66014 -36.7906,27.52913 -50.5844,58.71218 -7.6632,17.32413 -8.9384,26.31388 -6.7297,47.44546 1.4988,14.3393 3.8475,27.8877 5.2194,30.1075 2.995,4.846 15.0619,5.4102 15.5586,0.7275 z"
         id="path5072"
         inkscape:connector-curvature="0"
         transform="matrix(1.1368694,0,0,1.1368694,19.62759,-105.80126)" /><path
         style="display:inline;opacity:1;fill:#ffe6d5;fill-opacity:0.99215686;fill-rule:nonzero;stroke:none;stroke-width:5.9000001;stroke-miterlimit:4;stroke-dasharray:none;stroke-opacity:1;filter:url(#filter4682)"
         d="m 2172.0944,839.63559 c -59.4424,-6.83354 -144.8012,-14.60775 -189.6862,-17.27601 -134.2983,-7.98356 -211.648,-13.7535 -218.2291,-16.27891 -10.1874,-3.90926 -19.6659,-67.06458 -19.7778,-131.779 -0.077,-44.24885 3.4437,-55.68744 13.4195,-43.60499 24.4705,29.63797 198.2139,62.34776 272.3205,51.2684 27.8168,-4.15876 42.4936,-3.36863 105.8714,5.69969 40.4678,5.79028 90.4511,11.79367 111.074,13.34088 27.7521,2.08208 43.5545,5.85596 60.8097,14.52242 l 23.3135,11.7093 -2.6821,17.64523 c -4.8716,32.05009 -5.6345,33.08481 -24.3914,33.08481 -14.5385,0 -17.348,1.46203 -17.348,9.02779 0,5.29841 5.1981,12.01107 12.5831,16.24947 11.7439,6.74007 12.3265,8.36324 8.7369,24.33958 -2.1154,9.41485 -2.6979,18.97585 -1.2944,21.24666 3.6538,5.91202 -13.4787,4.74264 -134.7196,-9.19532 z m 33.152,-48.64594 c 3.828,-12.06082 -3.4318,-19.87308 -26.7394,-28.77433 -17.1388,-6.54537 -25.0711,-6.79948 -69.1306,-2.21456 -74.0317,7.70388 -112.6427,13.99017 -120.2944,19.58523 -5.2053,3.80623 9.7548,5.0824 62.7233,5.35064 48.4655,0.24545 77.5854,2.47499 96.0269,7.35227 38.2563,10.11774 53.903,9.76366 57.4142,-1.29925 z"
         id="path5074"
         inkscape:connector-curvature="0"
         transform="matrix(1.1368694,0,0,1.1368694,19.62759,-105.80126)" /><path
         style="display:inline;opacity:1;fill:#ffe6d5;fill-opacity:0.99215686;fill-rule:nonzero;stroke:none;stroke-width:5.9000001;stroke-miterlimit:4;stroke-dasharray:none;stroke-opacity:1;filter:url(#filter4682)"
         d="m 2076.2893,1012.8893 -45.0751,-1.4281 1.9253,-11.97831 c 1.0589,-6.58808 4.2081,-39.76957 6.9982,-73.73665 2.79,-33.96707 5.6841,-62.82073 6.4312,-64.11924 0.7471,-1.29851 32.7699,0.71334 71.1617,4.47077 l 69.8034,6.83171 -0.4885,13.17446 c -0.2687,7.24595 -2.9977,39.47688 -6.0643,71.62429 l -5.5758,58.44987 -27.0205,-0.9304 c -14.8613,-0.5117 -47.3043,-1.5729 -72.0956,-2.3584 z m 63.9444,-47.69142 c 12.477,-8.73923 12.9702,-29.66869 0.9816,-41.65729 -16.221,-16.221 -55.1264,-8.17822 -60.3081,12.46731 -6.743,26.86661 34.0136,46.91982 59.3265,29.18998 z"
         id="path5076"
         inkscape:connector-curvature="0"
         transform="matrix(1.1368694,0,0,1.1368694,19.62759,-105.80126)" /><path
         style="display:inline;opacity:1;fill:#ffe6d5;fill-opacity:0.99215686;fill-rule:nonzero;stroke:none;stroke-width:5.9000001;stroke-miterlimit:4;stroke-dasharray:none;stroke-opacity:1;filter:url(#filter4682)"
         d="m 2341.9298,1074.9384 c -27.4975,-6.1543 -69.0052,-21.8255 -88.2262,-33.3099 -36.2,-21.6294 -41.9162,-28.6764 -41.8424,-51.58441 0.1333,-41.35251 16.5898,-52.64825 77.1329,-52.94399 62.7637,-0.30659 128.7449,19.35023 150.0863,44.71298 14.593,17.34285 15.2409,49.74682 1.3477,67.40912 -17.9914,22.8724 -61.0154,34.1052 -98.4983,25.7162 z"
         id="path5080"
         inkscape:connector-curvature="0"
         transform="matrix(1.1368694,0,0,1.1368694,19.62759,-105.80126)" /><path
         style="display:inline;opacity:1;fill:#ffe6d5;fill-opacity:0.99215686;fill-rule:nonzero;stroke:none;stroke-width:5.9000001;stroke-miterlimit:4;stroke-dasharray:none;stroke-opacity:1;filter:url(#filter4682)"
         d="m 2229.4414,907.811 c 0,-20.57241 16.3573,-29.69232 31.982,-17.83144 10.6588,8.09115 9.6695,13.6113 -3.516,19.61902 -15.8038,7.20069 -28.466,6.40555 -28.466,-1.78758 z"
         id="path5078"
         inkscape:connector-curvature="0"
         transform="matrix(1.1368694,0,0,1.1368694,19.62759,-105.80126)" /><path
         style="display:inline;opacity:1;fill:#b3b3b3;fill-opacity:1;fill-rule:nonzero;stroke:none;stroke-width:5.9000001;stroke-miterlimit:4;stroke-dasharray:none;stroke-opacity:1;filter:url(#filter4682)"
         d="m 1431.0655,1056.0187 c -4.9121,-9.6285 -11.6422,-29.1276 -14.9557,-43.3313 -3.3135,-14.20369 -8.6612,-30.64317 -11.8839,-36.53215 -3.649,-6.66811 -6.5517,-31.71409 -7.6948,-66.39396 l -1.8354,-55.68672 28.2357,-13.34073 c 37.911,-17.91209 74.8232,-28.65012 80.1555,-23.31781 2.6532,2.65315 -2.4398,15.22816 -13.8539,34.20632 -38.4668,63.959 -47.4538,99.66951 -43.3555,172.27555 3.0534,54.0953 -0.1061,60.9469 -14.812,32.1208 z"
         id="path5082"
         inkscape:connector-curvature="0"
         transform="matrix(1.1368694,0,0,1.1368694,19.62759,-105.80126)" /><path
         style="display:inline;opacity:1;fill:#b3b3b3;fill-opacity:1;fill-rule:nonzero;stroke:none;stroke-width:5.9000001;stroke-miterlimit:4;stroke-dasharray:none;stroke-opacity:1;filter:url(#filter4682)"
         d="m 1685.1084,922.43776 c -0.8058,-3.03277 -3.8223,-15.43958 -6.7032,-27.57067 -7.8575,-33.08686 -18.672,-52.37308 -30.9294,-55.15854 -5.8857,-1.33751 -11.5101,-4.85843 -12.4987,-7.82429 -3.4803,-10.44092 85.5864,-4.32312 96.5407,6.63118 2.3408,2.34075 5.4399,18.37815 6.8869,35.63868 3.5303,42.10945 -3.4098,53.79778 -31.9435,53.79778 -12.1878,0 -20.4549,-2.13489 -21.3528,-5.51414 z"
         id="path5084"
         inkscape:connector-curvature="0"
         transform="matrix(1.1368694,0,0,1.1368694,19.62759,-105.80126)" /><path
         style="display:inline;opacity:1;fill:#b3b3b3;fill-opacity:1;fill-rule:nonzero;stroke:none;stroke-width:5.9000001;stroke-miterlimit:4;stroke-dasharray:none;stroke-opacity:1;filter:url(#filter4682)"
         d="m 1421.971,808.51141 c -3.1939,-3.1939 -1.1823,-11.76745 4.2856,-18.26577 4.96,-5.89461 6.7643,-6.65161 13.0454,-5.47327 6.2643,1.1752 7.8444,0.52043 11.2363,-4.65633 3.3114,-5.05377 4.0157,-11.56985 4.3736,-40.4633 0.3216,-25.95684 1.3366,-36.88414 4.1211,-44.3649 10.0028,-26.87325 10.379,-29.12134 8.9464,-53.46321 l -1.3941,-23.68685 11.6967,-5.17424 c 15.4262,-6.82408 60.0766,-40.60098 82.5029,-62.41146 24.9818,-24.29576 40.8797,-49.36181 31.3073,-49.36181 -1.4603,0 -13.6189,11.29255 -27.0193,25.09454 -29.4588,30.34182 -48.1118,46.09237 -76.0347,64.20351 -27.0739,17.56042 -29.2909,18.37574 -28.5299,10.4919 0.3212,-3.3273 -0.1312,-10.5161 -1.0053,-15.97509 -1.2866,-8.03432 -0.3163,-13.70768 5.0927,-29.77633 3.6752,-10.91799 6.2985,-17.04614 5.8296,-13.61811 -1.5569,11.3814 2.1439,2.88581 9.4407,-21.67236 4.5465,-15.30173 11.2652,-31.31513 18.1922,-43.35937 12.2411,-21.28425 22.6488,-46.65097 24.9646,-60.84623 1.4651,-8.98124 3.6937,-12.11916 9.2024,-12.95715 4.0254,-0.61235 27.4472,-17.07245 48.62,-34.16869 21.4516,-17.32131 45.5279,-30.30783 78.9688,-42.5949 37.9875,-13.95763 43.6161,-16.47346 69.5131,-31.07015 29.2666,-16.49592 46.1325,-21.54499 52.5546,-15.73306 3.8593,3.49263 4.9697,3.11326 20.4104,-6.97309 17.6421,-11.52443 51.3662,-39.07635 63.6318,-51.98598 4.9905,-5.25249 9.5988,-8.00014 13.4178,-8.00014 7.8187,0 8.7023,1.33676 5.8602,8.86622 -1.3297,3.52275 -1.817,7.00559 -1.0829,7.73965 0.734,0.73405 15.0811,-3.83141 31.8823,-10.14548 16.8013,-6.31407 41.9097,-15.31146 55.7966,-19.9942 l 25.2488,-8.51408 5.6303,5.15876 c 18.3028,16.76987 65.6316,34.71131 169.3074,64.18112 61.7177,17.54322 90.0987,27.19766 116.4798,39.62322 27.6715,13.03337 33.8443,19.16366 48.6304,48.29514 30.7179,60.52055 57.4075,88.19807 127.5613,132.28319 9.6925,6.09084 16.7643,12.04812 16.7643,14.12225 0,4.9325 16.4164,45.58988 41.2529,102.16804 22.8897,52.14316 37.7212,76.57281 73.6494,121.31098 41.6723,51.89086 42.9503,61.05575 7.6991,55.21147 -19.6397,-3.25603 -32.6386,-7.96762 -64.1516,-23.25223 -44.528,-21.59725 -88.3123,-50.90727 -122.8634,-82.24701 -21.5197,-19.51951 -26.0182,-21.2296 -26.0182,-9.89057 0,6.16954 3.2415,12.82409 14.1113,28.96941 4.3699,6.49074 7.9452,13.02388 7.9452,14.5181 0,4.38595 -14.9898,8.12197 -37.82,9.4262 -17.6823,1.01014 -23.8473,0.43502 -36.4849,-3.40353 -29.5321,-8.97008 -55.7296,-30.64467 -97.4824,-80.65239 -36.7362,-43.99925 -52.2573,-56.78842 -56.26,-46.35758 -6.2363,16.25173 33.1553,69.19113 79.1168,106.32694 4.8255,3.89895 7.7755,7.08899 6.5554,7.08899 -3.3655,0 -99.3298,-25.88139 -115.6864,-31.20037 -42.2854,-13.75075 -109.3978,-48.26476 -167.1124,-85.94126 -16.4142,-10.71535 -26.9852,-13.71705 -26.9852,-7.66262 0,4.55075 19.8648,33.38624 33.4301,48.52684 15.73,17.55652 26.8974,24.16702 56.3687,33.36714 13.6924,4.27438 24.8952,8.37837 24.8952,9.12003 0,2.56464 -126.5789,-1.25895 -147.7788,-4.46398 -52.7977,-7.98205 -73.9894,-15.9964 -186.7845,-70.63906 -65.1128,-31.54337 -74.6992,-35.20724 -76.9271,-29.40137 -2.3019,5.99876 3.193,13.1034 31.0481,40.14304 31.2953,30.37914 32.6593,33.16062 36.3516,74.1282 2.0562,22.81441 3.0926,136.51178 1.2444,136.51178 -10.1261,0 -89.731,-7.93074 -112.6213,-11.22003 -76.3756,-10.97508 -151.6925,-6.834 -184.9271,10.16762 -12.1176,6.19897 -11.2659,5.94157 -13.2141,3.99327 z m 664.2093,-304.33682 c 0.3713,-2.60451 -1.862,-10.76309 -4.9627,-18.13017 -6.2762,-14.91159 -7.2883,-24.55593 -2.5769,-24.55593 1.6834,0 9.3756,2.93937 17.0938,6.53194 29.1812,13.58297 58.0844,17.23688 68.9209,8.71288 7.9431,-6.24806 12.2783,-15.22106 10.1194,-20.94533 -0.9537,-2.52874 -5.1177,-9.97282 -9.2533,-16.54241 -9.4039,-14.93834 -15.7241,-29.88809 -20.4357,-48.33801 -4.66,-18.24836 -8.7599,-24.74203 -15.0554,-23.84592 -10.3919,1.47917 -6.5709,24.93483 11.2924,69.31991 3.3837,8.40743 3.9049,11.92381 2.0434,13.78534 -4.3301,4.3301 -21.9064,2.67114 -40.584,-3.83058 -23.157,-8.06103 -36.2887,-15.82888 -51.9414,-30.72531 -8.365,-7.9608 -13.7819,-11.54823 -16.0964,-10.66009 -4.2976,1.64915 -3.1716,9.08463 5.8474,38.61221 3.473,11.37046 6.3145,23.16354 6.3145,26.20686 0,5.17801 -0.5638,5.45764 -8.7821,4.35535 -19.558,-2.6233 -85.6496,-39.90907 -123.5571,-69.70521 -35.5081,-27.91009 -39.7018,-29.7687 -39.7018,-17.59539 0,16.24622 58.526,61.64485 117.3288,91.0119 57.792,28.86226 92.2499,38.51848 93.9862,26.33796 z"
         id="path5088"
         inkscape:connector-curvature="0"
         transform="matrix(1.1368694,0,0,1.1368694,19.62759,-105.80126)" /><path
         style="display:inline;opacity:1;fill:#fff6d5;fill-opacity:1;fill-rule:nonzero;stroke:none;stroke-width:5.9000001;stroke-miterlimit:4;stroke-dasharray:none;stroke-opacity:1;filter:url(#filter4682)"
         d="m 1783.8993,2086.1279 c 0,-8.7421 11.7964,-24.4698 18.3533,-24.4698 6.0753,0 8.1145,3.3259 8.1145,13.234 0,11.7635 -1.4704,13.2339 -13.2339,13.2339 -7.2786,0 -13.2339,-0.8991 -13.2339,-1.9981 z"
         id="path5070"
         inkscape:connector-curvature="0"
         transform="matrix(1.1368694,0,0,1.1368694,19.62759,-105.80126)" /><path
         style="display:inline;opacity:1;fill:#fff6d5;fill-opacity:1;fill-rule:nonzero;stroke:none;stroke-width:5.9000001;stroke-miterlimit:4;stroke-dasharray:none;stroke-opacity:1;filter:url(#filter4682)"
         d="m 812.78776,2019.0078 c -6.6167,-1.7592 -6.6768,-4.0909 -0.69745,-27.0589 3.59875,-13.8237 7.07,-25.6777 7.71388,-26.3423 1.2692,-1.3102 20.07511,48.802 20.07511,53.4942 0,3.0815 -15.35017,3.0288 -27.09154,-0.093 z"
         id="path5066"
         inkscape:connector-curvature="0"
         transform="matrix(1.1368694,0,0,1.1368694,19.62759,-105.80126)" /><path
         style="display:inline;opacity:1;fill:#d45e5e;fill-opacity:1;fill-rule:nonzero;stroke:none;stroke-width:5.9000001;stroke-miterlimit:4;stroke-dasharray:none;stroke-opacity:1;filter:url(#filter4226)"
         d="m 1402.0299,3503.2223 c -11.826,-5.7035 -11.9401,-7.5342 -2.8783,-46.1752 5.0929,-21.7166 6.5265,-44.1185 5.1695,-80.7801 -1.8063,-48.7991 -2.6516,-52.4932 -22.2066,-97.0488 -32.8066,-74.7488 -50.9267,-154.5909 -52.5345,-231.4805 l -0.8611,-41.1833 34.8712,-47.8402 c 19.1791,-26.3121 44.3468,-61.7359 55.9281,-78.7194 37.0597,-54.3464 59.6758,-146.1694 55.5171,-225.4033 -1.8142,-34.5652 -8.5071,-53.1991 -17.1821,-47.8377 -2.1079,1.3028 -3.5946,28.5759 -3.3037,60.6069 0.8636,95.123 -17.4626,156.4292 -68.5942,229.4663 -83.8357,119.7523 -176.3656,222.5288 -260.735,289.6083 -26.6884,21.2192 -65.3976,52.9262 -86.0205,70.4601 -45.53443,38.7142 -102.0114,76.6437 -125.17071,84.0638 -21.94461,7.0309 -49.77667,3.1639 -77.18268,-10.7237 -48.36809,-24.51 -127.22165,-98.316 -162.00515,-151.6349 -9.00759,-13.8076 -31.95137,-41.2391 -50.98616,-60.959 -24.46042,-25.3407 -34.60873,-39.0961 -34.60873,-46.9099 0,-14.2387 17.69912,-29.2729 88.22617,-74.9421 47.81284,-30.9608 67.35118,-47.7706 147.01087,-126.4806 l 91.86952,-90.7743 -3.11032,27.5707 c -2.70304,23.9604 -2.15496,27.5707 4.18562,27.5707 8.40503,0 15.90019,-16.7709 15.90019,-35.5777 0,-16.2494 3.50579,-16.2079 24.2622,0.2872 9.159,7.2786 18.2477,13.2339 20.19712,13.2339 13.15415,0 3.86972,-14.6961 -32.87458,-52.0365 -51.45438,-52.289 -75.80594,-83.3291 -107.27741,-136.7425 -36.9591,-62.727 -62.42556,-119.7784 -74.68498,-167.3135 -15.05229,-58.3642 -19.2812,-165.2052 -8.88971,-224.5931 7.57805,-43.309 27.67714,-111.8988 32.78328,-111.8757 4.04896,0.018 79.65784,12.7332 91.99295,15.4702 7.07093,1.5689 16.356,16.3704 36.61928,58.3756 14.93054,30.9505 41.11031,81.5289 58.17725,112.3964 17.06695,30.8675 34.99648,66.5991 39.84338,79.4035 4.8469,12.8045 11.3067,26.2585 14.3551,29.8979 3.0484,3.6393 8.7432,24.988 12.6552,47.4416 11.3068,64.8972 24.6964,108.6091 46.655,152.3104 17.3486,34.5266 23.2196,42.1887 38.8975,50.764 10.1557,5.5549 28.0215,11.213 39.7017,12.5736 18.8507,2.1958 22.4386,1.1849 31.9313,-8.997 7.9586,-8.5362 15.0631,-11.4707 27.7712,-11.4707 12.3335,0 20.1401,-3.0632 28.1051,-11.0282 7.9829,-7.983 15.7662,-11.0283 28.1858,-11.0283 24.3757,0 38.3503,-6.4797 46.0384,-21.3469 4.6972,-9.0833 11.1102,-13.7358 21.6623,-15.7154 8.2443,-1.5466 18.3196,-6.4916 22.3896,-10.9889 8.9053,-9.8403 15.1122,-46.0932 11.0324,-64.4372 -6.4241,-28.8841 -4.5949,-41.8947 6.4821,-46.1062 27.4905,-10.4519 13.2737,-67.3404 -34.2279,-136.9631 -7.4491,-10.918 -13.093,-22.8285 -12.5421,-26.4678 0.5509,-3.6394 -9.9144,-28.29 -23.2563,-54.7793 -13.3418,-26.4892 -24.2579,-51.3843 -24.2579,-55.3224 0,-6.3124 4.5702,-6.7688 38.599,-3.854 68.6486,5.8802 79.9461,8.1922 82.7188,16.9283 4.3733,13.779 28.1791,18.4417 106.5595,20.871 73.6407,2.2825 76.0699,2.0733 89.847,-7.7369 13.8402,-9.8551 15.8344,-10.0169 88.3117,-7.1676 40.7835,1.6033 82.7335,4.0904 93.2223,5.5268 l 19.0704,2.6117 -1.0604,207.9881 c -0.5832,114.3934 -3.0089,250.6675 -5.3904,302.8312 -2.3816,52.1637 -6.7164,168.6998 -9.633,258.9689 -5.9854,185.2475 -3.6965,229.6792 18.3601,356.4086 7.1786,41.2457 13.0771,80.1835 13.1076,86.5284 0.094,19.5427 -15.0464,33.9443 -38.6652,36.7775 -11.4574,1.3743 -42.6677,5.4156 -69.3561,8.9805 -122.8437,16.4091 -298.2323,24.3992 -318.7171,14.5198 z"
         id="path5131"
         inkscape:connector-curvature="0"
         transform="matrix(1.1368694,0,0,1.1368694,19.62759,-105.80126)" /><path
         style="opacity:1;fill:#fff6d5;fill-opacity:1;fill-rule:nonzero;stroke:none;stroke-width:5.9000001;stroke-miterlimit:4;stroke-dasharray:none;stroke-opacity:1"
         d="m 1197.8084,2613.258 c -28.9531,-74.977 -43.6661,-105.8827 -91.386,-191.9627 -60.951,-109.9469 -74.8002,-141.4573 -136.8755,-311.4262 -14.0554,-38.4851 -34.1353,-100.8436 -44.2338,-137.3686 -14.4976,-52.4358 -14.2831,-73.4701 1.7184,-168.5514 20.3293,-120.7963 53.8673,-220.0144 117.8174,-348.5481 35.3769,-71.1042 53.0851,-95.1267 90.8443,-123.2369 59.7393,-44.4735 157.1227,-79.0462 308.9033,-109.6654 64.445,-13.0008 93.2575,-16.0747 137.0729,-14.6241 l 39.279,1.3005 14.6332,10.7994 c 8.0483,5.9397 14.9935,11.0172 15.4338,11.2832 0.4404,0.2661 -0.643,2.7955 -2.4075,5.6209 -2.5673,4.1108 -2.602,8.0723 -0.1739,19.8286 1.6691,8.0803 3.0346,19.9121 3.0346,26.293 0,12.7653 -44.6349,192.6779 -60.1901,242.6119 -5.3704,17.2394 -24.9943,82.122 -43.6088,144.1836 -60.5219,201.7822 -99.548,306.1997 -143.8496,384.8814 l -9.1919,16.3252 -1.7408,-10.0302 c -7.0468,-40.6019 -4.6117,-91.987 6.7731,-142.9298 5.9583,-26.6613 28.1656,-103.6786 35.0668,-121.6157 1.8571,-4.827 8.5941,-23.3313 14.971,-41.1206 6.3769,-17.7891 17.7994,-46.3656 25.3835,-63.5031 7.5839,-17.1375 13.172,-32.7672 12.4178,-34.7326 -2.3536,-6.1331 -13.2985,-4.1774 -18.5932,3.3221 -18.5682,26.3016 -61.595,142.6749 -80.4272,217.5292 -15.0422,59.7899 -18.8676,86.7327 -18.6919,131.646 0.2955,75.4415 13.7148,141.8615 51.3355,254.0897 27.7662,82.8307 54.9517,152.7571 77.8898,200.3473 16.5728,34.3844 22.2327,48.5646 21.133,52.9464 -1.9661,7.8335 -31.9772,35.7501 -49.8093,46.3331 -43.716,25.9448 -177.2441,53.7098 -267.1527,55.5504 -1.7581,0.036 -4.1769,-2.4735 -5.3752,-5.5765 z"
         id="path5139"
         inkscape:connector-curvature="0" /><path
         style="opacity:1;fill:#fff6d5;fill-opacity:1;fill-rule:nonzero;stroke:none;stroke-width:5.9000001;stroke-miterlimit:4;stroke-dasharray:none;stroke-opacity:1"
         d="m 2101.9484,2435.2344 c -2.0128,-123.2264 -5.8131,-218.7973 -9.4262,-237.05 -2.5467,-12.8652 -2.4017,-13.4897 5.1243,-22.0614 8.7814,-10.0014 20.2939,-31.967 34.8312,-66.4574 5.4751,-12.9899 14.69,-33.7415 20.4775,-46.1145 14.8233,-31.69 35.4573,-84.0018 67.5761,-171.3203 15.2357,-41.4201 34.4045,-91.1113 42.5971,-110.4249 17.2284,-40.6144 23.5154,-59.9312 27.4784,-84.4272 1.5618,-9.654 4.4022,-27.1442 6.312,-38.8669 5.5695,-34.1871 12.3549,-48.9934 30.7402,-67.0767 8.7634,-8.6197 16.8891,-15.6721 18.0571,-15.6721 1.1679,0 4.2613,9.3092 6.8743,20.6872 4.2964,18.7081 4.7445,31.6018 4.683,134.7803 -0.075,126.3405 -0.8764,136.2091 -17.5788,216.5495 -11.7828,56.6768 -19.5167,84.9505 -31.6033,115.5368 -25.0728,63.4487 -50.531,105.3543 -92.2624,151.8691 -20.5565,22.9127 -26.2374,31.3945 -24.3396,36.34 3.1531,8.2169 12.7724,3.7824 30.9394,-14.2634 9.9909,-9.9242 18.8257,-17.3836 19.633,-16.5765 3.3666,3.3668 -19.0365,78.2331 -37.7618,126.1922 -18.6201,47.6892 -43.1347,96.8861 -73.6223,147.7486 -14.0042,23.363 -25.817,42.833 -26.2508,43.2668 -0.4337,0.4338 -1.549,-45.7628 -2.4784,-102.6592 z"
         id="path5141"
         inkscape:connector-curvature="0" /><path
         style="opacity:1;fill:#502d16;fill-opacity:1;fill-rule:nonzero;stroke:none;stroke-width:5.9000001;stroke-miterlimit:4;stroke-dasharray:none;stroke-opacity:1"
         d="m 2066.4666,2394.4615 c -1.3791,-0.4793 -30.1532,-2.1107 -63.9423,-3.6253 -62.9173,-2.8205 -118.1915,-6.8475 -126.0039,-9.1803 -3.4663,-1.035 -4.3652,-4.0405 -4.2788,-14.3059 0.121,-14.3747 6.1762,-71.5217 7.7445,-73.09 2.061,-2.0609 172.0518,-3.9339 185.2268,-2.0408 l 13.7914,1.9817 -0.1296,46.7734 c -0.1408,50.8547 -1.6211,57.2358 -12.4081,53.4872 z"
         id="path5143"
         inkscape:connector-curvature="0" /><path
         style="opacity:1;fill:#502d16;fill-opacity:1;fill-rule:nonzero;stroke:none;stroke-width:5.9000001;stroke-miterlimit:4;stroke-dasharray:none;stroke-opacity:1"
         d="m 1542.3906,2372.909 c -15.1706,-1.1239 -35.3166,-2.9375 -44.7688,-4.0301 l -17.1857,-1.9868 -17.193,-48.7881 c -9.456,-26.8334 -16.7821,-49.1988 -16.2801,-49.7008 0.5021,-0.5022 24.9997,1.9777 54.439,5.5106 77.9008,9.3487 78.1998,9.3762 102.5034,9.4532 13.8612,0.044 23.9123,1.265 26.6024,3.2321 5.3071,3.8806 5.232,20.4064 -0.2683,58.9789 -2.0649,14.4811 -3.7751,27.1755 -3.8004,28.2099 -0.057,2.34 -47.2588,1.8464 -84.0485,-0.8789 z"
         id="path5145"
         inkscape:connector-curvature="0" /><path
         style="opacity:1;fill:#502d16;fill-opacity:1;fill-rule:nonzero;stroke:none;stroke-width:5.9000001;stroke-miterlimit:4;stroke-dasharray:none;stroke-opacity:1"
         d="m 963.7609,2290.5248 c -24.4879,-3.7557 -45.1324,-7.4376 -45.8766,-8.1819 -1.2141,-1.2141 12.8518,-69.88 14.4947,-70.7593 0.3735,-0.2 12.6246,1.2087 27.2245,3.1305 l 26.5454,3.4939 3.2365,9.146 c 1.7801,5.0303 8.7353,22.3862 15.456,38.5688 6.7207,16.1824 12.2194,30.0052 12.2194,30.7173 0,1.8938 -4.293,1.4011 -53.2999,-6.1153 z"
         id="path5147"
         inkscape:connector-curvature="0" /></g></g></svg>