<?xml version="1.0" encoding="UTF-8" standalone="no"?>
<!-- Created with Inkscape (http://www.inkscape.org/) -->

<svg
   xmlns:dc="http://purl.org/dc/elements/1.1/"
   xmlns:cc="http://creativecommons.org/ns#"
   xmlns:rdf="http://www.w3.org/1999/02/22-rdf-syntax-ns#"
   xmlns:svg="http://www.w3.org/2000/svg"
   xmlns="http://www.w3.org/2000/svg"
   xmlns:sodipodi="http://sodipodi.sourceforge.net/DTD/sodipodi-0.dtd"
   xmlns:inkscape="http://www.inkscape.org/namespaces/inkscape"
   id="svg4155"
   version="1.1"
   inkscape:version="0.91 r13725"
   xml:space="preserve"
   width="3060"
   height="4080"
   viewBox="0 0 3060 4080"
   sodipodi:docname="SuperTeacher_Phase6_v3.svg"
   enable-background="new"
   inkscape:export-filename="/Users/larsaeschlimann/Desktop/SuperTeacher_Design/PNG/P6"
   inkscape:export-xdpi="350"
   inkscape:export-ydpi="350"><metadata
     id="metadata4161"><rdf:RDF><cc:Work
         rdf:about=""><dc:format>image/svg+xml</dc:format><dc:type
           rdf:resource="http://purl.org/dc/dcmitype/StillImage" /><dc:title /></cc:Work></rdf:RDF></metadata><defs
     id="defs4159"><marker
       inkscape:stockid="Arrow1Lstart"
       orient="auto"
       refY="0.0"
       refX="0.0"
       id="marker4962"
       style="overflow:visible"
       inkscape:isstock="true"><path
         id="path4964"
         d="M 0.0,0.0 L 5.0,-5.0 L -12.5,0.0 L 5.0,5.0 L 0.0,0.0 z "
         style="fill-rule:evenodd;stroke:none;stroke-width:1pt;stroke-opacity:1;fill:#000000;fill-opacity:1"
         transform="scale(0.8) translate(12.5,0)" /></marker><marker
       inkscape:stockid="Arrow1Lstart"
       orient="auto"
       refY="0.0"
       refX="0.0"
       id="Arrow1Lstart"
       style="overflow:visible"
       inkscape:isstock="true"><path
         id="path4692"
         d="M 0.0,0.0 L 5.0,-5.0 L -12.5,0.0 L 5.0,5.0 L 0.0,0.0 z "
         style="fill-rule:evenodd;stroke:none;stroke-width:1pt;stroke-opacity:1;fill:#000000;fill-opacity:1"
         transform="scale(0.8) translate(12.5,0)" /></marker><clipPath
       clipPathUnits="userSpaceOnUse"
       id="clipPath4171"><path
         d="m 0,0 2448,0 0,3264 L 0,3264 0,0 Z"
         id="path4173"
         inkscape:connector-curvature="0" /></clipPath><filter
       inkscape:collect="always"
       style="color-interpolation-filters:sRGB"
       id="filter4226"><feBlend
         inkscape:collect="always"
         mode="lighten"
         in2="BackgroundImage"
         id="feBlend4228" /></filter><filter
       inkscape:collect="always"
       style="color-interpolation-filters:sRGB"
       id="filter4682"><feBlend
         inkscape:collect="always"
         mode="lighten"
         in2="BackgroundImage"
         id="feBlend4684" /></filter></defs><sodipodi:namedview
     pagecolor="#ffffff"
     bordercolor="#666666"
     borderopacity="1"
     objecttolerance="10"
     gridtolerance="10"
     guidetolerance="10"
     inkscape:pageopacity="0"
     inkscape:pageshadow="2"
     inkscape:window-width="1440"
     inkscape:window-height="856"
     id="namedview4157"
     showgrid="false"
     showguides="true"
     inkscape:zoom="0.11334506"
     inkscape:cx="1789.5333"
     inkscape:cy="1691.9092"
     inkscape:window-x="-4"
     inkscape:window-y="0"
     inkscape:window-maximized="0"
     inkscape:current-layer="layer1" /><g
     id="g4163"
     inkscape:groupmode="layer"
     inkscape:label="Hauptkörper"
     transform="matrix(1.25,0,0,-1.25,0,4080)"
     style="display:inline;opacity:1;filter:url(#filter4682)"><g
       id="g4165"
       style="fill:#000000;stroke:#000000;stroke-width:0.80000001;stroke-miterlimit:4;stroke-dasharray:none;stroke-opacity:1" /><path
       style="opacity:1;fill:#000000;fill-opacity:1;fill-rule:nonzero;stroke:#000000;stroke-width:0.90949553;stroke-miterlimit:4;stroke-dasharray:none;stroke-opacity:1"
       d="m 1464.699,2892.1221 0,0 0,0 c -3.4396,-0.025 -12.4354,-7.1558 -24.9383,-22.089 -13.2113,-15.7795 -39.3995,-38.9578 -58.1953,-51.5091 -37.6229,-25.1245 -39.7335,-26.0137 -37.4527,-15.7723 2.6996,12.1226 -13.3099,43.7055 -22.1548,43.7055 -6.1686,0 -7.3604,-3.4065 -4.4391,-12.6885 11.354,-36.0755 23.1418,-100.461 19.4777,-106.3897 -2.9205,-4.7255 -11.4588,-0.5418 -28.2831,13.8592 -40.7052,34.8421 -55.0481,23.6145 -17.0015,-13.3085 21.1686,-20.5436 33.476,-49.7553 26.0343,-61.796 -5.5031,-8.9044 -13.079,-6.8643 -16.6835,4.4925 -3.7748,11.8933 -37.3375,47.6434 -41.1494,43.8316 -3.2161,-3.216 16.5357,-37.1827 21.6218,-37.1827 7.2957,0 17.6142,-33.8211 14.3211,-46.9421 -3.2551,-9.8497 4.459,-14.8536 -7.9954,-25.2101 -17.1913,-14.2952 -57.0172,-33.3738 -74.719,-40.6359 l 8.3773,-21.1689 c 9.966,4.1841 22.427,9.9116 37.712,17.3017 4.4886,2.1702 8.8415,4.2541 13.0936,6.2724 -1.4876,-10.1837 -2.5988,-34.4814 -2.5988,-42.0109 0,-17.921 -9.5925,-27.7464 -14.5288,-14.8824 -1.7435,4.5434 -8.0711,9.5415 -14.0599,11.1076 -18.0132,4.7106 -13.001,-14.1238 8.729,-32.8058 14.986,-12.8838 19.6439,-21.2868 19.7371,-35.5964 0.067,-10.3021 3.7489,-22.3581 8.1819,-26.791 12.8802,-12.8802 28.0104,-70.8592 19.8135,-75.9252 -3.7184,-2.2981 -5.0492,-6.9468 -2.9576,-10.3313 2.0917,-3.3844 1.1686,-11.0767 -2.0517,-17.0939 -6.894,-13.5597 11.7105,-32.7967 21.3465,-37.7938 7.2561,-3.6391 10.4244,-7.5403 7.0397,-8.6686 -4.2325,-1.4109 -4.5016,-7.8153 -0.8597,-20.5134 3.7586,-13.1056 2.9365,-27.0116 -2.8351,-47.9315 -4.4716,-16.2085 -20.6822,-80.2243 -36.0228,-142.2579 -52.2786,-160.0467 -94.4826,-348.9717 -174.7847,-475.1528 -43.5003,-77.9429 -36.0253,-72.6178 -52.0172,-105.1977 -61.43085,8.7683 -114.84898,16.658 -129.00628,19.2344 0.1297,-1.3576 0.28886,-2.9031 0.52233,-4.8779 0.86356,-7.3043 0.72778,-12.3938 -0.20428,-15.7207 66.6231,-8.7959 347.85813,-46.7606 359.46733,-45.9189 26.9007,1.9505 27.1804,1.2883 20.382,-48.3116 l -3.5865,-26.164 -40.1598,0 c -13.3084,0 -264.66943,23.852 -343.89773,31.8217 -1.28609,-5.3886 -2.55242,-10.7835 -3.757,-16.1897 27.87333,-2.7384 285.31863,-27.5994 292.06703,-28.0754 66.3956,-4.6827 97.2806,-8.9491 97.2806,-13.4364 0,-14.8243 18.7765,-20.4725 77.3941,-23.2827 84.8599,-4.0683 85.7676,-3.993 102.5136,8.3879 14.1866,10.4885 19.4102,10.7783 97.0087,5.3984 l 63.766,-4.4213 c 12.7671,0.1296 22.9168,-1.9821 36.4811,-1.1795 -1.848,95.1313 -5.217,178.5715 -7.7041,184.1905 -3.3911,7.662 -1.8587,12.7845 5.4197,18.1065 20.3542,28.8377 23.7912,49.7466 39.8295,81.5934 10.9175,21.6795 34.0217,79.3051 51.3439,128.0577 17.3222,48.7526 36.0193,97.5378 41.5472,108.4112 5.528,10.8734 12.9503,30.5409 16.4953,43.7055 8.8362,33.3157 5.8632,56.9785 18.1366,85.8426 18.952,32.1368 47.976,44.2006 82.3342,46.7164 64.9337,4.5769 104.4404,21.6258 145.7289,62.8902 41.3511,41.3269 53.3262,75.4114 42.1245,119.8971 -9.7016,38.5294 -26.9812,70.2529 -48.6153,89.2549 -18.5887,16.327 -19.1355,17.9675 -15.6728,46.9634 3.2548,27.2595 4.686,29.7072 15.4383,26.3966 29.9995,-9.2368 93.4476,-19.7709 119,-19.7584 50.6486,0.026 87.3511,35.1837 87.3897,83.718 0.017,20.2615 -3.1667,27.6402 -18.3071,42.407 -10.0805,9.8318 -24.4502,21.7955 -31.9336,26.585 -12.5547,8.0354 3e-4,-6e-4 -8.4305,6.4091 l 11.1146,58.3552 -183.0946,17.7884 -144.3487,16.1098 c -79.1025,8.8277 -207.871,9.6721 -260.3431,17.1028 l -23.4887,3.3271 -6.3363,36.3887 c -3.4853,20.0141 -5.9081,58.2107 -5.3824,84.8815 0.9021,45.8111 1.4618,47.8483 10.088,36.8364 21.8777,-27.9276 193.7399,-59.4276 252.4489,-46.2706 21.3107,4.7757 38.046,4.0685 79.2487,-3.3502 50.0105,-9.0046 154.3148,-22.1352 147.8054,-11.6032 -1.6681,2.6992 -104.784,27.1699 -130.4521,37.3213 -43.2272,17.0958 -96.0541,45.2762 -136.9005,73.0279 -32.8317,22.3064 -33.9819,12.187 -3.0606,-26.9314 18.5362,-23.4501 27.6134,-29.7722 53.5749,-37.3195 17.1915,-4.9977 31.2568,-9.8558 31.2568,-10.795 0,-0.9391 -32.3569,-1.105 -71.9034,-0.3694 -87.3956,1.6256 -119.6439,10.6429 -222.6541,62.2613 -39.5137,19.8004 -74.6033,36.0015 -77.9767,36.0015 -13.195,0 -1.1994,-20.1447 22.915,-38.4795 31.3798,-23.8588 34.6512,-35.1525 35.7633,-123.48 l 0.8687,-68.9067 -39.476,2.8084 c -21.7118,1.5449 -54.7038,5.2542 -73.3139,8.2423 -62.4704,10.0306 -143.1582,4.0464 -164.0609,-12.1663 -9.3957,-7.2874 -13.9131,0.8846 -7.3097,13.2232 3.2305,6.0361 9.4034,9.6194 13.7188,7.9634 12.1674,-4.669 16.5771,7.8012 14.7154,41.613 -1.0938,19.8662 1.3934,36.9767 6.9171,47.5958 5.8461,11.2381 7.5499,24.4105 5.2918,40.8864 -2.6378,19.2441 -1.5846,24.3059 5.0537,24.3059 12.0129,0 77.6667,51.5796 96.4705,75.7901 13.3599,17.2011 16.5974,26.2976 12.6992,26.2688 l 0,0 z m -86.9066,-285.3613 c 2.7987,-0.018 4.7471,-0.5727 5.8389,-1.6645 2.8713,-2.8712 -3.2424,-17.1821 -14.4666,-33.8609 -33.7999,-50.2263 -47.728,-115.1163 -36.4456,-169.7879 7.6785,-37.2093 -3.3579,-43.1074 -18.1383,-9.6936 -6.485,14.6603 -12.2513,33.5104 -12.8147,41.8883 -0.5632,8.3796 -4.1965,18.5857 -8.0735,22.6841 -6.7175,7.1014 -10.4465,44.6732 -8.356,84.1888 0.5657,10.6938 -1.4634,23.7002 -4.393,30.4236 50.9445,23.8375 83.5452,35.909 96.8488,35.8221 z m 143.6453,-10.1857 c 19.9495,-0.01 49.4654,-2.8091 65.0165,-7.2848 13.2153,-3.8034 17.6156,-69.5173 5.3433,-79.7922 -4.6308,-3.8772 -16.8175,-7.0486 -27.0806,-7.0486 -15.4577,0 -18.7374,2.1773 -19.1119,12.6885 -0.7542,21.1643 -18.8184,69.0362 -26.3344,69.7878 -3.8772,0.3877 -9.5869,1.0227 -12.6886,1.4104 -3.1017,0.3877 -5.64,3.5376 -5.64,7.0007 0,2.2439 8.5259,3.2437 20.4957,3.2382 z m -73.8575,-1.6289 c 12.0802,-0.172 23.5603,-4.9174 33.7758,-14.1238 6.9401,-6.2546 16.0988,-9.0812 23.3146,-7.1943 9.9604,2.6047 13.4806,-1.0721 21.7444,-22.7107 6.3458,-16.6165 8.7795,-33.8746 6.8283,-48.4217 l -3.0304,-22.6042 29.0701,0.078 c 15.9886,0.042 35.0781,1.6848 42.4212,3.6504 13.1586,3.522 13.2941,4.2926 9.4449,53.4968 l -3.9044,49.9245 32.8502,0.1439 c 18.0675,0.079 71.5566,-6.8843 119.3641,-9.7824 l 81.5296,-4.9418 -14.6674,-157.1793 c -1.4583,-15.6265 39.687,-17.2782 66.7271,-17.6411 145.8183,-2.5887 152.6058,-10.9302 143.0715,-51.4504 -8.0104,-34.0434 -7.5661,-34.9103 -28.5763,-38.4599 -31.0488,-5.2456 -55.1561,5.0279 -86.5264,36.8772 -29.8294,30.2847 -38.8646,10.5787 -38.332,-1.3359 50.7709,-46.6894 75.5217,-55.2807 166.816,-69.8606 13.7392,-4.1478 42.5441,-56.2708 46.807,-84.6985 8.8441,-58.9766 -47.8284,-117.098 -136.7654,-140.263 -38.4492,-10.015 -89.8681,-9.8753 -194.8772,0.5311 -83.4635,8.2711 -71.4086,4.104 -199.2114,68.8712 -25.0046,12.6697 -67.6469,28.6004 -94.7688,35.4028 -78.9912,19.8117 -99.9581,42.2179 -83.551,89.2833 4.8392,13.8814 3.2485,17.3353 -15.2128,33.0527 -11.3388,9.6535 -29.4541,23.4942 -40.2575,30.7577 -25.2029,16.9445 -27.8916,33.0023 -7.1233,42.542 9.7301,4.4695 16.3035,5.0572 17.4688,1.5614 1.0275,-3.0825 10.0594,-14.81 20.071,-26.0609 14.6202,-16.4298 23.335,-21.0341 44.2775,-23.3947 25.1797,-2.8381 27.0242,-1.991 53.7047,24.6896 15.1961,15.1961 28.9623,32.7292 30.5925,38.9626 3.9223,14.9988 -4.0877,35.6686 -15.5236,40.0569 -9.2584,3.5529 -22.0864,-9.3785 -14.7775,-14.8965 11.5667,-8.7329 5.8553,-27.9636 -13.2997,-44.782 -17.1678,-15.0735 -24.3026,-17.718 -43.9293,-16.2874 -21.4716,1.565 -24.4931,3.8116 -36.1205,26.8692 -10.573,20.967 -12.6885,34.339 -12.6885,80.2008 0,46.7432 2.169,59.943 14.3867,87.5691 16.8604,38.1247 32.526,56.6356 56.6285,66.9137 7.5368,3.2139 15.0009,4.7572 22.2489,4.654 z m 428.1558,-26.3345 131.9531,-13.55 -12.8448,-131.0242 -131.6868,4.059 12.5785,140.5152 z m 181.6628,-22.3679 c 4.5673,0.02 10.0168,-2.1414 16.0529,-6.5956 7.4393,-5.4896 9.2874,-10.1197 5.5316,-13.8627 -3.1017,-3.091 -12.8195,-7.3943 -21.5934,-9.5621 -14.9728,-3.6996 -15.8375,-2.9463 -14.0972,12.2426 1.3347,11.6487 6.494,17.7438 14.1061,17.7778 z m 53.8254,-4.3183 83.988,-8.9191 -6.2599,-22.5598 c -0.7277,-5.6425 -70.3408,11.1718 -81.6237,13.4133 l 3.8956,18.0656 z m -20.3393,-44.6932 c 1.2583,0.01 2.5279,0.01 3.8085,0 23.2223,-0.162 49.9197,-3.1979 72.3458,-8.944 57.7195,-14.789 77.8284,-31.5772 78.1278,-65.2172 0.1986,-22.3238 -14.1241,-39.7416 -41.0748,-49.953 -8.7315,-3.3083 -21.419,-5.811 -28.1962,-5.5671 -32.8158,1.2012 -86.4437,17.8581 -116.7848,36.2892 -29.8663,18.1429 -33.6947,22.5124 -33.6265,38.3925 0.1246,28.9655 5.5849,41.4983 21.1778,48.6029 9.1457,4.1671 25.3493,6.2681 44.2224,6.3967 z m -745.3013,-225.482 c 3.8578,0.024 9.2645,-2.491 16.179,-7.5673 8.5646,-6.2878 8.8072,-9.7848 2.2524,-32.3795 -4.652,-16.036 -8.9361,-22.7616 -11.676,-18.3285 -7.7139,14.6787 -10.6153,24.0165 -13.058,37.0656 -2.283,14.068 -0.133,21.168 6.3026,21.2097 z m 24.8121,-107.5905 c 4.5188,0.031 12.9195,-4.7854 25.4605,-13.2961 10.7147,-7.2685 35.5716,-16.4779 55.2359,-20.4583 34.2974,-6.9423 125.4102,-46.0565 148.1731,-63.6096 10.3619,-7.9903 9.5407,-9.0175 -16.3353,-20.4636 -32.8949,-14.5511 -113.1755,-84.5316 -105.6294,-92.0776 3.187,-3.1871 21.3794,6.934 46.8532,26.068 45.3601,34.071 55.7422,37.7285 55.7422,19.6395 0,-38.0034 -61.5355,-184.4495 -158.7284,-377.7515 -33.6649,-66.9545 -61.2097,-123.4186 -61.2097,-125.4767 0,-2.058 3.7606,-3.741 8.356,-3.741 10.9612,0 172.3671,327.5672 197.9289,401.6897 10.4067,30.176 21.7837,71.3065 25.283,91.4008 5.6833,32.6357 8.4001,37.7364 25.4534,47.7982 15.7052,9.2663 22.1106,10.2124 36.1187,5.3291 16.9477,-13.556 34.0198,-30.2269 32.4736,-42.8476 -2.8184,-22.398 -26.6875,-114.7051 -41.9381,-162.1851 -8.2523,-25.6919 -45.0054,-109.5539 -86.8568,-198.1865 -8.9968,-19.0536 -16.3566,-36.0935 -16.3566,-37.8666 0,-1.773 -13.958,-27.3995 -31.0171,-56.9483 -17.0594,-29.5489 -31.017,-57.5534 -31.017,-62.233 0,-18.9564 12.4517,-5.8881 41.5935,43.6558 48.5369,82.5186 127.9264,271.6136 159.0871,378.924 10.3062,35.492 21.0778,62.3608 25.0005,62.3608 3.7905,0 11.4174,-11.4194 16.9482,-25.377 10.0812,-25.4404 14.358,-27.7176 37.9324,-20.2025 9.3639,2.9849 12.6885,1.8009 12.6885,-4.5191 0,-17.177 -16.1957,-70.1064 -29.7025,-97.0691 -7.6193,-15.21 -18.2435,-41.6121 -23.6096,-58.6714 -10.4875,-33.3417 -96.3346,-211.5885 -122.5226,-254.3976 -8.748,-14.3007 -15.9054,-31.4298 -15.9054,-38.0656 0,-11.4195 -2.6738,-12.065 -49.985,-12.065 -27.4918,0 -63.5035,2.5636 -80.0249,5.6968 -16.5215,3.1332 -54.9982,6.9774 -85.5051,8.5425 -46.1422,2.3674 -56.0191,1.4095 -58.7459,-5.6968 -2.055,-5.3552 -9.8923,-8.2904 -21.0037,-7.8657 -9.9467,0.3798 -86.4579,10.6543 -166.6455,21.8723 13.3907,30.6183 49.9088,104.8022 77.7565,158.5666 56.3913,108.8717 68.2352,138.9854 121.7267,309.5145 23.837,75.9913 45.5911,140.4816 48.3436,143.3131 2.9685,3.0533 7.3318,-0.9694 10.7222,-9.8872 20.8945,-54.9568 65.9822,-122.1478 81.9664,-122.1478 11.1525,0 7.3717,18.0037 -7.1054,33.8361 -22.6973,24.8215 -46.3181,65.376 -66.219,113.6905 -17.8851,43.4206 -23.4079,61.1482 -14.7811,61.208 z m 331.5076,-133.8877 39.0941,-3.6931 c 21.5024,-2.0306 53.6246,-5.1554 71.3811,-6.9438 l 32.2835,-3.2507 -9.7255,-13.1149 c -5.3499,-7.2133 -22.5395,-20.9301 -38.1988,-30.4805 -15.6591,-9.5504 -31.488,-17.3639 -35.1754,-17.3639 -3.6876,0 -12.9863,9.5162 -20.6627,21.1476 -7.6763,11.6314 -19.5904,28.4726 -26.4766,37.4243 l -12.5197,16.275 z m -46.2937,-554.3464 c 4.948,-0.1423 8.8746,-4.9312 8.8746,-13.9516 0,-11.2788 -2.8182,-14.0972 -14.0971,-14.0972 -15.7767,0 -16.5971,1.7148 -8.2619,17.2893 3.9575,7.3944 9.1185,10.885 13.4844,10.7595 z m -310.4737,-32.7721 c 38.4409,0.1916 134.3851,-6.1008 138.6873,-10.2247 6.0024,-5.7537 -10.7293,-21.9949 -27.6632,-26.8514 -12.591,-3.6112 -24.3345,-3.0214 -37.9661,1.9078 -17.8552,6.4565 -20.7735,6.0219 -30.6404,-4.5688 -10.7872,-11.5788 -10.7818,-11.8312 0.4868,-23.0998 12.5815,-12.5815 20.2069,-14.3031 25.4907,-5.7536 1.9171,3.1016 14.7556,5.6399 28.5301,5.6399 l 25.0449,0 0,-22.558 0,-22.5579 -29.6084,0.7425 c -41.0294,1.027 -106.0243,8.9356 -110.493,13.4453 -5.5297,5.5802 -3.2911,87.2345 2.5384,92.6033 0.9134,0.8411 6.7219,1.2312 15.5929,1.2754 z m 269.4007,-10.3757 c 14.7014,0 26.3701,-0.3016 31.4558,-0.8953 l 18.4918,-2.1582 0,-41.6787 c 0,-36.3433 -1.2618,-41.5389 -9.8676,-40.5987 -5.428,0.5929 -42.0257,2.4961 -81.327,4.2295 -39.3014,1.7333 -73.0822,4.7874 -75.069,6.7874 -1.9868,2.0004 -1.8896,18.8598 0.215,37.4653 l 3.8263,33.8271 62.6184,2.144 c 17.2198,0.5888 34.9549,0.8806 49.6563,0.8776 z"
       id="path4308"
       inkscape:connector-curvature="0" /><path
       style="opacity:1;fill:#000000;fill-opacity:1;fill-rule:nonzero;stroke:#000000;stroke-width:0.90949553;stroke-miterlimit:4;stroke-dasharray:none;stroke-opacity:1"
       d="m 1970.1973,2626.7758 c -21.7347,8.7241 -116.445,13.2264 -135.8594,6.4585 -17.3237,-6.0391 -24.2946,-0.4452 -10.539,8.4576 3.877,2.5093 40.9913,8.4547 82.4761,13.2122 71.0141,8.1437 76.7407,8.0615 97.8853,-1.4051 16.2794,-7.2885 21.5161,-12.5105 19.0334,-18.9801 -1.8837,-4.9088 -3.4248,-9.9864 -3.4248,-11.2835 0,-4.3228 -36.4712,-1.7179 -49.5716,3.5404 z"
       id="path4310"
       inkscape:connector-curvature="0" /><path
       style="opacity:1;fill:#000000;fill-opacity:1;fill-rule:nonzero;stroke:#000000;stroke-width:0.90949553;stroke-miterlimit:4;stroke-dasharray:none;stroke-opacity:1"
       d="m 2220.9104,2584.2628 c -34.4402,13.0107 -147.6086,21.76 -123.7751,59.0548 61.6717,-4.8455 113.7389,-29.6824 152.6724,-49.0347 7.657,-3.4887 12.5828,-8.5098 10.9461,-11.1579 -4.2057,-6.805 -32.7148,-5.9908 -39.8434,1.1378 z"
       id="path4312"
       inkscape:connector-curvature="0"
       sodipodi:nodetypes="cccsc" /><path
       style="opacity:1;fill:#000000;fill-opacity:1;fill-rule:nonzero;stroke:#000000;stroke-width:0.90949553;stroke-miterlimit:4;stroke-dasharray:none;stroke-opacity:1"
       d="m 2372.233,2621.6271 c -50.4933,11.7667 -65.0335,16.9536 -61.8712,22.0707 1.8277,2.9568 -1.8411,5.3762 -8.1526,5.3762 -15.3276,0 -44.3023,18.1224 -41.6308,26.0383 3.137,9.2948 -26.5869,13.4888 -53.2081,7.5074 -30.677,-6.8926 -77.2264,2.1443 -102.8339,19.9639 -55.5487,38.6547 -101.6858,91.0362 -101.6858,115.4484 0,14.7604 17.5371,2.9587 42.1427,-28.3603 57.0227,-72.5806 92.5475,-94.6046 140.902,-87.3534 14.0878,2.1125 25.614,5.881 25.614,8.3744 0,2.4934 -5.2612,11.2218 -11.6915,19.3967 -6.4303,8.1749 -10.8714,18.7901 -9.8691,23.5897 1.3763,6.589 6.8186,4.0016 22.2217,-10.5645 47.3415,-44.7696 130.362,-92.1179 171.3763,-97.7395 34.9034,-4.7841 33.4079,3.9664 -9.417,55.0975 -19.1178,22.8257 -40.4574,54.2239 -47.4215,69.7737 -33.6912,75.2282 -114.5949,254.2513 19.5398,16.907 14.5297,-25.7094 39.6868,-68.68 58.8379,-93.9291 19.1511,-25.2492 37.2108,-49.106 40.1325,-53.0153 3.4652,-4.6362 2.7349,-10.2136 -2.1003,-16.0396 -8.227,-9.9129 -35.1175,-10.8773 -70.8851,-2.5422 z"
       id="path4314"
       inkscape:connector-curvature="0"
       sodipodi:nodetypes="scssssssssscsssssssss" /><path
       style="opacity:1;fill:#000000;fill-opacity:1;fill-rule:nonzero;stroke:#000000;stroke-width:1;stroke-miterlimit:4;stroke-dasharray:none;stroke-opacity:1"
       d=""
       id="path4316"
       inkscape:connector-curvature="0"
       transform="matrix(0.8,0,0,-0.8,0,3264)" /><path
       style="opacity:1;fill:#000000;fill-opacity:1;fill-rule:nonzero;stroke:#000000;stroke-width:0.90949553;stroke-miterlimit:4;stroke-dasharray:none;stroke-opacity:1"
       d="m 1857.1113,2900.3306 c -60.1415,24.2618 -136.232,78.1606 -136.232,96.5002 0,11.4721 3.8324,9.6192 38.4465,-18.5872 35.4372,-28.8774 111.015,-68.7994 117.6623,-62.1522 2.3328,2.3328 -0.3035,17.0377 -5.8584,32.6778 -11.1362,31.3548 -8.0707,42.2955 6.6293,23.66 13.0209,-16.5067 53.2331,-35.7445 74.7154,-35.7445 14.7358,0 17.0365,1.6741 13.5616,9.8689 -20.7195,48.8638 -24.1195,69.083 -11.6162,69.083 4.8914,0 9.4288,-8.6729 11.7617,-22.4825 2.0892,-12.3652 10.0503,-31.695 17.6914,-42.9549 13.1259,-19.342 13.3655,-21.0554 4.3403,-31.0282 -7.6391,-8.4412 -14.1904,-9.8269 -32.7041,-6.9174 -12.7332,2.0011 -28.9404,7.3916 -36.0161,11.979 -17.7324,11.4963 -21.8948,4.6412 -11.0241,-18.1552 12.9501,-27.1565 4.1538,-28.1408 -51.3576,-5.7468 z"
       id="path4318"
       inkscape:connector-curvature="0" /><path
       style="opacity:1;fill:#000000;fill-opacity:1;fill-rule:nonzero;stroke:#000000;stroke-width:0.90949553;stroke-miterlimit:4;stroke-dasharray:none;stroke-opacity:1"
       d="m 2321.4781,2870.7866 c -9.305,7.1109 -37.2202,25.4041 -62.0337,40.6516 -59.4396,36.5249 -87.4319,63.0272 -107.532,101.8083 -9.0944,17.5467 -18.8533,36.2479 -21.6863,41.5582 -8.1436,15.2647 -61.9738,37.6741 -141.4741,58.8953 -97.277,25.9665 -165.8309,54.7072 -154.188,66.3501 4.9945,4.9944 230.0437,-62.6986 267.639,-79.7282 36.0515,-16.3303 53.3996,-35.6246 81.1153,-90.2149 21.8992,-43.1341 75.5506,-91.3472 131.2146,-117.9145 27.0825,-12.926 49.2409,-25.9673 49.2409,-28.9807 0,-10.032 -25.15,-5.5278 -42.2957,7.5748 z"
       id="path4320"
       inkscape:connector-curvature="0"
       sodipodi:nodetypes="sssssssssss" /><path
       style="opacity:1;fill:#000000;fill-opacity:1;fill-rule:nonzero;stroke:#000000;stroke-width:0.90949553;stroke-miterlimit:4;stroke-dasharray:none;stroke-opacity:1"
       d="m 1731.7654,3150.2489 c 9.5691,17.88 91.2105,45.912 132.9193,45.6385 21.0562,-0.138 21.829,-0.6991 11.6108,-8.4277 -6.0208,-4.5539 -17.4516,-8.2797 -25.4018,-8.2797 -12.5819,0 -47.9759,-11.3538 -103.5942,-33.2314 -21.0945,-8.2976 -22.1238,-8.0126 -15.5341,4.3003 z"
       id="path4322"
       inkscape:connector-curvature="0" /><path
       style="opacity:1;fill:#000000;fill-opacity:1;fill-rule:nonzero;stroke:#000000;stroke-width:1;stroke-miterlimit:4;stroke-dasharray:none;stroke-opacity:1"
       d=""
       id="path4324"
       inkscape:connector-curvature="0"
       transform="matrix(0.8,0,0,-0.8,0,3264)" /><path
       style="opacity:1;fill:#000000;fill-opacity:1;fill-rule:nonzero;stroke:#000000;stroke-width:0.90949553;stroke-miterlimit:4;stroke-dasharray:none;stroke-opacity:1"
       d="m 1410.416,2992.5277 c 10.3118,19.2678 60.3684,51.1944 133.9332,85.4237 39.7104,18.4771 81.5553,38.6439 92.9885,44.8151 11.4334,6.1712 24.495,9.7978 29.026,8.0591 10.0121,-3.842 34.1584,20.543 49.4744,49.9634 13.2842,25.5174 20.6696,23.6598 17.3966,-4.3756 -1.3079,-11.2032 10.2193,-26.9853 8.5576,-25.3237 -1.6617,1.6617 -19.7668,7.7093 -23.1751,3.6912 -18.5833,-21.9068 -78.8611,-67.7769 -80.9259,-61.5827 -3.1141,9.3422 -26.2936,3.2945 -50.604,-13.2029 -10.4164,-7.0689 -32.1571,-17.176 -48.3127,-22.4604 -33.8214,-11.0627 -67.0864,-27.0216 -78.1304,-37.4832 -12.2669,-11.62 -48.8709,-38.2516 -52.5752,-38.2516 -1.8668,0 -0.8108,4.8274 2.347,10.7276 z"
       id="path4326"
       inkscape:connector-curvature="0"
       sodipodi:nodetypes="ssssssccssssss" /><path
       style="opacity:1;fill:#000000;fill-opacity:1;fill-rule:nonzero;stroke:#000000;stroke-width:0.90949553;stroke-miterlimit:4;stroke-dasharray:none;stroke-opacity:1"
       d="m 1338.3682,2818.0445 c -0.9928,1.0108 16.9363,66.5361 19.1332,74.9412 4.9141,18.8182 28.8488,83.1944 32.7258,88.0217 1.557,1.9386 6.1648,3.5052 10.2398,3.4814 4.1305,-0.024 6.0225,-0.9599 4.2757,-2.1148 -1.7233,-1.1394 -3.9869,-7.868 -5.0305,-14.9526 -2.2929,-15.5686 -14.3491,-41.7577 -29.4809,-64.0404 -6.1402,-9.0419 -26.5558,-98.1019 -12.1371,-22.8965 -0.5353,-3.5512 -18.7331,-63.4509 -19.726,-62.44 z"
       id="path4328"
       inkscape:connector-curvature="0"
       sodipodi:nodetypes="ccccscscc" /><path
       style="opacity:1;fill:#000000;fill-opacity:1;fill-rule:nonzero;stroke:#000000;stroke-width:0.90949553;stroke-miterlimit:4;stroke-dasharray:none;stroke-opacity:1"
       d="m 1383.5856,2407.0247 c -1.9382,3.5836 -4.0743,16.7517 -4.7468,29.2625 -1.0819,20.1228 -0.3761,24.5368 6.1164,38.2611 10.2672,21.7028 28.8277,46.8154 38.1728,51.6479 6.9053,3.5709 8.6207,3.5497 13.9345,-0.1723 7.3388,-5.1403 7.7943,-13.3856 1.1254,-20.3762 -7.4401,-7.7989 -12.3756,-17.2896 -10.5378,-20.2633 0.9004,-1.4569 14.2045,-9.1044 29.5647,-16.9943 43.364,-22.2746 48.4289,-27.7742 36.1307,-39.2315 -9.0587,-8.4397 -13.8139,-7.1969 -27.7833,7.2614 -15.4931,16.0353 -26.1633,20.8257 -46.3866,20.8257 -14.495,0 -15.8907,-0.5808 -18.632,-7.7541 -1.6297,-4.2649 -2.55,-16.6364 -2.045,-27.4923 0.8593,-18.4726 0.5237,-19.7941 -5.2354,-20.614 -4.1014,-0.5839 -7.3287,1.2967 -9.6776,5.6394 z"
       id="path4332"
       inkscape:connector-curvature="0" /><path
       style="opacity:1;fill:#000000;fill-opacity:1;fill-rule:nonzero;stroke:#000000;stroke-width:0.90949553;stroke-miterlimit:4;stroke-dasharray:none;stroke-opacity:1"
       d="m 1439.7067,1510.3469 c -2.0113,1.1379 -6.1351,5.674 -9.164,10.0801 -5.145,7.4846 -5.4946,8.6343 -5.3176,17.4895 0.2385,11.9268 3.1566,18.3196 12.6076,27.6198 13.319,13.1064 27.1031,16.6577 40.9243,10.5441 3.7397,-1.6544 7.897,-4.0011 9.2385,-5.2151 3.5179,-3.1837 7.0047,-19.7143 5.4592,-25.8821 -3.3701,-13.4503 -4.4009,-15.2707 -12.4014,-21.9047 -14.7153,-12.2018 -32.5671,-17.6988 -41.3466,-12.7316 z m 22.3636,28.3592 c 6.6408,2.7748 11.6194,7.4197 10.6527,9.9389 -0.412,1.0735 -3.1298,2.6652 -6.0397,3.537 -4.3382,1.2997 -6.1522,1.1709 -10.0755,-0.7156 -6.1798,-2.9715 -11.6461,-10.5061 -9.4991,-13.093 2.0587,-2.4807 8.5752,-2.3358 14.9616,0.3327 z"
       id="path4334"
       inkscape:connector-curvature="0" /><path
       style="opacity:1;fill:#000000;fill-opacity:1;fill-rule:nonzero;stroke:#000000;stroke-width:0.90949553;stroke-miterlimit:4;stroke-dasharray:none;stroke-opacity:1"
       d="m 1527.9551,1700.5544 c -9.4601,4.3896 -11.6111,7.9467 -12.6985,21.0008 -0.934,11.2138 -0.7413,12.5981 2.8767,20.66 3.2629,7.2707 5.2019,9.5251 12.2272,14.2166 8.3843,5.5987 15.9599,8.051 20.5216,6.6427 10.3663,-3.2003 22.0807,-8.1095 23.0683,-9.6675 0.6555,-1.0339 1.2015,-6.2282 1.2133,-11.5427 0.019,-8.4256 -0.642,-10.9255 -5.1608,-19.525 -5.6175,-10.69 -10.9996,-16.8601 -17.7535,-20.3527 -5.9915,-3.0984 -19.0449,-3.8678 -24.2943,-1.4322 z m 22.3654,28.6073 c 4.6748,4.6747 4.9372,8.9837 0.5448,8.9408 -5.6716,-0.056 -15.156,-5.2128 -15.156,-8.2418 0,-5.5277 9.336,-5.9743 14.6112,-0.699 z"
       id="path4336"
       inkscape:connector-curvature="0" /><path
       style="opacity:1;fill:#000000;fill-opacity:1;fill-rule:nonzero;stroke:#000000;stroke-width:0.90949553;stroke-miterlimit:4;stroke-dasharray:none;stroke-opacity:1"
       d="m 1602.152,1866.5384 c -5.4987,2.201 -14.2073,9.7642 -16.6238,14.4374 -1.766,3.4153 -2.0843,6.8745 -1.4542,15.8045 0.9497,13.4574 2.4537,17.2407 10.0906,25.3822 7.4205,7.9111 26.8345,20.4138 31.604,20.3532 5.6276,-0.072 10.0529,-4.7171 12.3495,-12.9648 2.8655,-10.2906 2.5086,-19.5902 -1.1696,-30.4795 -2.6675,-7.897 -4.5541,-10.6145 -12.7098,-18.3082 -5.2677,-4.9692 -9.5774,-9.8079 -9.5774,-10.7526 0,-0.9448 -1.616,-2.454 -3.591,-3.3539 -4.161,-1.8958 -4.4675,-1.8999 -8.9183,-0.1183 z m 12.9965,33.9472 c 5.8904,4.0242 7.9418,6.6786 7.0194,9.0825 -1.1647,3.0352 -6.291,2.359 -12.1139,-1.5978 -5.7377,-3.8988 -6.6282,-6.7673 -2.7945,-9.0002 3.2319,-1.8824 2.7919,-1.9669 7.889,1.5155 z"
       id="path4338"
       inkscape:connector-curvature="0" /><path
       style="opacity:1;fill:#000000;fill-opacity:1;fill-rule:nonzero;stroke:#000000;stroke-width:3.27418399;stroke-miterlimit:4;stroke-dasharray:none;stroke-opacity:1"
       d="m 2137.4645,2637.9558 c -4.9347,1.1249 -9.124,2.1598 -9.3093,2.2999 -0.1854,0.1401 1.3116,7.58 3.3265,16.533 2.0149,8.9531 4.2283,19.0876 4.9184,22.5213 0.6902,3.4336 1.4364,6.3794 1.6581,6.5461 0.2218,0.1668 5.0015,-0.7952 10.6216,-2.1377 l 10.2185,-2.441 0,-7.6478 c 0,-6.0317 -0.7047,-9.743 -3.3346,-17.5636 -1.834,-5.4537 -3.8974,-12.271 -4.5856,-15.1496 -1.438,-6.0161 -0.7604,-5.8677 -13.5136,-2.9606 z"
       id="path4437"
       inkscape:connector-curvature="0" /><path
       style="opacity:1;fill:#000000;fill-opacity:1;fill-rule:nonzero;stroke:#000000;stroke-width:5.36602402;stroke-miterlimit:4;stroke-dasharray:none;stroke-opacity:1"
       d="m 2113.04,2576.8208 c 0,2.4441 6.2087,30.5444 6.9062,31.2572 0.4347,0.4443 5.5679,-0.6773 11.4071,-2.4923 8.4098,-2.6139 10.4769,-3.6108 9.9434,-4.7953 -0.5276,-1.1711 -4.5442,-13.2729 -7.8587,-23.6768 -0.4831,-1.5161 -20.398,-1.8019 -20.398,-0.2928 z"
       id="path4439"
       inkscape:connector-curvature="0" /><path
       style="display:inline;opacity:1;fill:#000000;fill-rule:evenodd;stroke:#000000;stroke-width:1.34035265px;stroke-linecap:butt;stroke-linejoin:miter;stroke-opacity:1;filter:url(#filter4226)"
       d="m 2120.9392,915.08543 c 0,0 -39.6374,-2.70104 -40.566,26.81402 -1.0739,34.13252 63.5771,33.76115 66.9467,16.7544 8.7867,-44.34492 -26.3807,-43.56842 -26.3807,-43.56842 z"
       id="path4234"
       inkscape:connector-curvature="0"
       sodipodi:nodetypes="cssc"
       transform="matrix(0.90949555,0,0,-0.90949555,15.70207,3348.6409)" /></g><g
     inkscape:groupmode="layer"
     id="layer2"
     inkscape:label="Arme2"
     style="display:inline;opacity:1;filter:url(#filter4226)"><g
       inkscape:groupmode="layer"
       id="layer3"
       inkscape:label="Hände"
       style="display:none"><path
         style="display:inline;opacity:1;fill:#000000;fill-opacity:1;fill-rule:nonzero;stroke:none;stroke-width:5.9000001;stroke-miterlimit:4;stroke-dasharray:none;stroke-opacity:1"
         d="m 845.14143,2733.145 c -9.3835,-1.3625 -19.7954,-4.0029 -23.1374,-5.8673 -18.04096,26.5428 -39.72524,16.9359 -53.10479,16.5956 -8.54279,-0.2251 -13.89309,1.0179 -17.81196,5.798 -10.13069,12.3571 -20.0281,13.0938 -45.04392,3.3524 -39.54852,-15.4004 -53.87287,-39.1068 -69.3856,-114.8307 -11.32287,-55.2721 -11.67812,-131.8047 -9.816,-166.2219 0.88272,-16.315 25.01885,-28.5269 16.90403,40.1517 -0.23537,26.8146 -2.31369,36.4623 -0.88894,45.2881 0.93177,5.2541 3.1358,21.3255 4.90222,35.7136 5.05174,41.254 21.88672,103.0168 31.78022,116.591 8.97039,12.3086 37.97603,26.3156 46.86685,22.6331 7.25368,-3.0045 7.16399,-4.7418 -0.86996,-16.8194 -18.04065,-27.1203 -20.82569,-33.7514 -15.16088,-36.0978 3.09506,-1.2819 11.80034,5.041 20.02629,14.5461 8.91907,10.3061 19.97276,18.0612 28.55709,20.0358 39.55779,20.3912 25.23392,-13.2233 21.66152,-19.5468 -1.62987,-2.8377 -2.49661,-7.3471 -0.54309,-11.0507 2.8375,-5.3798 7.79818,-4.7359 23.21156,5.4626 60.43306,39.9854 79.22116,20.833 70.37546,-10.3157 -4.8767,-17.1737 1.0584,-19.0162 20.6248,-6.4025 20.838,13.4332 33.6236,9.7668 43.453,-12.4603 12.9763,-29.3433 2.6387,-77.8078 -23.3446,-109.4456 -11.3262,-13.7916 -14.684,-12.6623 -14.6838,4.937 -2e-4,7.5593 -2.4262,14.7489 -5.3914,15.977 -13.6778,5.6656 -17.617,-45.0765 -5.247,-67.5906 7.135,-12.9863 21.866,-19.4297 28.4805,-12.4579 3.2421,3.4169 2.8337,9.1716 -1.1282,15.9051 l -6.2084,10.5511 14.9352,15.0094 c 20.1305,20.2442 22.9001,25.3959 37.5429,30.8773 27.7441,16.8639 -10.0818,-89.4029 -15.5595,-100.9618 -29.1961,-61.2387 -14.5291,-59.9701 5.1097,-24.8072 21.5017,38.4979 39.0988,88.6927 37.9523,119.9749 -0.9007,24.5678 -10.3929,41.1676 -21.1937,37.0623 -11.6253,-4.4182 -14.7609,3.4762 -11.6623,29.3586 2.5803,21.5557 0.9524,32.8622 -7.7603,53.8963 -11.507,27.7805 -24.1698,29.7516 -41.3197,28.2662 -8.583,-0.7438 -12.505,1.5843 -19.2435,10.5498 -11.1877,14.8844 -23.1726,19.3485 -43.8744,16.3425 z"
         id="path4757"
         inkscape:connector-curvature="0"
         sodipodi:nodetypes="cccssssccsssssscccssssssssssccccssssssssc" /><g
         style="display:inline;opacity:1;filter:url(#filter4226)"
         id="g4862"
         transform="matrix(0.92387953,-0.38268344,0.38268344,0.92387953,-520.30058,280.38257)"><path
           sodipodi:nodetypes="sscsssssscsss"
           inkscape:connector-curvature="0"
           id="path4858"
           d="m 490.72279,2672.2586 c -3.58631,-4.2201 -9.92442,-19.8878 -14.87098,-32.8282 l -9.72057,-25.4293 9.71601,-7.5935 c 18.6538,-14.5787 -6.94695,-28.8451 -25.55294,-11.897 -2.33414,2.1262 -4.64141,5.0394 -5.93968,5.429 -4.64682,1.3946 -3.23304,-8.9441 -5.19638,-19.409 -1.58497,-8.4482 -4.10667,-26.6087 -2.58959,-32.6532 2.67349,-10.652 8.84513,-11.5971 44.95644,-12.3601 l 38.90973,-0.8221 -0.41075,58.0188 c -0.34249,48.3754 -11.28697,88.0395 -17.40402,88.0395 -1.75144,0 -8.31095,-4.2749 -11.89727,-8.4949 z"
           style="opacity:1;fill:#ffe6d5;fill-opacity:1;fill-rule:nonzero;stroke:none;stroke-width:5.9000001;stroke-miterlimit:4;stroke-dasharray:none;stroke-opacity:1" /><path
           sodipodi:nodetypes="ssscssscscsssssscssccsccsssccsssss"
           inkscape:connector-curvature="0"
           id="path4860"
           d="m 338.85431,2770.6192 c -7.96206,-4.1823 -22.99473,-19.4995 -32.56065,-33.1771 -8.59258,-12.2858 -17.66425,-22.3346 -20.16284,-22.3346 -0.94289,0 -3.04412,0.9723 -4.6694,2.1608 -2.33939,1.7106 -3.17141,4.9431 -3.99348,15.5155 -1.71178,22.0145 -6.69892,23.6158 -23.40005,7.5137 -12.10095,-11.667 -16.24529,-17.9551 -22.03674,-33.4358 -5.17912,-13.844 -9.56731,-19.9685 -13.86792,-19.3554 -4.75794,0.6784 -5.04427,9.7888 -1.02043,32.4678 1.79976,10.1438 2.84917,19.1278 2.33203,19.9646 -1.85129,2.9954 -9.68765,1.4771 -15.26913,-2.9585 -7.13341,-5.669 -17.2462,-17.7047 -21.63429,-25.7481 -2.97156,-5.4469 -3.36688,-8.4618 -3.25214,-24.8024 0.21849,-31.1158 6.02387,-66.2578 19.07806,-115.4863 6.79376,-25.6199 9.26209,-32.1491 23.14817,-61.231 8.54894,-17.9043 16.81609,-36.5201 18.37145,-41.3686 l 2.82794,-8.8153 8.91913,10.778 c 16.0557,19.4019 65.56408,48.7957 91.85287,57.8436 14.06763,4.8418 32.87456,5.4783 38.95618,8.2637 30.09799,7.9854 24.62013,-0.3592 60.81143,7.548 12.68331,10.6717 11.08947,38.6481 4.75001,49.3257 -9.70407,16.3447 -15.76683,28.4456 -19.71213,36.1335 -3.41222,10.8119 -4.98346,19.7608 -2.00509,27.1212 0.48274,2.5482 5.63961,2.4396 10.7741,-2.9112 2.02826,-2.1137 8.96876,-23.1664 13.68426,-19.7934 2.94523,2.1067 8.81517,12.5601 10.17327,21.3658 0.97319,6.3099 3.0108,17.0938 3.12865,21.0482 0.0421,32.0802 -7.19183,68.1892 -34.20147,87.0089 -5.44858,3.609 -10.39573,3.002 -15.21117,3.002 -7.94591,0 -12.65912,-3.5664 -24.76607,-18.7403 -12.35934,-15.4901 -17.71676,-15.7255 -20.05935,-0.8812 -1.87065,11.8538 -4.42062,18.396 -8.92657,22.9019 -5.48475,5.4847 -12.97066,5.85 -22.05863,1.0763 z"
           style="opacity:1;fill:#ffe6d5;fill-opacity:1;fill-rule:nonzero;stroke:none;stroke-width:5.9000001;stroke-miterlimit:4;stroke-dasharray:none;stroke-opacity:1" /></g></g><path
       style="opacity:1;fill:#ff0000;fill-opacity:1;fill-rule:nonzero;stroke:none;stroke-width:5.9000001;stroke-miterlimit:4;stroke-dasharray:none;stroke-opacity:1"
       d=""
       id="path4289"
       inkscape:connector-curvature="0" /><path
       style="opacity:1;fill:#000000;fill-opacity:1;fill-rule:nonzero;stroke:none;stroke-width:5.9000001;stroke-miterlimit:4;stroke-dasharray:none;stroke-opacity:1"
       d="m 1325.8135,4035.8828 c -25.3554,-2.6842 -51.4944,-7.317 -58.0869,-10.295 -20.5947,-9.3035 -35.1186,-39.3872 -39.153,-81.0989 -2.4278,-25.1015 11.1284,-45.717 2.7066,-55.0046 48.6605,-7.8267 175.2584,0.2292 232.8349,0.3481 161.0366,0.055 222.2429,-8.1631 263.8456,-35.4222 20.5739,-13.4805 45.5306,-13.7489 40.4215,-0.4347 -5.0644,13.1976 1.3816,16.4805 63.6092,32.3957 29.1355,7.4516 65.5023,19.9401 80.8155,27.7522 37.9231,19.347 72.5995,60.1096 72.5995,85.342 0,39.869 2.4588,39.5565 -318.4656,40.4639 -162.2647,0.4587 -315.7721,-1.3621 -341.1273,-4.0465 z"
       id="path4407"
       inkscape:connector-curvature="0"
       sodipodi:nodetypes="sssccsssssss" /><path
       style="opacity:1;fill:#000000;fill-opacity:1;fill-rule:nonzero;stroke:none;stroke-width:5.9000001;stroke-miterlimit:4;stroke-dasharray:none;stroke-opacity:1"
       d="m 866.2874,3157.0415 c -24.14397,23.1048 -70.00309,67.2472 -93.04514,101.1468 -33.46806,49.2379 -34.44887,52.4553 -40.61994,132.8723 -8.36394,109.014 -10.02336,192.1463 -5.32765,267.1307 2.11681,33.8068 11.16993,90.0399 20.11712,124.9606 18.67951,72.9041 34.65745,92.5534 80.51238,99.0286 127.1967,-16.627 129.93375,-194.849 139.21994,-291.8755 0.77621,-6.9994 -11.20081,-6.0808 -9.98875,-13.019 -3.67389,-7.9958 -27.61963,-18.2242 -31.09538,-26.1575 -41.45714,-59.0331 -60.10382,-83.615 -82.5417,-195.7466 -6.98833,-34.9244 -7.50424,-81.5203 -10.9472,-103.3865 -19.42382,-31.1969 44.07579,-63.8402 33.71653,-94.954 z"
       id="path4409"
       inkscape:connector-curvature="0"
       sodipodi:nodetypes="csscsccccscc" /><path
       style="opacity:1;fill:#000000;fill-opacity:1;fill-rule:nonzero;stroke:none;stroke-width:5.9000001;stroke-miterlimit:4;stroke-dasharray:none;stroke-opacity:1"
       d="m 2080.5987,2424.939 c -0.4343,-0.011 -0.8659,0 -1.2924,0.011 -5.3062,0.1451 -9.8588,1.7904 -10.0608,5.1182 -0.1717,2.8305 -0.1001,17.1873 0.1599,31.9056 1.024,58.057 -27.6024,263.7947 -41.136,295.6371 -2.2217,5.2274 -6.6963,25.6054 -9.941,45.286 -18.2728,110.8279 -26.3952,144.9974 -41.7599,175.6708 -24.9023,49.7134 -54.3285,78.9428 -135.5029,134.6014 -44.2078,33.9304 -104.2423,57.4349 -146.2076,87.4523 l -19.5644,14.0554 -5.0271,-39.786 c -5.8257,-46.1154 -15.0888,-84.9936 -34.0083,-142.7126 -11.3248,-34.5492 -14.9807,-41.3823 -22.7264,-42.4883 -14.3756,-2.0527 -14.6625,7.2336 -1.5166,49.0452 20.2024,64.2556 24.2347,81.5677 32.9915,141.6558 9.9972,68.5977 23.6503,181.2606 27.1916,224.3763 1.3949,16.9824 5.0975,47.551 8.229,67.9301 5.8348,37.9717 8.0854,58.4662 14.686,133.802 2.0832,23.7757 7.5968,59.9011 12.2524,80.2803 4.6557,20.3792 10.0434,48.169 11.9727,61.7551 1.9298,13.5861 6.6872,46.0091 10.5738,72.0491 -11.131,55.8391 -136.523,42.2107 -185.9354,48.637 -23.0395,3.3916 -85.4779,6.282 -114.9145,10.7579 -160.0694,26.6774 -168.5274,-25.0344 -176.4243,-69.6889 -7.114,-40.0606 -18.7669,-103.9424 -28.5373,-156.4461 -27.1592,-145.9479 -45.7698,-221.8203 -91.8998,-374.6451 -17.0872,-56.6086 -35.4392,-119.6001 -40.7808,-139.9792 -16.7747,-63.9997 -17.8828,-66.0712 -51.8741,-96.9248 -24.026,-21.8085 -43.90215,-43.8262 -63.82454,-71.6739 -8.84426,4.2739 -16.88291,5.9391 -23.77656,5.6555 -1.16711,0.7979 -2.33606,1.6161 -3.50609,2.4003 3.98438,5.6412 8.00144,11.2138 11.89051,16.4491 11.77472,15.8506 34.24621,41.1706 49.93788,56.2661 l 28.5305,27.4448 -55.85312,26.7675 c -30.71894,14.7214 -89.77786,35.4597 -109.02487,44.5547 -45.17761,21.3485 -41.2179,34.7996 -50.10355,69.3587 -14.5958,56.7674 -0.83553,163.4096 28.53498,221.1367 6.01006,11.8125 10.92904,23.9066 10.92904,26.8762 0,2.9695 6.48323,18.9302 14.40849,35.4673 7.92517,16.5371 14.41071,32.0693 14.41071,34.5168 0,9.8357 26.13155,44.3127 39.61724,52.2694 8.05263,4.7512 21.60997,8.4821 30.8287,8.4821 25.7218,0 85.00538,-18.4366 145.86348,-45.3616 30.6164,-13.5455 57.1877,-24.6292 59.0483,-24.6292 3.1937,0 18.3805,69.5939 37.2858,170.8569 4.6503,24.9079 3.3794,75.8148 10.1781,112.0443 -19.0557,135.3948 71.5258,130.9463 238.583,108.6165 15.4324,-3.2452 84.9869,-12.2079 115.5557,-15.5855 74.4386,-8.2243 86.1175,3.6157 126.9279,-27.5038 21.6283,-16.4923 63.1085,24.8005 69.9262,1.0285 3.9715,-13.8474 8.6122,-9.6959 5.429,-40.1109 -2.5313,-24.1966 -24.8304,-79.8831 -37.5693,-147.191 -5.6199,-29.6933 -13.0142,-86.1994 -16.4313,-125.5686 -3.417,-39.3691 -8.828,-86.4019 -12.0259,-104.5165 -3.1978,-18.1149 -6.9752,-46.8308 -8.3933,-63.8135 -1.4181,-16.9825 -6.1568,-62.0692 -10.5293,-100.1932 -13.6378,-75.2056 -10.5252,-53.2998 15.7385,-71.8027 3.9547,-2.8594 13.4246,-8.0556 21.0453,-11.5463 24.8616,-11.3878 92.1884,-51.3796 139.9594,-83.1358 119.5428,-79.4669 145.414,-119.3129 171.6805,-264.4132 7.9933,-44.1547 17.1273,-88.6182 20.2971,-98.8077 23.5727,-75.7767 51.6672,-306.7889 40.7653,-335.1989 -1.5751,-4.1044 -8.7668,-6.3762 -15.2811,-6.4904 z m -1026.1068,680.1477 c 0.284,0.017 0.487,0.081 0.6017,0.1954 0.9172,0.9173 4.6851,14.4853 8.3711,30.1515 3.686,15.6661 12.8767,48.8643 20.4259,73.7721 24.2343,79.958 66.7331,229.6646 73.5413,259.0574 3.6313,15.6784 5.1653,29.8233 3.4083,31.4349 -8.2804,7.5949 -134.6421,57.8146 -164.44414,65.3546 -38.8289,9.8235 -36.10082,3.942 -45.65868,-3.3223 -7.68004,-5.837 -62.75471,-85.3758 -62.75471,-94.1687 0,-3.0273 -5.48984,-17.2468 -12.19914,-31.597 -19.11293,-40.8801 -28.83632,-82.1108 -31.63028,-134.1285 -3.27611,-60.9961 2.26518,-90.1621 19.95738,-105.0493 12.09785,-10.1797 142.07147,-75.2025 156.24187,-78.1642 3.7411,-0.7819 12.7125,-4.4796 19.9374,-8.2157 6.3218,-3.2691 12.2135,-5.4422 14.202,-5.3202 z"
       id="path4325"
       inkscape:connector-curvature="0"
       sodipodi:nodetypes="cccccssccccscsssssscccccsssscccscccsssssssssssccssscssssccssssccccssscsssssscscc" /><path
       style="opacity:1;fill:#000000;fill-opacity:1;fill-rule:nonzero;stroke:none;stroke-width:5.9000001;stroke-miterlimit:4;stroke-dasharray:none;stroke-opacity:1"
       d="m 1662.5638,1186.1043 c -30.5649,-0.2569 -313.2237,60.0639 -395.3907,84.5524 -115.5411,34.4347 -177.4631,88.1169 -251.2016,217.7706 -83.30556,146.476 -140.98654,287.4192 -176.12592,430.365 -51.58545,209.8471 -63.42266,288.89 -80.19592,535.4766 -4.11274,60.4627 -10.05736,130.6756 -13.20945,156.0309 -3.15208,25.3553 -3.01055,55.6539 0.31309,67.3307 3.32352,11.6766 6.04183,50.5666 6.04183,86.4198 0,74.3951 14.38691,152.4661 35.84692,194.5312 10.96908,21.5011 23.0136,32.489 47.47096,43.3077 31.14601,13.7772 33.86851,13.9064 54.83841,2.6134 12.13574,-6.5356 27.38319,-9.8421 33.88404,-7.3475 6.50084,2.4947 21.58262,-0.3332 33.51543,-6.2861 13.04592,-6.5079 31.07255,-9.3019 45.21051,-7.0076 18.6938,3.0335 27.5957,0.03 43.4409,-14.6551 18.3375,-16.7772 13.0636,-23.8119 61.442,-39.3862 3.5393,-2.5078 7.6119,-3.5516 9.3925,-7.0322 5.9709,-11.5465 10.8558,-38.4841 10.8558,-59.861 0,-34.9069 1.6264,-39.0984 15.9583,-41.1339 14.863,-2.1108 15.9285,-5.6736 15.5209,-51.914 -0.3527,-40.0264 -4.5536,-58.1885 -21.6782,-93.7296 l -21.2408,-44.0848 8.3667,-62.3013 c 4.6022,-34.2663 12.1973,-92.6229 16.8776,-129.6808 9.7461,-77.1682 40.7887,-223.6481 51.8541,-244.6868 4.1033,-7.8017 19.6099,-28.0585 34.4591,-45.0151 69.3517,-79.1946 164.5803,-241.1039 208.0138,-353.6663 28.1452,-72.9438 29.4994,-80.056 15.2345,-80.056 -5.753,0 -19.6377,23.2719 -32.7959,54.9672 -68.9832,166.1654 -156.9246,305.8746 -260.976,414.6042 -32.2262,33.6762 -44.192,51.0504 -40.9584,59.4769 4.1947,10.9313 5.8004,10.812 19.6376,-1.4721 14.945,-13.2672 15.0388,-13.2311 11.4287,4.3543 -22.493,109.5666 -36.5903,191.1578 -46.6494,270.0132 l -12.0615,94.5466 -30.4556,23.217 c -16.7507,12.7696 -46.8511,28.0882 -66.89102,34.0395 -41.9938,12.4708 -151.91441,14.3949 -191.66686,3.3551 -25.34514,-7.0387 -26.5921,-8.7904 -26.5921,-37.197 0,-16.3951 3.09424,-63.3202 6.86785,-104.2789 3.77373,-40.9585 10.27998,-122.3432 14.45956,-180.8554 8.26902,-115.7594 27.31037,-244.1333 49.44272,-333.3425 7.74219,-31.2067 22.16367,-91.5138 32.04773,-134.0152 19.83144,-85.274 59.21478,-182.02 128.47952,-315.6101 82.4193,-158.9614 120.0415,-205.3221 198.5148,-244.6334 51.8826,-25.9908 407.9794,-110.7294 465.3193,-110.7294 29.4533,0 24.6605,-23.9841 -5.3823,-26.934 -0.3563,-0.035 -0.7784,-0.056 -1.2635,-0.06 z m 696.8899,374.1189 c -8.3482,-0.3348 -21.0858,5.6699 -28.4352,16.8865 -44.4036,67.7685 -110.2919,360.6158 -123.8676,550.5402 -3.2471,45.4286 -8.4683,75.159 -13.4937,76.8342 -14.2145,4.7381 -12.9157,11.2264 63.8578,318.9673 17.7062,70.9738 27.0245,122.1955 24.2451,133.2691 -8.3744,33.3664 -106.8763,81.4666 -189.9015,92.7326 l -15.6142,2.1182 c -1.7903,0.4233 -3.7599,0.7009 -5.9131,0.8039 l -11.7861,1.5987 0.4685,-1.5388 -10.9357,0 c -0.055,0.132 -0.097,0.258 -0.1533,0.3909 -3.1564,7.388 0.5951,-1.0132 -4.1922,8.1512 -0.1057,0.2032 0,0.4721 -0.096,0.6817 -0.4929,1.1125 -1.1765,2.1341 -1.6497,3.2552 -0.1137,0.269 -0.014,0.5914 -0.093,0.8725 -0.3787,1.3452 -0.8512,2.6614 -1.2767,3.9925 -2.4648,7.716 0.017,0.1125 -2.9444,8.6264 -0.4105,1.1806 -0.727,2.395 -1.1812,3.5593 -0.3784,0.9705 -0.8172,1.9157 -1.2479,2.8644 -0.04,0.9079 -0.1192,1.8874 -0.3753,3.2552 -0.2757,1.4727 -1.8706,7.6242 -2.8998,9.9231 -0.6921,1.5461 -1.55,3.0126 -2.3249,4.5188 -0.2324,0.5351 -0.5481,1.0413 -0.6971,1.6053 -0.032,0.121 0.309,-0.3151 0.3241,-0.191 0.062,0.5095 -0.078,1.0233 -0.1599,1.5299 -0.5286,3.2644 -1.4438,6.4262 -1.9163,9.6967 0.019,0.3763 0.1204,0.757 0.056,1.128 -1.3747,7.8736 -0.7054,3.5389 -2.1539,8.5531 -0.8432,2.9192 -1.4929,5.9254 -2.2537,8.8685 -0.2677,0.9357 -1.6499,5.9278 -2.1094,6.9256 -0.8509,1.848 -2.036,3.5289 -2.9177,5.3624 -0.1069,0.2217 0.5959,-0.7171 0.5662,-0.4729 -0.1223,1.0061 -0.607,1.9342 -0.8615,2.9154 -0.3258,1.2568 -0.5846,2.5297 -0.8771,3.7947 -0.7907,2.5784 -1.5316,5.1683 -2.3958,7.7116 -0.098,1.0591 -0.2284,2.1442 -0.4352,3.2864 -3.2939,18.1909 -6.9196,36.3482 -11.2111,54.3343 -0.7158,2.9999 -1.477,5.9892 -2.2405,8.9773 -0.1996,1.0057 -0.429,2.031 -0.7282,3.0997 l 0,0 c -0.098,0.3505 -0.2127,0.696 -0.3198,1.0436 -0.5244,2.0543 -1.0532,4.1071 -1.5588,6.1662 -1.5182,6.1832 -2.9662,12.3826 -4.4497,18.5741 -3.8247,16.2246 -2.3157,9.6731 -4.5942,19.6376 -0.5061,2.2135 -1.164,4.1846 -1.9206,5.9641 2.9536,9.5351 6.2078,19.1425 9.4791,29.0079 22.2433,70.5639 64.3476,94.5476 101.2301,57.6651 14.3466,-14.3467 20.4482,-16.3538 31.5926,-10.3895 16.7041,8.9398 38.1254,-0.6444 49.6759,-22.2267 7.4011,-13.8286 8.535,-13.9648 21.1764,-2.5246 17.7173,16.0339 30.8136,9.8794 52.6779,-24.7558 14.2699,-22.6049 22.4256,-28.7081 38.356,-28.7081 11.1275,0 28.9772,-6.88 39.6661,-15.2879 19.3447,-15.2166 19.4201,-15.6331 16.8088,-90.4277 -2.4963,-71.4962 -3.92,-77.4562 -29.3766,-122.8618 -25.7944,-46.0081 -26.3628,-48.4765 -15.854,-68.7985 15.0342,-29.0727 13.7173,-55.0692 -6.4193,-126.7786 -9.5252,-33.9209 -28.626,-111.4461 -42.446,-172.2779 l -25.1267,-110.6028 7.3142,-115.8097 c 13.2013,-209.0169 55.0039,-395.3752 130.8243,-583.2229 3.4143,-8.4588 -0.4236,-12.5538 -6.9166,-12.8142 z M 1099.6735,2652.8547 c 8.3744,0 34.4178,68.4726 40.4921,106.4594 5.5685,34.8231 -2.1067,36.0865 -36.3865,5.9886 -21.4413,-18.8259 -24.7137,-25.4689 -20.961,-42.555 4.6237,-21.0513 -4.3869,-26.3841 -23.7899,-14.0821 -13.4613,8.5351 -22.7329,56.2279 -14.9236,76.7676 7.5079,19.7475 20.7568,15.6421 20.7568,-6.4326 0,-14.4409 0.407,-14.4976 14.2552,-1.9651 18.0676,16.3508 36.5624,77.5859 30.791,101.9474 -2.4183,10.2078 -9.1432,24.0255 -14.9436,30.7066 -9.5547,11.0055 -12.8811,11.1732 -35.3762,1.7741 -32.0139,-13.3762 -30.1892,-14.2235 -30.1892,14.031 0,13.4226 -3.2327,26.4031 -7.1854,28.8459 -3.9525,2.4429 -25.08398,-3.7526 -46.95804,-13.7668 -50.57476,-23.1539 -54.40327,-22.9134 -48.69664,3.0686 6.61863,30.1346 -19.87761,25.9711 -58.48217,-9.1881 -20.97308,-19.1018 -29.0293,-9.8927 -13.84004,15.8206 6.62135,11.2091 12.03705,22.2811 12.03705,24.6048 0,8.985 -20.18801,3.5757 -37.51003,-10.0498 -29.53473,-23.232 -54.68964,-121.5111 -54.68964,-213.6714 l 0,-48.0327 95.00187,4.2943 c 103.99752,4.7007 141.14464,-2.3394 196.41194,-37.2281 15.1044,-9.535 30.488,-17.3372 34.186,-17.3372 z m 1170.2427,65.017 18.3965,31.3904 c 26.673,45.5141 38.9956,84.9581 38.9956,124.8159 0,41.0652 -9.5101,62.4722 -27.7513,62.4722 -18.6298,0 -26.4845,-12.8003 -32.2431,-52.5446 -7.2893,-50.3108 -16.6417,-72.2427 -26.5698,-62.3147 -5.965,5.9647 -5.8474,15.2647 0.4529,36.2932 8.0413,26.8395 2.3785,97.8913 -10.4694,131.3728 -2.3269,6.0636 -7.2443,11.0245 -10.9268,11.0245 -7.6873,0 -23.3565,-35.4273 -30.5178,-69.0004 -5.2647,-24.6804 -104.1218,-137.211 -108.6377,-123.6633 -1.3963,4.1889 10.149,26.298 25.6551,49.1318 l 28.193,41.5179 -33.0292,15.0258 c -18.1658,8.2645 -42.6031,16.3784 -54.3055,18.0322 -11.7025,1.6538 -25.9894,4.2824 -31.748,5.8398 -18.3513,4.9633 -15.2216,-23.2105 9.9255,-89.3685 20.1935,-53.1259 27.0321,-64.1646 40.774,-65.8142 42.5578,-5.109 119.9712,-26.6689 159.8057,-44.5066 z m -133.3778,212.0793 c 3.6402,0.037 7.559,1.2292 11.6862,3.8171 15.0402,9.4307 21.0112,69.7115 8.4089,84.8965 -11.1406,13.4233 -16.2099,12.7519 -31.526,-4.1722 -25.8861,-28.6038 -14.0511,-84.8067 11.4309,-84.5414 z m -80.0827,19.3824 c 8.5097,0.108 16.7515,4.625 22.3688,15.1212 8.045,15.0321 9.8593,63.6712 3.0376,81.4482 -11.126,28.9937 -45.5011,3.3831 -59.0995,-44.0314 -8.1215,-28.3181 13.5383,-52.793 33.6931,-52.538 z"
       id="path4360"
       inkscape:connector-curvature="0"
       sodipodi:nodetypes="sssssssssssscscccssssccssscssccssscsssssssssssccssssssccccccccccccccccsccccccccccccccccccccscsccsscssssssssscssssssssssssssscssssssscssscsssssssssscccscsscccsssccscscsc" /></g><g
     inkscape:groupmode="layer"
     id="layer1"
     inkscape:label="Colorierung"
     style="display:inline;opacity:1"><path
       style="display:inline;opacity:1;fill:#fff6d5;fill-opacity:1;fill-rule:nonzero;stroke:none;stroke-width:5.9000001;stroke-miterlimit:4;stroke-dasharray:none;stroke-opacity:1;filter:url(#filter4682)"
       d="m 1908.6775,1522.0798 c -4.6987,-5.2962 -17.923,-23.0289 -29.3874,-39.4059 l -20.8443,-29.7763 13.6306,0 c 13.5718,0 81.9064,6.5653 118.5468,11.3894 l 19.2432,2.5336 -12.6263,13.4601 c -13.6242,14.5239 -52.1417,40.8296 -69.3807,47.3838 -8.5292,3.2428 -12.3329,2.1354 -19.1819,-5.5847 z"
       id="path5064"
       inkscape:connector-curvature="0"
       transform="matrix(1.1368694,0,0,1.1368694,19.627589,-105.80122)" /><path
       style="display:inline;opacity:1;fill:#fff6d5;fill-opacity:1;fill-rule:nonzero;stroke:none;stroke-width:5.9000001;stroke-miterlimit:4;stroke-dasharray:none;stroke-opacity:1;filter:url(#filter4682)"
       d="m 1462.7833,1230.9806 c -6.3258,-17.4936 -7.0528,-47.1728 -1.1555,-47.1728 2.2909,0 9.049,4.4664 15.0179,9.9254 10.188,9.3176 10.5407,11.121 5.7601,29.4485 -6.3437,24.3201 -12.7305,26.8585 -19.6225,7.7989 z"
       id="path5068"
       inkscape:connector-curvature="0"
       transform="matrix(1.1368694,0,0,1.1368694,19.627589,-105.80122)" /><path
       style="display:inline;opacity:1;fill:#ffe6d5;fill-opacity:0.99215686;fill-rule:nonzero;stroke:none;stroke-width:5.9000001;stroke-miterlimit:4;stroke-dasharray:none;stroke-opacity:1;filter:url(#filter4682)"
       d="m 1925.0612,1428.3592 c -32.754,-3.2333 -68.4856,-8.1102 -79.4036,-10.8377 -10.918,-2.7274 -54.5899,-21.9215 -97.0488,-42.6536 -48.2956,-23.5821 -102.669,-45.9984 -145.2313,-59.874 -95.8776,-31.2569 -106.3605,-42.0765 -95.5245,-98.5934 3.9983,-20.8539 0.09,-25.7944 -49.4465,-62.5031 -28.3145,-20.9824 -36.9508,-35.7938 -27.5061,-47.174 12.5932,-15.1739 21.217,-12.3685 47.3856,15.4149 25.015,26.5588 26.0224,27.1159 53.4879,29.5804 l 27.9927,2.5118 29.8638,-31.0717 c 33.5127,-34.8681 38.5638,-46.9041 29.1446,-69.4475 -5.0264,-12.0299 -9.0036,-15.4767 -17.8584,-15.4767 -12.6186,0 -19.4823,11.0423 -11.7006,18.824 8.69,8.69 5.4794,20.3184 -10.4902,37.9949 -20.5306,22.7249 -36.9369,29.2825 -60.7543,24.2833 -16.926,-3.5526 -19.732,-6.1646 -31.1503,-28.9963 -11.7943,-23.5833 -12.5623,-28.5121 -12.7731,-81.9763 -0.2652,-67.23746 6.6379,-94.74633 33.9465,-135.27672 29.7137,-44.09992 63.682,-55.35144 98.1809,-32.5211 9.7122,6.42722 23.4006,12.34129 30.4187,13.14239 19.2188,2.19378 30.4481,27.73193 30.2206,68.72899 l -0.1775,31.98199 37.937,0 c 55.348,0 55.4921,-0.17944 50.0274,-62.27991 -2.4301,-27.61465 -2.8148,-52.06699 -0.8549,-54.33854 2.1973,-2.54681 45.4409,-0.41268 112.8039,5.56703 60.0822,5.33341 115.692,9.67331 123.5773,9.64422 17.1335,-0.0632 16.5341,-8.23335 7.0487,96.07954 -5.2426,57.65491 -5.9807,82.04961 -2.5852,85.44511 7.584,7.5841 39.5218,12.1182 87.0711,12.3614 53.6102,0.2741 111.0448,6.5027 127.0007,13.7727 15.9625,7.273 17.974,16.5756 10.1021,46.7203 -8.0105,30.6753 -15.1293,36.7144 -43.2785,36.7144 -25.644,0 -45.5628,-9.5503 -77.9057,-37.3527 -25.7359,-22.1229 -41.3522,-25.0512 -43.7514,-8.204 -1.0244,7.193 4.5144,14.0236 22.1972,27.3742 33.8932,25.5896 67.0469,39.371 118.8917,49.4211 51.8159,10.0446 55.8023,13.0988 78.9435,60.4841 25.0127,51.2173 16.2664,94.7721 -27.195,135.4251 -24.7061,23.1097 -81.2848,51.5059 -117.8002,59.1225 -30.5064,6.3633 -128.7631,5.3908 -203.8058,-2.0171 z m -405.4895,-389.0218 c 0.193,-1.8196 1.0333,-13.6735 1.8674,-26.3418 1.9352,-29.39051 3.8474,-32.108 22.5942,-32.108 18.5174,0 30.073,5.46731 48.6105,22.9991 14.6929,13.8959 26.308,14.8325 33.9254,2.7357 6.6104,-10.49768 -1.435,-18.50228 -37.8074,-37.61542 -34.0537,-17.89471 -38.8792,-24.21749 -27.8141,-36.44429 10.088,-11.14713 7.311,-28.48524 -4.8399,-30.21793 -11.6422,-1.66014 -36.7906,27.52913 -50.5844,58.71218 -7.6632,17.32413 -8.9384,26.31388 -6.7297,47.44546 1.4988,14.3393 3.8475,27.8877 5.2194,30.1075 2.995,4.846 15.0619,5.4102 15.5586,0.7275 z"
       id="path5072"
       inkscape:connector-curvature="0"
       transform="matrix(1.1368694,0,0,1.1368694,19.627589,-105.80122)" /><path
       style="display:inline;opacity:1;fill:#ffe6d5;fill-opacity:0.99215686;fill-rule:nonzero;stroke:none;stroke-width:5.9000001;stroke-miterlimit:4;stroke-dasharray:none;stroke-opacity:1;filter:url(#filter4682)"
       d="m 2172.0944,839.63559 c -59.4424,-6.83354 -144.8012,-14.60775 -189.6862,-17.27601 -134.2983,-7.98356 -211.648,-13.7535 -218.2291,-16.27891 -10.1874,-3.90926 -19.6659,-67.06458 -19.7778,-131.779 -0.077,-44.24885 3.4437,-55.68744 13.4195,-43.60499 24.4705,29.63797 198.2139,62.34776 272.3205,51.2684 27.8168,-4.15876 42.4936,-3.36863 105.8714,5.69969 40.4678,5.79028 90.4511,11.79367 111.074,13.34088 27.7521,2.08208 43.5545,5.85596 60.8097,14.52242 l 23.3135,11.7093 -2.6821,17.64523 c -4.8716,32.05009 -5.6345,33.08481 -24.3914,33.08481 -14.5385,0 -17.348,1.46203 -17.348,9.02779 0,5.29841 5.1981,12.01107 12.5831,16.24947 11.7439,6.74007 12.3265,8.36324 8.7369,24.33958 -2.1154,9.41485 -2.6979,18.97585 -1.2944,21.24666 3.6538,5.91202 -13.4787,4.74264 -134.7196,-9.19532 z m 33.152,-48.64594 c 3.828,-12.06082 -3.4318,-19.87308 -26.7394,-28.77433 -17.1388,-6.54537 -25.0711,-6.79948 -69.1306,-2.21456 -74.0317,7.70388 -112.6427,13.99017 -120.2944,19.58523 -5.2053,3.80623 9.7548,5.0824 62.7233,5.35064 48.4655,0.24545 77.5854,2.47499 96.0269,7.35227 38.2563,10.11774 53.903,9.76366 57.4142,-1.29925 z"
       id="path5074"
       inkscape:connector-curvature="0"
       transform="matrix(1.1368694,0,0,1.1368694,19.627589,-105.80122)" /><path
       style="display:inline;opacity:1;fill:#ffe6d5;fill-opacity:0.99215686;fill-rule:nonzero;stroke:none;stroke-width:5.9000001;stroke-miterlimit:4;stroke-dasharray:none;stroke-opacity:1;filter:url(#filter4682)"
       d="m 2076.2893,1012.8893 -45.0751,-1.4281 1.9253,-11.97831 c 1.0589,-6.58808 4.2081,-39.76957 6.9982,-73.73665 2.79,-33.96707 5.6841,-62.82073 6.4312,-64.11924 0.7471,-1.29851 32.7699,0.71334 71.1617,4.47077 l 69.8034,6.83171 -0.4885,13.17446 c -0.2687,7.24595 -2.9977,39.47688 -6.0643,71.62429 l -5.5758,58.44987 -27.0205,-0.9304 c -14.8613,-0.5117 -47.3043,-1.5729 -72.0956,-2.3584 z m 63.9444,-47.69142 c 12.477,-8.73923 12.9702,-29.66869 0.9816,-41.65729 -16.221,-16.221 -55.1264,-8.17822 -60.3081,12.46731 -6.743,26.86661 34.0136,46.91982 59.3265,29.18998 z"
       id="path5076"
       inkscape:connector-curvature="0"
       transform="matrix(1.1368694,0,0,1.1368694,19.627589,-105.80122)" /><path
       style="display:inline;opacity:1;fill:#ffe6d5;fill-opacity:0.99215686;fill-rule:nonzero;stroke:none;stroke-width:5.9000001;stroke-miterlimit:4;stroke-dasharray:none;stroke-opacity:1;filter:url(#filter4682)"
       d="m 2341.9298,1074.9384 c -27.4975,-6.1543 -69.0052,-21.8255 -88.2262,-33.3099 -36.2,-21.6294 -41.9162,-28.6764 -41.8424,-51.58441 0.1333,-41.35251 16.5898,-52.64825 77.1329,-52.94399 62.7637,-0.30659 128.7449,19.35023 150.0863,44.71298 14.593,17.34285 15.2409,49.74682 1.3477,67.40912 -17.9914,22.8724 -61.0154,34.1052 -98.4983,25.7162 z"
       id="path5080"
       inkscape:connector-curvature="0"
       transform="matrix(1.1368694,0,0,1.1368694,19.627589,-105.80122)" /><path
       style="display:inline;opacity:1;fill:#ffe6d5;fill-opacity:0.99215686;fill-rule:nonzero;stroke:none;stroke-width:5.9000001;stroke-miterlimit:4;stroke-dasharray:none;stroke-opacity:1;filter:url(#filter4682)"
       d="m 2229.4414,907.811 c 0,-20.57241 16.3573,-29.69232 31.982,-17.83144 10.6588,8.09115 9.6695,13.6113 -3.516,19.61902 -15.8038,7.20069 -28.466,6.40555 -28.466,-1.78758 z"
       id="path5078"
       inkscape:connector-curvature="0"
       transform="matrix(1.1368694,0,0,1.1368694,19.627589,-105.80122)" /><path
       style="display:inline;opacity:1;fill:#b3b3b3;fill-opacity:1;fill-rule:nonzero;stroke:none;stroke-width:5.9000001;stroke-miterlimit:4;stroke-dasharray:none;stroke-opacity:1;filter:url(#filter4682)"
       d="m 1431.0655,1056.0187 c -4.9121,-9.6285 -11.6422,-29.1276 -14.9557,-43.3313 -3.3135,-14.20369 -8.6612,-30.64317 -11.8839,-36.53215 -3.649,-6.66811 -6.5517,-31.71409 -7.6948,-66.39396 l -1.8354,-55.68672 28.2357,-13.34073 c 37.911,-17.91209 74.8232,-28.65012 80.1555,-23.31781 2.6532,2.65315 -2.4398,15.22816 -13.8539,34.20632 -38.4668,63.959 -47.4538,99.66951 -43.3555,172.27555 3.0534,54.0953 -0.1061,60.9469 -14.812,32.1208 z"
       id="path5082"
       inkscape:connector-curvature="0"
       transform="matrix(1.1368694,0,0,1.1368694,19.627589,-105.80122)" /><path
       style="display:inline;opacity:1;fill:#b3b3b3;fill-opacity:1;fill-rule:nonzero;stroke:none;stroke-width:5.9000001;stroke-miterlimit:4;stroke-dasharray:none;stroke-opacity:1;filter:url(#filter4682)"
       d="m 1685.1084,922.43776 c -0.8058,-3.03277 -3.8223,-15.43958 -6.7032,-27.57067 -7.8575,-33.08686 -18.672,-52.37308 -30.9294,-55.15854 -5.8857,-1.33751 -11.5101,-4.85843 -12.4987,-7.82429 -3.4803,-10.44092 85.5864,-4.32312 96.5407,6.63118 2.3408,2.34075 5.4399,18.37815 6.8869,35.63868 3.5303,42.10945 -3.4098,53.79778 -31.9435,53.79778 -12.1878,0 -20.4549,-2.13489 -21.3528,-5.51414 z"
       id="path5084"
       inkscape:connector-curvature="0"
       transform="matrix(1.1368694,0,0,1.1368694,19.627589,-105.80122)" /><path
       style="display:inline;opacity:1;fill:#b3b3b3;fill-opacity:1;fill-rule:nonzero;stroke:none;stroke-width:5.9000001;stroke-miterlimit:4;stroke-dasharray:none;stroke-opacity:1;filter:url(#filter4682)"
       d="m 1421.971,808.51141 c -3.1939,-3.1939 -1.1823,-11.76745 4.2856,-18.26577 4.96,-5.89461 6.7643,-6.65161 13.0454,-5.47327 6.2643,1.1752 7.8444,0.52043 11.2363,-4.65633 3.3114,-5.05377 4.0157,-11.56985 4.3736,-40.4633 0.3216,-25.95684 1.3366,-36.88414 4.1211,-44.3649 10.0028,-26.87325 10.379,-29.12134 8.9464,-53.46321 l -1.3941,-23.68685 11.6967,-5.17424 c 15.4262,-6.82408 60.0766,-40.60098 82.5029,-62.41146 24.9818,-24.29576 40.8797,-49.36181 31.3073,-49.36181 -1.4603,0 -13.6189,11.29255 -27.0193,25.09454 -29.4588,30.34182 -48.1118,46.09237 -76.0347,64.20351 -27.0739,17.56042 -29.2909,18.37574 -28.5299,10.4919 0.3212,-3.3273 -0.1312,-10.5161 -1.0053,-15.97509 -1.2866,-8.03432 -0.3163,-13.70768 5.0927,-29.77633 3.6752,-10.91799 6.2985,-17.04614 5.8296,-13.61811 -1.5569,11.3814 2.1439,2.88581 9.4407,-21.67236 4.5465,-15.30173 11.2652,-31.31513 18.1922,-43.35937 12.2411,-21.28425 22.6488,-46.65097 24.9646,-60.84623 1.4651,-8.98124 3.6937,-12.11916 9.2024,-12.95715 4.0254,-0.61235 27.4472,-17.07245 48.62,-34.16869 21.4516,-17.32131 45.5279,-30.30783 78.9688,-42.5949 37.9875,-13.95763 43.6161,-16.47346 69.5131,-31.07015 29.2666,-16.49592 46.1325,-21.54499 52.5546,-15.73306 3.8593,3.49263 4.9697,3.11326 20.4104,-6.97309 17.6421,-11.52443 51.3662,-39.07635 63.6318,-51.98598 4.9905,-5.25249 9.5988,-8.00014 13.4178,-8.00014 7.8187,0 8.7023,1.33676 5.8602,8.86622 -1.3297,3.52275 -1.817,7.00559 -1.0829,7.73965 0.734,0.73405 15.0811,-3.83141 31.8823,-10.14548 16.8013,-6.31407 41.9097,-15.31146 55.7966,-19.9942 l 25.2488,-8.51408 5.6303,5.15876 c 18.3028,16.76987 65.6316,34.71131 169.3074,64.18112 61.7177,17.54322 90.0987,27.19766 116.4798,39.62322 27.6715,13.03337 33.8443,19.16366 48.6304,48.29514 30.7179,60.52055 57.4075,88.19807 127.5613,132.28319 9.6925,6.09084 16.7643,12.04812 16.7643,14.12225 0,4.9325 16.4164,45.58988 41.2529,102.16804 22.8897,52.14316 37.7212,76.57281 73.6494,121.31098 41.6723,51.89086 42.9503,61.05575 7.6991,55.21147 -19.6397,-3.25603 -32.6386,-7.96762 -64.1516,-23.25223 -44.528,-21.59725 -88.3123,-50.90727 -122.8634,-82.24701 -21.5197,-19.51951 -26.0182,-21.2296 -26.0182,-9.89057 0,6.16954 3.2415,12.82409 14.1113,28.96941 4.3699,6.49074 7.9452,13.02388 7.9452,14.5181 0,4.38595 -14.9898,8.12197 -37.82,9.4262 -17.6823,1.01014 -23.8473,0.43502 -36.4849,-3.40353 -29.5321,-8.97008 -55.7296,-30.64467 -97.4824,-80.65239 -36.7362,-43.99925 -52.2573,-56.78842 -56.26,-46.35758 -6.2363,16.25173 33.1553,69.19113 79.1168,106.32694 4.8255,3.89895 7.7755,7.08899 6.5554,7.08899 -3.3655,0 -99.3298,-25.88139 -115.6864,-31.20037 -42.2854,-13.75075 -109.3978,-48.26476 -167.1124,-85.94126 -16.4142,-10.71535 -26.9852,-13.71705 -26.9852,-7.66262 0,4.55075 19.8648,33.38624 33.4301,48.52684 15.73,17.55652 26.8974,24.16702 56.3687,33.36714 13.6924,4.27438 24.8952,8.37837 24.8952,9.12003 0,2.56464 -126.5789,-1.25895 -147.7788,-4.46398 -52.7977,-7.98205 -73.9894,-15.9964 -186.7845,-70.63906 -65.1128,-31.54337 -74.6992,-35.20724 -76.9271,-29.40137 -2.3019,5.99876 3.193,13.1034 31.0481,40.14304 31.2953,30.37914 32.6593,33.16062 36.3516,74.1282 2.0562,22.81441 3.0926,136.51178 1.2444,136.51178 -10.1261,0 -89.731,-7.93074 -112.6213,-11.22003 -76.3756,-10.97508 -151.6925,-6.834 -184.9271,10.16762 -12.1176,6.19897 -11.2659,5.94157 -13.2141,3.99327 z m 664.2093,-304.33682 c 0.3713,-2.60451 -1.862,-10.76309 -4.9627,-18.13017 -6.2762,-14.91159 -7.2883,-24.55593 -2.5769,-24.55593 1.6834,0 9.3756,2.93937 17.0938,6.53194 29.1812,13.58297 58.0844,17.23688 68.9209,8.71288 7.9431,-6.24806 12.2783,-15.22106 10.1194,-20.94533 -0.9537,-2.52874 -5.1177,-9.97282 -9.2533,-16.54241 -9.4039,-14.93834 -15.7241,-29.88809 -20.4357,-48.33801 -4.66,-18.24836 -8.7599,-24.74203 -15.0554,-23.84592 -10.3919,1.47917 -6.5709,24.93483 11.2924,69.31991 3.3837,8.40743 3.9049,11.92381 2.0434,13.78534 -4.3301,4.3301 -21.9064,2.67114 -40.584,-3.83058 -23.157,-8.06103 -36.2887,-15.82888 -51.9414,-30.72531 -8.365,-7.9608 -13.7819,-11.54823 -16.0964,-10.66009 -4.2976,1.64915 -3.1716,9.08463 5.8474,38.61221 3.473,11.37046 6.3145,23.16354 6.3145,26.20686 0,5.17801 -0.5638,5.45764 -8.7821,4.35535 -19.558,-2.6233 -85.6496,-39.90907 -123.5571,-69.70521 -35.5081,-27.91009 -39.7018,-29.7687 -39.7018,-17.59539 0,16.24622 58.526,61.64485 117.3288,91.0119 57.792,28.86226 92.2499,38.51848 93.9862,26.33796 z"
       id="path5088"
       inkscape:connector-curvature="0"
       transform="matrix(1.1368694,0,0,1.1368694,19.627589,-105.80122)" /><path
       style="display:inline;opacity:1;fill:#fff6d5;fill-opacity:1;fill-rule:nonzero;stroke:none;stroke-width:5.9000001;stroke-miterlimit:4;stroke-dasharray:none;stroke-opacity:1;filter:url(#filter4682)"
       d="m 1783.8993,2086.1279 c 0,-8.7421 11.7964,-24.4698 18.3533,-24.4698 6.0753,0 8.1145,3.3259 8.1145,13.234 0,11.7635 -1.4704,13.2339 -13.2339,13.2339 -7.2786,0 -13.2339,-0.8991 -13.2339,-1.9981 z"
       id="path5070"
       inkscape:connector-curvature="0"
       transform="matrix(1.1368694,0,0,1.1368694,19.627589,-105.80122)" /><path
       style="opacity:1;fill:#502d16;fill-opacity:1;fill-rule:nonzero;stroke:none;stroke-width:5.9000001;stroke-miterlimit:4;stroke-dasharray:none;stroke-opacity:1"
       d="m 2066.4666,2394.4615 c -1.3791,-0.4793 -30.1532,-2.1107 -63.9423,-3.6253 -62.9173,-2.8205 -118.1914,-6.8475 -126.0039,-9.1803 -3.4663,-1.035 -4.3652,-4.0405 -4.2788,-14.3059 0.1211,-14.3747 6.1763,-71.5217 7.7446,-73.09 2.0609,-2.0609 172.0517,-3.9339 185.2267,-2.0408 l 13.7915,1.9817 -0.1296,46.7734 c -0.1409,50.8547 -1.6212,57.2358 -12.4082,53.4872 z"
       id="path5143"
       inkscape:connector-curvature="0" /><path
       style="opacity:1;fill:#fff6d5;fill-opacity:1;fill-rule:nonzero;stroke:none;stroke-width:5.9000001;stroke-miterlimit:4;stroke-dasharray:none;stroke-opacity:1"
       d="m 1495.314,2250.23 c -52.4075,-6.9175 -96.1997,-13.4146 -97.3159,-14.4382 -1.1162,-1.0235 36.5385,-80.3113 83.6769,-176.1952 89.4365,-181.9219 94.2726,-194.0673 176.0817,-442.2122 24.9298,-75.6171 47.5892,-139.7482 50.3543,-142.5132 3.3599,-3.3598 9.9599,5.9662 19.898,28.1164 35.6767,79.5164 100.8079,156.8333 100.8079,119.6684 0,-5.1396 -11.5866,-24.8864 -25.7481,-43.8819 -39.6655,-53.2053 -103.1912,-190.6218 -92.8858,-200.9273 2.0363,-2.0362 16.5855,3.2754 32.3314,11.8037 15.746,8.5283 51.8972,22.6466 80.336,31.3739 83.6497,25.6706 181.4944,71.4454 181.4944,84.9088 0,2.3002 -9.5364,8.4743 -21.1922,13.7203 -50.1565,22.574 -155.9323,117.6505 -130.5139,117.3123 2.0686,-0.027 27.4051,-15.8425 56.3031,-35.1444 28.8981,-19.302 54.8511,-34.3387 57.6734,-33.4151 27.5713,9.023 -26.8121,150.0536 -173.5231,449.991 -49.3087,100.8071 -89.6522,186.1888 -89.6522,189.7371 0,18.0828 16.4604,-5.682 58.1691,-83.9827 48.5607,-91.1642 142.5843,-286.2186 177.0493,-367.2934 11.2608,-26.4895 28.5454,-78.3957 38.4104,-115.3469 24.4956,-91.7537 24.9718,-92.7568 49.712,-104.7334 26.1849,-12.6759 38.8442,-9.0524 62.4992,17.8892 15.6953,17.8759 16.4465,20.4594 13.6294,46.8724 -5.1597,48.376 -46.4775,186.2818 -77.593,258.981 -25.6609,59.9547 -50.5492,115.1959 -100.397,222.8374 -5.748,12.4123 -25.1741,49.6494 -43.1692,82.7489 -17.995,33.0995 -32.7531,63.002 -32.7956,66.4499 -0.1784,14.4787 11.5788,4.0681 33.2643,-29.454 54.985,-84.9982 157.1845,-318.0642 204.4945,-466.3498 25.2739,-79.2172 37.3939,-109.7674 43.5471,-109.7674 2.2165,0 11.6618,12.9765 20.9894,28.8367 17.2165,29.2741 19.5576,30.5165 48.6833,25.8363 11.8162,-1.8987 12.4844,-0.8022 11.6118,19.0601 -1.9715,44.8847 -69.7525,209.701 -164.7318,400.5617 -39.9073,80.1939 -72.5587,148.2202 -72.5587,151.1697 0,2.9494 -3.5698,6.7325 -7.9329,8.4068 -14.0108,5.3764 -93.5497,3.2555 -152.7403,-4.0729 -31.6157,-3.9143 -81.8877,-8.7456 -111.7159,-10.736 -50.6392,-3.3793 -55.1953,-2.9077 -68.7543,7.1169 -17.4575,12.907 -17.8395,12.8988 -137.797,-2.9349 z m 335.0865,-62.1819 c 24.473,-12.6045 33.522,-25.4846 33.522,-47.7144 0,-16.1407 -2.4238,-22.8144 -9.7004,-26.7087 -29.2502,-15.6542 -70.5408,8.2514 -70.5408,40.8403 0,32.2821 20.5555,47.0579 46.7192,33.5828 z m 123.2977,-248.1287 c 13.6567,-17.3617 19.1861,-46.7211 9.9334,-52.743 -39.262,-25.5528 -86.2348,15.3408 -64.4271,56.089 8.2264,15.3709 41.3719,13.3358 54.4937,-3.346 z m 71.6634,-206.3633 c 24.75,-26.5361 31.2617,-54.7645 17.1005,-74.1311 -6.3742,-8.7172 -8.2556,-8.9364 -20.4914,-2.388 -23.3095,12.4748 -36.9085,28.4066 -40.4751,47.418 -2.8396,15.1373 -1.4171,20.5395 8.0674,30.6353 14.6871,15.6337 19.9985,15.4061 35.7986,-1.5342 z"
       id="path5278"
       inkscape:connector-curvature="0" /><path
       style="opacity:1;fill:#fff6d5;fill-opacity:1;fill-rule:nonzero;stroke:none;stroke-width:5.9000001;stroke-miterlimit:4;stroke-dasharray:none;stroke-opacity:1"
       d="m 814.37835,2677.2641 c -10.33087,-1.7196 -23.49613,-5.5634 -29.25613,-8.542 l -10.47275,-5.4157 0.0242,-34.4844 c 0.0133,-18.9663 3.16257,-71.9854 6.99839,-117.82 3.83583,-45.8346 7.91286,-96.1019 9.06008,-111.7053 13.55308,-184.3361 28.87656,-281.6709 72.85553,-462.7788 32.86415,-135.3365 55.66444,-197.126 120.70284,-327.1088 65.83969,-131.5842 102.07929,-190.1787 143.27939,-231.6628 53.8142,-54.185 101.1454,-71.6686 354.5461,-130.9652 13.6529,-3.1948 52.6969,-11.1647 86.7643,-17.7108 79.0902,-15.1972 77.6286,-15.8249 80.2351,34.4582 1.7683,34.1123 1.5875,35.0679 -28.5116,150.6398 -16.6603,63.9704 -36.8271,137.8531 -44.8152,164.1835 -80.493,265.3202 -96.0436,311.7988 -132.2928,395.4012 -10.9939,25.3552 -29.0144,62.0584 -40.0456,81.5625 -41.5677,73.4952 -55.734,100.252 -70.4071,132.9825 -9.0533,20.1947 -17.023,33.4458 -19.8968,33.0822 -59.1521,-7.4857 -118.906,-16.7237 -121.0668,-18.7171 -2.8382,-2.6181 6.8261,-16.1211 53.8936,-75.3017 76.0115,-95.573 157.9818,-242.497 201.043,-360.3504 13.0984,-35.8487 15.0807,-50.3574 6.8799,-50.3574 -7.0191,0 -19.0154,21.3591 -43.8705,78.1099 -40.3688,92.1731 -71.2074,149.5044 -122.9838,228.6362 -38.0398,58.1377 -66.0309,94.1734 -118.1048,152.0478 -41.5721,46.2029 -50.2477,57.7147 -50.2828,66.7207 -0.041,10.4329 6.8403,10.7842 18.5322,0.9462 6.2249,-5.2379 11.8645,-7.8836 12.5327,-5.8793 0.668,2.0042 -4.4271,32.2663 -11.3224,67.249 -15.9747,81.045 -28.0012,155.1384 -38.9894,240.2068 l -8.7031,67.3778 -13.223,11.1333 c -33.9965,28.6239 -77.7359,48.4515 -119.57242,54.2036 -32.38895,4.4531 -116.42278,4.3702 -143.53028,-0.1414 l 0,-1e-4 z"
       id="path4739"
       inkscape:connector-curvature="0" /><path
       style="opacity:1;fill:#fff6d5;fill-opacity:1;fill-rule:nonzero;stroke:none;stroke-width:5.9000001;stroke-miterlimit:4;stroke-dasharray:none;stroke-opacity:1"
       d="m 2059.6343,2747.5434 c 15.6502,-62.824 34.6363,-208.2071 35.4021,-271.0871 0.3146,-25.8265 2.0051,-46.9708 3.7568,-46.9872 3.6019,-0.032 -0.1164,-160.4251 -4.9128,-211.9122 l -3.0555,-32.7995 13.3341,-20.3935 c 7.3337,-11.2163 19.8585,-35.5534 27.8329,-54.0823 7.9744,-18.529 21.598,-49.6468 30.2747,-69.1509 8.6767,-19.504 33.7383,-83.7946 55.6924,-142.8679 21.9541,-59.0732 40.6402,-106.6823 41.5245,-105.798 0.8843,0.8844 -3.3531,25.0994 -9.4163,53.8112 -15.7588,74.624 -30.6062,168.1424 -37.1293,233.863 -9.4496,95.2071 -12.6322,115.401 -19.7634,125.4027 -5.8334,8.1812 -6.2322,12.0053 -3.1848,30.5291 4.0844,24.8268 26.9772,122.1654 56.3201,239.4692 35.9663,143.782 40.964,176.2728 29.7481,193.3905 -16.0762,24.5355 -99.317,64.4595 -158.7449,76.1375 -57.9449,11.3865 -59.9196,11.4712 -57.6787,2.4754 z"
       id="path4741"
       inkscape:connector-curvature="0" /><path
       style="opacity:1;fill:#ffe7d6;fill-opacity:0.99215686;fill-rule:nonzero;stroke:none;stroke-width:5.9000001;stroke-miterlimit:4;stroke-dasharray:none;stroke-opacity:1"
       d="m 2207.7852,2987.079 c -3.7208,-7.3139 -10.1626,-24.3228 -14.3152,-37.7973 -9.2622,-30.0543 -16.2214,-41.5206 -48.5868,-80.0541 -29.996,-35.7127 -57.1239,-62.5436 -60.1629,-59.5045 -3.9441,3.9441 2.1049,16.0926 25.2494,50.7095 12.5805,18.8165 22.8737,35.447 22.8737,36.9567 0,7.6512 -105.7687,44.502 -111.443,38.8278 -2.3586,-2.3587 24.8965,-135.7529 29.4912,-144.3382 2.2771,-4.2547 7.6846,-8.4291 12.0167,-9.2763 72.8739,-14.2513 139.6516,-34.2922 183.5045,-55.072 26.9227,-12.7574 23.3925,-15.1467 47.9912,32.4808 22.2804,43.1393 29.9295,66.9564 32.3886,100.8497 3.2912,45.363 -7.0308,75.6847 -25.7643,75.6847 -20.963,0 -27.0661,-9.8443 -35.2126,-56.798 -8.3406,-48.0712 -18.2931,-68.6303 -26.1325,-53.9825 -2.3454,4.3828 -1.7396,14.3364 1.8946,31.1287 6.1392,28.3667 4.3566,74.6166 -4.2914,111.3397 -8.4064,35.6971 -17.8574,41.7344 -29.5012,18.8453 z"
       id="path4745"
       inkscape:connector-curvature="0" /><path
       style="opacity:1;fill:#ffe7d6;fill-opacity:0.99215686;fill-rule:nonzero;stroke:none;stroke-width:5.9000001;stroke-miterlimit:4;stroke-dasharray:none;stroke-opacity:1"
       d="m 2061.9194,3058.0365 c -10.821,-3.708 -22.4837,-17.4511 -32.3792,-38.155 -12.2929,-25.7196 -12.7017,-35.9792 -2.0639,-51.782 15.5866,-23.1543 37.4465,-25.2261 50.8193,-4.8165 7.176,10.9518 10.8591,57.3071 6.0195,75.7609 -3.4231,13.0526 -13.8717,21.9136 -22.3957,18.9926 z"
       id="path4747"
       inkscape:connector-curvature="0" /><path
       style="opacity:1;fill:#ffe7d6;fill-opacity:0.99215686;fill-rule:nonzero;stroke:none;stroke-width:5.9000001;stroke-miterlimit:4;stroke-dasharray:none;stroke-opacity:1"
       d="m 2128.7567,3019.1367 c -13.9737,-14.9762 -17.6972,-24.5036 -17.6972,-45.2823 0,-30.8285 13.5505,-48.6176 32.4614,-42.6155 10.631,3.3741 17.9316,20.6779 19.9313,47.2408 3.0842,40.9706 -14.8232,61.955 -34.6955,40.657 z"
       id="path4749"
       inkscape:connector-curvature="0" /><path
       style="opacity:1;fill:#ffe7d6;fill-opacity:0.99215686;fill-rule:nonzero;stroke:none;stroke-width:5.9000001;stroke-miterlimit:4;stroke-dasharray:none;stroke-opacity:1"
       d="m 836.38863,2970.3384 c -35.9339,-21.541 -61.67246,-112.7421 -61.71825,-218.6899 l -0.0209,-48.3687 96.6339,1.7815 c 123.3805,2.2744 128.72462,1.1629 208.28432,-43.3198 8.7467,-4.8904 17.8065,-8.8916 20.1331,-8.8916 8.9785,0 37.3204,75.828 42.2602,113.0664 3.3311,25.1111 -3.3403,26.9243 -28.6778,7.7943 -25.6072,-19.3336 -31.8876,-29.4744 -31.8876,-51.4873 0,-21.9127 -7.429,-25.2548 -22.5427,-10.1411 -17.1379,17.1378 -22.0097,73.7099 -7.1392,82.9005 6.8736,4.248 9.9442,0.6523 12.3637,-14.4783 2.1298,-13.3194 2.4726,-13.6109 10.117,-8.6021 16.4455,10.7756 37.3439,64.0713 37.3439,95.2358 0,17.5368 -15.4991,47.4352 -25.9496,50.0582 -4.5631,1.1452 -16.3319,-1.1731 -26.6985,-5.2592 -27.1602,-10.7054 -28.9063,-10.1305 -28.9629,9.5373 -0.1104,38.4151 -4.48,39.8393 -57.1163,18.6176 -19.35039,-7.8016 -37.54332,-14.1848 -40.42876,-14.1848 -3.93571,0 -5.24623,4.4571 -5.24623,17.8422 0,28.1472 -13.76082,27.5085 -52.3127,-2.4276 -10.91803,-8.478 -21.16782,-15.4146 -22.77731,-15.4146 -5.78403,0 -2.53583,16.2325 6.03165,30.1427 4.80515,7.8017 8.74482,16.1795 8.75482,18.6175 0.0294,7.1544 -14.80681,5.0448 -30.44383,-4.329 z"
       id="path4753"
       inkscape:connector-curvature="0" /><path
       style="opacity:1;fill:#502d16;fill-opacity:1;fill-rule:nonzero;stroke:none;stroke-width:5.9000001;stroke-miterlimit:4;stroke-dasharray:none;stroke-opacity:1"
       d="m 1517.578,2370.4282 c -29.2562,-2.7258 -119.6557,-11.3086 -200.8879,-19.073 -81.2323,-7.7643 -149.4522,-14.117 -151.5999,-14.117 -2.1478,0 -3.8839,-3.5904 -3.858,-7.9789 0.058,-9.8854 19.2981,-94.1109 22.1493,-96.9621 1.1416,-1.1415 89.098,9.3094 195.4586,23.2244 106.3608,13.9151 206.9864,26.2601 223.6128,27.4335 36.377,2.5672 36.1497,2.207 30.4228,48.2159 -6.0536,48.6334 -3.3283,45.1433 -34.8607,44.6444 -14.9842,-0.237 -51.1809,-2.6613 -80.437,-5.3872 z"
       id="path4755"
       inkscape:connector-curvature="0" /><path
       style="opacity:1;fill:#d35f5f;fill-opacity:1;fill-rule:nonzero;stroke:none;stroke-width:5.9000001;stroke-miterlimit:4;stroke-dasharray:none;stroke-opacity:1"
       d="m 1291.8899,3877.4191 c -31.7123,-16.9609 -31.5227,-16.3991 -62.6256,-185.5806 -36.047,-196.0744 -41.4675,-217.4737 -146.3963,-577.9493 -9.8693,-33.9052 -13.5958,-39.4079 -56.0399,-82.7488 l -45.46755,-46.4284 24.87255,-1.5325 c 20.952,-1.2911 28.0344,-4.5622 44.9328,-20.7531 11.0332,-10.5713 30.5434,-23.7549 43.356,-29.297 21.8253,-9.4406 23.6455,-11.7074 28.8367,-35.9135 3.0476,-14.2103 5.5411,-35.7582 5.5411,-47.8843 0,-19.0936 1.8476,-22.9396 13.7914,-28.7077 13.6374,-6.586 13.7886,-7.1914 13.5308,-54.1859 -0.2416,-44.0252 -1.6976,-50.7779 -19.7698,-91.69 l -19.509,-44.1647 9.0998,-73.6897 c 12.3625,-100.1104 26.4145,-191.6982 29.9548,-195.2385 2.9048,-2.9048 372.3608,30.2193 434.1479,38.9242 23.5082,3.3119 34.6382,7.4649 40.3697,15.0634 11.0293,14.622 35.9728,19.3148 122.762,23.0961 75.0776,3.2712 75.2778,3.2507 101.3433,-10.3952 l 26.117,-13.6727 96.2018,6.2673 96.2018,6.2673 -3.2704,53.8465 c -5.3,87.2634 -19.9447,189.8506 -38.6091,270.4587 -5.4287,23.4456 -16.5725,77.6084 -24.7641,120.362 -18.3035,95.5288 -33.47,129.2619 -77.7209,172.8639 -35.7709,35.2466 -99.3153,79.908 -167.9767,118.0605 -26.2039,14.5605 -54.9912,31.9148 -63.9718,38.5651 -8.9807,6.6504 -18.2539,10.9016 -20.6071,9.4472 -2.3532,-1.4544 -5.7809,-17.307 -7.6169,-35.2282 -6.7779,-66.1562 -42.6416,-183.3466 -56.1095,-183.3466 -8.5473,0 -9.4253,18.4704 -1.8278,38.4532 25.4894,67.0423 45.5628,199.1437 82.6987,544.2337 4.0626,37.7526 12.7719,97.5574 19.3538,132.8997 19.6276,105.3918 20.4312,115.9372 9.7366,127.7548 -16.6787,18.4298 -36.316,24.5982 -93.4401,29.3516 -30.9548,2.5757 -86.7482,7.269 -123.9851,10.4295 -123.1828,10.4551 -196.1288,11.1609 -213.1409,2.062 z"
       id="path4758"
       inkscape:connector-curvature="0" /><path
       style="opacity:1;fill:#d35f5f;fill-opacity:1;fill-rule:nonzero;stroke:none;stroke-width:5.9000001;stroke-miterlimit:4;stroke-dasharray:none;stroke-opacity:1"
       d="m 934.92767,3543.2766 c -30.0275,-41.0997 -42.64196,-63.4079 -60.51179,-107.0124 -21.61446,-52.7417 -31.37759,-102.2956 -31.36806,-159.2123 0.0114,-66.8288 4.84893,-74.4478 68.5503,-107.9597 74.79761,-39.3495 142.14358,-67.2606 144.73448,-59.9844 9.3561,26.2756 100.126,348.4644 105.1064,373.0766 3.0263,14.9557 1.8336,16.7434 -17.8799,26.8005 -42.0992,21.4774 -138.1228,55.9276 -163.22951,58.5615 l -25.70059,2.6961 -19.70133,-26.9659 z"
       id="path4760"
       inkscape:connector-curvature="0" /></g></svg>