<?xml version="1.0" encoding="UTF-8" standalone="no"?>
<!-- Created with Inkscape (http://www.inkscape.org/) -->

<svg
   xmlns:dc="http://purl.org/dc/elements/1.1/"
   xmlns:cc="http://creativecommons.org/ns#"
   xmlns:rdf="http://www.w3.org/1999/02/22-rdf-syntax-ns#"
   xmlns:svg="http://www.w3.org/2000/svg"
   xmlns="http://www.w3.org/2000/svg"
   xmlns:sodipodi="http://sodipodi.sourceforge.net/DTD/sodipodi-0.dtd"
   xmlns:inkscape="http://www.inkscape.org/namespaces/inkscape"
   id="svg4155"
   version="1.1"
   inkscape:version="0.91 r13725"
   xml:space="preserve"
   width="3060"
   height="4080"
   viewBox="0 0 3060 4080"
   sodipodi:docname="SuperTeacher_Phase8_v3.svg"
   enable-background="new"
   inkscape:export-filename="/Users/larsaeschlimann/Desktop/SuperTeacher_Design/PNG/P8"
   inkscape:export-xdpi="350"
   inkscape:export-ydpi="350"><metadata
     id="metadata4161"><rdf:RDF><cc:Work
         rdf:about=""><dc:format>image/svg+xml</dc:format><dc:type
           rdf:resource="http://purl.org/dc/dcmitype/StillImage" /><dc:title /></cc:Work></rdf:RDF></metadata><defs
     id="defs4159"><marker
       inkscape:stockid="Arrow1Lstart"
       orient="auto"
       refY="0.0"
       refX="0.0"
       id="marker4962"
       style="overflow:visible"
       inkscape:isstock="true"><path
         id="path4964"
         d="M 0.0,0.0 L 5.0,-5.0 L -12.5,0.0 L 5.0,5.0 L 0.0,0.0 z "
         style="fill-rule:evenodd;stroke:none;stroke-width:1pt;stroke-opacity:1;fill:#000000;fill-opacity:1"
         transform="scale(0.8) translate(12.5,0)" /></marker><marker
       inkscape:stockid="Arrow1Lstart"
       orient="auto"
       refY="0.0"
       refX="0.0"
       id="Arrow1Lstart"
       style="overflow:visible"
       inkscape:isstock="true"><path
         id="path4692"
         d="M 0.0,0.0 L 5.0,-5.0 L -12.5,0.0 L 5.0,5.0 L 0.0,0.0 z "
         style="fill-rule:evenodd;stroke:none;stroke-width:1pt;stroke-opacity:1;fill:#000000;fill-opacity:1"
         transform="scale(0.8) translate(12.5,0)" /></marker><clipPath
       clipPathUnits="userSpaceOnUse"
       id="clipPath4171"><path
         d="m 0,0 2448,0 0,3264 L 0,3264 0,0 Z"
         id="path4173"
         inkscape:connector-curvature="0" /></clipPath><filter
       inkscape:collect="always"
       style="color-interpolation-filters:sRGB"
       id="filter4226"><feBlend
         inkscape:collect="always"
         mode="lighten"
         in2="BackgroundImage"
         id="feBlend4228" /></filter><filter
       inkscape:collect="always"
       style="color-interpolation-filters:sRGB"
       id="filter4682"><feBlend
         inkscape:collect="always"
         mode="lighten"
         in2="BackgroundImage"
         id="feBlend4684" /></filter></defs><sodipodi:namedview
     pagecolor="#ffffff"
     bordercolor="#666666"
     borderopacity="1"
     objecttolerance="10"
     gridtolerance="10"
     guidetolerance="10"
     inkscape:pageopacity="0"
     inkscape:pageshadow="2"
     inkscape:window-width="1440"
     inkscape:window-height="856"
     id="namedview4157"
     showgrid="false"
     showguides="false"
     inkscape:zoom="0.05667253"
     inkscape:cx="-3097.5328"
     inkscape:cy="-479.37899"
     inkscape:window-x="-4"
     inkscape:window-y="0"
     inkscape:window-maximized="0"
     inkscape:current-layer="g4163" /><g
     id="g4163"
     inkscape:groupmode="layer"
     inkscape:label="Hauptkörper"
     transform="matrix(1.25,0,0,-1.25,0,4080)"
     style="display:inline;filter:url(#filter4682);opacity:1"><g
       id="g4165"
       style="fill:#000000;stroke:#000000;stroke-width:0.80000001;stroke-miterlimit:4;stroke-dasharray:none;stroke-opacity:1" /><path
       style="opacity:1;fill:#000000;fill-opacity:1;fill-rule:nonzero;stroke:#000000;stroke-width:0.89628482;stroke-miterlimit:4;stroke-dasharray:none;stroke-opacity:1"
       d="m 1478.3811,2897.059 0,0 0,0 c -3.3896,-0.025 -12.2548,-7.0519 -24.576,-21.7682 -13.0195,-15.5502 -38.8273,-38.3919 -57.3501,-50.7609 -37.0764,-24.7595 -39.1563,-25.6358 -36.9086,-15.5432 2.6603,11.9465 -13.1166,43.0707 -21.833,43.0707 -6.079,0 -7.2535,-3.357 -4.3746,-12.5042 11.189,-35.5515 22.8057,-99.0018 19.1948,-104.8443 -2.8782,-4.6569 -11.2924,-0.5339 -27.8723,13.6578 -40.114,34.336 -54.2485,23.2716 -16.7546,-13.1151 20.8612,-20.2452 32.9898,-49.0326 25.6561,-60.8984 -5.4231,-8.7751 -12.889,-6.7646 -16.4412,4.4272 -3.7199,11.7206 -36.795,46.9514 -40.5516,43.1949 -3.1694,-3.1692 16.2955,-36.6426 21.3078,-36.6426 7.1896,0 17.3582,-33.3298 14.113,-46.2602 -3.2078,-9.7067 4.3943,-14.6379 -7.8793,-24.8439 -16.9415,-14.0876 -56.189,-32.8891 -73.6336,-40.0457 l 8.2556,-20.8614 c 9.8212,4.1234 22.1012,9.7677 37.1642,17.0504 4.4234,2.1386 8.7131,4.1923 12.9034,6.1812 -1.466,-10.0356 -2.561,-33.9804 -2.561,-41.4006 0,-17.6606 -9.4532,-27.3433 -14.3178,-14.6662 -1.7182,4.4774 -7.9538,9.4028 -13.8557,10.9462 -17.7515,4.6422 -12.8121,-13.9186 8.6023,-32.3292 14.7682,-12.6967 19.3585,-20.9776 19.4503,-35.0794 0.066,-10.1525 3.6945,-22.0333 8.0631,-26.4019 12.6931,-12.6931 27.6035,-69.8299 19.5258,-74.8223 -3.6645,-2.2647 -4.9759,-6.8459 -2.9148,-10.1812 2.0614,-3.3353 1.1517,-10.9158 -2.0218,-16.8456 -6.7939,-13.3628 11.5404,-32.3203 21.0364,-37.2449 7.1507,-3.5862 10.273,-7.4308 6.9375,-8.5426 -4.1711,-1.3905 -4.4363,-7.7018 -0.8473,-20.2155 3.7041,-12.9153 2.8939,-26.6193 -2.7939,-47.2353 -4.4066,-15.973 -20.3818,-79.059 -35.4995,-140.1915 -51.5193,-157.722 -93.1102,-343.9028 -172.246,-468.2511 0,-0.479 -7e-4,-0.6802 0,-1.031 5.1003,-5.7124 8.6939,-14.7443 8.9069,-27.1109 0.094,-5.4354 -0.127,-10.8749 0,-16.3099 0.071,-3.0279 0,-6.0751 0.2713,-9.0889 1.9531,-2.524 3.9526,-5.013 5.8101,-7.6079 4.1648,-5.8181 8.9903,-13.3506 12.0404,-20.6899 11.0249,26.3801 31.8931,69.498 60.9438,125.585 55.5721,107.2903 67.2441,136.9665 119.9586,305.0186 23.4908,74.8875 44.9288,138.4411 47.6414,141.2314 2.9254,3.009 7.2251,-0.9553 10.5663,-9.7436 20.5911,-54.1584 65.024,-120.3735 80.776,-120.3735 10.9904,0 7.2646,17.7422 -7.0022,33.3446 -22.3676,24.461 -45.6454,64.4264 -65.2573,112.0391 -17.6253,42.7899 -23.0678,60.26 -14.5664,60.3189 4.4532,0.03 12.732,-4.7159 25.0908,-13.1029 10.559,-7.163 35.0548,-16.2386 54.4335,-20.1612 33.7992,-6.8414 123.5886,-45.3875 146.0209,-62.6856 10.2114,-7.8742 9.4021,-8.8865 -16.0981,-20.1664 -32.4171,-14.3397 -111.5316,-83.3038 -104.0951,-90.7401 3.1407,-3.1408 21.0689,6.8333 46.1727,25.6894 44.7012,33.5761 54.9324,37.1805 54.9324,19.3542 0,-37.4514 -60.6415,-181.7704 -156.4226,-372.2646 -33.176,-65.9819 -60.3207,-121.6258 -60.3207,-123.654 0,-2.0281 3.706,-3.6867 8.2346,-3.6867 10.802,0 169.8635,322.8091 195.054,395.855 10.2555,29.7377 21.4672,70.2707 24.9156,90.0731 5.6008,32.1617 8.2781,37.1883 25.0837,47.104 15.4771,9.1317 21.7894,10.064 35.5941,5.2517 16.7015,-13.3591 33.5256,-29.7879 32.0019,-42.2252 -2.7775,-22.0727 -26.2997,-113.039 -41.3288,-159.8293 -8.1325,-25.3188 -44.3518,-107.9626 -85.5952,-195.3078 -8.8662,-18.7768 -16.1192,-35.5692 -16.1192,-37.3166 0,-1.7473 -13.7551,-27.0015 -30.5664,-56.1211 -16.8116,-29.1197 -30.5665,-56.7174 -30.5665,-61.329 0,-18.6811 12.271,-5.8026 40.9893,43.0217 47.8321,81.3199 126.0683,267.6683 156.7763,373.4199 10.1566,34.9765 20.7716,61.455 24.6373,61.455 3.7354,0 11.2516,-11.2535 16.7021,-25.0084 9.9348,-25.0708 14.1494,-27.315 37.3813,-19.9091 9.228,2.9417 12.5043,1.7749 12.5043,-4.4534 0,-16.9275 -15.9605,-69.0881 -29.2711,-95.6591 -7.5086,-14.9891 -17.9785,-41.0077 -23.2666,-57.8192 -10.3353,-32.8574 -94.9353,-208.5151 -120.7429,-250.7023 -8.621,-14.093 -15.6745,-30.9733 -15.6745,-37.5128 0,-11.2536 -2.6349,-11.8897 -49.2589,-11.8897 -27.0924,0 -62.5811,2.5263 -78.8626,5.614 -16.2814,3.0877 -54.1992,6.876 -84.2629,8.4185 -45.472,2.333 -55.2054,1.389 -57.8927,-5.6141 -2.0251,-5.2774 -9.7486,-8.17 -20.6986,-7.7514 -20.1619,0.7699 -103.661,12.602 -139.9639,19.2088 0.1278,-1.3382 0.2846,-2.8609 0.5146,-4.8071 0.8511,-7.1981 0.7172,-12.2137 -0.2013,-15.4923 65.6554,-8.6682 128.8052,-15.9334 140.2458,-15.1039 26.5099,1.9222 26.7855,1.2696 20.0859,-47.6098 l -3.5343,-25.784 -39.5767,0 c -14.6611,0 -47.3943,2.7483 -83.526,6.7799 0.2437,-2.1108 0.561,-4.1844 1.2114,-6.3982 1.0668,-3.6313 2.511,-7.1498 4.1698,-10.5699 8.6055,-0.8826 16.454,-1.587 23.3647,-2.0745 65.4312,-4.6146 95.8674,-8.819 95.8674,-13.2411 0,-14.609 18.5038,-20.1751 76.27,-22.9446 83.6272,-4.0091 84.5219,-3.9349 101.0247,8.2661 13.9805,10.3361 19.1282,10.6217 95.5996,5.32 l 62.8397,-4.3571 c 12.5816,0.1277 22.5839,-1.9533 35.9511,-1.1624 -1.8211,93.7495 -5.1411,175.9777 -7.5921,181.5151 -3.3419,7.5507 -1.8318,12.5988 5.3409,17.8435 20.0585,28.4188 23.4458,49.0241 39.251,80.4083 10.759,21.3645 33.5275,78.1531 50.5981,126.1976 17.0706,48.0444 35.4962,96.121 40.9438,106.8364 5.4477,10.7155 12.7622,30.0974 16.2557,43.0707 8.7078,32.8317 5.778,56.1508 17.8731,84.5957 18.6768,31.67 47.2791,43.5586 81.1383,46.0378 63.9905,4.5105 102.9234,21.3117 143.6121,61.9767 40.7505,40.7266 52.5517,74.3161 41.5127,118.1556 -9.5607,37.9698 -26.5892,69.2325 -47.9092,87.9584 -18.3186,16.0899 -18.8575,17.7065 -15.4451,46.2812 3.2075,26.8637 4.6179,29.2757 15.2141,26.0133 29.5637,-9.1027 92.0902,-19.4837 117.2715,-19.4715 49.9128,0.026 86.0822,34.6727 86.1203,82.5021 0.017,19.9673 -3.1208,27.2387 -18.0412,41.791 -9.9341,9.6889 -24.0951,21.4788 -31.4697,26.1988 -12.3724,7.9187 1e-4,-6e-4 -8.3082,6.316 l 10.9532,57.5075 -180.4351,17.5301 -142.2519,15.8758 c -77.9535,8.6994 -204.8516,9.5316 -256.5615,16.8543 l -23.1477,3.2788 -6.2442,35.8602 c -3.4347,19.7234 -5.8222,57.3651 -5.3041,83.6486 0.8889,45.1456 1.4404,47.1532 9.9413,36.3012 21.5599,-27.5218 190.9259,-58.5643 248.7821,-45.5985 21.0011,4.7064 37.4933,4.0095 78.0975,-3.3015 49.284,-8.8738 152.0732,-21.8137 145.6586,-11.4346 -1.6441,2.6599 -103.2621,26.7753 -128.5574,36.7792 -42.5992,16.8474 -94.6588,44.6185 -134.9118,71.9671 -32.3548,21.9824 -33.4884,12.01 -3.0163,-26.5402 18.2669,-23.1095 27.2124,-29.3397 52.7969,-36.7774 16.9417,-4.9251 30.8028,-9.7127 30.8028,-10.6382 0,-0.9255 -31.887,-1.089 -70.8591,-0.3641 -86.1261,1.602 -117.9061,10.4884 -219.42,61.357 -38.9398,19.5128 -73.5197,35.4785 -76.8441,35.4785 -13.0033,0 -1.182,-19.8521 22.5821,-37.9205 30.9241,-23.5123 34.148,-34.6419 35.244,-121.6864 l 0.8561,-67.9059 -38.9027,2.7677 c -21.3963,1.5224 -53.9092,5.1778 -72.2489,8.1225 -61.5631,9.8849 -141.0789,3.9877 -161.6779,-11.9895 -9.2593,-7.1816 -13.711,0.8717 -7.2035,13.0311 3.1836,5.9484 9.2667,9.4797 13.5194,7.8478 11.9907,-4.6012 16.3363,7.6878 14.5017,41.0085 -1.0779,19.5777 1.3732,36.4396 6.8166,46.9044 5.761,11.0749 7.4403,24.056 5.215,40.2926 -2.5995,18.9646 -1.5617,23.9528 4.9803,23.9528 11.8381,0 76.5385,50.8304 95.0692,74.6893 13.1658,16.9512 16.3563,25.9155 12.5147,25.8872 z m -85.6442,-281.2164 c 2.758,-0.018 4.6782,-0.5644 5.7541,-1.6403 2.8295,-2.8295 -3.1954,-16.9326 -14.2565,-33.3691 -33.3089,-49.4967 -47.0347,-113.444 -35.9162,-167.3216 7.5669,-36.6688 -3.3092,-42.4813 -17.8749,-9.5528 -6.3908,14.4473 -12.0733,33.0236 -12.6286,41.2798 -0.5549,8.2579 -4.1355,18.3158 -7.9562,22.3547 -6.6199,6.9981 -10.2947,44.0243 -8.2346,82.9658 0.5575,10.5386 -1.4421,23.356 -4.3292,29.9818 50.2045,23.4912 82.3317,35.3873 95.4421,35.3017 z m 141.5588,-10.0377 c 19.6597,-0.01 48.7468,-2.7683 64.0721,-7.179 13.0233,-3.7482 17.3597,-68.5076 5.2656,-78.6332 -4.5635,-3.8209 -16.5732,-6.9462 -26.6872,-6.9462 -15.2332,0 -18.4652,2.1457 -18.8343,12.5042 -0.7432,20.8569 -18.545,68.0334 -25.9519,68.7741 -3.8209,0.382 -9.4476,1.0079 -12.5042,1.3899 -3.0567,0.3821 -5.5581,3.4862 -5.5581,6.899 0,2.2113 8.4021,3.1966 20.198,3.1912 z m -72.7847,-1.6052 c 11.9047,-0.1695 23.2181,-4.846 33.2851,-13.9187 6.8394,-6.1638 15.865,-8.9493 22.976,-7.0898 9.8158,2.5669 13.2848,-1.0565 21.4286,-22.3808 6.2536,-16.3751 8.652,-33.3826 6.7291,-47.7184 l -2.9864,-22.2759 28.6478,0.077 c 15.7564,0.042 34.5687,1.6604 41.8051,3.5974 12.9674,3.4708 13.101,4.2303 9.3076,52.7197 l -3.8476,49.1994 32.373,0.1418 c 17.8051,0.078 70.5173,-6.7843 117.6304,-9.6403 l 80.3453,-4.8701 -14.4544,-154.8962 c -1.4371,-15.3995 39.1105,-17.0272 65.7579,-17.3848 143.7003,-2.5511 150.3892,-10.7715 140.9933,-50.7031 -7.894,-33.5489 -7.4562,-34.4032 -28.1612,-37.9013 -30.5978,-5.1694 -54.3549,4.9549 -85.2695,36.3416 -29.3962,29.8448 -38.3001,10.425 -37.7753,-1.3165 50.0335,-46.0112 74.4248,-54.4777 164.393,-68.8459 13.5396,-4.0875 41.9261,-55.4534 46.1271,-83.4682 8.7156,-58.1199 -47.1337,-115.3971 -134.7788,-138.2257 -37.8908,-9.8695 -88.5628,-9.7318 -192.0465,0.5235 -82.2512,8.151 -70.3715,4.0444 -196.3179,67.8708 -24.6414,12.4857 -66.6643,28.1849 -93.3922,34.8886 -77.8439,19.5239 -98.5062,41.6046 -82.3374,87.9864 4.7688,13.6797 3.2013,17.0834 -14.9918,32.5726 -11.1742,9.5132 -29.0263,23.1529 -39.6728,30.3109 -24.8368,16.6984 -27.4865,32.523 -7.0198,41.9241 9.5887,4.4045 16.0666,4.9837 17.215,1.5387 1.0126,-3.0377 9.9133,-14.5949 19.7795,-25.6824 14.4078,-16.1911 22.9961,-20.7285 43.6344,-23.0548 24.8139,-2.7969 26.6316,-1.9621 52.9245,24.3309 14.9754,14.9754 28.5417,32.2538 30.1482,38.3967 3.8653,14.7809 -4.0284,35.1505 -15.2982,39.4751 -9.1238,3.5012 -21.7655,-9.2423 -14.5628,-14.6802 11.3987,-8.606 5.7703,-27.5574 -13.1065,-44.1315 -16.9184,-14.8546 -23.9496,-17.4606 -43.2912,-16.0509 -21.1597,1.5424 -24.1373,3.7564 -35.5958,26.479 -10.4194,20.6625 -12.5043,33.8402 -12.5043,79.0358 0,46.0642 2.1376,59.0723 14.1778,86.2972 16.6155,37.5709 32.0535,55.8129 55.806,65.9417 7.4273,3.1672 14.7829,4.6882 21.9257,4.5865 z m 421.9366,-25.952 130.0365,-13.3533 -12.6582,-129.121 -129.774,4.0001 12.3957,138.4742 z m 179.0241,-22.043 c 4.501,0.02 9.8714,-2.1103 15.8198,-6.4998 7.3312,-5.4099 9.1525,-9.9727 5.4512,-13.6614 -3.0567,-3.0461 -12.6333,-7.2868 -21.2797,-9.4232 -14.7553,-3.6459 -15.6075,-2.9035 -13.8925,12.0648 1.3153,11.4795 6.3997,17.4861 13.9012,17.5196 z m 53.0436,-4.2556 82.7681,-8.7896 -6.169,-22.232 c -0.7171,-5.5606 -69.3191,11.0094 -80.4381,13.2184 l 3.839,17.8032 z m -20.0439,-44.044 c 1.24,0.01 2.4912,0.01 3.7532,0 22.885,-0.1597 49.1947,-3.1515 71.295,-8.8141 56.8811,-14.5742 76.698,-31.1184 76.9929,-64.2699 0.1958,-21.9996 -13.9188,-39.1644 -40.4781,-49.2274 -8.6047,-3.2603 -21.1079,-5.7271 -27.7866,-5.4863 -32.3392,1.1837 -85.1881,17.5987 -115.0885,35.7621 -29.4325,17.8794 -33.2053,22.1854 -33.1381,37.8348 0.1228,28.5448 5.5038,40.8956 20.8702,47.897 9.0128,4.1065 24.9811,6.177 43.58,6.3038 z m -734.4755,-222.2069 c 3.8018,0.024 9.13,-2.4547 15.944,-7.4573 8.4402,-6.1965 8.6793,-9.6427 2.2197,-31.9092 -4.5845,-15.8031 -8.8063,-22.431 -11.5064,-18.0623 -7.6018,14.4655 -10.4612,23.6677 -12.8683,36.5272 -2.2499,13.8637 -0.1311,20.8606 6.211,20.9016 z m 351.144,-237.9706 38.5263,-3.6394 c 21.19,-2.0012 52.8456,-5.0805 70.3443,-6.843 l 31.8146,-3.2035 -9.5843,-12.9243 c -5.2722,-7.1085 -22.2121,-20.6261 -37.6439,-30.0378 -15.4317,-9.4117 -31.0307,-17.1117 -34.6646,-17.1117 -3.6339,0 -12.7976,9.378 -20.3625,20.8404 -7.5648,11.4625 -19.3059,28.0591 -26.092,36.8807 l -12.3379,16.0386 z m -45.6212,-546.2943 c 4.8761,-0.1402 8.7457,-4.8596 8.7457,-13.749 0,-11.115 -2.7773,-13.8924 -13.8924,-13.8924 -15.5475,0 -16.3559,1.6899 -8.1418,17.0382 3.9,7.287 8.986,10.7268 13.2885,10.6032 z m -305.964,-32.2961 c 37.8826,0.1888 132.4332,-6.0121 136.6729,-10.0762 5.9152,-5.6701 -10.5735,-21.6754 -27.2614,-26.4613 -12.4082,-3.5587 -23.9811,-2.9776 -37.4146,1.88 -17.5959,6.3627 -20.4718,5.9345 -30.1954,-4.5024 -10.6305,-11.4106 -10.6252,-11.6593 0.4797,-22.7643 12.3987,-12.3987 19.9135,-14.0953 25.1204,-5.67 1.8893,3.0565 14.5413,5.558 28.1158,5.558 l 24.681,0 0,-22.2303 0,-22.2303 -29.1782,0.7317 c -40.4335,1.0121 -104.4844,8.8059 -108.8882,13.25 -5.4493,5.4992 -3.2433,85.9674 2.5016,91.2582 0.9001,0.8289 6.6242,1.2134 15.3664,1.2569 z m -614.09168,-5.2166 c -0.0348,-1.2499 -0.0844,-2.4976 -0.22407,-3.7392 -0.6779,-6.0254 -1.08587,-7.3134 -2.0499,-10.6609 0.61184,-0.031 1.21075,-0.066 1.85384,-0.093 5.51413,-0.2241 46.32527,-7.0118 101.499,-16.1646 -1.68205,3.7474 -3.35669,7.4954 -4.90681,11.2788 -1.05974,2.5865 -1.63934,3.9964 -2.32123,5.6543 -42.51967,6.5577 -77.34156,11.7605 -93.85083,13.7244 z m 879.57928,-5.0084 c 14.4879,0 25.987,-0.2972 30.9989,-0.8823 l 18.2232,-2.1268 0,-41.0734 c 0,-35.8153 -1.2435,-40.9354 -9.7243,-40.009 -5.3491,0.5844 -41.4153,2.4599 -80.1457,4.1681 -38.7305,1.7082 -72.0206,4.7179 -73.9786,6.6889 -1.9579,1.9713 -1.8622,18.5858 0.2118,36.921 l 3.7708,33.3358 61.7089,2.1129 c 16.9697,0.5802 34.4471,0.8678 48.935,0.8648 z"
       id="path4308"
       inkscape:connector-curvature="0" /><path
       style="opacity:1;fill:#000000;fill-opacity:1;fill-rule:nonzero;stroke:#000000;stroke-width:0.89628482;stroke-miterlimit:4;stroke-dasharray:none;stroke-opacity:1"
       d="m 1976.5369,2635.5669 c -21.419,8.5974 -114.7536,13.0343 -133.886,6.3647 -17.0721,-5.9514 -23.9417,-0.4387 -10.3859,8.3347 3.8207,2.4728 40.3958,8.332 81.2781,13.0203 69.9826,8.0255 75.626,7.9445 96.4634,-1.3846 16.043,-7.1827 21.2037,-12.3289 18.757,-18.7045 -1.8563,-4.8374 -3.3751,-9.8413 -3.3751,-11.1196 0,-4.2599 -35.9414,-1.6929 -48.8515,3.489 z"
       id="path4310"
       inkscape:connector-curvature="0" /><path
       style="opacity:1;fill:#000000;fill-opacity:1;fill-rule:nonzero;stroke:#000000;stroke-width:0.89628482;stroke-miterlimit:4;stroke-dasharray:none;stroke-opacity:1"
       d="m 2223.6083,2593.6714 c -33.9399,12.8217 -145.4645,21.444 -121.9773,58.197 60.776,-4.7751 112.0868,-29.2513 150.4549,-48.3224 7.5457,-3.438 12.4,-8.3862 10.7871,-10.9958 -4.1446,-6.7062 -32.2397,-5.9039 -39.2647,1.1212 z"
       id="path4312"
       inkscape:connector-curvature="0"
       sodipodi:nodetypes="cccsc" /><path
       style="opacity:1;fill:#000000;fill-opacity:1;fill-rule:nonzero;stroke:#000000;stroke-width:0.89628482;stroke-miterlimit:4;stroke-dasharray:none;stroke-opacity:1"
       d="m 2372.7329,2630.493 c -49.7599,11.5958 -64.0889,16.7073 -60.9725,21.7501 1.8011,2.9139 -1.8144,5.2981 -8.0342,5.2981 -15.105,0 -43.6588,17.8592 -41.0261,25.6601 3.0914,9.1598 -26.2007,13.2929 -52.4352,7.3984 -30.2315,-6.7925 -76.1047,2.1131 -101.3402,19.6739 -54.7419,38.0932 -100.2088,89.7138 -100.2088,113.7715 0,14.546 17.2824,2.9157 41.5306,-27.9484 56.1943,-71.5264 91.2032,-93.2305 138.8553,-86.0846 13.8831,2.0818 25.242,5.7956 25.242,8.2528 0,2.4571 -5.1848,11.0588 -11.5218,19.1149 -6.3368,8.0562 -10.7134,18.5173 -9.7257,23.2471 1.3563,6.4933 6.7196,3.9435 21.899,-10.4111 46.6538,-44.1192 128.4684,-90.7798 168.8869,-96.3198 34.3965,-4.7145 32.9227,3.9088 -9.2801,54.2972 -18.8402,22.4942 -39.8698,53.4363 -46.7328,68.7603 -33.2018,74.1354 -112.9303,250.5582 19.256,16.6613 14.3186,-25.3359 39.1103,-67.6823 57.9833,-92.5647 18.8729,-24.8824 36.6702,-48.3927 39.5496,-52.2452 3.4148,-4.5689 2.6951,-10.0653 -2.0699,-15.8066 -8.1075,-9.769 -34.6073,-10.7194 -69.8554,-2.5053 z"
       id="path4314"
       inkscape:connector-curvature="0"
       sodipodi:nodetypes="scssssssssscsssssssss" /><path
       style="opacity:1;fill:#000000;fill-opacity:1;fill-rule:nonzero;stroke:#000000;stroke-width:1;stroke-miterlimit:4;stroke-dasharray:none;stroke-opacity:1"
       d=""
       id="path4316"
       inkscape:connector-curvature="0"
       transform="matrix(0.8,0,0,-0.8,0,3264)" /><path
       style="opacity:1;fill:#000000;fill-opacity:1;fill-rule:nonzero;stroke:#000000;stroke-width:0.89628482;stroke-miterlimit:4;stroke-dasharray:none;stroke-opacity:1"
       d="m 1865.0935,2905.1482 c -59.2679,23.9094 -134.2531,77.0254 -134.2531,95.0985 0,11.3055 3.7767,9.4796 37.8879,-18.3172 34.9225,-28.4579 109.4026,-67.8001 115.9533,-61.2494 2.2989,2.2989 -0.2991,16.7902 -5.7733,32.2031 -10.9745,30.8994 -7.9535,41.6812 6.533,23.3164 12.8318,-16.267 52.4599,-35.2253 73.6301,-35.2253 14.5218,0 16.789,1.6498 13.3647,9.7255 -20.4186,48.1541 -23.7692,68.0796 -11.4475,68.0796 4.8203,0 9.2918,-8.547 11.5909,-22.1559 2.0587,-12.1857 9.9042,-31.2347 17.4344,-42.331 12.9352,-19.0611 13.1713,-20.7496 4.2772,-30.5775 -7.5282,-8.3186 -13.9843,-9.6842 -32.2291,-6.817 -12.5482,1.9721 -28.52,7.2843 -35.4929,11.805 -17.4748,11.3294 -21.5768,4.5739 -10.864,-17.8914 12.762,-26.7621 4.0935,-27.7321 -50.6116,-5.6634 z"
       id="path4318"
       inkscape:connector-curvature="0" /><path
       style="opacity:1;fill:#000000;fill-opacity:1;fill-rule:nonzero;stroke:#000000;stroke-width:0.89628482;stroke-miterlimit:4;stroke-dasharray:none;stroke-opacity:1"
       d="m 2322.7153,2876.0334 c -9.1699,7.0076 -36.6796,25.035 -61.1327,40.0611 -58.5763,35.9944 -86.1619,62.1117 -105.9701,100.3295 -8.9623,17.2918 -18.5795,35.7214 -21.3713,40.9546 -8.0253,15.0429 -61.0736,37.1268 -139.4191,58.0398 -95.864,25.5893 -163.4222,53.9125 -151.9484,65.3863 4.922,4.9219 226.7023,-61.7878 263.7514,-78.5701 35.5279,-16.0931 52.624,-35.1071 79.9371,-88.9045 21.5812,-42.5075 74.4533,-90.0204 129.3087,-116.2018 26.6891,-12.7382 48.5256,-25.5901 48.5256,-28.5597 0,-9.8863 -24.7846,-5.4475 -41.6812,7.4648 z"
       id="path4320"
       inkscape:connector-curvature="0"
       sodipodi:nodetypes="sssssssssss" /><path
       style="opacity:1;fill:#000000;fill-opacity:1;fill-rule:nonzero;stroke:#000000;stroke-width:0.89628482;stroke-miterlimit:4;stroke-dasharray:none;stroke-opacity:1"
       d="m 1741.5683,3151.4364 c 9.4301,17.6203 89.8856,45.2451 130.9886,44.9756 20.7503,-0.136 21.5119,-0.6889 11.4422,-8.3053 -5.9334,-4.4877 -17.1982,-8.1595 -25.0329,-8.1595 -12.3991,0 -47.2791,-11.1889 -102.0894,-32.7487 -20.7881,-8.177 -21.8025,-7.8961 -15.3085,4.2379 z"
       id="path4322"
       inkscape:connector-curvature="0" /><path
       style="opacity:1;fill:#000000;fill-opacity:1;fill-rule:nonzero;stroke:#000000;stroke-width:1;stroke-miterlimit:4;stroke-dasharray:none;stroke-opacity:1"
       d=""
       id="path4324"
       inkscape:connector-curvature="0"
       transform="matrix(0.8,0,0,-0.8,0,3264)" /><path
       style="opacity:1;fill:#000000;fill-opacity:1;fill-rule:nonzero;stroke:#000000;stroke-width:0.89628482;stroke-miterlimit:4;stroke-dasharray:none;stroke-opacity:1"
       d="m 1424.8866,2996.0062 c 10.1621,18.9879 59.4916,50.4507 131.9878,84.1828 39.1336,18.2087 80.3706,38.0826 91.6378,44.1641 11.2673,6.0817 24.1392,9.6556 28.6044,7.9421 9.8666,-3.7862 33.6622,20.2446 48.7558,49.2376 13.0912,25.1468 20.3693,23.3162 17.1439,-4.312 -1.289,-11.0404 10.0709,-26.5933 8.4332,-24.9558 -1.6375,1.6375 -19.4796,7.5973 -22.8384,3.6376 -18.3134,-21.5886 -77.7157,-66.7925 -79.7504,-60.6883 -3.0689,9.2066 -25.9118,3.2467 -49.869,-13.0111 -10.2651,-6.9661 -31.69,-16.9264 -47.611,-22.1341 -33.3301,-10.9021 -66.1119,-26.6292 -76.9954,-36.9388 -12.0888,-11.4512 -48.1611,-37.6959 -51.8116,-37.6959 -1.8397,0 -0.799,4.7572 2.3129,10.5718 z"
       id="path4326"
       inkscape:connector-curvature="0"
       sodipodi:nodetypes="ssssssccssssss" /><path
       style="opacity:1;fill:#000000;fill-opacity:1;fill-rule:nonzero;stroke:#000000;stroke-width:0.89628482;stroke-miterlimit:4;stroke-dasharray:none;stroke-opacity:1"
       d="m 1353.8854,2824.0574 c -0.9784,0.9961 16.6902,65.5696 18.8552,73.8526 4.8428,18.5448 28.4297,81.986 32.2505,86.7431 1.5343,1.9105 6.0752,3.4543 10.091,3.4309 4.0705,-0.024 5.935,-0.9459 4.2136,-2.0841 -1.6983,-1.1228 -3.929,-7.7537 -4.9574,-14.7354 -2.2596,-15.3424 -14.1407,-41.1512 -29.0527,-63.1102 -6.0511,-8.9105 -26.1701,-96.6769 -11.9608,-22.5639 -0.5275,-3.4996 -18.461,-62.5292 -19.4394,-61.533 z"
       id="path4328"
       inkscape:connector-curvature="0"
       sodipodi:nodetypes="ccccscscc" /><path
       style="opacity:1;fill:#000000;fill-opacity:1;fill-rule:nonzero;stroke:#000000;stroke-width:0.89628482;stroke-miterlimit:4;stroke-dasharray:none;stroke-opacity:1"
       d="m 1398.446,2419.0078 c -1.9101,3.5315 -4.0152,16.5083 -4.678,28.8374 -1.0661,19.8305 -0.3706,24.1804 6.0277,37.7054 10.118,21.3875 28.4089,46.1353 37.6183,50.8976 6.805,3.5191 8.4954,3.4982 13.7321,-0.1697 7.2322,-5.0657 7.681,-13.1912 1.109,-20.0803 -7.3321,-7.6856 -12.1959,-17.0385 -10.3847,-19.969 0.8873,-1.4357 13.9982,-8.9721 29.1352,-16.7474 42.7342,-21.951 47.7255,-27.3707 35.6059,-38.6617 -8.9271,-8.3171 -13.6132,-7.0923 -27.3797,7.156 -15.2681,15.8023 -25.7833,20.5232 -45.7129,20.5232 -14.2844,0 -15.6599,-0.5724 -18.3613,-7.6415 -1.606,-4.2029 -2.5129,-16.3947 -2.0153,-27.0929 0.8468,-18.2043 0.5161,-19.5066 -5.1593,-20.3146 -4.0419,-0.5755 -7.2223,1.2778 -9.537,5.5575 z"
       id="path4332"
       inkscape:connector-curvature="0" /><path
       style="opacity:1;fill:#000000;fill-opacity:1;fill-rule:nonzero;stroke:#000000;stroke-width:0.89628482;stroke-miterlimit:4;stroke-dasharray:none;stroke-opacity:1"
       d="m 1453.7519,1535.3545 c -1.9821,1.1214 -6.046,5.5916 -9.031,9.9337 -5.0703,7.3758 -5.4148,8.5089 -5.2403,17.2354 0.235,11.7536 3.1107,18.0536 12.4245,27.2186 13.1255,12.916 26.7094,16.4158 40.3298,10.391 3.6854,-1.6304 7.7823,-3.943 9.1043,-5.1393 3.4669,-3.1375 6.903,-19.428 5.38,-25.5061 -3.3212,-13.255 -4.337,-15.049 -12.2213,-21.5866 -14.5016,-12.0246 -32.0941,-17.4417 -40.746,-12.5467 z m 22.0387,27.9473 c 6.5444,2.7345 11.4506,7.3119 10.498,9.7945 -0.406,1.058 -3.0843,2.6265 -5.952,3.4857 -4.2752,1.2808 -6.0628,1.1538 -9.9292,-0.7053 -6.09,-2.9283 -11.4769,-10.3534 -9.3611,-12.9028 2.0289,-2.4446 8.4506,-2.3019 14.7443,0.3279 z"
       id="path4334"
       inkscape:connector-curvature="0" /><path
       style="opacity:1;fill:#000000;fill-opacity:1;fill-rule:nonzero;stroke:#000000;stroke-width:0.89628482;stroke-miterlimit:4;stroke-dasharray:none;stroke-opacity:1"
       d="m 1540.7184,1722.7992 c -9.3227,4.3258 -11.4424,7.8313 -12.514,20.6958 -0.9205,11.0508 -0.7306,12.4151 2.8349,20.3598 3.2154,7.1652 5.1263,9.3868 12.0496,14.0101 8.2625,5.5174 15.7281,7.9341 20.2235,6.5462 10.2157,-3.1538 21.76,-7.9917 22.7333,-9.527 0.6458,-1.0189 1.1839,-6.1378 1.1956,-11.3751 0.019,-8.3032 -0.6327,-10.7667 -5.0859,-19.2413 -5.5359,-10.5347 -10.8397,-16.6153 -17.4955,-20.0571 -5.9045,-3.0534 -18.7684,-3.8117 -23.9415,-1.4114 z m 22.0405,28.1917 c 4.6069,4.6068 4.8655,8.8533 0.5369,8.8109 -5.5892,-0.055 -14.9358,-5.137 -14.9358,-8.122 0,-5.4474 9.2004,-5.8876 14.3989,-0.6889 z"
       id="path4336"
       inkscape:connector-curvature="0" /><path
       style="opacity:1;fill:#000000;fill-opacity:1;fill-rule:nonzero;stroke:#000000;stroke-width:0.89628482;stroke-miterlimit:4;stroke-dasharray:none;stroke-opacity:1"
       d="m 1613.8375,1886.3722 c -5.4188,2.1691 -14.0008,9.6224 -16.3823,14.2277 -1.7403,3.3657 -2.054,6.7747 -1.433,15.575 0.9358,13.2618 2.4181,16.9902 9.9439,25.0135 7.3128,7.7961 26.4448,20.1172 31.145,20.0575 5.5459,-0.071 9.9069,-4.6486 12.1701,-12.7764 2.8239,-10.1412 2.4722,-19.3057 -1.1526,-30.0369 -2.6287,-7.7822 -4.4879,-10.4603 -12.5251,-18.0422 -5.1912,-4.8971 -9.4383,-9.6654 -9.4383,-10.5964 0,-0.9311 -1.5925,-2.4183 -3.5389,-3.3052 -4.1005,-1.8683 -4.4026,-1.8723 -8.7888,-0.1166 z m 12.8078,33.4541 c 5.8048,3.9658 7.8264,6.5816 6.9175,8.9506 -1.1479,2.9911 -6.1996,2.3247 -11.938,-1.5746 -5.6543,-3.8421 -6.5319,-6.669 -2.7539,-8.8695 3.1849,-1.855 2.7513,-1.9383 7.7744,1.4935 z"
       id="path4338"
       inkscape:connector-curvature="0" /><path
       style="opacity:1;fill:#000000;fill-opacity:1;fill-rule:nonzero;stroke:#000000;stroke-width:3.2266252;stroke-miterlimit:4;stroke-dasharray:none;stroke-opacity:1"
       d="m 2141.3745,2646.5845 c -4.8631,1.1086 -8.9915,2.1285 -9.1741,2.2665 -0.1827,0.1381 1.2925,7.4699 3.2782,16.2929 1.9856,8.823 4.1668,18.8103 4.8469,22.1941 0.6802,3.3837 1.4156,6.2867 1.6341,6.4511 0.2185,0.1643 4.9288,-0.7837 10.4673,-2.1068 l 10.07,-2.4055 0,-7.5366 c 0,-5.9442 -0.6944,-9.6015 -3.2861,-17.3085 -1.8074,-5.3745 -3.8408,-12.0928 -4.519,-14.9296 -1.4171,-5.9287 -0.7494,-5.7824 -13.3173,-2.9176 z"
       id="path4437"
       inkscape:connector-curvature="0" /><path
       style="opacity:1;fill:#000000;fill-opacity:1;fill-rule:nonzero;stroke:#000000;stroke-width:5.28808069;stroke-miterlimit:4;stroke-dasharray:none;stroke-opacity:1"
       d="m 2117.3047,2586.3376 c 0,2.4086 6.1185,30.1007 6.806,30.8031 0.4283,0.4378 5.4869,-0.6674 11.2414,-2.4561 8.2876,-2.5759 10.3246,-3.5584 9.7989,-4.7257 -0.5199,-1.154 -4.4782,-13.08 -7.7446,-23.3329 -0.476,-1.494 -20.1017,-1.7757 -20.1017,-0.2884 z"
       id="path4439"
       inkscape:connector-curvature="0" /><path
       style="display:inline;opacity:1;fill:#000000;fill-rule:evenodd;stroke:#000000;stroke-width:1.34035265px;stroke-linecap:butt;stroke-linejoin:miter;stroke-opacity:1;filter:url(#filter4226)"
       d="m 2120.9392,915.08543 c 0,0 -39.6374,-2.70104 -40.566,26.81402 -1.0739,34.13252 63.5771,33.76115 66.9467,16.7544 8.7867,-44.34492 -26.3807,-43.56842 -26.3807,-43.56842 z"
       id="path4234"
       inkscape:connector-curvature="0"
       sodipodi:nodetypes="cssc"
       transform="matrix(0.89628481,0,0,-0.89628481,50.431337,3346.9467)" /><path
       style="fill:#000000;fill-rule:evenodd;stroke:none;stroke-width:0.80000001px;stroke-linecap:butt;stroke-linejoin:miter;stroke-opacity:1"
       d="m 811.57449,1515.0309 -42.39365,5.7095 -13.61134,-63.035 -20.00472,-6.3105 c 13.79096,66.8381 14.97385,79.3018 41.36936,163.7167 l 9.00843,-21.0823 -13.37367,-55.8282 39.70453,-5.6967 z"
       id="path4668"
       inkscape:connector-curvature="0"
       sodipodi:nodetypes="ccccccccc" /><path
       style="display:inline;opacity:1;fill:#000000;fill-opacity:1;fill-rule:nonzero;stroke:none;stroke-width:5.9000001;stroke-miterlimit:4;stroke-dasharray:none;stroke-opacity:1;filter:url(#filter4226)"
       d="m 524.69569,3547.6541 c -42.91355,-8.3589 -72.69074,-9.2822 -66.33442,-58.2975 3.1885,-22.3377 128.79608,-280.3595 151.09607,-332.9672 30.59301,-72.1716 61.44684,-170.309 65.70622,-208.9933 5.95994,-54.1288 16.59342,-123.2929 23.26542,-151.3265 10.84646,-45.5734 16.37928,-70.7552 28.18932,-128.2987 6.31277,-30.7588 15.80602,-72.6108 21.096,-93.0044 7.05177,-27.1853 8.81123,-39.202 6.59379,-45.0343 -21.93425,-57.6914 -26.19004,-225.7995 -8.21219,-324.3872 2.7823,-15.2575 7.30531,-40.324 10.05116,-55.7035 7.06031,-39.5447 7.02905,-39.4765 18.07184,-39.4765 7.57501,0 9.64743,1.4685 9.64743,6.836 0,7.1903 -11.38602,74.0789 -16.53084,97.1124 -1.65614,7.4147 -5.40767,41.1973 -8.33667,75.0723 -4.4314,51.2505 -4.70366,70.1576 -1.62171,112.6147 4.12949,56.8873 10.83348,101.2095 18.39564,121.6191 4.73381,12.7762 4.55657,15.1618 -3.08583,41.5342 -4.45951,15.3888 -14.07594,56.6609 -21.3699,91.7161 -7.29396,35.0549 -16.36917,77.7998 -20.16709,94.9887 -17.71683,80.183 -26.11004,127.4527 -31.25052,175.9994 -3.23861,30.585 -8.76804,62.9714 -13.19906,77.3082 -27.6943,140.9225 -227.08384,470.4059 -174.57724,497.2925 21.22374,6.7807 122.42009,-13.6002 178.17186,-16.9416 108.07025,-6.4768 216.20424,20.471 243.15922,-19.8194 144.87171,-306.8618 180.49021,-418.809 275.20951,-620.7256 10.3049,-22.2267 21.6199,-45.238 25.1445,-51.1367 9.8298,-16.4497 37.3944,-76.8714 93.4388,-204.8176 33.5037,-76.4873 36.0884,-80.3968 45.5862,-68.9526 5.1396,6.1928 3.1646,12.7911 -18.1783,60.7284 -57.2957,128.6901 -53.2366,116.5177 -47.9318,143.7385 7.0207,36.0256 33.5902,99.9431 48.5249,116.7354 6.0215,6.7703 3.9867,14.2923 -10.6983,39.5484 -5.9968,10.3135 -16.0324,30.2986 -22.3015,44.411 -6.2689,14.1125 -26.9565,57.487 -45.9721,96.3879 -47.2809,96.7236 -68.9247,133.2676 -69.1216,154.0179 -0.2772,29.2298 10.265,57.5872 23.9954,64.6873 28.3345,14.6523 157.2967,31.1262 227.107,29.0112 63.2728,-1.917 90.3695,-13.1326 117.6325,-48.689 18.2128,-23.753 119.2143,-185.6791 146.7152,-235.2143 8.5382,-15.3793 18.7994,-33.23 22.8025,-39.668 4.0033,-6.4379 11.5997,-19.021 16.8811,-27.9625 23.0963,-39.1034 45.8032,-75.6 47.9792,-77.1168 6.3703,-4.4398 38.9374,-85.1993 48.1494,-119.4001 7.4817,-27.7765 6.6146,-85.7894 -1.8197,-121.7539 -3.477,-14.8265 -9.4687,-41.0207 -13.3151,-58.2096 -3.846,-17.1886 -9.8241,-43.095 -13.2843,-57.5698 -16.4481,-68.8048 -22.7581,-138.0574 -22.9587,-251.9754 -0.065,-37.0477 0.6106,-42.0526 6.384,-47.2773 3.5512,-3.2139 8.7326,-4.9702 11.514,-3.9029 4.2902,1.6464 5.1106,11.5587 5.4099,65.3709 0.7349,132.1286 4.2093,161.3908 34.0921,287.1303 23.2388,97.7825 26.5346,124.4538 20.781,168.1766 -4.9386,37.5298 -30.0305,103.23 -57.0124,149.2804 -4.7707,8.1421 -19.0846,32.5681 -31.8088,54.2803 -12.7241,21.7119 -30.9306,52.7999 -40.4589,69.0839 -49.075,83.8706 -69.7013,118.3811 -90.4452,151.3266 -12.5317,19.9027 -28.8173,45.8944 -36.19,57.7593 -19.0033,30.5813 -55.583,75.5546 -68.5495,84.2791 -6.0483,4.0694 -19.3717,10.7849 -29.6075,14.9231 -17.601,7.1158 -22.894,7.5226 -97.5637,7.4997 -80.8862,-0.025 -100.8931,-2.0803 -171.0649,-17.5731 -43.0452,-9.5038 -78.7586,-59.1682 -86.7792,-92.3376 -7.4135,-30.6599 19.6505,-39.1393 84.2885,-171.3352 43.5918,-89.1523 60.0606,-126.2453 60.0606,-135.2753 0,-3.5165 2.1878,-11.6294 4.8616,-18.0289 4.69,-11.2248 4.4582,-12.4366 -6.569,-34.3333 -13.9656,-27.7323 -26.101,-59.6084 -29.3322,-77.0471 l -2.4128,-13.0219 -9.402,21.2461 c -22.1884,50.1394 -50.6718,153.6331 -65.2787,174.8271 -60.7299,95.8356 -80.3465,215.6328 -137.4402,311.3522 -4.6475,7.2373 -96.12945,195.9848 -110.28807,218.6015 -14.1586,22.6167 -28.83031,43.6803 -32.60378,46.8077 -10.3925,8.6135 -121.432,29.5754 -140.05741,35.6126 -46.25027,14.9915 -221.07486,20.663 -266.87075,8.6576 z"
       id="path4245"
       inkscape:connector-curvature="0"
       sodipodi:nodetypes="ccssssssssssssssssssccscccsssssscsssssscscsscssccsssssssscssssssscscsccscsc"
       transform="matrix(0.89628481,0,0,-0.89628481,50.431337,3346.9467)" /><path
       style="opacity:1;fill:#d35f5f;fill-opacity:1;fill-rule:nonzero;stroke:none;stroke-width:5.9000001;stroke-miterlimit:4;stroke-dasharray:none;stroke-opacity:1"
       d="m 503.16858,216.39471 c -6.69406,21.09111 11.51044,73.89322 70.1395,203.43936 78.04073,172.43793 92.46787,214.15829 103.91526,300.50198 3.45967,26.09499 8.89938,61.67909 12.08824,79.07579 7.21811,39.378 47.39561,226.31616 54.36349,252.94276 4.46654,17.0682 4.22965,23.5207 -1.79138,48.7927 -11.66963,48.9808 -16.78159,129.9881 -11.77318,186.5647 3.73641,42.2077 19.81744,153.1191 22.85822,157.654 0.54829,0.8177 21.69581,-1.7595 46.99451,-5.7271 l 45.99763,-7.2138 28.99419,-59.5104 c 15.9468,-32.7307 39.77158,-78.1921 52.94394,-101.0252 13.17241,-22.8331 26.87592,-50.4108 30.45237,-61.2837 3.57635,-10.8729 8.81263,-22.4377 11.63619,-25.6997 2.82348,-3.2618 7.91205,-21.9434 11.3078,-41.5147 11.89343,-68.5471 28.11314,-118.4422 50.84184,-156.40026 14.332,-23.935 34.4444,-37.5698 61.4498,-41.6587 14.9248,-2.2597 18.4243,-1.2825 27.8928,7.7888 7.6078,7.2888 15.0805,10.3728 25.1338,10.3728 9.6824,0 18.3031,3.3625 26.6697,10.4025 8.9762,7.553 17.1829,10.5314 29.9598,10.8729 9.6784,0.2586 17.5958,0.2325 17.5942,-0.057 -0.016,-2.6847 -60.9638,-135.3457 -84.2236,-183.3229 -16.3411,-33.7061 -62.6193,-137.78955 -102.8403,-231.2967 -40.22108,-93.50706 -89.9475,-206.48654 -110.50318,-251.06551 -32.44771,-70.36938 -39.14232,-82.09494 -50.7908,-88.9603 -12.55114,-7.39731 -19.41271,-7.8364 -106.33097,-6.80441 -75.08178,0.89144 -104.89446,-0.43658 -155.33742,-6.91914 -82.7424,-10.63353 -104.25428,-10.62313 -107.64245,0.052 l 0,-2.7e-4 z"
       id="path4248"
       inkscape:connector-curvature="0" /><path
       style="opacity:1;fill:#d35f5f;fill-opacity:1;fill-rule:nonzero;stroke:none;stroke-width:5.9000001;stroke-miterlimit:4;stroke-dasharray:none;stroke-opacity:1"
       d="m 1272.2334,420.54545 c -26.925,2.74102 -89.1596,13.05618 -103.718,17.19083 -19.941,5.66336 -34.6646,30.16715 -34.6646,57.69054 0,17.03837 7.084,34.15024 55.5076,134.08143 30.5292,63.00281 60.9129,124.84289 67.5196,137.42239 l 12.0121,22.872 -17.8941,36.4348 c -18.17,36.9971 -30.2779,75.8438 -30.019,96.3126 0.079,6.2099 7.7881,29.0826 17.1322,50.8285 14.8413,34.53886 18.7781,40.39576 31.1366,46.32286 18.2925,8.7731 24.6816,26.8086 21.2596,60.0129 -1.3683,13.2766 -2.9256,28.476 -3.4607,33.7764 -0.746,7.3887 1.3332,10.2066 8.9115,12.0775 9.2732,2.2895 9.8844,4.0219 9.8844,28.016 0,20.8291 -2.3679,30.3839 -12.7593,51.4844 -7.0176,14.2499 -19.1812,34.3194 -27.0301,44.5989 -8.5959,11.2576 -13.3273,21.1489 -11.8981,24.8734 1.3254,3.4541 -2.7909,14.5756 -9.3253,25.1955 -11.3723,18.4823 -37.0718,75.1697 -34.9397,77.069 1.6029,1.4278 75.7778,-5.2659 91.9289,-8.2958 7.7673,-1.4571 15.8743,-5.9229 18.0156,-9.9238 6.1623,-11.5145 28.7996,-15.7687 97.2788,-18.2816 59.7609,-2.193 64.5447,-1.8336 75.122,5.6447 17.1406,12.1188 29.0401,12.9947 106.1876,7.8164 l 71.1681,-4.7769 2.6111,-71.1682 c 3.017,-82.2313 5.3298,-98.2985 29.5723,-205.4408 16.8039,-74.26636 17.8295,-82.08146 16.3647,-124.70056 -1.4762,-42.9534 -2.5376,-47.8742 -19.189,-88.9602 -9.6946,-23.9204 -32.8414,-68.4005 -51.4375,-98.8447 -18.5961,-30.4442 -54.4852,-90.04758 -79.7537,-132.45189 -62.8831,-105.52758 -105.4493,-169.57117 -122.7398,-184.66989 -22.1649,-19.35527 -47.0732,-24.98546 -107.2754,-24.24818 -28.4186,0.34803 -57.8974,1.26672 -65.5084,2.04147 z"
       id="path4250"
       inkscape:connector-curvature="0" /></g><g
     inkscape:groupmode="layer"
     id="layer2"
     inkscape:label="Arme2"
     style="display:inline;opacity:1;filter:url(#filter4226)"><g
       inkscape:groupmode="layer"
       id="layer3"
       inkscape:label="Hände"
       style="display:inline"><path
         style="display:inline;opacity:1;fill:#000000;fill-opacity:1;fill-rule:nonzero;stroke:none;stroke-width:5.9000001;stroke-miterlimit:4;stroke-dasharray:none;stroke-opacity:1"
         d="m 1506.9288,2849.6422 c -10.6218,0.1739 -22.6097,-0.8812 -26.6396,-2.3445 -15.1979,32.5865 -40.9004,25.8458 -55.7584,27.8661 -9.4881,1.2814 -15.1827,3.6143 -18.6605,9.6028 -8.9905,15.481 -19.8045,18.0686 -49.2155,11.7761 -46.4971,-9.9479 -66.5854,-33.6 -97.3055,-114.5676 -22.4231,-59.0998 -36.5248,-143.6769 -40.6303,-182.074 -1.9462,-18.2015 22.5596,-36.0308 25.887,41.3777 4.5429,29.6975 3.9725,40.7397 7.1291,50.2454 1.9716,5.6437 7.2879,23.023 11.8187,38.6191 12.9766,44.7197 42.6583,110.0102 56.0314,123.2505 12.1255,12.0057 46.7131,22.3012 55.8863,16.636 7.4839,-4.6221 7.0736,-6.5275 -3.9749,-18.4456 -24.8099,-26.762 -29.0778,-33.5968 -23.2331,-37.2065 3.1934,-1.9719 13.9535,3.4614 24.7535,12.5 11.7101,9.8005 25.324,16.3971 35.1714,17.0432 47.4014,15.4659 25.5388,-19.1442 20.4553,-25.4977 -2.311,-2.8464 -4.0772,-7.6783 -2.5802,-12.1242 2.1745,-6.458 7.7759,-6.6345 26.6492,1.8836 73.9981,33.3965 91.3459,8.8498 75.9837,-24.0144 -8.4697,-18.1198 -2.2359,-21.2206 21.663,-10.7753 25.4518,11.1237 38.9353,4.7788 45.8247,-21.5639 9.0948,-34.7763 -11.0191,-86.5236 -45.4222,-116.8592 -14.9965,-13.2238 -18.5078,-11.3734 -15.3551,8.0903 1.3537,8.3602 -0.042,16.7461 -3.1008,18.6355 -14.112,8.7158 -27.5578,-46.6966 -17.9099,-73.8115 5.5647,-15.6402 20.702,-25.405 29.2664,-18.8794 4.1975,3.1983 4.7766,9.6356 1.6011,17.7923 l -4.9762,12.7809 19.2062,13.9244 c 25.8893,18.7831 29.8751,23.9845 47.051,27.4237 33.7042,13.6807 -27.1641,-97.0687 -35.2926,-108.8711 -43.2586,-62.4969 -26.8105,-63.7209 1.2076,-28.3506 30.6755,38.7251 59.1281,91.0857 63.4635,125.8875 3.405,27.3318 -4.12,47.3905 -16.8004,44.7851 -13.6482,-2.8038 -15.702,6.4883 -7.6391,34.5579 6.7149,23.3773 6.9398,36.1731 1.0718,60.9962 -7.75,32.785 -21.4013,37.2332 -40.6341,38.6623 -9.6255,0.7153 -13.5461,3.9922 -19.3926,15.1144 -9.7067,18.4654 -22.1617,25.5492 -45.5953,25.933 z"
         id="path4757"
         inkscape:connector-curvature="0"
         sodipodi:nodetypes="cccssssccsssssscccssssssssssccccssssssssc" /><g
         style="display:inline;opacity:1;filter:url(#filter4226)"
         id="g4862"
         transform="matrix(0.95321136,-0.58871535,0.58871535,0.95321136,-442.52201,381.60738)"><path
           sodipodi:nodetypes="sscsssssscsss"
           inkscape:connector-curvature="0"
           id="path4858"
           d="m 490.72279,2672.2586 c -3.58631,-4.2201 -9.92442,-19.8878 -14.87098,-32.8282 l -9.72057,-25.4293 9.71601,-7.5935 c 18.6538,-14.5787 -6.94695,-28.8451 -25.55294,-11.897 -2.33414,2.1262 -4.64141,5.0394 -5.93968,5.429 -4.64682,1.3946 -3.23304,-8.9441 -5.19638,-19.409 -1.58497,-8.4482 -4.10667,-26.6087 -2.58959,-32.6532 2.67349,-10.652 8.84513,-11.5971 44.95644,-12.3601 l 38.90973,-0.8221 -0.41075,58.0188 c -0.34249,48.3754 -11.28697,88.0395 -17.40402,88.0395 -1.75144,0 -8.31095,-4.2749 -11.89727,-8.4949 z"
           style="opacity:1;fill:#ffe6d5;fill-opacity:1;fill-rule:nonzero;stroke:none;stroke-width:5.9000001;stroke-miterlimit:4;stroke-dasharray:none;stroke-opacity:1" /><path
           sodipodi:nodetypes="ssscssscscsssssscssccsccsssccsssss"
           inkscape:connector-curvature="0"
           id="path4860"
           d="m 338.85431,2770.6192 c -7.96206,-4.1823 -22.99473,-19.4995 -32.56065,-33.1771 -8.59258,-12.2858 -17.66425,-22.3346 -20.16284,-22.3346 -0.94289,0 -3.04412,0.9723 -4.6694,2.1608 -2.33939,1.7106 -3.17141,4.9431 -3.99348,15.5155 -1.71178,22.0145 -6.69892,23.6158 -23.40005,7.5137 -12.10095,-11.667 -16.24529,-17.9551 -22.03674,-33.4358 -5.17912,-13.844 -9.56731,-19.9685 -13.86792,-19.3554 -4.75794,0.6784 -5.04427,9.7888 -1.02043,32.4678 1.79976,10.1438 2.84917,19.1278 2.33203,19.9646 -1.85129,2.9954 -9.68765,1.4771 -15.26913,-2.9585 -7.13341,-5.669 -17.2462,-17.7047 -21.63429,-25.7481 -2.97156,-5.4469 -3.36688,-8.4618 -3.25214,-24.8024 0.21849,-31.1158 6.02387,-66.2578 19.07806,-115.4863 6.79376,-25.6199 9.26209,-32.1491 23.14817,-61.231 8.54894,-17.9043 16.81609,-36.5201 18.37145,-41.3686 l 2.82794,-8.8153 11.62614,7.1245 c 21.47263,13.1585 69.82063,35.6377 96.10942,44.6856 14.06763,4.8418 30.55337,11.0821 36.63499,13.8675 30.09799,7.9854 21.36747,6.0525 57.55877,13.9597 12.68331,10.6717 9.69976,43.4441 3.3603,54.1217 -9.70407,16.3447 -15.76683,28.4456 -19.71213,36.1335 -3.41222,10.8119 -4.98346,19.7608 -2.00509,27.1212 0.48274,2.5482 5.63961,2.4396 10.7741,-2.9112 2.02826,-2.1137 8.96876,-23.1664 13.68426,-19.7934 2.94523,2.1067 8.81517,12.5601 10.17327,21.3658 0.97319,6.3099 3.0108,17.0938 3.12865,21.0482 0.0421,32.0802 -7.19183,68.1892 -34.20147,87.0089 -5.44858,3.609 -10.39573,3.002 -15.21117,3.002 -7.94591,0 -12.65912,-3.5664 -24.76607,-18.7403 -12.35934,-15.4901 -17.71676,-15.7255 -20.05935,-0.8812 -1.87065,11.8538 -4.42062,18.396 -8.92657,22.9019 -5.48475,5.4847 -12.97066,5.85 -22.05863,1.0763 z"
           style="opacity:1;fill:#ffe6d5;fill-opacity:1;fill-rule:nonzero;stroke:none;stroke-width:5.9000001;stroke-miterlimit:4;stroke-dasharray:none;stroke-opacity:1" /></g></g><path
       style="opacity:1;fill:#ff0000;fill-opacity:1;fill-rule:nonzero;stroke:none;stroke-width:5.9000001;stroke-miterlimit:4;stroke-dasharray:none;stroke-opacity:1"
       d=""
       id="path4289"
       inkscape:connector-curvature="0" /><path
       style="opacity:1;fill:#000000;fill-opacity:1;fill-rule:nonzero;stroke:none;stroke-width:5.9000001;stroke-miterlimit:4;stroke-dasharray:none;stroke-opacity:1"
       d="m 2110.5802,2525.3342 c -5.8465,-5.8465 23.3839,-50.6639 37.1492,-73.6113 17.7603,-29.6075 35.3283,-56.4861 67.6296,-135.4473 9.181,-22.4429 16.6926,-42.171 16.6926,-43.8401 0,-1.6692 3.3198,-12.9604 7.3774,-25.0916 10.6633,-31.8803 16.6844,-59.4981 12.9717,-59.4981 -2.7606,0 -15.1395,12.2533 -30.268,29.961 -3.1876,3.7311 -8.1177,5.9661 -11.9506,5.418 -12.2439,-1.7508 -9.1731,-10.8623 10.6801,-31.6881 33.006,-34.6231 68.2496,-85.8679 79.7893,-116.0152 3.7837,-9.8846 10.9584,-27.4072 15.9439,-38.9391 13.3791,-30.9462 22.2111,-64.4775 36.9466,-140.2701 0.5861,-3.0147 1.733,-7.7323 2.5487,-10.4838 0.8157,-2.7512 2.1927,-11.4044 3.0598,-19.2291 0.8673,-7.8248 3.2398,-26.6953 5.2723,-41.9345 2.2405,-16.7983 3.738,-64.8566 3.8034,-122.0598 0.1,-87.4201 -0.4107,-96.938 -6.9527,-129.54 -3.8834,-19.3532 -6.2835,-37.2127 -5.3337,-39.6879 2.0889,-5.4438 15.6024,-5.9846 18.8982,-0.7563 5.0403,7.9958 15.1809,68.1172 16.2931,96.5989 2.9536,75.6321 1.1813,147.9658 -5.1739,211.1696 -5.0942,50.6616 -23.544,136.5811 -37.3052,173.7282 -5.1874,14.0031 -11.847,32.347 -14.7988,40.7642 -7.0602,20.1331 -21.4147,48.8622 -32.3684,64.7828 -7.7778,11.305 -13.4732,29.9316 -16.2677,53.2045 -0.4946,4.1186 -1.7233,8.8363 -2.7305,10.4836 -1.0073,1.6475 -4.1443,13.1046 -6.9712,25.4601 -7.3199,31.9945 -9.1971,38.0919 -27.6215,89.7195 -32.6847,91.5875 -113.7226,227.521 -127.8622,229.6475 -3.1583,0.475 -7.4115,-0.8055 -9.4515,-2.8456 z"
       id="path4295"
       inkscape:connector-curvature="0"
       sodipodi:nodetypes="ssssssscssccccssscssssscccsscs" /><path
       style="opacity:1;fill:#000000;fill-opacity:1;fill-rule:nonzero;stroke:none;stroke-width:5.9000001;stroke-miterlimit:4;stroke-dasharray:none;stroke-opacity:1"
       d="m 1226.5416,2605.1862 c -33.1681,-4.3346 -8.7708,-15.0037 -55.0514,-92.7887 -72.1734,-121.3035 -134.6007,-258.3046 -192.00385,-421.3665 -65.31794,-185.5444 -67.42183,-217.058 -26.47874,-396.6069 21.41524,-93.9128 52.79309,-174.8417 113.41309,-292.512 33.7993,-63.1687 40.533,-87.3724 101.7808,-121.2499 179.2647,-99.155 470.2679,-112.8987 470.1278,-101.0228 -2.3276,6.0655 34.9372,18.9358 -9.7332,12.4266 -68.3314,-6.8859 -132.4872,7.0445 -203.4114,22.7258 -90.2457,19.9534 -185.3308,47.331 -247.306,88.2278 -51.9614,34.2888 -74.1111,70.9431 -93.9093,110.2703 -78.3114,155.8182 -110.85728,255.1724 -132.46229,404.3719 -9.25066,63.8832 -9.21004,69.9757 0.74803,112.2745 12.57859,53.4295 68.08126,214.142 105.23976,304.7298 44.9757,109.6447 114.1421,205.1584 151.5583,302.2549 l 17.0162,44.1574 57.0904,-2.5177 c 45.7133,-2.016 167.195,-30.1707 195.0031,-43.9532 26.6255,-13.1965 64.2068,-42.837 64.2068,-57.1643 0,-15.348 -23.364,-40.315 -52.4794,-118.6844 -75.9587,-204.4566 -97.0167,-287.924 -97.3024,-385.6772 -0.1492,-51.0585 19.6368,-138.103 51.3547,-225.923 32.2602,-89.3218 46.4188,-118.1836 57.9771,-118.1836 11.765,0 11.02,7.827 -3.4434,36.1777 -14.4054,28.2368 -49.834,128.1069 -64.7279,182.4619 -21.851,79.7446 -25.6994,118.4478 -17.9974,180.9957 10.8112,87.7975 22.8203,129.1365 95.0512,327.1939 46.8303,128.4089 72.8403,114.328 53.4377,138.9943 -21.865,27.7968 -83.0989,66.6214 -165.9225,84.6883 -101.9242,22.2333 -137.3654,30.1962 -171.7758,25.6994 z"
       id="path4299"
       inkscape:connector-curvature="0"
       sodipodi:nodetypes="sssscsccsscsssscssssssssssssss" /><path
       style="opacity:1;fill:#000000;fill-opacity:1;fill-rule:nonzero;stroke:none;stroke-width:5.9000001;stroke-miterlimit:4;stroke-dasharray:none;stroke-opacity:1"
       d="m 689.24222,3977.8412 c -24.98707,-2.6453 -50.74641,-7.2107 -57.24313,-10.1455 -20.29559,-9.1683 -34.60847,-38.8151 -38.58428,-79.9209 -2.39252,-24.7369 10.96672,-45.0529 2.66723,-54.2057 47.95371,-7.7129 172.71274,0.2259 229.45295,0.3431 158.69742,0.054 219.01471,-8.0445 260.01311,-34.9077 20.2751,-13.2846 44.8692,-13.5492 39.8344,-0.4283 -4.9909,13.0058 1.3615,16.2411 62.6852,31.9251 28.7123,7.3433 64.5509,19.6505 79.6417,27.3491 37.3722,19.066 71.5449,59.2365 71.5449,84.1023 0,39.2899 2.4231,38.982 -313.8397,39.8762 -159.90777,0.452 -311.18541,-1.3423 -336.17238,-3.9877 z"
       id="path4407"
       inkscape:connector-curvature="0"
       sodipodi:nodetypes="sssccsssssss" /><path
       style="opacity:1;fill:#000000;fill-opacity:1;fill-rule:nonzero;stroke:none;stroke-width:5.9000001;stroke-miterlimit:4;stroke-dasharray:none;stroke-opacity:1"
       d="m 1379.5901,3442.5167 c 6.8136,32.2201 19.9704,93.5528 36.3968,130.4556 23.8593,53.6008 26.0446,56.0932 90.1931,103.0221 86.9608,63.6163 155.7259,108.1765 220.9677,143.1829 29.414,15.7834 81.2136,37.4033 115.1074,48.0436 70.7606,22.2143 95.5158,19.0361 124.7513,-16.007 52.1274,-115.1675 -95.7197,-210.0116 -172.1625,-268.1742 -5.4594,-4.2849 -10.8672,-8.6548 -16.0483,-13.2729 -8.605,-1.0757 -17.2483,-2.2 -25.6984,-3.4083 -68.3666,-9.779 -89.5625,34.7178 -195.1297,-4.7191 -32.8801,-12.2833 -68.5543,-13.6115 -88.6561,-22.0832 -36.2155,0.068 -58.2829,-89.5577 -89.7213,-97.0391 z"
       id="path4409"
       inkscape:connector-curvature="0"
       sodipodi:nodetypes="csscsccccsccc" /><g
       transform="matrix(1.25,0,0,-1.25,-1472.2935,4547.89)"
       inkscape:label="P8"
       id="g4234"
       style="fill:#000000"><g
         transform="scale(2448,3264)"
         id="g4236"
         style="fill:#000000" /></g></g><g
     inkscape:groupmode="layer"
     id="layer1"
     inkscape:label="Colorierung"
     style="display:inline;opacity:1"><path
       style="display:inline;opacity:1;fill:#fff6d5;fill-opacity:1;fill-rule:nonzero;stroke:none;stroke-width:5.9000001;stroke-miterlimit:4;stroke-dasharray:none;stroke-opacity:1;filter:url(#filter4682)"
       d="m 1380.2646,2080.8193 c -36.5561,-4.3466 -86.7069,-11.2911 -111.0398,-15.376 l -27.2248,-4.5704 -5.0128,-20.8955 -5.0127,-20.8954 59.3422,-119.513 c 69.1324,-139.23 81.4705,-169.9114 132.6135,-329.7717 48.7605,-152.413 60.3033,-184.5459 64.6887,-180.0794 1.9587,1.9949 12.6628,21.8454 23.787,44.1122 21.7392,43.5146 55.2299,91.381 67.1321,95.9484 4.0302,1.5465 9.178,0.9615 11.4396,-1.3 6.0467,-6.0468 0.241,-20.1146 -16.6399,-40.3197 -8.2129,-9.8302 -21.8215,-29.2295 -30.2413,-43.1095 -28.2479,-46.5667 -62.0621,-132.888 -54.872,-140.0781 1.4502,-1.4502 13.7779,3.6509 27.3948,11.3358 13.6169,7.6849 44.2454,19.6208 68.0634,26.5242 71.1274,20.6157 159.5149,62.1443 159.5149,74.9477 0,2.4518 -5.1636,6.4211 -11.4748,8.8206 -29.1834,11.0955 -125.2757,89.2201 -125.2757,101.8511 0,8.7395 13.5994,2.2582 56.7499,-27.0464 25.0223,-16.9933 47.3036,-29.7792 49.514,-28.4131 20.6806,12.7813 -36.6375,156.3789 -169.8011,425.3985 -35.4149,71.546 -64.3908,132.5875 -64.3908,135.6478 0,3.0603 2.6931,5.5642 5.9846,5.5642 7.4992,0 42.0817,-62.42 103.8698,-187.4806 91.8236,-185.8532 121.7693,-258.4521 141.9171,-344.0563 5.136,-21.8218 11.1925,-43.1409 13.459,-47.3759 5.6002,-10.4641 27.0889,-21.0251 42.7802,-21.0251 17.4266,0 50.579,34.8393 47.2187,49.6214 -1.2416,5.4622 -4.3447,19.8567 -6.8958,31.9878 -10.9423,52.0344 -37.3618,140.1661 -54.9224,183.2135 -28.6335,70.1913 -105.173,237.1049 -121.1129,264.1173 -21.8473,37.0231 -44.3703,83.2701 -44.3703,91.1063 0,22.5926 30.5323,-18.871 70.0288,-95.1006 51.1618,-98.7444 101.698,-221.3446 147.7937,-358.546 14.8528,-44.2086 28.9902,-80.3792 31.4164,-80.3792 2.4262,0 8.7228,8.5427 13.9923,18.9839 15.5854,30.8809 18.4795,33.0294 40.4378,30.0196 l 19.4817,-2.6702 -2.966,18.7407 c -7.6885,48.5799 -67.9119,192.8378 -146.0787,349.914 -35.1029,70.5392 -63.8233,130.5503 -63.8233,133.3581 0,2.8077 -5.2576,6.4246 -11.6836,8.0374 -13.9954,3.5126 -103.5379,-0.9785 -140.0326,-7.0235 -14.2966,-2.3681 -51.335,-5.6434 -82.3075,-7.2785 -53.2877,-2.8132 -56.96,-2.4646 -68.3414,6.488 -6.6152,5.2035 -14.2413,9.1636 -16.9469,8.8 -2.7055,-0.3635 -10.8745,-1.369 -18.1531,-2.2344 z m 229.8291,-73.8614 c 26.5143,-26.5143 17.4599,-59.9938 -16.225,-59.9938 -21.9835,0 -43.7688,20.5392 -43.7688,41.2653 0,35.7345 32.7608,45.9616 59.9938,18.7285 z m 81.4125,-196.8751 c 20.1606,-10.7897 29.2617,-52.919 13.2795,-61.4724 -16.492,-8.8262 -34.0987,-5.3953 -46.2166,9.0059 -26.2296,31.1723 -1.3441,70.8132 32.9371,52.4665 z m 76.2936,-193.278 c 16.3013,-17.0149 22.74,-41.1551 15.1826,-56.9232 -8.3199,-17.3589 -17.1671,-16.8914 -38.2204,2.0199 -23.2521,20.8864 -28.8351,43.5891 -14.295,58.1292 12.6168,12.6169 23.0153,11.7183 37.3328,-3.2259 z"
       id="path5062"
       inkscape:connector-curvature="0"
       transform="matrix(1.120356,0,0,1.120356,63.039171,-103.68341)" /><path
       style="display:inline;opacity:1;fill:#fff6d5;fill-opacity:1;fill-rule:nonzero;stroke:none;stroke-width:5.9000001;stroke-miterlimit:4;stroke-dasharray:none;stroke-opacity:1;filter:url(#filter4682)"
       d="m 1908.6775,1522.0798 c -4.6987,-5.2962 -17.923,-23.0289 -29.3874,-39.4059 l -20.8443,-29.7763 13.6306,0 c 13.5718,0 81.9064,6.5653 118.5468,11.3894 l 19.2432,2.5336 -12.6263,13.4601 c -13.6242,14.5239 -52.1417,40.8296 -69.3807,47.3838 -8.5292,3.2428 -12.3329,2.1354 -19.1819,-5.5847 z"
       id="path5064"
       inkscape:connector-curvature="0"
       transform="matrix(1.120356,0,0,1.120356,63.039171,-103.68341)" /><path
       style="display:inline;opacity:1;fill:#fff6d5;fill-opacity:1;fill-rule:nonzero;stroke:none;stroke-width:5.9000001;stroke-miterlimit:4;stroke-dasharray:none;stroke-opacity:1;filter:url(#filter4682)"
       d="m 1462.7833,1230.9806 c -6.3258,-17.4936 -7.0528,-47.1728 -1.1555,-47.1728 2.2909,0 9.049,4.4664 15.0179,9.9254 10.188,9.3176 10.5407,11.121 5.7601,29.4485 -6.3437,24.3201 -12.7305,26.8585 -19.6225,7.7989 z"
       id="path5068"
       inkscape:connector-curvature="0"
       transform="matrix(1.120356,0,0,1.120356,63.039171,-103.68341)" /><path
       style="display:inline;opacity:1;fill:#ffe6d5;fill-opacity:0.99215686;fill-rule:nonzero;stroke:none;stroke-width:5.9000001;stroke-miterlimit:4;stroke-dasharray:none;stroke-opacity:1;filter:url(#filter4682)"
       d="m 1925.0612,1428.3592 c -32.754,-3.2333 -68.4856,-8.1102 -79.4036,-10.8377 -10.918,-2.7274 -54.5899,-21.9215 -97.0488,-42.6536 -48.2956,-23.5821 -102.669,-45.9984 -145.2313,-59.874 -95.8776,-31.2569 -106.3605,-42.0765 -95.5245,-98.5934 3.9983,-20.8539 0.09,-25.7944 -49.4465,-62.5031 -28.3145,-20.9824 -36.9508,-35.7938 -27.5061,-47.174 12.5932,-15.1739 21.217,-12.3685 47.3856,15.4149 25.015,26.5588 26.0224,27.1159 53.4879,29.5804 l 27.9927,2.5118 29.8638,-31.0717 c 33.5127,-34.8681 38.5638,-46.9041 29.1446,-69.4475 -5.0264,-12.0299 -9.0036,-15.4767 -17.8584,-15.4767 -12.6186,0 -19.4823,11.0423 -11.7006,18.824 8.69,8.69 5.4794,20.3184 -10.4902,37.9949 -20.5306,22.7249 -36.9369,29.2825 -60.7543,24.2833 -16.926,-3.5526 -19.732,-6.1646 -31.1503,-28.9963 -11.7943,-23.5833 -12.5623,-28.5121 -12.7731,-81.9763 -0.2652,-67.23746 6.6379,-94.74633 33.9465,-135.27672 29.7137,-44.09992 63.682,-55.35144 98.1809,-32.5211 9.7122,6.42722 23.4006,12.34129 30.4187,13.14239 19.2188,2.19378 30.4481,27.73193 30.2206,68.72899 l -0.1775,31.98199 37.937,0 c 55.348,0 55.4921,-0.17944 50.0274,-62.27991 -2.4301,-27.61465 -2.8148,-52.06699 -0.8549,-54.33854 2.1973,-2.54681 45.4409,-0.41268 112.8039,5.56703 60.0822,5.33341 115.692,9.67331 123.5773,9.64422 17.1335,-0.0632 16.5341,-8.23335 7.0487,96.07954 -5.2426,57.65491 -5.9807,82.04961 -2.5852,85.44511 7.584,7.5841 39.5218,12.1182 87.0711,12.3614 53.6102,0.2741 111.0448,6.5027 127.0007,13.7727 15.9625,7.273 17.974,16.5756 10.1021,46.7203 -8.0105,30.6753 -15.1293,36.7144 -43.2785,36.7144 -25.644,0 -45.5628,-9.5503 -77.9057,-37.3527 -25.7359,-22.1229 -41.3522,-25.0512 -43.7514,-8.204 -1.0244,7.193 4.5144,14.0236 22.1972,27.3742 33.8932,25.5896 67.0469,39.371 118.8917,49.4211 51.8159,10.0446 55.8023,13.0988 78.9435,60.4841 25.0127,51.2173 16.2664,94.7721 -27.195,135.4251 -24.7061,23.1097 -81.2848,51.5059 -117.8002,59.1225 -30.5064,6.3633 -128.7631,5.3908 -203.8058,-2.0171 z m -405.4895,-389.0218 c 0.193,-1.8196 1.0333,-13.6735 1.8674,-26.3418 1.9352,-29.39051 3.8474,-32.108 22.5942,-32.108 18.5174,0 30.073,5.46731 48.6105,22.9991 14.6929,13.8959 26.308,14.8325 33.9254,2.7357 6.6104,-10.49768 -1.435,-18.50228 -37.8074,-37.61542 -34.0537,-17.89471 -38.8792,-24.21749 -27.8141,-36.44429 10.088,-11.14713 7.311,-28.48524 -4.8399,-30.21793 -11.6422,-1.66014 -36.7906,27.52913 -50.5844,58.71218 -7.6632,17.32413 -8.9384,26.31388 -6.7297,47.44546 1.4988,14.3393 3.8475,27.8877 5.2194,30.1075 2.995,4.846 15.0619,5.4102 15.5586,0.7275 z"
       id="path5072"
       inkscape:connector-curvature="0"
       transform="matrix(1.120356,0,0,1.120356,63.039171,-103.68341)" /><path
       style="display:inline;opacity:1;fill:#ffe6d5;fill-opacity:0.99215686;fill-rule:nonzero;stroke:none;stroke-width:5.9000001;stroke-miterlimit:4;stroke-dasharray:none;stroke-opacity:1;filter:url(#filter4682)"
       d="m 2172.0944,839.63559 c -59.4424,-6.83354 -144.8012,-14.60775 -189.6862,-17.27601 -134.2983,-7.98356 -211.648,-13.7535 -218.2291,-16.27891 -10.1874,-3.90926 -19.6659,-67.06458 -19.7778,-131.779 -0.077,-44.24885 3.4437,-55.68744 13.4195,-43.60499 24.4705,29.63797 198.2139,62.34776 272.3205,51.2684 27.8168,-4.15876 42.4936,-3.36863 105.8714,5.69969 40.4678,5.79028 90.4511,11.79367 111.074,13.34088 27.7521,2.08208 43.5545,5.85596 60.8097,14.52242 l 23.3135,11.7093 -2.6821,17.64523 c -4.8716,32.05009 -5.6345,33.08481 -24.3914,33.08481 -14.5385,0 -17.348,1.46203 -17.348,9.02779 0,5.29841 5.1981,12.01107 12.5831,16.24947 11.7439,6.74007 12.3265,8.36324 8.7369,24.33958 -2.1154,9.41485 -2.6979,18.97585 -1.2944,21.24666 3.6538,5.91202 -13.4787,4.74264 -134.7196,-9.19532 z m 33.152,-48.64594 c 3.828,-12.06082 -3.4318,-19.87308 -26.7394,-28.77433 -17.1388,-6.54537 -25.0711,-6.79948 -69.1306,-2.21456 -74.0317,7.70388 -112.6427,13.99017 -120.2944,19.58523 -5.2053,3.80623 9.7548,5.0824 62.7233,5.35064 48.4655,0.24545 77.5854,2.47499 96.0269,7.35227 38.2563,10.11774 53.903,9.76366 57.4142,-1.29925 z"
       id="path5074"
       inkscape:connector-curvature="0"
       transform="matrix(1.120356,0,0,1.120356,63.039171,-103.68341)" /><path
       style="display:inline;opacity:1;fill:#ffe6d5;fill-opacity:0.99215686;fill-rule:nonzero;stroke:none;stroke-width:5.9000001;stroke-miterlimit:4;stroke-dasharray:none;stroke-opacity:1;filter:url(#filter4682)"
       d="m 2076.2893,1012.8893 -45.0751,-1.4281 1.9253,-11.97831 c 1.0589,-6.58808 4.2081,-39.76957 6.9982,-73.73665 2.79,-33.96707 5.6841,-62.82073 6.4312,-64.11924 0.7471,-1.29851 32.7699,0.71334 71.1617,4.47077 l 69.8034,6.83171 -0.4885,13.17446 c -0.2687,7.24595 -2.9977,39.47688 -6.0643,71.62429 l -5.5758,58.44987 -27.0205,-0.9304 c -14.8613,-0.5117 -47.3043,-1.5729 -72.0956,-2.3584 z m 63.9444,-47.69142 c 12.477,-8.73923 12.9702,-29.66869 0.9816,-41.65729 -16.221,-16.221 -55.1264,-8.17822 -60.3081,12.46731 -6.743,26.86661 34.0136,46.91982 59.3265,29.18998 z"
       id="path5076"
       inkscape:connector-curvature="0"
       transform="matrix(1.120356,0,0,1.120356,63.039171,-103.68341)" /><path
       style="display:inline;opacity:1;fill:#ffe6d5;fill-opacity:0.99215686;fill-rule:nonzero;stroke:none;stroke-width:5.9000001;stroke-miterlimit:4;stroke-dasharray:none;stroke-opacity:1;filter:url(#filter4682)"
       d="m 2341.9298,1074.9384 c -27.4975,-6.1543 -69.0052,-21.8255 -88.2262,-33.3099 -36.2,-21.6294 -41.9162,-28.6764 -41.8424,-51.58441 0.1333,-41.35251 16.5898,-52.64825 77.1329,-52.94399 62.7637,-0.30659 128.7449,19.35023 150.0863,44.71298 14.593,17.34285 15.2409,49.74682 1.3477,67.40912 -17.9914,22.8724 -61.0154,34.1052 -98.4983,25.7162 z"
       id="path5080"
       inkscape:connector-curvature="0"
       transform="matrix(1.120356,0,0,1.120356,63.039171,-103.68341)" /><path
       style="display:inline;opacity:1;fill:#ffe6d5;fill-opacity:0.99215686;fill-rule:nonzero;stroke:none;stroke-width:5.9000001;stroke-miterlimit:4;stroke-dasharray:none;stroke-opacity:1;filter:url(#filter4682)"
       d="m 2229.4414,907.811 c 0,-20.57241 16.3573,-29.69232 31.982,-17.83144 10.6588,8.09115 9.6695,13.6113 -3.516,19.61902 -15.8038,7.20069 -28.466,6.40555 -28.466,-1.78758 z"
       id="path5078"
       inkscape:connector-curvature="0"
       transform="matrix(1.120356,0,0,1.120356,63.039171,-103.68341)" /><path
       style="display:inline;opacity:1;fill:#b3b3b3;fill-opacity:1;fill-rule:nonzero;stroke:none;stroke-width:5.9000001;stroke-miterlimit:4;stroke-dasharray:none;stroke-opacity:1;filter:url(#filter4682)"
       d="m 1431.0655,1056.0187 c -4.9121,-9.6285 -11.6422,-29.1276 -14.9557,-43.3313 -3.3135,-14.20369 -8.6612,-30.64317 -11.8839,-36.53215 -3.649,-6.66811 -6.5517,-31.71409 -7.6948,-66.39396 l -1.8354,-55.68672 28.2357,-13.34073 c 37.911,-17.91209 74.8232,-28.65012 80.1555,-23.31781 2.6532,2.65315 -2.4398,15.22816 -13.8539,34.20632 -38.4668,63.959 -47.4538,99.66951 -43.3555,172.27555 3.0534,54.0953 -0.1061,60.9469 -14.812,32.1208 z"
       id="path5082"
       inkscape:connector-curvature="0"
       transform="matrix(1.120356,0,0,1.120356,63.039171,-103.68341)" /><path
       style="display:inline;opacity:1;fill:#b3b3b3;fill-opacity:1;fill-rule:nonzero;stroke:none;stroke-width:5.9000001;stroke-miterlimit:4;stroke-dasharray:none;stroke-opacity:1;filter:url(#filter4682)"
       d="m 1685.1084,922.43776 c -0.8058,-3.03277 -3.8223,-15.43958 -6.7032,-27.57067 -7.8575,-33.08686 -18.672,-52.37308 -30.9294,-55.15854 -5.8857,-1.33751 -11.5101,-4.85843 -12.4987,-7.82429 -3.4803,-10.44092 85.5864,-4.32312 96.5407,6.63118 2.3408,2.34075 5.4399,18.37815 6.8869,35.63868 3.5303,42.10945 -3.4098,53.79778 -31.9435,53.79778 -12.1878,0 -20.4549,-2.13489 -21.3528,-5.51414 z"
       id="path5084"
       inkscape:connector-curvature="0"
       transform="matrix(1.120356,0,0,1.120356,63.039171,-103.68341)" /><path
       style="display:inline;opacity:1;fill:#b3b3b3;fill-opacity:1;fill-rule:nonzero;stroke:none;stroke-width:5.9000001;stroke-miterlimit:4;stroke-dasharray:none;stroke-opacity:1;filter:url(#filter4682)"
       d="m 1421.971,808.51141 c -3.1939,-3.1939 -1.1823,-11.76745 4.2856,-18.26577 4.96,-5.89461 6.7643,-6.65161 13.0454,-5.47327 6.2643,1.1752 7.8444,0.52043 11.2363,-4.65633 3.3114,-5.05377 4.0157,-11.56985 4.3736,-40.4633 0.3216,-25.95684 1.3366,-36.88414 4.1211,-44.3649 10.0028,-26.87325 10.379,-29.12134 8.9464,-53.46321 l -1.3941,-23.68685 11.6967,-5.17424 c 15.4262,-6.82408 60.0766,-40.60098 82.5029,-62.41146 24.9818,-24.29576 40.8797,-49.36181 31.3073,-49.36181 -1.4603,0 -13.6189,11.29255 -27.0193,25.09454 -29.4588,30.34182 -48.1118,46.09237 -76.0347,64.20351 -27.0739,17.56042 -29.2909,18.37574 -28.5299,10.4919 0.3212,-3.3273 -0.1312,-10.5161 -1.0053,-15.97509 -1.2866,-8.03432 -0.3163,-13.70768 5.0927,-29.77633 3.6752,-10.91799 6.2985,-17.04614 5.8296,-13.61811 -1.5569,11.3814 2.1439,2.88581 9.4407,-21.67236 4.5465,-15.30173 11.2652,-31.31513 18.1922,-43.35937 12.2411,-21.28425 22.6488,-46.65097 24.9646,-60.84623 1.4651,-8.98124 3.6937,-12.11916 9.2024,-12.95715 4.0254,-0.61235 27.4472,-17.07245 48.62,-34.16869 21.4516,-17.32131 45.5279,-30.30783 78.9688,-42.5949 37.9875,-13.95763 43.6161,-16.47346 69.5131,-31.07015 29.2666,-16.49592 46.1325,-21.54499 52.5546,-15.73306 3.8593,3.49263 4.9697,3.11326 20.4104,-6.97309 17.6421,-11.52443 51.3662,-39.07635 63.6318,-51.98598 4.9905,-5.25249 9.5988,-8.00014 13.4178,-8.00014 7.8187,0 8.7023,1.33676 5.8602,8.86622 -1.3297,3.52275 -1.817,7.00559 -1.0829,7.73965 0.734,0.73405 15.0811,-3.83141 31.8823,-10.14548 16.8013,-6.31407 41.9097,-15.31146 55.7966,-19.9942 l 25.2488,-8.51408 5.6303,5.15876 c 18.3028,16.76987 65.6316,34.71131 169.3074,64.18112 61.7177,17.54322 90.0987,27.19766 116.4798,39.62322 27.6715,13.03337 33.8443,19.16366 48.6304,48.29514 30.7179,60.52055 57.4075,88.19807 127.5613,132.28319 9.6925,6.09084 16.7643,12.04812 16.7643,14.12225 0,4.9325 16.4164,45.58988 41.2529,102.16804 22.8897,52.14316 37.7212,76.57281 73.6494,121.31098 41.6723,51.89086 42.9503,61.05575 7.6991,55.21147 -19.6397,-3.25603 -32.6386,-7.96762 -64.1516,-23.25223 -44.528,-21.59725 -88.3123,-50.90727 -122.8634,-82.24701 -21.5197,-19.51951 -26.0182,-21.2296 -26.0182,-9.89057 0,6.16954 3.2415,12.82409 14.1113,28.96941 4.3699,6.49074 7.9452,13.02388 7.9452,14.5181 0,4.38595 -14.9898,8.12197 -37.82,9.4262 -17.6823,1.01014 -23.8473,0.43502 -36.4849,-3.40353 -29.5321,-8.97008 -55.7296,-30.64467 -97.4824,-80.65239 -36.7362,-43.99925 -52.2573,-56.78842 -56.26,-46.35758 -6.2363,16.25173 33.1553,69.19113 79.1168,106.32694 4.8255,3.89895 7.7755,7.08899 6.5554,7.08899 -3.3655,0 -99.3298,-25.88139 -115.6864,-31.20037 -42.2854,-13.75075 -109.3978,-48.26476 -167.1124,-85.94126 -16.4142,-10.71535 -26.9852,-13.71705 -26.9852,-7.66262 0,4.55075 19.8648,33.38624 33.4301,48.52684 15.73,17.55652 26.8974,24.16702 56.3687,33.36714 13.6924,4.27438 24.8952,8.37837 24.8952,9.12003 0,2.56464 -126.5789,-1.25895 -147.7788,-4.46398 -52.7977,-7.98205 -73.9894,-15.9964 -186.7845,-70.63906 -65.1128,-31.54337 -74.6992,-35.20724 -76.9271,-29.40137 -2.3019,5.99876 3.193,13.1034 31.0481,40.14304 31.2953,30.37914 32.6593,33.16062 36.3516,74.1282 2.0562,22.81441 3.0926,136.51178 1.2444,136.51178 -10.1261,0 -89.731,-7.93074 -112.6213,-11.22003 -76.3756,-10.97508 -151.6925,-6.834 -184.9271,10.16762 -12.1176,6.19897 -11.2659,5.94157 -13.2141,3.99327 z m 664.2093,-304.33682 c 0.3713,-2.60451 -1.862,-10.76309 -4.9627,-18.13017 -6.2762,-14.91159 -7.2883,-24.55593 -2.5769,-24.55593 1.6834,0 9.3756,2.93937 17.0938,6.53194 29.1812,13.58297 58.0844,17.23688 68.9209,8.71288 7.9431,-6.24806 12.2783,-15.22106 10.1194,-20.94533 -0.9537,-2.52874 -5.1177,-9.97282 -9.2533,-16.54241 -9.4039,-14.93834 -15.7241,-29.88809 -20.4357,-48.33801 -4.66,-18.24836 -8.7599,-24.74203 -15.0554,-23.84592 -10.3919,1.47917 -6.5709,24.93483 11.2924,69.31991 3.3837,8.40743 3.9049,11.92381 2.0434,13.78534 -4.3301,4.3301 -21.9064,2.67114 -40.584,-3.83058 -23.157,-8.06103 -36.2887,-15.82888 -51.9414,-30.72531 -8.365,-7.9608 -13.7819,-11.54823 -16.0964,-10.66009 -4.2976,1.64915 -3.1716,9.08463 5.8474,38.61221 3.473,11.37046 6.3145,23.16354 6.3145,26.20686 0,5.17801 -0.5638,5.45764 -8.7821,4.35535 -19.558,-2.6233 -85.6496,-39.90907 -123.5571,-69.70521 -35.5081,-27.91009 -39.7018,-29.7687 -39.7018,-17.59539 0,16.24622 58.526,61.64485 117.3288,91.0119 57.792,28.86226 92.2499,38.51848 93.9862,26.33796 z"
       id="path5088"
       inkscape:connector-curvature="0"
       transform="matrix(1.120356,0,0,1.120356,63.039171,-103.68341)" /><path
       style="display:inline;opacity:1;fill:#fff6d5;fill-opacity:1;fill-rule:nonzero;stroke:none;stroke-width:5.9000001;stroke-miterlimit:4;stroke-dasharray:none;stroke-opacity:1;filter:url(#filter4682)"
       d="m 1783.8993,2086.1279 c 0,-8.7421 11.7964,-24.4698 18.3533,-24.4698 6.0753,0 8.1145,3.3259 8.1145,13.234 0,11.7635 -1.4704,13.2339 -13.2339,13.2339 -7.2786,0 -13.2339,-0.8991 -13.2339,-1.9981 z"
       id="path5070"
       inkscape:connector-curvature="0"
       transform="matrix(1.120356,0,0,1.120356,63.039171,-103.68341)" /><path
       style="display:inline;opacity:1;fill:#fff6d5;fill-opacity:1;fill-rule:nonzero;stroke:none;stroke-width:5.9000001;stroke-miterlimit:4;stroke-dasharray:none;stroke-opacity:1;filter:url(#filter4682)"
       d="m 812.78776,2019.0078 c -6.6167,-1.7592 -6.6768,-4.0909 -0.69745,-27.0589 3.59875,-13.8237 7.07,-25.6777 7.71388,-26.3423 1.2692,-1.3102 20.07511,48.802 20.07511,53.4942 0,3.0815 -15.35017,3.0288 -27.09154,-0.093 z"
       id="path5066"
       inkscape:connector-curvature="0"
       transform="matrix(1.120356,0,0,1.120356,63.039171,-103.68341)" /><path
       style="opacity:1;fill:#fff6d5;fill-opacity:1;fill-rule:nonzero;stroke:none;stroke-width:5.9000001;stroke-miterlimit:4;stroke-dasharray:none;stroke-opacity:1"
       d="m 1224.1066,2575.8804 c -28.5326,-73.8879 -43.0319,-104.3446 -90.0587,-189.1743 -60.0656,-108.3499 -73.7137,-139.4025 -134.8873,-306.9026 -13.85121,-37.9261 -33.63952,-99.3788 -43.59132,-135.3733 -14.28699,-51.6742 -14.07565,-72.4029 1.69347,-166.1031 20.03397,-119.0417 53.08485,-216.8187 116.10605,-343.4853 34.863,-70.0714 52.3141,-93.7449 89.5248,-121.4468 58.8715,-43.8276 154.8404,-77.898 304.4164,-108.0725 63.5088,-12.8119 91.9029,-15.8412 135.0818,-14.4117 l 38.7085,1.2816 14.4206,10.6426 c 7.9314,5.8534 14.7757,10.8572 15.2096,11.1193 0.4341,0.2622 -0.6336,2.7549 -2.3725,5.5393 -2.53,4.0511 -2.5642,7.955 -0.1713,19.5406 1.6448,7.9629 2.9904,19.6228 2.9904,25.911 0,12.5799 -43.9865,189.8791 -59.3158,239.0878 -5.2923,16.989 -24.6312,80.9292 -42.9754,142.0893 -59.6427,198.8512 -98.1019,301.752 -141.7601,379.2908 l -9.0584,16.0881 -1.7155,-9.8844 c -6.9444,-40.0122 -4.5447,-90.651 6.6748,-140.8538 5.8717,-26.274 27.7564,-102.1726 34.5573,-119.8492 1.8303,-4.7569 8.4694,-22.9924 14.7537,-40.5232 6.2842,-17.5308 17.5408,-45.6922 25.0147,-62.5808 7.4738,-16.8886 12.9807,-32.2912 12.2374,-34.2281 -2.3193,-6.044 -13.1053,-4.1167 -18.323,3.2739 -18.2986,25.9196 -60.7004,140.6025 -79.2591,214.3695 -14.8236,58.9214 -18.5935,85.4729 -18.4203,129.7338 0.2912,74.3457 13.5155,139.8009 50.5898,250.399 27.3629,81.6275 54.1535,150.5382 76.7584,197.4372 16.3321,33.8849 21.9098,47.8591 20.8261,52.1773 -1.9376,7.7197 -31.5127,35.2308 -49.0859,45.6601 -43.0809,25.5679 -174.6695,52.9297 -263.2722,54.7435 -1.7325,0.036 -4.1162,-2.4375 -5.297,-5.4956 z"
       id="path5139"
       inkscape:connector-curvature="0" /><path
       style="opacity:1;fill:#fff6d5;fill-opacity:1;fill-rule:nonzero;stroke:none;stroke-width:5.9000001;stroke-miterlimit:4;stroke-dasharray:none;stroke-opacity:1"
       d="m 2115.1136,2400.4428 c -1.9836,-121.4365 -5.7287,-215.6193 -9.2893,-233.6068 -2.5097,-12.6784 -2.3668,-13.2938 5.0499,-21.741 8.6538,-9.8561 19.9991,-31.5027 34.3252,-65.492 5.3956,-12.8012 14.4767,-33.2514 20.1801,-45.4447 14.608,-31.2297 34.9422,-82.7817 66.5945,-168.8318 15.0145,-40.8185 33.9048,-89.7879 41.9784,-108.821 16.9781,-40.0245 23.1738,-59.0607 27.0792,-83.2009 1.5392,-9.5137 4.3383,-26.7498 6.2204,-38.3023 5.4886,-33.6905 12.1754,-48.2817 30.2936,-66.1024 8.6362,-8.4945 16.6438,-15.4445 17.7948,-15.4445 1.151,0 4.1995,9.1741 6.7745,20.3868 4.234,18.4364 4.6756,31.1428 4.615,132.8226 -0.074,124.5053 -0.8637,134.2305 -17.3234,213.4039 -11.6117,55.8536 -19.2333,83.7166 -31.1444,113.8587 -24.7085,62.5271 -49.797,103.8239 -90.9222,149.6631 -20.2579,22.5799 -25.8563,30.9385 -23.9861,35.8122 3.1073,8.0976 12.5869,3.7274 30.4901,-14.0563 9.8458,-9.78 18.5522,-17.1311 19.3477,-16.3356 3.3178,3.3178 -18.7599,77.0967 -37.2133,124.3591 -18.3496,46.9965 -42.5081,95.4788 -72.5529,145.6025 -13.8007,23.0237 -25.4419,42.2109 -25.8694,42.6384 -0.4274,0.4274 -1.5265,-45.0981 -2.4424,-101.168 z"
       id="path5141"
       inkscape:connector-curvature="0" /><path
       style="opacity:1;fill:#502d16;fill-opacity:1;fill-rule:nonzero;stroke:none;stroke-width:5.9000001;stroke-miterlimit:4;stroke-dasharray:none;stroke-opacity:1"
       d="m 2080.1472,2360.2621 c -1.3591,-0.4723 -29.7152,-2.08 -63.0136,-3.5727 -62.0034,-2.7795 -116.4746,-6.748 -124.1736,-9.0469 -3.416,-1.0199 -4.3018,-3.9818 -4.2167,-14.0981 0.1193,-14.1659 6.0866,-70.4828 7.6321,-72.0283 2.031,-2.031 169.5527,-3.8768 182.5362,-2.0112 l 13.5912,1.9529 -0.1277,46.094 c -0.1388,50.116 -1.5977,56.4045 -12.2279,52.7103 z"
       id="path5143"
       inkscape:connector-curvature="0" /><path
       style="opacity:1;fill:#502d16;fill-opacity:1;fill-rule:nonzero;stroke:none;stroke-width:5.9000001;stroke-miterlimit:4;stroke-dasharray:none;stroke-opacity:1"
       d="m 1563.6835,2339.0226 c -14.9502,-1.1076 -34.8036,-2.8948 -44.1185,-3.9715 l -16.936,-1.958 -16.9433,-48.0794 c -9.3187,-26.4436 -16.5384,-48.4842 -16.0436,-48.9789 0.4947,-0.4949 24.6365,1.949 53.6482,5.4306 76.7693,9.2129 77.064,9.24 101.0145,9.3159 13.6599,0.044 23.565,1.2466 26.216,3.1851 5.23,3.8242 5.156,20.11 -0.2644,58.1222 -2.0349,14.2707 -3.7203,26.7808 -3.7452,27.8002 -0.056,2.306 -46.5724,1.8195 -82.8277,-0.8662 z"
       id="path5145"
       inkscape:connector-curvature="0" /><path
       style="opacity:1;fill:#502d16;fill-opacity:1;fill-rule:nonzero;stroke:none;stroke-width:5.9000001;stroke-miterlimit:4;stroke-dasharray:none;stroke-opacity:1"
       d="m 993.45867,2257.8351 c -24.13221,-3.7012 -44.47685,-7.3296 -45.2103,-8.0631 -1.19646,-1.1964 12.66513,-68.8649 14.28419,-69.7315 0.36812,-0.1971 12.44121,1.1912 26.82909,3.085 l 26.15975,3.4432 3.1895,9.0132 c 1.7543,4.9572 8.6084,22.061 15.2315,38.0085 6.6231,15.9474 12.0419,29.5694 12.0419,30.2711 0,1.8663 -4.2306,1.3809 -52.52563,-6.0264 z"
       id="path5147"
       inkscape:connector-curvature="0" /></g></svg>