<?xml version="1.0" encoding="UTF-8" standalone="no"?>
<!-- Created with Inkscape (http://www.inkscape.org/) -->

<svg
   xmlns:dc="http://purl.org/dc/elements/1.1/"
   xmlns:cc="http://creativecommons.org/ns#"
   xmlns:rdf="http://www.w3.org/1999/02/22-rdf-syntax-ns#"
   xmlns:svg="http://www.w3.org/2000/svg"
   xmlns="http://www.w3.org/2000/svg"
   xmlns:sodipodi="http://sodipodi.sourceforge.net/DTD/sodipodi-0.dtd"
   xmlns:inkscape="http://www.inkscape.org/namespaces/inkscape"
   id="svg4155"
   version="1.1"
   inkscape:version="0.91 r13725"
   xml:space="preserve"
   width="3060"
   height="4080"
   viewBox="0 0 3060 4080"
   sodipodi:docname="SuperTeacher1_v3.svg"><metadata
     id="metadata4161"><rdf:RDF><cc:Work
         rdf:about=""><dc:format>image/svg+xml</dc:format><dc:type
           rdf:resource="http://purl.org/dc/dcmitype/StillImage" /><dc:title></dc:title></cc:Work></rdf:RDF></metadata><defs
     id="defs4159"><clipPath
       clipPathUnits="userSpaceOnUse"
       id="clipPath4171"><path
         d="m 0,0 2448,0 0,3264 L 0,3264 0,0 Z"
         id="path4173"
         inkscape:connector-curvature="0" /></clipPath></defs><sodipodi:namedview
     pagecolor="#ffffff"
     bordercolor="#666666"
     borderopacity="1"
     objecttolerance="10"
     gridtolerance="10"
     guidetolerance="10"
     inkscape:pageopacity="0"
     inkscape:pageshadow="2"
     inkscape:window-width="1440"
     inkscape:window-height="856"
     id="namedview4157"
     showgrid="false"
     showguides="false"
     inkscape:zoom="0.2280766"
     inkscape:cx="1721.7547"
     inkscape:cy="2023.2747"
     inkscape:window-x="0"
     inkscape:window-y="0"
     inkscape:window-maximized="0"
     inkscape:current-layer="g4163" /><g
     id="g4163"
     inkscape:groupmode="layer"
     inkscape:label="Grund"
     transform="matrix(1.25,0,0,-1.25,0,4080)"
     style="display:inline"><g
       id="g4165"
       style="fill:#000000;stroke:#000000;stroke-width:0.80000001;stroke-miterlimit:4;stroke-dasharray:none;stroke-opacity:1" /><path
       style="opacity:1;fill:#000000;fill-opacity:1;fill-rule:nonzero;stroke:#000000;stroke-width:1;stroke-miterlimit:4;stroke-dasharray:none;stroke-opacity:1"
       d="m 1593.1875,501.95117 c -3.7819,0.0279 -13.6729,7.86785 -27.4199,24.28711 -14.526,17.34963 -43.3202,42.83452 -63.9864,56.63477 -41.3681,27.62462 -43.6874,28.60229 -41.1796,17.34179 2.9682,-13.32887 -14.6344,-48.05468 -24.3594,-48.05468 -6.7825,0 -8.0929,3.74554 -4.8809,13.95117 12.4838,39.66537 25.4447,110.45794 21.416,116.97656 -3.2112,5.19575 -12.5991,0.59572 -31.0976,-15.23828 -44.7558,-38.30925 -60.526,-25.96444 -18.6934,14.63281 23.2752,22.58788 36.8073,54.70644 28.625,67.94531 -6.0507,9.7905 -14.3805,7.54743 -18.3437,-4.93945 -4.1504,-13.07687 -41.0529,-52.38448 -45.2442,-48.19336 -3.5361,3.536 18.1812,40.88281 23.7735,40.88281 8.0216,0 19.3669,37.18666 15.7461,51.61329 -3.579,10.82987 4.9028,16.33175 -8.791,27.71875 -18.902,15.71775 -62.691,36.69493 -82.1543,44.67968 l 9.2109,23.27539 c 10.9577,-4.6005 24.6587,-10.89793 41.4648,-19.02343 4.9352,-2.38609 9.7213,-4.67742 14.3965,-6.89649 -1.6356,11.19698 -2.8574,37.91257 -2.8574,46.19141 0,19.70425 -10.547,30.5074 -15.9746,16.36328 -1.917,-4.9955 -8.8742,-10.49089 -15.459,-12.21289 -19.8057,-5.17938 -14.2947,15.52931 9.5977,36.07031 16.4772,14.16588 21.5986,23.40505 21.7011,39.13867 0.074,11.32725 4.122,24.5829 8.9961,29.457 14.1619,14.1619 30.7977,77.9104 21.7852,83.4805 -4.0885,2.5268 -5.5517,7.6381 -3.252,11.3594 2.2999,3.7211 1.2849,12.1789 -2.2558,18.7949 -4.7089,8.7987 -4.3695,12.87 1.2636,15.1582 15.4254,6.2663 -7.7019,14.2283 -62.539,21.5293 -66.9629,8.9155 -228.5758,52.6112 -267.1641,72.2344 -48.3245,24.5744 -138.17993,86.7613 -177.95506,123.1582 -65.71725,60.1359 -154.61895,189.4426 -209.62695,304.9023 -23.23275,48.7645 -46.99024,137.9835 -46.99024,176.4649 0,13.9996 -8.20289,46.9886 -18.22851,73.3086 -10.02563,26.32 -24.35347,72.9671 -31.83985,103.6601 -7.48637,30.693 -18.05164,71.1513 -23.47851,89.9082 -5.427,18.7569 -10.33525,38.2888 -10.90625,43.4043 -0.57088,5.1155 -1.54655,10.6971 -2.16992,12.4024 -0.6235,1.7051 -2.13882,7.2848 -3.36719,12.4004 -18.00825,74.9953 -24.15824,104.0549 -31.16211,147.2363 -4.56088,28.1197 -9.78422,53.5375 -11.60547,56.4844 -5.21575,8.4392 77.32472,54.6799 124.29297,69.6308 23.41212,7.4525 46.05548,16.306 50.31836,19.6738 6.07325,112.9909 85.44066,238.3956 115.81055,316.0606 -4.96013,15.628 -50.66479,71.8625 -101.41016,124.7773 -22.41413,23.3725 -40.1115,44.828 -39.32813,47.6778 0.78325,2.8498 -3.40203,6.7118 -9.30078,8.584 -7.41112,2.3515 -10.54462,9.5397 -10.14062,23.2597 0.3215,10.9205 -4.81494,33.9727 -11.41406,51.2285 -6.59913,17.2558 -15.69492,42.8936 -20.21289,56.9727 -4.51802,14.0791 -10.90722,30.8222 -14.19922,37.2051 -12.63225,24.4929 -32.26563,68.9611 -32.26563,73.08 0,2.3713 -5.97451,17.4119 -13.27539,33.4239 -40.19887,88.1626 -60.92111,148.1331 -61.05273,176.6855 -0.0439,9.5477 -3.92807,24.8944 -8.63282,34.1035 -4.70487,9.2091 -10.5072,25.8064 -12.89257,36.8828 -3.71138,17.2344 -1.58217,22.8926 14.75586,39.2305 10.50037,10.5005 19.09179,23.8787 19.09179,29.7305 0,5.8518 18.83377,30.503 41.85352,54.7793 38.92837,41.0534 45.10575,45.0701 88.35937,57.4648 25.5775,7.3295 67.43032,19.8764 93.00782,27.8809 45.29537,14.1754 119.95656,29.4604 195.32031,39.9902 l 0,0 c 54.45725,7.6089 108.58171,7.0439 133.29301,-1.3907 16.2237,-5.5377 25.7849,-15.0003 37.9804,-37.5878 9.438,-17.4804 14.9072,-35.5111 12.9922,-42.834 -4.6026,-17.6002 -43.8473,-54.8127 -73.0547,-69.2715 -37.73204,-18.6788 -83.30857,-54.4893 -83.30857,-65.457 0,-5.7419 9.48169,-13.3091 22.63281,-18.0645 38.44436,-13.9017 82.77736,-71.392 82.77736,-107.3437 0,-15.121 64.0742,-81.3535 169.2402,-174.9375 29.9915,-26.6884 62.9126,-60.705 73.1563,-75.5938 10.2438,-14.8889 20.5827,-27.0172 22.9765,-26.9492 2.3939,0.068 16.0698,24.4829 30.3907,54.2558 14.3207,29.7729 40.3972,79.9774 57.9472,111.5645 17.5499,31.587 36.9684,74.1405 43.1524,94.5645 l 11.2441,37.1347 -26.9707,26.3457 c -32.9476,32.1847 -36.7935,47.7217 -14.5098,58.627 14.7519,7.2191 16.0036,10.5454 13.2286,35.166 -1.6859,14.9561 0.3554,37.56 4.5371,50.2305 6.1885,18.7511 13.3701,25.7084 38.5976,37.3964 30.9319,14.331 31.5589,14.3609 315.4102,14.795 284.1769,0.4342 284.4271,0.4221 296.959,-13.0293 23.5946,-25.3257 9.2882,-66.5981 -32.4825,-93.709 -30.63,-19.8802 -96.0474,-41.4278 -125.7773,-41.4278 -20.4685,0 -32.9563,-8.3693 -22.3066,-14.9511 3.0321,-1.874 5.764,-15.8903 6.0703,-31.1485 0.3063,-15.2582 17.225,-127.6226 37.5957,-249.6972 20.3707,-122.0746 40.1986,-256.6433 44.0625,-299.043 3.8638,-42.3996 10.8424,-84.4747 15.5097,-93.5 8.0163,-15.5019 5.1346,-23.2456 -52.0957,-139.9316 -33.3205,-67.9368 -74.302,-145.8442 -91.0703,-173.127 l -30.4883,-49.6035 -3.5586,-201.5195 c -1.9575,-110.8358 -5.898,-206.8062 -8.7578,-213.2676 -3.7286,-8.4244 -2.0437,-14.0566 5.959,-19.9082 10.1578,-7.4275 15.6331,-1.0859 60.9922,70.6523 27.408,43.3475 61.7686,103.9262 76.3555,134.6192 12.7045,26.7323 20.5673,42.0606 23.9609,46.1191 5.3998,36.1533 108.9073,247.2714 128.9258,270.1113 11.9561,13.6414 26.9185,30.8602 33.248,38.2637 10.6873,12.501 14.3536,13.0499 51.4082,7.6816 52.4725,-7.6018 88.34,-24.6924 178.2579,-84.9335 77.3217,-51.8023 102.7931,-79.1632 95.7793,-102.8848 -6.8219,-23.0723 -106.04,-209.1863 -144.9375,-271.875 -37.8709,-61.034 -49.5416,-70.8896 -76.0586,-64.2344 -21.06,5.2859 -24.5617,-5.8816 -9.7266,-31.0254 16.7109,-28.3229 16.2621,-45.9132 -2.0996,-82.1484 -8.2468,-16.274 -17.0342,-40.5958 -19.5274,-54.0488 -2.493,-13.453 -31.9124,-78.0213 -65.3769,-143.4844 -33.4645,-65.463 -64.9427,-132.4296 -69.9512,-148.8145 -22.459,-73.4738 -34.7715,-115.9131 -34.7715,-119.8574 0,-2.3486 21.6247,-5.7952 48.0547,-7.6582 71.3953,-5.0325 114.8334,-23.7778 160.2305,-69.1484 45.466,-45.4394 58.6328,-82.9157 46.3164,-131.8282 -10.6671,-42.3635 -29.6661,-77.2438 -53.4531,-98.1367 -20.4384,-17.9517 -21.0393,-19.7557 -17.2324,-51.6367 3.579,-29.9724 5.1523,-32.6634 16.9746,-29.0234 32.9848,10.156 102.7466,21.7383 130.8418,21.7246 55.6886,-0.029 96.0434,-38.6849 96.0859,-92.0489 0.019,-22.28135 -3.4819,-30.39066 -20.1289,-46.62691 -11.0836,-10.81012 -26.8833,-23.96434 -35.1113,-29.23047 -13.804,-8.83499 2e-4,6.3e-4 -9.2696,-7.04687 l 12.2207,-64.16211 -201.3144,-19.55859 -158.7129,-17.71289 c -86.974,-9.70613 -228.5564,-10.63457 -286.25,-18.80469 l -25.8262,-3.6582 -6.9668,-40.00977 c -3.8321,-22.00575 -6.4958,-64.00326 -5.9179,-93.32812 0.992,-50.36975 1.6071,-52.60971 11.0917,-40.50196 24.0548,30.70663 213.0192,65.34125 277.5704,50.875 23.4313,-5.251 41.8319,-4.4734 87.1347,3.6836 54.987,9.90062 169.6706,24.33793 162.5137,12.75781 -1.8343,-2.96775 -115.2112,-29.87366 -143.4336,-41.03516 -47.5287,-18.797 -105.6124,-49.78167 -150.5234,-80.29492 -36.0988,-24.52612 -37.3636,-13.3998 -3.3653,29.61133 20.3807,25.78362 30.3613,32.73495 58.9063,41.0332 18.9022,5.495 34.3672,10.83652 34.3672,11.86914 0,1.03263 -35.5768,1.215 -79.0586,0.40625 -96.0924,-1.78737 -131.5498,-11.70203 -244.8106,-68.45703 -43.4458,-21.77075 -82.0272,-39.58398 -85.7363,-39.58398 -14.508,0 -1.3187,22.14934 25.1953,42.30859 34.5025,26.233 38.0995,38.65058 39.3223,135.76758 l 0.9551,75.76367 -43.4043,-3.08789 c -23.8723,-1.69863 -60.1474,-5.777 -80.6094,-9.0625 -68.6869,-11.02875 -157.404,-4.44905 -180.3867,13.37695 -10.3307,8.01263 -15.2976,-0.97256 -8.0371,-14.53906 3.552,-6.63675 10.3391,-10.57661 15.0839,-8.75586 13.3782,5.13363 18.2267,-8.57741 16.1797,-45.75391 -1.2026,-21.84312 1.5321,-40.65628 7.6055,-52.33203 6.4276,-12.3565 8.3012,-26.83968 5.8184,-44.95508 -2.9003,-21.15912 -1.7424,-26.7246 5.5566,-26.7246 13.208,0 85.3953,-56.71229 106.0703,-83.33204 14.6893,-18.91276 18.249,-28.91445 13.9629,-28.88281 z m -95.5547,313.75391 c 3.0772,0.0201 5.2195,0.62969 6.4199,1.83008 3.157,3.157 -3.5651,18.89185 -15.9062,37.23046 -37.1633,55.22438 -52.4774,126.56964 -40.0723,186.68358 8.4426,40.912 -3.6921,47.3971 -19.9433,10.6582 -7.1303,-16.1191 -13.4704,-36.845 -14.0899,-46.0566 -0.6192,-9.21156 -4.6141,-20.43495 -8.8769,-24.94142 -7.3859,-7.808 -11.486,-49.11866 -9.1875,-92.56641 0.622,-11.75803 -1.609,-26.05868 -4.8301,-33.45117 56.014,-26.2095 91.8588,-39.48224 106.4863,-39.38672 z m 157.9395,11.19922 c 21.9347,0.01 54.3877,3.08867 71.4863,8.00976 14.5304,4.18188 19.3686,76.43505 5.875,87.73242 -5.0916,4.263 -18.491,7.75 -29.7754,7.75 -16.9959,0 -20.6019,-2.39404 -21.0137,-13.95117 -0.8292,-23.27037 -20.691,-75.90604 -28.955,-76.73242 -4.263,-0.42625 -10.5408,-1.12453 -13.9512,-1.55078 -3.4104,-0.42625 -6.2012,-3.88964 -6.2012,-7.69727 0,-2.46722 9.3743,-3.56648 22.5352,-3.56054 z m -81.2071,1.79101 c 13.2823,0.18912 25.9048,5.40672 37.1368,15.5293 7.6308,6.877 17.7008,9.98491 25.6347,7.91016 10.9516,-2.86388 14.8221,1.17882 23.9082,24.9707 6.9773,18.27 9.6532,37.24548 7.5078,53.24023 l -3.332,24.85352 31.9629,-0.0859 c 17.5796,-0.0465 38.5688,-1.85255 46.6426,-4.01367 14.468,-3.8725 14.617,-4.71981 10.3847,-58.82031 l -4.2929,-54.89258 36.1191,-0.1582 c 19.8655,-0.0871 78.6773,7.56958 131.2422,10.75586 l 89.6426,5.43359 -16.127,172.82029 c -1.6034,17.1815 43.6363,18.9975 73.3672,19.3965 160.3288,2.8463 167.7917,12.0179 157.3086,56.5703 -8.8075,37.4311 -8.319,38.3842 -31.4199,42.2871 -34.1385,5.7676 -60.6447,-5.5283 -95.1367,-40.5469 -32.7978,-33.2984 -42.732,-11.6314 -42.1465,1.4688 55.8232,51.3355 83.037,60.7817 183.416,76.8125 15.1064,4.5605 46.7777,61.8703 51.4648,93.1269 9.7242,64.8454 -52.5878,128.7505 -150.375,154.2207 -42.2753,11.0116 -98.8109,10.858 -214.2695,-0.584 -91.769,-9.0942 -78.5143,-4.5124 -219.0351,-75.7246 -27.489,-13.9305 -74.3785,-31.4464 -104.1993,-38.9258 -86.8517,-21.7831 -109.905,-46.419 -91.8652,-98.1679 5.3207,-15.2627 3.5718,-19.0603 -16.7266,-36.3418 -12.4672,-10.6141 -32.3851,-25.8321 -44.2636,-33.8184 -27.7108,-18.6307 -30.6671,-36.2864 -7.8321,-46.7754 10.6983,-4.9142 17.9258,-5.5604 19.2071,-1.7168 1.1297,3.3893 11.0604,16.2838 22.0683,28.6543 16.075,18.0647 25.6571,23.1272 48.6836,25.7227 27.6853,3.1205 29.7133,2.1891 59.0488,-27.1465 16.7083,-16.7083 31.8444,-35.9861 33.6368,-42.8398 4.3126,-16.4913 -4.4945,-39.218 -17.0684,-44.043 -10.1796,-3.9064 -24.2842,10.3118 -16.248,16.3789 12.7177,9.6019 6.438,30.7463 -14.6231,49.2383 -18.8762,16.5735 -26.721,19.4811 -48.3008,17.9082 -23.6082,-1.7208 -26.9304,-4.191 -39.7148,-29.543 -11.6251,-23.0535 -13.9512,-37.7561 -13.9512,-88.1816 0,-51.39205 2.3849,-65.90794 15.8184,-96.28319 18.5382,-41.9185 35.7626,-62.2714 62.2636,-73.57227 8.2868,-3.53372 16.4936,-5.23066 24.4629,-5.11719 z m 470.7618,28.95508 145.0839,14.89844 -14.123,144.06247 -144.791,-4.4629 z m 199.7402,24.59375 c 5.0218,-0.0224 11.0136,2.3545 17.6504,7.25195 8.1795,6.03588 10.2116,11.12669 6.082,15.24219 -3.4104,3.39863 -14.0952,8.13005 -23.7422,10.51367 -16.4627,4.06775 -17.4135,3.23944 -15.5,-13.46093 1.4675,-12.80782 7.1402,-19.50952 15.5098,-19.54688 z m 59.1816,4.74805 92.3457,9.80664 -6.8828,24.80469 c -0.8001,6.204 -77.3405,-12.28343 -89.7461,-14.74805 z m -22.3633,49.14062 c 1.3835,-0.009 2.7795,-0.01 4.1875,0 25.5332,0.17811 54.8873,3.51616 79.545,9.83399 63.4632,16.26075 85.5732,34.71659 85.9023,71.707 0.2184,24.5453 -15.5295,43.6964 -45.1621,54.9239 -9.6004,3.6375 -23.5506,6.3918 -31.002,6.1211 -36.0814,-1.3133 -95.0458,-19.6352 -128.4062,-39.9004 -32.8383,-19.9483 -37.0477,-24.7526 -36.9727,-42.21293 0.137,-31.84788 6.1407,-45.62783 23.2852,-53.43945 10.0558,-4.58169 27.8719,-6.89176 48.623,-7.03321 z m -869.5742,229.81059 c 5.6314,-0.06 10.2188,1.2453 15.3106,3.7988 7.9781,4.0012 11.4617,8.2907 7.7402,9.5312 -4.6537,1.5512 -4.9496,8.5929 -0.9453,22.5547 4.1327,14.4098 3.2288,29.6996 -3.1172,52.7012 -4.9165,17.8214 -22.7403,88.2074 -39.6074,156.4141 -64.3548,197.0171 -114.7968,433.8817 -225.7188,569.1152 -14.1272,23.134 -28.3584,47.3627 -31.6269,53.8418 -4.324,8.5711 -10.3315,10.9026 -22.0508,8.5586 -9.8591,-1.9717 -29.728,0.1819 -42.8145,3.7851 3.9274,-10.6493 6.8073,-19.178 7.8008,-23.6132 1.7958,-8.0165 0.1685,-21.375 -3.6172,-29.6836 -5.5663,-12.2169 -4.8935,-17.0948 3.5176,-25.5059 1.6192,-1.4155 29.9297,-24.9946 63.2461,-103.8535 23.1128,-42.9158 46.2618,-99.5217 77.9707,-190.668 14.8001,-25.3371 72.3752,-92.811 52.6641,-120.8672 -10.2078,-10.2076 -54.4752,69.3239 -75.4512,135.5567 -14.5336,45.8906 -80.2721,194.5417 -96.5996,218.4375 -21.888,32.0339 -62.5552,72.1432 -87.3867,86.1875 -12.89867,8.7172 -34.75099,27.7321 -31.25002,41.8711 1.78363,6.8207 4.582,12.4004 6.21875,12.4004 1.63663,0 15.60337,-11.1141 31.03707,-24.6993 15.4337,-13.5853 30.6737,-23.087 33.8672,-21.1132 12.407,7.6678 -17.185,96.9586 -50.1172,151.2226 -15.78088,26.0033 -96.83107,173.1947 -130.59957,237.1738 -21.14975,40.0715 -40.31572,72.395 -42.58984,71.8301 -2.27413,-0.5647 -25.06117,-2.915 -50.63867,-5.2226 -106.6835,-9.6249 -172.41863,-28.9872 -218.98438,-64.5039 -23.605,-18.0042 -25.68356,-21.8443 -23.96094,-44.2383 1.03763,-13.487 8.85397,-55.2148 17.3711,-92.7285 8.51725,-37.5138 22.35843,-100.2947 30.75781,-139.5137 20.41725,-95.3336 18.50623,-91.4985 36.94336,-74.1777 12.0955,11.363 17.04592,12.8642 22.95117,6.9589 5.05788,-5.0578 5.54038,-10.24 1.46875,-15.789 -32.16775,-43.8395 -31.06098,-37.4523 -15.24023,-87.8985 7.95412,-25.3626 16.3565,-46.1152 18.67187,-46.1152 2.31538,0 12.14716,12.5558 21.84766,27.9024 16.49762,26.0998 33.76562,36.7933 33.76562,20.9082 0,-3.8479 -8.64672,-22.1089 -19.21484,-40.5801 -34.845,-60.9027 -29.04636,-135.306 18.75976,-240.7403 23.6595,-52.1797 89.7205,-150.7564 135.48438,-202.1699 110.09712,-123.689 202.22149,-179.167 406.74609,-244.9433 58.404,-18.7832 120.1397,-38.9765 137.1914,-44.875 13.9914,-4.8401 22.9589,-7.1736 30.1992,-7.25 z m 50.1075,18.1093 c 4.2452,-0.027 10.1865,2.7388 17.789,8.3203 9.4169,6.9135 9.6837,10.7585 2.4766,35.6016 -5.115,17.6318 -9.8254,25.0266 -12.8379,20.1524 -8.4815,-16.1394 -11.6717,-26.4064 -14.3574,-40.754 -2.5102,-15.468 -0.1462,-23.2745 6.9297,-23.3203 z m 27.2792,118.2969 c 4.9685,-0.034 14.2053,5.2616 27.9942,14.6192 11.7809,7.9945 39.1113,18.1176 60.7324,22.4941 37.7103,7.6331 137.8899,50.6396 162.918,69.9394 11.393,8.7854 10.49,9.9148 -17.961,22.5 -36.1683,15.999 -124.4376,92.9434 -116.1406,101.2403 3.5041,3.5042 23.5069,-7.6241 51.5156,-28.6621 49.8739,-37.4614 61.2891,-41.4829 61.2891,-21.5938 0,41.7851 -67.6588,202.8042 -174.5234,415.3418 -37.015,73.6171 -67.3008,135.7 -67.3008,137.9629 0,2.2628 4.1349,4.1133 9.1875,4.1133 12.052,0 189.5195,-360.1636 217.625,-441.6621 11.4422,-33.1788 23.9513,-78.4022 27.7988,-100.4961 6.2489,-35.8833 9.236,-41.4916 27.9863,-52.5547 17.268,-10.1884 24.3108,-11.2286 39.7129,-5.8594 18.6342,14.905 37.4051,33.2349 35.7051,47.1114 -3.0989,24.6274 -29.3431,126.1195 -46.1113,178.3242 -9.0735,28.2486 -49.484,120.4557 -95.5,217.9082 -9.8921,20.9496 -17.9844,39.6852 -17.9844,41.6347 0,1.9495 -15.3468,30.1261 -34.1035,62.6153 -18.757,32.4893 -34.1035,63.2806 -34.1035,68.4258 0,20.8428 13.6909,6.4741 45.7324,-48 53.3671,-90.73 140.6565,-298.642 174.918,-416.6309 11.3318,-39.0239 23.1752,-68.5664 27.4882,-68.5664 4.1677,0 12.5536,12.5558 18.6348,27.9023 11.0844,27.972 15.7867,30.4758 41.707,22.2129 10.2958,-3.282 13.9512,-1.9802 13.9512,4.9688 0,18.8863 -17.8074,77.0827 -32.6582,106.7285 -8.3775,16.7235 -20.059,45.7529 -25.959,64.5098 -11.5312,36.6595 -105.9209,232.6438 -134.7148,279.7128 -9.6186,15.7238 -17.4883,34.5574 -17.4883,41.8536 0,12.5558 -2.9399,13.2656 -54.959,13.2656 -30.2275,0 -69.8228,-2.8187 -87.9883,-6.2637 -18.1655,-3.445 -60.471,-7.6717 -94.0136,-9.3926 -50.7339,-2.603 -61.5936,-1.5498 -64.5918,6.2637 -2.2595,5.8881 -10.8767,9.1154 -23.0938,8.6484 -28.5739,-1.0912 -171.5502,-22.1382 -175.2031,-25.791 -4.9344,-4.9343 23.9035,-69.1875 77.4687,-172.6035 62.0028,-119.7056 75.0254,-152.8159 133.8399,-340.3144 26.209,-83.5533 50.1278,-154.4611 53.1543,-157.5743 3.2639,-3.3572 8.0612,1.0659 11.789,10.8711 22.9738,60.4255 72.5483,134.3028 90.1231,134.3028 12.2622,0 8.1052,-19.7953 -7.8125,-37.2032 -24.9559,-27.2915 -50.9273,-71.8816 -72.8086,-125.0039 -19.6649,-47.7414 -25.7372,-67.2331 -16.252,-67.2988 z m 364.4981,147.2109 42.9844,4.0606 c 23.6421,2.2327 58.9608,5.6684 78.4843,7.6348 l 35.4961,3.5742 -10.6933,14.4199 c -5.8823,7.9311 -24.7825,23.0129 -42,33.5137 -17.2174,10.5007 -34.6214,19.0918 -38.6758,19.0918 -4.0545,0 -14.2785,-10.4632 -22.7188,-23.252 -8.4402,-12.7889 -21.5399,-31.306 -29.1113,-41.1484 z m 177.0351,41.5938 c 11.9588,25.9972 19.5495,57.7216 26.461,73.7344 7.7591,17.6402 25.856,69.4383 40.2148,115.1054 32.6389,103.8045 47.2034,136.7748 93.5528,211.7696 42.2883,68.424 47.695,87.6769 32.332,115.1386 -5.939,10.6162 -20.2208,37.1242 -31.7363,58.9063 -11.5155,21.7821 -26.1641,47.0102 -32.5528,56.0625 -6.3888,9.0522 -11.6152,20.9099 -11.6152,26.3516 0,19.5882 16.2992,9.2125 42.8945,-27.3086 14.9008,-20.462 31.0151,-37.2032 35.8106,-37.2032 4.7954,0 16.7754,-4.1664 26.6211,-9.2578 9.8455,-5.0914 21.5641,-7.8479 26.0429,-6.125 10.9453,4.21 57.5933,86.7902 106.7598,188.9981 22.147,46.0395 48.0678,96.8788 57.6016,112.9746 21.2751,35.9187 24.3458,32.1684 -75.6094,92.3047 -91.3339,54.9495 -140.2592,77.9516 -176.7168,83.082 l -27.9023,3.9258 -41.7071,-58.3926 c -22.9381,-32.1165 -52.9332,-77.6084 -66.6562,-101.0918 -12.1208,-20.7417 -53.5003,-114.7998 -63.3653,-133.4922 7e-4,-4.3333 -3.8215,-18.5829 -11.1894,-42.7129 -6.7685,-22.1672 -12.3285,-41.3128 -12.3535,-42.5449 -0.026,-1.232 9.7181,-0.4071 21.6543,1.832 39.2142,7.3568 21.904,-19.7476 -23.1739,-36.2851 -34.3695,-12.609 -47.7205,-29.2694 -73.4453,-91.6524 -10.2305,-24.8092 -24.042,-54.3305 -30.6933,-65.6035 l -12.0938,-20.4961 21.8262,-43.3398 c 12.004,-23.8368 37.4072,-87.1968 56.4531,-140.8008 19.046,-53.604 39.6037,-107.2438 45.6817,-119.1992 6.0781,-11.9554 14.239,-33.5801 18.1367,-48.0547 9.7155,-36.6309 6.4467,-62.6484 19.9414,-94.3848 6.1725,-13.9445 13.8971,-22.0296 18.8261,-22.2402 z m -966.0624,566.5352 c 45.013,10.4236 305.1977,45.2069 330.8945,43.3437 29.5775,-2.1446 29.885,-1.4165 22.4101,53.1191 l -3.9433,28.7676 -44.1563,0 c -24.2862,0 -92.967,-6.7102 -152.623,-14.9121 -123.9469,-17.0408 -172.1579,-22.7308 -189.709,-21.4336 11.032,-24.0972 26.4038,-60.9448 37.127,-88.8847 z m 738.1269,1.3808 c 5.4404,0.1564 9.7578,5.4219 9.7578,15.3399 0,12.4012 -3.0987,15.5 -15.5,15.5 -17.3466,0 -18.2486,-1.8854 -9.084,-19.0098 4.3513,-8.1302 10.0259,-11.9681 14.8262,-11.8301 z m -341.3691,36.0332 c 42.2662,-0.2106 147.7579,6.7079 152.4882,11.2422 6.5997,6.3263 -11.797,24.1836 -30.416,29.5234 -13.844,3.9705 -26.7561,3.3221 -41.7441,-2.0976 -19.632,-7.099 -22.8407,-6.6212 -33.6895,5.0234 -11.8606,12.731 -11.8547,13.0085 0.5352,25.3985 13.8335,13.8335 22.2178,15.7264 28.0273,6.3261 2.1079,-3.4102 16.224,-6.2011 31.3692,-6.2011 l 27.5371,0 0,24.8027 0,24.8027 -32.5547,-0.8164 c -45.1123,-1.1292 -116.5749,-9.8248 -121.4883,-14.7832 -6.0799,-6.1355 -3.6186,-95.9153 2.791,-101.8183 1.0043,-0.9248 7.3908,-1.3538 17.1446,-1.4024 z m 296.2089,11.4082 c 16.1644,0 28.9942,0.3316 34.586,0.9844 l 20.332,2.373 0,45.8262 c 0,39.9598 -1.3874,45.6724 -10.8496,44.6387 -5.9681,-0.652 -46.2077,-2.7445 -89.4199,-4.6504 -43.2123,-1.9058 -80.3546,-5.2638 -82.5391,-7.4629 -2.1845,-2.1994 -2.0779,-20.7365 0.2363,-41.1934 l 4.2071,-37.1933 68.8496,-2.3574 c 18.9334,-0.6473 38.4333,-0.9682 54.5976,-0.9649 z m -736.0468,52.6699 c 4.2944,2.2013 12.4458,4.0351 27.3672,4.6426 19.1803,0.781 135.3992,24.0058 259.7988,32.7793 73.0027,5.1486 106.9609,9.8397 106.9609,14.7735 0,16.2995 20.645,22.5097 85.0957,25.5996 93.3043,4.4731 94.3025,4.3902 112.7149,-9.2227 15.5983,-11.5322 21.3417,-11.8507 106.6621,-5.9355 l 90.1758,6.2519 1.9609,62.6836 c 1.0793,34.476 2.4955,82.2155 3.1465,106.0879 1.3155,48.2386 10.7094,69.8544 123.2422,283.584 l 54.6347,103.7676 -12.8886,18.1015 c -7.0893,9.956 -12.8907,19.7088 -12.8907,21.6739 -41.8793,64.7945 -75.6436,119.3653 -116.2617,181.5156 -7.6734,11.6983 -13.9512,28.5522 -13.9512,37.4551 0,15.4549 0.5288,15.7098 11.668,5.6289 9.9799,-9.0317 39.2596,-51.2325 96.1485,-138.584 19.8057,-30.411 30.5492,-26.6058 26.1367,9.2578 -1.993,16.1991 -8.1004,65.7261 -13.5742,110.0605 -5.4737,44.3343 -19.5402,130.8328 -31.2579,192.2188 -11.7176,61.3861 -24.4604,138.1194 -28.3183,170.5176 -8.3634,70.2332 -16.8202,82.1264 -67.7442,95.2968 -96.471,24.9501 -274.9328,28.7821 -352.0644,7.5586 -48.3795,-13.312 -51.7433,-19.4128 -23.332,-42.334 34.3315,-27.6976 38.1763,-42.4459 20.2988,-77.8652 -8.0955,-16.0391 -26.4821,-57.0646 -40.8594,-91.168 -35.056,-83.1547 -59.1555,-130.4991 -84.3691,-165.7421 l -20.9844,-29.3301 43.543,-82.2813 c 67.8797,-128.2722 139.3257,-271.5941 151.4023,-303.7187 6.0414,-16.0705 9.1925,-33.8893 7.002,-39.5977 -3.6798,-9.5891 -4.9188,-9.5329 -16.2813,0.75 -9.742,8.8165 -22.2066,38.2631 -27.5,64.9668 -2.5585,22.0817 -59.4001,114.8023 -150.3281,287.5449 -32.7662,56.5493 -46.1423,97.7264 -87.6563,137.0918 -19.2991,18.1831 -61.3885,58.5565 -93.5312,89.7207 -32.1428,31.1642 -74.756,69.7904 -94.6953,85.834 -32.139,25.8598 -37.6745,33.7359 -48.7735,69.4004 -6.8861,22.1267 -16.61684,46.4837 -21.62496,54.127 -17.35063,26.4805 -74.23916,45.9337 -194.55078,66.5293 -64.56775,11.0528 -172.87235,11.3155 -248.48047,0.6015 l -46.50391,-6.5898 -1.92773,-23.2559 c -1.3025,-15.7113 2.07875,-28.8828 10.42187,-40.5996 9.2815,-13.0346 11.52455,-23.4944 9.0293,-42.0976 -2.78188,-20.7406 3.1999,-40.2802 36.91016,-120.5567 65.05687,-154.9243 91.23035,-225.1502 103.75585,-278.3847 7.2685,-30.8921 14.59138,-40.7027 86.09375,-115.3575 94.228,-98.3822 95.57007,-102.4808 54.21094,-165.4511 -47.18975,-71.8477 -97.17845,-244.8771 -71.48633,-247.4414 28.89038,-2.8835 43.67274,-3.732 78.30274,-4.4922 l 38.68555,-0.8496 24.70507,-49.1348 c 13.58788,-27.0248 39.79077,-72.3668 58.22852,-100.7598 18.43762,-28.3932 43.93453,-72.5514 56.66015,-98.1289 12.72564,-25.5775 26.48358,-50.6892 30.57418,-55.8047 1.2971,-1.622 3.4987,-5.6502 6.2989,-11.3379 z"
       transform="matrix(0.8,0,0,-0.8,0,3264)"
       id="path4308"
       inkscape:connector-curvature="0"
       sodipodi:nodetypes="ssscssssscssscsccscssssssscscssssssssccssssccsccsssssscsssssssccssssssssscssscsccsssssscssscsccssssscsssssscsscsssssssssccsscccscccccsscssssssssscccsscssscsssssssscsscssscssssssscsscccsccsscscsssccssssssssscssscccsssssssccsccsscsssccsccsscsscssssccsscsccccscccccsssscccsscsscssssssssssssscccscccccccsscssssssssscccssssssssssssssssccsssccscssccsccsssscssccsscsssscssscccscsccsscccsssscccscssccssscssscscscsccccscsscssssccccscscssssccssccscccssssssssssccsscscscccsssscssssssssscssscccc" /><path
       style="opacity:1;fill:#000000;fill-opacity:1;fill-rule:nonzero;stroke:#000000;stroke-width:0.80000001;stroke-miterlimit:4;stroke-dasharray:none;stroke-opacity:1"
       d="m 1719.1906,2629.0413 c -19.118,7.6738 -102.426,11.6341 -119.5031,5.681 -15.2381,-5.3121 -21.3697,-0.3916 -9.2702,7.4393 3.4103,2.2072 36.0563,7.4369 72.5467,11.6216 62.4646,7.1633 67.5018,7.091 86.1007,-1.2359 14.3195,-6.4111 18.9258,-11.0044 16.742,-16.6951 -1.6569,-4.3178 -3.0125,-8.7841 -3.0125,-9.9251 0,-3.8023 -32.0804,-1.511 -43.6036,3.1142 z"
       id="path4310"
       inkscape:connector-curvature="0" /><path
       style="opacity:1;fill:#000000;fill-opacity:1;fill-rule:nonzero;stroke:#000000;stroke-width:0.80000001;stroke-miterlimit:4;stroke-dasharray:none;stroke-opacity:1"
       d="m 1939.72,2591.6465 c -30.2939,11.4443 -129.8378,19.1403 -108.8737,51.9451 54.247,-4.2621 100.0457,-26.1089 134.292,-43.1313 6.7351,-3.0687 11.0679,-7.4853 9.6283,-9.8146 -3.6994,-5.9857 -28.7763,-5.2696 -35.0466,1.0008 z"
       id="path4312"
       inkscape:connector-curvature="0"
       sodipodi:nodetypes="cccsc" /><path
       style="opacity:1;fill:#000000;fill-opacity:1;fill-rule:nonzero;stroke:#000000;stroke-width:0.80000001;stroke-miterlimit:4;stroke-dasharray:none;stroke-opacity:1"
       d="m 2072.8246,2624.5125 c -44.4143,10.3501 -57.204,14.9125 -54.4224,19.4135 1.6076,2.6009 -1.6195,4.729 -7.1711,4.729 -13.4823,0 -38.9687,15.9406 -36.6188,22.9035 2.7593,8.1758 -23.3861,11.8649 -46.8023,6.6036 -26.9838,-6.0628 -67.929,1.8861 -90.4536,17.5604 -48.8611,34.001 -89.4437,80.0762 -89.4437,101.5494 0,12.9834 15.4258,2.6025 37.0691,-24.946 50.1576,-63.8425 81.4056,-83.215 123.9386,-76.8368 12.3917,1.8582 22.5303,5.173 22.5303,7.3662 0,2.1932 -4.6278,9.8708 -10.284,17.0615 -5.6561,7.1907 -9.5625,16.528 -8.6809,20.7497 1.2106,5.7958 5.9977,3.5199 19.5464,-9.2926 41.642,-39.3797 114.6675,-81.0277 150.744,-85.9725 30.7014,-4.2081 29.3859,3.4889 -8.2832,48.4642 -16.8162,20.0777 -35.5867,47.6958 -41.7124,61.3736 -29.6351,66.1713 -100.7986,223.6416 17.1874,14.8715 12.7804,-22.6142 34.9088,-60.4115 51.7543,-82.6208 16.8455,-22.2094 32.7309,-43.1941 35.3009,-46.6327 3.048,-4.0781 2.4056,-8.984 -1.8475,-14.1086 -7.2365,-8.7195 -30.8896,-9.5678 -62.3511,-2.2361 z"
       id="path4314"
       inkscape:connector-curvature="0"
       sodipodi:nodetypes="scssssssssscsssssssss" /><path
       style="opacity:1;fill:#000000;fill-opacity:1;fill-rule:nonzero;stroke:#000000;stroke-width:1;stroke-miterlimit:4;stroke-dasharray:none;stroke-opacity:1"
       d=""
       id="path4316"
       inkscape:connector-curvature="0"
       transform="matrix(0.8,0,0,-0.8,0,3264)" /><path
       style="opacity:1;fill:#000000;fill-opacity:1;fill-rule:nonzero;stroke:#000000;stroke-width:0.80000001;stroke-miterlimit:4;stroke-dasharray:none;stroke-opacity:1"
       d="m 1619.7192,2869.6624 c -52.901,21.3409 -119.8308,68.7508 -119.8308,84.8824 0,10.091 3.371,8.4612 33.8178,-16.3494 31.1709,-25.4008 97.6498,-60.5166 103.4968,-54.6696 2.0519,2.0519 -0.267,14.9865 -5.1531,28.7436 -9.7955,27.58 -7.0991,37.2035 5.8312,20.8116 11.4533,-14.5195 46.8243,-31.4412 65.7203,-31.4412 12.9617,0 14.9854,1.4726 11.9289,8.6808 -18.2251,42.981 -21.2157,60.766 -10.2177,60.766 4.3025,0 8.2936,-7.6288 10.3457,-19.7758 1.8376,-10.8766 8.8403,-27.8792 15.5615,-37.7835 11.5456,-17.0134 11.7564,-18.5205 3.8177,-27.2927 -6.7194,-7.4249 -12.482,-8.6438 -28.7668,-6.0846 -11.2002,1.7602 -25.4562,6.5017 -31.68,10.5368 -15.5976,10.1123 -19.2589,4.0825 -9.6969,-15.9694 11.391,-23.8871 3.6537,-24.7529 -45.1746,-5.055 z"
       id="path4318"
       inkscape:connector-curvature="0" /><path
       style="opacity:1;fill:#000000;fill-opacity:1;fill-rule:nonzero;stroke:#000000;stroke-width:0.80000001;stroke-miterlimit:4;stroke-dasharray:none;stroke-opacity:1"
       d="m 2028.1802,2843.6753 c -8.1848,6.2548 -32.7392,22.3456 -54.5654,35.7575 -52.2836,32.1276 -76.9058,55.4392 -94.5861,89.5514 -7.9995,15.4342 -16.5835,31.884 -19.0754,36.555 -7.1632,13.4269 -54.5127,33.1384 -124.4418,51.8048 -85.5657,22.8403 -145.8663,48.1209 -135.6251,58.3621 4.3932,4.3931 202.3484,-55.1502 235.4175,-70.1296 31.7112,-14.3643 46.9708,-31.3357 71.3497,-79.3538 19.2628,-37.9411 66.455,-80.3498 115.4175,-103.7186 23.822,-11.3698 43.3127,-22.8411 43.3127,-25.4917 0,-8.8242 -22.1221,-4.8623 -37.2036,6.6629 z"
       id="path4320"
       inkscape:connector-curvature="0"
       sodipodi:nodetypes="sssssssssss" /><path
       style="opacity:1;fill:#000000;fill-opacity:1;fill-rule:nonzero;stroke:#000000;stroke-width:0.80000001;stroke-miterlimit:4;stroke-dasharray:none;stroke-opacity:1"
       d="m 1509.4639,3089.4927 c 8.417,15.7274 80.2295,40.3846 116.9169,40.144 18.5212,-0.1214 19.201,-0.6149 10.213,-7.4131 -5.296,-4.0056 -15.3506,-7.2829 -22.3437,-7.2829 -11.0671,0 -42.2,-9.9869 -91.1223,-29.2306 -18.5549,-7.2986 -19.4603,-7.0479 -13.6639,3.7826 z"
       id="path4322"
       inkscape:connector-curvature="0" /><path
       style="opacity:1;fill:#000000;fill-opacity:1;fill-rule:nonzero;stroke:#000000;stroke-width:1;stroke-miterlimit:4;stroke-dasharray:none;stroke-opacity:1"
       d=""
       id="path4324"
       inkscape:connector-curvature="0"
       transform="matrix(0.8,0,0,-0.8,0,3264)" /><path
       style="opacity:1;fill:#000000;fill-opacity:1;fill-rule:nonzero;stroke:#000000;stroke-width:0.80000001;stroke-miterlimit:4;stroke-dasharray:none;stroke-opacity:1"
       d="m 1226.8022,2950.7598 c 9.0704,16.9481 53.1006,45.031 117.8088,75.1394 34.9296,16.2526 71.7367,33.9915 81.7935,39.4197 10.0569,5.4283 21.546,8.6183 25.5315,7.0889 8.8067,-3.3795 30.046,18.0698 43.5181,43.9482 11.6849,22.4453 18.1811,20.8114 15.3022,-3.8488 -1.1505,-9.8544 8.989,-23.7365 7.5273,-22.2749 -1.4616,1.4616 -17.387,6.7811 -20.385,3.2468 -16.346,-19.2694 -69.3669,-59.6172 -71.1831,-54.1687 -2.7392,8.2175 -23.1281,2.8979 -44.5117,-11.6134 -9.1624,-6.2178 -28.2857,-15.1081 -42.4963,-19.7563 -29.7496,-9.7309 -59.0097,-23.7685 -68.7241,-32.9706 -10.7901,-10.221 -42.9873,-33.6464 -46.2456,-33.6464 -1.6421,0 -0.7132,4.2462 2.0644,9.4361 z"
       id="path4326"
       inkscape:connector-curvature="0"
       sodipodi:nodetypes="ssssssccssssss" /><path
       style="opacity:1;fill:#000000;fill-opacity:1;fill-rule:nonzero;stroke:#000000;stroke-width:0.80000001;stroke-miterlimit:4;stroke-dasharray:none;stroke-opacity:1"
       d="m 1163.4284,2797.2829 c -0.8733,0.8891 14.8973,58.5257 16.8297,65.9189 4.3225,16.5526 25.3756,73.1785 28.7859,77.4246 1.3695,1.7052 5.4226,3.0832 9.007,3.0623 3.6332,-0.021 5.2974,-0.8443 3.7609,-1.8602 -1.5158,-1.0022 -3.5069,-6.9208 -4.4248,-13.1524 -2.0169,-13.6943 -12.6216,-36.7305 -25.9317,-56.3305 -5.401,-7.9533 -23.3587,-86.2913 -10.6759,-20.14 -0.4708,-3.1236 -16.4778,-55.8119 -17.3511,-54.9227 z"
       id="path4328"
       inkscape:connector-curvature="0"
       sodipodi:nodetypes="ccccscscc" /><path
       style="opacity:1;fill:#000000;fill-opacity:1;fill-rule:nonzero;stroke:#000000;stroke-width:0.80000001;stroke-miterlimit:4;stroke-dasharray:none;stroke-opacity:1"
       d="m 1203.202,2435.7464 c -1.7049,3.1521 -3.5838,14.7349 -4.1754,25.7395 -0.9516,17.7002 -0.3308,21.5828 5.3801,33.6548 9.0311,19.09 25.3571,41.1792 33.5771,45.4299 6.074,3.141 7.5828,3.1224 12.2569,-0.1515 6.4553,-4.5215 6.8559,-11.7741 0.9899,-17.9231 -6.5444,-6.86 -10.8857,-15.2081 -9.2691,-17.8238 0.792,-1.2815 12.4944,-8.0083 26.0053,-14.9483 38.1434,-19.5929 42.5985,-24.4304 31.7809,-34.5084 -7.9681,-7.4236 -12.1508,-6.3304 -24.4384,6.3872 -13.6279,14.1048 -23.0135,18.3185 -40.8021,18.3185 -12.7499,0 -13.9776,-0.5109 -16.3888,-6.8206 -1.4335,-3.7514 -2.243,-14.6335 -1.7988,-24.1824 0.7558,-16.2487 0.4606,-17.4111 -4.6051,-18.1323 -3.6077,-0.5136 -6.4464,1.1406 -8.5125,4.9605 z"
       id="path4332"
       inkscape:connector-curvature="0" /><path
       style="opacity:1;fill:#000000;fill-opacity:1;fill-rule:nonzero;stroke:#000000;stroke-width:0.80000001;stroke-miterlimit:4;stroke-dasharray:none;stroke-opacity:1"
       d="m 1252.5666,1647.021 c -1.7692,1.0009 -5.3965,4.9909 -8.0608,8.8665 -4.5256,6.5835 -4.8331,7.5948 -4.6774,15.3839 0.2098,10.4909 2.7766,16.1141 11.0898,24.2946 11.7155,11.5285 23.8401,14.6523 35.9973,9.2747 3.2895,-1.4552 6.9463,-3.5194 8.1263,-4.5872 3.0944,-2.8004 6.1614,-17.3409 4.802,-22.7661 -2.9644,-11.831 -3.8711,-13.4323 -10.9084,-19.2676 -12.9437,-10.7328 -28.6463,-15.568 -36.3688,-11.1988 z m 19.6712,24.945 c 5.8413,2.4407 10.2205,6.5264 9.3702,8.7423 -0.3624,0.9443 -2.753,2.3443 -5.3126,3.1112 -3.8159,1.1432 -5.4115,1.0299 -8.8625,-0.6295 -5.4358,-2.6137 -10.244,-9.2412 -8.3555,-11.5167 1.8109,-2.182 7.5428,-2.0546 13.1604,0.2927 z"
       id="path4334"
       inkscape:connector-curvature="0" /><path
       style="opacity:1;fill:#000000;fill-opacity:1;fill-rule:nonzero;stroke:#000000;stroke-width:0.80000001;stroke-miterlimit:4;stroke-dasharray:none;stroke-opacity:1"
       d="m 1330.1906,1814.3291 c -8.3212,3.8611 -10.2132,6.99 -11.1697,18.4725 -0.8216,9.8637 -0.6521,11.0814 2.5304,18.1727 2.87,6.3954 4.5756,8.3784 10.7551,12.505 7.3749,4.9247 14.0385,7.0818 18.051,5.843 9.1183,-2.815 19.4224,-7.1332 20.2911,-8.5036 0.5765,-0.9094 1.0568,-5.4784 1.0672,-10.1531 0.017,-7.4112 -0.5647,-9.6101 -4.5395,-17.1743 -4.9412,-9.403 -9.6753,-14.8303 -15.6161,-17.9024 -5.2702,-2.7254 -16.7521,-3.4022 -21.3695,-1.2598 z m 19.6728,25.1632 c 4.112,4.1119 4.3428,7.9022 0.4792,7.8644 -4.9888,-0.049 -13.3313,-4.5852 -13.3313,-7.2495 0,-4.8622 8.212,-5.2551 12.8521,-0.6149 z"
       id="path4336"
       inkscape:connector-curvature="0" /><path
       style="opacity:1;fill:#000000;fill-opacity:1;fill-rule:nonzero;stroke:#000000;stroke-width:0.80000001;stroke-miterlimit:4;stroke-dasharray:none;stroke-opacity:1"
       d="m 1395.4548,1960.33 c -4.8367,1.9361 -12.4968,8.5887 -14.6224,12.6993 -1.5534,3.0041 -1.8334,6.0469 -1.2791,13.9018 0.8353,11.8372 2.1583,15.165 8.8757,22.3264 6.5272,6.9586 23.6039,17.9561 27.7992,17.9028 4.9501,-0.063 8.8426,-4.1492 10.8627,-11.4039 2.5205,-9.0517 2.2066,-17.2317 -1.0288,-26.8101 -2.3463,-6.9462 -4.0058,-9.3366 -11.1796,-16.104 -4.6335,-4.371 -8.4244,-8.6271 -8.4244,-9.4581 0,-0.831 -1.4214,-2.1585 -3.1587,-2.9501 -3.66,-1.6676 -3.9296,-1.6712 -7.8446,-0.1041 z m 11.4319,29.8603 c 5.1812,3.5397 6.9856,5.8745 6.1743,7.989 -1.0245,2.6698 -5.5336,2.075 -10.6555,-1.4054 -5.0469,-3.4294 -5.8302,-5.9526 -2.4581,-7.9167 2.8428,-1.6557 2.4558,-1.7301 6.9393,1.3331 z"
       id="path4338"
       inkscape:connector-curvature="0" /><path
       style="opacity:1;fill:#000000;fill-opacity:1;fill-rule:nonzero;stroke:#000000;stroke-width:0.80000001;stroke-miterlimit:4;stroke-dasharray:none;stroke-opacity:1"
       d="m 1232.5894,483.38094 c -3.9435,3.94352 -4.5448,6.91704 -2.3656,11.69968 2.4916,5.46856 7.6648,7.18904 30.6787,10.20272 25.5372,3.34416 32.2925,4.48552 84.5469,14.28488 50.068,9.38928 78.7902,14.0672 103.3987,16.84016 l 19.6905,2.2188 2.3216,-2.8672 c 1.277,-1.57688 2.3217,-3.56712 2.3217,-4.42264 0,-2.40248 -4.8009,-7.94448 -8.5712,-9.89408 -4.9321,-2.55056 -40.8893,-11.11496 -64.596,-15.38576 -29.0191,-5.22784 -30.4705,-5.45336 -93.0091,-14.44976 -50.1817,-7.2188 -60.0666,-8.8496 -68.5257,-11.30552 -1.3571,-0.394 -3.5792,0.76744 -5.8905,3.07872 z"
       id="path4340"
       inkscape:connector-curvature="0" /><path
       style="opacity:1;fill:#502d16;fill-opacity:1;fill-rule:nonzero;stroke:none;stroke-width:1;stroke-miterlimit:4;stroke-dasharray:none;stroke-opacity:1"
       d="m 1313.2112,2176.873 c -4.823,-0.7304 -68.9461,-8.7034 -142.496,-17.7176 -73.5498,-9.0143 -134.4394,-16.9168 -135.3101,-17.5613 -0.8707,-0.6444 5.8765,-19.1684 14.9937,-41.1645 14.4538,-34.8709 17.7448,-39.7056 25.6978,-37.7504 16.6608,4.096 200.9541,29.1478 272.1905,37.0001 l 70.1519,7.7328 -0.9956,21.742 c -0.5476,11.9581 -2.1168,28.1543 -3.4871,35.9916 l -2.4914,14.2496 -44.7424,-0.5971 c -24.6083,-0.3284 -48.6884,-1.1947 -53.5113,-1.9252 z"
       id="path4388"
       inkscape:connector-curvature="0"
       transform="matrix(0.8,0,0,-0.8,0,3264)" /><path
       style="opacity:1;fill:#502d16;fill-opacity:1;fill-rule:nonzero;stroke:none;stroke-width:1;stroke-miterlimit:4;stroke-dasharray:none;stroke-opacity:1"
       d="m 1729.7379,2194.1431 c -9.6459,-0.8173 -36.055,-2.701 -58.6871,-4.186 l -41.1491,-2.7 2.9633,-35.5315 c 1.6297,-19.5424 4.0324,-36.6022 5.3391,-37.9107 1.3068,-1.3086 40.1937,-2.3792 86.4153,-2.3792 l 84.0394,0 0,41.6526 0,41.6527 -30.6915,0.444 c -16.8803,0.2443 -38.5835,-0.2246 -48.2294,-1.0419 z"
       id="path4390"
       inkscape:connector-curvature="0"
       transform="matrix(0.8,0,0,-0.8,0,3264)" /><path
       style="opacity:1;fill:#999999;fill-opacity:1;fill-rule:nonzero;stroke:none;stroke-width:1;stroke-miterlimit:4;stroke-dasharray:none;stroke-opacity:1"
       d="m 1690.9059,926.11339 c -2.5605,-1.85971 -7.0609,-14.23291 -10.0008,-27.496 -8.1135,-36.60282 -20.5908,-61.38288 -30.9077,-61.38288 -4.7985,0 -10.1351,-2.28235 -11.8592,-5.07189 -2.3334,-3.77566 6.2847,-4.28665 33.7211,-1.99942 49.308,4.11055 56.5218,6.33195 61.2901,18.87353 5.9021,15.52381 4.9816,59.86389 -1.4159,68.19705 -6.1795,8.0493 -33.7229,14.03971 -40.8276,8.87961 z"
       id="path4419"
       inkscape:connector-curvature="0"
       transform="matrix(0.8,0,0,-0.8,0,3264)" /><path
       style="opacity:1;fill:#999999;fill-opacity:1;fill-rule:nonzero;stroke:none;stroke-width:1;stroke-miterlimit:4;stroke-dasharray:none;stroke-opacity:1"
       d="m 1440.6271,1070.3952 c -8.7981,-9.9914 -21.3755,-42.9124 -25.6792,-67.2142 -1.2619,-7.12591 -4.2138,-16.2094 -6.5598,-20.18555 -7.7452,-13.12711 -9.2996,-23.36975 -10.9397,-72.0861 -0.893,-26.52617 -2.3288,-49.80584 -3.1906,-51.73258 -1.2658,-2.82981 3.8262,-5.85975 26.4908,-15.763 34.0621,-14.88341 65.6866,-25.67487 75.2404,-25.67487 6.7702,0 7.0158,0.29849 5.6916,6.91913 -0.7611,3.80553 -8.7322,19.16758 -17.7136,34.13789 -27.8686,46.45187 -38.1709,79.66035 -40.0159,128.98774 -0.8744,23.38014 -0.2428,36.25944 2.612,53.26034 4.8247,28.7316 2.7129,39.1733 -5.936,29.3512 z"
       id="path4421"
       inkscape:connector-curvature="0"
       transform="matrix(0.8,0,0,-0.8,0,3264)" /><path
       style="opacity:1;fill:#999999;fill-opacity:1;fill-rule:nonzero;stroke:none;stroke-width:1;stroke-miterlimit:4;stroke-dasharray:none;stroke-opacity:1"
       d="m 1421.4033,804.47656 c 0,-10.81762 11.0771,-22.51827 17.538,-18.52522 3.613,2.23297 10.7617,-1.01922 13.5781,-6.17714 1.5676,-2.87088 3.1439,-20.12651 3.9415,-43.1484 1.2019,-34.68896 1.842,-39.41441 6.6809,-49.32553 4.8588,-9.9519 5.3535,-13.66936 5.3732,-40.37126 l 0.022,-29.41006 6.5767,-2.14342 c 17.6514,-5.75278 69.388,-45.50717 95.8999,-73.68948 17.7655,-18.88484 28.0248,-36.06016 23.9649,-40.12012 -3.5116,-3.51153 -10.63,1.9819 -29.1808,22.51948 -8.8813,9.83235 -25.0263,25.35433 -35.8779,34.49332 -19.3489,16.29521 -63.0192,46.51231 -67.2204,46.51231 -1.172,0 -1.52,-1.92452 -0.7734,-4.27669 0.7465,-2.3522 0.2619,-8.34494 -1.077,-13.31724 -2.0606,-7.65219 -1.6967,-11.52538 2.3693,-25.22175 2.642,-8.89966 5.8285,-15.97818 7.081,-15.73002 1.2525,0.24814 5.896,-11.54715 10.3188,-26.21176 4.4229,-14.66464 11.1182,-31.4575 14.8786,-37.31751 10.0193,-15.61379 23.9729,-46.3578 26.7162,-58.86413 3.572,-16.28426 4.4698,-18.55528 7.3358,-18.55528 3.7482,0 23.2081,-13.40321 48.6005,-33.47411 26.6846,-21.09232 40.402,-28.82843 74.5364,-42.03583 14.4688,-5.59834 32.7192,-12.66402 40.5565,-15.70152 7.8373,-3.0375 23.1282,-10.7287 33.9798,-17.09157 31.0639,-18.21439 45.7466,-22.48853 55.7637,-16.23281 3.5533,2.21908 6.118,1.33855 16.9601,-5.82286 19.1447,-12.64539 36.9205,-26.57984 58.273,-45.68011 14.7389,-13.18435 20.2068,-16.84588 23.565,-15.78005 3.4914,1.10816 3.9312,2.21285 2.1822,5.48104 -3.1359,5.85936 -2.7022,10.95815 0.9319,10.95815 1.7175,0 20.7078,-6.54158 42.2008,-14.53683 21.493,-7.99526 46.175,-16.74968 54.849,-19.45427 l 15.7709,-4.91745 5.0555,5.42653 c 13.8901,14.90966 76.2004,38.15889 178.2428,66.50597 60.4769,16.80029 110.6858,35.93693 131.0518,49.94908 7.9605,5.47698 11.8599,11.06598 23.4387,33.59454 32.0891,62.43525 51.4694,83.44359 115.8401,125.57095 16.1834,10.59124 28.911,20.39308 28.911,22.2651 0,6.3286 46.0451,115.2104 62.6076,148.04669 8.2914,16.43834 27.9909,44.78265 50.8274,73.13217 22.2085,27.56988 32.1755,41.70684 34.3885,48.77576 2.4564,7.84644 -6.1529,9.84998 -26.7115,6.21624 -48.6467,-8.59827 -129.0175,-55.11409 -188.7446,-109.23885 -14.459,-13.10279 -21.0349,-15.51261 -23.2537,-8.52172 -1.8495,5.82721 1.8902,14.54345 13.5478,31.57681 11.7523,17.17155 11.4152,18.20044 -7.4148,22.63071 -54.4182,12.80337 -92.376,-8.52617 -160.1612,-89.99911 -24.1092,-28.97748 -40.0925,-43.5712 -46.4105,-42.37554 -5.2845,1.00005 -5.6697,15.19305 -0.7147,26.33157 7.0036,15.74341 30.1136,44.19567 54.7225,67.37273 12.8597,12.11131 22.5884,22.02057 21.6195,22.02057 -4.2985,0 -102.8999,-27.45275 -119.698,-33.3265 -36.6728,-12.82328 -98.4324,-45.03735 -148.8821,-77.6576 -26.5034,-17.13687 -35.2845,-19.89327 -35.2845,-11.0759 0,5.53607 16.2688,30.34153 31.8979,48.63565 14.3892,16.84272 24.7568,23.05362 55.5498,33.27808 l 27.6452,9.17928 -23.0186,0.0605 c -42.6346,0.11203 -114.9353,-3.91337 -135.9192,-7.56745 -40.568,-7.06438 -75.5709,-20.39631 -153.3231,-58.39773 -70.3257,-34.37165 -91.9464,-43.81068 -96.8132,-42.26602 -10.7969,3.42681 0.8695,23.13462 25.1161,42.4282 36.6887,29.1941 38.7009,36.12964 40.6444,140.08772 l 1.3233,70.78128 -14.2496,-1.1924 c -55.0998,-4.61078 -70.6695,-6.24027 -100.8434,-10.55415 -26.9191,-3.84856 -43.7736,-4.83974 -81.1131,-4.77015 -53.5586,0.0997 -77.1682,3.45274 -100.5413,14.2784 -7.6713,3.55304 -14.3302,6.46009 -14.7977,6.46009 -0.4675,0 -0.85,-2.02202 -0.85,-4.49336 z m 666.0093,-300.45529 c 0.3644,-3.1389 -1.8552,-11.40036 -4.9325,-18.35881 -5.6273,-12.72423 -7.2635,-23.0674 -3.6491,-23.0674 1.0703,0 8.2225,2.92149 15.8938,6.49223 38.9042,18.10874 69.6375,17.37997 79.6012,-1.88759 3.9775,-7.69165 2.8747,-11.60885 -8.1509,-28.95337 -8.6463,-13.60168 -18.0723,-36.3404 -20.3501,-49.09151 -1.8134,-10.15101 -5.8603,-18.88113 -10.5609,-22.78232 -2.5506,-2.1168 -4.3762,-2.15296 -8.0993,-0.16043 -7.6182,4.07714 -4.9568,23.56869 7.5989,55.65194 11.1088,28.38625 10.9941,29.67307 -2.65,29.73626 -22.5328,0.10435 -61.7654,-17.82917 -81.6045,-37.30206 -11.3008,-11.09222 -14.053,-12.81933 -16.7978,-10.54135 -4.0389,3.35197 -2.8617,12.21812 4.8732,36.70357 3.0322,9.59858 5.738,21.21849 6.0129,25.82199 0.4628,7.74983 0.094,8.32154 -4.9808,7.71618 -9.1733,-1.09433 -65.4354,-29.85412 -89.8821,-45.94545 -12.6602,-8.33323 -31.4039,-21.8146 -41.6527,-29.95861 -24.0941,-19.14604 -29.3482,-21.96872 -32.908,-17.67944 -4.8999,5.90411 0,15.01157 17.1554,31.90553 30.8056,30.33093 99.2728,70.70754 153.8641,90.73713 26.0966,9.57483 40.1811,9.90406 41.2192,0.96351 z"
       id="path4423"
       inkscape:connector-curvature="0"
       transform="matrix(0.8,0,0,-0.8,0,3264)" /><path
       style="fill:none;fill-rule:evenodd;stroke:#000000;stroke-width:0.80000001px;stroke-linecap:butt;stroke-linejoin:miter;stroke-opacity:1"
       d="m 1860.7784,2576.3274 5.2614,16.6611 2.6307,8.769 2.6306,6.1383 8.7691,37.7066 6.1382,18.4149 0,14.9073 -19.2918,8.7689 -3.5076,-19.2917 c 0,0 0.8769,7.0152 -3.5076,-14.0304 -4.3844,-21.0456 -5.2613,-21.9225 -9.6458,-39.4604 -4.3845,-17.538 -8.769,-43.845 -8.769,-43.845 z"
       id="path4435"
       inkscape:connector-curvature="0" /><path
       style="opacity:1;fill:#000000;fill-opacity:1;fill-rule:nonzero;stroke:#000000;stroke-width:3.5999999;stroke-miterlimit:4;stroke-dasharray:none;stroke-opacity:1"
       d="m 2332.9003,781.40582 c -5.4258,-1.23681 -10.0319,-2.37476 -10.2357,-2.52879 -0.2038,-0.15403 1.4421,-8.33422 3.6576,-18.1782 2.2154,-9.84398 4.649,-20.98703 5.4078,-24.76233 0.7589,-3.7753 1.5793,-7.01421 1.8231,-7.19757 0.2438,-0.18336 5.4992,0.87436 11.6786,2.35049 l 11.2353,2.68388 0,8.40878 c 0,6.63198 -0.7748,10.71253 -3.6664,19.31135 -2.0165,5.99641 -4.2853,13.49216 -5.0419,16.65722 -1.5811,6.61474 -0.8361,6.45154 -14.8584,3.25517 z"
       id="path4437"
       inkscape:connector-curvature="0"
       transform="matrix(0.8,0,0,-0.8,0,3264)" /><path
       style="opacity:1;fill:#000000;fill-opacity:1;fill-rule:nonzero;stroke:#000000;stroke-width:5.9000001;stroke-miterlimit:4;stroke-dasharray:none;stroke-opacity:1"
       d="m 2306.0453,848.62437 c 0,-2.68732 6.8265,-33.58387 7.5935,-34.36763 0.4779,-0.48842 6.1219,0.74471 12.5422,2.74031 9.2466,2.87406 11.5194,3.97017 10.9328,5.27255 -0.58,1.28759 -4.9964,14.59363 -8.6407,26.03292 -0.5311,1.66696 -22.4278,1.98119 -22.4278,0.32185 z"
       id="path4439"
       inkscape:connector-curvature="0"
       transform="matrix(0.8,0,0,-0.8,0,3264)" /></g><g
     inkscape:groupmode="layer"
     id="layer1"
     inkscape:label="Grund 2"
     style="display:inline"><path
       style="opacity:1;fill:#fff6d5;fill-opacity:1;fill-rule:nonzero;stroke:none;stroke-width:4.38449192;stroke-miterlimit:4;stroke-dasharray:none;stroke-opacity:1"
       d="m 1790.8833,2085.2484 c -4.2505,-2.627 -4.3769,-5.5865 -0.5443,-12.7478 6.81,-12.7246 17.8364,-12.0041 17.8364,1.1656 0,11.3829 -8.4533,17.0449 -17.2921,11.5822 z"
       id="path4360"
       inkscape:connector-curvature="0" /></g><g
     inkscape:groupmode="layer"
     id="layer2"
     inkscape:label="Grund 3"
     style="display:inline" /><g
     inkscape:groupmode="layer"
     id="layer3"
     inkscape:label="Grund 4"
     style="display:none"><path
       style="display:inline;opacity:1;fill:#000000;fill-opacity:1;fill-rule:nonzero;stroke:none;stroke-width:5.9000001;stroke-miterlimit:4;stroke-dasharray:none;stroke-opacity:1"
       d="m 612.75073,2729.6835 c -8.14777,-4.8498 -16.75666,-11.2736 -19.13086,-14.2752 -26.82516,17.6185 -43.18252,0.4445 -55.41326,-4.99 -7.80632,-3.4771 -13.22496,-4.3762 -18.67482,-1.4595 -14.08848,7.5399 -23.5145,4.433 -42.89823,-14.14 -30.64454,-29.3626 -34.80654,-56.7463 -20.16009,-132.6426 10.69066,-55.3977 37.04537,-127.6288 54.54142,-157.3256 23.29379,-39.5375 34.03131,-16.781 0.25197,43.5643 -10.47886,24.6834 -16.09111,32.8017 -18.1522,41.5007 -1.14979,5.2107 -5.26383,20.9021 -9.14234,34.8698 -11.12009,40.0471 -19.20203,103.5508 -15.25648,119.878 3.57749,14.8043 25.01482,38.8454 34.63818,38.8454 7.85135,0 8.43322,-1.6395 5.63258,-15.8723 -6.28874,-31.9594 -6.32415,-39.1518 -0.19267,-39.1518 3.35007,0 8.97296,9.1733 12.93537,21.1029 4.29615,12.9345 11.54058,24.3294 18.71593,29.4387 28.74332,33.9773 28.37342,-2.5601 27.49303,-9.7693 -0.41991,-3.2454 0.5048,-7.7431 3.72715,-10.4173 4.68027,-3.8844 9.01659,-1.3911 19.35407,13.9294 40.53125,60.0688 65.21839,49.5641 68.9664,17.4014 2.06646,-17.7329 8.25483,-17.164 21.50478,1.9773 14.1111,20.3851 27.32664,21.8908 44.91371,5.1171 23.21747,-22.1438 32.21359,-70.8753 20.31558,-110.0483 -5.18642,-17.0758 -8.72076,-17.3177 -15.45572,-1.0581 -2.89274,6.9838 -7.88555,12.6978 -11.09503,12.6978 -14.80464,0 0.97452,-48.387 21.01841,-64.4534 11.56177,-9.2674 27.63701,-9.5832 31.08013,-0.6107 1.6875,4.3977 -0.89183,9.5578 -7.12923,14.2626 l -9.7733,7.3721 8.05451,19.5825 c 10.85109,26.4068 11.43811,32.2261 22.86864,42.8937 19.17887,26.1974 24.89867,-86.4556 24.26141,-99.2308 -3.53865,-67.75 4.9597,-80.2837 14.21409,-20.9634 6.79708,43.5685 2.18149,96.9039 -10.84898,125.3662 -10.23356,22.353 -25.3558,34.0564 -33.76383,26.1305 -9.04942,-8.5304 -14.96744,-2.4373 -22.00965,22.6608 -5.86486,20.9023 -11.69565,30.7251 -27.79453,46.824 -21.26227,21.2623 -33.71542,18.2375 -48.99125,10.3022 -7.64517,-3.9714 -12.15962,-3.3218 -21.81617,2.3824 -16.0319,9.4703 -28.81293,9.0082 -46.78872,-1.6915 z"
       id="path4757"
       inkscape:connector-curvature="0"
       sodipodi:nodetypes="sccssssccsssssscccssssssssssccccssssssss" /><path
       style="display:inline;opacity:1;fill:#000000;fill-opacity:1;fill-rule:nonzero;stroke:none;stroke-width:5.9000001;stroke-miterlimit:4;stroke-dasharray:none;stroke-opacity:1"
       d="m 2266.2622,2761.1372 c -43.9154,-77.3248 -45.641,-102.5269 -64.8661,-154.2792 -4.782,-5.347 -4.6453,-61.5847 0.1498,-61.5847 7.5887,0 17.4172,21.3584 17.4172,37.8493 -2.307,27.6208 12.2386,44.3553 25.5304,69.12 0.075,2.8574 2.9923,8.9762 6.485,13.5975 5.8329,22.8446 3.029,-17.5194 49.4036,-17.8633 29.5715,10.0261 10.8505,-18.1123 57.6652,-29.0319 3.5957,-1.1297 -5.3873,-12.1262 -23.9302,-29.294 -27.0357,-25.031 -43.1178,-49.7777 -35.4348,-54.5261 1.6645,-1.0287 19.8009,13.1353 40.303,31.4756 20.5022,18.3404 40.9303,34.5058 45.3961,35.9232 12.0807,8.5225 21.1538,24.5629 25.1375,38.6566 5.7714,20.982 21.1804,49.1845 29.7754,54.4963 11.407,7.05 16.5772,-8.7563 18.0759,-55.2615 1.4703,-45.6221 1.2485,-46.9279 -12.2083,-71.8622 -11.4257,-21.1709 -12.751,-26.2759 -7.9663,-30.6866 9.3739,-8.6412 12.2108,-6.4718 24.9076,19.0468 8.0115,16.1017 12.3814,31.8707 12.9133,46.598 1.8627,22.3965 12.7614,29.5808 34.6169,30.6475 8.0779,0 16.3888,-14.7946 15.4551,-27.5121 -0.5127,-6.9838 -1.1696,-23.1736 -1.4595,-35.9773 -1.9551,-37.5466 -16.2875,-55.2725 -31.1176,-79.3617 -16.699,-25.3676 -42.7769,-44.4643 -38.5261,-65.055 1.4726,-6.7047 4.1079,-12.1905 5.8563,-12.1905 1.7483,0 9.5571,9.0473 17.3529,20.105 7.7957,11.0577 21.1844,27.8676 29.7524,37.3552 21.5843,23.9009 37.3794,72.7473 40.7762,126.1009 2.4842,39.0184 2.1257,41.5503 -7.3071,51.5909 -12.8849,13.7154 -31.877,23.0382 -46.9324,23.0382 -10.7148,0 -12.2858,1.8017 -14.6922,16.8506 -19.1622,50.7661 -42.4775,61.8697 -65.4934,17.0104 9.2986,28.7363 -20.3355,72.8817 -57.115,42.3262 -6.3694,28.8154 -49.2894,70.2422 -89.9208,12.6979 z m 57.8127,-1.2681 c 9.5548,-11.5128 9.9296,-38.2469 0.8992,-64.1271 -22.8332,-58.081 -70.5058,-9.1864 -56.8906,17.1827 15.0152,31.879 31.353,52.4451 41.6627,52.4451 5.3699,0 11.8178,-2.4753 14.3287,-5.5007 z m 70.6639,-41.4415 c 3.232,-10.1833 2.6122,-49.2181 -11.7792,-70.5131 -55.2328,-24.6418 -43.4842,40.832 -28.6464,61.6298 10.0364,13.8549 15.5531,17.7319 25.2311,17.7319 8.8476,0 13.1883,-2.5278 15.1945,-8.8486 z"
       id="path4759"
       inkscape:connector-curvature="0"
       sodipodi:nodetypes="ccscccccsssccsssssccscccssssssccccsccsssccss" /><path
       style="opacity:1;fill:#ffe6d5;fill-opacity:1;fill-rule:nonzero;stroke:none;stroke-width:5.9000001;stroke-miterlimit:4;stroke-dasharray:none;stroke-opacity:1"
       d="m 2430.5994,2680.9806 c -6.0996,-9.3127 -15.1821,-27.978 -20.1833,-41.4786 -8.1458,-21.9897 -13.921,-28.5304 -55.4445,-62.7942 l -46.3514,-38.2478 47.2221,-30.7387 c 25.9722,-16.9064 58.6984,-39.5696 72.7249,-50.3627 14.0265,-10.7932 25.5027,-18.0192 25.5027,-16.0579 0,1.9613 11.1566,18.354 24.7923,36.4283 31.6753,41.9857 39.35,60.0945 43.0456,101.5685 3.3877,38.0185 -1.08,51.8673 -16.7325,51.8673 -16.3197,0 -24.4456,-9.5931 -29.0902,-34.3426 -4.9834,-26.5549 -18.4311,-59.3836 -26.3236,-64.2614 -2.9341,-1.8134 -8.4306,-0.1483 -12.3073,3.7284 -6.4174,6.4174 -5.9787,9.1532 5.2274,32.5991 11.443,23.9415 12.1347,28.6043 10.7144,72.2253 -1.8217,55.9485 -6.6886,64.4598 -22.7966,39.867 z"
       id="path4850"
       inkscape:connector-curvature="0" /><path
       style="opacity:1;fill:#ffe6d5;fill-opacity:1;fill-rule:nonzero;stroke:none;stroke-width:5.9000001;stroke-miterlimit:4;stroke-dasharray:none;stroke-opacity:1"
       d="m 2237.8409,2636.7758 c -10.3588,-20.489 -16.149,-38.0507 -16.149,-48.9798 0,-15.7416 1.0843,-17.2452 14.2496,-19.7583 7.8372,-1.496 24.6079,-7.5439 37.2681,-13.4397 12.6603,-5.8958 23.0186,-8.8744 23.0186,-6.619 0,2.2553 13.3179,18.2572 29.5953,35.5597 19.9966,21.2559 27.6165,32.1334 23.4939,33.5382 -3.3558,1.1435 -13.6398,8.8895 -22.8533,17.2134 -9.2136,8.3238 -18.5966,13.9941 -20.8513,12.6007 -7.2289,-4.4678 -30.8596,2.5838 -41.4026,12.3548 l -10.2203,9.4718 -16.149,-31.9418 z"
       id="path4852"
       inkscape:connector-curvature="0" /><path
       style="opacity:1;fill:#ffe6d5;fill-opacity:1;fill-rule:nonzero;stroke:none;stroke-width:5.9000001;stroke-miterlimit:4;stroke-dasharray:none;stroke-opacity:1"
       d="m 2296.0172,2752.8344 c -13.194,-13.9633 -26.0959,-40.4313 -26.0959,-53.5353 0,-13.0069 14.0024,-28.6739 25.6274,-28.6739 16.4975,0 32.272,27.6346 32.7198,57.3203 0.4943,32.7668 -14.1377,44.0587 -32.2513,24.8889 z"
       id="path4854"
       inkscape:connector-curvature="0" /><path
       style="opacity:1;fill:#ffe6d5;fill-opacity:1;fill-rule:nonzero;stroke:none;stroke-width:5.9000001;stroke-miterlimit:4;stroke-dasharray:none;stroke-opacity:1"
       d="m 2357.4558,2708.9895 c -10.9075,-17.6714 -14.0981,-29.4142 -12.2444,-45.0651 1.7722,-14.9629 11.8366,-21.7985 26.6287,-18.0859 13.8493,3.4759 20.8469,21.582 20.8469,53.9402 0,23.1696 -0.1638,23.4604 -13.2179,23.4604 -10.1853,0 -15.2358,-3.2693 -22.0133,-14.2496 z"
       id="path4856"
       inkscape:connector-curvature="0" /><g
       id="g4862"
       transform="translate(289.87842,-58.905775)"><path
         sodipodi:nodetypes="sscsssssscsss"
         inkscape:connector-curvature="0"
         id="path4858"
         d="m 490.72279,2672.2586 c -3.58631,-4.2201 -9.92442,-19.8878 -14.87098,-32.8282 l -9.72057,-25.4293 9.71601,-7.5935 c 18.6538,-14.5787 -6.94695,-28.8451 -25.55294,-11.897 -2.33414,2.1262 -4.64141,5.0394 -5.93968,5.429 -4.64682,1.3946 -3.23304,-8.9441 -5.19638,-19.409 -1.58497,-8.4482 -4.10667,-26.6087 -2.58959,-32.6532 2.67349,-10.652 8.84513,-11.5971 44.95644,-12.3601 l 38.90973,-0.8221 -0.41075,58.0188 c -0.34249,48.3754 -11.28697,88.0395 -17.40402,88.0395 -1.75144,0 -8.31095,-4.2749 -11.89727,-8.4949 z"
         style="opacity:1;fill:#ffe6d5;fill-opacity:1;fill-rule:nonzero;stroke:none;stroke-width:5.9000001;stroke-miterlimit:4;stroke-dasharray:none;stroke-opacity:1" /><path
         sodipodi:nodetypes="ssscssscscsssssscssccsccsssccsssss"
         inkscape:connector-curvature="0"
         id="path4860"
         d="m 338.85431,2770.6192 c -7.96206,-4.1823 -22.99473,-19.4995 -32.56065,-33.1771 -8.59258,-12.2858 -17.66425,-22.3346 -20.16284,-22.3346 -0.94289,0 -3.04412,0.9723 -4.6694,2.1608 -2.33939,1.7106 -3.17141,4.9431 -3.99348,15.5155 -1.71178,22.0145 -6.69892,23.6158 -23.40005,7.5137 -12.10095,-11.667 -16.24529,-17.9551 -22.03674,-33.4358 -5.17912,-13.844 -9.56731,-19.9685 -13.86792,-19.3554 -4.75794,0.6784 -5.04427,9.7888 -1.02043,32.4678 1.79976,10.1438 2.84917,19.1278 2.33203,19.9646 -1.85129,2.9954 -9.68765,1.4771 -15.26913,-2.9585 -7.13341,-5.669 -17.2462,-17.7047 -21.63429,-25.7481 -2.97156,-5.4469 -3.36688,-8.4618 -3.25214,-24.8024 0.21849,-31.1158 6.02387,-66.2578 19.07806,-115.4863 6.79376,-25.6199 9.26209,-32.1491 23.14817,-61.231 8.54894,-17.9043 16.81609,-36.5201 18.37145,-41.3686 l 2.82794,-8.8153 11.62614,7.1245 c 21.47263,13.1585 69.82063,35.6377 96.10942,44.6856 14.06763,4.8418 30.55337,11.0821 36.63499,13.8675 30.09799,7.9854 21.36747,6.0525 57.55877,13.9597 12.68331,10.6717 9.69976,43.4441 3.3603,54.1217 -9.70407,16.3447 -15.76683,28.4456 -19.71213,36.1335 -3.41222,10.8119 -4.98346,19.7608 -2.00509,27.1212 0.48274,2.5482 5.63961,2.4396 10.7741,-2.9112 2.02826,-2.1137 8.96876,-23.1664 13.68426,-19.7934 2.94523,2.1067 8.81517,12.5601 10.17327,21.3658 0.97319,6.3099 3.0108,17.0938 3.12865,21.0482 0.0421,32.0802 -7.19183,68.1892 -34.20147,87.0089 -5.44858,3.609 -10.39573,3.002 -15.21117,3.002 -7.94591,0 -12.65912,-3.5664 -24.76607,-18.7403 -12.35934,-15.4901 -17.71676,-15.7255 -20.05935,-0.8812 -1.87065,11.8538 -4.42062,18.396 -8.92657,22.9019 -5.48475,5.4847 -12.97066,5.85 -22.05863,1.0763 z"
         style="opacity:1;fill:#ffe6d5;fill-opacity:1;fill-rule:nonzero;stroke:none;stroke-width:5.9000001;stroke-miterlimit:4;stroke-dasharray:none;stroke-opacity:1" /></g></g></svg>